<?xml version="1.0" standalone="no"?>
<!DOCTYPE svg PUBLIC "-//W3C//DTD SVG 20010904//EN"
 "http://www.w3.org/TR/2001/REC-SVG-20010904/DTD/svg10.dtd">
<svg version="1.0" xmlns="http://www.w3.org/2000/svg"
 width="16.000000pt" height="16.000000pt" viewBox="0 0 16.000000 16.000000"
 preserveAspectRatio="xMidYMid meet">
<metadata>
Created by potrace 1.11, written by Peter Selinger 2001-2013
</metadata>
<g transform="translate(0.000000,16.000000) scale(0.002000,-0.002000)"
fill="#000000" stroke="none">
<path d="M2800 4000 l0 -2960 353 0 c578 0 846 20 1082 79 615 156 858 545
940 1506 27 316 35 642 35 1375 0 924 -17 1327 -70 1689 -119 806 -412 1131
-1115 1235 -169 25 -413 36 -827 36 l-398 0 0 -2960z m1052 2080 c291 -33 382
-178 439 -700 17 -147 24 -2246 10 -2554 -26 -538 -100 -771 -274 -855 -71
-35 -122 -46 -259 -56 l-98 -7 0 2091 0 2091 48 0 c26 0 86 -5 134 -10z"/>
</g>
</svg>
