<?xml version="1.0" encoding="UTF-8" standalone="no"?>
<svg
   xmlns:dc="http://purl.org/dc/elements/1.1/"
   xmlns:cc="http://creativecommons.org/ns#"
   xmlns:rdf="http://www.w3.org/1999/02/22-rdf-syntax-ns#"
   xmlns:svg="http://www.w3.org/2000/svg"
   xmlns="http://www.w3.org/2000/svg"
   viewBox="0 0 564.40002 158"
   height="158"
   width="564.40002"
   xml:space="preserve"
   id="svg2"
   version="1.1"><metadata
     id="metadata8"><rdf:RDF><cc:Work
         rdf:about=""><dc:format>image/svg+xml</dc:format><dc:type
           rdf:resource="http://purl.org/dc/dcmitype/StillImage" /></cc:Work></rdf:RDF></metadata><defs
     id="defs6" /><g
     transform="matrix(1.3333333,0,0,-1.3333333,0,158)"
     id="g10"><g
       transform="scale(0.1)"
       id="g12"><path
         id="path14"
         style="fill:#050301;fill-opacity:1;fill-rule:nonzero;stroke:none"
         d="M 4232.97,1185 H 0 V -0.0117188 H 4232.97 V 79.9883 1105 v 80 z m -80,-80 V 79.9883 H 80 V 1105 h 4072.97" /><path
         id="path16"
         style="fill:#050301;fill-opacity:1;fill-rule:nonzero;stroke:none"
         d="m 653.438,405.598 c 26.64,0 41.757,2.886 49.675,28.804 3.606,12.246 6.489,30.957 7.207,56.172 0.715,25.196 0.715,59.043 0.715,102.246 0,43.203 0,77.059 -0.715,102.254 -0.718,24.473 -3.601,43.203 -7.207,56.172 -7.918,25.195 -23.035,28.067 -49.675,28.067 z m -77.774,-77.754 v 529.242 h 61.211 c 72.004,0 110.891,-14.395 131.77,-54.727 20.164,-40.312 23.043,-106.562 23.043,-210.257 0,-103.696 -2.879,-169.219 -23.043,-209.536 -20.879,-40.332 -59.766,-54.722 -131.77,-54.722 h -61.211" /><path
         id="path18"
         style="fill:#050301;fill-opacity:1;fill-rule:nonzero;stroke:none"
         d="M 915.496,857.086 H 993.27 V 327.844 h -77.774 v 529.242" /><path
         id="path20"
         style="fill:#050301;fill-opacity:1;fill-rule:nonzero;stroke:none"
         d="m 1449.51,857.086 h 77.78 V 327.844 h -77.78 v 529.242" /><path
         id="path22"
         style="fill:#050301;fill-opacity:1;fill-rule:nonzero;stroke:none"
         d="m 1729.82,405.598 c 26.64,0 41.76,2.886 49.68,28.804 3.61,12.246 6.49,30.957 7.21,56.172 0.71,25.196 0.71,59.043 0.71,102.246 0,43.203 0,77.059 -0.71,102.254 -0.72,24.473 -3.6,43.203 -7.21,56.172 -7.92,25.195 -23.04,28.067 -49.68,28.067 z m -77.77,-77.754 v 529.242 h 61.21 c 72,0 110.89,-14.395 131.77,-54.727 20.17,-40.312 23.05,-106.562 23.05,-210.257 0,-103.696 -2.88,-169.219 -23.05,-209.536 -20.88,-40.332 -59.77,-54.722 -131.77,-54.722 h -61.21" /><path
         id="path24"
         style="fill:#050301;fill-opacity:1;fill-rule:nonzero;stroke:none"
         d="m 1991.88,857.086 h 177.87 V 777.164 H 2069.66 V 638.191 h 72 v -84.976 h -72 V 407.766 h 100.09 v -79.922 h -177.87 v 529.242" /><path
         id="path26"
         style="fill:#050301;fill-opacity:1;fill-rule:nonzero;stroke:none"
         d="m 2423.15,327.844 -49.68,332.652 -2.88,22.332 h -4.32 V 327.844 h -72.01 v 529.242 h 95.05 l 46.08,-241.941 3.6,-28.082 h 1.44 l 3.6,28.082 46.09,241.941 h 95.05 V 327.844 h -72.01 v 354.984 h -4.32 l -2.88,-22.332 -49.68,-332.652 h -33.13" /><path
         id="path28"
         style="fill:#050301;fill-opacity:1;fill-rule:nonzero;stroke:none"
         d="m 2835.91,857.086 h 77.77 v -457.25 h 102.97 v -71.992 h -180.74 v 529.242" /><path
         id="path30"
         style="fill:#050301;fill-opacity:1;fill-rule:nonzero;stroke:none"
         d="m 3237.69,684.996 -2.16,13.672 h -4.33 l -2.16,-13.672 -22.32,-167.058 h 53.29 z m -131.78,-357.152 79.93,529.242 h 95.05 l 79.92,-529.242 h -75.6 l -14.4,108.008 h -74.89 l -14.41,-108.008 h -75.6" /><path
         id="path32"
         style="fill:#050301;fill-opacity:1;fill-rule:nonzero;stroke:none"
         d="m 3525.6,404.895 c 6.47,0 21.6,-1.45 34.56,7.91 12.96,9.351 23.03,30.23 23.03,73.457 0,43.203 -10.07,64.082 -23.03,73.433 -12.96,9.36 -28.09,7.934 -34.56,7.934 z m 0,234 c 6.47,0 21.6,-0.704 34.56,7.929 12.96,8.637 23.03,25.926 23.03,62.645 0,36.738 -10.07,54.004 -23.03,62.656 -12.96,8.633 -28.09,7.91 -34.56,7.91 z m -77.78,-311.051 v 529.242 h 68.41 c 46.08,0 82.09,-8.633 105.85,-30.957 23.76,-22.324 36.01,-56.895 36.01,-109.453 0,-25.196 -2.16,-43.926 -10.08,-61.215 -7.93,-17.27 -20.17,-31.684 -38.17,-48.242 19.44,-10.801 33.84,-30.957 45.37,-64.809 5.76,-16.558 8.64,-38.164 8.64,-64.805 0,-39.609 -7.21,-74.878 -25.21,-102.246 -18,-27.363 -48.96,-45.371 -95.05,-47.515 h -95.77" /><path
         id="path34"
         style="fill:#050301;fill-opacity:1;fill-rule:nonzero;stroke:none"
         d="m 1325.2,666.988 v 81.367 c -0.73,20.879 -5.04,40.333 -12.96,56.895 -6.49,14.395 -16.57,28.789 -30.97,39.59 -14.4,10.801 -33.85,18.008 -59.77,18.008 -25.91,0 -46.08,-7.207 -60.48,-18.008 -14.4,-10.801 -23.76,-25.195 -30.25,-39.59 -7.92,-16.562 -12.23,-36.016 -12.96,-56.895 V 564.68 436.57 c 0.73,-20.879 5.04,-40.332 12.96,-56.89 6.49,-14.399 15.85,-28.789 30.25,-39.59 14.4,-10.805 34.57,-18.012 60.48,-18.012 25.92,0 45.37,7.207 59.77,18.012 14.4,10.801 24.48,25.191 30.97,39.59 7.92,16.558 12.23,36.011 12.96,56.89 v 81.368 73.441 h -98.82 v -65.527 h 21.04 v -7.914 -30.821 -50.547 c 0,-14.414 -2.88,-24.492 -10.08,-33.125 -3.6,-3.59 -9.35,-5.757 -15.84,-5.757 -13.68,0 -20.16,10.078 -23.04,19.429 -2.16,5.766 -2.87,12.246 -2.87,19.453 v 128.11 183.675 c 0,7.208 0.71,13.692 2.87,19.454 2.88,9.355 9.36,19.433 23.04,19.433 6.49,0 12.24,-2.168 15.84,-5.762 7.2,-8.632 10.08,-18.71 10.08,-33.125 v -81.367 h 77.78" /></g></g></svg>