<svg xmlns="http://www.w3.org/2000/svg" version="1.1" xmlns:xlink="http://www.w3.org/1999/xlink" width="512" height="512" x="0" y="0" viewBox="0 0 682.667 682.667" style="enable-background:new 0 0 512 512" xml:space="preserve" class=""><g><defs><clipPath id="a" clipPathUnits="userSpaceOnUse"><path d="M0 512h512V0H0Z" fill="#000000" opacity="1" data-original="#000000"></path></clipPath></defs><path d="M0 0h226.563l90.493-90.493v-337.531H0Z" style="fill-opacity:1;fill-rule:evenodd;stroke:none" transform="matrix(1.33333 0 0 -1.33333 129.962 13.333)" fill="#ffffff" data-original="#a1ebf5" class="" opacity="1"></path><path d="M0 0v-90.493h90.492Z" style="fill-opacity:1;fill-rule:evenodd;stroke:none" transform="matrix(1.33333 0 0 -1.33333 432.047 13.333)" fill="#00f1a4" data-original="#41cddf" class="" opacity="1"></path><path d="M0 0h86.801v-120.09L43.4-92.863 0-120.09Z" style="fill-opacity:1;fill-rule:evenodd;stroke:none" transform="matrix(1.33333 0 0 -1.33333 344.036 509.214)" fill="#ffb800" data-original="#ff9c1d" class="" opacity="1"></path><g clip-path="url(#a)" transform="matrix(1.33333 0 0 -1.33333 0 682.667)"><path d="M0 0c7.657 0 13.711-9.348 20.598-11.641 6.886-2.292 17.067 1.665 22.802-2.54 5.737-4.204 4.99-15.084 9.194-20.82 4.205-5.736 14.849-8.37 17.142-15.258 2.292-6.887-4.571-15.567-4.571-23.224 0-7.658 6.863-16.339 4.571-23.226-2.293-6.888-12.937-9.521-17.142-15.258-4.204-5.736-3.457-16.615-9.194-20.82-5.735-4.205-15.915-.248-22.802-2.54C13.711-137.62 7.657-146.968 0-146.968c-7.657 0-13.711 9.348-20.598 11.641-6.886 2.292-17.067-1.665-22.802 2.54-5.737 4.205-4.99 15.084-9.194 20.82-4.205 5.737-14.849 8.37-17.142 15.257-2.293 6.888 4.571 15.568 4.571 23.227 0 7.657-6.864 16.337-4.571 23.224 2.293 6.888 12.937 9.522 17.142 15.258 4.204 5.736 3.457 16.616 9.194 20.82 5.735 4.205 15.915.248 22.802 2.54C-13.711-9.348-7.657 0 0 0" style="fill-opacity:1;fill-rule:evenodd;stroke:none" transform="translate(301.428 262.877)" fill="#ad0470" data-original="#ff877f" class="" opacity="1"></path><path d="M0 0h-158.528v428.024H68.035l90.492-90.493V0H88.828" style="stroke-width:20;stroke-linecap:round;stroke-linejoin:round;stroke-miterlimit:22.926;stroke-dasharray:none;stroke-opacity:1" transform="translate(256 73.976)" fill="none" stroke="#000000" stroke-width="20" stroke-linecap="round" stroke-linejoin="round" stroke-miterlimit="22.926" stroke-dasharray="none" stroke-opacity="" data-original="#000000" class=""></path><path d="M0 0v-90.493h90.492Z" style="stroke-width:20;stroke-linecap:round;stroke-linejoin:round;stroke-miterlimit:22.926;stroke-dasharray:none;stroke-opacity:1" transform="translate(324.035 502)" fill="none" stroke="#000000" stroke-width="20" stroke-linecap="round" stroke-linejoin="round" stroke-miterlimit="22.926" stroke-dasharray="none" stroke-opacity="" data-original="#000000" class=""></path><path d="M0 0c7.657 0 13.711-9.348 20.598-11.641 6.886-2.292 17.067 1.665 22.802-2.54 5.737-4.204 4.99-15.084 9.194-20.82 4.205-5.736 14.849-8.37 17.142-15.258 2.292-6.887-4.571-15.567-4.571-23.224 0-7.658 6.863-16.339 4.571-23.226-2.293-6.888-12.937-9.521-17.142-15.258-4.204-5.736-3.457-16.615-9.194-20.82-5.735-4.205-15.915-.248-22.802-2.54C13.711-137.62 7.657-146.968 0-146.968c-7.657 0-13.711 9.348-20.598 11.641-6.886 2.292-17.067-1.665-22.802 2.54-5.737 4.205-4.99 15.084-9.194 20.82-4.205 5.737-14.849 8.37-17.142 15.257-2.293 6.888 4.571 15.568 4.571 23.227 0 7.657-6.864 16.337-4.571 23.224 2.293 6.888 12.937 9.522 17.142 15.258 4.204 5.736 3.457 16.616 9.194 20.82 5.735 4.205 15.915.248 22.802 2.54C-13.711-9.348-7.657 0 0 0Z" style="stroke-width:20;stroke-linecap:round;stroke-linejoin:round;stroke-miterlimit:22.926;stroke-dasharray:none;stroke-opacity:1" transform="translate(301.428 262.877)" fill="none" stroke="#000000" stroke-width="20" stroke-linecap="round" stroke-linejoin="round" stroke-miterlimit="22.926" stroke-dasharray="none" stroke-opacity="" data-original="#000000" class=""></path><path d="M0 0v-120.09l-43.4 27.227-43.401-27.227V0" style="stroke-width:20;stroke-linecap:round;stroke-linejoin:round;stroke-miterlimit:22.926;stroke-dasharray:none;stroke-opacity:1" transform="translate(344.828 130.09)" fill="none" stroke="#000000" stroke-width="20" stroke-linecap="round" stroke-linejoin="round" stroke-miterlimit="22.926" stroke-dasharray="none" stroke-opacity="" data-original="#000000" class=""></path><path d="M0 0h128.834" style="stroke-width:20;stroke-linecap:round;stroke-linejoin:round;stroke-miterlimit:22.926;stroke-dasharray:none;stroke-opacity:1" transform="translate(146.336 411.508)" fill="none" stroke="#000000" stroke-width="20" stroke-linecap="round" stroke-linejoin="round" stroke-miterlimit="22.926" stroke-dasharray="none" stroke-opacity="" data-original="#000000" class=""></path><path d="M0 0h220.445" style="stroke-width:20;stroke-linecap:round;stroke-linejoin:round;stroke-miterlimit:22.926;stroke-dasharray:none;stroke-opacity:1" transform="translate(146.336 361.03)" fill="none" stroke="#000000" stroke-width="20" stroke-linecap="round" stroke-linejoin="round" stroke-miterlimit="22.926" stroke-dasharray="none" stroke-opacity="" data-original="#000000" class=""></path><path d="M0 0h180.445" style="stroke-width:20;stroke-linecap:round;stroke-linejoin:round;stroke-miterlimit:22.926;stroke-dasharray:none;stroke-opacity:1" transform="translate(146.336 310.553)" fill="none" stroke="#000000" stroke-width="20" stroke-linecap="round" stroke-linejoin="round" stroke-miterlimit="22.926" stroke-dasharray="none" stroke-opacity="" data-original="#000000" class=""></path><path d="M0 0c5.508 0 10 4.492 10 10S5.508 20 0 20c-5.509 0-10-4.492-10-10S-5.509 0 0 0" style="fill-opacity:1;fill-rule:evenodd;stroke:none" transform="translate(366.781 300.553)" fill="#000000" data-original="#000000"></path></g></g></svg>