<svg xmlns="http://www.w3.org/2000/svg" version="1.1" xmlns:xlink="http://www.w3.org/1999/xlink" width="512" height="512" x="0" y="0" viewBox="0 0 511.998 511" style="enable-background:new 0 0 512 512" xml:space="preserve" class=""><g><path fill="#ffffff" d="M478.453 421.531H32.98c-14.078 0-25.488-11.41-25.488-25.484V33.48c0-14.078 11.41-25.488 25.488-25.488h445.473c14.074 0 25.485 11.41 25.485 25.488v362.567c0 14.074-11.41 25.484-25.485 25.484zm0 0" opacity="1" data-original="#ffd86e" class=""></path><path fill="#e2dddb" d="M503.941 33.48v362.567c0 14.074-11.41 25.484-25.484 25.484h-31.133c14.078 0 25.485-11.41 25.485-25.484V33.48c0-14.074-11.407-25.484-25.485-25.484h31.133c14.074 0 25.484 11.41 25.484 25.484zm0 0" opacity="1" data-original="#ffb509" class=""></path><path fill="#b6a5ab" d="M503.938 360.129H7.491v35.918c0 14.074 11.41 25.484 25.488 25.484h445.473c14.074 0 25.485-11.41 25.485-25.484zm0 0" opacity="1" data-original="#838383" class=""></path><path fill="#5a5a5a" d="M503.941 360.129v35.918c0 14.074-11.41 25.484-25.484 25.484h-31.133c14.078 0 25.485-11.41 25.485-25.484v-35.918zm0 0" opacity="1" data-original="#5a5a5a" class=""></path><path fill="#b6a5ab" d="M504.508 94.934H8.047V33.477c0-14.075 11.41-25.485 25.484-25.485h445.492c14.075 0 25.485 11.41 25.485 25.485zm0 0" opacity="1" data-original="#acacac" class=""></path><path fill="#9c9c9c" d="M504.512 33.473v61.465h-31.703V33.472c0-14.067-11.407-25.477-25.485-25.477h31.7c14.078 0 25.488 11.41 25.488 25.477zm0 0" opacity="1" data-original="#9c9c9c"></path><path fill="#5a5a5a" d="M186.277 421.531h138.875v41.86H186.277zm0 0" opacity="1" data-original="#5a5a5a" class=""></path><path fill="#b6a5ab" d="M370.152 504.453H141.277a4.998 4.998 0 0 1-4.996-4.996V483.27c0-10.977 8.903-19.88 19.88-19.88h199.112c10.977 0 19.875 8.903 19.875 19.88v16.187a4.993 4.993 0 0 1-4.996 4.996zm0 0" opacity="1" data-original="#838383" class=""></path><path fill="#5a5a5a" d="M375.148 483.266v16.195a4.998 4.998 0 0 1-4.996 4.996H352.52v-21.191c0-10.97-8.903-19.871-19.872-19.871h22.63c10.972 0 19.87 8.898 19.87 19.87zm0 0" opacity="1" data-original="#5a5a5a" class=""></path><path fill="#00f1a4" d="M295.477 275.613h162.257v30.754H295.477zM295.477 357.273h162.257v30.758H295.477zm0 0" opacity="1" data-original="#64dcfc" class=""></path><path fill="#b6a5ab" d="M438.55 275.613h19.184v30.754h-19.183zM438.55 357.273h19.184v30.758h-19.183zm0 0" opacity="1" data-original="#00d1fc" class=""></path><g fill="#0396fd"><path d="M471.172 275.613H282.043c-4 0-7.246-3.242-7.246-7.242v-36.418c0-4 3.246-7.246 7.246-7.246h189.129c4 0 7.246 3.246 7.246 7.246v36.418c0 4-3.246 7.242-7.246 7.242zM471.172 357.273H282.043c-4 0-7.246-3.242-7.246-7.242v-36.418c0-4 3.246-7.246 7.246-7.246h189.129c4 0 7.246 3.246 7.246 7.246v36.418c0 4-3.246 7.242-7.246 7.242zM471.172 438.934H282.043c-4 0-7.246-3.243-7.246-7.243v-36.418a7.246 7.246 0 0 1 7.246-7.246h189.129c4 0 7.246 3.243 7.246 7.246v36.418c0 4-3.246 7.243-7.246 7.243zm0 0" fill="#ff7484" opacity="1" data-original="#0396fd" class=""></path></g><path fill="#ad0470" d="M478.414 231.953v36.418a7.24 7.24 0 0 1-7.242 7.242h-16.805a7.24 7.24 0 0 0 7.242-7.242v-36.418a7.24 7.24 0 0 0-7.242-7.242h16.805a7.24 7.24 0 0 1 7.242 7.242zM478.414 313.61v36.417a7.234 7.234 0 0 1-7.242 7.243h-16.805a7.234 7.234 0 0 0 7.242-7.243V313.61a7.24 7.24 0 0 0-7.242-7.242h16.805a7.24 7.24 0 0 1 7.242 7.242zM478.414 395.277v36.414a7.243 7.243 0 0 1-7.242 7.247h-16.805a7.243 7.243 0 0 0 7.242-7.247v-36.414a7.235 7.235 0 0 0-7.242-7.246h16.805a7.235 7.235 0 0 1 7.242 7.246zm0 0" opacity="1" data-original="#0077f0" class=""></path><path fill="#ff6b81" d="M69.758 51.25c0 8.008-6.488 14.5-14.496 14.5s-14.496-6.492-14.496-14.5c0-8.004 6.488-14.496 14.496-14.496s14.496 6.492 14.496 14.496zm0 0" opacity="1" data-original="#ff6b81"></path><path fill="#ffffff" d="M125.746 51.25c0 8.008-6.492 14.5-14.496 14.5-8.008 0-14.5-6.492-14.5-14.5 0-8.004 6.492-14.496 14.5-14.496 8.004 0 14.496 6.492 14.496 14.496zm0 0" opacity="1" data-original="#ffd86e" class=""></path><path fill="#80e0dc" d="M181.73 51.25c0 8.008-6.488 14.5-14.496 14.5-8.004 0-14.496-6.492-14.496-14.5 0-8.004 6.492-14.496 14.496-14.496 8.008 0 14.496 6.492 14.496 14.496zm0 0" opacity="1" data-original="#80e0dc" class=""></path><path fill="#ff435f" d="M69.754 51.258c0 8-6.484 14.484-14.488 14.484-3.875 0-7.403-1.52-10-4.004 7.843-.172 14.156-6.586 14.156-14.476 0-4.137-1.727-7.856-4.496-10.492.113-.012.23-.012.34-.012 8.004 0 14.488 6.484 14.488 14.5zm0 0" opacity="1" data-original="#ff435f" class=""></path><path fill="#e2dddb" d="M125.742 51.258c0 8-6.484 14.484-14.496 14.484-3.875 0-7.394-1.52-10-4.004 7.852-.172 14.168-6.586 14.168-14.476 0-4.137-1.73-7.856-4.496-10.492.11-.012.219-.012.328-.012 8.012 0 14.496 6.484 14.496 14.5zm0 0" opacity="1" data-original="#ffb509" class=""></path><path fill="#00a8b0" d="M181.734 51.258c0 8-6.496 14.484-14.5 14.484-3.875 0-7.39-1.52-10-4.004 7.856-.172 14.157-6.586 14.157-14.476 0-4.137-1.727-7.856-4.496-10.492.113-.012.23-.012.34-.012 8.003 0 14.5 6.484 14.5 14.5zm0 0" opacity="1" data-original="#00a8b0" class=""></path><path d="M58.96 187.047a7.472 7.472 0 0 0 5.298 2.195 7.495 7.495 0 0 0 5.3-12.793l-18.195-18.195 18.196-18.191a7.495 7.495 0 0 0-10.598-10.598l-23.492 23.492a7.493 7.493 0 0 0 0 10.598zM133.32 158.254l-18.195 18.195a7.491 7.491 0 0 0 .004 10.598c1.46 1.46 3.379 2.195 5.297 2.195s3.836-.734 5.297-2.195l23.496-23.496a7.49 7.49 0 0 0 0-10.594l-23.496-23.496a7.49 7.49 0 0 0-10.594 0 7.488 7.488 0 0 0 0 10.598zM81.172 188.723c.898.351 1.828.52 2.738.52a7.498 7.498 0 0 0 6.977-4.755l18.457-46.988a7.492 7.492 0 1 0-13.945-5.48l-18.462 46.988c-1.511 3.851.383 8.203 4.235 9.715zM45.008 233.203h50.48a7.494 7.494 0 0 0 0-14.988h-50.48a7.491 7.491 0 0 0-7.492 7.492 7.492 7.492 0 0 0 7.492 7.496zM211.754 218.215h-88.75a7.494 7.494 0 0 0 0 14.988h88.75a7.495 7.495 0 1 0 0-14.988zM45.008 264.809h21.504a7.494 7.494 0 0 0 0-14.989H45.008a7.491 7.491 0 0 0-7.492 7.493 7.492 7.492 0 0 0 7.492 7.496zM184.34 249.82a7.491 7.491 0 0 0-7.492 7.493 7.492 7.492 0 0 0 7.492 7.496h13.094a7.495 7.495 0 1 0 0-14.989zM164.617 257.313a7.494 7.494 0 0 0-7.492-7.493h-64.32a7.491 7.491 0 0 0-7.493 7.493 7.492 7.492 0 0 0 7.493 7.496h64.32a7.494 7.494 0 0 0 7.492-7.496zM213.703 257.313a7.494 7.494 0 0 0 7.492 7.496h24.528a7.495 7.495 0 1 0 0-14.989h-24.528a7.494 7.494 0 0 0-7.492 7.493zM172.895 164.266h25.87a7.495 7.495 0 1 0 0-14.989h-25.87a7.494 7.494 0 1 0 0 14.989zM227.742 164.266h157.856a7.492 7.492 0 0 0 7.492-7.496 7.491 7.491 0 0 0-7.492-7.493H227.742a7.494 7.494 0 1 0 0 14.989zM361.621 182.246h-63.945a7.494 7.494 0 0 0 0 14.988h63.945a7.494 7.494 0 0 0 0-14.988zM273.7 182.246h-21.981a7.492 7.492 0 0 0-7.492 7.496 7.491 7.491 0 0 0 7.492 7.492h21.98a7.491 7.491 0 0 0 7.492-7.492 7.492 7.492 0 0 0-7.492-7.496zM172.895 197.234h53.847a7.494 7.494 0 0 0 0-14.988h-53.847a7.495 7.495 0 1 0 0 14.988zM157.219 281.16h-50.477a7.494 7.494 0 0 0-7.496 7.492 7.494 7.494 0 0 0 7.496 7.493h50.477a7.494 7.494 0 0 0 7.492-7.493 7.494 7.494 0 0 0-7.492-7.492zM83.79 281.16H45.007a7.491 7.491 0 0 0-7.492 7.492 7.491 7.491 0 0 0 7.492 7.493h38.781a7.491 7.491 0 0 0 7.492-7.493 7.491 7.491 0 0 0-7.492-7.492zM248.723 281.16H182.78a7.491 7.491 0 0 0-7.492 7.492 7.491 7.491 0 0 0 7.492 7.493h65.942a7.494 7.494 0 0 0 7.492-7.493 7.494 7.494 0 0 0-7.492-7.492zM337.898 242.668H301.84a7.494 7.494 0 0 0 0 14.988h36.058a7.492 7.492 0 0 0 7.493-7.496 7.491 7.491 0 0 0-7.493-7.492zM400.469 257.656h50.902a7.495 7.495 0 1 0 0-14.988H400.47a7.491 7.491 0 0 0-7.492 7.492 7.494 7.494 0 0 0 7.492 7.496zM375.016 242.668h-11.664a7.494 7.494 0 1 0 0 14.988h11.664a7.492 7.492 0 0 0 7.492-7.496 7.491 7.491 0 0 0-7.492-7.492zM301.84 339.313h36.058a7.489 7.489 0 0 0 7.493-7.493 7.491 7.491 0 0 0-7.493-7.492H301.84a7.494 7.494 0 0 0-7.492 7.492 7.491 7.491 0 0 0 7.492 7.493zM400.469 339.313h50.902a7.492 7.492 0 1 0 0-14.985H400.47a7.491 7.491 0 0 0-7.492 7.492 7.491 7.491 0 0 0 7.492 7.493zM363.352 339.313h11.664a7.492 7.492 0 1 0 0-14.985h-11.664a7.491 7.491 0 0 0-7.493 7.492 7.489 7.489 0 0 0 7.493 7.493zM337.898 405.988H301.84c-4.137 0-7.492 3.356-7.492 7.492s3.355 7.493 7.492 7.493h36.058c4.141 0 7.493-3.356 7.493-7.493s-3.352-7.492-7.493-7.492zM451.371 405.988H400.47c-4.14 0-7.492 3.356-7.492 7.492s3.351 7.493 7.492 7.493h50.902c4.14 0 7.496-3.356 7.496-7.493s-3.355-7.492-7.496-7.492zM375.016 405.988h-11.664c-4.141 0-7.497 3.356-7.497 7.492s3.356 7.493 7.497 7.493h11.664c4.14 0 7.492-3.356 7.492-7.493s-3.352-7.492-7.492-7.492zm0 0" fill="#000000" opacity="1" data-original="#000000" class=""></path><path d="M479.023.5H32.98C14.797.5 0 15.293 0 33.48v362.567c0 18.183 14.797 32.976 32.98 32.976h28.2a7.491 7.491 0 0 0 7.492-7.492 7.494 7.494 0 0 0-7.492-7.492h-28.2c-9.921 0-17.992-8.07-17.992-17.992V367.62h272.996v12.914h-5.941c-8.129 0-14.738 6.61-14.738 14.738v18.766H106.738a7.494 7.494 0 0 0-7.492 7.492 7.491 7.491 0 0 0 7.492 7.492h72.047v26.875H156.16c-15.094 0-27.37 12.282-27.37 27.372v16.187c0 6.887 5.6 12.488 12.487 12.488h228.875c6.887 0 12.489-5.601 12.489-12.488V483.27c0-15.09-12.278-27.372-27.371-27.372h-22.625v-9.472h138.527c8.125 0 14.734-6.61 14.734-14.739v-3.527c14.606-3.39 25.524-16.496 25.524-32.113l.566-362.57C512 15.293 497.207.5 479.023.5zm-196.73 349.281v-35.918h188.629v35.918zm20.676-50.906v-15.766h147.273v15.766zm147.273 65.89v15.77H302.97v-15.77zM193.77 429.024h73.535v2.668c0 8.125 6.61 14.735 14.738 14.735h35.617v9.472H193.77zm161.503 41.864c6.829 0 12.383 5.554 12.383 12.383v13.69H143.773v-13.69c0-6.829 5.559-12.383 12.387-12.383zm115.649-39.45H282.293v-35.914h188.629zm25.523-35.39c0 7.258-4.328 13.512-10.535 16.351V395.27c0-8.125-6.613-14.735-14.738-14.735h-5.942v-12.914h31.215zm0-43.41h-10.78c.151-.848.245-39.024.245-39.024 0-8.129-6.613-14.738-14.738-14.738h-5.942v-15.766h5.942c8.125 0 14.738-6.613 14.738-14.738v-36.418c0-8.125-6.613-14.738-14.738-14.738h-42.324a7.492 7.492 0 0 0-7.493 7.496 7.491 7.491 0 0 0 7.493 7.492h42.074v35.918H282.293v-35.918h99.93a7.491 7.491 0 0 0 7.492-7.492 7.492 7.492 0 0 0-7.492-7.496h-100.18c-8.129 0-14.738 6.613-14.738 14.738v36.418c0 8.125 6.61 14.738 14.738 14.738h5.941v15.766h-5.941c-8.129 0-14.738 6.613-14.738 14.738 0 0 .093 38.176.246 39.024H14.988V102.43h481.457zm0-265.196H15.54V33.477c0-9.918 8.07-17.989 17.992-17.989h444.922c9.922 0 17.992 8.07 17.992 17.992zm0 0" fill="#000000" opacity="1" data-original="#000000" class=""></path><path d="M55.262 29.262c-12.125 0-21.989 9.863-21.989 21.988s9.864 21.992 21.989 21.992 21.992-9.867 21.992-21.992-9.867-21.988-21.992-21.988zm0 28.992c-3.86 0-7.004-3.14-7.004-7.004 0-3.86 3.144-7.004 7.004-7.004 3.863 0 7.004 3.145 7.004 7.004a7.01 7.01 0 0 1-7.004 7.004zM111.25 29.262c-12.125 0-21.992 9.863-21.992 21.988s9.867 21.992 21.992 21.992 21.988-9.867 21.988-21.992-9.867-21.988-21.988-21.988zm0 28.992a7.01 7.01 0 0 1-7.004-7.004c0-3.86 3.14-7.004 7.004-7.004 3.86 0 7.004 3.145 7.004 7.004 0 3.863-3.145 7.004-7.004 7.004zM167.234 29.262c-12.125 0-21.988 9.863-21.988 21.988s9.863 21.992 21.988 21.992 21.993-9.867 21.993-21.992-9.868-21.988-21.993-21.988zm0 28.992c-3.859 0-7.004-3.14-7.004-7.004 0-3.86 3.145-7.004 7.004-7.004 3.864 0 7.004 3.145 7.004 7.004a7.01 7.01 0 0 1-7.004 7.004zm0 0" fill="#000000" opacity="1" data-original="#000000" class=""></path></g></svg>