<svg id="Lager_1" data-name="Lager 1" xmlns="http://www.w3.org/2000/svg" xmlns:xlink="http://www.w3.org/1999/xlink" viewBox="0 0 299.99 299.99"><defs><style>.cls-1{fill:none;}.cls-2{clip-path:url(#clip-path);}.cls-3{fill:#e9e4e3;}.cls-4{fill:#ff7484;}.cls-5{fill:#1d1d1b;}.cls-6{fill:#ffb800;}.cls-7{fill:#00f1a4;}.cls-8{fill:#ad0470;}</style><clipPath id="clip-path"><rect class="cls-1" x="3.91" y="18.39" width="292.16" height="263.21"/></clipPath></defs><title>Namnlöst-1</title><g class="cls-2"><path class="cls-3" d="M131.22,35.54C95,11.15,44.57,21.32,20.61,57.88a79.34,79.34,0,0,0,9.54,98.85,17.09,17.09,0,0,1,2,21.28l-4,6a2.06,2.06,0,0,0,2.24,3.13L62.27,179a16.78,16.78,0,0,1,7.75-.17,79.33,79.33,0,0,0,61.2-143.32"/><path class="cls-4" d="M42.66,184l3.94-6a17.08,17.08,0,0,0-2-21.28,79.09,79.09,0,0,1,50-134.15c-28.36-2.57-57.44,10.09-74,35.3a79.34,79.34,0,0,0,9.54,98.85,17.11,17.11,0,0,1,2,21.28l-4,6a2.06,2.06,0,0,0,2.24,3.13l12.19-3.12h0"/><path class="cls-5" d="M49.48,75.17h74.73a3.61,3.61,0,0,0,0-7.22H49.48a3.61,3.61,0,0,0,0,7.22"/><path class="cls-5" d="M49.48,91.69h74.73a3.61,3.61,0,0,0,0-7.22H49.48a3.61,3.61,0,0,0,0,7.22"/><path class="cls-5" d="M49.48,108.21h74.73a3.61,3.61,0,0,0,0-7.22H49.48a3.61,3.61,0,0,0,0,7.22"/><path class="cls-5" d="M49.48,124.56h74.73a3.61,3.61,0,0,0,0-7.22H49.48a3.61,3.61,0,0,0,0,7.22"/><path class="cls-5" d="M49.48,141.08h74.73a3.61,3.61,0,1,0,0-7.22H49.48a3.61,3.61,0,1,0,0,7.22"/><path class="cls-5" d="M72.71,19.67A82.74,82.74,0,0,0,27.46,159,13.57,13.57,0,0,1,29,175.8l-3.95,6a5.68,5.68,0,0,0,6.15,8.6l31.81-8.14a13.37,13.37,0,0,1,6.09-.15,81.16,81.16,0,0,0,11.55,1.67,3.6,3.6,0,1,0,.53-7.19,75.61,75.61,0,0,1-10.54-1.53,20.7,20.7,0,0,0-9.42.2l-27.95,7.16,1.77-2.71A20.82,20.82,0,0,0,32.62,154C-8.29,112.09,12,39.28,71.89,27.17,138,13.8,186.67,86.77,150.22,142.54A75.69,75.69,0,0,1,97.3,176.1a3.61,3.61,0,1,0,1,7.15,83,83,0,0,0,71.16-74.52,44.78,44.78,0,0,0,.33-7.4A83.82,83.82,0,0,0,162.43,67l-3.68-7.21a82.88,82.88,0,0,0-6.22-9.31l-6.29-7.21a83.55,83.55,0,0,0-10.58-9.14l-11.91-7.21a81.88,81.88,0,0,0-43.7-8.17c-2.34.16-3.45.44-7.34,1"/><path class="cls-4" d="M268,196.18a17.23,17.23,0,0,1,2-21.46A80,80,0,0,0,279.64,75c-24.15-36.87-75-47.12-111.54-22.53a79.87,79.87,0,0,0-35.23,62.12,79.6,79.6,0,0,1,90.71,83.51c2.09-.29,4.17-.65,6.24-1.1a17.08,17.08,0,0,1,7.82.17l32.07,8.21a2.08,2.08,0,0,0,2.26-3.15Z"/><path class="cls-6" d="M236.83,173.67A93.33,93.33,0,0,0,153.45,99.1a3.4,3.4,0,0,1-2.95-4.4,79.36,79.36,0,0,1,68.83-55.29,79.53,79.53,0,0,0-86.46,75.22,79.6,79.6,0,0,1,90.71,83.51q3-.42,6-1.06a17.48,17.48,0,0,1,8,.13l1,.25a94.22,94.22,0,0,0-1.77-23.79"/><path class="cls-7" d="M189.23,126.51C153,102.13,102.57,112.3,78.62,148.86a79.33,79.33,0,0,0,9.53,98.84,17.1,17.1,0,0,1,2,21.28l-4,6a2.06,2.06,0,0,0,2.24,3.12L120.27,270a16.78,16.78,0,0,1,7.75-.17,79.33,79.33,0,0,0,61.21-143.32"/><path class="cls-8" d="M100.66,275l3.94-6a17.08,17.08,0,0,0-2-21.28,79.09,79.09,0,0,1,50-134.15c-28.36-2.56-57.44,10.1-73.95,35.31a79.33,79.33,0,0,0,9.53,98.84,17.08,17.08,0,0,1,2,21.28l-4,6a2.07,2.07,0,0,0,2.24,3.13l12.2-3.13h0"/><path class="cls-5" d="M107.48,166.15h74.73a3.61,3.61,0,0,0,0-7.22H107.48a3.61,3.61,0,1,0,0,7.22"/><path class="cls-5" d="M107.48,182.66h74.73a3.61,3.61,0,1,0,0-7.21H107.48a3.61,3.61,0,1,0,0,7.21"/><path class="cls-5" d="M107.48,199.18h74.73a3.61,3.61,0,0,0,0-7.22H107.48a3.61,3.61,0,0,0,0,7.22"/><path class="cls-5" d="M107.48,215.53h74.73a3.61,3.61,0,1,0,0-7.21H107.48a3.61,3.61,0,1,0,0,7.21"/><path class="cls-5" d="M107.48,232.05h74.73a3.61,3.61,0,0,0,0-7.22H107.48a3.61,3.61,0,0,0,0,7.22"/><path class="cls-5" d="M250.67,84.81H175.93a3.61,3.61,0,0,0,0,7.22h74.74a3.61,3.61,0,1,0,0-7.22"/><path class="cls-5" d="M250.67,101.33H175.93a3.61,3.61,0,0,0,0,7.22h74.74a3.61,3.61,0,1,0,0-7.22"/><path class="cls-5" d="M292.27,126.23a3.61,3.61,0,0,0-4.11,3,75.26,75.26,0,0,1-20.63,41.58,20.81,20.81,0,0,0-2.46,25.77l1.77,2.71-28-7.15a22.11,22.11,0,0,0-11.09.14,83.66,83.66,0,0,0-7.36-34.37h30.24a3.61,3.61,0,0,0,0-7.22H216.75a82.76,82.76,0,0,0-6.22-9.3h40.14a3.61,3.61,0,0,0,0-7.22H204.24a82.78,82.78,0,0,0-10.58-9.13h57a3.61,3.61,0,1,0,0-7.22H181.76a82,82,0,0,0-43.71-8.16,75.74,75.74,0,0,1,150.82,3.49,3.61,3.61,0,1,0,7.2-.45,82.95,82.95,0,0,0-165.36-2.08A82.73,82.73,0,0,0,85.46,250,13.57,13.57,0,0,1,87,266.78l-4,6a5.67,5.67,0,0,0,6.15,8.59l31.81-8.14a13.22,13.22,0,0,1,6.09-.14,84,84,0,0,0,11.56,1.67,3.61,3.61,0,1,0,.52-7.2,75.59,75.59,0,0,1-10.54-1.52,20.43,20.43,0,0,0-9.42.2l-27.95,7.15,1.77-2.7A20.84,20.84,0,0,0,90.62,245C49.71,203.07,70,130.25,129.89,118.14c66.09-13.36,114.78,59.6,78.33,115.37a75.71,75.71,0,0,1-52.92,33.57,3.61,3.61,0,0,0,1,7.15,83,83,0,0,0,71.16-74.53c3.84-.66,5.86-1.51,9.63-.54l31.81,8.14a5.67,5.67,0,0,0,6.15-8.6l-3.94-6a13.56,13.56,0,0,1,1.58-16.79,82.4,82.4,0,0,0,22.61-45.54,3.61,3.61,0,0,0-3-4.11"/></g></svg>