<?xml version="1.0" encoding="UTF-8" standalone="no"?>
<!-- Created with Inkscape (http://www.inkscape.org/) -->

<svg
   version="1.1"
   id="svg2"
   xml:space="preserve"
   width="166.66667"
   height="166.66667"
   viewBox="0 0 166.66667 166.66667"
   sodipodi:docname="Digidem Lab-Ikon-RGB-Spridning:kampanj för förslag-Färg.eps"
   xmlns:inkscape="http://www.inkscape.org/namespaces/inkscape"
   xmlns:sodipodi="http://sodipodi.sourceforge.net/DTD/sodipodi-0.dtd"
   xmlns="http://www.w3.org/2000/svg"
   xmlns:svg="http://www.w3.org/2000/svg"><defs
     id="defs6"><clipPath
       clipPathUnits="userSpaceOnUse"
       id="clipPath20"><path
         d="M 564.609,714.359 H 917.308 V 944.511 H 564.609 Z"
         id="path18" /></clipPath><clipPath
       clipPathUnits="userSpaceOnUse"
       id="clipPath36"><path
         d="M 52.793,223.148 H 710.805 V 569.351 H 52.793 Z"
         id="path34" /></clipPath></defs><sodipodi:namedview
     id="namedview4"
     pagecolor="#ffffff"
     bordercolor="#666666"
     borderopacity="1.0"
     inkscape:pageshadow="2"
     inkscape:pageopacity="0.0"
     inkscape:pagecheckerboard="0" /><g
     id="g8"
     inkscape:groupmode="layer"
     inkscape:label="ink_ext_XXXXXX"
     transform="matrix(1.3333333,0,0,-1.3333333,0,166.66667)"><g
       id="g10"
       transform="scale(0.1)"><path
         d="m 818.492,724.359 c 18.731,50.938 7.629,110.36 -33.265,151.239 -40.895,40.89 -100.317,52 -151.243,33.269 l -2.132,-161.058 186.64,-23.45"
         style="fill:#f9ad1a;fill-opacity:1;fill-rule:nonzero;stroke:none"
         id="path12" /><g
         id="g14"><g
           id="g16"
           clip-path="url(#clipPath20)"><path
             d="m 818.496,724.359 v 0 c 4.293,11.692 7.02,23.825 8.18,36.079 -1.156,-12.254 -3.883,-24.387 -8.18,-36.079 m -12.207,1.536 -151.684,19.046 0.02,0.004 151.664,-19.05"
             style="fill:#f9ad1a;fill-opacity:1;fill-rule:nonzero;stroke:none"
             id="path22" /><path
             d="m 818.496,724.359 -12.207,1.536 -151.664,19.05 114.789,28.496 c 25.399,43.168 38.606,77.872 16.871,101.071 30.754,-31.383 44.223,-73.391 40.391,-114.074 -1.16,-12.254 -3.887,-24.387 -8.184,-36.079"
             style="fill:#f5771e;fill-opacity:1;fill-rule:nonzero;stroke:none"
             id="path24" /></g></g><path
         d="m 637.477,742.18 17.132,2.769 -15.73,1.981 z"
         style="fill:#040606;fill-opacity:1;fill-rule:nonzero;stroke:none"
         id="path26" /><path
         d="M 364.84,711.172 158.254,504.586 c -20.621,-20.633 -20.621,-54.063 0,-74.691 L 339.52,248.621 c 20.632,-20.633 54.07,-20.633 74.699,0 L 620.813,455.215 364.84,711.172"
         style="fill:#e3ddda;fill-opacity:1;fill-rule:nonzero;stroke:none"
         id="path28" /><g
         id="g30"><g
           id="g32"
           clip-path="url(#clipPath36)"><path
             d="m 376.875,233.148 h -0.004 c 8.059,0 16.117,1.832 23.496,5.5 -7.375,-3.668 -15.433,-5.5 -23.492,-5.5 M 158.254,429.895 v 0 c -6.465,6.46 -10.902,14.183 -13.313,22.375 2.411,-8.188 6.848,-15.915 13.313,-22.375 v 0"
             style="fill:#e3ddda;fill-opacity:1;fill-rule:nonzero;stroke:none"
             id="path38" /><path
             d="m 376.871,233.148 c -13.512,0 -27.023,5.161 -37.336,15.473 L 158.254,429.895 c -6.465,6.46 -10.902,14.187 -13.313,22.375 -4.66,15.839 -1.746,33.433 8.743,47.082 l 1.16,-1.231 181.269,-181.269 c 10.317,-10.317 23.832,-15.473 37.348,-15.473 13.516,0 27.031,5.156 37.344,15.473 l 174.179,174.179 35.821,-35.82 0.008,0.004 -206.598,-206.594 c -4.164,-4.16 -8.848,-7.492 -13.848,-9.973 -7.379,-3.668 -15.437,-5.5 -23.496,-5.5"
             style="fill:#ccc2bf;fill-opacity:1;fill-rule:nonzero;stroke:none"
             id="path40" /></g></g><path
         d="M 845.758,680.762 C 879.879,634.254 910.707,585.141 937.922,533.754 829.848,522.742 705.586,505.961 620.805,455.227 L 364.859,711.172 c 50.727,84.781 67.508,209.043 78.52,317.118 C 602.668,943.945 740.02,824.883 845.758,680.762"
         style="fill:#f4f3f2;fill-opacity:1;fill-rule:nonzero;stroke:none"
         id="path42" /><path
         d="M 845.758,680.762 C 879.879,634.254 910.707,585.141 937.922,533.754 829.848,522.742 705.586,505.961 620.805,455.227 l -80.207,80.218 c 65.949,65.938 244.07,176.977 305.109,145.34 l 0.051,-0.023"
         style="fill:#e9e9e7;fill-opacity:1;fill-rule:nonzero;stroke:none"
         id="path44" /><path
         d="m 737.289,77.0703 -25.84,-25.8398 c -16.57,-16.5703 -43.453,-16.5703 -60.019,0 L 507.426,195.211 593.293,281.07 737.281,137.078 c 16.574,-16.566 16.574,-43.4374 0.008,-60.0077"
         style="fill:#f4f3f2;fill-opacity:1;fill-rule:nonzero;stroke:none"
         id="path46" /><path
         d="M 685.551,85.3516 541.555,229.352 507.434,195.211 651.43,51.2305 c 16.562,-16.5703 43.441,-16.5703 60.015,0 l 25.852,25.8398 c 1.394,1.4102 2.637,2.9102 3.808,4.4414 -16.632,-12.5703 -40.39,-11.332 -55.554,3.8399"
         style="fill:#e9e9e7;fill-opacity:1;fill-rule:nonzero;stroke:none"
         id="path48" /><path
         d="m 600.668,288.453 -93.234,-93.242 c -10.993,-11 -28.825,-11 -39.821,0 l -53.402,53.41 133.059,133.063 53.398,-53.407 c 11.004,-11.004 11.004,-28.824 0,-39.824"
         style="fill:#a7127b;fill-opacity:1;fill-rule:nonzero;stroke:none"
         id="path50" /><path
         d="m 836.973,722.434 c 19.449,57.91 4.418,122.586 -38.95,165.964 -43.371,43.36 -108.05,58.395 -165.972,38.942 -56.11,43.937 -116.321,83.11 -180.211,116.93 -5.309,2.82 -11.68,2.81 -16.992,-0.04 -5.305,-2.84 -8.856,-8.13 -9.465,-14.12 -11.559,-113.422 -28.684,-229.098 -75,-307.821 L 248.328,620.25 c -7.058,-7.07 -7.058,-18.52 0,-25.594 3.531,-3.539 8.16,-5.297 12.805,-5.297 4.629,0 9.258,1.758 12.789,5.297 L 364.848,685.59 595.219,455.211 401.422,261.41 c -6.559,-6.562 -15.27,-10.16 -24.551,-10.16 -9.269,0 -18,3.598 -24.551,10.16 L 171.039,442.68 c -6.547,6.566 -10.172,15.281 -10.172,24.562 0,9.266 3.625,17.988 10.172,24.539 L 223.262,544 c 7.058,7.059 7.058,18.52 0,25.578 -7.071,7.07 -18.52,7.07 -25.59,0 l -52.211,-52.199 c -13.398,-13.399 -20.777,-31.195 -20.777,-50.137 0,-18.941 7.379,-36.754 20.777,-50.14 L 326.734,235.82 c 13.387,-13.39 31.188,-20.761 50.125,-20.761 12.75,0 24.981,3.363 35.7,9.621 l 42.261,-42.258 c 9.024,-9.024 20.86,-13.524 32.707,-13.524 5.887,0 11.754,1.122 17.293,3.34 L 638.645,38.4219 c 11.785,-11.793 27.289,-17.6914 42.785,-17.6914 15.511,0 31.011,5.8984 42.8,17.6914 l 25.852,25.8476 c 11.426,11.4297 17.731,26.6289 17.731,42.8005 0,16.168 -6.305,31.371 -17.731,42.801 L 618.391,281.559 c 12.871,18.05 11.261,43.32 -4.918,59.5 l -40.614,40.613 59.071,59.082 c 39.789,23.418 92.164,41.277 160.043,54.535 9.808,1.922 16.195,11.43 14.289,21.231 -1.922,9.808 -11.422,16.199 -21.235,14.293 C 718.645,517.832 665.723,500.43 623.844,477.758 L 387.383,714.211 c 41.836,77.316 59.597,181.219 71.129,285.238 189.629,-105.957 344.59,-260.937 450.558,-450.558 -17.601,-1.942 -33.242,-3.832 -47.98,-5.801 -9.899,-1.32 -16.86,-10.418 -15.539,-20.332 1.32,-9.899 10.41,-16.86 20.328,-15.528 21.492,2.86 44.961,5.567 73.863,8.524 5.988,0.594 11.289,4.148 14.129,9.457 2.84,5.309 2.848,11.68 0.031,17 -33.828,63.898 -72.988,124.098 -116.929,180.223 M 731.621,107.07 c 0,-6.5 -2.527,-12.6091 -7.129,-17.2184 l -25.84,-25.8321 c -9.492,-9.4882 -24.941,-9.4882 -34.422,0 L 533.031,195.219 593.293,255.48 724.492,124.281 c 4.602,-4.601 7.129,-10.711 7.129,-17.211 M 587.883,315.48 c 3.918,-3.921 3.918,-10.308 0,-14.23 l -7.379,-7.367 -85.863,-85.871 c -3.918,-3.922 -10.301,-3.922 -14.231,0 L 439.801,248.621 547.27,356.09 Z m 79.558,583.04 c 38.102,4.878 77.188,-7.911 105,-35.723 C 800.23,835 813.023,795.918 808.148,757.82 765.219,808.559 718.18,855.59 667.441,898.52"
         style="fill:#040606;fill-opacity:1;fill-rule:nonzero;stroke:none"
         id="path52" /><path
         d="M 354.656,593.43 221.602,460.367 c -7.071,-7.062 -7.071,-18.519 0,-25.586 3.531,-3.531 8.16,-5.304 12.789,-5.304 4.629,0 9.269,1.773 12.8,5.304 L 380.25,567.836 c 7.059,7.07 7.059,18.531 0,25.594 -7.082,7.058 -18.531,7.058 -25.594,0"
         style="fill:#040606;fill-opacity:1;fill-rule:nonzero;stroke:none"
         id="path54" /><path
         d="M 402.008,546.078 268.945,413.023 c -7.07,-7.062 -7.07,-18.519 0,-25.589 3.532,-3.532 8.164,-5.305 12.793,-5.305 4.629,0 9.27,1.773 12.797,5.305 l 133.063,133.058 c 7.058,7.067 7.058,18.528 0,25.586 -7.078,7.063 -18.532,7.063 -25.59,0"
         style="fill:#040606;fill-opacity:1;fill-rule:nonzero;stroke:none"
         id="path56" /><path
         d="m 316.293,340.09 c 3.531,-3.531 8.16,-5.301 12.789,-5.301 4.633,0 9.273,1.77 12.805,5.301 l 133.058,133.058 c 7.059,7.063 7.059,18.524 0,25.59 -7.078,7.059 -18.527,7.059 -25.59,0 L 316.293,365.68 c -7.07,-7.071 -7.07,-18.532 0,-25.59"
         style="fill:#040606;fill-opacity:1;fill-rule:nonzero;stroke:none"
         id="path58" /><path
         d="m 659.375,1069.39 c 9.988,0 18.09,8.11 18.09,18.09 v 123.69 c 0,9.99 -8.102,18.09 -18.09,18.09 -10,0 -18.086,-8.1 -18.086,-18.09 v -123.69 c 0,-9.98 8.086,-18.09 18.086,-18.09"
         style="fill:#040606;fill-opacity:1;fill-rule:nonzero;stroke:none"
         id="path60" /><path
         d="M 1107.22,781.43 H 983.531 c -9.992,0 -18.093,-8.102 -18.093,-18.102 0,-9.988 8.101,-18.086 18.093,-18.086 h 123.689 c 9.99,0 18.09,8.098 18.09,18.086 0,10 -8.1,18.102 -18.09,18.102"
         style="fill:#040606;fill-opacity:1;fill-rule:nonzero;stroke:none"
         id="path62" /><path
         d="m 1080.05,917.992 c 9.24,3.832 13.62,14.414 9.79,23.645 -3.82,9.226 -14.4,13.617 -23.64,9.789 L 951.93,904.098 c -9.231,-3.825 -13.61,-14.414 -9.789,-23.645 2.886,-6.969 9.629,-11.168 16.726,-11.168 2.301,0 4.649,0.442 6.91,1.379 l 114.273,47.328"
         style="fill:#040606;fill-opacity:1;fill-rule:nonzero;stroke:none"
         id="path64" /><path
         d="m 888.59,974.453 c 4.629,0 9.265,1.758 12.797,5.297 l 87.453,87.46 c 7.078,7.06 7.078,18.52 0,25.58 -7.063,7.07 -18.512,7.07 -25.582,0 l -87.473,-87.45 c -7.058,-7.059 -7.058,-18.527 0,-25.59 3.539,-3.539 8.168,-5.297 12.805,-5.297"
         style="fill:#040606;fill-opacity:1;fill-rule:nonzero;stroke:none"
         id="path66" /><path
         d="m 776.504,1046.09 c 2.262,-0.93 4.609,-1.38 6.918,-1.38 7.101,0 13.84,4.22 16.719,11.17 l 47.332,114.29 c 3.832,9.22 -0.559,19.81 -9.793,23.63 -9.239,3.82 -19.821,-0.56 -23.637,-9.78 l -47.328,-114.29 c -3.832,-9.23 0.547,-19.81 9.789,-23.64"
         style="fill:#040606;fill-opacity:1;fill-rule:nonzero;stroke:none"
         id="path68" /></g></g></svg>
