<?xml version="1.0" encoding="UTF-8" standalone="no"?>
<!-- Created with Inkscape (http://www.inkscape.org/) -->

<svg
   version="1.1"
   id="svg2"
   xml:space="preserve"
   width="166.66667"
   height="166.66667"
   viewBox="0 0 166.66667 166.66667"
   sodipodi:docname="Digidem Lab-Ikon-RGB-Omröstning-Färg.eps"
   xmlns:inkscape="http://www.inkscape.org/namespaces/inkscape"
   xmlns:sodipodi="http://sodipodi.sourceforge.net/DTD/sodipodi-0.dtd"
   xmlns="http://www.w3.org/2000/svg"
   xmlns:svg="http://www.w3.org/2000/svg"><defs
     id="defs6"><clipPath
       clipPathUnits="userSpaceOnUse"
       id="clipPath42"><path
         d="m 363,633 v 617 H 880 V 633 Z"
         id="path40" /></clipPath><clipPath
       clipPathUnits="userSpaceOnUse"
       id="clipPath54"><path
         d="m 793,325 v 652 h 457 V 325 Z"
         id="path52" /></clipPath></defs><sodipodi:namedview
     id="namedview4"
     pagecolor="#ffffff"
     bordercolor="#666666"
     borderopacity="1.0"
     inkscape:pageshadow="2"
     inkscape:pageopacity="0.0"
     inkscape:pagecheckerboard="0" /><g
     id="g8"
     inkscape:groupmode="layer"
     inkscape:label="ink_ext_XXXXXX"
     transform="matrix(1.3333333,0,0,-1.3333333,0,166.66667)"><g
       id="g10"
       transform="scale(0.1)"><path
         d="M 366.223,309.652 V 38.8594 H 23.2617 V 309.652 c 0,14.371 11.6328,25.993 25.9727,25.993 H 340.219 c 14.371,0 26.004,-11.622 26.004,-25.993"
         style="fill:#f25781;fill-opacity:1;fill-rule:nonzero;stroke:none"
         id="path12" /><path
         d="M 366.223,309.652 V 191.871 H 23.2617 v 117.781 c 0,14.371 11.6328,25.993 25.9727,25.993 H 340.219 c 14.371,0 26.004,-11.622 26.004,-25.993"
         style="fill:#f9ad1a;fill-opacity:1;fill-rule:nonzero;stroke:none"
         id="path14" /><path
         d="m 359.063,474.203 v 249.473 c 0,18.551 -15.032,33.582 -33.579,33.582 -18.55,0 -33.582,-15.031 -33.582,-33.582 V 602.027 l -0.011,-0.058 v 161.289 80.68 c 0,9.281 -3.739,17.679 -9.801,23.738 -6.098,6.097 -14.477,9.84 -23.762,9.84 -18.547,0 -33.586,-15.032 -33.586,-33.578 v 29.226 c 0,9.262 -3.75,17.68 -9.82,23.75 -3.188,3.191 -7.039,5.742 -11.289,7.422 -3.871,1.547 -8.082,2.402 -12.461,2.402 -18.551,0 -33.59,-15.023 -33.59,-33.574 v -29.226 c 0,9.281 -3.769,17.679 -9.84,23.738 -3.191,3.199 -7.012,5.762 -11.273,7.453 -3.848,1.535 -8.055,2.387 -12.453,2.387 -18.551,0 -33.598,-15.032 -33.598,-33.578 V 804.25 c 0,2.309 -0.2383,4.578 -0.6758,6.758 -1.3399,6.558 -4.5899,12.43 -9.1602,16.992 -1.5586,1.555 -3.2812,2.938 -5.1093,4.168 -1.9336,1.277 -3.9883,2.387 -6.1719,3.258 v -0.012 c -3.836,1.555 -8.0703,2.402 -12.4688,2.402 -18.5312,0 -33.5703,-15.019 -33.5703,-33.566 V 473.238 c 0,-17.586 7.6602,-34.273 20.9727,-45.761 l 0.1054,-0.09 c 13.3321,-11.469 21.004,-28.184 21.004,-45.762 v -45.98 H 291.891 v 0.742 l 22.773,-0.742 v 45.007 c 0,18.141 8.149,35.317 22.195,46.786 14.063,11.457 22.204,28.625 22.204,46.765"
         style="fill:#ddb08f;fill-opacity:1;fill-rule:nonzero;stroke:none"
         id="path16" /><path
         d="M 1226.16,309.652 V 38.8594 H 883.215 V 309.652 c 0,14.371 11.621,25.993 25.965,25.993 h 290.99 c 14.36,0 25.99,-11.622 25.99,-25.993"
         style="fill:#f25781;fill-opacity:1;fill-rule:nonzero;stroke:none"
         id="path18" /><path
         d="M 1226.16,309.652 V 191.879 H 883.215 v 117.773 c 0,14.371 11.621,25.993 25.965,25.993 h 290.99 c 14.36,0 25.99,-11.622 25.99,-25.993"
         style="fill:#f9ad1a;fill-opacity:1;fill-rule:nonzero;stroke:none"
         id="path20" /><path
         d="m 1219.01,474.203 v 249.473 c 0,18.551 -15.04,33.582 -33.58,33.582 -18.55,0 -33.58,-15.031 -33.58,-33.582 v 39.582 80.68 c 0,9.281 -3.75,17.679 -9.82,23.738 -6.09,6.097 -14.47,9.84 -23.74,9.84 -18.56,0 -33.6,-15.032 -33.6,-33.578 v 29.226 c 0,9.262 -3.75,17.68 -9.82,23.75 -3.19,3.191 -7.04,5.742 -11.29,7.422 -3.87,1.547 -8.08,2.402 -12.46,2.402 -18.55,0 -33.59,-15.023 -33.59,-33.574 v -29.226 c 0,9.281 -3.77,17.679 -9.84,23.738 -3.19,3.199 -7.01,5.762 -11.268,7.453 -3.848,1.535 -8.063,2.387 -12.461,2.387 -18.539,0 -33.59,-15.032 -33.59,-33.578 V 804.25 c 0,9.258 -3.75,17.676 -9.84,23.75 -1.562,1.547 -3.269,2.93 -5.101,4.156 -1.93,1.289 -3.989,2.399 -6.168,3.27 v -0.012 c -3.852,1.555 -8.078,2.402 -12.481,2.402 -18.527,0 -33.566,-15.019 -33.566,-33.566 V 473.238 c 0,-17.586 7.652,-34.273 20.965,-45.761 l 0.113,-0.09 c 13.328,-11.469 21,-28.184 21,-45.762 v -45.98 h 226.557 v 0.742 l 22.76,-0.742 v 45.007 c 0,18.141 8.15,35.317 22.2,46.786 14.05,11.457 22.2,28.628 22.2,46.765"
         style="fill:#ddb08f;fill-opacity:1;fill-rule:nonzero;stroke:none"
         id="path22" /><path
         d="M 796.473,617.75 V 38.8594 H 453.523 V 617.75 c 0,14.359 11.633,25.988 25.973,25.988 h 290.988 c 14.368,0 25.989,-11.629 25.989,-25.988"
         style="fill:#f25781;fill-opacity:1;fill-rule:nonzero;stroke:none"
         id="path24" /><path
         d="M 796.473,617.75 V 499.965 H 453.523 V 617.75 c 0,14.359 11.633,25.988 25.973,25.988 h 290.988 c 14.368,0 25.989,-11.629 25.989,-25.988"
         style="fill:#f9ad1a;fill-opacity:1;fill-rule:nonzero;stroke:none"
         id="path26" /><path
         d="m 789.324,782.301 v 249.469 c 0,18.55 -15.027,33.58 -33.578,33.58 -18.551,0 -33.582,-15.03 -33.582,-33.58 v -121.649 -0.058 161.277 80.68 c 0,9.29 -3.75,17.69 -9.812,23.75 -6.098,6.1 -14.465,9.84 -23.758,9.84 -18.539,0 -33.59,-15.04 -33.59,-33.59 v 29.24 c 0,9.26 -3.75,17.68 -9.816,23.75 -3.192,3.19 -7.043,5.73 -11.293,7.42 -3.872,1.55 -8.079,2.4 -12.461,2.4 -18.547,0 -33.586,-15.01 -33.586,-33.57 v -29.24 c 0,9.29 -3.77,17.69 -9.844,23.75 -3.191,3.19 -7.008,5.77 -11.27,7.45 -3.847,1.54 -8.058,2.39 -12.457,2.39 -18.554,0 -33.586,-15.04 -33.586,-33.59 v -39.68 c 0,9.26 -3.757,17.68 -9.847,23.75 -3.196,3.19 -7.012,5.72 -11.27,7.41 -3.851,1.56 -8.082,2.41 -12.48,2.41 -18.531,0 -33.571,-15.02 -33.571,-33.57 V 781.324 c 0,-17.574 7.672,-34.265 20.973,-45.754 l 0.117,-0.086 c 13.321,-11.468 20.992,-28.183 20.992,-45.761 v -45.985 h 226.559 v 0.735 l 22.762,-0.743 v 45.02 c 0,18.141 8.148,35.313 22.199,46.781 14.051,11.461 22.199,28.629 22.199,46.77"
         style="fill:#ddb08f;fill-opacity:1;fill-rule:nonzero;stroke:none"
         id="path28" /><path
         d="m 770.492,658.164 h -7.422 v 26.879 c 0,12.738 5.664,24.676 15.535,32.723 18.348,14.968 28.868,37.14 28.868,60.828 v 249.476 c 0,28.52 -23.2,51.72 -51.719,51.72 -5.383,0 -10.559,-0.84 -15.441,-2.36 v 70.89 c 0,28.51 -23.2,51.72 -51.719,51.72 -6.731,0 -13.129,-1.33 -19.035,-3.67 -7.547,19.22 -26.246,32.89 -48.129,32.89 -21.879,0 -40.586,-13.67 -48.117,-32.89 -5.911,2.34 -12.321,3.67 -19.04,3.67 -25.32,0 -46.421,-18.33 -50.832,-42.38 -5.14,1.71 -10.628,2.69 -16.328,2.69 -28.519,0 -51.722,-23.22 -51.722,-51.72 V 914.805 c 0,-10.02 8.121,-18.141 18.132,-18.141 10.024,0 18.141,8.109 18.141,18.141 v 193.825 c 0,8.5 6.93,15.42 15.449,15.42 8.512,0 15.442,-6.92 15.442,-15.42 V 964.426 c 0,-10.024 8.121,-18.141 18.136,-18.141 10.012,0 18.141,8.11 18.141,18.141 v 183.894 c 0,8.52 6.922,15.43 15.441,15.43 8.52,0 15.438,-6.91 15.438,-15.43 V 964.426 c 0,-10.024 8.133,-18.141 18.141,-18.141 10.019,0 18.14,8.11 18.14,18.141 v 213.114 c 0,8.52 6.934,15.45 15.438,15.45 8.511,0 15.457,-6.93 15.457,-15.45 V 964.426 c 0,-10.024 8.109,-18.141 18.129,-18.141 10.019,0 18.136,8.11 18.136,18.141 v 183.894 c 0,8.52 6.93,15.43 15.453,15.43 8.508,0 15.426,-6.91 15.426,-15.43 V 906.406 c 0,-10.543 -6.304,-19.902 -16.066,-23.871 l -43.703,-17.762 c -20.899,-8.48 -34.407,-28.539 -34.407,-51.097 v -16.25 c 0,-10.031 8.129,-18.141 18.149,-18.141 10.008,0 18.141,8.11 18.141,18.141 v 16.25 c 0,7.73 4.617,14.59 11.769,17.5 l 43.707,17.75 c 23.512,9.551 38.699,32.109 38.699,57.48 v 121.664 c 0,8.51 6.922,15.44 15.434,15.44 8.527,0 15.445,-6.93 15.445,-15.44 V 778.594 c 0,-12.739 -5.656,-24.668 -15.523,-32.719 -18.352,-14.973 -28.875,-37.141 -28.875,-60.832 V 658.164 H 513.754 v 27.863 c 0,22.879 -9.949,44.559 -27.41,59.586 -9.324,8.032 -14.668,19.7 -14.668,32.004 v 56.567 c 0,10.019 -8.121,18.152 -18.141,18.152 -10.012,0 -18.144,-8.133 -18.144,-18.152 v -56.567 c 0,-22.883 9.953,-44.558 27.414,-59.605 9.328,-8.028 14.668,-19.688 14.668,-31.985 v -27.961 c -23.371,-1.078 -42.082,-20.378 -42.082,-44.011 V 38.8789 c 0,-10.0195 8.132,-18.1601 18.144,-18.1601 10.02,0 18.141,8.1406 18.141,18.1601 V 478.125 H 778.344 V 38.8789 c 0,-10.0195 8.129,-18.1601 18.14,-18.1601 10.02,0 18.141,8.1406 18.141,18.1601 V 614.055 c -0.012,24.32 -19.801,44.109 -44.133,44.109 M 471.664,514.402 v 99.641 c 0,4.332 3.516,7.852 7.848,7.852 h 290.992 c 4.32,0 7.84,-3.52 7.84,-7.852 v -99.641 h -306.68"
         style="fill:#040606;fill-opacity:1;fill-rule:nonzero;stroke:none"
         id="path30" /><path
         d="m 1200.76,353.777 h -7.43 v 26.883 c 0,12.738 5.66,24.668 15.55,32.719 18.34,14.965 28.85,37.141 28.85,60.832 v 249.465 c 0,28.519 -23.19,51.719 -51.71,51.719 -5.39,0 -10.57,-0.829 -15.44,-2.36 v 70.903 c 0,28.5 -23.2,51.707 -51.72,51.707 -6.74,0 -13.14,-1.329 -19.04,-3.668 -7.54,19.218 -26.25,32.902 -48.13,32.902 -21.88,0 -40.59,-13.684 -48.13,-32.902 -5.892,2.339 -12.306,3.668 -19.025,3.668 -25.332,0 -46.422,-18.305 -50.828,-42.379 -5.152,1.718 -10.633,2.691 -16.34,2.691 -28.519,0 -51.722,-23.199 -51.722,-51.719 V 473.227 c 0,-22.879 9.953,-44.559 27.171,-59.379 l 0.243,-0.219 c 9.328,-8.031 14.668,-19.695 14.668,-31.992 v -27.949 c -23.379,-1.079 -42.082,-20.391 -42.082,-44.02 V 38.8711 c 0,-10.0117 8.128,-18.1406 18.14,-18.1406 10.02,0 18.141,8.1289 18.141,18.1406 V 173.738 H 1208.59 V 38.8711 c 0,-10.0117 8.13,-18.1406 18.15,-18.1406 10.02,0 18.14,8.1289 18.14,18.1406 V 309.668 c 0,24.32 -19.79,44.109 -44.12,44.109 M 901.926,210.012 v 99.644 c 0,4.332 3.519,7.848 7.847,7.848 h 145.487 c 10.02,0 18.15,8.109 18.15,18.141 0,10.015 -8.13,18.132 -18.15,18.132 H 944.016 v 27.86 c 0,22.879 -9.95,44.558 -27.168,59.379 l -0.243,0.211 c -9.332,8.031 -14.679,19.703 -14.679,32 v 331.011 c 0,8.512 6.941,15.442 15.453,15.442 8.504,0 15.437,-6.93 15.437,-15.442 V 660.039 c 0,-10.023 8.122,-18.144 18.141,-18.144 10.012,0 18.141,8.109 18.141,18.144 v 183.899 c 0,8.507 6.918,15.425 15.449,15.425 8.512,0 15.43,-6.918 15.43,-15.425 V 660.039 c 0,-10.023 8.133,-18.144 18.143,-18.144 10.01,0 18.14,8.109 18.14,18.144 V 873.16 c 0,8.516 6.92,15.449 15.43,15.449 8.52,0 15.46,-6.933 15.46,-15.449 V 660.039 c 0,-10.023 8.1,-18.144 18.14,-18.144 10.02,0 18.13,8.109 18.13,18.144 v 183.899 c 0,8.507 6.93,15.425 15.45,15.425 8.51,0 15.44,-6.918 15.44,-15.425 V 602.016 c 0,-10.539 -6.31,-19.899 -16.08,-23.871 l -43.7,-17.758 c -20.9,-8.477 -34.41,-28.539 -34.41,-51.102 v -16.25 c 0,-10.015 8.13,-18.137 18.15,-18.137 10.01,0 18.14,8.11 18.14,18.137 v 16.25 c 0,7.731 4.62,14.594 11.76,17.5 l 43.71,17.75 c 23.52,9.551 38.71,32.11 38.71,57.481 v 121.66 c 0,8.512 6.91,15.441 15.44,15.441 8.52,0 15.43,-6.929 15.43,-15.441 V 474.199 c 0,-12.734 -5.65,-24.664 -15.52,-32.722 -18.35,-14.969 -28.87,-37.129 -28.87,-60.817 v -26.883 h -24.99 c -10.02,0 -18.13,-8.117 -18.13,-18.14 0,-10.024 8.11,-18.133 18.13,-18.133 h 68.69 c 4.32,0 7.83,-3.516 7.83,-7.848 V 210.012 H 901.926"
         style="fill:#040606;fill-opacity:1;fill-rule:nonzero;stroke:none"
         id="path32" /><path
         d="m 340.23,353.777 h -7.433 v 26.883 c 0,12.738 5.664,24.668 15.543,32.719 18.348,14.965 28.863,37.141 28.863,60.832 v 249.465 c 0,28.519 -23.195,51.719 -51.723,51.719 -5.367,0 -10.558,-0.829 -15.429,-2.36 v 70.903 c 0,28.5 -23.199,51.707 -51.723,51.707 -6.726,0 -13.137,-1.329 -19.035,-3.668 -7.547,19.218 -26.25,32.902 -48.133,32.902 -21.879,0 -40.578,-13.684 -48.117,-32.902 -5.914,2.339 -12.324,3.668 -19.043,3.668 -25.3203,0 -46.4219,-18.305 -50.832,-42.379 -5.1367,1.718 -10.6211,2.691 -16.3282,2.691 -28.5195,0 -51.71871,-23.199 -51.71871,-51.719 V 473.227 c 0,-22.879 9.93751,-44.559 27.16801,-59.379 l 0.2304,-0.219 c 9.3321,-8.031 14.6836,-19.691 14.6836,-31.992 V 353.688 C 23.8203,352.605 5.12109,333.297 5.12109,309.668 V 38.8711 c 0,-10.0117 8.13281,-18.1406 18.14061,-18.1406 10.0196,0 18.1289,8.1289 18.1289,18.1406 V 173.738 h 27.3907 c 10.0078,0 18.1367,8.121 18.1367,18.133 0,10.008 -8.1289,18.141 -18.1367,18.141 H 41.3906 v 99.656 c 0,4.32 3.5196,7.836 7.8477,7.836 H 340.23 c 4.321,0 7.84,-3.516 7.84,-7.836 V 210.012 H 139.723 c -10.02,0 -18.141,-8.121 -18.141,-18.141 0,-10.012 8.121,-18.133 18.141,-18.133 H 348.07 V 38.8711 c 0,-10.0117 8.129,-18.1406 18.141,-18.1406 10.019,0 18.129,8.1289 18.129,18.1406 V 309.668 c 0,24.32 -19.777,44.109 -44.11,44.109 m -256.7495,0 v 27.86 c 0,22.879 -9.9492,44.558 -27.1719,59.379 l -0.2383,0.211 c -9.3242,8.031 -14.6797,19.703 -14.6797,32 v 331.011 c 0,8.512 6.9414,15.442 15.4492,15.442 8.5196,0 15.4493,-6.93 15.4493,-15.442 V 660.039 c 0,-10.023 8.1132,-18.144 18.1289,-18.144 10.012,0 18.141,8.109 18.141,18.144 v 183.899 c 0,8.507 6.921,15.425 15.449,15.425 8.512,0 15.43,-6.918 15.43,-15.425 V 660.039 c 0,-10.023 8.128,-18.144 18.14,-18.144 10.02,0 18.152,8.109 18.152,18.144 V 873.16 c 0,8.516 6.922,15.449 15.442,15.449 8.508,0 15.437,-6.933 15.437,-15.449 V 660.039 c 0,-10.023 8.121,-18.144 18.141,-18.144 10.02,0 18.133,8.109 18.133,18.144 v 183.899 c 0,8.507 6.937,15.425 15.445,15.425 8.524,0 15.442,-6.918 15.442,-15.425 V 602.016 c 0,-10.539 -6.309,-19.899 -16.071,-23.871 L 214,560.387 c -20.898,-8.477 -34.41,-28.539 -34.41,-51.102 v -16.25 c 0,-10.015 8.121,-18.137 18.14,-18.137 10.008,0 18.137,8.11 18.137,18.137 v 16.25 c 0,7.731 4.621,14.594 11.774,17.5 l 43.707,17.75 c 23.511,9.551 38.703,32.11 38.703,57.481 v 121.66 c 0,8.512 6.918,15.441 15.437,15.441 8.52,0 15.442,-6.929 15.442,-15.441 V 474.199 c 0,-12.734 -5.66,-24.664 -15.52,-32.722 -18.347,-14.969 -28.883,-37.129 -28.883,-60.817 V 353.777 H 83.4805"
         style="fill:#040606;fill-opacity:1;fill-rule:nonzero;stroke:none"
         id="path34" /><g
         id="g36"><g
           id="g38"
           clip-path="url(#clipPath42)"><path
             d="M 726.801,658.164 H 513.754 v 27.863 c 0,22.879 -9.949,44.559 -27.41,59.586 -9.324,8.032 -14.668,19.7 -14.668,32.004 v 56.567 c 0,10.019 -8.121,18.152 -18.141,18.152 -0.004,0 -0.008,0 -0.012,0 v 44.328 c 10.024,0 18.141,8.109 18.141,18.141 v 193.825 c 0,8.5 6.93,15.42 15.449,15.42 8.512,0 15.442,-6.92 15.442,-15.42 V 964.426 c 0,-10.024 8.121,-18.141 18.136,-18.141 10.012,0 18.141,8.11 18.141,18.141 v 183.894 c 0,8.52 6.922,15.43 15.441,15.43 8.52,0 15.438,-6.91 15.438,-15.43 V 964.426 c 0,-10.024 8.133,-18.141 18.141,-18.141 10.019,0 18.14,8.11 18.14,18.141 v 213.114 c 0,8.52 6.934,15.45 15.438,15.45 8.511,0 15.457,-6.93 15.457,-15.45 V 964.426 c 0,-10.024 8.109,-18.141 18.129,-18.141 10.019,0 18.136,8.11 18.136,18.141 v 183.894 c 0,8.52 6.93,15.43 15.453,15.43 8.508,0 15.426,-6.91 15.426,-15.43 V 906.406 c 0,-10.543 -6.304,-19.902 -16.066,-23.871 l -43.703,-17.762 c -20.899,-8.48 -34.407,-28.539 -34.407,-51.097 v -16.25 c 0,-10.031 8.129,-18.141 18.149,-18.141 10.008,0 18.141,8.11 18.141,18.141 v 16.25 c 0,7.73 4.617,14.59 11.769,17.5 l 43.707,17.75 c 23.512,9.551 38.699,32.109 38.699,57.48 v 121.664 c 0,8.51 6.922,15.44 15.434,15.44 8.527,0 15.445,-6.93 15.445,-15.44 V 778.594 c 0,-12.739 -5.656,-24.668 -15.523,-32.719 -18.352,-14.973 -28.875,-37.141 -28.875,-60.832 v -26.879"
             style="fill:#ab5c3b;fill-opacity:1;fill-rule:nonzero;stroke:none"
             id="path44" /><path
             d="m 744.926,643.73 -22.762,0.743 v -0.735 H 495.605 v 45.985 0 0 c 0,17.578 -7.671,34.293 -20.992,45.761 l -0.117,0.086 c -13.301,11.489 -20.973,28.18 -20.973,45.754 v 71.012 c 0.004,0 0.008,0 0.012,0 10.02,0 18.141,-8.133 18.141,-18.152 v -56.567 c 0,-12.304 5.344,-23.972 14.668,-32.004 17.461,-15.027 27.41,-36.707 27.41,-59.586 v -27.863 h 213.047 v 26.879 c 0,23.691 10.523,45.859 28.875,60.832 9.867,8.051 15.523,19.98 15.523,32.719 v 249.476 c 0,8.51 -6.918,15.44 -15.445,15.44 -8.512,0 -15.434,-6.93 -15.434,-15.44 V 906.406 c 0,-25.371 -15.187,-47.929 -38.699,-57.48 l -43.707,-17.75 c -7.152,-2.91 -11.769,-9.77 -11.769,-17.5 v -16.25 c 0,-10.031 -8.133,-18.141 -18.141,-18.141 -10.02,0 -18.149,8.11 -18.149,18.141 v 16.25 c 0,22.558 13.508,42.617 34.407,51.097 l 43.703,17.762 c 9.762,3.969 16.066,13.328 16.066,23.871 v 241.914 c 0,8.52 -6.918,15.43 -15.426,15.43 -8.523,0 -15.453,-6.91 -15.453,-15.43 V 964.426 c 0,-10.031 -8.117,-18.141 -18.136,-18.141 -10.02,0 -18.129,8.117 -18.129,18.141 v 213.114 c 0,8.52 -6.946,15.45 -15.457,15.45 -8.504,0 -15.438,-6.93 -15.438,-15.45 V 964.426 c 0,-10.031 -8.121,-18.141 -18.14,-18.141 -10.008,0 -18.141,8.117 -18.141,18.141 v 183.894 c 0,8.52 -6.918,15.43 -15.438,15.43 -8.519,0 -15.441,-6.91 -15.441,-15.43 V 964.426 c 0,-10.031 -8.129,-18.141 -18.141,-18.141 -10.015,0 -18.136,8.117 -18.136,18.141 v 144.204 c 0,8.5 -6.93,15.42 -15.442,15.42 -8.519,0 -15.449,-6.92 -15.449,-15.42 V 914.805 c 0,-10.032 -8.117,-18.141 -18.141,-18.141 v 215.676 c 0,18.55 15.04,33.57 33.571,33.57 4.398,0 8.629,-0.85 12.48,-2.41 4.258,-1.69 8.074,-4.22 11.27,-7.41 6.09,-6.07 9.847,-14.49 9.847,-23.75 v 39.68 c 0,18.55 15.032,33.59 33.586,33.59 4.399,0 8.61,-0.85 12.457,-2.39 4.262,-1.68 8.079,-4.26 11.27,-7.45 6.074,-6.06 9.844,-14.46 9.844,-23.75 v 29.24 c 0,18.56 15.039,33.57 33.586,33.57 4.382,0 8.589,-0.85 12.461,-2.4 4.25,-1.69 8.101,-4.23 11.293,-7.42 6.066,-6.07 9.816,-14.49 9.816,-23.75 v -29.24 0 0 c 0,18.55 15.051,33.59 33.59,33.59 9.293,0 17.66,-3.74 23.758,-9.84 6.062,-6.06 9.812,-14.46 9.812,-23.75 v -80.68 -39.57 0 0 c 0,18.55 15.031,33.58 33.582,33.58 18.551,0 33.578,-15.03 33.578,-33.58 V 782.301 c 0,-18.141 -8.148,-35.309 -22.199,-46.77 -14.051,-11.468 -22.199,-28.64 -22.199,-46.781 v -45.02"
             style="fill:#040606;fill-opacity:1;fill-rule:nonzero;stroke:none"
             id="path46" /></g></g><g
         id="g48"><g
           id="g50"
           clip-path="url(#clipPath54)"><path
             d="m 1113.95,335.645 h -40.54 c 0,10.015 -8.13,18.132 -18.15,18.132 H 944.016 v 27.86 c 0,22.879 -9.95,44.558 -27.168,59.379 l -0.243,0.211 c -9.332,8.031 -14.679,19.703 -14.679,32 v 331.011 c 0,8.512 6.941,15.442 15.453,15.442 8.504,0 15.437,-6.93 15.437,-15.442 V 660.039 c 0,-10.023 8.122,-18.144 18.141,-18.144 10.012,0 18.141,8.109 18.141,18.144 v 183.899 c 0,8.507 6.918,15.425 15.449,15.425 8.512,0 15.43,-6.918 15.43,-15.425 V 660.039 c 0,-10.023 8.133,-18.144 18.143,-18.144 10.01,0 18.14,8.109 18.14,18.144 V 873.16 c 0,8.516 6.92,15.449 15.43,15.449 8.52,0 15.46,-6.933 15.46,-15.449 V 660.039 c 0,-10.023 8.1,-18.144 18.14,-18.144 10.02,0 18.13,8.109 18.13,18.144 v 183.899 c 0,8.507 6.93,15.425 15.45,15.425 8.51,0 15.44,-6.918 15.44,-15.425 V 602.016 c 0,-10.539 -6.31,-19.899 -16.08,-23.871 l -43.7,-17.758 c -20.9,-8.477 -34.41,-28.539 -34.41,-51.102 v -16.25 c 0,-10.015 8.13,-18.137 18.15,-18.137 10.01,0 18.14,8.11 18.14,18.137 v 16.25 c 0,7.731 4.62,14.594 11.76,17.5 l 43.71,17.75 c 23.52,9.551 38.71,32.11 38.71,57.481 v 121.66 c 0,8.512 6.91,15.441 15.44,15.441 8.52,0 15.43,-6.929 15.43,-15.441 V 474.199 c 0,-12.734 -5.65,-24.664 -15.52,-32.722 -18.35,-14.969 -28.87,-37.129 -28.87,-60.817 v -26.883 h -24.99 c -10.02,0 -18.13,-8.113 -18.13,-18.132"
             style="fill:#c27e59;fill-opacity:1;fill-rule:nonzero;stroke:none"
             id="path56" /><path
             d="m 1174.61,335.645 -22.76,0.742 v -0.742 h -37.9 c 0,10.019 8.11,18.132 18.13,18.132 h 24.99 v 26.883 c 0,23.688 10.52,45.848 28.87,60.817 9.87,8.058 15.52,19.988 15.52,32.722 v 249.477 c 0,8.512 -6.91,15.441 -15.43,15.441 -8.53,0 -15.44,-6.929 -15.44,-15.441 v -121.66 c 0,-25.371 -15.19,-47.93 -38.71,-57.481 l -43.71,-17.75 c -7.14,-2.906 -11.76,-9.769 -11.76,-17.5 v -16.25 c 0,-10.027 -8.13,-18.137 -18.14,-18.137 -10.02,0 -18.15,8.122 -18.15,18.137 v 16.25 c 0,22.563 13.51,42.625 34.41,51.102 l 43.7,17.758 c 9.77,3.972 16.08,13.332 16.08,23.871 v 241.922 c 0,8.507 -6.93,15.425 -15.44,15.425 -8.52,0 -15.45,-6.918 -15.45,-15.425 V 660.039 c 0,-10.035 -8.11,-18.144 -18.13,-18.144 -10.04,0 -18.14,8.121 -18.14,18.144 V 873.16 c 0,8.516 -6.94,15.449 -15.46,15.449 -8.51,0 -15.43,-6.933 -15.43,-15.449 V 660.039 c 0,-10.035 -8.13,-18.144 -18.14,-18.144 -10.01,0 -18.143,8.121 -18.143,18.144 v 183.899 c 0,8.507 -6.918,15.425 -15.43,15.425 -8.531,0 -15.449,-6.918 -15.449,-15.425 V 660.039 c 0,-10.035 -8.129,-18.144 -18.141,-18.144 -10.019,0 -18.141,8.121 -18.141,18.144 v 144.199 c 0,8.512 -6.933,15.442 -15.437,15.442 -8.512,0 -15.453,-6.93 -15.453,-15.442 V 473.227 c 0,-12.297 5.347,-23.969 14.679,-32 l 0.243,-0.211 c 17.218,-14.821 27.168,-36.5 27.168,-59.379 v -27.86 h 111.244 c 10.02,0 18.15,-8.117 18.15,-18.132 H 925.293 v 45.98 0 c 0,17.578 -7.672,34.293 -21,45.762 l -0.113,0.09 c -13.313,11.488 -20.965,28.175 -20.965,45.761 V 804.25 c 0,18.547 15.039,33.566 33.566,33.566 4.403,0 8.629,-0.847 12.481,-2.402 v 0.012 c 2.179,-0.871 4.238,-1.981 6.168,-3.27 1.832,-1.226 3.539,-2.609 5.101,-4.156 6.09,-6.074 9.84,-14.492 9.84,-23.75 v 39.688 c 0,18.546 15.051,33.578 33.59,33.578 4.398,0 8.613,-0.852 12.461,-2.387 4.258,-1.691 8.078,-4.254 11.268,-7.453 6.07,-6.059 9.84,-14.457 9.84,-23.738 v 29.226 c 0,18.551 15.04,33.574 33.59,33.574 4.38,0 8.59,-0.855 12.46,-2.402 4.25,-1.68 8.1,-4.231 11.29,-7.422 6.07,-6.07 9.82,-14.488 9.82,-23.75 v -29.226 0 c 0,18.546 15.04,33.578 33.6,33.578 9.27,0 17.65,-3.743 23.74,-9.84 6.07,-6.059 9.82,-14.457 9.82,-23.738 v -80.68 -39.582 0 c 0,18.551 15.03,33.582 33.58,33.582 18.54,0 33.58,-15.031 33.58,-33.582 V 474.203 c 0,-18.137 -8.15,-35.308 -22.2,-46.765 -14.05,-11.469 -22.2,-28.645 -22.2,-46.786 v -45.007"
             style="fill:#040606;fill-opacity:1;fill-rule:nonzero;stroke:none"
             id="path58" /></g></g></g></g></svg>
