<?xml version="1.0" encoding="utf-8"?>
<!-- Generator: Adobe Illustrator 23.0.3, SVG Export Plug-In . SVG Version: 6.00 Build 0)  -->
<svg version="1.1" id="Lager_1" xmlns="http://www.w3.org/2000/svg" xmlns:xlink="http://www.w3.org/1999/xlink" x="0px" y="0px"
	 viewBox="0 0 299 180" style="enable-background:new 0 0 299 180;" xml:space="preserve">
<style type="text/css">
	.st0{fill:#FFB800;}
	.st1{fill:#FF7484;}
	.st2{fill:#1D1D1B;}
</style>
<title>Namnlöst-1</title>
<path class="st0" d="M105.1,21c36.3-24.4,86.7-14.2,110.6,22.3c20.4,31.1,16.4,72.2-9.5,98.8c-5.6,5.7-6.4,14.6-2,21.3l3.9,6
	c0.6,0.9,0.4,2.2-0.6,2.9c-0.5,0.3-1.1,0.4-1.6,0.3l-31.8-8.1c-2.5-0.7-5.2-0.7-7.8-0.2c-42.8,9.3-85.1-17.8-94.4-60.6
	C65.1,71.9,78.2,39.2,105.1,21"/>
<path class="st1" d="M193.7,169.5l-3.9-6c-4.4-6.7-3.6-15.5,2-21.3c30.6-31.2,30-81.3-1.2-111.8c-13.2-12.9-30.4-20.8-48.8-22.3
	c28.4-2.6,57.4,10.1,74,35.3c20.4,31.1,16.4,72.2-9.5,98.8c-5.6,5.7-6.4,14.6-2,21.3l3.9,6c0.6,0.9,0.4,2.2-0.6,2.9
	c-0.5,0.3-1.1,0.4-1.6,0.3L193.7,169.5L193.7,169.5"/>
<path class="st2" d="M186.9,60.7h-74.7c-2,0-3.6-1.6-3.6-3.6s1.6-3.6,3.6-3.6h74.7c2,0,3.6,1.6,3.6,3.6S188.9,60.7,186.9,60.7"/>
<path class="st2" d="M186.9,77.2h-74.7c-2,0.1-3.7-1.4-3.8-3.4c-0.1-2,1.4-3.7,3.4-3.8c0.1,0,0.3,0,0.4,0h74.7
	c2-0.1,3.7,1.4,3.8,3.4c0.1,2-1.4,3.7-3.4,3.8C187.1,77.2,187,77.2,186.9,77.2"/>
<path class="st2" d="M186.9,93.7h-74.7c-2,0.1-3.7-1.4-3.8-3.4c-0.1-2,1.4-3.7,3.4-3.8c0.1,0,0.3,0,0.4,0h74.7
	c2-0.1,3.7,1.4,3.8,3.4c0.1,2-1.4,3.7-3.4,3.8C187.1,93.7,187,93.7,186.9,93.7"/>
<path class="st2" d="M186.9,110h-74.7c-2,0.1-3.7-1.4-3.8-3.4c-0.1-2,1.4-3.7,3.4-3.8c0.1,0,0.3,0,0.4,0h74.7c2-0.1,3.7,1.4,3.8,3.4
	c0.1,2-1.4,3.7-3.4,3.8C187.1,110,187,110,186.9,110"/>
<path class="st2" d="M186.9,126.6h-74.7c-2,0.1-3.7-1.4-3.8-3.4c-0.1-2,1.4-3.7,3.4-3.8c0.1,0,0.3,0,0.4,0h74.7
	c2-0.1,3.7,1.4,3.8,3.4c0.1,2-1.4,3.7-3.4,3.8C187.1,126.6,187,126.6,186.9,126.6"/>
<path class="st2" d="M163.7,5.2c42.9,7.2,72.9,46.6,68.4,89.9c-1.9,18.6-10.1,36-23.1,49.4c-4.4,4.5-5,11.5-1.6,16.8l4,6
	c1.7,2.6,1,6.1-1.6,7.8c-1.3,0.9-3,1.1-4.5,0.7l-31.8-8.1c-2-0.5-4.1-0.6-6.1-0.1c-3.8,0.8-7.7,1.4-11.6,1.7c-2,0.1-3.7-1.3-3.9-3.3
	s1.3-3.7,3.3-3.9l0,0c3.5-0.3,7.1-0.8,10.6-1.5c3.1-0.7,6.3-0.6,9.4,0.2l28,7.2l-1.8-2.7c-5.3-8.1-4.3-18.8,2.5-25.8
	c40.9-41.9,20.6-114.7-39.3-126.8C98.4-0.7,49.7,72.3,86.1,128c12,18.3,31.3,30.5,52.9,33.6c2,0.3,3.3,2.1,3,4.1
	c-0.3,1.9-2.1,3.3-4,3c-38.1-5.3-67.6-36.2-71.2-74.5c-0.3-2.5-0.4-4.9-0.3-7.4c0-11.8,2.5-23.6,7.3-34.4l3.7-7.2
	c1.9-3.2,3.9-6.3,6.2-9.3l6.3-7.2c3.3-3.3,6.8-6.4,10.6-9.1l11.9-7.2c13.5-6.7,28.7-9.5,43.7-8.2C158.7,4.4,159.8,4.6,163.7,5.2"/>
</svg>
