<?xml version="1.0" encoding="utf-8"?>
<!-- Generator: Adobe Illustrator 23.0.3, SVG Export Plug-In . SVG Version: 6.00 Build 0)  -->
<svg version="1.1" id="Lager_1" xmlns="http://www.w3.org/2000/svg" xmlns:xlink="http://www.w3.org/1999/xlink" x="0px" y="0px"
	 viewBox="0 0 300 270" style="enable-background:new 0 0 300 270;" xml:space="preserve">
<style type="text/css">
	.st0{clip-path:url(#SVGID_2_);}
	.st1{fill:#E9E4E3;}
	.st2{fill:#FF7484;}
	.st3{fill:#1D1D1B;}
	.st4{fill:#FFB800;}
	.st5{fill:#00F1A4;}
	.st6{fill:#AD0470;}
</style>
<title>Namnlöst-1</title>
<g>
	<defs>
		<rect id="SVGID_1_" x="3.9" y="3.4" width="292.2" height="263.2"/>
	</defs>
	<clipPath id="SVGID_2_">
		<use xlink:href="#SVGID_1_"  style="overflow:visible;"/>
	</clipPath>
	<g class="st0">
		<path class="st1" d="M131.2,20.5C95-3.8,44.6,6.3,20.6,42.9C0.2,74,4.2,115.1,30.2,141.7c5.6,5.7,6.4,14.6,2,21.3l-4,6
			c-0.6,0.9-0.4,2.2,0.6,2.9c0.5,0.3,1.1,0.4,1.7,0.3l31.9-8.1c2.5-0.7,5.2-0.7,7.8-0.2c42.8,9.3,85.1-17.8,94.4-60.6
			C171.4,71.5,158.2,38.7,131.2,20.5"/>
		<path class="st2" d="M42.7,169l3.9-6c4.4-6.7,3.6-15.5-2-21.3c-30.6-31.2-30-81.3,1.2-111.8C59,17,76.2,9.1,94.6,7.6
			C66.2,5,37.2,17.7,20.6,42.9C0.2,74,4.2,115.1,30.1,141.7c5.6,5.8,6.4,14.6,2,21.3l-4,6c-0.6,0.9-0.4,2.2,0.6,2.9
			c0.5,0.3,1.1,0.4,1.7,0.3L42.7,169L42.7,169"/>
		<path class="st3" d="M49.5,60.2h74.7c2,0,3.6-1.6,3.6-3.6s-1.6-3.6-3.6-3.6H49.5c-2,0-3.6,1.6-3.6,3.6S47.5,60.2,49.5,60.2"/>
		<path class="st3" d="M49.5,76.7h74.7c2,0,3.6-1.6,3.6-3.6s-1.6-3.6-3.6-3.6H49.5c-2,0-3.6,1.6-3.6,3.6S47.5,76.7,49.5,76.7"/>
		<path class="st3" d="M49.5,93.2h74.7c2,0,3.6-1.6,3.6-3.6s-1.6-3.6-3.6-3.6H49.5c-2,0-3.6,1.6-3.6,3.6S47.5,93.2,49.5,93.2"/>
		<path class="st3" d="M49.5,109.6h74.7c2,0,3.6-1.6,3.6-3.6s-1.6-3.6-3.6-3.6H49.5c-2,0-3.6,1.6-3.6,3.6S47.5,109.6,49.5,109.6"/>
		<path class="st3" d="M49.5,126.1h74.7c2,0,3.6-1.6,3.6-3.6s-1.6-3.6-3.6-3.6H49.5c-2,0-3.6,1.6-3.6,3.6S47.5,126.1,49.5,126.1"/>
		<path class="st3" d="M72.7,4.7c-45,7.7-75.3,50.5-67.6,95.5C8,116.7,15.8,132,27.5,144c4.4,4.6,5,11.5,1.5,16.8l-4,6
			c-1.7,2.6-1,6.1,1.7,7.9c1.3,0.9,2.9,1.1,4.5,0.7l31.8-8.1c2-0.5,4.1-0.6,6.1-0.1c3.8,0.8,7.7,1.4,11.6,1.7c2,0.1,3.7-1.3,3.9-3.3
			s-1.3-3.7-3.3-3.9c-3.5-0.3-7.1-0.8-10.5-1.5c-3.1-0.7-6.3-0.6-9.4,0.2l-28,7.2l1.8-2.7c5.2-8.1,4.2-18.7-2.4-25.7
			C-8.3,97.1,12,24.3,71.9,12.2C138-1.2,186.7,71.8,150.2,127.5c-12,18.3-31.3,30.5-52.9,33.6c-2,0.3-3.4,2.1-3.1,4s2.1,3.4,4,3.1
			c0,0,0.1,0,0.1,0c38.1-5.3,67.6-36.2,71.2-74.5c0.3-2.5,0.4-4.9,0.3-7.4c0-11.8-2.5-23.5-7.4-34.3l-3.7-7.2
			c-1.9-3.2-3.9-6.4-6.2-9.3l-6.3-7.2c-3.3-3.3-6.8-6.4-10.6-9.1l-11.9-7.2c-13.5-6.7-28.7-9.5-43.7-8.2C77.7,3.9,76.6,4.2,72.7,4.7
			"/>
		<path class="st2" d="M268,181.2c-4.4-6.7-3.6-15.7,2-21.5c26.2-26.9,30.2-68.3,9.6-99.7c-24.1-36.9-75-47.1-111.5-22.5
			c-20.9,14-33.9,37-35.2,62.1c43.5-6.2,83.8,24,90.1,67.6c0.8,5.3,1,10.6,0.7,16c2.1-0.3,4.2-0.6,6.2-1.1c2.6-0.5,5.3-0.5,7.8,0.2
			l32.1,8.2c1.1,0.3,2.2-0.4,2.5-1.5c0.1-0.6,0-1.2-0.3-1.7L268,181.2z"/>
		<path class="st4" d="M236.8,158.7c-8.2-40.6-42.1-71-83.4-74.6c-1.9-0.2-3.3-1.8-3.1-3.7c0-0.2,0.1-0.5,0.1-0.7
			c9.6-30.7,36.8-52.5,68.8-55.3c-43.8-3.9-82.4,28.4-86.2,72.2c-0.1,1-0.2,2-0.2,3c43.5-6.2,83.8,24,90.1,67.6
			c0.8,5.3,1,10.6,0.7,16c2-0.3,4-0.6,6-1.1c2.6-0.6,5.4-0.5,8,0.1l1,0.2C239,174.5,238.4,166.5,236.8,158.7"/>
		<path class="st5" d="M189.2,111.5C153,87.1,102.6,97.3,78.6,133.9c-20.4,31.1-16.4,72.2,9.5,98.8c5.6,5.8,6.4,14.6,2,21.3l-4,6
			c-0.6,1-0.4,2.2,0.6,2.9c0.5,0.3,1.1,0.4,1.6,0.3l31.9-8.1c2.5-0.7,5.2-0.7,7.7-0.2c42.8,9.3,85.1-17.8,94.4-60.6
			C229.4,162.5,216.2,129.7,189.2,111.5"/>
		<path class="st6" d="M100.7,260l3.9-6c4.4-6.7,3.6-15.5-2-21.3c-30.6-31.2-30-81.3,1.2-111.8c13.2-12.9,30.4-20.8,48.8-22.3
			c-28.4-2.6-57.4,10.1-73.9,35.3c-20.4,31.1-16.4,72.2,9.5,98.8c5.6,5.7,6.4,14.6,2,21.3l-4,6c-0.6,1-0.3,2.2,0.6,2.9
			c0.5,0.3,1.1,0.4,1.6,0.3L100.7,260L100.7,260"/>
		<path class="st3" d="M107.5,151.2h74.7c2,0,3.6-1.6,3.6-3.6s-1.6-3.6-3.6-3.6h-74.7c-2,0-3.6,1.6-3.6,3.6S105.5,151.2,107.5,151.2
			L107.5,151.2"/>
		<path class="st3" d="M107.5,167.7h74.7c2,0.1,3.7-1.4,3.8-3.4c0.1-2-1.4-3.7-3.4-3.8c-0.1,0-0.3,0-0.4,0h-74.7
			c-2-0.1-3.7,1.4-3.8,3.4c-0.1,2,1.4,3.7,3.4,3.8C107.2,167.7,107.4,167.7,107.5,167.7"/>
		<path class="st3" d="M107.5,184.2h74.7c2,0,3.6-1.6,3.6-3.6s-1.6-3.6-3.6-3.6h-74.7c-2,0-3.6,1.6-3.6,3.6S105.5,184.2,107.5,184.2
			L107.5,184.2"/>
		<path class="st3" d="M107.5,200.5h74.7c2,0.1,3.7-1.4,3.8-3.4c0.1-2-1.4-3.7-3.4-3.8c-0.1,0-0.3,0-0.4,0h-74.7
			c-2-0.1-3.7,1.4-3.8,3.4c-0.1,2,1.4,3.7,3.4,3.8C107.2,200.5,107.4,200.5,107.5,200.5"/>
		<path class="st3" d="M107.5,217.1h74.7c2,0,3.6-1.6,3.6-3.6s-1.6-3.6-3.6-3.6h-74.7c-2,0-3.6,1.6-3.6,3.6S105.5,217.1,107.5,217.1
			L107.5,217.1"/>
		<path class="st3" d="M250.7,69.8h-74.7c-2,0-3.6,1.6-3.6,3.6s1.6,3.6,3.6,3.6h74.7c2,0,3.6-1.6,3.6-3.6S252.7,69.8,250.7,69.8"/>
		<path class="st3" d="M250.7,86.3h-74.7c-2,0-3.6,1.6-3.6,3.6s1.6,3.6,3.6,3.6h74.7c2,0,3.6-1.6,3.6-3.6S252.7,86.3,250.7,86.3"/>
		<path class="st3" d="M292.3,111.2c-2-0.3-3.8,1-4.1,3c-2.3,15.7-9.5,30.2-20.6,41.6c-6.7,7-7.7,17.7-2.5,25.8l1.8,2.7l-28-7.1
			c-3.6-0.9-7.5-0.8-11.1,0.1c0-11.8-2.5-23.6-7.4-34.4h30.2c2,0,3.6-1.6,3.6-3.6s-1.6-3.6-3.6-3.6h-33.9c-1.9-3.2-3.9-6.3-6.2-9.3
			h40.1c2,0,3.6-1.6,3.6-3.6s-1.6-3.6-3.6-3.6l0,0h-46.4c-3.3-3.3-6.8-6.4-10.6-9.1h57c2,0,3.6-1.6,3.6-3.6s-1.6-3.6-3.6-3.6h-68.9
			c-13.5-6.7-28.7-9.5-43.7-8.2c4.7-41.6,42.3-71.4,83.8-66.7c36.3,4.1,64.5,33.7,67,70.2c0,2,1.7,3.6,3.7,3.5c2,0,3.6-1.7,3.5-3.7
			c0-0.1,0-0.2,0-0.3C293,52,253.5,17.4,207.7,20.5c-40.6,2.7-73.3,34.6-77,75.1c-45,7.7-75.3,50.4-67.6,95.5
			c2.8,16.6,10.6,31.9,22.4,43.9c4.3,4.6,5,11.5,1.5,16.8l-4,6c-1.7,2.6-1,6.1,1.7,7.8c1.3,0.9,3,1.1,4.5,0.7l31.8-8.1
			c2-0.5,4.1-0.6,6.1-0.1c3.8,0.8,7.7,1.4,11.6,1.7c2,0.2,3.7-1.3,3.9-3.3c0.2-2-1.3-3.7-3.3-3.9c0,0-0.1,0-0.1,0
			c-3.5-0.3-7.1-0.8-10.5-1.5c-3.1-0.7-6.3-0.6-9.4,0.2l-27.9,7.1l1.8-2.7c5.2-8.1,4.3-18.7-2.4-25.7
			C49.7,188.1,70,115.3,129.9,103.1c66.1-13.4,114.8,59.6,78.3,115.4c-12,18.3-31.3,30.5-52.9,33.6c-2,0.3-3.3,2.1-3,4.1
			c0.3,1.9,2.1,3.3,4,3c38.1-5.3,67.6-36.2,71.2-74.5c3.8-0.7,5.9-1.5,9.6-0.5l31.8,8.1c3,0.8,6.1-1.1,6.9-4.1
			c0.4-1.5,0.1-3.2-0.7-4.5l-3.9-6c-3.4-5.3-2.8-12.2,1.6-16.8c12.1-12.4,20.1-28.4,22.6-45.5C295.6,113.4,294.3,111.6,292.3,111.2"
			/>
	</g>
</g>
</svg>
