<?xml version="1.0" encoding="utf-8"?>
<!-- Generator: Adobe Illustrator 23.0.3, SVG Export Plug-In . SVG Version: 6.00 Build 0)  -->
<svg version="1.1" id="Lager_1" xmlns="http://www.w3.org/2000/svg" xmlns:xlink="http://www.w3.org/1999/xlink" x="0px" y="0px"
	 viewBox="0 0 300 255" style="enable-background:new 0 0 300 255;" xml:space="preserve">
<style type="text/css">
	.st0{clip-path:url(#SVGID_2_);}
	.st1{fill:#00F1A4;}
	.st2{fill:#AD0470;}
	.st3{fill:#FF7484;}
	.st4{fill:#FFB800;}
	.st5{fill:#1D1D1B;}
</style>
<title>Namnlöst-1</title>
<g>
	<defs>
		<rect id="SVGID_1_" x="32.9" y="4.3" width="234.2" height="246.4"/>
	</defs>
	<clipPath id="SVGID_2_">
		<use xlink:href="#SVGID_1_"  style="overflow:visible;"/>
	</clipPath>
	<g class="st0">
		<path class="st1" d="M239,165.3c-4.4-6.7-3.6-15.7,2-21.5c26.2-26.9,30.2-68.3,9.6-99.7C226.4,7.3,175.6-3,139.1,21.6
			c-20.9,14-33.9,37-35.2,62.1c43.5-6.2,83.8,24,90,67.6c0.8,5.3,1,10.6,0.7,15.9c2.1-0.3,4.2-0.6,6.2-1.1c2.6-0.6,5.3-0.5,7.8,0.2
			l32.1,8.2c1.1,0.3,2.2-0.4,2.5-1.5c0.1-0.6,0-1.2-0.3-1.7L239,165.3z"/>
		<path class="st2" d="M207.8,142.7c-8.2-40.6-42.1-71-83.4-74.6c-1.9-0.1-3.3-1.8-3.1-3.6c0-0.3,0.1-0.5,0.1-0.8
			c9.6-30.7,36.8-52.5,68.9-55.3c-43.8-3.9-82.4,28.4-86.3,72.2c-0.1,1-0.2,2-0.2,3c43.5-6.2,83.8,24,90,67.5c0.8,5.3,1,10.6,0.7,16
			c2-0.3,4-0.6,6.1-1.1c2.6-0.6,5.4-0.5,8,0.1l1,0.2C210.1,158.6,209.5,150.6,207.8,142.7"/>
		<path class="st3" d="M160.2,95.6C124,71.2,73.6,81.4,49.6,117.9c-20.4,31.1-16.4,72.2,9.5,98.9c5.6,5.7,6.4,14.6,2,21.3l-4,6
			c-0.6,0.9-0.4,2.2,0.6,2.9c0.5,0.3,1.1,0.4,1.7,0.3l31.8-8.1c2.5-0.7,5.2-0.7,7.8-0.2c42.8,9.3,85.1-17.8,94.4-60.6
			C200.3,146.5,187.1,113.7,160.2,95.6"/>
		<path class="st4" d="M71.7,244.1l3.9-6c4.4-6.7,3.6-15.5-2-21.3c-30.6-31.2-30-81.3,1.2-111.8c13.2-12.9,30.4-20.8,48.8-22.3
			c-28.4-2.6-57.4,10.1-74,35.3c-20.4,31.1-16.4,72.2,9.5,98.8c5.6,5.8,6.4,14.6,2,21.3l-4,6c-0.6,0.9-0.4,2.2,0.6,2.9
			c0.5,0.3,1.1,0.4,1.7,0.3L71.7,244.1L71.7,244.1"/>
		<path class="st5" d="M78.5,135.2h74.7c2,0,3.6-1.6,3.6-3.6s-1.6-3.6-3.6-3.6H78.5c-2,0-3.6,1.6-3.6,3.6S76.5,135.2,78.5,135.2
			L78.5,135.2"/>
		<path class="st5" d="M78.5,151.7h74.7c2,0,3.6-1.6,3.6-3.6s-1.6-3.6-3.6-3.6H78.5c-2,0-3.6,1.6-3.6,3.6S76.5,151.7,78.5,151.7
			L78.5,151.7"/>
		<path class="st5" d="M78.5,168.3h74.7c2,0,3.6-1.6,3.6-3.6s-1.6-3.6-3.6-3.6H78.5c-2,0-3.6,1.6-3.6,3.6S76.5,168.3,78.5,168.3
			L78.5,168.3"/>
		<path class="st5" d="M78.5,184.6h74.7c2,0,3.6-1.6,3.6-3.6s-1.6-3.6-3.6-3.6H78.5c-2,0-3.6,1.6-3.6,3.6S76.5,184.6,78.5,184.6
			L78.5,184.6"/>
		<path class="st5" d="M78.5,201.1h74.7c2,0,3.6-1.6,3.6-3.6s-1.6-3.6-3.6-3.6H78.5c-2,0-3.6,1.6-3.6,3.6S76.5,201.1,78.5,201.1
			L78.5,201.1"/>
		<path class="st5" d="M221.7,53.9h-74.7c-2,0-3.6,1.6-3.6,3.6s1.6,3.6,3.6,3.6l0,0h74.7c2,0,3.6-1.6,3.6-3.6S223.7,53.9,221.7,53.9
			"/>
		<path class="st5" d="M221.7,70.4h-74.7c-2-0.1-3.7,1.4-3.8,3.4c-0.1,2,1.4,3.7,3.4,3.8c0.1,0,0.3,0,0.4,0h74.7
			c2-0.1,3.5-1.8,3.4-3.8C225,72,223.5,70.5,221.7,70.4"/>
		<path class="st5" d="M263.3,95.3c-2-0.3-3.8,1-4.1,3c-2.3,15.7-9.5,30.2-20.6,41.6c-6.7,7-7.7,17.7-2.5,25.8l1.8,2.7l-28-7.1
			c-3.6-0.9-7.5-0.8-11.1,0.1c0-11.8-2.5-23.6-7.4-34.4h30.2c2,0.1,3.7-1.4,3.8-3.4c0.1-2-1.4-3.7-3.4-3.8c-0.1,0-0.3,0-0.4,0h-33.9
			c-1.9-3.2-3.9-6.4-6.2-9.3h40.1c2,0.1,3.7-1.4,3.8-3.4c0.1-2-1.4-3.7-3.4-3.8c-0.1,0-0.3,0-0.4,0h-46.4c-3.3-3.3-6.8-6.4-10.6-9.1
			h57c2,0.1,3.7-1.4,3.8-3.4c0.1-2-1.4-3.7-3.4-3.8c-0.1,0-0.3,0-0.4,0h-68.9c-13.5-6.7-28.7-9.5-43.7-8.2
			c4.7-41.6,42.3-71.4,83.8-66.7c36.3,4.1,64.5,33.7,67,70.2c0.2,2,2,3.4,4,3.2c1.9-0.2,3.3-1.8,3.2-3.7
			C264,36.1,224.5,1.5,178.7,4.6c-40.6,2.7-73.3,34.6-77,75.1c-45,7.7-75.3,50.5-67.6,95.5c2.8,16.6,10.6,31.9,22.4,43.9
			c4.4,4.6,5,11.5,1.5,16.8l-4,6c-1.7,2.6-1,6.1,1.7,7.9c1.3,0.9,2.9,1.1,4.5,0.7l31.8-8.1c2-0.5,4.1-0.6,6.1-0.1
			c3.8,0.8,7.7,1.4,11.6,1.7c2,0.2,3.7-1.3,3.9-3.3c0.2-2-1.3-3.7-3.3-3.9c0,0-0.1,0-0.1,0c-3.5-0.3-7.1-0.8-10.5-1.5
			c-3.1-0.7-6.3-0.6-9.4,0.2l-27.9,7.2l1.8-2.7c5.3-8.1,4.2-18.8-2.5-25.8C20.7,172.1,41,99.3,100.9,87.2
			c66.1-13.4,114.8,59.6,78.3,115.4c-12,18.3-31.3,30.5-52.9,33.6c-2,0.3-3.4,2.1-3.1,4s2.1,3.4,4,3.1c0,0,0.1,0,0.1,0
			c38.1-5.3,67.6-36.2,71.2-74.5c3.8-0.7,5.9-1.5,9.6-0.6l31.8,8.1c3,0.8,6.1-1.1,6.9-4.1c0.4-1.5,0.1-3.2-0.7-4.5l-3.9-6
			c-3.4-5.3-2.8-12.2,1.6-16.8c12.1-12.4,20.1-28.4,22.6-45.6C266.6,97.5,265.3,95.7,263.3,95.3"/>
	</g>
</g>
</svg>
