<svg id="Lager_1" data-name="Lager 1" xmlns="http://www.w3.org/2000/svg" viewBox="0 0 299.99 299.99"><defs><style>.cls-1{fill:#e5fef6;}.cls-2{fill:#00f1a4;}.cls-3{fill:#ff7484;}.cls-4{fill:#7b6671;}.cls-5{fill:#ffb800;}.cls-6{fill:#1d1d1b;}</style></defs><title>Namnlöst-1</title><path class="cls-1" d="M265.51,106.38H29.64v119.4A30.25,30.25,0,0,0,59.88,256H265.51a4.85,4.85,0,0,0,4.84-4.85V111.23a4.85,4.85,0,0,0-4.84-4.85"/><path class="cls-2" d="M270.35,111.23v140a4.84,4.84,0,0,1-4.84,4.84H253.3a4.84,4.84,0,0,0,4.84-4.84V111.23a4.84,4.84,0,0,0-4.84-4.84h12.21a4.84,4.84,0,0,1,4.84,4.84"/><path class="cls-3" d="M72.19,188.77a4.85,4.85,0,0,1-4.84,4.85H59.88a30.24,30.24,0,0,0-30.24,30.24V74.21A30.25,30.25,0,0,1,59.88,44h7.47a4.85,4.85,0,0,1,4.84,4.85Z"/><path class="cls-4" d="M181.23,145.17l-15.6,7.75a2.14,2.14,0,0,1-3-2.66l6-16.34Z"/><path class="cls-5" d="M184.58,144.21l62.59-69.68a3.58,3.58,0,0,0-.26-5l-10-9a3.58,3.58,0,0,0-5.05.27L169.3,130.49a3.56,3.56,0,0,0,.27,5l10,8.95a3.57,3.57,0,0,0,5.05-.27"/><path class="cls-5" d="M184.58,144.21l62.59-69.68a3.58,3.58,0,0,0-.26-5l-5-4.48-67.37,75,5,4.47a3.57,3.57,0,0,0,5.05-.27"/><path class="cls-3" d="M240.39,82.07l6.78-7.54a3.57,3.57,0,0,0-.27-5l-10-9a3.58,3.58,0,0,0-5.05.27l-6.78,7.55Z"/><path class="cls-6" d="M181.92,141.74l-2.24-2L233,80.34l2.24,2Zm-11.9-.91,4.2,3.77-6.85,3.4Zm55.37-67.35,2.23,2-53.35,59.39-2.24-2Zm19.05-1.34L240.12,77l-9.88-8.88,4.32-4.8Zm21.07,30.61h-38.8L249.88,77a7.22,7.22,0,0,0-.55-10.18l-10-9a7.22,7.22,0,0,0-10.18.54l-39.87,44.38H119.94a3.64,3.64,0,0,0,0,7.27H182.8l-16.21,18a7.15,7.15,0,0,0-1.83,5.2,5.23,5.23,0,0,0,.07.68L159.26,149a5.78,5.78,0,0,0,5.41,7.79,6,6,0,0,0,2.58-.61L181.64,149h.66a7.12,7.12,0,0,0,5-2.38L220.18,110h45.33a1.21,1.21,0,0,1,1.21,1.21v140a1.21,1.21,0,0,1-1.21,1.21H239.08a3.64,3.64,0,0,0,0,7.27h26.43a8.5,8.5,0,0,0,8.48-8.48V111.23a8.49,8.49,0,0,0-8.48-8.48"/><path class="cls-6" d="M223.26,252.39H59.88a26.64,26.64,0,0,1-26.61-26.61v-1.92a26.64,26.64,0,0,1,26.61-26.61h7.47a8.48,8.48,0,0,0,8.47-8.48V110h28.3a3.64,3.64,0,1,0,0-7.27H75.82V90.14a3.63,3.63,0,1,0-7.26,0v98.63A1.22,1.22,0,0,1,67.35,190H59.88a33.84,33.84,0,0,0-26.61,12.93V74.21A26.64,26.64,0,0,1,59.88,47.6h7.47a1.21,1.21,0,0,1,1.21,1.21V74.32a3.63,3.63,0,0,0,7.26,0V48.81a8.49,8.49,0,0,0-8.47-8.48H59.88A33.91,33.91,0,0,0,26,74.21V225.78a33.91,33.91,0,0,0,33.87,33.88H223.26a3.64,3.64,0,1,0,0-7.27"/><path class="cls-6" d="M220.36,189.69V171a3.62,3.62,0,0,0-3.63-3.63H199.24a20.66,20.66,0,1,1,21.12,22.33m-41.49,19.16V174.62h13.6a28,28,0,0,0,20.63,21.52v12.71Zm34.23-20.28a20.76,20.76,0,0,1-13.16-13.95H213.1Zm6.73-47.47A28,28,0,0,0,192,167.36H175.24A3.63,3.63,0,0,0,171.6,171v41.49a3.64,3.64,0,0,0,3.64,3.64h41.49a3.63,3.63,0,0,0,3.63-3.64V197a27.93,27.93,0,0,0-.53-55.85"/><path class="cls-6" d="M233.33,199.48a3.63,3.63,0,0,0,0,7.26h8.08a3.63,3.63,0,0,0,0-7.26Z"/><path class="cls-6" d="M245,212.48a3.63,3.63,0,0,0-3.63-3.63h-8.08a3.64,3.64,0,0,0,0,7.27h8.08a3.63,3.63,0,0,0,3.63-3.64"/><path class="cls-6" d="M92.36,139.65h5.81a3.63,3.63,0,0,0,0-7.26H92.36a3.63,3.63,0,1,0,0,7.26"/><path class="cls-6" d="M92.36,150.24h28a3.64,3.64,0,0,0,0-7.27h-28a3.64,3.64,0,0,0,0,7.27"/><path class="cls-6" d="M114.59,139.65h5.81a3.63,3.63,0,0,0,0-7.26h-5.81a3.63,3.63,0,1,0,0,7.26"/><path class="cls-6" d="M142.63,132.39h-5.81a3.63,3.63,0,1,0,0,7.26h5.81a3.63,3.63,0,0,0,0-7.26"/><path class="cls-6" d="M92.36,160.74h28a3.63,3.63,0,0,0,0-7.26h-28a3.63,3.63,0,0,0,0,7.26"/><path class="cls-6" d="M88.73,167.61a3.62,3.62,0,0,0,3.63,3.63h44.46a3.63,3.63,0,0,0,0-7.26H92.36a3.63,3.63,0,0,0-3.63,3.63"/><path class="cls-6" d="M146.26,178.12a3.63,3.63,0,0,0-3.63-3.64H92.36a3.64,3.64,0,0,0,0,7.27h50.27a3.63,3.63,0,0,0,3.63-3.63"/><path class="cls-6" d="M98.74,201.42H96v-2.75h2.75ZM106,195a3.62,3.62,0,0,0-3.63-3.63h-10A3.62,3.62,0,0,0,88.73,195v10a3.63,3.63,0,0,0,3.63,3.63h10a3.63,3.63,0,0,0,3.63-3.63Z"/><path class="cls-6" d="M122.75,201.42H120v-2.75h2.74ZM130,195a3.63,3.63,0,0,0-3.63-3.63h-10a3.63,3.63,0,0,0-3.64,3.63v10a3.64,3.64,0,0,0,3.64,3.63h10a3.64,3.64,0,0,0,3.63-3.63Z"/><path class="cls-6" d="M146.77,201.42H144v-2.75h2.74ZM154,195a3.63,3.63,0,0,0-3.64-3.63h-10a3.63,3.63,0,0,0-3.63,3.63v10a3.64,3.64,0,0,0,3.63,3.63h10a3.64,3.64,0,0,0,3.64-3.63Z"/><path class="cls-6" d="M98.74,226.92H96v-2.74h2.75Zm3.63-10h-10a3.62,3.62,0,0,0-3.63,3.63v10a3.63,3.63,0,0,0,3.63,3.63h10a3.64,3.64,0,0,0,3.63-3.63v-10a3.63,3.63,0,0,0-3.63-3.63"/><path class="cls-6" d="M122.75,226.92H120v-2.74h2.74Zm3.64-10h-10a3.63,3.63,0,0,0-3.64,3.63v10a3.64,3.64,0,0,0,3.64,3.63h10a3.64,3.64,0,0,0,3.63-3.63v-10a3.63,3.63,0,0,0-3.63-3.63"/><path class="cls-6" d="M144,224.18h2.74v2.74H144Zm-3.64,10h10a3.64,3.64,0,0,0,3.64-3.63v-10a3.64,3.64,0,0,0-3.64-3.64h-10a3.64,3.64,0,0,0-3.63,3.64v10a3.64,3.64,0,0,0,3.63,3.63"/></svg>