<?xml version="1.0" encoding="UTF-8" standalone="no"?>
<svg
   xmlns:dc="http://purl.org/dc/elements/1.1/"
   xmlns:cc="http://creativecommons.org/ns#"
   xmlns:rdf="http://www.w3.org/1999/02/22-rdf-syntax-ns#"
   xmlns:svg="http://www.w3.org/2000/svg"
   xmlns="http://www.w3.org/2000/svg"
   xmlns:sodipodi="http://sodipodi.sourceforge.net/DTD/sodipodi-0.dtd"
   xmlns:inkscape="http://www.inkscape.org/namespaces/inkscape"
   id="Lager_1"
   data-name="Lager 1"
   viewBox="0 0 225.00001 225"
   version="1.1"
   sodipodi:docname="icon-process.svg"
   width="225"
   height="225"
   inkscape:version="0.92.3 (2405546, 2018-03-11)">
  <metadata
     id="metadata1025">
    <rdf:RDF>
      <cc:Work
         rdf:about="">
        <dc:format>image/svg+xml</dc:format>
        <dc:type
           rdf:resource="http://purl.org/dc/dcmitype/StillImage" />
        <dc:title>Namnlöst-1</dc:title>
      </cc:Work>
    </rdf:RDF>
  </metadata>
  <sodipodi:namedview
     pagecolor="#ffffff"
     bordercolor="#666666"
     borderopacity="1"
     objecttolerance="10"
     gridtolerance="10"
     guidetolerance="10"
     inkscape:pageopacity="0"
     inkscape:pageshadow="2"
     inkscape:window-width="1920"
     inkscape:window-height="1047"
     id="namedview1023"
     showgrid="false"
     inkscape:zoom="2.5734192"
     inkscape:cx="101.50971"
     inkscape:cy="115.99429"
     inkscape:window-x="0"
     inkscape:window-y="0"
     inkscape:window-maximized="1"
     inkscape:current-layer="Lager_1" />
  <defs
     id="defs984">
    <style
       id="style982">.cls-1{fill:#ad0470;}.cls-2{fill:#ededed;}.cls-3{fill:#ffb800;}.cls-4{fill:#ff7484;}.cls-5{fill:#dadada;}.cls-6{fill:#00f1a4;}.cls-7{fill:#7b6671;}.cls-8{fill:#1d1d1b;}</style>
  </defs>
  <title
     id="title986">Namnlöst-1</title>
  <g
     id="g1044"
     transform="translate(-37.414793,-37.504571)">
    <path
       id="path988"
       d="m 169,76.82 a 42.1,42.1 0 1 1 -42.1,42.1 42.09,42.09 0 0 1 42.1,-42.1"
       class="cls-1"
       inkscape:connector-curvature="0"
       style="fill:#ad0470" />
    <path
       id="path990"
       d="m 241.28,103.47 v 30.89 l -19.46,3.51 a 55.56,55.56 0 0 1 -9.68,16.74 l 6.71,18.62 -26.76,15.45 -12.76,-15.11 a 56.21,56.21 0 0 1 -9.68,0.84 l -8.65,-12.14 8.68,-14 a 29.33,29.33 0 0 0 0,-58.66 l -8.68,-15 8.68,-11.11 a 56.21,56.21 0 0 1 9.68,0.84 l 12.76,-15.11 26.76,15.45 -6.71,18.62 a 55.44,55.44 0 0 1 9.65,16.7 z"
       class="cls-2"
       inkscape:connector-curvature="0"
       style="fill:#ededed" />
    <path
       id="path992"
       d="m 169.65,43.59 v 155.33 h -20.9 A 11.74,11.74 0 0 1 137,187.19 14,14 0 0 0 130.68,175.46 71.69,71.69 0 0 1 168.61,43.6 h 1"
       class="cls-3"
       inkscape:connector-curvature="0"
       style="fill:#ffb800" />
    <path
       id="path994"
       d="m 158.67,198.92 h -9.91 A 11.73,11.73 0 0 1 137,187.18 13.93,13.93 0 0 0 130.69,175.47 71.69,71.69 0 0 1 168.61,43.6 h 0.5 c -20.47,0.55 -37.1,32.58 -37.14,71.53 0,25.29 6.84,47.54 17.21,60.34 2.08,2.57 3.32,7 3.32,11.71 0,6.49 2.77,11.74 6.17,11.74"
       class="cls-4"
       inkscape:connector-curvature="0"
       style="fill:#ff7484" />
    <path
       id="path996"
       d="m 193.2,218.44 h -47.09 a 9.09,9.09 0 0 1 -9.09,-9.08 V 208 a 9.09,9.09 0 0 1 9.09,-9.08 h 47.09 a 9.09,9.09 0 0 1 9.09,9.08 v 1.36 a 9.09,9.09 0 0 1 -9.09,9.08"
       class="cls-2"
       inkscape:connector-curvature="0"
       style="fill:#ededed" />
    <path
       id="path998"
       d="m 193.2,238 h -47.09 a 9.09,9.09 0 0 1 -9.09,-9.09 v -1.35 a 9.09,9.09 0 0 1 9.09,-9.09 h 47.09 a 9.09,9.09 0 0 1 9.09,9.09 v 1.35 A 9.09,9.09 0 0 1 193.2,238"
       class="cls-2"
       inkscape:connector-curvature="0"
       style="fill:#ededed" />
    <path
       id="path1000"
       d="m 166.69,218.44 h -19.91 a 9.76,9.76 0 0 1 0,-19.52 h 19.91 a 9.76,9.76 0 1 0 0,19.52"
       class="cls-5"
       inkscape:connector-curvature="0"
       style="fill:#dadada" />
    <path
       id="path1002"
       d="m 166.69,238 h -19.91 a 9.76,9.76 0 0 1 0,-19.52 h 19.91 a 9.76,9.76 0 1 0 0,19.52"
       class="cls-5"
       inkscape:connector-curvature="0"
       style="fill:#dadada" />
    <path
       id="path1004"
       d="M 169,105.45 A 13.47,13.47 0 1 1 155.53,118.92 13.47,13.47 0 0 1 169,105.45"
       class="cls-6"
       inkscape:connector-curvature="0"
       style="fill:#00f1a4" />
    <path
       id="path1006"
       d="m 151.22,238 a 18.44,18.44 0 0 0 36.87,0"
       class="cls-7"
       inkscape:connector-curvature="0"
       style="fill:#7b6671" />
    <path
       id="path1008"
       d="m 185.52,215.19 a 3.26,3.26 0 0 0 0,6.51 h 7.68 a 5.83,5.83 0 0 1 5.83,5.83 v 1.35 a 5.84,5.84 0 0 1 -5.83,5.83 h -47.09 a 5.84,5.84 0 0 1 -5.83,-5.83 v -1.35 a 5.84,5.84 0 0 1 5.83,-5.83 h 28.56 a 3.26,3.26 0 0 0 0,-6.51 h -28.56 a 5.84,5.84 0 0 1 -5.83,-5.83 V 208 a 5.83,5.83 0 0 1 5.83,-5.82 H 193.2 A 5.83,5.83 0 0 1 199,208 v 1.36 a 5.84,5.84 0 0 1 -5.83,5.83 z m -15.86,37.95 a 15.21,15.21 0 0 1 -14.83,-11.92 h 29.65 a 15.2,15.2 0 0 1 -14.82,11.92 M 159.45,118.92 a 10.21,10.21 0 0 1 7,-9.67 v 19.34 a 10.21,10.21 0 0 1 -7,-9.67 m 20.41,0 a 10.21,10.21 0 0 1 -7,9.67 v -19.34 a 10.21,10.21 0 0 1 7,9.67 m 13.34,76.74 h -20.29 v -60.34 a 16.72,16.72 0 0 0 0,-32.8 V 43.59 a 3.26,3.26 0 0 0 -3.26,-3.26 h -1.09 A 74.59,74.59 0 0 0 132.22,50.41 76,76 0 0 0 105.91,76 a 3.26,3.26 0 1 0 5.54,3.43 68.29,68.29 0 0 1 55,-32.5 v 55.6 a 16.72,16.72 0 0 0 0,32.8 v 60.34 h -17.74 a 8.47,8.47 0 0 1 -8.43,-8.47 17.17,17.17 0 0 0 -7.8,-14.46 68.21,68.21 0 0 1 -31.25,-57.59 67.46,67.46 0 0 1 5.25,-26.06 3.26,3.26 0 0 0 -6,-2.51 74,74 0 0 0 -5.76,28.55 74.73,74.73 0 0 0 34.22,63.08 10.64,10.64 0 0 1 4.84,9 14.86,14.86 0 0 0 4.39,10.6 l 0.44,0.43 a 12.29,12.29 0 0 0 -4.83,9.78 v 1.36 a 12.32,12.32 0 0 0 4,9.08 12.34,12.34 0 0 0 -4,9.09 v 1.35 a 12.35,12.35 0 0 0 12.34,12.34 h 2.1 a 21.69,21.69 0 0 0 42.89,0 h 2.1 a 12.35,12.35 0 0 0 12.34,-12.34 v -1.35 a 12.31,12.31 0 0 0 -4,-9.09 12.29,12.29 0 0 0 4,-9.08 V 208 a 12.35,12.35 0 0 0 -12.34,-12.34"
       class="cls-8"
       inkscape:connector-curvature="0"
       style="fill:#1d1d1b" />
    <path
       id="path1010"
       d="m 241.86,100.27 -17.65,-3.18 a 58.47,58.47 0 0 0 -8.38,-14.48 l 6.08,-16.9 a 3.25,3.25 0 0 0 -1.43,-3.92 L 193.72,46.34 a 3.25,3.25 0 0 0 -4.12,0.72 l -12.76,15.11 a 3.2649655,3.2649655 0 1 0 5,4.2 l 11,-13 22,12.72 -5.78,16.07 a 3.24,3.24 0 0 0 0.57,3.2 52.07,52.07 0 0 1 9.11,15.75 3.26,3.26 0 0 0 2.48,2.1 l 16.79,3 v 25.44 l -16.79,3 a 3.28,3.28 0 0 0 -2.48,2.1 52.31,52.31 0 0 1 -9.11,15.75 3.24,3.24 0 0 0 -0.57,3.2 l 5.78,16.06 -22,12.73 -11,-13 a 3.2649655,3.2649655 0 1 0 -5,4.2 l 12.76,15.11 a 3.25,3.25 0 0 0 4.12,0.72 l 26.76,-15.45 a 3.25,3.25 0 0 0 1.43,-3.92 l -6.08,-16.9 a 58.84,58.84 0 0 0 8.38,-14.48 l 17.65,-3.18 a 3.26,3.26 0 0 0 2.68,-3.2 v -30.9 a 3.25,3.25 0 0 0 -2.68,-3.2"
       class="cls-8"
       inkscape:connector-curvature="0"
       style="fill:#1d1d1b" />
    <path
       id="path1012"
       d="m 178.25,143.54 a 3.26,3.26 0 0 0 1.08,6.34 3.14,3.14 0 0 0 1.07,-0.19 32.6,32.6 0 0 0 0,-61.54 3.26,3.26 0 0 0 -2.15,6.15 26.08,26.08 0 0 1 0,49.24"
       class="cls-8"
       inkscape:connector-curvature="0"
       style="fill:#1d1d1b" />
    <path
       id="path1014"
       d="m 82.68,104.88 a 3.26,3.26 0 0 0 0.63,-6.45 l -24,-4.77 a 3.26,3.26 0 1 0 -1.27,6.39 l 24,4.77 a 3.47,3.47 0 0 0 0.64,0.06"
       class="cls-8"
       inkscape:connector-curvature="0"
       style="fill:#1d1d1b" />
    <path
       id="path1016"
       d="m 82.46,46.79 18.36,16.1 a 3.26,3.26 0 1 0 4.3,-4.9 L 86.76,41.89 a 3.26,3.26 0 0 0 -4.3,4.9"
       class="cls-8"
       inkscape:connector-curvature="0"
       style="fill:#1d1d1b" />
    <path
       id="path1018"
       d="m 113.32,183.15 a 3.27,3.27 0 0 0 -4.6,0.3 l -16.1,18.37 a 3.26,3.26 0 0 0 4.9,4.29 l 16.1,-18.36 a 3.26,3.26 0 0 0 -0.3,-4.6"
       class="cls-8"
       inkscape:connector-curvature="0"
       style="fill:#1d1d1b" />
    <path
       id="path1020"
       d="m 84.62,144.35 -23.13,7.85 a 3.26,3.26 0 0 0 1,6.34 3.49,3.49 0 0 0 1.05,-0.17 l 23.12,-7.86 a 3.2524491,3.2524491 0 1 0 -2.09,-6.16"
       class="cls-8"
       inkscape:connector-curvature="0"
       style="fill:#1d1d1b" />
  </g>
</svg>
