<svg xmlns="http://www.w3.org/2000/svg" version="1.1" xmlns:xlink="http://www.w3.org/1999/xlink" width="512" height="512" x="0" y="0" viewBox="0 0 511 512" style="enable-background:new 0 0 512 512" xml:space="preserve" class=""><g><path fill="#00f1a4" d="M487.844 416.629c19.52 19.531 19.52 51.187 0 70.719-19.516 19.52-51.196 19.52-70.715 0L283.402 342.09l58.95-58.938zm0 0" opacity="1" data-original="#2bbdc4" class=""></path><path fill="#ffb800" d="m312.91 256.133 29.442 27.02-58.95 58.937-27.058-29.387zm0 0" opacity="1" data-original="#495d85" class=""></path><path fill="#beacb1" d="m497.797 71.258-44.39 44.738h-28.29l-27.629-28.629V59.078l43.739-44.387A89.862 89.862 0 0 0 412.488 10c-61.617 0-104.898 60.598-85.308 118.746l-84.97 84.98-.065-.07L109.496 80.707V52.43L38.79 10 10.508 38.281l42.422 70.707 28.277.012 132.656 132.945.059.059-84.676 84.68C71.207 307.133 10.5 350.25 10.5 411.988c0 10.051 1.648 19.719 4.687 28.739l44.391-44.739h28.29l28.628 28.63v28.288l-44.738 44.39a89.862 89.862 0 0 0 28.738 4.692c61.73 0 104.86-60.71 85.309-118.75l197.933-197.933a89.88 89.88 0 0 0 28.75 4.691c49.707 0 89.996-40.289 89.996-89.996 0-10.05-1.648-19.723-4.687-28.742zm0 0" opacity="1" data-original="#e9eef0" class=""></path><path d="M347.34 155.148c-5.52 0-10 4.47-10 9.997 0 5.523 4.48 10 10 10 5.531 0 10-4.477 10-10a9.988 9.988 0 0 0-10-9.997zM165.645 336.84c-5.532 0-10 4.48-10 10a9.99 9.99 0 0 0 10 10c5.52 0 10-4.469 10-10 0-5.52-4.48-10-10-10zm0 0" fill="#000000" opacity="1" data-original="#000000" class=""></path><path d="M500.059 61.52a9.992 9.992 0 0 0-9.36 2.695L449.242 106h-19.875l-21.879-22.668V63.18l40.864-41.473a9.993 9.993 0 0 0 2.601-9.336 9.994 9.994 0 0 0-6.531-7.156C434.156 1.754 423.414 0 412.488 0c-32.57 0-62.16 15.188-81.183 41.668-17.805 24.789-23.293 55.168-15.43 84.242l-73.66 73.66-122.719-123V52.43a9.998 9.998 0 0 0-4.855-8.575L43.934 1.425A9.992 9.992 0 0 0 31.719 2.93L3.438 31.207a10.01 10.01 0 0 0-1.504 12.219l42.421 70.707a10 10 0 0 0 8.57 4.855l24.134.008 122.73 123-73.379 73.379c-29.074-7.86-59.469-2.363-84.27 15.453C15.677 349.84.5 379.422.5 411.992c0 10.922 1.754 21.668 5.215 31.93a10 10 0 0 0 16.574 3.852l41.453-41.782h19.985l22.77 22.77v19.984L64.714 490.2a10 10 0 0 0 3.851 16.574c10.262 3.461 21.008 5.215 31.93 5.215 32.57 0 62.149-15.18 81.164-41.644 17.817-24.801 23.313-55.192 15.453-84.266l58.934-58.933 13.5 14.664-6.195 6.191c-3.907 3.906-3.907 10.238 0 14.145 3.906 3.902 10.234 3.902 14.144 0l5.61-5.61L409.77 494.121c.093.102.19.2.289.297 23.437 23.437 61.41 23.445 84.859-.004 23.383-23.394 23.383-61.46 0-84.855-.102-.102-.207-.2-.313-.297l-137.8-126.422 5.547-5.547c3.906-3.902 3.906-10.234 0-14.14s-10.235-3.907-14.145 0l-6.152 6.156-14.692-13.485 59.219-59.219a100.198 100.198 0 0 0 25.906 3.391c55.14 0 99.996-44.86 99.996-99.996 0-10.926-1.754-21.668-5.214-31.934a9.99 9.99 0 0 0-7.211-6.546zM88.285 101.934c-1.875-1.88-4.418-2.836-7.074-2.836l-22.617-.008-35.492-59.258L40.34 22.594l59.156 35.5V80.71a9.997 9.997 0 0 0 2.922 7.062l125.656 125.942-14.144 14.14zm254.363 195.062 138.27 126.848c15.445 15.61 15.398 40.883-.145 56.433-15.578 15.578-40.796 15.625-56.437.137L297.258 342.38zm-14.75-13.535L283.7 327.652l-13.5-14.664 43.008-43.011zm84.59-103.465a79.917 79.917 0 0 1-25.558-4.168 10.017 10.017 0 0 0-10.262 2.406c-50.133 50.133-158.156 158.153-197.934 197.934a9.998 9.998 0 0 0-2.406 10.266c8.313 24.683 4.336 51.011-10.914 72.242-15.207 21.168-38.871 33.312-64.918 33.312-2.926 0-5.836-.16-8.719-.468l31.762-31.516a9.997 9.997 0 0 0 2.957-7.098v-28.289a10 10 0 0 0-2.93-7.07l-28.628-28.629a10 10 0 0 0-7.07-2.93h-28.29a10.012 10.012 0 0 0-7.101 2.957l-31.512 31.762a80.897 80.897 0 0 1-.469-8.719c0-26.05 12.14-49.71 33.313-64.918 21.226-15.25 47.558-19.23 72.246-10.914a9.993 9.993 0 0 0 10.261-2.406c.551-.547 197.793-197.793 197.934-197.934a9.999 9.999 0 0 0 2.406-10.261c-8.316-24.684-4.347-51.004 10.89-72.22C362.767 32.149 386.435 20 412.485 20c3.016 0 6.012.168 8.98.496l-31.1 31.566a9.993 9.993 0 0 0-2.876 7.016v28.29a9.988 9.988 0 0 0 2.805 6.944l27.629 28.63a9.992 9.992 0 0 0 7.195 3.054h28.29a9.994 9.994 0 0 0 7.097-2.957l31.512-31.758c.312 2.883.468 5.793.468 8.719 0 44.11-35.886 79.996-79.996 79.996zm0 0" fill="#000000" opacity="1" data-original="#000000" class=""></path><path d="M311.988 186.355 186.852 311.492c-3.903 3.903-3.903 10.235 0 14.14 3.906 3.907 10.238 3.907 14.144 0l125.137-125.136c3.906-3.902 3.906-10.234 0-14.14s-10.238-3.907-14.145 0zM438.355 452c3.907 3.895 10.239 3.895 14.145-.023 3.898-3.91 3.887-10.243-.023-14.141l-90.137-89.848c-3.91-3.898-10.246-3.886-14.14.024-3.903 3.914-3.891 10.242.019 14.14zm0 0" fill="#000000" opacity="1" data-original="#000000" class=""></path></g></svg>