<svg xmlns="http://www.w3.org/2000/svg" viewBox="0 0 311.8 96.4">
  <title>democat</title>
  <g>
    <rect width="311.8" height="96.38" style="fill: #6f05cc"/>
    <g>
      <path d="M109.7,28.6c8.2,0,11.3,5.6,11.3,12.7V55.1c0,7.1-3.1,12.6-11.3,12.6h-11V28.6ZM104,62.5h5.7c3.7,0,6-2.3,6-7.4V41.3c0-5.1-2.3-7.4-6-7.4H104Z" style="fill: #fff"/>
      <path d="M146.2,28.6a1.6,1.6,0,0,1,1.6,1.6v2.2a1.5,1.5,0,0,1-1.5,1.5H132.2V45.4h10.4a1.6,1.6,0,0,1,1.6,1.6v2.1s0,1.6-1.5,1.6H132.2V62.4h14a1.6,1.6,0,0,1,1.6,1.6v2.2a1.5,1.5,0,0,1-1.5,1.5H126.8V28.6Z" style="fill: #fff"/>
      <path d="M158.2,28.6a2,2,0,0,1,1.7,1.3l6.2,14.6,6.1-14.6a2,2,0,0,1,1.7-1.3H177a1.7,1.7,0,0,1,1.7,1.7V66.1a1.6,1.6,0,0,1-1.7,1.6h-2a1.6,1.6,0,0,1-1.6-1.6l.5-27.6L169,51c-.4,1.1-.9,1.2-1.5,1.2H165c-.7,0-1.2-.1-1.7-1.2l-5.1-12.8.5,27.9a1.6,1.6,0,0,1-1.6,1.6H155a1.6,1.6,0,0,1-1.6-1.6V30.3s0-1.7,1.6-1.7Z" style="fill: #fff"/>
      <path d="M207.7,41V55.4c0,7.1-3.2,12.7-11.4,12.7s-11.4-5.6-11.4-12.7V41c0-7.1,3.2-12.8,11.4-12.8S207.7,33.9,207.7,41Zm-17.5,0V55.4c0,5.2,2.4,7.4,6.1,7.4s6.1-2.2,6.1-7.4V41c0-5.2-2.4-7.4-6.1-7.4S190.2,35.8,190.2,41Z" style="fill: #fff"/>
      <path d="M235.9,37.7a1.5,1.5,0,0,1-1.1,1.9l-1.9.5a1.7,1.7,0,0,1-2.3-1.2c-.3-3.3-2.2-5.3-5.7-5.3s-6.2,2.2-6.2,7.4V55.4c0,5.2,1.9,7.4,6.2,7.4s5.9-2.2,5.9-7.4a1.5,1.5,0,0,1,1.5-1.6h2.2a1.6,1.6,0,0,1,1.6,1.6c0,7.1-3,12.7-11.2,12.7s-11.5-5.3-11.5-12.7V41c0-7.4,3.9-12.8,11.5-12.8S235.1,32.6,235.9,37.7Z" style="fill: #fff"/>
      <path d="M255.8,28.6a1.8,1.8,0,0,1,1.7,1.4l9.9,35.9c.5,1.8-1.4,1.8-1.4,1.8h-2.5a1.7,1.7,0,0,1-1.6-1.3l-3.4-12.5h-9.8L245,66.4a1.5,1.5,0,0,1-1.4,1.3H241a1.3,1.3,0,0,1-1.3-1.8l10-35.9a1.8,1.8,0,0,1,1.6-1.4Zm-2.3,5.9L250,48.6h7.1l-3.5-14.1Z" style="fill: #fff"/>
      <path d="M288.5,28.6a1.6,1.6,0,0,1,1.6,1.6v2.1a1.6,1.6,0,0,1-1.6,1.6h-7.3V66.1a1.5,1.5,0,0,1-1.5,1.6h-2.2a1.6,1.6,0,0,1-1.6-1.6V33.9h-7.2a1.5,1.5,0,0,1-1.6-1.5V30.3s0-1.7,1.6-1.7Z" style="fill: #fff"/>
    </g>
    <g>
      <path d="M52.1,74.9c20.1,0,28.4-10.5,29.3-26.1v-.3c.1-3.1.6-21.2-2-27.8,0,0-7.1,4.7-8.6,6.8a81,81,0,0,0-18.7-2.3,82.1,82.1,0,0,0-18.7,2.3c-1.4-2.1-8.6-6.8-8.6-6.8-2.6,6.6-2.1,24.7-1.9,27.8v.3C23.7,64.4,32.1,74.9,52.1,74.9Z" style="fill: #ffaebf"/>
      <circle cx="32.7" cy="46.5" r="4.2" style="fill: #fff"/>
      <circle cx="32.7" cy="46.5" r="2.6" style="fill: #6f05cc"/>
      <circle cx="71.4" cy="46.5" r="4.2" style="fill: #fff"/>
      <circle cx="71.4" cy="46.5" r="2.6" style="fill: #6f05cc"/>
      <g>
        <g>
          <path d="M68.7,55.4c-.2,0-.4-.1-.4-.3s.1-.5.4-.5l5.8-.4a.3.3,0,0,1,.5.3.5.5,0,0,1-.4.5l-5.9.4Z" style="fill: #6f05cc"/>
          <path d="M75.4,57.9h0l-6.7-.5a.4.4,0,0,1-.4-.4.4.4,0,0,1,.4-.4l6.8.5c.2,0,.4.2.3.4A.4.4,0,0,1,75.4,57.9Z" style="fill: #6f05cc"/>
          <path d="M74.3,60.5h-.1l-5.7-1.2a.4.4,0,0,1-.4-.4.5.5,0,0,1,.5-.4l5.8,1.2a.5.5,0,0,1,.3.5C74.7,60.4,74.5,60.5,74.3,60.5Z" style="fill: #6f05cc"/>
        </g>
        <g>
          <path d="M35.4,55.3h-.1l-5.9-.4a.3.3,0,0,1-.3-.5c0-.2.2-.4.4-.3l5.9.4a.4.4,0,0,1,.4.4A.4.4,0,0,1,35.4,55.3Z" style="fill: #6f05cc"/>
          <path d="M28.6,57.8a.4.4,0,0,1-.4-.4.7.7,0,0,1,.4-.5l6.7-.4a.5.5,0,0,1,.5.4.4.4,0,0,1-.4.4l-6.8.5Z" style="fill: #6f05cc"/>
          <path d="M29.8,60.4a.5.5,0,0,1-.5-.3.5.5,0,0,1,.4-.5l5.7-1.2c.3,0,.5.1.5.3a.3.3,0,0,1-.3.5l-5.8,1.2Z" style="fill: #6f05cc"/>
        </g>
      </g>
      <g>
        <path d="M28.5,38.5h-.3c-.2-.2-.2-.5,0-.6a7.4,7.4,0,0,1,7.6-1.7.4.4,0,0,1,.2.5.4.4,0,0,1-.5.3,6.6,6.6,0,0,0-6.7,1.4Z" style="fill: #6f05cc"/>
        <path d="M75.6,38.5l-.3-.2a6.8,6.8,0,0,0-6.8-1.4c-.2.1-.4-.1-.5-.3s.1-.4.3-.5a7.5,7.5,0,0,1,7.6,1.7.6.6,0,0,1,0,.6Z" style="fill: #6f05cc"/>
      </g>
      <g>
        <polygon points="44.7 57.2 45.4 60.4 47.6 58 44.7 57.2" style="fill: #fff"/>
        <polygon points="59.4 57.2 58.7 60.4 56.5 58 59.4 57.2" style="fill: #fff"/>
      </g>
      <path d="M52,58.8c-7.4,0-11.1-3.1-11.3-3.2s-.2-.4,0-.6.4-.2.6,0,3.6,3,10.7,3,10.7-3,10.8-3a.3.3,0,0,1,.5,0,.4.4,0,0,1,0,.6C63.1,55.7,59.4,58.8,52,58.8Z" style="fill: #6f05cc"/>
      <path d="M52,58.5a.4.4,0,0,1-.4-.4V50.7a.4.4,0,0,1,.4-.4.4.4,0,0,1,.4.4v7.4C52.4,58.4,52.3,58.5,52,58.5Z" style="fill: #6f05cc"/>
      <rect x="48.6" y="49.9" width="6.8" height="2.2" rx="1.1" ry="1.1" style="fill: #6f05cc"/>
      <path d="M56.3,68.3a.4.4,0,0,1-.4-.4c0-.4-.2-.5-.4-.7a2,2,0,0,1-.6-1.3,1.7,1.7,0,0,1,.6-1.2,1,1,0,0,0,.4-.7c0-.3-.2-.4-.4-.7a1.7,1.7,0,0,1-.6-1.2,2,2,0,0,1,.6-1.3c.2-.2.4-.3.4-.7s-.2-.4-.4-.6a2,2,0,0,1-.6-1.3.4.4,0,0,1,.4-.4.5.5,0,0,1,.5.4.9.9,0,0,0,.3.7,1.4,1.4,0,0,1,.6,1.2,1.6,1.6,0,0,1-.6,1.3.9.9,0,0,0-.3.7.7.7,0,0,0,.3.6,1.8,1.8,0,0,1,.6,1.3,1.6,1.6,0,0,1-.6,1.3.7.7,0,0,0-.3.6.9.9,0,0,0,.3.7,1.6,1.6,0,0,1,.6,1.3A.4.4,0,0,1,56.3,68.3Z" style="fill: #6f05cc"/>
      <g>
        <rect x="52.2" y="67.9" width="8.3" height="13.49" rx="3.3" ry="3.3" style="fill: #fff"/>
        <path d="M56.4,79.2a.7.7,0,0,1-.7-.6V77.1a.7.7,0,0,1,.7-.7.7.7,0,0,1,.6.7v1.5A.6.6,0,0,1,56.4,79.2Z" style="fill: #6f05cc"/>
      </g>
    </g>
  </g>
</svg>
