<svg xmlns="http://www.w3.org/2000/svg" viewBox="0 0 125.8 13.6">
  <title>logo-horizontal</title>
  <g>
    <path d="M4.6,13.6c-2.9,0-4.6-1.8-4.6-5S1.7,3.5,4.6,3.5A4,4,0,0,1,8.8,7.3H6.4C6.1,6,5.6,5.6,4.6,5.6s-2.1,1.2-2.1,3,.8,2.9,2.1,2.9S6,11.1,6.4,10H8.8A4,4,0,0,1,4.6,13.6Z" style="fill: #1d1d1b"/>
    <path d="M15,13.6c-3,0-4.8-1.8-4.8-5S12,3.5,15,3.5s4.8,1.8,4.8,5.1S18,13.6,15,13.6Zm0-8c-1.4,0-2.3,1.1-2.3,3s.9,2.9,2.3,2.9,2.3-1.1,2.3-2.9S16.4,5.6,15,5.6Z" style="fill: #1d1d1b"/>
    <path d="M22,13.4V.3h2.5V13.4Z" style="fill: #1d1d1b"/>
    <path d="M27.1,13.4V.3h2.6V13.4Z" style="fill: #1d1d1b"/>
    <path d="M40.6,9.2H34c.1,1.9.9,2.4,2.1,2.4s1.7-.2,1.9-.9h2.5A4.4,4.4,0,0,1,36,13.6c-2.8,0-4.5-1.8-4.5-4.9S33.2,3.5,36,3.5s4.6,2.1,4.6,5.4ZM36,5.5c-1.1,0-1.8.7-1.9,2h3.8C37.8,6.2,37.1,5.5,36,5.5Z" style="fill: #1d1d1b"/>
    <path d="M46.5,13.6c-2.9,0-4.6-1.8-4.6-5s1.7-5.1,4.6-5.1a4,4,0,0,1,4.2,3.8H48.3C48,6,47.5,5.6,46.5,5.6s-2.1,1.2-2.1,3,.8,2.9,2.1,2.9,1.5-.4,1.8-1.5h2.4A4,4,0,0,1,46.5,13.6Z" style="fill: #1d1d1b"/>
    <path d="M55.5,13.5c-1.7,0-2.5-.6-2.5-2.2V5.6H51.7V3.9H53V1.3h2.5V3.9h1.4V5.6H55.5v5c0,.9.2,1.1.8,1.1h.6v1.8Z" style="fill: #1d1d1b"/>
    <path d="M58.9,13.4V3.7h2.5v9.7Zm0-10.9V0h2.5V2.5Z" style="fill: #1d1d1b"/>
    <path d="M69.2,13.4H66.5L63.1,3.7h2.7l2.1,7.1,1.9-7.1h2.7Z" style="fill: #1d1d1b"/>
    <path d="M82.2,9.2H75.7c.1,1.9.8,2.4,2,2.4s1.7-.2,1.9-.9h2.5c-.5,1.9-2.3,2.9-4.5,2.9s-4.4-1.8-4.4-4.9,1.7-5.2,4.5-5.2,4.5,2.1,4.5,5.4ZM77.6,5.5c-1.1,0-1.7.7-1.9,2h3.9A1.9,1.9,0,0,0,77.6,5.5Z" style="fill: #1d1d1b"/>
    <path d="M86.8,13.5c-1.6,0-2.4-.6-2.4-2.2V5.6H83.1V3.9h1.3V1.3h2.5V3.9h1.4V5.6H86.9v5c0,.9.1,1.1.8,1.1h.6v1.8Z" style="fill: #eb5c4d"/>
    <path d="M94.3,13.6c-3,0-4.8-1.8-4.8-5s1.8-5.1,4.8-5.1,4.8,1.8,4.8,5.1S97.3,13.6,94.3,13.6Zm0-8c-1.4,0-2.3,1.1-2.3,3s.9,2.9,2.3,2.9,2.3-1.1,2.3-2.9S95.7,5.6,94.3,5.6Z" style="fill: #eb5c4d"/>
    <path d="M105.5,13.6c-3,0-4.8-1.8-4.8-5s1.8-5.1,4.8-5.1,4.8,1.8,4.8,5.1S108.4,13.6,105.5,13.6Zm0-8c-1.4,0-2.3,1.1-2.3,3s.9,2.9,2.3,2.9,2.3-1.1,2.3-2.9S106.9,5.6,105.5,5.6Z" style="fill: #eb5c4d"/>
    <path d="M112.4,13.4V.3h2.5V13.4Z" style="fill: #eb5c4d"/>
    <path d="M121.5,13.6c-2.9,0-4.5-1.1-4.6-3.3h2.5c.2,1.1.8,1.3,2,1.3s1.8-.2,1.8-.8-.2-.5-.8-.7l-3-.9c-1.8-.6-2.1-1.2-2.1-2.4s1.5-3.3,4-3.3,4.2,1.3,4.2,3.3h-2.4c-.1-.9-.6-1.3-1.9-1.3s-1.4.4-1.4.9.2.6.9.8l3.2.9a2.4,2.4,0,0,1,1.9,2.3h0C125.8,12.5,124.3,13.6,121.5,13.6Z" style="fill: #eb5c4d"/>
  </g>
</svg>