<svg enable-background="new 0 0 678.5 138.9" viewBox="0 0 678.5 138.9" xmlns="http://www.w3.org/2000/svg" xmlns:xlink="http://www.w3.org/1999/xlink"><linearGradient id="a" gradientUnits="userSpaceOnUse" x1="9.2526" x2="88.8662" y1="24.1317" y2="73.8799"><stop offset="0" stop-color="#f49c24"/><stop offset=".2583" stop-color="#ef7b1d"/><stop offset=".5664" stop-color="#ea5b17"/><stop offset=".8248" stop-color="#e74712"/><stop offset="1" stop-color="#e64011"/></linearGradient><path d="m5.6 66.74c-2.23-5.47-3.47-11.45-3.47-17.73 0-25.92 21.01-46.93 46.93-46.93 3.02 0 5.96.3 8.82.84l-27.29 17.06c-3.55 2.29-5.13 4.66-5.09 9.94.03-.02.03-.02.03-.02v20.13c.01 3-.63 4.71-3.18 6.31-.09.02-16.75 10.4-16.75 10.4zm90.39-17.73c0 25.92-21.01 46.93-46.93 46.93-17.58 0-32.89-9.67-40.93-23.96l18.68-11.68c3.24-2.07 4.47-3.94 4.47-8.28v-22.1c0-2.41.5-3.86 3.12-5.56l30.99-19.36c17.87 6.63 30.6 23.83 30.6 44.01zm-38.54 0c0-4.63-3.75-8.39-8.39-8.39-4.63 0-8.39 3.76-8.39 8.39s3.76 8.39 8.39 8.39 8.39-3.76 8.39-8.39z" fill="url(#a)"/><g fill="#2d2d2d"><path d="m150.74 73.63c0 .55-.03 1.01-.08 1.37-.06.37-.15.68-.27.94s-.27.45-.45.57-.39.18-.63.18h-23.43c-.63 0-1.22-.21-1.78-.64-.56-.42-.84-1.17-.84-2.23v-49.05c0-.22.05-.41.16-.57.11-.17.3-.29.57-.39s.64-.18 1.1-.25c.47-.06 1.02-.1 1.68-.1.68 0 1.25.04 1.7.1.45.07.81.15 1.09.25.27.09.46.22.57.39.11.16.16.35.16.57v45.84h19.01c.25 0 .46.06.63.18.18.12.33.31.45.53.12.23.21.54.27.93.06.38.09.84.09 1.38"/><path d="m164.63 75.69c0 .22-.05.4-.16.54-.11.16-.29.29-.53.39-.25.11-.59.19-1.03.25-.44.05-1 .08-1.68.08-.66 0-1.2-.03-1.64-.08-.44-.06-.79-.14-1.04-.25-.26-.1-.44-.23-.54-.39-.09-.15-.14-.33-.14-.54v-36.87c0-.2.05-.37.14-.54.1-.16.27-.3.54-.41.26-.11.61-.19 1.04-.25.43-.05.98-.08 1.64-.08.68 0 1.24.03 1.68.08.44.06.78.14 1.03.25s.42.25.53.41c.11.17.16.34.16.54zm.78-49.33c0 1.59-.3 2.67-.9 3.24s-1.71.86-3.32.86c-1.58 0-2.67-.29-3.26-.84-.59-.56-.88-1.62-.88-3.18 0-1.58.3-2.66.9-3.24.6-.57 1.71-.86 3.32-.86 1.58 0 2.67.28 3.26.84.59.57.88 1.63.88 3.18"/><path d="m206.95 38.73c0 .12-.01.23-.02.35s-.03.25-.06.39c-.03.13-.06.28-.1.45s-.09.34-.14.53l-12.58 35.03c-.11.3-.25.54-.43.74-.18.19-.44.34-.8.45s-.81.18-1.35.22c-.55.04-1.23.06-2.05.06s-1.5-.03-2.05-.08c-.55-.06-.99-.14-1.33-.25s-.61-.26-.8-.44c-.19-.2-.34-.43-.45-.7l-12.54-35.03c-.11-.33-.2-.62-.26-.86-.07-.25-.11-.43-.13-.55-.01-.12-.02-.22-.02-.31 0-.21.05-.41.16-.57.11-.17.3-.3.55-.39.26-.1.6-.16 1.02-.19s.95-.04 1.58-.04c.79 0 1.43.02 1.91.06s.84.12 1.1.23.45.24.57.41c.13.17.24.38.35.62l10.41 30.4.16.49.12-.49 10.28-30.4c.05-.24.15-.45.29-.62s.34-.3.59-.41c.26-.11.62-.19 1.07-.23s1.05-.06 1.78-.06c.63 0 1.15.02 1.56.04.41.03.73.1.96.21.23.1.39.24.49.39.11.15.16.34.16.55"/><path d="m236.86 65.65c0 1.89-.34 3.56-1.04 5.04s-1.68 2.72-2.97 3.73-2.81 1.78-4.59 2.3-3.73.78-5.86.78c-1.31 0-2.56-.1-3.75-.31s-2.25-.47-3.19-.78c-.95-.31-1.74-.64-2.4-.98s-1.13-.65-1.43-.92-.52-.66-.66-1.15-.21-1.16-.21-2.01c0-.51.03-.96.08-1.31.05-.36.12-.64.2-.86s.2-.37.35-.47c.15-.09.32-.15.51-.15.3 0 .74.19 1.33.55.59.37 1.31.78 2.17 1.21.86.44 1.88.84 3.05 1.21 1.18.37 2.53.55 4.05.55 1.15 0 2.19-.13 3.12-.37.93-.25 1.73-.61 2.42-1.08.68-.48 1.21-1.09 1.58-1.82.37-.74.55-1.61.55-2.62 0-1.04-.27-1.91-.8-2.63-.53-.71-1.24-1.34-2.11-1.88-.88-.55-1.86-1.03-2.95-1.45-1.09-.43-2.22-.87-3.38-1.34-1.16-.46-2.29-.99-3.4-1.58s-2.1-1.3-2.97-2.15-1.58-1.86-2.11-3.03-.8-2.58-.8-4.22c0-1.45.28-2.83.84-4.16s1.4-2.49 2.52-3.48c1.12-1 2.52-1.8 4.2-2.4s3.64-.9 5.88-.9c.98 0 1.97.08 2.95.25s1.87.37 2.66.62c.79.24 1.47.51 2.03.79.56.29.98.55 1.27.76.29.22.48.41.57.57.1.17.16.35.21.55.04.21.08.46.12.76s.06.67.06 1.11c0 .47-.02.87-.06 1.21s-.11.62-.2.84c-.1.22-.21.37-.35.47-.14.09-.29.14-.45.14-.24 0-.6-.15-1.07-.45s-1.07-.62-1.8-.96c-.74-.34-1.61-.66-2.61-.97-1-.3-2.13-.45-3.42-.45-1.14 0-2.16.13-3.03.39s-1.59.63-2.15 1.11-.98 1.05-1.27 1.7-.43 1.37-.43 2.13c0 1.06.28 1.96.82 2.68.55.72 1.26 1.36 2.13 1.9.87.55 1.87 1.04 2.99 1.48 1.12.43 2.26.89 3.42 1.35 1.16.47 2.31.98 3.44 1.56 1.13.56 2.14 1.26 3.01 2.09.87.82 1.58 1.8 2.11 2.95.55 1.15.82 2.52.82 4.1"/><path d="m298.43 75.68c0 .22-.06.4-.16.55-.11.16-.29.28-.53.39-.25.11-.59.19-1.02.25-.44.05-.98.08-1.64.08-.68 0-1.24-.03-1.68-.08-.44-.06-.79-.14-1.05-.25s-.45-.24-.55-.39c-.11-.15-.16-.33-.16-.55v-22.4c0-1.56-.14-2.98-.41-4.26s-.71-2.39-1.31-3.32-1.37-1.64-2.29-2.13c-.93-.49-2.02-.74-3.28-.74-1.56 0-3.12.6-4.69 1.8s-3.3 2.96-5.18 5.28v25.77c0 .22-.06.4-.17.55-.11.16-.29.28-.55.39s-.61.19-1.04.25c-.44.05-.99.08-1.64.08-.63 0-1.17-.03-1.62-.08-.45-.06-.81-.14-1.06-.25-.26-.11-.44-.24-.53-.39-.1-.15-.14-.33-.14-.55v-22.4c0-1.56-.15-2.98-.45-4.26s-.75-2.39-1.35-3.32-1.36-1.64-2.28-2.13c-.91-.49-2-.74-3.25-.74-1.56 0-3.13.6-4.71 1.8s-3.3 2.96-5.16 5.28v25.77c0 .22-.06.4-.17.55-.11.16-.28.28-.53.39-.24.11-.59.19-1.02.25-.43.05-1 .08-1.68.08-.65 0-1.2-.03-1.64-.08-.44-.06-.79-.14-1.04-.25-.26-.11-.44-.24-.53-.39-.1-.15-.14-.33-.14-.55v-36.86c0-.22.04-.4.12-.56.08-.15.25-.29.49-.41.25-.12.56-.2.94-.25.38-.04.89-.06 1.51-.06.6 0 1.1.02 1.5.06s.71.13.92.25c.22.12.38.26.47.41s.14.34.14.56v4.88c2.07-2.32 4.09-4.02 6.04-5.1s3.93-1.62 5.92-1.62c1.53 0 2.9.17 4.12.53 1.21.35 2.29.85 3.21 1.5.93.64 1.72 1.4 2.38 2.29s1.2 1.88 1.64 2.97c1.23-1.34 2.39-2.47 3.5-3.4s2.17-1.67 3.19-2.25c1.03-.57 2.02-.99 2.99-1.25.96-.26 1.95-.39 2.93-.39 2.37 0 4.37.42 5.98 1.25 1.61.84 2.92 1.94 3.91 3.34 1 1.39 1.71 3.03 2.13 4.9s.63 3.84.63 5.92v23.29z"/><path d="m332.74 53.65c.08-3.55-.71-6.33-2.37-8.36-1.66-2.02-4.13-3.03-7.39-3.03-1.68 0-3.15.31-4.41.94s-2.32 1.46-3.17 2.5-1.51 2.25-1.98 3.62c-.47 1.39-.73 2.82-.78 4.32h20.1zm6.8 2c0 1.06-.26 1.82-.8 2.27-.53.45-1.15.68-1.83.68h-24.28c0 2.05.21 3.89.62 5.53s1.09 3.04 2.05 4.22c.96 1.17 2.21 2.08 3.74 2.7 1.54.63 3.42.95 5.65.95 1.75 0 3.32-.14 4.69-.43s2.55-.61 3.55-.96c1-.36 1.83-.68 2.47-.97.65-.28 1.13-.43 1.47-.43.19 0 .36.05.51.15s.27.24.35.43.14.46.18.8.06.75.06 1.25c0 .36-.01.66-.04.93-.03.26-.06.49-.1.7-.04.2-.11.38-.21.55-.09.17-.22.32-.37.47-.15.16-.6.4-1.33.74-.74.34-1.69.68-2.87 1-1.18.33-2.53.62-4.07.88-1.55.26-3.19.39-4.94.39-3.04 0-5.69-.42-7.97-1.27s-4.2-2.1-5.76-3.77-2.73-3.76-3.52-6.27-1.19-5.43-1.19-8.77c0-3.17.41-6.02 1.23-8.54.82-2.53 2-4.67 3.54-6.43s3.4-3.12 5.59-4.06c2.18-.94 4.63-1.41 7.33-1.41 2.9 0 5.36.46 7.39 1.4 2.04.93 3.71 2.18 5.02 3.75s2.27 3.42 2.88 5.53c.61 2.12.92 4.38.92 6.78v1.21z"/><path d="m372.95 55.31c0-3.98-.3-6.95-1.69-8.87-2.8-3.87-6.9-4.17-8.57-4.17-2.91 0-5.91 1.45-7.76 4.8-.75 1.35-1.24 3.04-1.58 4.74-.35 1.7-.51 3.41-.51 5.16 0 2.68-.01 5.72 1.3 8.92 1.66 4.02 5.47 6.16 10.07 6.16 4.81 0 8.74-2.17 8.74-7.1v-2.37c0-.71 0-1.15 0-1.15zm6.8 6.19v.75 2.76c0 10.33-9.91 12.35-14.8 12.5-2.72.08-7.57-.15-11.75-2.95-1.82-1.22-5.01-4.26-6.27-9.01-.63-2.4-1.05-5.61-1.1-7.85-.06-3.17.34-6.03 1.02-8.58.69-2.55 1.69-4.73 3.03-6.53 1.34-1.81 3.7-3.45 5.78-4.32 2.24-.93 4.06-1.28 6.65-1.3 1.73-.02 3.85.33 5.66 1.22 2.09 1.03 3.35 2.13 4.97 4.35v-21.42c0-.19.04-.38.14-.55.09-.17.28-.31.55-.41s.62-.18 1.04-.25.96-.1 1.61-.1c.68 0 1.24.03 1.68.1s.78.15 1.03.25c.24.09.43.23.55.41.13.18.19.36.19.55.02 0 .02 37.94.02 40.38z"/><path d="m414.32 53.65c.08-3.55-.71-6.33-2.37-8.36-1.66-2.02-4.13-3.03-7.39-3.03-1.68 0-3.15.31-4.42.94-1.26.63-2.31 1.46-3.17 2.5-.85 1.04-1.51 2.25-1.97 3.62-.47 1.39-.73 2.82-.79 4.32h20.11zm6.8 2c0 1.06-.26 1.82-.8 2.27s-1.15.68-1.83.68h-24.28c0 2.05.21 3.89.62 5.53s1.09 3.04 2.05 4.22c.96 1.17 2.21 2.08 3.75 2.7 1.54.63 3.42.95 5.64.95 1.76 0 3.32-.14 4.69-.43s2.56-.61 3.56-.96c1-.36 1.83-.68 2.47-.97.65-.28 1.13-.43 1.46-.43.19 0 .36.05.51.15s.27.24.35.43c.09.19.15.46.18.8.04.34.07.75.07 1.25 0 .36-.02.66-.05.93-.02.26-.05.49-.1.7-.04.2-.11.38-.21.55s-.22.32-.36.47c-.15.16-.6.4-1.34.74-.73.34-1.69.68-2.87 1-1.17.33-2.53.62-4.07.88-1.55.26-3.19.39-4.94.39-3.03 0-5.69-.42-7.97-1.27s-4.21-2.1-5.76-3.77c-1.56-1.67-2.73-3.76-3.52-6.27s-1.19-5.43-1.19-8.77c0-3.17.41-6.02 1.23-8.54.82-2.53 2-4.67 3.54-6.43s3.4-3.12 5.59-4.06 4.64-1.41 7.34-1.41c2.89 0 5.36.46 7.39 1.4 2.03.93 3.71 2.18 5.02 3.75s2.27 3.42 2.88 5.53c.62 2.12.92 4.38.92 6.78v1.21z"/><path d="m436.01 75.68c0 .22-.05.4-.17.55-.1.16-.28.28-.53.39-.24.11-.59.19-1.03.25-.43.05-.99.08-1.68.08-.65 0-1.2-.03-1.63-.08-.44-.06-.79-.14-1.05-.25s-.44-.24-.54-.39c-.09-.15-.15-.33-.15-.55v-54.72c0-.22.05-.41.15-.58.1-.16.28-.3.54-.41s.61-.19 1.05-.25c.43-.05.98-.08 1.63-.08.69 0 1.24.03 1.68.08.44.06.78.14 1.03.25s.43.24.53.41c.12.17.17.36.17.58z"/><path d="m470.03 65.65c0 1.89-.34 3.56-1.04 5.04-.69 1.48-1.69 2.72-2.96 3.73-1.29 1.01-2.82 1.78-4.6 2.3-1.77.52-3.72.78-5.86.78-1.31 0-2.56-.1-3.75-.31s-2.25-.47-3.2-.78c-.94-.31-1.74-.64-2.4-.98s-1.13-.65-1.43-.92-.52-.66-.66-1.15c-.13-.49-.2-1.16-.2-2.01 0-.51.03-.96.08-1.31.05-.36.12-.64.21-.86.08-.22.2-.37.35-.47.15-.09.32-.15.51-.15.3 0 .74.19 1.34.55.58.37 1.31.78 2.17 1.21.86.44 1.88.84 3.05 1.21 1.18.37 2.53.55 4.05.55 1.15 0 2.19-.13 3.12-.37.92-.25 1.73-.61 2.42-1.08.68-.48 1.2-1.09 1.57-1.82.37-.74.55-1.61.55-2.62 0-1.04-.27-1.91-.8-2.63-.53-.71-1.24-1.34-2.11-1.88-.87-.55-1.86-1.03-2.95-1.45-1.09-.43-2.22-.87-3.38-1.34-1.16-.46-2.29-.99-3.4-1.58-1.1-.59-2.09-1.3-2.97-2.15-.87-.85-1.57-1.86-2.11-3.03s-.8-2.58-.8-4.22c0-1.45.28-2.83.84-4.16s1.4-2.49 2.52-3.48c1.12-1 2.52-1.8 4.2-2.4 1.67-.6 3.64-.9 5.88-.9.98 0 1.96.08 2.95.25.98.17 1.87.37 2.66.62.79.24 1.47.51 2.02.79.56.29.99.55 1.27.76.29.22.48.41.58.57.09.17.16.35.21.55.04.21.08.46.12.76s.06.67.06 1.11c0 .47-.02.87-.06 1.21s-.11.62-.21.84-.21.37-.35.47c-.13.09-.28.14-.45.14-.24 0-.6-.15-1.06-.45-.47-.3-1.07-.62-1.81-.96s-1.6-.66-2.6-.97c-.99-.3-2.14-.45-3.42-.45-1.15 0-2.15.13-3.03.39s-1.6.63-2.16 1.11-.98 1.05-1.27 1.7-.43 1.37-.43 2.13c0 1.06.28 1.96.82 2.68.55.72 1.26 1.36 2.13 1.9.87.55 1.87 1.04 2.99 1.48 1.12.43 2.26.89 3.42 1.35 1.15.47 2.3.98 3.44 1.56 1.13.56 2.13 1.26 3.01 2.09.87.82 1.58 1.8 2.11 2.95.56 1.15.82 2.52.82 4.1"/><path d="m508.72 38.73c0 .12-.01.23-.02.35s-.03.25-.06.39c-.03.13-.06.28-.1.45s-.09.34-.14.53l-12.58 35.03c-.11.3-.25.54-.43.74-.18.19-.45.34-.8.45-.36.11-.81.18-1.36.22-.54.04-1.22.06-2.04.06-.81 0-1.5-.03-2.05-.08-.54-.06-.98-.14-1.33-.25-.34-.11-.61-.26-.79-.44-.19-.2-.34-.43-.45-.7l-12.54-35.03c-.11-.33-.2-.62-.26-.86-.07-.25-.11-.43-.13-.55-.01-.12-.02-.22-.02-.31 0-.21.06-.41.16-.57.11-.17.29-.3.56-.39.26-.1.6-.16 1.02-.19s.95-.04 1.58-.04c.79 0 1.42.02 1.91.06.48.04.84.12 1.1.23s.45.24.57.41.24.38.35.62l10.4 30.4.16.49.13-.49 10.29-30.4c.05-.24.15-.45.29-.62s.33-.3.6-.41c.26-.11.62-.19 1.06-.23.45-.04 1.04-.06 1.78-.06.63 0 1.15.02 1.55.04.41.03.74.1.96.21.23.1.4.24.5.39.09.15.13.34.13.55"/><path d="m538.77 53.65c.08-3.55-.71-6.33-2.37-8.36-1.67-2.02-4.13-3.03-7.39-3.03-1.68 0-3.15.31-4.42.94-1.26.63-2.31 1.46-3.17 2.5-.85 1.04-1.51 2.25-1.98 3.62-.46 1.39-.72 2.82-.78 4.32h20.11zm6.79 2c0 1.06-.26 1.82-.8 2.27s-1.14.68-1.83.68h-24.28c0 2.05.21 3.89.62 5.53s1.09 3.04 2.05 4.22c.96 1.17 2.22 2.08 3.75 2.7 1.54.63 3.41.95 5.64.95 1.76 0 3.32-.14 4.7-.43s2.56-.61 3.56-.96c1.01-.36 1.83-.68 2.47-.97.65-.28 1.13-.43 1.46-.43.19 0 .36.05.51.15s.27.24.35.43.15.46.19.8.06.75.06 1.25c0 .36-.01.66-.04.93-.03.26-.07.49-.11.7-.04.2-.11.38-.21.55s-.22.32-.37.47c-.15.16-.6.4-1.33.74s-1.69.68-2.87 1c-1.17.33-2.53.62-4.08.88-1.54.26-3.19.39-4.93.39-3.03 0-5.69-.42-7.97-1.27s-4.2-2.1-5.76-3.77-2.73-3.76-3.52-6.27-1.19-5.43-1.19-8.77c0-3.17.42-6.02 1.24-8.54.82-2.53 2-4.67 3.54-6.43s3.41-3.12 5.59-4.06c2.19-.94 4.63-1.41 7.33-1.41 2.89 0 5.36.46 7.39 1.4 2.03.93 3.71 2.18 5.02 3.75 1.3 1.57 2.27 3.42 2.88 5.53.62 2.12.92 4.38.92 6.78v1.21z"/><path d="m575.25 41.23c0 .6-.02 1.11-.04 1.52-.03.41-.08.73-.17.96-.08.23-.18.41-.31.53-.12.12-.29.18-.51.18s-.48-.06-.8-.18c-.31-.12-.67-.24-1.07-.37-.4-.12-.84-.24-1.33-.34-.49-.11-1.02-.16-1.6-.16-.68 0-1.35.14-2.01.41s-1.35.72-2.07 1.35-1.48 1.46-2.28 2.5c-.79 1.04-1.67 2.31-2.62 3.81v24.25c0 .22-.06.4-.16.55-.1.16-.29.28-.54.39-.24.11-.58.19-1.02.25-.44.05-1 .08-1.67.08-.66 0-1.21-.03-1.64-.08-.43-.06-.79-.14-1.04-.25-.26-.11-.44-.24-.54-.39s-.15-.33-.15-.55v-36.87c0-.22.04-.4.13-.56.08-.15.24-.29.49-.41s.56-.2.94-.25c.38-.04.89-.06 1.51-.06.6 0 1.1.02 1.5.06s.7.12.92.25c.22.12.37.26.47.41.09.16.15.34.15.56v5.37c1.01-1.48 1.96-2.68 2.84-3.61.89-.92 1.73-1.66 2.52-2.19s1.58-.9 2.36-1.11c.78-.2 1.56-.31 2.36-.31.35 0 .76.02 1.21.06s.92.12 1.41.23.93.23 1.33.37.68.27.84.41c.17.14.27.27.33.39.05.12.1.28.14.47s.07.47.08.84c.03.37.04.87.04 1.49"/><path d="m612 75.64c0 .22-.05.41-.17.58-.1.17-.29.3-.55.41s-.62.19-1.08.25c-.46.05-1.04.08-1.76.08-.73 0-1.34-.02-1.82-.07-.48-.03-.88-.11-1.21-.2-.32-.09-.6-.23-.8-.41-.21-.18-.39-.39-.55-.64l-15.57-20.4v20.44c0 .22-.05.4-.16.55-.11.16-.28.28-.53.39s-.59.19-1.02.25c-.43.05-1 .08-1.68.08-.66 0-1.21-.03-1.64-.08-.44-.06-.78-.14-1.04-.25s-.44-.24-.53-.39c-.1-.15-.14-.33-.14-.55v-54.72c0-.22.05-.41.14-.58.09-.16.27-.3.53-.4.26-.11.6-.19 1.04-.25.43-.05.98-.08 1.64-.08.68 0 1.25.03 1.68.08.43.06.78.14 1.02.25.25.11.42.24.53.4.11.17.16.36.16.58v33.34l13.93-15.32c.22-.28.45-.5.7-.68.24-.18.54-.33.88-.45s.75-.2 1.21-.25c.47-.04 1.03-.06 1.68-.06.68 0 1.26.02 1.71.06.46.04.84.11 1.12.2.28.1.49.22.61.37s.18.35.18.59c0 .33-.09.66-.26.99-.18.32-.47.71-.88 1.15l-13.35 13.35 14.98 19.46c.35.46.6.84.74 1.12.19.3.26.57.26.81"/><path d="m641.59 53.65c.08-3.55-.71-6.33-2.37-8.36-1.66-2.02-4.13-3.03-7.39-3.03-1.68 0-3.15.31-4.42.94-1.26.63-2.32 1.46-3.17 2.5s-1.51 2.25-1.98 3.62c-.47 1.39-.73 2.82-.78 4.32h20.11zm6.79 2c0 1.06-.26 1.82-.8 2.27s-1.14.68-1.83.68h-24.28c0 2.05.2 3.89.61 5.53.42 1.64 1.1 3.04 2.06 4.22.96 1.17 2.21 2.08 3.75 2.7 1.54.63 3.42.95 5.64.95 1.76 0 3.32-.14 4.69-.43s2.56-.61 3.56-.96c1-.36 1.83-.68 2.47-.97.65-.28 1.14-.43 1.47-.43.19 0 .36.05.52.15.15.1.26.24.35.43.08.19.15.46.19.8s.06.75.06 1.25c0 .36-.02.66-.04.93-.03.26-.06.49-.1.7-.04.2-.11.38-.21.55-.09.17-.22.32-.36.47-.15.16-.6.4-1.34.74s-1.69.68-2.87 1c-1.18.33-2.53.62-4.07.88-1.55.26-3.19.39-4.93.39-3.04 0-5.69-.42-7.97-1.27s-4.2-2.1-5.75-3.77c-1.56-1.67-2.73-3.76-3.52-6.27-.78-2.51-1.18-5.43-1.18-8.77 0-3.17.41-6.02 1.22-8.54.82-2.53 2-4.67 3.54-6.43s3.41-3.12 5.58-4.06c2.19-.94 4.64-1.41 7.33-1.41 2.9 0 5.36.46 7.39 1.4 2.04.93 3.71 2.18 5.02 3.75s2.27 3.42 2.88 5.53c.62 2.12.92 4.38.92 6.78z"/><path d="m676.54 72.98c0 .79-.05 1.42-.16 1.89-.11.46-.27.81-.49 1.03-.21.22-.55.42-.98.62-.44.19-.94.35-1.5.47s-1.15.23-1.78.31-1.25.12-1.88.12c-1.92 0-3.55-.25-4.92-.76-1.37-.5-2.49-1.27-3.36-2.29s-1.5-2.32-1.9-3.89-.59-3.42-.59-5.55v-21.57h-5.16c-.41 0-.74-.22-.98-.66-.25-.43-.37-1.15-.37-2.13 0-.51.04-.95.1-1.31.07-.35.16-.65.27-.88s.25-.39.43-.49.38-.14.6-.14h5.12v-8.76c0-.2.05-.37.15-.54s.27-.31.53-.43.61-.21 1.04-.27c.44-.06.98-.08 1.64-.08.68 0 1.24.02 1.68.08.43.06.78.14 1.03.27.24.12.42.26.53.43s.16.34.16.54v8.76h9.46c.22 0 .41.04.57.14.17.1.31.26.43.49s.21.53.27.88.08.79.08 1.31c0 .98-.12 1.7-.37 2.13-.25.44-.58.66-.98.66h-9.46v20.57c0 2.54.37 4.46 1.13 5.75.75 1.3 2.1 1.95 4.04 1.95.63 0 1.19-.06 1.68-.19.49-.12.93-.25 1.31-.39.38-.13.71-.26.98-.39.27-.12.52-.19.74-.19.14 0 .27.04.39.11.12.06.22.2.29.38.07.19.13.46.18.79.02.33.05.74.05 1.23"/></g></svg>