<?xml version="1.0" encoding="UTF-8" standalone="no"?>
<!-- Generator: Adobe Illustrator 19.2.1, SVG Export Plug-In . SVG Version: 6.00 Build 0)  -->

<svg
   xmlns:dc="http://purl.org/dc/elements/1.1/"
   xmlns:cc="http://creativecommons.org/ns#"
   xmlns:rdf="http://www.w3.org/1999/02/22-rdf-syntax-ns#"
   xmlns:svg="http://www.w3.org/2000/svg"
   xmlns="http://www.w3.org/2000/svg"
   xmlns:sodipodi="http://sodipodi.sourceforge.net/DTD/sodipodi-0.dtd"
   xmlns:inkscape="http://www.inkscape.org/namespaces/inkscape"
   version="1.1"
   id="Layer_1"
   x="0px"
   y="0px"
   width="255"
   height="170"
   viewBox="0 0 145.35 96.9"
   xml:space="preserve"
   sodipodi:docname="logo-stockholm.svg"
   inkscape:version="0.92.3 (2405546, 2018-03-11)"><metadata
   id="metadata77"><rdf:RDF><cc:Work
       rdf:about=""><dc:format>image/svg+xml</dc:format><dc:type
         rdf:resource="http://purl.org/dc/dcmitype/StillImage" /><dc:title></dc:title></cc:Work></rdf:RDF></metadata><defs
   id="defs75" /><sodipodi:namedview
   pagecolor="#ffffff"
   bordercolor="#666666"
   borderopacity="1"
   objecttolerance="10"
   gridtolerance="10"
   guidetolerance="10"
   inkscape:pageopacity="0"
   inkscape:pageshadow="2"
   inkscape:window-width="1219"
   inkscape:window-height="767"
   id="namedview73"
   showgrid="false"
   scale-x="0.57"
   inkscape:zoom="2.12"
   inkscape:cx="120.46222"
   inkscape:cy="61.546667"
   inkscape:window-x="0"
   inkscape:window-y="0"
   inkscape:window-maximized="0"
   inkscape:current-layer="Layer_1" />
<style
   type="text/css"
   id="style2">
	.st0{fill:#231F20;}
	.st1{fill:#FFFFFF;}
</style>
<g
   id="g70"
   transform="translate(2.2718574,24.45)">
	<g
   id="g34">
		<path
   class="st0"
   d="M 40.179,0 H 0.028 C 0.015,0.423 -0.245,11.205 1.131,17.995 3.385,29.107 9.592,39.1 20.103,48 30.616,39.1 36.822,29.107 39.078,17.995 40.456,11.205 40.189,0.423 40.179,0"
   id="path4"
   inkscape:connector-curvature="0"
   style="fill:#231f20" />
		<path
   class="st1"
   d="m 25.251,6.974 c 0.481,0 0.872,0.39 0.872,0.87 0,0.48 -0.391,0.872 -0.872,0.872 -0.48,0 -0.871,-0.393 -0.871,-0.872 0,-0.48 0.391,-0.87 0.871,-0.87"
   id="path6"
   inkscape:connector-curvature="0"
   style="fill:#ffffff" />
		<path
   class="st1"
   d="m 14.958,6.974 c 0.477,0 0.868,0.39 0.868,0.87 0,0.48 -0.391,0.872 -0.868,0.872 -0.481,0 -0.874,-0.393 -0.874,-0.872 0,-0.48 0.393,-0.87 0.874,-0.87"
   id="path8"
   inkscape:connector-curvature="0"
   style="fill:#ffffff" />
		<path
   class="st1"
   d="m 12.555,30.156 c 0.745,0 0.781,-0.386 0.815,-0.51 -0.143,0.144 -0.432,0.241 -0.88,0.241 -0.451,0 -0.888,-0.184 -1.121,-0.914 -0.118,-0.377 -0.026,-0.811 -0.026,-0.811 0,0 0.494,0.394 0.875,0.373 0.677,-0.035 1.187,-0.465 1.187,-1.242 0,-0.915 -0.652,-1.9 -1.932,-3.42 -1.142,-1.352 -1.705,-2.808 -1.705,-4.238 0,-3.37 3.357,-5.496 3.357,-5.496 0,0 0.351,8.426 0.422,9.336 0.073,0.909 0.284,2.463 0.827,3.67 v 2.936 c -0.148,0.463 -0.733,0.655 -1.141,0.655 -0.319,0 -0.718,-0.3 -0.678,-0.58"
   id="path10"
   inkscape:connector-curvature="0"
   style="fill:#ffffff" />
		<path
   class="st1"
   d="m 20.103,12.986 c -4.971,0 -7.518,0.591 -7.518,0.591 l -0.652,-1.311 c 0,0 3.449,-0.661 8.17,-0.661 4.719,0 8.172,0.661 8.172,0.661 l -0.653,1.311 c 0.001,0 -2.547,-0.591 -7.519,-0.591"
   id="path12"
   inkscape:connector-curvature="0"
   style="fill:#ffffff" />
		<path
   class="st1"
   d="m 24.564,37.022 h -8.919 l -1.472,-1.648 c 0,0 0.931,-0.848 0.931,-2.399 v -4.621 c -0.016,-0.004 1.717,2.504 4.999,2.504 2.883,0 5.029,-2.45 5.001,-2.441 v 4.558 c 0,1.551 0.93,2.399 0.93,2.399 z"
   id="path14"
   inkscape:connector-curvature="0"
   style="fill:#ffffff" />
		<path
   class="st1"
   d="m 27.989,28.535 c 0.38,0.021 0.875,-0.373 0.875,-0.373 0,0 0.092,0.434 -0.027,0.811 -0.228,0.73 -0.671,0.914 -1.116,0.914 -0.451,0 -0.74,-0.097 -0.883,-0.241 0.033,0.124 0.071,0.51 0.814,0.51 0.04,0.279 -0.356,0.58 -0.677,0.58 -0.408,0 -0.992,-0.193 -1.139,-0.656 v -2.936 c 0.541,-1.207 0.751,-2.76 0.822,-3.67 0.071,-0.91 0.426,-9.336 0.426,-9.336 0,0 3.354,2.126 3.354,5.496 0,1.429 -0.56,2.886 -1.703,4.238 -1.284,1.52 -1.932,2.505 -1.932,3.42 -0.001,0.778 0.506,1.208 1.186,1.243"
   id="path16"
   inkscape:connector-curvature="0"
   style="fill:#ffffff" />
		<path
   class="st1"
   d="m 28.571,11.678 c 0,0 -3.587,-0.722 -8.468,-0.722 -4.879,0 -8.463,0.722 -8.463,0.722 L 9.27,6.933 c 0,0 0.7,-0.484 1.199,-0.484 0.88,0 1.077,0.791 1.077,1.067 0,0.219 -0.026,0.387 -0.157,0.537 l -0.037,0.038 c -0.198,0.226 -0.247,0.283 -0.247,0.433 0,0.137 0.096,0.35 0.353,0.35 0.229,0 0.283,-0.073 0.386,-0.359 0.107,-0.291 0.393,-0.584 0.798,-0.584 0.397,0 0.84,0.346 0.84,0.84 0,0.527 -0.43,0.842 -0.84,0.842 -0.236,0 -0.347,-0.067 -0.423,-0.115 -0.053,-0.031 -0.08,-0.047 -0.124,-0.047 -0.051,0 -0.092,0.035 -0.113,0.062 -0.065,0.078 -0.09,0.206 -0.065,0.331 0.067,0.362 0.752,0.922 1.522,0.922 1.144,0 1.839,-1.03 1.839,-1.774 0.438,1.046 1.412,1.268 2.085,1.268 1.812,0 2.187,-1.609 2.187,-2.04 0,-0.29 -0.092,-0.526 -0.177,-0.567 C 19.361,7.65 19.329,7.635 19.27,7.688 l -0.073,0.064 c -0.22,0.2 -0.632,0.572 -1.209,0.572 -0.647,0 -1.318,-0.486 -1.318,-1.3 0,-0.863 0.662,-1.314 1.315,-1.314 0.543,0 0.85,0.298 1.057,0.495 0.08,0.079 0.163,0.162 0.207,0.162 0.091,0 0.177,-0.037 0.233,-0.1 0.044,-0.049 0.068,-0.113 0.068,-0.182 0,-0.011 0,-0.025 -0.003,-0.039 C 19.54,5.988 19.468,5.917 19.385,5.833 19.206,5.647 18.961,5.392 18.961,4.899 c 0,-0.565 0.459,-1.168 1.144,-1.171 0.688,0.003 1.146,0.606 1.146,1.171 0,0.493 -0.247,0.748 -0.427,0.934 -0.081,0.083 -0.15,0.154 -0.157,0.213 0,0.014 -0.003,0.028 -0.003,0.039 0,0.069 0.024,0.133 0.068,0.182 0.053,0.063 0.139,0.1 0.231,0.1 0.046,0 0.129,-0.082 0.207,-0.162 0.206,-0.197 0.514,-0.495 1.058,-0.495 0.653,0 1.314,0.451 1.314,1.314 0,0.814 -0.674,1.3 -1.321,1.3 -0.574,0 -0.988,-0.371 -1.208,-0.572 L 20.944,7.688 C 20.881,7.635 20.85,7.65 20.84,7.653 20.756,7.694 20.661,7.931 20.661,8.22 c 0,0.43 0.373,2.04 2.185,2.04 0.671,0 1.645,-0.222 2.085,-1.268 0,0.744 0.695,1.774 1.842,1.774 0.768,0 1.452,-0.56 1.519,-0.922 C 28.319,9.719 28.291,9.591 28.227,9.513 28.204,9.486 28.165,9.451 28.113,9.451 c -0.045,0 -0.072,0.015 -0.121,0.047 -0.079,0.048 -0.187,0.115 -0.424,0.115 -0.411,0 -0.839,-0.315 -0.839,-0.842 0,-0.494 0.444,-0.84 0.839,-0.84 0.404,0 0.691,0.293 0.798,0.584 0.107,0.286 0.159,0.359 0.387,0.359 0.257,0 0.351,-0.214 0.351,-0.35 0,-0.15 -0.047,-0.207 -0.248,-0.433 L 28.82,8.053 c -0.131,-0.15 -0.16,-0.317 -0.16,-0.537 0,-0.276 0.201,-1.067 1.08,-1.067 0.5,0 1.198,0.484 1.198,0.484 z"
   id="path18"
   inkscape:connector-curvature="0"
   style="fill:#ffffff" />
		<path
   class="st1"
   d="m 26.275,14.076 c -0.03,0.666 -0.251,6.108 -0.276,7.636 -0.008,0.628 -0.178,2.757 -0.339,3.555 -0.355,1.765 -1.925,4.751 -5.558,4.751 -3.63,0 -5.202,-2.986 -5.555,-4.751 -0.161,-0.8 -0.334,-2.929 -0.341,-3.555 -0.021,-1.528 -0.247,-6.97 -0.273,-7.636 0.397,-0.061 2.622,-0.371 6.169,-0.371 3.551,0 5.775,0.31 6.173,0.371"
   id="path20"
   inkscape:connector-curvature="0"
   style="fill:#ffffff" />
		<path
   class="st0"
   d="m 23.868,16.705 c -0.316,0 -0.653,0.051 -0.927,0.264 -0.146,0.11 -0.193,0.263 0.023,0.263 0.38,0 0.618,0.345 0.618,0.605 0,0.259 -0.164,0.389 -0.354,0.389 -0.192,0 -0.298,0.173 -0.099,0.213 0.21,0.041 0.421,0.065 0.735,0.065 1.088,0 1.671,-0.355 1.671,-0.657 0.001,-0.303 -0.597,-1.142 -1.667,-1.142"
   id="path22"
   inkscape:connector-curvature="0"
   style="fill:#231f20" />
		<path
   class="st0"
   d="m 16.728,15.544 c 0.5,0.129 1.24,0.401 1.788,0.95 0.563,0.566 0.778,1.127 0.857,1.519 0.067,0.328 0.186,0.342 0.284,0.022 0.144,-0.461 0.187,-1.176 -0.468,-1.915 -0.606,-0.679 -1.532,-0.828 -2.076,-0.828 -0.133,0 -0.264,0.011 -0.381,0.027 -0.317,0.04 -0.331,0.141 -0.004,0.225"
   id="path24"
   inkscape:connector-curvature="0"
   style="fill:#231f20" />
		<path
   class="st0"
   d="M 22.324,25.738 C 22.007,25.587 21.133,25.161 20.923,25.066 20.807,25.011 20.76,25.003 20.637,25.003 h -1.08 c -0.124,0 -0.171,0.008 -0.287,0.063 -0.211,0.096 -1.088,0.521 -1.398,0.672 -0.176,0.083 -0.15,0.253 0.017,0.253 h 4.414 c 0.169,0 0.193,-0.17 0.021,-0.253"
   id="path26"
   inkscape:connector-curvature="0"
   style="fill:#231f20" />
		<path
   class="st0"
   d="m 18.395,17.847 c 0,-0.303 -0.594,-1.143 -1.666,-1.143 -0.316,0 -0.653,0.051 -0.927,0.264 -0.144,0.109 -0.191,0.263 0.024,0.263 0.377,0 0.619,0.345 0.619,0.605 0,0.259 -0.166,0.389 -0.357,0.389 -0.189,0 -0.297,0.174 -0.097,0.214 0.213,0.041 0.42,0.065 0.737,0.065 1.086,10e-4 1.667,-0.355 1.667,-0.657"
   id="path28"
   inkscape:connector-curvature="0"
   style="fill:#231f20" />
		<path
   class="st0"
   d="m 21.524,26.622 h -2.842 c -0.15,0 -0.172,0.141 -0.07,0.21 0.09,0.064 0.672,0.453 0.804,0.534 0.103,0.064 0.153,0.073 0.278,0.073 h 0.815 c 0.127,0 0.178,-0.009 0.281,-0.073 0.129,-0.082 0.711,-0.47 0.802,-0.534 0.1,-0.068 0.081,-0.21 -0.068,-0.21"
   id="path30"
   inkscape:connector-curvature="0"
   style="fill:#231f20" />
		<path
   class="st0"
   d="m 24.524,15.294 c -0.42,0 -0.688,-0.002 -1.387,-0.002 -1.435,0 -2.43,1.191 -2.43,2.636 v 4.226 c 0,0.24 -0.093,0.387 -0.345,0.387 h -0.256 c -0.139,0 -0.284,0.034 -0.417,0.147 -0.216,0.181 -0.741,0.635 -0.813,0.725 -0.076,0.085 -0.054,0.191 0.163,0.191 h 2.84 c 0.163,0 0.232,-0.071 0.1,-0.191 -0.179,-0.166 -0.753,-0.717 -0.753,-0.717 v -4.261 c 0,-1.111 0.216,-2.478 2.308,-2.478 0.557,0 1.05,10e-4 1.14,10e-4 0.764,0 1.169,-0.667 1.169,-0.667 0,0 -0.902,0.003 -1.319,0.003"
   id="path32"
   inkscape:connector-curvature="0"
   style="fill:#231f20" />
	</g>
	<g
   id="g68">
		<path
   class="st0"
   d="m 47.4,16.118 c 0.618,0.743 1.665,1.367 2.761,1.419 1.244,0.06 2.046,-0.637 2.046,-1.38 0,-0.899 -0.673,-1.424 -1.937,-1.95 L 49.258,13.8 c -1.932,-0.797 -2.889,-1.95 -2.889,-3.511 0,-1.933 1.86,-3.188 3.81,-3.188 1.481,0 2.609,0.491 3.549,1.542 l -1.405,1.252 c -0.638,-0.689 -1.252,-0.962 -2.14,-0.962 -0.866,0 -1.769,0.485 -1.769,1.316 0,0.781 0.627,1.364 1.91,1.872 l 0.993,0.424 c 1.751,0.712 2.943,1.764 2.943,3.443 0,1.682 -1.348,3.425 -4.081,3.425 -1.886,0 -3.264,-0.855 -4.345,-1.953 z"
   id="path36"
   inkscape:connector-curvature="0"
   style="fill:#231f20" />
		<path
   class="st0"
   d="m 60.536,19.262 h -1.551 c -1.815,0 -2.893,-1.078 -2.893,-2.874 V 11.662 H 54.551 V 9.81 h 1.541 V 7.583 h 2.08 V 9.81 h 2.364 v 1.852 h -2.364 v 4.292 c 0,0.964 0.265,1.399 1.342,1.399 h 1.022 z"
   id="path38"
   inkscape:connector-curvature="0"
   style="fill:#231f20" />
		<path
   class="st0"
   d="m 61.525,14.536 c 0,-2.76 2.079,-4.878 4.896,-4.878 2.798,0 4.896,2.118 4.896,4.878 0,2.76 -2.098,4.877 -4.896,4.877 -2.816,0.001 -4.896,-2.116 -4.896,-4.877 m 7.657,0 c 0,-1.645 -1.153,-2.893 -2.76,-2.893 -1.626,0 -2.76,1.248 -2.76,2.893 0,1.645 1.134,2.892 2.76,2.892 1.607,10e-4 2.76,-1.247 2.76,-2.892"
   id="path40"
   inkscape:connector-curvature="0"
   style="fill:#231f20" />
		<g
   id="g44">
			<path
   class="st0"
   d="m 72.656,14.536 c 0,-2.76 2.079,-4.878 4.877,-4.878 1.512,0 2.741,0.624 3.611,1.569 l -1.418,1.456 c -0.492,-0.567 -1.21,-1.002 -2.193,-1.002 -1.607,0 -2.741,1.21 -2.741,2.855 0,1.645 1.134,2.855 2.741,2.855 0.983,0 1.701,-0.435 2.193,-1.002 l 1.418,1.456 c -0.869,0.945 -2.098,1.569 -3.611,1.569 -2.798,0 -4.877,-2.117 -4.877,-4.878"
   id="path42"
   inkscape:connector-curvature="0"
   style="fill:#231f20" />
		</g>
		<polygon
   class="st0"
   points="88.516,9.81 90.974,9.81 87.042,14.291 91.446,19.262 88.894,19.262 84.735,14.536 84.735,19.262 82.656,19.262 82.656,6.065 84.735,6.065 84.735,14.082 "
   id="polygon46"
   style="fill:#231f20" />
		<path
   class="st0"
   d="m 94.515,13.307 v 5.956 h -2.08 V 6.065 h 2.08 v 4.633 c 0.662,-0.718 1.664,-1.04 2.647,-1.04 2.344,0 3.838,1.626 3.838,4.065 v 5.539 H 98.92 V 13.76 c 0,-1.021 -0.756,-2.118 -2.155,-2.118 -1.078,0.001 -1.891,0.569 -2.25,1.665"
   id="path48"
   inkscape:connector-curvature="0"
   style="fill:#231f20" />
		<g
   id="g52">
			<path
   class="st0"
   d="m 102.685,14.536 c 0,-2.76 2.079,-4.878 4.897,-4.878 2.798,0 4.896,2.118 4.896,4.878 0,2.76 -2.098,4.877 -4.896,4.877 -2.817,0.001 -4.897,-2.116 -4.897,-4.877 m 7.657,0 c 0,-1.645 -1.153,-2.893 -2.76,-2.893 -1.627,0 -2.76,1.248 -2.76,2.893 0,1.645 1.134,2.892 2.76,2.892 1.607,10e-4 2.76,-1.247 2.76,-2.892"
   id="path50"
   inkscape:connector-curvature="0"
   style="fill:#231f20" />
		</g>
		<rect
   x="114.164"
   y="6.0650001"
   class="st0"
   width="2.079"
   height="13.197"
   id="rect54"
   style="fill:#231f20" />
		<path
   class="st0"
   d="m 120.358,13.251 v 6.011 h -2.08 V 9.81 h 2.08 v 0.888 c 0.643,-0.737 1.569,-1.039 2.439,-1.039 1.323,0 2.325,0.529 2.949,1.455 0.889,-1.172 2.212,-1.455 3.119,-1.455 2.325,0 3.649,1.626 3.649,4.064 v 5.539 h -2.08 v -5.501 c 0,-1.021 -0.586,-2.117 -1.947,-2.117 -0.945,0 -1.701,0.567 -2.061,1.645 0.019,0.151 0.019,0.283 0.019,0.435 v 5.539 h -2.079 v -5.501 c 0,-1.021 -0.605,-2.117 -1.966,-2.117 -0.927,-10e-4 -1.702,0.566 -2.042,1.606"
   id="path56"
   inkscape:connector-curvature="0"
   style="fill:#231f20" />
		<path
   class="st0"
   d="m 133.677,17.775 0.167,0.152 c 1.126,1.024 2.21,1.52 3.538,1.52 2.248,0 3.424,-1.412 3.424,-2.808 0,-1.241 -0.8,-2.159 -2.446,-2.805 l -0.789,-0.325 c -1.231,-0.472 -1.374,-0.932 -1.374,-1.238 0,-0.502 0.603,-0.84 1.186,-0.84 0.643,0 1.073,0.226 1.534,0.707 l 0.138,0.144 1.391,-1.199 -0.139,-0.15 c -0.764,-0.827 -1.683,-1.258 -2.926,-1.258 -1.579,0 -3.211,0.983 -3.211,2.628 0,1.26 0.81,2.222 2.408,2.858 l 0.794,0.309 c 1.02,0.41 1.399,0.762 1.399,1.3 0,0.419 -0.482,0.852 -1.287,0.852 -0.035,0 -0.071,-0.001 -0.107,-0.003 -0.732,-0.034 -1.582,-0.39 -2.08,-0.968 l -0.136,-0.157 z"
   id="path58"
   inkscape:connector-curvature="0"
   style="fill:#231f20" />
		<path
   class="st0"
   d="m 46.51,33.282 0.167,0.152 c 1.125,1.024 2.21,1.52 3.538,1.52 2.248,0 3.424,-1.412 3.424,-2.807 0,-1.241 -0.8,-2.159 -2.445,-2.805 l -0.789,-0.325 c -1.231,-0.472 -1.374,-0.932 -1.374,-1.238 0,-0.502 0.603,-0.839 1.186,-0.839 0.643,0 1.073,0.226 1.534,0.706 l 0.138,0.144 1.391,-1.198 -0.14,-0.15 c -0.764,-0.827 -1.683,-1.258 -2.926,-1.258 -1.578,0 -3.211,0.983 -3.211,2.628 0,1.26 0.81,2.222 2.408,2.858 l 0.794,0.308 c 1.02,0.41 1.399,0.762 1.399,1.3 0,0.419 -0.482,0.852 -1.287,0.852 -0.036,0 -0.071,-0.001 -0.107,-0.003 -0.732,-0.034 -1.582,-0.39 -2.08,-0.969 L 47.995,32 Z"
   id="path60"
   inkscape:connector-curvature="0"
   style="fill:#231f20" />
		<path
   class="st0"
   d="m 60.536,34.803 h -1.551 c -1.815,0 -2.893,-1.078 -2.893,-2.874 V 27.203 H 54.551 V 25.35 h 1.541 v -2.227 h 2.08 v 2.227 h 2.364 v 1.853 h -2.364 v 4.291 c 0,0.964 0.265,1.399 1.342,1.399 h 1.022 z"
   id="path62"
   inkscape:connector-curvature="0"
   style="fill:#231f20" />
		<path
   class="st0"
   d="m 68.917,34.104 c -0.661,0.529 -1.531,0.85 -2.533,0.85 -2.798,0 -4.858,-2.117 -4.858,-4.877 0,-2.76 2.06,-4.877 4.858,-4.877 1.002,0 1.872,0.322 2.533,0.851 v -0.7 h 2.08 v 9.452 h -2.08 z m 0,-2.421 V 28.47 c -0.492,-0.775 -1.456,-1.286 -2.514,-1.286 -1.607,0 -2.741,1.247 -2.741,2.893 0,1.644 1.134,2.892 2.741,2.892 1.058,0 2.022,-0.51 2.514,-1.286"
   id="path64"
   inkscape:connector-curvature="0"
   style="fill:#231f20" />
		<path
   class="st0"
   d="m 80.047,34.104 c -0.662,0.529 -1.531,0.85 -2.533,0.85 -2.798,0 -4.859,-2.117 -4.859,-4.877 0,-2.76 2.061,-4.877 4.859,-4.877 1.002,0 1.871,0.322 2.533,0.851 v -4.445 h 2.079 v 13.197 h -2.079 z m 0,-2.421 V 28.47 c -0.492,-0.775 -1.456,-1.286 -2.514,-1.286 -1.607,0 -2.741,1.247 -2.741,2.893 0,1.644 1.134,2.892 2.741,2.892 1.059,0 2.023,-0.51 2.514,-1.286"
   id="path66"
   inkscape:connector-curvature="0"
   style="fill:#231f20" />
	</g>
</g>
</svg>