<?xml version="1.0" encoding="UTF-8" standalone="no"?>
<!-- Generator: Adobe Illustrator 21.1.0, SVG Export Plug-In . SVG Version: 6.00 Build 0)  -->

<svg
   xmlns:dc="http://purl.org/dc/elements/1.1/"
   xmlns:cc="http://creativecommons.org/ns#"
   xmlns:rdf="http://www.w3.org/1999/02/22-rdf-syntax-ns#"
   xmlns:svg="http://www.w3.org/2000/svg"
   xmlns="http://www.w3.org/2000/svg"
   xmlns:sodipodi="http://sodipodi.sourceforge.net/DTD/sodipodi-0.dtd"
   xmlns:inkscape="http://www.inkscape.org/namespaces/inkscape"
   version="1.1"
   id="Layer_1"
   x="0px"
   y="0px"
   viewBox="0 0 1045.5 697"
   xml:space="preserve"
   sodipodi:docname="logo-chicago.svg"
   width="255"
   height="170"
   inkscape:version="0.92.3 (2405546, 2018-03-11)"><metadata
   id="metadata1015"><rdf:RDF><cc:Work
       rdf:about=""><dc:format>image/svg+xml</dc:format><dc:type
         rdf:resource="http://purl.org/dc/dcmitype/StillImage" /><dc:title></dc:title></cc:Work></rdf:RDF></metadata><defs
   id="defs1013">
	
	
	
	
	
	
	
	
	
	
	
	
	
	
	
	
	
	
	
	
	
	
	
	
	
	
	
	
	
	
	
	
	
	
	
	
	
	
	
	
	
	
	
	
	
	
	
	
	
	
	
	
	
	
	
	
	
	
</defs><sodipodi:namedview
   pagecolor="#ffffff"
   bordercolor="#666666"
   borderopacity="1"
   objecttolerance="10"
   gridtolerance="10"
   guidetolerance="10"
   inkscape:pageopacity="0"
   inkscape:pageshadow="2"
   inkscape:window-width="1306"
   inkscape:window-height="958"
   id="namedview1011"
   showgrid="false"
   scale-x="4.1"
   inkscape:zoom="1.26"
   inkscape:cx="103.06952"
   inkscape:cy="87.908655"
   inkscape:window-x="0"
   inkscape:window-y="0"
   inkscape:window-maximized="0"
   inkscape:current-layer="Layer_1" />
<style
   type="text/css"
   id="style2">
	.st0{fill:#E6E6E6;}
	.st1{fill:#FFFFFF;}
	.st2{fill:#00865F;}
	.st3{fill:#F2F2F2;}
	.st4{fill:#4D4D4D;}
	.st5{fill:#378D00;}
	.st6{fill:#FF3B3B;}
	.st7{fill:#DB6D00;}
	.st8{fill:#002B38;}
	.st9{fill:#043054;}
</style>

<path
   style="fill:#043054"
   inkscape:connector-curvature="0"
   id="path842"
   d="m 130.64593,404.03378 c -63.099997,0.3 -113.199997,-52.2 -111.899997,-114.1 1.3,-60.8 52,-110.4 114.199997,-109.5 60,0.9 109.4,51 109.3,112.7 0,61.2 -50.1,110.9 -111.6,110.9 z m -43.699997,-144.4 c 0,2.4 0,4.2 0,6 0,13.2 0,26.3 0,39.5 0,4.6 -1,9.1 -6.2,10.2 -9.3,2 -16,0 -15.9,-11.4 0.1,-13 0,-26 0,-39 0,-1.8 0,-3.5 0,-5.2 -7.6,0 -14.5,0 -21.2,0 0,17.5 -0.3,34.6 0.1,51.7 0.2,9.9 5.9,16.3 15.3,19.4 11.5,3.7 22.9,3.6 34.4,-0.2 7.899997,-2.7 13.799997,-8 14.199997,-16.4 0.7,-18.1 0.2,-36.2 0.2,-54.5 -6.4,-0.1 -13.299997,-0.1 -20.899997,-0.1 z m 135.399997,17.8 c -0.8,-1.6 -1.2,-2.8 -1.9,-4 -11.6,-19.5 -43.9,-20.8 -58.1,-2.4 -9.4,12.3 -10.3,33.1 -1.9,46.8 7.4,12.2 22.5,17.9 39.1,14.6 10.7,-2.2 18.6,-8.2 23.2,-18.7 -6.6,-2.3 -12.8,-4.6 -18.9,-6.7 -5.5,8 -9.9,10.3 -16.7,8.3 -7.2,-2.1 -9.5,-8.2 -9.8,-14.7 -0.3,-5.5 0.2,-11.4 1.7,-16.7 2.1,-7.2 9.1,-10.7 15.9,-7.9 3.9,1.7 6.7,5.8 10.7,9.4 4.6,-2.2 10.5,-5 16.7,-8 z m -78.8,54.4 c 0,-24.2 0,-48.1 0,-72.2 -7.1,0 -13.9,0 -20.8,0 0,24.2 0,48.2 0,72.2 7.3,0 14,0 20.8,0 z"
   class="st9" /><path
   style="fill:#be002f;stroke-width:0.24390244;fill-opacity:1"
   d="M 175.97461 46.707031 C 172.749 46.868617 169.58489 48.448171 168.01172 51.375 C 166.40196 54.35061 166.32903 57.519722 167.25586 60.714844 C 168.23147 64.080697 170.52291 66.228135 173.98633 66.837891 C 175.5473 67.106183 177.25543 67.105231 178.81641 66.861328 C 181.76763 66.397913 183.88991 64.667112 185.1582 61.789062 C 183.35333 61.154916 181.64577 60.519912 179.91406 59.910156 C 179.71894 60.227229 179.57308 60.520771 179.40234 60.789062 C 177.98771 62.959795 174.71761 62.93426 173.54688 60.617188 C 172.25419 58.080602 172.25529 55.397961 173.66992 52.910156 C 174.88943 50.763815 178.08522 50.862424 179.35352 52.984375 C 179.59742 53.399009 179.76686 53.838415 180.03516 54.375 C 181.71808 53.570122 183.35228 52.788253 185.08398 51.958984 C 184.81569 51.446789 184.59737 50.959556 184.30469 50.544922 C 182.48761 47.801019 179.20022 46.545446 175.97461 46.707031 z M 88.548828 46.757812 C 85.054163 46.926544 82.211509 48.40806 80.546875 51.886719 C 78.985899 55.179402 79.085271 58.617521 80.402344 61.958984 C 81.573075 64.958984 83.841082 66.667349 87.109375 67.033203 C 89.231326 67.277106 91.181545 66.812309 93.083984 65.617188 C 93.157155 66.031822 93.207079 66.349895 93.255859 66.642578 L 98.158203 66.642578 L 98.158203 55.349609 L 88.816406 55.349609 L 88.816406 59.837891 L 92.888672 59.837891 C 92.766721 61.398866 91.986947 62.276677 90.621094 62.59375 C 88.669874 63.032774 86.937738 62.471132 86.181641 60.910156 C 84.937738 58.32479 84.864615 55.617616 86.230469 53.056641 C 87.498761 50.642006 90.987662 50.716178 92.353516 53.082031 C 92.573028 53.472275 92.718988 53.861804 92.962891 54.349609 C 94.572647 53.544731 96.133479 52.788253 97.816406 51.958984 C 96.20665 48.56874 93.596179 46.934404 90.083984 46.763672 C 89.559594 46.736233 89.048066 46.733709 88.548828 46.757812 z M 187.81641 47.082031 L 187.81641 51.203125 L 193.2793 51.203125 L 193.2793 47.082031 L 187.81641 47.082031 z M 210.30469 47.082031 C 210.30469 48.277153 210.27934 49.471894 210.32812 50.691406 C 210.35252 50.886528 210.69455 51.251953 210.91406 51.251953 C 212.37748 51.300734 213.84127 51.300734 215.30469 51.251953 C 215.5242 51.227563 215.91311 50.8367 215.9375 50.617188 C 215.98628 49.470846 215.96289 48.301543 215.96289 47.082031 L 210.30469 47.082031 z M 155.37695 47.447266 C 153.40134 47.764339 151.62024 48.033489 149.74219 48.326172 L 149.74219 52.984375 C 148.86414 53.008765 148.06069 53.056688 147.20703 53.105469 C 147.20703 54.349371 147.20603 55.496332 147.18164 56.740234 C 148.05969 56.789015 148.86414 56.837938 149.74219 56.886719 L 149.74219 58.447266 C 149.74219 60.227753 149.71784 62.032012 149.79102 63.8125 C 149.8398 65.129573 150.3529 66.226944 151.71875 66.617188 C 153.91387 67.251334 156.13305 67.00767 158.37695 66.861328 L 158.37695 63.154297 C 158.05988 63.129907 157.76634 63.105469 157.49805 63.105469 C 155.79073 63.056688 155.40134 62.69174 155.37695 61.033203 C 155.35256 59.984423 155.4023 58.910109 155.35352 57.861328 C 155.32913 57.08084 155.59747 56.740283 156.40234 56.789062 C 157.03649 56.837843 157.67054 56.789062 158.30469 56.789062 L 158.30469 53.033203 C 157.71932 53.033203 157.22999 52.984423 156.74219 53.033203 C 155.69341 53.155154 155.28034 52.788967 155.35352 51.691406 C 155.45108 50.325553 155.37695 48.959461 155.37695 47.447266 z M 204.1582 47.470703 C 202.18259 47.787776 200.42592 48.056926 198.57227 48.349609 L 198.57227 52.984375 C 197.64544 53.033155 196.86438 53.056688 195.98633 53.105469 L 195.98633 56.740234 C 196.86438 56.764625 197.64448 56.812548 198.5957 56.861328 C 198.5957 57.373523 198.59575 57.813929 198.64453 58.277344 C 198.64453 60.033441 198.62014 61.763434 198.64453 63.519531 C 198.66892 64.739043 198.93874 65.959461 200.20703 66.447266 C 202.49971 67.349705 204.86457 67.056402 207.18164 66.8125 L 207.18164 63.130859 L 206.23047 63.130859 C 204.6451 63.082079 204.30459 62.788491 204.20703 61.203125 C 204.13386 60.032393 204.10947 58.836747 204.20703 57.666016 C 204.23142 57.373333 204.69369 56.934499 205.03516 56.861328 C 205.69369 56.714987 206.37767 56.8125 207.10938 56.8125 L 207.10938 53.056641 C 206.57279 53.056641 206.13238 52.98347 205.69336 53.056641 C 204.44946 53.251763 204.03525 52.763434 204.13281 51.519531 C 204.23037 50.202458 204.1582 48.885337 204.1582 47.470703 z M 243.31445 52.572266 C 241.94136 52.604421 240.5505 52.915873 239.13281 53.519531 C 237.52306 54.202458 236.66902 55.544778 236.74219 57.398438 C 236.79097 59.203316 237.81598 60.301305 239.37695 60.837891 C 240.74281 61.301305 242.20546 61.495522 243.5957 61.910156 C 244.25423 62.105278 245.35253 61.813548 245.32812 62.886719 C 245.32812 63.106231 243.91439 63.57017 243.25586 63.423828 C 241.74366 63.082365 240.32751 62.423256 238.69336 61.837891 C 237.93726 62.545208 236.96194 63.423733 235.98633 64.326172 C 238.86438 67.204221 245.05988 68.008813 248.37695 66.033203 C 250.23061 64.935642 250.59647 63.253001 250.37695 61.326172 C 250.20622 59.765196 249.03582 59.105993 247.71875 58.642578 C 247.23095 58.471846 246.71923 58.350467 246.20703 58.228516 C 245.06069 57.984613 243.91391 57.763386 242.76758 57.470703 C 242.49929 57.373142 242.27906 57.032965 242.03516 56.789062 C 242.30345 56.593941 242.54716 56.300686 242.83984 56.203125 C 243.13253 56.081174 243.49833 56.106517 243.79102 56.179688 C 245.01052 56.521151 246.22985 56.934975 247.5957 57.349609 C 248.27863 56.593512 249.10837 55.715796 250.08398 54.691406 C 247.84313 53.243236 245.60294 52.518674 243.31445 52.572266 z M 121.62109 52.605469 C 121.18369 52.593369 120.72842 52.605993 120.25586 52.642578 C 116.52415 52.935261 113.91378 55.3256 113.62109 58.740234 C 113.25524 63.008527 115.15701 65.911061 118.9375 66.837891 C 121.08384 67.350086 123.20708 67.204268 125.25586 66.375 C 126.57293 65.838415 127.74295 65.056307 128.52344 63.714844 C 126.96246 62.909966 125.49957 62.178973 124.06055 61.447266 C 122.1825 63.252144 120.10971 63.106374 119.45117 61.033203 C 120.01215 61.033203 120.47404 61.03225 120.88867 61.056641 C 123.10818 61.056641 125.35275 61.033251 127.57227 61.082031 C 128.32836 61.082031 128.76744 60.885909 128.62109 60.056641 C 128.40158 58.837128 128.32865 57.544779 127.86523 56.398438 C 126.86219 53.965511 124.68293 52.690168 121.62109 52.605469 z M 137.96875 52.609375 C 136.37729 52.661204 134.80369 53.081888 133.2793 53.935547 C 131.93783 54.691644 131.32827 55.984042 131.47461 57.642578 L 136.20703 57.642578 C 136.37776 56.423066 137.15739 55.960223 138.32812 56.228516 C 138.76715 56.326077 139.13319 56.837224 139.52344 57.154297 C 139.15758 57.44698 138.86581 57.885862 138.45117 58.007812 C 136.76825 58.471227 135.0121 58.666587 133.40234 59.251953 C 131.4999 59.93488 130.76686 61.519579 131.03516 63.568359 C 131.25467 65.324457 132.52329 66.617521 134.37695 66.958984 C 136.255 67.300448 138.08456 67.154155 139.66992 66.007812 C 141.01139 67.105373 143.27863 67.398771 145.5957 66.740234 C 145.54692 65.886576 145.84037 64.69093 145.37695 64.203125 C 144.71842 63.520198 144.81541 62.911442 144.79102 62.228516 C 144.71784 60.204125 144.71865 58.178687 144.62109 56.154297 C 144.54792 54.934785 143.88953 53.935118 142.76758 53.496094 C 141.17002 52.874143 139.56021 52.557546 137.96875 52.609375 z M 226.63281 52.640625 C 226.30926 52.63872 225.987 52.647723 225.66992 52.666016 C 222.4748 52.836747 220.05984 54.738996 219.32812 57.470703 C 218.42569 60.738996 219.49943 64.129526 221.91406 65.763672 C 224.88967 67.788062 229.98709 67.520151 232.76758 65.154297 C 233.2066 64.764053 233.57274 64.300257 234.06055 63.763672 C 232.40201 62.934404 230.93807 62.20241 229.52344 61.470703 C 227.64539 63.251191 225.62033 63.106374 224.83984 61.033203 L 233.9375 61.033203 C 234.66921 57.423447 232.74295 53.885862 229.52344 53.007812 C 228.59051 52.751715 227.60347 52.646341 226.63281 52.640625 z M 110.94922 52.677734 C 109.53235 52.725753 108.37387 53.316168 107.32812 54.447266 C 107.25495 53.88629 107.23042 53.520151 107.18164 53.154297 L 101.62109 53.154297 L 101.62109 59.958984 L 101.62109 66.666016 L 107.2793 66.666016 C 107.2793 64.983089 107.30369 63.446742 107.2793 61.910156 C 107.20613 58.885766 108.0121 57.227944 111.40234 57.642578 C 111.42673 57.642578 111.4747 57.618093 111.57227 57.544922 L 111.57227 52.691406 C 111.35885 52.676162 111.15163 52.670875 110.94922 52.677734 z M 210.37695 53.105469 L 210.37695 66.666016 L 215.88867 66.666016 L 215.88867 53.105469 L 210.37695 53.105469 z M 187.83984 53.130859 L 187.83984 66.691406 L 193.25586 66.691406 L 193.25586 53.130859 L 187.83984 53.130859 z M 226.94336 56.044922 C 227.76134 56.098609 228.23776 56.715034 228.45117 57.910156 L 224.86523 57.910156 C 224.88962 56.715034 225.54788 56.178592 226.57227 56.056641 C 226.70336 56.041397 226.82651 56.037252 226.94336 56.044922 z M 121.50586 56.052734 C 122.32784 56.118093 122.8156 56.715034 122.98633 57.910156 L 119.54688 57.910156 C 119.54688 56.763815 120.08403 56.154202 121.13281 56.056641 C 121.26391 56.044446 121.38843 56.043397 121.50586 56.052734 z M 139.25586 60.886719 C 139.6461 62.911109 138.9615 64.032965 137.54688 63.789062 C 137.08346 63.691502 136.45012 63.228135 136.37695 62.837891 C 136.30378 62.472037 136.74257 61.812262 137.13281 61.568359 C 137.71818 61.202506 138.47537 61.130621 139.25586 60.886719 z M 81.595703 76.130859 L 81.595703 95.691406 L 87.376953 95.691406 L 87.376953 76.130859 L 81.595703 76.130859 z M 138.76758 76.130859 L 138.76758 80.228516 L 144.25586 80.228516 L 144.25586 76.130859 L 138.76758 76.130859 z M 132.40234 76.423828 C 130.45112 76.740901 128.69446 77.008098 126.81641 77.300781 L 126.81641 81.935547 C 126.10909 81.935547 125.49943 81.861423 124.91406 81.958984 C 124.64577 81.983375 124.25486 82.32541 124.23047 82.544922 C 124.1573 83.593702 124.20703 84.641673 124.20703 85.714844 C 125.18264 85.788014 125.96179 85.837938 126.83984 85.886719 C 126.83984 88.155011 126.81545 90.300924 126.83984 92.447266 C 126.86423 94.447266 127.621 95.496332 129.52344 95.740234 C 131.20636 95.959747 132.91378 95.911109 134.62109 95.886719 C 134.91378 95.886719 135.42678 95.521246 135.45117 95.277344 C 135.54873 94.252954 135.49805 93.20303 135.49805 92.105469 L 134.5957 92.105469 C 132.864 92.056688 132.499 91.71613 132.47461 90.033203 L 132.47461 88.203125 C 132.47461 85.886052 132.47485 85.886623 134.71875 85.789062 C 134.91387 85.789062 135.1078 85.740187 135.49805 85.691406 C 135.49805 84.910918 135.499 84.251239 135.47461 83.519531 C 135.47461 81.909775 135.47504 81.910156 133.91406 81.910156 L 132.40234 81.910156 L 132.40234 76.423828 z M 155.20703 76.470703 C 153.25581 76.763386 151.4737 77.056926 149.54688 77.349609 L 149.54688 81.886719 C 148.64444 81.935499 147.88986 81.959032 147.10938 82.007812 L 147.10938 85.740234 C 147.91425 85.789015 148.64544 85.837938 149.57227 85.886719 C 149.57227 86.472085 149.54692 86.959461 149.5957 87.447266 C 149.64448 89.349705 149.66902 91.251858 149.74219 93.154297 C 149.79097 94.251858 150.30378 95.13024 151.37695 95.496094 C 153.62086 96.276582 155.88896 96.007622 158.18164 95.8125 L 158.18164 92.154297 C 157.57188 92.129907 156.9859 92.228325 156.54688 92.033203 C 156.08346 91.813691 155.40134 91.32479 155.37695 90.910156 C 155.255 89.27601 155.32813 87.618426 155.32812 85.886719 C 156.32813 85.837938 157.25576 85.812452 158.1582 85.763672 L 158.1582 81.910156 L 155.20703 81.910156 L 155.20703 76.470703 z M 186.57227 76.470703 C 184.62105 76.787776 182.86438 77.056926 180.98633 77.349609 L 180.98633 81.958984 C 180.27901 81.958984 179.71918 81.910204 179.1582 81.958984 C 178.88991 81.983375 178.40234 82.17983 178.40234 82.326172 C 178.35356 83.448123 178.37695 84.593893 178.37695 85.740234 C 179.40134 85.789015 180.15706 85.812548 180.98633 85.861328 C 180.98633 88.105231 180.93755 90.228611 180.98633 92.326172 C 181.01072 93.740806 181.32865 95.057117 182.86523 95.544922 C 185.08475 96.252239 187.32741 96.008576 189.5957 95.789062 L 189.5957 92.130859 C 189.27863 92.130859 189.06031 92.105469 188.81641 92.105469 C 186.96275 92.081079 186.59666 91.739425 186.57227 89.910156 C 186.57227 88.861376 186.59666 87.789015 186.57227 86.740234 C 186.54788 86.081698 186.81512 85.78811 187.49805 85.8125 C 188.18097 85.83689 188.84061 85.8125 189.62109 85.8125 C 189.62109 84.78811 189.57136 83.984566 189.64453 83.179688 C 189.74209 82.252858 189.45117 81.813596 188.45117 81.935547 C 187.8902 82.008718 187.32836 81.958984 186.57227 81.958984 L 186.57227 76.470703 z M 115.92969 81.597656 C 114.6562 81.568502 113.36138 81.768102 112.03516 82.179688 C 109.91321 82.838223 108.76763 84.399295 108.81641 86.277344 C 108.86519 88.057832 109.9386 89.398104 112.06055 90.056641 C 113.37762 90.446885 114.76691 90.618521 116.08398 90.984375 C 116.59618 91.155107 117.05907 91.569646 117.54688 91.886719 C 116.98589 92.106231 116.42521 92.3488 115.83984 92.519531 C 115.66911 92.568312 115.45098 92.520436 115.25586 92.447266 C 113.84123 91.935071 112.42521 91.423256 110.83984 90.837891 C 110.08375 91.520817 109.13276 92.39839 108.08398 93.349609 C 108.52301 93.739853 108.81679 94.081269 109.20703 94.300781 C 112.57288 96.349562 116.13348 96.692073 119.81641 95.375 C 121.8408 94.667683 122.76648 93.00867 122.64453 90.886719 C 122.54697 89.252572 121.57312 88.154678 119.45117 87.544922 C 118.03654 87.130288 116.59627 86.935166 115.18164 86.544922 C 114.7914 86.422971 114.49967 86.008527 114.1582 85.740234 C 114.54845 85.520722 115.01205 85.081126 115.35352 85.154297 C 116.52425 85.398199 117.67006 85.812833 118.81641 86.154297 C 119.10909 86.227468 119.59585 86.423685 119.74219 86.277344 C 120.54707 85.496856 121.28015 84.666063 122.1582 83.714844 C 120.11552 82.327649 118.05216 81.646246 115.92969 81.597656 z M 199.57617 81.611328 C 199.28158 81.613234 198.98604 81.624285 198.69336 81.642578 C 195.0836 81.886481 192.47432 84.349848 192.18164 87.59375 C 191.7914 91.983994 193.64534 94.910061 197.47461 95.8125 C 199.52339 96.300305 201.59666 96.203363 203.57227 95.447266 C 204.9869 94.91068 206.23128 94.129478 207.06055 92.714844 C 205.49957 91.934356 204.06012 91.20241 202.62109 90.470703 C 200.71865 92.251191 198.62047 92.129811 197.98633 90.056641 C 198.5473 90.056641 198.98676 90.056594 199.42578 90.007812 C 201.71846 90.007813 203.98757 90.033155 206.25586 89.984375 C 206.57293 89.984375 207.10942 89.643293 207.1582 89.375 C 207.76796 86.131098 205.42654 82.568645 202.20703 81.861328 C 201.34728 81.678401 200.45994 81.605612 199.57617 81.611328 z M 100.92578 81.636719 C 99.503526 81.574981 98.164015 82.013958 96.865234 83.056641 C 96.792064 82.642006 96.718702 82.324886 96.669922 82.007812 L 91.255859 82.007812 L 91.255859 95.666016 L 96.767578 95.666016 C 96.767578 93.446503 96.743188 91.300638 96.767578 89.154297 C 96.767578 88.593321 96.766721 88.031679 96.888672 87.470703 C 97.059404 86.665825 97.572123 86.179688 98.425781 86.179688 C 99.32822 86.204077 99.792016 86.739091 99.816406 87.568359 C 99.889577 89.519579 99.91311 91.472609 99.9375 93.423828 L 99.9375 95.691406 L 105.32812 95.691406 C 105.32812 92.10604 105.42564 88.568836 105.2793 85.056641 C 105.20613 83.373714 104.05988 82.275962 102.37695 81.861328 C 101.88305 81.733279 101.39987 81.657298 100.92578 81.636719 z M 172.58398 81.953125 C 171.74252 81.953125 170.88977 81.958984 170.01172 81.958984 L 170.01172 89.789062 C 169.98733 90.789062 169.57217 91.568406 168.47461 91.617188 C 167.30388 91.665968 167.01172 90.8125 167.01172 89.8125 C 166.98733 87.519817 166.9385 85.252668 166.96289 82.984375 C 166.96289 82.277058 166.79221 81.934594 166.01172 81.958984 C 164.71904 82.007765 163.40206 81.934643 162.10938 82.007812 C 161.81669 82.032203 161.30469 82.470941 161.30469 82.714844 C 161.30469 86.007527 161.30292 89.300067 161.49805 92.568359 C 161.62 94.519579 163.0605 95.739567 165.01172 96.056641 C 166.79221 96.324933 168.37633 95.959937 169.74219 94.935547 C 170.05926 95.25262 170.32841 95.715844 170.62109 95.740234 C 172.27963 95.813405 173.93826 95.763672 175.71875 95.763672 C 175.71875 91.275867 175.71775 86.885385 175.69336 82.519531 C 175.69336 82.324409 175.3035 81.984375 175.08398 81.984375 C 174.25472 81.959985 173.42545 81.953125 172.58398 81.953125 z M 138.81641 82.033203 L 138.81641 95.714844 L 144.23047 95.714844 L 144.23047 82.033203 L 138.81641 82.033203 z M 199.76758 85.082031 C 200.81636 85.057641 201.49809 85.642816 201.54688 86.886719 L 197.96289 86.886719 C 198.01167 85.618426 198.74319 85.082031 199.76758 85.082031 z "
   transform="scale(4.1)"
   id="path844" /><path
   style="fill:#043054"
   inkscape:connector-curvature="0"
   id="path878"
   d="m 53.845933,456.73378 c 4.9,0 9,0 13,0 0,12.3 0.4,24.5 -0.3,36.7 -0.2,2.9 -3.6,6.6 -6.5,8 -4,2 -8.9,2.9 -13.4,3 -15.2,0.3 -20.8,-5.5 -20.8,-20.7 0,-8.5 0,-17 0.1,-25.5 0,-0.3 0.1,-0.6 0.3,-1.3 4.3,0 8.7,0 13.6,0 0,9.5 0,18.9 0,28.4 0,3.3 0.6,6.3 4.3,7.6 5.2,1.9 9.6,-1.1 9.8,-7 0.2,-7.8 0.1,-15.6 0.1,-23.5 -0.2,-1.6 -0.2,-3.4 -0.2,-5.7 z"
   class="st9" /><path
   style="fill:#043054"
   inkscape:connector-curvature="0"
   id="path884"
   d="m 946.84593,504.33378 c 3.6,0 6.9,-0.1 10.2,0 0.9,0 1.8,0.4 2.7,0.7 2.1,0.7 4.6,2.3 6.3,1.8 1.3,-0.4 1.6,-3.7 2.6,-6.4 -9.8,3.6 -15.8,2.4 -19.8,-3.3 -4.2,-6.1 -4.2,-17.3 0.9,-22.4 2.6,-2.6 7.2,-5.3 10.3,-4.6 6.9,1.5 13.7,-0.2 21.2,0.9 0,2.4 0,4.8 0,7.2 -0.1,8.8 0.1,17.6 -0.3,26.4 -0.3,6.7 -3.4,10.3 -9.9,11.1 -5.2,0.7 -10.6,0.6 -15.8,-0.2 -5.5,-0.9 -7.9,-4.5 -8.4,-11.2 z m 13.7,-17.9 c -0.4,0.3 -0.7,0.6 -1.1,0.8 1.6,2.1 3.1,5.9 4.7,5.9 3.8,0 3.7,-3.8 3.8,-6.8 0,-1.1 0.2,-2.5 -0.4,-3.4 -0.9,-1.3 -2.3,-2.3 -3.6,-3.4 -1,1.1 -2.3,2.1 -3,3.4 -0.5,1.1 -0.3,2.4 -0.4,3.5 z"
   class="st9" /><path
   style="fill:#043054"
   inkscape:connector-curvature="0"
   id="path888"
   d="m 806.94593,468.23378 c -3.7,1.8 -7.3,3.6 -11.3,5.6 -0.7,-1.2 -1,-2.5 -1.8,-3 -2.4,-1.5 -5,-3.8 -7.4,-3.7 -2.2,0 -5.3,2.3 -6.5,4.4 -2.9,5.4 -2.8,11.3 -0.3,16.9 3.1,7 10.3,6.7 15.8,-0.6 1.9,0.7 4,1.3 6,2 1.9,0.7 3.7,1.4 5.5,2.1 -2.3,8.5 -11.7,13.7 -22.4,12.6 -12.4,-1.2 -20,-9.7 -20.6,-22.9 -0.6,-13.5 6.2,-23 18.3,-25.4 11,-2.4 21.1,2.5 24.7,12 z"
   class="st9" /><path
   style="fill:#043054"
   inkscape:connector-curvature="0"
   id="path890"
   d="m 831.84593,503.33378 c 0,-6.1 0,-11.6 0,-17.1 0,-2.7 0.2,-5.8 -3.7,-5.7 -3.7,0.1 -3.8,3.1 -3.9,5.9 -0.1,5.5 0,11 0,16.8 -4.4,0 -8.5,0 -13,0 0,-15.2 0,-30.6 0,-46.3 4.1,0 8.1,0 12.9,0 0,5.1 0,10.1 0,15.7 2.1,-0.9 3.4,-1.6 4.8,-2.1 9.1,-3.2 15.8,1.1 16.2,10.7 0.3,6.7 0.1,13.3 0.1,20 0,0.6 -0.2,1.2 -0.4,2.1 -4.3,0 -8.4,0 -13,0 z"
   class="st9" /><path
   style="fill:#043054"
   inkscape:connector-curvature="0"
   id="path892"
   d="m 318.84593,470.83378 c 4.7,0 9,0 13.7,0 1.5,6.5 3,13 4.8,20.7 1.7,-7.7 3.1,-14.2 4.6,-20.7 4.6,0 8.9,0 14,0 -4.8,13.8 -9.3,27.3 -14.2,40.6 -0.7,1.8 -3.2,3.3 -5.2,4.1 -2.1,0.9 -4.6,0.9 -6.9,1 -8.9,0.3 -9.6,-0.7 -7.9,-9.8 0.6,-0.1 1.3,-0.2 1.9,-0.3 5.5,-0.6 6.2,-1.5 4.6,-6.6 -2.5,-7.9 -5.1,-15.8 -7.7,-23.7 -0.6,-1.7 -1.1,-3.4 -1.7,-5.3 z"
   class="st9" /><path
   style="fill:#043054"
   inkscape:connector-curvature="0"
   id="path894"
   d="m 387.64593,504.63378 c -11.5,-0.1 -18.7,-6.9 -18.5,-17.6 0.2,-10.7 7.5,-17.4 19,-17.3 11.3,0.1 18.7,7.1 18.6,17.7 -0.2,10.6 -7.5,17.2 -19.1,17.2 z m 4.3,-17.7 c -0.1,-0.8 0.3,-2.2 -0.3,-3.1 -1,-1.6 -2.6,-2.9 -3.9,-4.4 -1.3,1.5 -3,2.8 -3.7,4.6 -0.6,1.8 -0.7,4.1 0,5.9 0.7,1.9 2.5,3.3 3.9,4.9 1.3,-1.7 2.7,-3.3 3.8,-5.1 0.4,-0.6 0.1,-1.6 0.2,-2.8 z"
   class="st9" /><path
   style="fill:#043054"
   inkscape:connector-curvature="0"
   id="path896"
   d="m 1004.0459,469.63378 c 11.3,0.1 18.7,7.2 18.5,17.8 -0.1,10.7 -7.4,17.3 -19,17.2 -11.49997,-0.1 -18.69997,-7 -18.49997,-17.6 0.3,-10.8 7.6,-17.5 18.99997,-17.4 z m -4.29997,16.6 c 0.1,1.9 -0.1,3.4 0.39997,4.5 0.9,1.5 2.4,2.7 3.6,4.1 1.3,-1.3 3.4,-2.4 3.6,-3.9 0.5,-2.8 0.2,-5.9 -0.4,-8.8 -0.2,-1 -2,-2.4 -3.1,-2.4 -1.1,0 -2.6,1.2 -3.2,2.3 -0.69997,1.3 -0.69997,3.1 -0.89997,4.2 z"
   class="st9" /><path
   style="fill:#043054"
   inkscape:connector-curvature="0"
   id="path898"
   d="m 591.04593,469.63378 c 11.3,0.1 18.7,7.1 18.6,17.7 -0.1,10.7 -7.4,17.3 -19,17.2 -11.6,-0.1 -18.8,-6.9 -18.6,-17.6 0.2,-10.6 7.6,-17.3 19,-17.3 z m 3.9,17.5 c -0.5,-3.1 0.4,-7.7 -4.4,-7.5 -4.2,0.2 -3.8,4.4 -3.7,7.5 0,3.1 -0.4,7.3 3.7,7.5 4.9,0.2 3.9,-4.4 4.4,-7.5 z"
   class="st9" /><path
   style="fill:#043054"
   inkscape:connector-curvature="0"
   id="path900"
   d="m 74.145933,503.23378 c 0,-10.8 0,-21.4 0,-33.3 4.6,0.8 8.9,1.6 13.1,2.3 0.8,0.1 1.8,-0.3 2.6,-0.7 10.599997,-4.9 17.999997,-0.6 18.399997,10.9 0.2,6.8 0,13.6 0,20.8 -4.4,0 -8.499997,0 -13.299997,0 0,-5.4 0,-11 0,-16.6 0,-2.7 0.2,-5.9 -3.6,-5.9 -3.7,-0.1 -3.9,3 -4,5.7 -0.1,5.5 0,11 0,16.8 -4.5,0 -8.6,0 -13.2,0 z"
   class="st9" /><path
   style="fill:#043054"
   inkscape:connector-curvature="0"
   id="path902"
   d="m 533.24593,469.73378 c 4.8,1 9.1,2 13.4,2.7 0.8,0.1 1.8,-0.7 2.6,-1.2 9.8,-4.6 17.5,-0.1 17.9,10.7 0.3,7 0,14 0,21.3 -4.4,0 -8.5,0 -13.3,0 0,-5.5 0,-11.1 0,-16.7 0,-2.7 0.2,-5.8 -3.6,-5.9 -3.7,0 -3.9,3.1 -4,5.8 -0.1,5.5 0,11 0,16.8 -4.5,0 -8.5,0 -13,0 0,-10.6 0,-21.3 0,-33.5 z"
   class="st9" /><path
   style="fill:#043054"
   inkscape:connector-curvature="0"
   id="path904"
   d="m 203.84593,489.73378 c -7.5,0 -14.4,0 -21.5,0 1.8,5.5 5.1,5.9 11.3,1.4 2.9,1.5 5.8,3.1 8.7,4.7 0.4,0.2 0.7,0.7 1.2,1.3 -6,6.9 -13.6,8.5 -22.1,6.8 -7.3,-1.4 -11.7,-5.9 -13,-13.3 -1.2,-7.1 0.1,-13.5 6.3,-17.7 6.7,-4.5 14.2,-4.8 21.3,-1 6.8,3.7 8.2,10.1 7.8,17.8 z m -13.8,-7.2 c 0.4,-0.4 0.8,-0.7 1.3,-1.1 -1.5,-1.2 -3.1,-3.4 -4.6,-3.3 -1.8,0 -3.5,2 -5.2,3.1 0.3,0.4 0.5,0.8 0.8,1.3 2.5,0 5.1,0 7.7,0 z"
   class="st9" /><path
   style="fill:#043054"
   inkscape:connector-curvature="0"
   id="path906"
   d="m 908.24593,482.23378 c 1.2,-3.1 1.5,-5.3 2.7,-7 4.3,-6.5 21.8,-7.8 26.9,-2 1.4,1.6 2,4.1 2.3,6.4 0.9,6.6 1.4,13.3 2.1,20 0.3,3.2 -0.5,5.3 -4.3,4.8 -2.6,-0.3 -5.2,-0.8 -7.8,-1.1 -1.3,-0.1 -2.5,-0.2 -3.8,-0.1 -3.4,0.3 -6.9,1.2 -10.3,0.9 -4.8,-0.5 -7.7,-3.7 -8.1,-8.7 -0.4,-4.9 1.6,-8.6 6.2,-10.3 3.2,-1.2 6.8,-1.6 10.1,-2.5 1.3,-0.4 2.4,-1.3 3.5,-2.1 0.1,-0.1 -0.5,-1.9 -1,-1.9 -1.5,-0.2 -4.1,-0.7 -4.6,0.1 -3.4,5.4 -8.6,1.6 -13.9,3.5 z m 19.1,5.8 c -2.9,2.6 -4.9,4.5 -6.9,6.4 1.3,0.8 2.6,2.4 3.8,2.2 4.2,-0.5 3.8,-3.7 3.1,-8.6 z"
   class="st9" /><path
   style="fill:#043054"
   inkscape:connector-curvature="0"
   id="path908"
   d="m 683.24593,480.63378 c 1.6,-2.6 2.6,-5.7 4.8,-7.6 4.9,-4.3 18.1,-5 23.2,-1 2,1.6 3.4,4.8 3.8,7.5 0.6,4.1 0.2,8.3 0.2,12.5 0,1.2 0.1,2.3 0.2,3.5 0.3,2.7 0.6,5.5 0.9,8.2 -3.3,0 -6.7,0.7 -9.7,-0.2 -2.5,-0.8 -4.3,-0.3 -6.7,-0.1 -4.3,0.4 -9.2,0.6 -12.9,-1.3 -6.4,-3.2 -5.4,-13.6 1.3,-16.7 3.4,-1.6 7.4,-1.9 11,-3 1.3,-0.4 2.4,-1.3 3.5,-2.1 0.1,-0.1 -0.6,-1.8 -1,-1.9 -1.5,-0.2 -4.1,-0.6 -4.6,0.1 -3.6,5.4 -8.7,1.9 -12.9,3.1 -0.4,-0.3 -0.7,-0.6 -1.1,-1 z m 20.5,10.3 c -0.8,-0.7 -1.5,-1.4 -2.3,-2.1 -2,1.8 -4.1,3.5 -6.1,5.3 1.4,0.9 3.6,2.7 4,2.4 1.7,-1.5 3,-3.6 4.4,-5.6 z"
   class="st9" /><path
   style="fill:#043054"
   inkscape:connector-curvature="0"
   id="path910"
   d="m 267.14593,475.13378 c -1.9,2 -3.7,4.1 -5.6,6.1 -4.2,-1.6 -8,-4.8 -13.8,-1.5 2.2,0.9 3.6,1.7 4.9,2 2.9,0.8 5.8,1.4 8.7,2.2 4.1,1.2 7.2,3.7 7.3,8.4 0.2,4.8 -2,8.2 -6.4,10.3 -8,3.7 -20.3,1.8 -27.5,-4.7 2.3,-2.1 4.5,-4.2 6.7,-6.2 8.9,4.9 10.8,5.3 16.3,2.4 -2.6,-1 -4.4,-1.7 -6.2,-2.3 -3.2,-0.9 -6.9,-1 -9.4,-2.8 -2.5,-1.8 -4.6,-5.1 -5.4,-8.1 -1,-3.9 1.5,-6.9 5,-8.9 7.1,-4.2 18.7,-2.9 25.4,3.1 z"
   class="st9" /><path
   style="fill:#043054"
   inkscape:connector-curvature="0"
   id="path912"
   d="m 659.24593,480.43378 c -5.1,-1 -9.1,-1.8 -13,-2.6 -0.2,0.7 -0.4,1.5 -0.6,2.2 1.3,0.6 2.7,1.3 4,1.7 2.9,0.8 5.8,1.4 8.7,2.2 4.1,1.2 7.2,3.7 7.3,8.4 0.2,4.8 -2,8.2 -6.4,10.3 -8,3.7 -20.3,1.8 -27.5,-4.7 2.3,-2.1 4.5,-4.2 6.7,-6.2 8.9,4.9 10.8,5.3 16.3,2.4 -2.6,-1 -4.4,-1.7 -6.2,-2.3 -3.2,-0.9 -6.9,-1 -9.4,-2.8 -2.5,-1.8 -4.6,-5.1 -5.4,-8.1 -1,-3.9 1.5,-6.9 5,-8.9 7.2,-4.2 18.8,-2.9 25.5,3.1 -1.9,2 -3.8,4.1 -5,5.3 z"
   class="st9" /><path
   style="fill:#043054"
   inkscape:connector-curvature="0"
   id="path914"
   d="m 433.74593,470.93378 c 0,3 0,5.6 0,8.6 -2.1,0.2 -4,0.4 -6.4,0.6 0,7.7 0,15.3 0,23.2 -4.6,0 -8.7,0 -13.3,0 0,-7.5 0,-15.1 0,-22.9 -1.8,-0.4 -3.2,-0.6 -4.9,-1 0,-2.7 0,-5.4 0,-8.5 1.4,-0.1 2.9,-0.3 4.4,-0.4 0.1,-0.9 0.2,-1.5 0.3,-2.1 0.4,-10.2 7.8,-15.5 17.7,-12.2 1.1,0.4 2,2.2 2.3,3.5 0.4,1.7 0.1,3.6 0.1,5.7 -3.1,0.5 -7.1,-0.1 -6.5,5.1 2,0 4,0.2 6.3,0.4 z"
   class="st9" /><path
   style="fill:#043054"
   inkscape:connector-curvature="0"
   id="path916"
   d="m 903.64593,481.73378 c -3.9,0.7 -7.8,1.5 -10,1.9 -3.1,-2 -5,-3.1 -6.9,-4.3 -1,2.1 -2.3,4.2 -2.8,6.4 -0.4,1.7 -0.1,3.7 0.3,5.4 1,4 3.4,4.5 6.4,1.7 0.9,-0.8 2.4,-1.5 3.6,-1.4 3.1,0.3 6.2,1 9.2,1.6 -1.5,7.8 -8.5,12.1 -17.9,11.3 -9.9,-0.8 -15.6,-6.7 -15.9,-16.4 -0.3,-10 5,-16.7 14.7,-18.2 9.5,-1.3 16.9,3 19.3,12 z"
   class="st9" /><path
   style="fill:#043054"
   inkscape:connector-curvature="0"
   id="path918"
   d="m 296.84593,480.03378 c -2.3,-0.2 -3.9,-0.3 -5.8,-0.5 0,-2.8 0,-5.5 0,-8.6 1.8,-0.2 3.5,-0.3 5.7,-0.6 0,-3.5 0,-6.9 0,-10.6 4.4,-0.7 8.5,-1.4 13.2,-2.2 0,4.3 0,8.3 0,12.7 2.5,0.2 4.4,0.4 6.8,0.7 0,2.6 0,5.3 0,8.5 -1.7,0.2 -3.6,0.4 -5.5,0.7 -3.3,9.3 -1.3,14.7 5.8,15.8 1.6,8.2 1,8.8 -7.2,8.7 -1.7,0 -3.3,-0.1 -5,-0.3 -5.8,-0.8 -7.8,-3 -8,-8.8 -0.1,-2.5 0,-5 0,-7.5 0,-2.5 0,-5 0,-8 z"
   class="st9" /><path
   style="fill:#043054"
   inkscape:connector-curvature="0"
   id="path920"
   d="m 746.34593,496.23378 c 0.8,8.3 0.7,8.5 -7.5,8.3 -2,0 -4,-0.2 -5.9,-0.5 -4.7,-0.6 -7,-3.5 -7,-8.1 0,-5.1 0,-10.3 0,-15.7 -2,-0.3 -3.7,-0.5 -5.8,-0.8 0,-2.7 0,-5.4 0,-8.5 1.7,-0.2 3.5,-0.4 5.7,-0.6 0,-3.5 0,-6.9 0,-10.6 4.4,-0.7 8.5,-1.4 13.2,-2.2 0,4.3 0,8.3 0,12.7 2.5,0.2 4.4,0.4 6.8,0.7 0,2.6 0,5.3 0,8.5 -1.8,0.2 -3.9,0.5 -6.5,0.8 0,3.9 -0.7,7.9 0.3,11.4 0.6,2.1 3.7,3.5 5.6,5.3 0.3,-0.3 0.7,-0.5 1.1,-0.7 z"
   class="st9" /><path
   style="fill:#043054"
   inkscape:connector-curvature="0"
   id="path922"
   d="m 131.24593,470.83378 c 4.2,0 8.5,0 13.3,0 1.5,5.8 3,11.7 4.8,18.7 1.7,-6.9 3.2,-12.7 4.7,-18.7 4.4,0 8.7,0 13.7,0 -3.7,11 -7.2,21.8 -10.7,32.3 -0.5,0.2 -0.7,0.2 -0.9,0.2 -14.3,1 -14.3,1 -18.7,-12.4 -2.1,-6.3 -4.1,-12.6 -6.2,-18.9 -0.1,-0.3 0,-0.6 0,-1.2 z"
   class="st9" /><path
   style="fill:#043054"
   inkscape:connector-curvature="0"
   id="path924"
   d="m 452.24593,456.73378 c 4.5,0 8.7,0 13.2,0 0,15.5 0,30.9 0,46.5 -4.3,0 -8.5,0 -13.2,0 0,-15.2 0,-30.6 0,-46.5 z"
   class="st9" /><path
   style="fill:#043054"
   inkscape:connector-curvature="0"
   id="path926"
   d="m 493.74593,503.13378 c 0,-15.6 0,-30.8 0,-46.3 4.4,0 8.4,0 12.8,0 0,15.4 0,30.6 0,46.3 -4,0 -8.2,0 -12.8,0 z"
   class="st9" /><path
   style="fill:#043054"
   inkscape:connector-curvature="0"
   id="path928"
   d="m 486.44593,503.43378 c -4.3,0 -8.2,0 -12.6,0 0,-15.5 0,-30.8 0,-46.5 4.1,0 8.2,0 12.6,0 0,15.3 0,30.7 0,46.5 z"
   class="st9" /><path
   style="fill:#043054"
   inkscape:connector-curvature="0"
   id="path930"
   d="m 222.24593,503.33378 c -4.7,0 -8.7,0 -13.1,0 0,-10.8 0,-21.3 0,-31.9 6.5,-1.8 11.8,-1.1 13.1,1.6 3.1,-1.3 6.2,-2.6 10,-4.2 0,4.8 0,8.5 0,12.2 -9.3,1.8 -10,2.7 -10,12.3 0,3.1 0,6.3 0,10 z"
   class="st9" /><path
   style="fill:#043054"
   inkscape:connector-curvature="0"
   id="path934"
   d="m 864.84593,503.43378 c -4.3,0 -8.2,0 -12.6,0 0,-10.7 0,-21.4 0,-32.4 4,0 8.1,0 12.6,0 0,10.6 0,21.2 0,32.4 z"
   class="st9" /><path
   style="fill:#043054"
   inkscape:connector-curvature="0"
   id="path936"
   d="m 626.84593,503.43378 c -4.4,0 -8.3,0 -12.6,0 0,-10.8 0,-21.5 0,-32.5 4.1,0 8.1,0 12.6,0 0,10.7 0,21.4 0,32.5 z"
   class="st9" /><path
   style="fill:#043054"
   inkscape:connector-curvature="0"
   id="path938"
   d="m 513.24593,470.83378 c 4.3,0 8.2,0 12.6,0 0,10.8 0,21.5 0,32.5 -4.1,0 -8.2,0 -12.6,0 0,-10.7 0,-21.4 0,-32.5 z"
   class="st9" /><path
   style="fill:#043054"
   inkscape:connector-curvature="0"
   id="path940"
   d="m 285.94593,470.93378 c 0,11 0,21.6 0,32.4 -4.3,0 -8.4,0 -12.8,0 0,-10.8 0,-21.5 0,-32.4 4.3,0 8.3,0 12.8,0 z"
   class="st9" /><path
   style="fill:#043054"
   inkscape:connector-curvature="0"
   id="path942"
   d="m 114.24593,470.83378 c 4.4,0 8.4,0 12.7,0 0,10.9 0,21.5 0,32.5 -4.2,0 -8.3,0 -12.7,0 0,-10.8 0,-21.5 0,-32.5 z"
   class="st9" /><path
   style="fill:#043054"
   inkscape:connector-curvature="0"
   id="path948"
   d="m 113.94593,466.23378 c 0,-3.2 0,-6 0,-9.2 4.3,0 8.4,0 12.9,0 0,3 0,5.9 0,9.2 -4.2,0 -8.5,0 -12.9,0 z"
   class="st9" /><path
   style="fill:#043054"
   inkscape:connector-curvature="0"
   id="path950"
   d="m 285.94593,457.03378 c 0,3.3 0,6.2 0,9.3 -4.3,0 -8.4,0 -12.8,0 0,-3.1 0,-6.2 0,-9.3 4.4,0 8.6,0 12.8,0 z"
   class="st9" /><path
   style="fill:#043054"
   inkscape:connector-curvature="0"
   id="path952"
   d="m 526.04593,456.93378 c 0,3.2 0,6.1 0,9.3 -4.2,0 -8.3,0 -12.7,0 0,-3 0,-6 0,-9.3 3.9,0 8,0 12.7,0 z"
   class="st9" /><path
   style="fill:#043054"
   inkscape:connector-curvature="0"
   id="path954"
   d="m 613.94593,466.23378 c 0,-3.2 0,-6 0,-9.2 4.3,0 8.4,0 12.9,0 0,3 0,5.9 0,9.2 -4.1,0 -8.2,0 -12.9,0 z"
   class="st9" /><path
   style="fill:#043054"
   inkscape:connector-curvature="0"
   id="path956"
   d="m 864.94593,457.03378 c 0,3.1 0,6 0,9.2 -4.2,0 -8.4,0 -12.8,0 0,-3.1 0,-6 0,-9.2 4.2,0 8.3,0 12.8,0 z"
   class="st9" />

























</svg>