<svg xmlns="http://www.w3.org/2000/svg" viewBox="0 0 220.02 78.03">
  <style>
    svg {
      color: #003dac;
    }
    path {
      fill: currentColor;
    }  
  </style>
  <title>Logo</title>
  <path d="M42.13,34l-.37-2.17c.39.07.09.37.35.42.08,0,.22,0,.21.16s-.27.39-.13.56.51.55.89.39a1.4,1.4,0,0,0,.52-.63c.06-.22-.17-.29-.31-.29s-.23,0-.36-.22c0,0-.08-.12-.06-.17s.24,0,.35,0,.34.16.34-.07-.16-.05-.11-.17.16-.3.28-.27.28.27.28.27a.24.24,0,0,0-.11.17c0,.1.23.11.34.07s.32-.06.35,0a.13.13,0,0,1-.06.17c-.13.24-.21.22-.36.22s-.38.07-.31.29a1.34,1.34,0,0,0,.52.63c.38.16.68-.15.89-.39s-.13-.42-.13-.56.13-.14.21-.16c.26,0-.05-.35.35-.42L45.37,34Zm8.36,0,.39-2.17c-.35.07-.09.37-.35.42-.08,0-.22,0-.21.16s.34.32.13.56-.51.55-.89.39a1.4,1.4,0,0,1-.52-.63c-.06-.22.16-.29.31-.29s.23,0,.36-.22a.14.14,0,0,0,.06-.17c0-.06-.24,0-.35,0s-.34,0-.34-.07a.24.24,0,0,1,.11-.17s-.16-.27-.28-.27-.23.15-.28.27.11-.06.11.17-.23.07-.34.07-.27,0-.34,0,0,.17,0,.17c.13.22.22.22.36.22s.38.07.31.29a1.34,1.34,0,0,1-.52.63c-.38.16-.75-.22-.89-.39s.12-.4.13-.56-.13-.16-.21-.16c-.26,0,0-.35-.35-.42L47.26,34Zm-4.74,1.76c-.11,0-.33-.06-.35,0s.06.17.06.17c.13.23.22.23.36.23s.38.06.31.28a1.28,1.28,0,0,1-.52.63c-.38.17-.75-.23-.89-.39s.12-.43.13-.55-.13-.17-.21-.17c-.26-.05,0-.35-.35-.42l.37,2.2H47.9l.33-2.2c-.35.07-.09.42-.35.42-.08,0-.22,0-.21.17s.34.3.13.55-.51.56-.89.39a1.34,1.34,0,0,1-.52-.63c-.06-.22.16-.27.31-.28s.23,0,.36-.23a.13.13,0,0,0,.06-.17c0-.06-.24,0-.35,0s-.34,0-.34-.07.11-.16.11-.16-.16-.28-.28-.28-.23.12-.28.28.11-.07.11.16S45.86,35.81,45.75,35.76ZM25.13,8.94A1.43,1.43,0,0,0,26,7.17a1.37,1.37,0,0,0-1.68-1l-.15,0a1.42,1.42,0,0,0,.95,2.68ZM45.42,29.28c.07-.63-.74-.38-.93-.12s.07.59.16.85C44.86,29.76,45.32,29.62,45.42,29.28ZM30.25,6a.52.52,0,0,0,.57-.59c0-.39-.28-.5-.71-.46L29.52,5l.12,1ZM47.89,30.36l-.25-.22a2.14,2.14,0,0,0-.28.39A1.23,1.23,0,0,0,47.89,30.36ZM40.43,32.9a4,4,0,0,1,.77-3.56,2,2,0,0,1,2.22-.43c.14.08.1.32,0,.43a.47.47,0,0,1-.34.22c-.3.09-.39-.5-.46-.34a1.6,1.6,0,0,0,.66,1.17,1.12,1.12,0,0,0,1.25-.14c.43.12.84.31,1.29.39,0-.75-.17-1.69.45-2.24.22.19.2.53.2.85l-.2,1.33c.4-.19.73-.59,1.17-.59-.13.28-.44.5-.46.83a2.92,2.92,0,0,0,.83-.12v.17a4.3,4.3,0,0,0,2.46-.54,1,1,0,0,0,.43-.46.72.72,0,0,0-.1-.59c-.2.07-.05.42-.45.42a.56.56,0,0,1-.55-.26.41.41,0,0,1,.21-.51,1.59,1.59,0,0,1,1.68.37c1.18,1.45.82,3.49.2,5.08a16.68,16.68,0,0,1-5.32,6.45C43.75,38.71,41.22,36.06,40.43,32.9Zm6.2-1.32c.16.88.26,1.75.45,2.61h3.57c.19-.86.29-1.73.44-2.61,0-.16-.25-.08-.36,0h0c-.41.15-.22.43-.37.47-.41.1-.29.47-.13.7s-.19.28-.32.36-.49-.09-.64-.35.3-.08.41-.18S50,32,50,31.93a.51.51,0,0,0-.54-.12.71.71,0,0,0-.49-.52h-.09c-.22,0-.46.36-.5.52-.21,0-.44,0-.53.12s.08.46.25.65.54,0,.42.18-.42.51-.65.35-.33-.28-.33-.36.28-.6-.12-.7c-.16,0,0-.32-.38-.47C46.88,31.58,46.6,31.46,46.63,31.58ZM46.24,35c-.22,0-.46.36-.5.53-.21,0-.44,0-.53.11s.08.46.25.65.54,0,.42.19-.42.5-.65.35-.39-.27-.32-.37.28-.6-.12-.7c-.16,0,0-.31-.38-.46-.11,0-.39-.12-.36,0,.16.88.26,1.76.45,2.61h3.57c.19-.85.28-1.73.44-2.61,0-.15-.25-.07-.36,0-.41.15-.22.42-.37.46-.41.1-.29.47-.13.7s-.19.28-.32.37-.49-.1-.64-.35.3-.09.41-.19.33-.56.25-.65a.62.62,0,0,0-.53-.11.73.73,0,0,0-.49-.53ZM41.52,31.6c.16.88.25,1.75.44,2.61h3.53c.19-.86.29-1.73.45-2.61,0-.16-.25-.08-.36,0l0,0c-.41.15-.22.43-.37.47-.41.1-.29.47-.13.7s-.2.28-.32.36-.49-.09-.65-.35.3-.08.42-.18.33-.56.25-.65a.57.57,0,0,0-.53-.1.71.71,0,0,0-.49-.52h-.1c-.21,0-.46.36-.49.52-.21,0-.44,0-.53.12s.07.46.25.65.53,0,.41.18-.42.51-.64.35-.39-.26-.32-.36.28-.6-.13-.7c-.15,0,0-.32-.37-.47C41.77,31.6,41.49,31.48,41.52,31.6Zm4.09-1.33a1,1,0,0,0-.12-.54l-.49.39A2.1,2.1,0,0,0,45.61,30.27Zm1-.54-.06.35c.13,0,.23-.14.35-.14A.34.34,0,0,0,46.63,29.73ZM34.8,14.48v.44h.47A.49.49,0,0,0,34.8,14.48Zm3.54,12.19-.28-.46-.39.46A.79.79,0,0,0,38.34,26.67Zm9.51,3.15a.33.33,0,0,0,.41.16.3.3,0,0,0,.14-.31c-.08-.26-.51-.41-.57-.14h0A.48.48,0,0,0,47.85,29.82Zm-8.56,5.32a.28.28,0,0,0,.24.18c.29,0,.65-.4,1-.51-.15-.5-.38-1-.55-1.43C39.9,34.27,39.29,34.46,39.29,35.14ZM34.66,15.65a.63.63,0,0,0,.6-.48H34A.57.57,0,0,0,34.66,15.65Zm-.16-1.18a.52.52,0,0,0-.47.45h.47Zm2.93,10.42c-1.51-.49-1.79.05-2.07.32A3.3,3.3,0,0,1,37.43,24.89Zm-.07,1.75L37,26.15l-.43.49A1.33,1.33,0,0,0,37.36,26.64Zm-2.27-1v.6c.92-.85,2.35-.58,3.41-.23.72.28,1.94.64,2.45.09a.9.9,0,0,0,.26-.81.51.51,0,0,0-.43-.42.46.46,0,0,1-.12.54,2,2,0,0,1-1.48.17h0C37.91,25.26,36.24,24.64,35.09,25.64Zm2.64.54-.49-.11.25.37Zm-1.62.49h.13l.47-.65a2.12,2.12,0,0,0-1.42.51A1.12,1.12,0,0,0,36.11,26.67Zm11.17,2.92h0a.34.34,0,0,0,.24-.42c0-.22-.3-.22-.51-.22h0c-.11.06-.26.12-.26.26a.49.49,0,0,0,0,.12A.38.38,0,0,0,47.28,29.59ZM19.15,8.94a.5.5,0,0,0-.65-.28l-.12.07-.53.3.49.86.53-.3A.5.5,0,0,0,19.15,8.94ZM45.41,53.82c0-.44-.56-.52-.7-.52l0,0a.48.48,0,0,1-.18.51A2.2,2.2,0,0,1,45.41,53.82ZM28.57,64.16l1.42.2-.5-1.89ZM48.14,30.65a.78.78,0,0,0,.37-.06l-.19-.18ZM19.34,11.59l.57-.32c.56-.32.67-.58.47-.93s-.52-.31-.87-.11l-.71.4ZM20,59l-.66-.36-1.42,2.58.67.36A1.47,1.47,0,0,0,20,59ZM4.46,38.91l-.1-.81-1.09.14.08.65c.08.63.27.84.67.78S4.51,39.31,4.46,38.91ZM7.55,44l-.06-.17a1.42,1.42,0,1,0-.89,1.84A1.36,1.36,0,0,0,7.55,44ZM7.49,22.36a1.42,1.42,0,0,0,1.36-2.49,1.38,1.38,0,0,0-1.9.4,1.14,1.14,0,0,0-.1.19A1.42,1.42,0,0,0,7.49,22.36ZM15,58.14l.59-1.92-1.69,1Zm30-2.91V55a.43.43,0,0,0-.35-.23C44.37,55,44.82,55.11,45,55.23ZM30.82,36.82c.45.09.92.3,1.36-.19s0-2,.17-2.89a1,1,0,0,1-.59-.31h-.69v0c-.09.86.49,1.89-.16,2.62a.84.84,0,0,1-.8.28l.11.12a1.18,1.18,0,0,0,1.11-.08,1.11,1.11,0,0,1-.6.42Zm1.92.65c2.07,0,.95-2.4,1.54-3.55l-.54-.25a1.73,1.73,0,0,1-.84.16h0c-.18,1,.27,1.88,0,2.88a1.06,1.06,0,0,1-.77.59,1.5,1.5,0,0,0,1.24-.42C33.24,37.15,32.93,37.33,32.74,37.47Zm11.32,14.7c-.14-.38-.59-.25-.86-.18l.08.43A2.73,2.73,0,0,1,44.06,52.17ZM39,35.14c-.1-.85.63-1.14.63-1.85h-.11a5.09,5.09,0,0,1-1.26.44l-.3.68a2.05,2.05,0,0,0,.4,2,1,1,0,0,0,1.38-.1c-.2,0-.48,0-.59-.2a1.19,1.19,0,0,0,.53,0v0a.72.72,0,0,0,.46-.59C39.35,36,39,35.39,39,35.14Zm10.18-5c0-.2-.26-.46-.42-.2a.28.28,0,0,0,.12.4C49,30.47,49.12,30.36,49.15,30.16ZM29.87,35.88a.72.72,0,0,0,.54,0c.78-.47.14-1.73.29-2.47a1.44,1.44,0,0,1-1-.51l.05.05c-.31,1,.25,1.88.18,2.18a.62.62,0,0,1-.31.44c.22.12.4-.14.57-.14C30.16,35.58,30.05,35.88,29.87,35.88ZM32,42.78v0c.77-.63,1.69-1,2.47-1.63A3.45,3.45,0,0,0,32,42.78ZM29.89,53.44a.65.65,0,0,0-.73-.39C28.89,53.61,29.73,53.28,29.89,53.44Zm5.94-16.55a15.18,15.18,0,0,1,0-2.86,1.3,1.3,0,0,1-1.06,0l0,0c-.54,1,.31,2.91-1,3.77h.31a1.41,1.41,0,0,0,.8-.57,1.87,1.87,0,0,1-.43.68A1.63,1.63,0,0,0,35.83,36.89ZM36.22,34c0,1,.35,2.39.14,3a1.92,1.92,0,0,1-1,1.06c.89.06,1.31-.66,1.57-1.2A1.65,1.65,0,0,1,36.46,38l.22-.06,0,.06a1.15,1.15,0,0,0,.94-1.14,10.61,10.61,0,0,1,0-2.87A2.49,2.49,0,0,1,36.22,34Zm-15.38-10c.14-.15.11-.29,0-.49s-.27-.45-.55-.45a.54.54,0,0,0-.39.54,1,1,0,0,0,.37.54A.43.43,0,0,0,20.84,23.94Zm3.85,31.51a1.25,1.25,0,0,1-.18.45,2.5,2.5,0,0,1,.62.34A.89.89,0,0,0,24.69,55.45Zm3-.19v.46a1,1,0,0,1,.64.39C28.51,55.72,28.06,55.26,27.72,55.26Zm2-.36a.61.61,0,0,0-.41-.32.48.48,0,0,1-.16.35l.57.17ZM19.92,26.37l.35-.41-.59-.23C19.27,25.85,19.74,26.24,19.92,26.37Zm1,9.63a3,3,0,0,0-1.43-.22c-.68.07-1.13.74-1.74,1.07a9.41,9.41,0,0,0-1.51,1,3.51,3.51,0,0,0-.45,2.47,2.71,2.71,0,0,0,.86-1.53.69.69,0,0,1,.2.45c0,.93-1.06,1.48-1,2.36a2.48,2.48,0,0,0,1.05-1.19c.39.68-.51,1.15-.85,1.68a1.79,1.79,0,0,0,.79-.14,2.33,2.33,0,0,0,1.08-2c.07-1-.32-2.08.36-2.86h.09a1.85,1.85,0,0,1,2.23-.45C20.7,36.45,20.76,36.3,20.93,36ZM5.85,39.12a.51.51,0,0,0,.43-.58.13.13,0,0,0,0-.06l0-.65L5.2,38l.08.61A.49.49,0,0,0,5.85,39.12Zm14-13.67a1,1,0,0,0,.5.17,1,1,0,0,0-.08-.57A.58.58,0,0,1,19.82,25.45ZM21.49,38a10.21,10.21,0,0,0-1.22,2.84A4.4,4.4,0,0,0,21.49,38Zm-.22-12.91-.78-.25a5,5,0,0,0,.24.78Zm9.92-7c.09,0,.33-.9.63-1.24A2.7,2.7,0,0,1,34,16.24v1.55a.61.61,0,0,1,1.16,0V16.39a5,5,0,0,1,1.58.13A2.32,2.32,0,0,1,38,18.17a3.64,3.64,0,0,0,.43-.45.34.34,0,0,0,.09-.12.41.41,0,0,0-.19-.55l-.09-.18s0,0,0,.06v-.09l0,0c.11-.32,0-.58-.33-.58l-.18-.14a.5.5,0,0,0,0-.12.38.38,0,0,0-.49-.23l-.2-.1a.37.37,0,0,0,0-.11.42.42,0,0,0-.57-.12h-.23a.6.6,0,0,0-.08-.08.41.41,0,0,0-.57.08.94.94,0,0,1-.85.55,1.21,1.21,0,0,1-.93-.58.39.39,0,0,0-.17-.14.36.36,0,0,0-.45.21h-.22a.31.31,0,0,0-.13-.06.37.37,0,0,0-.45.26l-.21.09c-.27-.1-.46,0-.46.31l-.14.18h.09c-.43,0-.58.2-.49.54L31,17h0a.3.3,0,0,0-.13.09.41.41,0,0,0,0,.58C31,17.78,31.1,18.06,31.19,18.05Zm28.4,4.84a1.48,1.48,0,0,0,.76-1.95,1.14,1.14,0,0,0-.1-.19l-.35-.66-2.61,1.37.35.67A1.48,1.48,0,0,0,59.59,22.89ZM61.49,44l-1.93.13,1.5,1.22Zm-4.81-28-1.83.62.91,1.11ZM40.2,55.07c.7-.51,1.67-.15,2.39.09.74.39,1.11-.46,1.74-.37-.13-.11-.24-.32-.4-.32-.68,0-1.52.42-2.08-.14.78-.35,1.89,0,2.42-.88-.88-.65-1.63.65-2.54.08,0-.33.39-.36.55-.59s.59-.44.53-.75a2.91,2.91,0,0,0-2.32,1.32,3.28,3.28,0,0,1-.7.1,5.06,5.06,0,0,1-.68-.1,1.57,1.57,0,0,1-.62-1,3.15,3.15,0,0,1,.61-2.12,15.46,15.46,0,0,0,1.79-1.08c.63-.55.37-1.59.23-2.24A1.7,1.7,0,0,1,42,48.72c1.17-.91.24-2.27-.08-3.27.44.32.85.71,1.26,1.06a3.69,3.69,0,0,0-1-2.24,6.71,6.71,0,0,0-3.59-1.67l.08,0a37.75,37.75,0,0,0-5.21-.16,4.37,4.37,0,0,0-1.9,1.5l1,1.49c1.87.1,3.65.38,4.87,1.83a2.24,2.24,0,0,1,.34,2.13c-.22.62-.92.44-1.28.94a1.17,1.17,0,0,0-.28.88l1-.63c.11,0,.19-.18.31-.09a1.53,1.53,0,0,1-1,1.08,1.17,1.17,0,0,0-.67,1c.49.11.77-.37,1.2-.37,0,.33-.4.51-.61.77-.49.36-.28,1.06-.28,1.57.44-.05.58-.64.71-.83s.31-.51.57-.51V55c.54.72,1.64.58,2.45.51.6.17,1.23,0,1.81.24C41.62,54.92,40.57,55.54,40.2,55.07ZM66.37,1.77V68.52H0V1.77ZM61.69,24.65c-1.6.49-.63,2.67-1.36,2.9-.26.08-.48-.11-.61-.53a2.58,2.58,0,0,1,.1-1.69l-1,.29a3.21,3.21,0,0,0,.07,1.74c.3,1,1,1.55,1.88,1.29,1.55-.48.66-2.68,1.33-2.89.22-.07.45.14.57.54a3.59,3.59,0,0,1,0,1.53l.82-.32a3.57,3.57,0,0,0,0-1.56C63.17,24.92,62.46,24.41,61.69,24.65Zm-1.58-6L56,20.83l.9,1.7c.87,1.64,2.13,1.93,3.31,1.3l.29-.17a2.31,2.31,0,0,0,.58-3.2Zm-3-4-4.79,1.51.79,1,.93-.32,1.32,1.56-.46.88.79,1L58,15.64Zm-5.54-4,1.27,1.1L50.36,14.6l.88.75,2.48-2.88L55,13.57l.56-.6-3.44-3Zm-5.73.45a3.16,3.16,0,0,0,1.22,1.24c.89.53,1.8.47,2.25-.3.78-1.36-1.36-2.4-1-3,.12-.22.43-.22.78,0a3.48,3.48,0,0,1,1.06,1.1l.51-.71a3.87,3.87,0,0,0-1.17-1.11c-.93-.55-1.8-.44-2.21.25-.85,1.38,1.33,2.35.94,3-.14.21-.42.22-.81,0a2.67,2.67,0,0,1-1.06-1.33ZM39.11,8.69a3.21,3.21,0,0,0,1.5.89c1,.27,1.86,0,2.1-.88.44-1.57-1.9-2-1.71-2.69.06-.18.36-.29.76-.18a3.56,3.56,0,0,1,1.31.81l.24-.93a3.71,3.71,0,0,0-1.42-.77c-1.07-.29-1.85,0-2.07.81-.44,1.61,1.91,2,1.71,2.71-.08.23-.35.35-.78.23a2.65,2.65,0,0,1-1.37-1ZM33.49,6.32A2.49,2.49,0,0,0,36,8.75a3.06,3.06,0,0,0,2-.46L38.2,6.4l-1.83-.16-.07.85.67.06v.54a1.74,1.74,0,0,1-.78.1c-1-.08-1.56-.68-1.49-1.51l0-.21A1.5,1.5,0,0,1,36.53,5a4,4,0,0,1,1.7.58l.06-1A4.58,4.58,0,0,0,36.49,4c-1.65-.14-2.88.73-3,2.15Zm-5.21-2.1.5,4.63,1.15-.12-.2-1.88h.33c.62-.07.9.8,1.51,1.74l1.26-.14c-.79-1.26-1-1.82-1.5-2A1.2,1.2,0,0,0,32,5.23a.36.36,0,0,0,0-.1,1.37,1.37,0,0,0-1.63-1.07ZM22.5,8a2.41,2.41,0,0,0,2.84,1.86h.05a2.49,2.49,0,0,0,1.76-3A2.4,2.4,0,0,0,22.5,8Zm-6.06.92,2.29,4,2-1.11c1.19-.67,1-1.54.76-2A1.21,1.21,0,0,0,20,9.26a1,1,0,0,0,.1-1.12c-.26-.45-.92-.79-1.92-.25ZM12.23,12.1l3,3.59,2.65-2.19-.55-.67-1.75,1.46-.71-.86,1.6-1.35-.54-.66-1.64,1.35L13.67,12l1.72-1.41L14.84,10ZM8.1,16.68l.65.56L9.84,16l2.9,2.46.75-.89-2.9-2.45,1.09-1.24-.65-.6ZM6.25,19.55a2.4,2.4,0,0,0,3.94,2.75l0-.05a2.49,2.49,0,0,0-.83-3.42A2.4,2.4,0,0,0,6.25,19.55ZM5.4,19.4a.24.24,0,0,0,.11.06.44.44,0,0,0,.58-.26.45.45,0,0,0-.26-.58v0h0a.43.43,0,0,0-.59.19A.45.45,0,0,0,5.4,19.4Zm-.67,1.21a.45.45,0,0,0,.43-.78.45.45,0,0,0-.43.78Zm.18,8.62.19,0a2.5,2.5,0,0,0,2.89-2,3.11,3.11,0,0,0,0-2l-1.83-.54-.52,1.76.82.24.19-.64.53.15a1.59,1.59,0,0,1-.07.78l0,.15a1.42,1.42,0,0,1-1.74,1l-.15-.05a1.49,1.49,0,0,1-.77-1.95,3.87,3.87,0,0,1,.9-1.54l-1-.38a4.34,4.34,0,0,0-.89,1.65A2.47,2.47,0,0,0,4.91,29.23ZM4.13,40.9A1.22,1.22,0,0,0,5.2,39.77a1.07,1.07,0,0,0,1,.52c.54-.07,1.13-.59,1-1.68l-.28-2-4.62.57.28,2.25C2.75,40.79,3.61,41,4.13,40.9ZM7,46.83A2.41,2.41,0,1,0,3.84,45l0,.13A2.49,2.49,0,0,0,7,46.83Zm2.14,1.44c.2-.12.46,0,.66.41a3.48,3.48,0,0,1,.37,1.48l.75-.45a3.86,3.86,0,0,0-.46-1.55c-.49-.89-1.3-1.29-2-.89C7,48.09,8.36,50,7.7,50.39c-.24.14-.49,0-.71-.38a2.65,2.65,0,0,1-.26-1.68l-.88.5a3.24,3.24,0,0,0,.44,1.69c.51.86,1.33,1.3,2.11.86C9.81,50.58,8.47,48.62,9.09,48.27Zm.7,7.15L12.72,53l1.07,1.3.7-.54-2.92-3.47-.66.54L12,52.1,9.05,54.52Zm5.63,5.26,1.34-4.94-1-.86-4.44,2.35.94.79.87-.48,1.59,1.34-.3,1Zm5.07-2.4-1.75-1-2.25,4.08,1.64.92c1.63.9,2.84.44,3.49-.73a2.24,2.24,0,0,0,.13-.27A2.31,2.31,0,0,0,20.49,58.28Zm3.74,3c.08-.22.38-.28.77-.15a3.64,3.64,0,0,1,1.27.85l.29-.91a3.93,3.93,0,0,0-1.39-.83c-1-.29-1.85-.05-2.1.71-.53,1.59,1.81,2.06,1.57,2.79-.08.25-.36.33-.78.19a2.63,2.63,0,0,1-1.32-1.07l-.32,1a3.2,3.2,0,0,0,1.46,1c1,.32,1.86.06,2.14-.78C26.32,62.47,24,61.91,24.23,61.25Zm7.46,5.1-1.36-4.89L29,61.27l-2.51,4.34,1.21.14.48-.86,2.06.29.25,1Zm5.86-.23-2.18-2.36,1.4-2.25-1.28.06-1.41,2.18L34,61.64l-1.16.06L33,66.34l1.16,0-.1-2.18,2,2.09Zm2.58-4.44,1.64-.38-.19-.82-4.41,1,.19.83L39,61.93l.85,3.7L41,65.37Zm2.06-6.07c.6.14,1.54.34,2-.22a.86.86,0,0,1,.94.49c.27-.13.19-.54.2-.77a.78.78,0,0,0-.43-.69c-.15-.1-.46,0-.51-.23a1,1,0,0,1,1,.12l.28.31a1.72,1.72,0,0,0-.06-1.14c-.46-.75-1.45-.33-2.15-.57-.1.06-.25,0-.33,0a1.49,1.49,0,0,1,1.32-.28.86.86,0,0,0-.08-.61,1,1,0,0,0-.82-.45,1.55,1.55,0,0,0-.89.22,2.82,2.82,0,0,0-2.48,1.32c-.39-.11-1.09.14-1.22-.43A1.89,1.89,0,0,1,39.28,51c.74-.64,1.75-1,2.26-1.85l.16.43a2.55,2.55,0,0,0,1.37-2.53,1.42,1.42,0,0,1,.48.23,2.52,2.52,0,0,0,0-1.28,3.32,3.32,0,0,0-.38-1.19,3.84,3.84,0,0,0-.79-1A5.84,5.84,0,0,0,40,42.48,12.54,12.54,0,0,0,37.1,42c-.5,0-1-.06-1.49-.08h-1.1c-.07,0-.29-.06-.35,0l1.33-.8a1.12,1.12,0,0,0-.9-.54A29.92,29.92,0,0,0,38.68,37a1.57,1.57,0,0,0,1.45-.54,2,2,0,0,0,.38-.83.2.2,0,0,1,.24-.15l.09.05a30.71,30.71,0,0,0,5.08,5.66l.47.4a22,22,0,0,0,5-5.5c1.22-2.06,2.23-4.87.7-6.92h0a2.31,2.31,0,0,0-2.28-.68,1,1,0,0,0-.6.51.68.68,0,0,0,.2.8A.7.7,0,0,0,50,30a1.6,1.6,0,0,1-.6.18.48.48,0,0,0-.67-.53.6.6,0,0,0-.62-.6.63.63,0,0,0-.19,0c0-.47-.66-.57-.85-.5-.13-.29-.21-.73-.61-.84s-.56.61-1,.76a1.29,1.29,0,0,0-1.24.54,1.24,1.24,0,0,0,.11,1,1,1,0,0,1-.4.18h-.11a.68.68,0,0,1-.5-.22l-.13-.14a.77.77,0,0,0,.67-.45.7.7,0,0,0-.07-.76,1.86,1.86,0,0,0-1.82-.23A3,3,0,0,0,40.08,30c-.4-.44-1-.86-1.08-1.43a2.29,2.29,0,0,0,.25-1.7c.7,0,1.66.08,2.14-.63a1.12,1.12,0,0,0,.18-1,1.67,1.67,0,0,0-.57-.61c-.25-.09-.63-.17-.72,0a1,1,0,0,1-.11.63c-.42.31-.77.13-1.26.05a4.67,4.67,0,0,1-.82-.25,2.94,2.94,0,0,0,2.48-1.18,6.33,6.33,0,0,1,.5-1.86.57.57,0,0,0,0-.26c-1-.57-2.34-.39-3.07-1.53v-.77c.64-.29,1-1.18,1.71-1.24a1.06,1.06,0,0,0-.22-.47,1,1,0,0,0-.9-.22.43.43,0,0,0,0-.58.39.39,0,0,0-.1-.08.59.59,0,0,0-.09-.67.74.74,0,0,0-.47-.2.51.51,0,0,0-.15-.33.56.56,0,0,0-.59-.11.52.52,0,0,0-.34-.38.56.56,0,0,0-.5.09.44.44,0,0,0-.17-.16,1,1,0,0,0-.29-.08.43.43,0,0,0-.29.1.84.84,0,0,0-.79-.89h0v-.37h.47v-.26h-.47V13.2h-.32v.37H34v.26h.45v.33a.85.85,0,0,0-.79.89.5.5,0,0,0-.7.09.75.75,0,0,0-.07.12.52.52,0,0,0-.73.08.54.54,0,0,0-.1.2.49.49,0,0,0-.66.21.49.49,0,0,0-.05.29.52.52,0,0,0-.59.46.5.5,0,0,0,.07.34.51.51,0,0,0-.34.62.37.37,0,0,0,0,.11,1.13,1.13,0,0,0-.82.19c-.24.14-.24.38-.35.57a1.13,1.13,0,0,1,.89.4,1.8,1.8,0,0,0,.91.62V20a7.6,7.6,0,0,0-1.65-.2,2.13,2.13,0,0,0,.08.94A2.31,2.31,0,0,0,30.49,22a2,2,0,0,0-1.6,1.09,3.33,3.33,0,0,0-.11,1.47c-.13.5-.38,1.13-.12,1.6-.12.6-.41,1.33-.06,1.91-.44.63.26,1.21,0,1.88a25.76,25.76,0,0,1-3.09-3,14.9,14.9,0,0,1-.75-2.06l1-.85a6.15,6.15,0,0,0-.63-.62,7.46,7.46,0,0,1-.79-.7l6.4-7A32.66,32.66,0,0,0,34,11.54a.18.18,0,0,0-.12-.17,2.58,2.58,0,0,0-1.31.65l-2.9,2.6-6.87,6.57c-.37-.48-.83-1-1.25-1.45l-1.28,1.17a7,7,0,0,1,.79.85c-.46,0-.75.48-.79.88a.83.83,0,0,0-.85.83.79.79,0,0,0,0,.3.63.63,0,0,0-.73.52,1,1,0,0,0,0,.17,2.25,2.25,0,0,0,.43.91.6.6,0,0,0-.08.63c.25.28.49.87.94.74l.08-.08a5.85,5.85,0,0,0,1.36,1.17l.74.3c.24.06,1,2.93,1.25,3.1l.28-.49a3.21,3.21,0,0,0,1,1.81c.11-.11,0-.31.09-.43A11.48,11.48,0,0,0,26,33.91l.17-.51a13.43,13.43,0,0,1,1.34,1.67,2.36,2.36,0,0,1,.43,2.24c-.94,2.53-4.07,4.07-4.32,6.88a2,2,0,0,1-1.94.24c-.26-.2-.57-.26-.65-1a2.39,2.39,0,0,1,.09-.84c.46-1.49,2.15-2.82,1.85-4.66a2.54,2.54,0,0,0-.71-1.51c.7-1.5,1.31-3.9-.08-5.32a3.75,3.75,0,0,0-2.87-1.09c-1.25.18-2.83.22-3.51,1.49a3.63,3.63,0,0,0-.29,2.08,7.63,7.63,0,0,1,.12,1.51h.23a1.14,1.14,0,0,0,.34,1.25c.32-1,1.51-.9,2.05-1.76,1-.83-.34-2.88,1.39-3a2,2,0,0,1,1.77,1.08A4.82,4.82,0,0,1,21,35.56a2.58,2.58,0,0,0-2.83.4c-1.07,1.11-2.78,1.24-2.81,3a8.39,8.39,0,0,0-.16,1.87c.15.06.28-.11.45-.08a2.35,2.35,0,0,0-.33,1.53,2.19,2.19,0,0,0,.39-.29c0,.25-.22.57-.06.86.75-.63,1.93-.42,2.4-1.49.65-1.14,0-2.55.45-3.79a1.36,1.36,0,0,1,1.76-.5c-.19.51-.52,1-.73,1.56-.77,1.67-1.24,4.27-.49,5.83a3.34,3.34,0,0,0,2.79,2.06,5.28,5.28,0,0,0,2.19-.32A1.94,1.94,0,0,1,24,48.11c-.91,1.33-3.12.21-3.36,2.17a3.37,3.37,0,0,0-.06,1l.21-.06a7.3,7.3,0,0,0-.32,1.4c.08.08.15,0,.22-.06a2.24,2.24,0,0,0-.06.52v.44a1.26,1.26,0,0,0,.06.42c.06.14,0,.24.07.36l.81-.63a2,2,0,0,0,.89,2c.89.47,2,.43,2.85,1v-.73c1,.24,2.46-.38,3.1.85.1-.49.32-1-.09-1.42.41-.42,1.08-.1,1.54,0a.74.74,0,0,0,0-.68c-.2-.54-.83-.57-1.16-1a1.89,1.89,0,0,1,1.49.14,1.14,1.14,0,0,0-.61-1,2.52,2.52,0,0,0-.82-.14,2,2,0,0,0-1.93-.32c-.58.46-1.28,1.09-2,.71a1.92,1.92,0,0,1,.12-2c1.12-.82,2.87.07,4-.65v.23c.91-.23,2-.48,2.39-1.49.11,0,.15.18.17.29a2.29,2.29,0,0,0,.83-1.82l.17.17A3.09,3.09,0,0,0,32.64,46c1.64.22,3.49.48,4.42,2.07A1.14,1.14,0,0,1,37,49.26a2.45,2.45,0,0,0-1.53,1.66,2.51,2.51,0,0,0,0,.67c.09.09.17,0,.28,0a2.66,2.66,0,0,0-.45,1.25v.6a.31.31,0,0,0,.25-.08,6.12,6.12,0,0,1,.12,2,3,3,0,0,0,1.25-.53.88.88,0,0,0,0,.71c.29.49.89.52,1.42.57a21,21,0,0,1,3.07.19A2.1,2.1,0,0,1,42,57.39C42.3,56.91,42.64,56.14,42.19,55.61ZM45.31,64l-1.69-4.33L42.54,60l1.69,4.34Zm4.75-2.39-.42-.72-2,1.1-.54-1,1.85-1-.41-.75-1.86,1-.47-.86,2-1.07-.41-.75-3,1.64,2.26,4.06ZM53.76,57a1.22,1.22,0,0,0-1.52-.3,1.08,1.08,0,0,0-.09-1.12c-.33-.41-1.08-.63-1.93.06l-1.57,1.27,2.93,3.61,1.76-1.42C54.4,58.26,54.1,57.44,53.76,57Zm3.52-5.45a2.4,2.4,0,1,0,.13,3.57s0,0,.05,0A2.5,2.5,0,0,0,57.28,51.57Zm4.43-3.19L61,48l-1.15,2.1-3.33-1.83-.56,1L60,51.49Zm2.08-5.74-5.07.5-.43,1.27,3.8,3.27.4-1.16-.76-.63.66-2,1-.06ZM64,37l-1.89-.25-.24,1.82.85.11.08-.67.55.07a1.76,1.76,0,0,1,.06.79c-.13,1-.75,1.53-1.57,1.42a.87.87,0,0,1-.22,0,1.48,1.48,0,0,1-1-1.84,4.18,4.18,0,0,1,.66-1.67l-1-.15a4.31,4.31,0,0,0-.62,1.77c-.23,1.65.59,2.91,2,3.1h.17A2.51,2.51,0,0,0,64.41,39,3.17,3.17,0,0,0,64,37ZM41.77,56.15a.92.92,0,0,1,.35.47v0a.76.76,0,0,0,0-.69Zm12.79-3.53a.27.27,0,0,0-.07.08,1.42,1.42,0,1,0,2-.22A1.36,1.36,0,0,0,54.56,52.62Zm-3.23,4a.49.49,0,0,0-.69-.14.24.24,0,0,0-.08.06l-.47.32.63.83.47-.38A.5.5,0,0,0,51.33,56.59Zm.56,1.18-.64.51.69.9.51-.41c.5-.4.57-.68.32-1S52.2,57.55,51.89,57.77ZM31.42,44.9c-.63-.76-1.23-1.53-.7-2.53.07-.11.18-.32.33-.32,0,.43-.13.8.14,1.12l.49-.8,0,0c1.48-1.61,3.42-2.64,4.9-4.12l-.45.1c-.9-.08-2,.29-2.7-.51a2.06,2.06,0,0,1-1.75-.48,1.78,1.78,0,0,1-1.79-.88c-.08-.48-.74-.57-.91-1.06a.52.52,0,0,1,0-.51l.08.09c.13.2.4.13.4,0a3.56,3.56,0,0,1-.18-2,1.48,1.48,0,0,1-1.11-.43,1.76,1.76,0,0,1-.32-1.76c.21.1.2.53.58.39a.4.4,0,0,0,.16-.32A32.75,32.75,0,0,1,25,27.19c-.26-.82-.56-1.64-.89-2.42-.35-.55-1-1.87-1.41-1.37a1.38,1.38,0,0,0-.07,1.09,5,5,0,0,0,.57,1c.08.12.14.26,0,.38-.36.15-.53-.1-.75-.33,0-.15,0-.52-.25-.52a16,16,0,0,0-1.56,1.52l-.07.07a3.63,3.63,0,0,0,1.67,1.14c.78.13.82,1.47,1.12,2.21.05.12.2.29.29.28s0-.64.24-.87a.08.08,0,1,1,.16,0,4.61,4.61,0,0,0,.55,2.36c.06.1.14.1.14,0A1.7,1.7,0,0,1,25,30.48l.15.08-.09,1c0,.32.43.95.71,1.32.18.19.14-1,.35-1s.09.85.28,1.2c.8,1.39,2.64,2.44,2,4.32C27.57,40,24.26,41.66,24,44.55a2.88,2.88,0,0,1-.65.39,2.4,2.4,0,0,1-1.35.18,1.81,1.81,0,0,1-1.36-1,2.78,2.78,0,0,1,.22-2.22c.91-1.39,2.2-2.86,1.43-4.7a1,1,0,0,0-.37-.45c-.11.25-.22.51-.34.76.91,1.86-1,3.19-1.76,4.67H19.8c-.3-1.47.44-2.64.91-3.86a17.93,17.93,0,0,0,1.68-3.77,3.14,3.14,0,0,0-3.7-4,4.77,4.77,0,0,0-2.2.71,2,2,0,0,0-.61,1.63,2.08,2.08,0,0,0,.94-1.14A.66.66,0,0,1,17,32c.1.59-.5,1-.9,1.36A.94.94,0,0,0,16,34.41c.36-.53.61-.44.88-.84a6.38,6.38,0,0,0,.37-.74l0,.53c.07.8-.45.88-.93,1.38a1.07,1.07,0,0,0-.22,1,1.3,1.3,0,0,1,1-.68c1.44-.41.71-2,1.14-3a1.53,1.53,0,0,1,1.26-.85,2.67,2.67,0,0,1,2.17,1.12c.69,1.47,0,3.08-.63,4.35-.91,1.86-2,3.64-1.91,5.94A3.79,3.79,0,0,0,20,44.9a4.15,4.15,0,0,0,.94.83c1.09.7,2.4.06,3.48-.22,0,0,.12,0,.12.1a3,3,0,0,1,.26,2.52c-.67,1-1.91,1.1-2.91,1.33a1.3,1.3,0,0,0-.71,1.2,2.47,2.47,0,0,0,.89-.4c0,.11.07.23,0,.34-.11.35-.5.42-.77.6a1.22,1.22,0,0,0-.37.94c.62.06.77-.61,1.08-.94l.06.2c0,.78-1.29,1.1-1,2l1.14-1c.14.71-.27,1.5,0,2.26a2.73,2.73,0,0,0,2,1c.15-.26-.54-.62-.4-.71a2.12,2.12,0,0,0,1,.06l.48.27c.54.43,1.43.14,1.92.26a.5.5,0,0,0-.24-.46A1.23,1.23,0,0,0,26,55c.3-.64,1-.23,1.46-.15s1,.24,1.34-.16c-.33-.94-1.48-.37-2.14-.49a.31.31,0,0,1-.23-.28,3.08,3.08,0,0,1,1.5-.23,1.1,1.1,0,0,1,.61-.38,1.33,1.33,0,0,0-1.31-.47c-.58.14-.57.76-2,1a1.36,1.36,0,0,1-1.13-.69c0-.87-.16-1.88.54-2.47,1.38-.66,3.17.2,4.38-.8a1.87,1.87,0,0,0,.43-1.42.82.82,0,0,1,.38.42,1.68,1.68,0,0,1-.29,1.25c.54-.12,1.29-.49,1.4-1.12a1.74,1.74,0,0,0-.5-1.47l.06-.06a1.57,1.57,0,0,1,1.24,1.14c.53-1.11-.46-1.63-.84-2.23h.17a1.46,1.46,0,0,1,1.18.8,1.24,1.24,0,0,0,0-1A5.33,5.33,0,0,0,31.42,44.9Zm2.29-27.21V16.62l-.12.07.11-.07a5.57,5.57,0,0,0-1,0,1.4,1.4,0,0,0-1,1.27.77.77,0,0,1,.78.15.42.42,0,0,1,0,.36,1.16,1.16,0,0,1-.57.43,2.3,2.3,0,0,0,1.35,0,1.2,1.2,0,0,1-.5-.61A1.4,1.4,0,0,1,33.71,17.69Zm2.34,4-.24-.12a4.4,4.4,0,0,1-1,.65,1.49,1.49,0,0,0,1,.29h.06A.61.61,0,0,1,36.05,21.65Zm-7.84,9.84a.49.49,0,0,0,0,.11.54.54,0,0,0,.72.25c.74-.26.49-1.26,1-1.73a3.31,3.31,0,0,1-.28,1.42c-.17.27-.42.62-.74.62a1.32,1.32,0,0,0,1.43,0c.43-.43.4-1.37.71-2,.13-.22.28-.55.57-.55h.05a.14.14,0,0,1,.09.19c-.84.55-.34,1.66-.69,2.42a.72.72,0,0,1-.67.45c.17.28.69.21,1,.12a2.7,2.7,0,0,1-.25.34c1.8,0,1.1-1.67,1.47-2.47a1,1,0,0,1,.81-.61v.06c-.94.75.06,2.12-.79,2.9a1.27,1.27,0,0,1-.42.31c.47.23,1-.2,1.09-.47a1,1,0,0,1-.18.65.88.88,0,0,0,.55-.15c1.08-.65.06-1.81.54-2.73a1.12,1.12,0,0,1,.8-.63c.07,0,0,.1,0,.16-1,.92.31,2.45-.78,3.39.44.21.93-.34,1.21-.72a5.46,5.46,0,0,1-.1.69.63.63,0,0,0,.56-.29,1.88,1.88,0,0,0,.1-1.28c0-.7-.16-1.4.38-1.88h0a.31.31,0,0,1,.44,0c-.06.07-.16,0-.23.14-.67,1.13.62,2.23-.22,3.3h.13c.39,0,.69-.44.86-.7a.91.91,0,0,1-.2.66h0a1,1,0,0,0,.92-.62c.43-.95-.44-1.66-.35-2.57.07-.15.16-.4.31-.4-.11,1.22,1.16,1.65.56,3.17.32,0,.7-.75.7-.75a2,2,0,0,0,0,.65,2.19,2.19,0,0,0,.61-2.18c-.14-1-1.41-1.17-1.41-2.17a1.64,1.64,0,0,1-1-.08,1.49,1.49,0,0,1-1.55,0,1.69,1.69,0,0,1-1.19.08,1,1,0,0,1-.62-.88,2.4,2.4,0,0,0,.53.37,1.62,1.62,0,0,0,1.65-.48c.2.13.15.37-.08.51.65.35,1.11-.18,1.65-.59.3,0,.21.42-.12.59a.8.8,0,0,0,.57,0c.64-.33.48-.94.4-1.33l-.19-.06c-.45.45-1,.1-1.61.18a2.76,2.76,0,0,0-1.24.16,1.19,1.19,0,0,1-1.24-.57,1.7,1.7,0,0,1,.14-1.34,2.11,2.11,0,0,1,1.73-.92c1,.15,2.34.49,3.34,0a1.42,1.42,0,0,0,.68-1.35H39.9c-.23,0-.3-.25-.23-.4l.62.06a.75.75,0,0,0,.38-.63l-2.14-.74c-.22-.22-.43-.6-.74-.72l-5.7-.07c-.13.08-.21.29-.37.36L30,20.22a3,3,0,0,0,.67,1.26,1.06,1.06,0,0,0,1,.28c.32,0,.58-.65.87-.2a3.14,3.14,0,0,0,3.3-.45c.65,0,1.28.49,1.91.11-.07-.44-.63-.35-.94-.51a.92.92,0,0,1,.92,0c.22.16.53.36.45.68A1.35,1.35,0,0,1,37,21.7a.78.78,0,0,1-.31.88,2.48,2.48,0,0,1-2.19,0c-.48-.62-1.41-.24-2-.49v3.74a4.18,4.18,0,0,1-.38,2c-.62,1-1.93.56-2.71,1.2a1.23,1.23,0,0,0-.25,1.09,1.15,1.15,0,0,1-.4,1.29A.61.61,0,0,1,28.21,31.49Zm4.15-12.15h4.75a1,1,0,0,0,1-.7,2.74,2.74,0,0,0,.39.09,1.25,1.25,0,0,1,.76-.75c0-.15-.4-.23-.66-.15a1.43,1.43,0,0,0-.73.6l0,0a.81.81,0,0,0-1.11-.28c-.12.21.61.51,1,.51,0,.32-.2.34-.36.41a2.83,2.83,0,0,1-2.21-.13.59.59,0,0,1-.24-.52s.34.21.58.1a.47.47,0,0,0,.36-.36.55.55,0,0,0-.59-.22c-.15.05-.31.35-.59.26a.8.8,0,0,0,.18-.41.41.41,0,0,0-.31-.32c-.12.06-.31.12-.31.33a.94.94,0,0,0,.13.4c-.25.1-.43-.19-.63-.25a.61.61,0,0,0-.63.21.53.53,0,0,0,.24.36c.26.16.54-.09.77-.09-.05.19-.08.43-.29.54a3.89,3.89,0,0,1-2.19.06h0a.34.34,0,0,1-.24-.43l.48-.11c.15-.06.43-.19.31-.39a.89.89,0,0,0-1,.34c-.23-.1-.28-.42-.54-.54a.73.73,0,0,0-.78.17,1.22,1.22,0,0,1,.76.61c.15,0,.28-.2.38-.12s.1.28.1.39l-.09,0C31.24,19.44,31.9,19.34,32.36,19.34Zm-.57,7.84c-.28,0-.62.17-.88,0,.36-.2,1-.35,1-.85-.82.52-1.94.34-2.61,1.2h.06a1.74,1.74,0,0,0-.29,1.13c.49-.61,1.38-.33,2-.68C31.39,27.85,31.79,27.54,31.79,27.18ZM32,24c-.25,0-.58.16-.82,0a1,1,0,0,0,.79-.55,8.84,8.84,0,0,0-2.27.83,1.32,1.32,0,0,0-.55,1.33C29.86,24.44,31.43,25.19,32,24Zm5.62-3.76-.41-.37.4-.28-6.15-.06.29.32-.29.34Zm-5.56,5.32a4.69,4.69,0,0,1-1.06,0c.32-.16.77-.31.92-.68-.75.33-1.56.11-2.06.56a2,2,0,0,0-.82,1.74h.15C29.88,26,31.53,26.81,32.09,25.53ZM32,22.81h-.22a2.41,2.41,0,0,1-.76,0c.28-.2.73-.14.9-.51-.75.36-1.83-.05-2.39.77v0a.83.83,0,0,0-.26.94C29.88,23,31.22,23.52,32,22.81Zm-10.81.48c.12.07.34.17.46,0a.88.88,0,0,0,0-.71c-.09-.23-.53-.69-.71-.23l0,0A1,1,0,0,0,21.15,23.29Zm16.09-5.94a1.7,1.7,0,0,0-1.85-.74v1.11a1,1,0,0,1,.77.43,2.41,2.41,0,0,1-.56.71,2.85,2.85,0,0,0,1.42,0l.08,0c-.24-.17-.61-.44-.61-.78a1.66,1.66,0,0,1,1-.22A1,1,0,0,0,37.24,17.35ZM22.8,22.86l-.59-.28a1.74,1.74,0,0,1,.17.59A.63.63,0,0,1,22.8,22.86ZM20,24.55c-.14-.23-.58-.46-.72-.29s0,.41,0,.57h0a.55.55,0,0,0,.54.35C20.1,25.06,20.1,24.78,20,24.55Zm.71-.11a1.38,1.38,0,0,0,.6.28,1,1,0,0,0-.17-.66A.5.5,0,0,1,20.67,24.44Zm3.87.1.59-.51c-.19-.2-1.48-1.35-1.48-1.35l3.74-4,4.84-5.32,1.28-1.53h-.12l-2.9,2.58-5.42,5.14L22.86,21.8c-.49-.5-.87-1.05-1.31-1.57h-.08l-.67.6L22.08,22A4.67,4.67,0,0,1,24.54,24.54Zm-2.25-.17V23.6h-.06a2.45,2.45,0,0,1-.14.8l-.47-.17a2.48,2.48,0,0,0,.06.54A4.93,4.93,0,0,0,22.29,24.37Zm-.84-.64A1.22,1.22,0,0,0,22,24a1.24,1.24,0,0,0-.11-.57A.52.52,0,0,1,21.45,23.73ZM77,2a41.71,41.71,0,0,1,7.56-.63c4.14,0,6.8.67,8.8,2.2A6.21,6.21,0,0,1,96,8.93c0,2.91-2,5.47-5.42,6.64v.09c3,.71,6.61,3.09,6.61,7.58a8,8,0,0,1-2.7,6.06c-2.23,1.92-5.85,2.82-11.08,2.82A52.91,52.91,0,0,1,77,31.76ZM81.12,14.4h3.75c4.38,0,7-2.16,7-5.07,0-3.55-2.86-4.94-7-4.94a18.69,18.69,0,0,0-3.66.27Zm0,14.49a22.36,22.36,0,0,0,3.47.18c4.28,0,8.23-1.48,8.23-5.88,0-4.12-3.76-5.83-8.28-5.83H81.12Zm41.47-8.06c0,8-5.9,11.54-11.46,11.54-6.24,0-11-4.31-11-11.18,0-7.26,5-11.53,11.43-11.53S122.59,14.17,122.59,20.83Zm-18.27.23c0,4.76,2.9,8.34,7,8.34s7-3.54,7-8.43c0-3.68-1.95-8.35-6.9-8.35s-7.1,4.29-7.1,8.42Zm21.53,6.77a11.33,11.33,0,0,0,5.52,1.57c3,0,4.47-1.43,4.47-3.23s-1.19-2.91-4.28-4c-4.14-1.39-6.09-3.54-6.09-6.15,0-3.5,3-6.37,7.94-6.37A12,12,0,0,1,139.07,11l-1,2.87a9.39,9.39,0,0,0-4.71-1.26c-2.47,0-3.85,1.35-3.85,3s1.38,2.6,4.37,3.67c4,1.44,6,3.33,6,6.56,0,3.81-3.14,6.55-8.61,6.55a13.69,13.69,0,0,1-6.46-1.56Zm23.64-22.9v5.21h6v3h-6V24.83c0,2.7.81,4.22,3.14,4.22a8.22,8.22,0,0,0,2.42-.27l.2,3a10.41,10.41,0,0,1-3.71.59A6,6,0,0,1,147,30.66c-1.19-1.17-1.62-3.09-1.62-5.65V13.14h-3.57v-3h3.57v-4Zm26,21.72a29.23,29.23,0,0,0,.38,5.2h-3.8l-.34-2.73h-.14a8.77,8.77,0,0,1-7,3.23c-4.66,0-7-3.1-7-6.24,0-5.25,5-8.12,13.84-8.08v-.45c0-1.79-.52-5-5.23-5a12,12,0,0,0-6,1.61l-.95-2.6a15,15,0,0,1,7.56-1.93c7,0,8.75,4.53,8.75,8.89Zm-4-5.88c-4.57-.09-9.75.67-9.75,4.89,0,2.56,1.81,3.77,4,3.77a5.7,5.7,0,0,0,5.49-3.6,3.86,3.86,0,0,0,.24-1.26ZM201.09,0V26.24c0,1.93,0,4.13.19,5.61h-3.79l-.19-3.77h-.09a8.6,8.6,0,0,1-7.85,4.27c-5.57,0-9.85-4.45-9.85-11,0-7.23,4.71-11.67,10.33-11.67,3.51,0,5.89,1.57,6.94,3.32h.09V0ZM196.9,19a6.18,6.18,0,0,0-.19-1.66,6.07,6.07,0,0,0-6-4.58c-4.32,0-6.89,3.59-6.89,8.39,0,4.4,2.28,8,6.8,8A6.25,6.25,0,0,0,196.94,23v-.24ZM206,27.83a11.26,11.26,0,0,0,5.51,1.57c3,0,4.47-1.43,4.47-3.23s-1.19-2.91-4.28-4c-4.14-1.39-6.09-3.54-6.09-6.15,0-3.5,3-6.37,8-6.37A12,12,0,0,1,219.31,11l-1.1,2.83a9.32,9.32,0,0,0-4.72-1.23c-2.47,0-3.85,1.35-3.85,3S211,18.2,214,19.27c4,1.44,6,3.33,6,6.56,0,3.81-3.14,6.55-8.61,6.55A13.79,13.79,0,0,1,205,30.83Zm-129.2,9H81V50.47h.1c1.47-2.42,4.14-4,7.85-4,5.7,0,9.75,4.48,9.7,11.08,0,7.75-5.18,11.6-10.32,11.6-3.33,0-6-1.21-7.71-4.08h-.1l-.19,3.58H76.69c.09-1.47.19-3.67.19-5.59ZM81,60a7.67,7.67,0,0,0,.19,1.44A6.41,6.41,0,0,0,87.49,66c4.38,0,7-3.36,7-8.33,0-4.35-2.37-8.07-6.85-8.07a6.62,6.62,0,0,0-6.37,4.84A7.37,7.37,0,0,0,81,56.08Zm43-2.32c0,8-5.89,11.51-11.46,11.51-6.23,0-11-4.3-11-11.16,0-7.26,5-11.52,11.42-11.52C119.49,46.48,123.94,51,123.94,57.65Zm-18.27.18c0,4.75,2.91,8.33,7,8.33s7-3.54,7-8.42c0-3.68-2-8.34-6.89-8.34S105.67,53.74,105.67,57.83Zm22.66-21h4.16V68.66H128.3Zm26.1,26.64a29.12,29.12,0,0,0,.38,5.19H151l-.34-2.73h-.18a8.77,8.77,0,0,1-7,3.23c-4.66,0-7-3.09-7-6.23,0-5.24,4.95-8.11,13.84-8.06v-.45c0-1.8-.52-5-5.23-5a11.92,11.92,0,0,0-6,1.62l-1-2.61a14.93,14.93,0,0,1,7.56-1.92c7,0,8.75,4.53,8.75,8.88Zm-4-5.87c-4.57-.09-9.75.67-9.75,4.88,0,2.56,1.8,3.77,3.94,3.77a5.72,5.72,0,0,0,5.57-3.63,3.86,3.86,0,0,0,.24-1.26Zm29.2,7.93c0,5-1,8-3.28,9.9A13.19,13.19,0,0,1,168,78a15.48,15.48,0,0,1-7.66-1.8l1-3a13.5,13.5,0,0,0,6.75,1.71c4.29,0,7.42-2.11,7.42-7.57V65h0a8.37,8.37,0,0,1-7.33,3.62c-5.7,0-9.79-4.56-9.79-10.57,0-7.35,5.09-11.52,10.37-11.52,4,0,6.18,2,7.18,3.76H176L176.2,47h3.66c-.09,1.57-.19,3.32-.19,6Zm-4.13-10a5.47,5.47,0,0,0-.24-1.8,6,6,0,0,0-5.85-4.17c-4,0-6.85,3.19-6.85,8.21,0,4.26,2.28,7.79,6.8,7.79a6.08,6.08,0,0,0,5.8-4,6.55,6.55,0,0,0,.34-2.1Zm12.31,3c.1,5.33,3.71,7.53,7.9,7.53A16.1,16.1,0,0,0,202.08,65l.72,2.82a19.49,19.49,0,0,1-7.66,1.39c-7.09,0-11.32-4.44-11.32-11s4.09-11.7,10.8-11.7c7.51,0,9.51,6.23,9.51,10.22a16.1,16.1,0,0,1-.14,1.84Zm12.28-2.82c0-2.51-1.1-6.42-5.81-6.42-4.23,0-6.08,3.68-6.42,6.42Zm13.18-14V47h6v3h-6V61.68c0,2.68.81,4.21,3.14,4.21a8.28,8.28,0,0,0,2.43-.27l.19,2.95a10.41,10.41,0,0,1-3.71.59,6,6,0,0,1-4.52-1.7c-1.19-1.17-1.62-3.1-1.62-5.65V50h-3.56V47h3.56V43Z"
  />
</svg>