<svg enable-background="new 0 0 427.708 293.619" height="170" viewBox="0 0 484.5 323" width="255" xmlns="http://www.w3.org/2000/svg" xmlns:xlink="http://www.w3.org/1999/xlink"><clipPath id="a"><path d="m0 0h427.70801v293.61899h-427.70801z" height="100%" width="100%"/></clipPath><clipPath id="b"><path d="m0 0h427.70801v293.61899h-427.70801z" height="100%" width="100%"/></clipPath><clipPath id="c"><path d="m0 0h427.70801v293.61899h-427.70801z" height="100%" width="100%"/></clipPath><clipPath id="d"><path d="m0 0h427.70801v293.61899h-427.70801z" height="100%" width="100%"/></clipPath><clipPath id="e"><path d="m0 0h427.70801v293.61899h-427.70801z" height="100%" width="100%"/></clipPath><clipPath id="f"><path d="m0 0h427.70801v293.61899h-427.70801z" height="100%" width="100%"/></clipPath><clipPath id="g"><path d="m0 0h427.70801v293.61899h-427.70801z" height="100%" width="100%"/></clipPath><clipPath id="h"><path d="m0 0h427.70801v293.61899h-427.70801z" height="100%" width="100%"/></clipPath><clipPath id="i"><path d="m0 0h427.70801v293.61899h-427.70801z" height="100%" width="100%"/></clipPath><clipPath id="j"><path d="m0 0h427.70801v293.61899h-427.70801z" height="100%" width="100%"/></clipPath><clipPath id="k"><path d="m0 0h427.70801v293.61899h-427.70801z" height="100%" width="100%"/></clipPath><clipPath id="l"><path d="m0 0h427.70801v293.61899h-427.70801z" height="100%" width="100%"/></clipPath><clipPath id="m"><path d="m0 0h427.70801v293.61899h-427.70801z" height="100%" width="100%"/></clipPath><clipPath id="n"><path d="m0 0h427.70801v293.61899h-427.70801z" height="100%" width="100%"/></clipPath><clipPath id="o"><path d="m0 0h427.70801v293.61899h-427.70801z" height="100%" width="100%"/></clipPath><clipPath id="p"><path d="m0 0h427.70801v293.61899h-427.70801z" height="100%" width="100%"/></clipPath><clipPath id="q"><path d="m0 0h427.70801v293.61899h-427.70801z" height="100%" width="100%"/></clipPath><clipPath id="r"><path d="m0 0h427.70801v293.61899h-427.70801z" height="100%" width="100%"/></clipPath><clipPath id="s"><path d="m0 0h427.70801v293.61899h-427.70801z" height="100%" width="100%"/></clipPath><clipPath id="t"><path d="m0 0h427.70801v293.61899h-427.70801z" height="100%" width="100%"/></clipPath><clipPath id="u"><path d="m0 0h427.70801v293.61899h-427.70801z" height="100%" width="100%"/></clipPath><clipPath id="v"><path d="m0 0h427.70801v293.61899h-427.70801z" height="100%" width="100%"/></clipPath><clipPath id="w"><path d="m0 0h427.70801v293.61899h-427.70801z" height="100%" width="100%"/></clipPath><clipPath id="x"><path d="m0 0h427.70801v293.61899h-427.70801z" height="100%" width="100%"/></clipPath><clipPath id="y"><path d="m0 0h427.70801v293.61899h-427.70801z" height="100%" width="100%"/></clipPath><clipPath id="z"><path d="m0 0h427.70801v293.61899h-427.70801z" height="100%" width="100%"/></clipPath><clipPath id="A"><path d="m0 0h427.70801v293.61899h-427.70801z" height="100%" width="100%"/></clipPath><clipPath id="B"><path d="m0 0h427.70801v293.61899h-427.70801z" height="100%" width="100%"/></clipPath><clipPath id="C"><path d="m0 0h427.70801v293.61899h-427.70801z" height="100%" width="100%"/></clipPath><clipPath id="D"><path d="m0 0h427.70801v293.61899h-427.70801z" height="100%" width="100%"/></clipPath><clipPath id="E"><path d="m0 0h427.70801v293.61899h-427.70801z" height="100%" width="100%"/></clipPath><clipPath id="F"><path d="m0 0h427.70801v293.61899h-427.70801z" height="100%" width="100%"/></clipPath><clipPath id="G"><path d="m0 0h427.70801v293.61899h-427.70801z" height="100%" width="100%"/></clipPath><clipPath id="H"><path d="m0 0h427.70801v293.61899h-427.70801z" height="100%" width="100%"/></clipPath><clipPath id="I"><path d="m0 0h427.70801v293.61899h-427.70801z" height="100%" width="100%"/></clipPath><clipPath id="J"><path d="m0 0h427.70801v293.61899h-427.70801z" height="100%" width="100%"/></clipPath><clipPath id="K"><path d="m0 0h427.70801v293.61899h-427.70801z" height="100%" width="100%"/></clipPath><clipPath id="L"><path d="m0 0h427.70801v293.61899h-427.70801z" height="100%" width="100%"/></clipPath><clipPath id="M"><path d="m0 0h427.70801v293.61899h-427.70801z" height="100%" width="100%"/></clipPath><clipPath id="N"><path d="m0 0h427.70801v293.61899h-427.70801z" height="100%" width="100%"/></clipPath><clipPath id="O"><path d="m0 0h427.70801v293.61899h-427.70801z" height="100%" width="100%"/></clipPath><clipPath id="P"><path d="m0 0h427.70801v293.61899h-427.70801z" height="100%" width="100%"/></clipPath><clipPath id="Q"><path d="m0 0h427.70801v293.61899h-427.70801z" height="100%" width="100%"/></clipPath><clipPath id="R"><path d="m0 0h427.70801v293.61899h-427.70801z" height="100%" width="100%"/></clipPath><clipPath id="S"><path d="m0 0h427.70801v293.61899h-427.70801z" height="100%" width="100%"/></clipPath><clipPath id="T"><path d="m0 0h427.70801v293.61899h-427.70801z" height="100%" width="100%"/></clipPath><clipPath id="U"><path d="m0 0h427.70801v293.61899h-427.70801z" height="100%" width="100%"/></clipPath><clipPath id="V"><path d="m0 0h427.70801v293.61899h-427.70801z" height="100%" width="100%"/></clipPath><clipPath id="W"><path d="m0 0h427.70801v293.61899h-427.70801z" height="100%" width="100%"/></clipPath><clipPath id="X"><path d="m0 0h427.70801v293.61899h-427.70801z" height="100%" width="100%"/></clipPath><clipPath id="Y"><path d="m0 0h427.70801v293.61899h-427.70801z" height="100%" width="100%"/></clipPath><path d="m114.349 287.467v-.15l-.3-.075z" fill="#ccc" transform="translate(0 -123.61899)"/><path clip-path="url(#a)" d="m116.224 289.117c0 .3-.375.149-.525.3-.619-.45-1.116-1.8-3.647-2.719 2.044-.028 4.247 1.669 4.172 2.419" fill="#ccc" transform="translate(28.396 14.688396)"/><path clip-path="url(#b)" d="m113.974 288.742c.225.3 0 .6-.15.75-.3.225-.844.216-1.003.009-.075-.449-.272-.834-.122-1.209 1.087-.136.367-.914 1.275.45" fill="#ccc" transform="translate(28.396 14.688396)"/><path clip-path="url(#c)" d="m92.606 237.03c0-.9.375-1.727.3-2.477 1.2-4.574 2.775-9.148 5.175-12.976.45-1.05 1.2-1.875 2.1-2.476l.075-.674h.075c-.3-.977.075-2.551-.675-3.227-.375-1.648-.825-3.449-.75-5.174-.15-1.201-.075-2.176-.075-3.301.15-1.125 0-2.851.45-4.051-.15-.898.225-1.8.375-2.699.3-1.051.45-2.176.9-3.15.6-1.949 1.125-4.125 1.95-5.699-.3-1.275-.15-2.324-.45-3.6 0-.676-.3-1.426-.075-2.176-.3-.449-.225-1.125-.375-1.65.375-.523-.3-.824-.15-1.273.15-.9-.75-1.426-.45-2.25-.15-.525-.45-.9-.45-1.576.075-.449-.6-.674 0-.975-.15-.375-.225-.525 0-.824-.525-.9-.225-2.326-.3-3.451.075-2.25.225-4.049.15-6.225-.225.525-.682.962-.849 1.462l-.051.188c-.975 1.574-1.425 3.523-2.325 5.1 0 .75-.75 1.275-.75 2.176-.3.148-.225.523-.525.674-1.275 3.076-3.3 5.701-4.8 8.625-.375.601-.675 1.125-.975 1.801-.3.074-.225.449-.45.675-.825 2.024-2.625 3.524-2.475 6.075-.15.976-.15 2.25-.675 3.074.15 1.5-.525 2.25-.525 3.9 0 .676-.375 1.199-.375 1.725-.3.976-.375 2.101-.975 2.851.225.226-.225.45-.15.75-.6 1.575-1.425 3.226-2.55 4.575-.9.675-1.875 1.125-2.625 1.875-.75 2.4-1.2 5.025-1.5 7.8-.075.226 0 1.051-.075 1.351l-.075 2.625c-.45.602.3.977-.15 1.649.225.601.3 1.274-.075 1.801v.675h-.075c.01.954-.3.977-.225 1.575.225.226-.075.449-.075.675l-.15 1.801c-.124.569.075.524-.15.975-.3 1.352-.675 2.775-1.125 4.051.15 1.125-.75 2.025-.825 3.225-.375 1.052-.75 1.5-.975 2.625-1.125 2.701-1.725 5.699-2.925 8.4-.225.299-.225.9-.3 1.275l-.225.299c.075.301-.075.826-.15 1.201-.9 3.674-1.95 7.725-2.55 11.625.3.225-.15.975.075 1.35-.15.824 0 2.025.225 2.924 0 1.275.075 3.451-.45 4.801-.225.375-.225 1.052-.75 1.199.375.15-.075.603-.075.9-.6.975-.9 2.25-1.2 3.525-.6 1.725-.225 3.899-.3 5.85 0 .451-.075 1.35.075 1.875-.45.225.15.676-.225 1.051 0 .9.15 2.025-.675 2.699l-.075.225c-1.575.9-4.125 1.426-5.7.301v-.301c-1.2-.375-1.875.676-3.075.603-.45-.15-1.05-.076-1.275-.451-1.425.076-2.775.226-4.05-.226l-.225.074c-.075 0-.525.076-.9 0-1.35-1.049-4.425-.225-4.125-3 .3-1.35.45-2.85 1.35-3.75.9-2.174 3.375-2.699 4.725-4.424 1.2-1.426 1.2-3.75 2.025-5.475.3-1.426.9-2.477 1.2-3.9.525-.75.6-1.801 1.2-2.475.15-.227.075-.602.3-.9.075-1.201.15-2.625.075-4.275h.15c-.225-.073-.45-.375-.225-.524-.225-.074.075-.149 0-.375-.225-1.274-.225-3.674-.375-5.324.075-1.725 0-2.7-.225-4.5.075-2.926-.15-5.774-.225-9 .075-.301 0-.975-.075-1.35l.075-.226-.075-.076c.3-2.85-.15-6.225-.3-8.85 0-.225.3-.225.075-.375.15-.975 0-1.801.075-2.625-.075-.676.16-.913.15-1.725.075-.301.225-.75 0-.977.3-1.875.45-3.824.9-5.625l.675-.898c-.3-.076-.225-.602-.15-.75.525-1.125.45-2.701 1.125-3.75-.45-.375.075-.602.15-.977.375-.074.075-.523.3-.675.9-.524.075-1.726.675-2.399 1.125-2.101 1.875-4.351 2.85-6.525.3 0 0-.449.225-.6.3-.375.525-.824.525-1.351.375-3.75 1.725-6.899 2.4-10.426.15-.824.075-1.8-.3-2.399l.075-.148c-.675-1.875-.45-3.301-.9-5.4.3-.375.225-.6.075-1.051v-2.023c.075-.149.225-.375 0-.451.15-1.424.45-3.375.45-4.948-.075-.9.525-1.5.6-2.177.15-.225.375-.823.15-1.274.075-.449-.15-1.574.15-2.024 0-.3 0-.824.15-1.199 0-.525.225-1.199.15-1.65 0-.148.3-.299.075-.523.375-2.399 1.2-4.649 1.65-7.125 1.425-4.125 2.55-8.477 4.2-12.377-.525-1.272-1.425-2.324-2.325-3.299-.675-.6-1.425-1.125-2.175-1.65-2.25.449-3.3 2.474-4.725 4.05-.75 1.049-1.5 2.174-2.25 3.299-.299.805-.6.9-.675 1.5-.6.525-.29 1.555-1.04 2.305-.167 1-.46.922-.46 1.445-.375.076-.6.227-.975 0-.375-.225-.45-.75-.675-1.125-1.875-3.074-1.95-8.025-1.725-11.775.3-2.774 1.425-5.1 2.55-7.35.675-1.649 2.025-2.924 3.15-4.274 1.575-5.025.525-10.501.15-15.976l-.225-.75-.375.076c-.825 1.35-2.025 2.325-2.925 3.525-1.2.899-1.95 2.024-3.225 2.774-.075.151-.375.151-.525.375-.9.375-1.725 1.576-2.925.901-.675-.225-1.05-.901-1.65-1.276-.3-.375-.75-.599-.9-1.125-1.2-1.349-2.175-3-3.075-4.724-1.05-1.875-1.425-4.575-1.65-6.6.075-2.775.225-5.025 1.125-7.35-.225-.15.075-.375.075-.6.45-2.775 1.5-6.226.225-9.075-.45-1.125-.6-2.401-1.05-3.526 0 0 .15-.299-.075-.375.3-2.849.525-5.474.75-8.474.525-3.151.375-6.225.825-8.926-.15-1.5 1.425-2.625.375-3.899-.75-1.5-1.35-3.076-2.025-4.576-.057-.237-.15-.75-.15-1.049-.6-1.425-1.05-2.775-1.5-4.275-.45-1.051-.525-2.475-.975-3.6-1.425-5.775-2.7-11.775-5.175-16.875-.375-1.5-.6-3.451.45-4.5.75-1.05 2.1-1.05 3.45-.75.675.299 1.381.612 1.906 1.062.562.25.269.212.419.212.268.226.393.288.6.301 2.175 1.5 4.275 3 6.3 4.65 1.425 1.574 3 2.85 4.5 4.424 1.05.75 1.95 1.875 2.925 2.701.975 1.424 2.325 2.324 3.375 3.75.9.525 1.2 1.799 2.175 2.324.9.901 1.575 1.951 2.55 2.776.675.675 1.961 2.574 3.086 2.449 1.375.875 3.25.85 4.75 1 3.625-1.875 7.125-3.25 11.75-4.25 2.326-3.075 4.714-8.125 6.364-11.574.375-.526.75-1.125.525-1.875-1.275-.375-2.25-.975-3.825-.901-.75.451-1.05 1.201-1.125 2.1.15.826.45 1.576 1.2 1.875.225.226.075.601-.075.826-1.65.674-3.3-.301-4.35-1.275-.9-1.2-.675-3.301-.15-4.725-.6-2.1.3-3.6 1.575-4.875.6-.525 1.425-.975 2.025-1.576 0-1.574.825-2.475 1.65-3.449 1.05-.225 1.05-1.5 1.35-2.325.15-.525.975-.976.375-1.576-.3-.674-.6-1.424-.6-2.324.3-.975.375-2.176 1.35-2.551.75 0 1.425.826 2.25.225 1.725-1.049 3-2.924 4.8-3.824.9-.75 1.575-.75 2.775-1.125l1.125-.225c.825-1.125.675-2.85 1.725-3.826 1.875-.225 2.4-2.174 3.675-3.149 1.275-1.201 2.625-2.4 4.65-2.701 1.05-1.424 2.7-2.324 4.575-2.699 1.2-.975 2.1-2.551 4.2-2.025 1.05.15 1.65.9 2.1 1.724 1.05.826 2.325 1.276 3.225 2.176 3.15.6 4.425 3.975 7.05 5.174 1.125.676.975 2.476 2.25 3.076 1.95.525 3.525 1.725 4.125 3.674.375 2.701-.975 5.176-3 6.451l-2.175.975c-.975 1.65-1.8 3.224-2.925 4.724-.825 2.85-1.2 6.151-1.725 8.926-.225.299-.45.824-1.2.674-.675-.225-2.175-.899-2.475.226-.525.975-1.275 1.799-1.95 2.7-.525.375-.975-.375-1.425.074-.375.451-.075 1.5-.9 1.351-.45-.076-.975-.375-1.425-.15-.6 1.049-1.425 2.025-2.1 3-.975.525-1.8-.75-2.7-.301-.225.901.075 1.725-.225 2.551 0 .674-.375 2.4.3 3.074 3.9.301 8.175.6 11.4 2.176 1.575-.301 3.15-.525 4.725-.826 1.275.076 2.775-.225 4.125 0 1.5.076 3.3.226 4.8.525 3.9.526 6.9 2.1 10.35 3.375 1.575-.299 2.925-.9 4.5-1.199 4.125-.375 8.775-.826 12.975-.301 2.1.451 4.2.676 6.225 1.201.075-.076.225-.15.15-.375h.15c2.175-5.25 5.1-10.05 8.25-14.625.975-1.576 1.35-3.601 2.025-5.326 1.05-4.275 2.55-8.099 4.65-11.625l-.15-.525c-1.95-1.35-3.975-2.85-5.25-4.725-.45-.449-.75-.974-1.275-1.349-.3-.75-.9-1.125-1.2-1.875-1.725-2.026-2.775-4.575-3.225-7.5.075-.6.075-1.2.525-1.575.6-.525 1.8-.076 2.25-.75.15-.375.45-.675.75-.9.75.074 2.1.375 2.25-.6.45-.601 1.125-1.05 2.175-.976.975-.074 1.8.75 2.7.375 1.05-1.199 3.075-1.5 4.8-1.35 4.65-.15 9.15-.15 13.5 0 4.125-.074 8.025-1.049 12.15-.599 1.351.074 1.575 2.099 3.149 1.5 1.5-.676 2.476.224 3.301 1.05.149.375.449.524.75.75.824-.15 1.5-.3 2.175.075-.149.599.675.15.524.75.825.3 1.801-.375 2.399.224.226 0 .375.301.45.526.601 1.05-.301 2.099-.6 3.15-1.275 2.4-2.551 4.875-3.977 7.199-.074.6-.6.826-.824 1.35-.601 1.125-1.65 1.951-1.5 3.676-.75 2.099-1.801 4.275-3.75 5.324-2.926 2.25-7.051 3-11.101 3.676-4.2.824-8.325 1.199-12.75 1.8-.525.149-.825.674-.975 1.274h-.075c-1.05 2.775-1.5 5.4-1.95 8.625l-.019.226c.075.3-.07.774-.132 1.024-.525 2.025-.449 3.625-.974 5.576-.026.549-.151.674-.151 1.049l-.149.451-.3 1.574c0 .151-.3.225-.075.375-.45 2.026-1.275 3.75-1.725 5.701-1.575 3.225-1.875 6.75-3.75 9.6-.6.9-1.725 1.35-2.7 1.424-1.5.226-3.075 0-4.65.451-4.2.975-8.1 2.549-12.15 3.9-4.125 1.125-8.475 2.475-13.275 2.25-1.425-.451-2.85.225-4.35.149-.9.226-1.95.226-2.925.375-3.675.525-6.975.676-10.575 1.201-.675.074-1.95-.15-2.325.6-.075 1.125-.15 1.724-.3 2.849 0 1.35-.3 2.701-.075 3.975-.225.375-.075 1.576-.3 2.101-.15 1.274-.3 2.25-.525 3.525-.15.675-.3 1.575-.6 2.325.075.3-.15.824-.15 1.199l-.375 2.25h-.075c-.075.601-.375 1.276-.375 2.101-.225.6.075.975-.3 1.5 0 1.575-.375 3.675 0 5.399-.075 2.401.75 4.5 1.35 6.6 1.425 3.826 3 7.5 4.125 11.476.075.15.174.837.111 1.15-.375.6-.111.875-.186 1.55-.45 4.275 2.1 7.2 3.15 10.8-.075.75.3 1.35.525 2.024.525 1.5.924 2.088 1.074 3.813l.051.913c.15 4.199-1.089 6.962-1.989 10.712-.062.75-.411.987-.336 1.438-.375 1.049-.45 2.25-.675 3.375-.225 1.424-.225 2.398-.675 3.601.061.837-.3.75-.225 1.198-.225.9-.3 1.802-.6 2.625.074.389-.075.302-.075.451-.075.601-.164.812-.351 1.312l-.099.413c-.525.674-.525 1.574-.9 2.324 0 .225.375.524 0 .676l-.75 2.023c-.15.524-.6.899-.375 1.5-.6 1.575-1.725 2.7-2.025 4.5-.525.977-.9 2.024-1.35 3-.9 1.801-1.575 3.75-2.55 5.477-.9 2.023-1.725 4.125-2.775 6.074-.375.975-.825 1.875-.975 3-.375 0-.075.524-.225.676-.675 1.424-1.125 3.299-1.425 5.023-.525.977-.375 2.325-.825 3.375 0 .75-.3 1.352-.45 2.024.15.826-.269 1.263-.45 1.801-.15 1.199-1.05 1.875-1.275 3.074-.15 1.576-.825 3.301-.45 4.649.15.677-.225 1.125 0 1.726-.3.976 0 2.101-.45 3.076.375.674-.225 1.198 0 1.725-.15.525.075.75-.225 1.125-.225 3.226-1.05 6.375-2.025 9.3-.124.955-.3.75-.225 1.274-1.05 3.076-2.55 6-3.6 8.851h.075c-.6 1.875-1.275 3.676-2.175 5.176.075.6-.375.824-.375 1.35-.375 0-.3.525-.45.75-.6 1.051-.9 2.326-1.425 3.525-.6 1.051-.9 2.324-1.5 3.375l.075.074c-.9 1.727-1.425 3.75-2.325 5.477-.282.854-.525 1.049-.525 1.725-.75 1.65-1.425 3.674-2.025 5.549 0 .676-.15.375 0 .676 3.6 4.5 5.85 10.726 11.775 12.9 1.95.75 4.125 1.65 4.5 3.975.225.75-.3.976-.525 1.427-.825 1.049-2.7-.149-3.6.674-.975.149-1.875-.674-2.7 0-.675 0-1.65.149-2.175-.149-.9.451-2.175.75-3.15.149-.9-.601-1.65.375-2.625.302-.975.299-1.125-.525-1.875-.451-.525-.375-1.125-.601-1.65-1.049-1.725-.976-4.95-.601-6.975-.302-.45-.375-.9 0-1.35-.375-1.65-.899-2.55-2.549-2.925-4.5-.15-1.573-.45-3.299-.075-4.875.3-.976.15-2.323.45-3.375h.075c-.075-.823.375-2.174.45-3.299l.3-.899-.075-.076c.6-1.726.975-3.75 1.35-5.773.068-.562.15-.525.15-1.051-.15-1.35.225-2.625.375-3.975 0-1.201.375-2.851.375-3.9.225-.676.225-1.801.3-2.4.375-3.9 1.125-8.1 1.125-11.699-.225-.15.075-.525-.075-.676-.375-.375-.075-1.273-.3-1.725-.15-.975-.075-1.725-.075-2.625l.075-1.275m-17.103-116.22c0 .225.031.25-.15.675-.675 1.65-.975 3.45-1.5 5.25 0 .45-.225.975-.15 1.275-.3.675-.225 1.65-.6 2.4-.525 1.275-.9 2.625-1.125 4.05.825 1.125 2.1 1.875 2.925 3.075.75.45.45-.675.9-.9.525-1.5 1.35-2.925 2.475-4.05.525-.6-.375-.9-.3-1.5-.45-.675-.525-1.575-.825-2.4-.057-.75-.182-1.25-.369-2.063l-.188-1.312c-.225-1.125-.268-2.025-.568-3-.119-.375-.244-.75-.525-1.5" transform="translate(28.396 14.688396)"/><path clip-path="url(#d)" d="m119.299 1.717c-.3.3-1.125.15-1.5.075l-.075-.15c.299-.225 1.275-.3 1.575.075" fill="#ccc" transform="translate(28.396 14.688396)"/><path clip-path="url(#e)" d="m218.45 2.767c-3.525.975-7.651 1.275-11.476 1.65-4.275 0-8.475.375-12.675-.3-1.35-.225-2.7-.3-3.975-.6l-.45-.225c1.05-.825 3.3-.3 4.65-.525 3.975-.075 7.8.3 11.7.075.225-.15.675-.15.825 0 3.3-.3 7.2-.6 10.726-.45z" fill="#d0d2d3" transform="translate(28.396 14.688396)"/><path clip-path="url(#f)" d="m122.149 3.967c-.075.45-.975.225-1.275.225-2.625.075-5.1.375-7.875.375-.225-.225.225-.375.3-.6 1.5-.375 3.075-.75 4.875-.675 1.125.225 3.15-.225 3.975.675" fill="#ccc" transform="translate(28.396 14.688396)"/><path clip-path="url(#g)" d="m223.7 4.342c-.75.525-1.801.675-2.775.9-5.024 1.125-10.275 1.8-15.9 2.1-6.225.225-12.525-.075-17.625-1.8-1.125-.45-2.475-.525-3.45-1.125.3-.45.75-.75 1.425-.6 1.2.375 2.4.675 3.675.9.225 0 .525.3.75.075 2.475.75 5.325.75 7.95 1.275.6-.15 1.65-.075 2.1-.075.9.225 1.95-.15 2.85.15 1.2-.375 2.25 0 3.525-.225 1.125.075 2.475-.225 3.525-.15 4.275-.375 8.25-1.2 12.15-2.025.824-.075 1.499 0 1.8.6" fill="#d0d2d3" transform="translate(28.396 14.688396)"/><path clip-path="url(#h)" d="m227.599 6.667c.75.15 1.575-.675 2.101.075-.301 1.275-1.051 2.25-1.5 3.45-.449.15-.301.825-.601 1.05-1.575 2.775-3 5.7-5.101 8.1-.674.15-.899 1.2-1.726.825-.3-.3-.448-.9-.976-.9-1.274-.225-2.25.6-3.149 1.125-2.475.975-4.725 2.175-7.424 2.85l-3.6.3c-5.25-.45-11.025-.75-15.975-1.8-2.175-1.275-4.2-2.625-5.55-4.725-.45-.3-.6-.825-1.05-1.2-.9-1.35-2.175-2.55-2.775-4.2-.3-.375-.45-.75-.675-1.2-.3-1.05-.75-1.95-.975-3.075-.075-.975 1.8 0 2.1-.825.375-.225.225-.975.9-.825 3.15.6 6 1.65 9.15 2.25 1.425.525 2.625.525 4.275.75 1.95-.075 3.75.525 5.475.15 2.1-.075 4.5.15 6.75-.15 1.725-.225 3.525-.3 5.175-.675 1.95 0 4.049-.525 6-.9l2.174-.225c.451-.3 1.125-.225 1.726-.375 1.5-.225 2.7-1.05 4.274-.9.227.449.302 1.125.977 1.05" fill="#d0d2d3" transform="translate(28.396 14.688396)"/><path clip-path="url(#i)" d="m122.074 5.617c.825 0 1.575.3 2.4.075.45.3 1.2.075 1.5.45.075.3.525.45.675.675l.675.75-.225.15c-3.975 0-7.5.075-11.4-.075-.975.525-1.8-.225-2.775.3-2.175.3-4.35.675-6.525 1.05.75-1.2 1.95-2.25 3.375-2.625 2.325-.45 4.5-.225 6.975-.6 1.95 0 3.45-.225 5.325-.15" fill="#ccc" transform="translate(28.396 14.688396)"/><path clip-path="url(#j)" d="m124.024 9.217c1.875.15 3.3 0 4.95.45.75.3 1.425.75 2.025 1.275-.075.3.525.375.15.75-1.725.675-3.975.525-6 .825-1.35.225-3.6-.15-4.95.375-1.725-.075-3.975.075-5.925.15l-3.15.075c-2.25.3-4.2.9-6.375 1.2-.45-.075-.675-.075-1.2-.075-.6.075-.9.15-1.425-.075l-.075-.225c.3-.75.45-1.575.9-2.175 4.125-1.35 8.475-2.625 13.425-2.475l5.625-.15c.825.15 1.2.075 2.025.075" fill="#ccc" transform="translate(28.396 14.688396)"/><path clip-path="url(#k)" d="m136.474 15.892c.15.45.15 1.2 0 1.575.075.9-.6 1.725-.975 2.475-.6.825-1.35 1.35-2.25 1.725l-.45-.075c.9-1.575 2.1-3.375 1.35-5.55l.15-.15c-.375-.975-1.05-1.725-1.575-2.625 1.725.15 3.15 1.2 3.75 2.625" fill="#d0d2d3" transform="translate(28.396 14.688396)"/><path clip-path="url(#l)" d="m128.449 14.317c.525 1.2.225 2.475 0 3.6-.6 1.575-1.8 2.925-3.75 3.15-.45 0-.9 0-1.125-.3.75-2.025 2.25-3.9 1.5-6.6.375-.375 1.05-.3 1.575-.45.75 0 1.575 0 1.8.6" fill="#d0d2d3" transform="translate(28.396 14.688396)"/><path clip-path="url(#m)" d="m132.499 15.592c.225.525.3 1.275.3 1.8.075 1.35-.75 2.475-1.425 3.45-.825.675-2.025 1.35-3.3.825l-.3-.225c.45-.225.45-.975.825-1.275 1.275-.975 1.65-2.925 1.725-4.725-.225-.525 0-.975-.225-1.575 1.275-.075 1.875.975 2.4 1.725" fill="#d0d2d3" transform="translate(28.396 14.688396)"/><path clip-path="url(#n)" d="m123.349 14.317c1.125 2.1-.225 4.5-1.425 5.925-.6.3-1.2.975-2.025.6.675-1.2 1.275-2.4 1.5-3.9 0-.075 0-.675.075-.825 0-.6-.675-1.8.225-2.025.525.075 1.35-.225 1.65.225" fill="#d0d2d3" transform="translate(28.396 14.688396)"/><path clip-path="url(#o)" d="m116.524 14.617c-.75 1.5-1.875 2.775-2.175 4.575-.375 1.2-.45 2.775-.3 4.125-1.05.075-1.65-.675-2.025-1.425-.45-1.725-.075-3.45.75-4.875.525-1.05 1.275-2.175 2.625-2.475z" fill="#d0d2d3" transform="translate(28.396 14.688396)"/><path clip-path="url(#p)" d="m112.324 14.767c-.975 1.875-2.25 4.05-1.95 6.225h-.075c.15.15 0 .375-.15.525-.975-.45-1.125-1.65-1.2-2.7-.075-1.5.675-2.475 1.5-3.375.45-.225.825-.9 1.425-.675z" fill="#d0d2d3" transform="translate(28.396 14.688396)"/><path clip-path="url(#q)" d="m56.738 249.306c.075-1.5-.8-2.594-.5-4.019-.3-1.125.15-3.075-.15-4.351-.075-1.799-.45-3.976-.225-5.625-.225-1.649.3-3.299.225-4.875.075-.976.6-1.574.45-2.625.225-.824-.075-1.666.45-2.34-.15-.451.25-.561.25-1.084 0-.076.184-.666.108-.666.676-.303.059-1.068.434-1.668.375-.976.408-1.816.858-2.792.6-1.274.692-2.608 1.142-3.958.074-.15.525-.726.375-.875.375-1 .75-3.292 1.333-4.207.5-1.168.809-1.477 1.333-2.75 0-.227 0 0 .5-.834 0-.334-.058-.291.167-.666l.175-.511c-.15-.226-.233-.508-.008-.657.25-3.166 1.166-5.832 2.108-9.541.058-2.209-.9-4.352-1.125-6.677.225-.073 0-.226 0-.375h.075c-.15-2.399.45-5.25.525-8.024.075-.976.45-1.949.375-3 .15-1.125.6-2.625.675-4.125.375-.375 0-1.274.375-1.649-.225-.226.242-2.759.242-2.981.75-3 .55-3.25 1.375-6.25.6-1.951 1.325-4.052 2-6 .151-.455.125-.875.5-1.875.226-1.279.75-2.177 1.125-2.625.75.448.85.948 1.375 1.625 0 .448.625 1.375 1 1.75.9.375 1.125-.375 1.125-1 .75-1.375.875-1.625 1.375-2.375-.082.287.675-1.113.75-1.188.312-1.062.312-.562.312-1.75.063-.5.08-.649 0-1.25-.094-.712-.027-.82-.187-1.5-.075-1.424-.564-2.467-.813-3.625-.189-.88-.002-1.225.021-1.404.225-1.05-.396-2.408.667-3.783.573-.742.354-1.721 2.375-3.625.791-2.408-1.396-5.921-2.313-9.313-.534-1.976-.986-3.485-1.404-5.779.75-2.775.675-6.45 1.125-9.225 0-.975.075-2.325.075-3.45.3-.225-.225-.45.075-.675 0-1.5.108-2.958.108-4.308 0-.075.15-.6 0-.75l-.016-.684c0-.825.016.184.016-.566l-.083-1.917c-.258-3.975-.6-6.158-1.5-9.833.075-.3-.25-.75-.458-1.875l-1.375-4.708c1.333 1.166 3.875 2.041 5.75 2.166 1.274.085 2.753.091 3.75 0 1.375-.125 2 0 3.166-.5.75-.416 1.417-.333 1.709-1.458-.042-1.292-.209-1.375-.875-2.25-.925-1.214-.834-1.292-1.75-2.125-.3-.45-1.5-1.375-1.875-1.75 0-.225-1.834-1.325-1.909-1.55-1.575-1.5-4.416-2.408-6.216-3.533-1.65-.525-1.367-.533-3.167-.834-.833-.583-1.162.047-2.208-1.208-1.25-1.5-1.65-3.825-2.625-6-.375-.875-1.75-2.875-1-2.875 1.65.45 5.308 1.783 6.958 2.083.6.075 1.65 0 2.25.075 1.725-.15 3.525-.225 5.175-.6v.075c2.325-.075 4.425-.525 6.825-.15.3 0 .45-.3.525-.525-.15-.6-.75-.6-1.275-.75-.825-.3-1.8.075-2.625-.15-4.125.15-8.4 1.275-12.3.6l-.15-.15c2.325-1.725 5.475-2.25 8.325-3.075.825-.45 2.25-.15 3.075-.6 1.125-1.125 1.95-2.25 2.85-3.45l-.075-.075 1.067-1.933c-.075-.375.75-1.125.75-1.5.375-.45.325-1.1.625-1.625.075-.6.75-.7.75-1.375.375-.825.675-1.875 1.125-2.625.75-1.875.625-3 4-3.625.675.3-.65 3.475-.5 4-.825 2.4-.917 5.008-1.142 7.708l-.075.6.15-.375c-.144.175-.075.225-.15.375.075.45.225.825.6.975.45.075.6-.375.825-.675v-.6l.149-2.97c.224-2.176.393-4.35 1.143-5.788.125-.75.375-1.312.732-2.163.339-.809.75-1.649 1.049-2.549.525-1.051 1.576-1.725 1.875-2.85.375-.226.375-.9.75-1.201.451-1.125.9-2.25 1.5-3.299 1.05.524 2.55 1.049 3.826.75.674-.226 1.199-.675 1.65-1.05.225-.45.899-.676.524-1.35-1.049-.301-1.649.75-2.475 1.049-.6.375-1.574.15-2.025-.149-1.575-1.425-2.625-3.375-2.325-5.925.225-1.5.676-3.151 1.95-3.825.976-.675 2.775-1.05 3.9-.375 1.35.674.975 2.774 2.551 3.149.074.525.75.451 1.125.676l.074-.075c1.275.075 1.65 1.274 2.926 1.35.525.375 1.424.074 1.949-.076.375-.299.676-.75.451-1.274-.375-.826-.451-2.025-.301-3.076h.075c.226-2.174 1.5-4.125 3.15-5.474.826-.225.9.599 1.125.9.15 2.475-.9 4.5-2.699 5.625-.451.375.15.6.299.75 1.125.449 3.076.449 4.125 0 1.351-.15 2.625.824 4.125.225 1.275.449 2.4 1.425 4.125.9l1.5-.375c-.45 2.4-2.625 3.525-3.075 5.85-.599 2.324-.974 4.8-1.425 7.275-.375.6-.975 0-1.5 0-.899-.375-2.024-.676-2.174-1.801-.451-.224-.75.151-.975.451-.301.75.299 1.274.674 1.725.301.15.75.449.451.824h-.076c-.15.75-.824 1.576-1.5 2.1-1.275 0-1.5-1.875-2.924-1.199-.375 1.125.975 1.199.524 2.175-.75-.15-1.2.225-1.575.524-.525 1.051-1.199 1.951-1.875 2.926-1.349.224-2.175-2.1-3.224-.375-.301 1.724-.526 3.974-.451 6.074.226 1.5-.075 3.226.525 4.65 0 .151.15.826-.15.975-2.85.676-5.774 1.125-8.25 2.326-1.274.375-2.024-.525-3.225-.6-2.025-.525-4.574-.226-6.6.075-.224.224-.75.224-.75.75.075.3.301.449.526.525 1.424 0 2.775-.301 3.974-.301 1.651-.15 3.45.451 5.026.901 2.324.3 3.75-1.276 5.849-1.5 3.301-.676 7.051-1.575 10.651-.975 1.65.375 3.449.449 5.099.674.375 0 .301-.449.45-.6-.225-1.049-1.649-.674-2.25-1.349 1.5-1.125 3.525-1.426 5.625-1.801.3.15.675-.149 1.201-.074l3.375-.225 3 .299c3.599.451 7.349 1.201 10.349 2.851.526.299 1.276.375 1.651.975 1.65.074 3.074-.75 4.724-1.051 1.875-.599 4.2-.525 6.301-.75 2.475 0 5.625-.074 8.174.375 2.1.451 4.201.901 6.375 1.35.975-.899.975-2.475 1.65-3.6.526-1.349 1.35-2.549 1.95-3.824l.219-.538c.25-.562.306.313.306-.362.375-.375.169-.838.694-1.138.125-.437.507-.737.656-1.112 1.65-3.075 4.275-5.475 5.025-9.225.225-.525.301-1.051.525-1.5.375-1.275.75-2.625 1.125-3.9.825-2.176 1.575-4.5 2.7-6.526.451-.75.976-1.5 2.025-1.574 2.701.525 5.625.75 8.4 1.125l.45-.076c.976.226 2.326.301 3.3.301.301.3.6 0 1.125.074 4.875.826 8.776-1.274 12.601-2.774l2.326-1.125c.375 0 .147.375 0 .524-2.25 2.176-5.177 3.451-8.625 4.051-.226.224-.226.525-.375.824.074.75 1.049.525 1.649.525 4.05-1.049 7.5-3 10.65-5.25l.149.076c-1.649 3.674-5.551 5.25-9.525 6.149-5.025.9-9.75 2.025-15.15 2.326-1.2.375-2.924.225-3.299 1.574-.676 1.801-1.201 3.75-1.651 5.701 0 .225-.019.437-.074.6-.601 3.074-.601 4.35-1.051 7.5-.525 4.049-1.724 7.65-2.849 11.25-.301.525-.375 1.199-.676 1.725-.674 1.724-1.049 3.75-1.875 5.4l.076.074c-.601 1.201-.976 2.551-2.101 3.301l-3.375.225c-3.75.375-7.049 1.724-10.35 2.775-2.699 1.199-5.699 1.799-8.549 2.625-3 .6-6.226 1.574-9.525.9-3.975.149-7.576.825-11.326 1.2-2.625 0-5.174 1.05-7.649.525-.076-.375.074-.9.149-1.275.525-1.651 1.125-3.075 2.101-4.276.299-.674 1.199-1.199.975-2.025-.151-.225-.375-.225-.526-.375-1.574.976-2.4 2.701-3.3 4.275-1.469 3.826-1.969 8.826-6.094 9.888-4.35 1.05-9.512 1.813-13.937.313-.938-.688-1.963-2.163-2.563-3.438-.675-1.125-.812-3-1.93-4.062-.15-.15-.676-.15-.9 0-.045.937.143 2.125.33 2.437.313.688.625 1.375.938 2 .555 1.11 1.463 2.45 2.062 3.5 1.438 1.375 2.813 1.625 5 1.875 4.42.505 8.438.175 12.188-1.25 1.199-.525 2.625-1.562 3.482-2.862.299 0 .299.375.224.449-.074 1.5-.074 2.476-.074 3.75-.076.451-.15.976-.301 1.351-.15 1.649-.074 3.299-.75 4.875-.75 4.424-2.025 8.7-1.875 13.575-.074 1.425.375 2.699.6 4.275.75 1.725 1.125 3.674 1.801 5.4.974 3.524 3 6.45 3.299 10.2-.225.674.226 1.875-.674 2.099-.526.375-1.201-.15-1.651.45-3.224.75-5.849 2.4-9.15 3-3.15 1.5-7.049 2.25-8.549 5.625-1.576 3.226-2.625 6.75-5.101 9.226-.225.375-.375.75-.6 1.125-.6-.676-1.65-1.051-2.775-.75-.45.299-1.35.149-1.274.975 0 .375.375.449.674.525.6.074 1.5-.525 1.875.149 0 .525.301 1.05.076 1.575.149 1.425-.15 3.3-.826 4.5-.824.75-2.025-.676-2.4.6.15.75.9.9 1.576 1.125 1.049.075 1.799-.448 2.25-1.125.299-.75.75-1.425.9-2.25-.007.639.249 1.139.118 1.514l-.05.438c-.3 1.352-.744 2.326-1.494 3.451-.599.674-1.8.449-2.849.524-1.35-.302-2.1-1.427-2.401-2.7 0-1.5-.3-2.55-.074-3.824-.15-1.726 1.125-4.051-.375-5.25-.226-.6-.525-1.276-.9-1.875h.074c-.674-1.201-.975-2.776-1.35-4.201-.074-.375-.599-.299-.824-.149-.75.449-.15 1.5-.226 2.25.406.712.451 1.274.675 1.949.375 1.575 1.651 2.625 1.801 4.426-.15 1.425-.525 2.625-.375 4.199.149 1.575.074 2.625.449 3.976.225.375.419.851.75 1.125-.081.664 0 .899 0 1.351-.75 3.603-1.949 6.899-3.449 9.978-1.051 2.022-1.801 4.272-3 6.299-.375.451-.301.6-.601 1.125-.524.676-.75 1.426-1.2 2.176-.074.224-.298.52-.373.82.075.523-.333.584-.527 1.129-.074.75-.824 1.051-.9 1.725-.6.602-.825 1.727-1.5 2.477-.825 1.573-1.875 3-2.549 4.648-.526.675-.6 1.65-1.35 2.25-.451 1.576-.525 3.826-.976 5.625-.45 2.4-.825 4.727-1.424 7.275-1.125 2.926-1.801 6.6-5.326 7.273-2.325.227-4.799.45-6.299-.898-1.125-.9-1.875-2.174-2.551-3.449l-.15-.975c.076-.15-.299-.375 0-.525-.225-.6-.075-1.651-.149-2.176.149-.15 0-.227 0-.449.225-.526.074-1.125-.15-1.576-.151-.225-.526-.45-.826-.225-.75.826-.225 2.701-.45 3.826-.224 2.697 1.5 4.5 2.85 6.147 1.426 1.353 3.676 2.103 5.775 1.875.151.228.151-.147.375 0l.676.149c-.525 2.701-1.125 6-1.201 8.926.301.824-.375 1.801.225 2.4 0 .299-.299.6-.075.823-.074 2.401-.75 3.826-.974 6.076-.451 3.601-1.276 7.575-2.701 10.799-.6 1.651-1.2 3.375-1.799 4.95-.301 1.425-.901 2.775-1.35 4.275h.074c-.824 1.648-1.05 3.676-1.574 5.475-.75 4.05-2.101 7.65-1.951 12.375.225 1.275.225 2.701.375 4.125-.225.977-.674 1.8-.9 2.852l-.75 1.875c-.198.504-.075.6-.375.823-.524 1.651-1.049 3.451-.899 5.552.074 1.649.074 4.948-.301 7.125-.824.823-2.4 1.198-3.75.75-.449-.15-.599-.451-.824-.75 0-1.201.524-2.101 1.049-2.927.15-.524-.074-.823-.449-1.049-1.576.45-1.951 2.25-2.326 3.75-.149.45-.825.149-1.049.601-.676 0-1.576.073-1.875-.451-.301-.898.375-1.574.824-2.023.301-.451 1.125-.524 1.051-1.274-.225-.375-.676-.75-1.201-.45-1.575.601-2.325 2.176-2.549 3.825-.526.448-1.201 0-1.651-.226-.074-1.5 2.551-2.326 1.051-3.676-1.125 0-1.576 1.199-2.25 1.875-.375.449-.451 1.125-.676 1.65-.525.149-.834-.441-.675-1.238.047.028 1.5-1.762 1.576-1.838-.301-.299-.451-1.125-1.125-.674-.901.299-1.201 1.35-1.801 1.948-.299-.448-.294-1.04-.04-1.519.403-.731 1.091-1.256 1.466-1.931.299-.149.525-.45.9-.524.149-.375.524-.45.824-.601.526-.677 1.5-.825 1.875-1.649.825-.676 1.051-1.726 1.575-2.625.3-1.276.675-2.551 1.05-3.826-.074-.6.294-.645.375-1.273.526-1.275.75-2.701 1.5-3.826 1.051-1.574 1.125-4.726.676-6.523.299-1.201.074-2.102 0-3.149-.076-.375.074-1.274-.076-1.726.225-.149-.15-.602 0-1.051 0-1.051-.15-2.176-.15-3.075l-.075-.226h.075c-.299-.449.15-.976-.149-1.574.074-.824-.049-1.805-.15-3.375" fill="#d0d2d3" transform="translate(28.396 14.688396)"/><path clip-path="url(#r)" d="m108.424 15.442c-.075.525-.45.9-.675 1.35-.075.6-.375 1.35-1.2.9-.45-.075-.375-.45-.15-.825.6-.525.975-1.5 2.025-1.425" fill="#d0d2d3" transform="translate(28.396 14.688396)"/><path clip-path="url(#s)" d="m105.124 15.967c-.375.975-.9 1.95-2.1 2.025-.975.45-1.8 1.125-2.475 1.95h-.15c.6-1.8 1.875-3.075 3.45-4.05z" fill="#d0d2d3" transform="translate(28.396 14.688396)"/><path clip-path="url(#t)" d="m99.199 19.267c-.45.975-.825 1.95-1.35 2.85-.525 1.275-1.575 2.325-2.55 3.225-.525.45-1.2.675-1.725 1.125-1.2.3-2.4.45-3.75.525-.3-.75.45-1.125.675-1.65.825-.6 1.725-.75 2.475-1.275 3.375-1.8 4.275-6.075 7.725-7.65-.45.9-1.125 1.8-1.5 2.85" fill="#d0d2d3" transform="translate(28.396 14.688396)"/><path clip-path="url(#u)" d="m97.024 17.392c-.675 1.275-1.725 2.325-2.475 3.45-1.275 1.125-2.1 2.625-4.125 2.625-.375.075-.675 0-.825-.3-.3-.75-.15-1.35.225-1.875.675-.075 1.275.075 2.025-.075 1.875-.975 3.3-2.625 4.95-3.825z" fill="#d0d2d3" transform="translate(28.396 14.688396)"/><path clip-path="url(#v)" d="m99.574 22.342c-.169.837 0 1.65-.375 2.475-.75 1.575-1.95 3.075-3.525 3.975-.6.6-1.5.975-2.325 1.425-1.725.75-3.975.825-6.15.975-.6-.075-.075-.6-.075-.9.975-1.575 2.925-2.025 4.95-2.175 2.925-.075 4.65-2.025 6.15-3.9.243-.413.525-.675.675-.9.225-.3.225-.825.675-.975" fill="#d0d2d3" transform="translate(28.396 14.688396)"/><path clip-path="url(#w)" d="m100.024 27.742c.225.6-.375 1.05-.525 1.575-2.4 2.25-5.25 4.05-8.475 5.175-2.475.75-5.625.6-7.95 1.5.3-1.275 1.275-2.1 2.25-2.775 1.8-.525 3.45-.375 5.25-.75 2.625-.45 4.875-1.5 6.675-3 .825-.675 1.575-1.425 2.25-2.25.375 0 .45.3.525.525" fill="#d0d2d3" transform="translate(28.396 14.688396)"/><path clip-path="url(#x)" d="m99.574 31.417c-.375 2.25-1.875 3.675-3.15 5.325-2.175 1.275-4.95 2.625-7.875 1.65-.9-.375-2.775-.75-3.6 0-1.35.825-1.35 2.85-1.2 4.2-.9-.3-1.125-1.35-1.2-2.25l.075-.225-.075-.075c.225-1.65 1.35-3 3-3.3 1.575-.225 3.45-.45 5.1-.675 1.65-.525 3.075-1.2 4.575-1.875.225-.225.6-.45.9-.6 1.2-.675 2.25-1.5 3.3-2.25z" fill="#d0d2d3" transform="translate(28.396 14.688396)"/><path clip-path="url(#y)" d="m57.349 80.242c.15-.525-.45-1.425.225-1.725 2.475-1.2 5.25-1.95 7.575-3.45l.256-.413c.6-.3.719-.637.794-1.387-.075-.75-.375-1.35-1.125-1.575-1.875-.225-3.675.3-5.325.75.15-.375.675-.45.975-.75 1.125-.9 2.55-1.125 3.675-2.025.675-.45 1.65-.6 1.95-1.575.15-.9-.3-1.35-.75-1.8-1.125-.075-1.35-1.125-1.95-1.8-1.05-.9-3.075-.9-4.425-.3-2.325.675-4.2 1.95-6.375 2.85.3-.6.225-1.65 1.125-1.725 2.1-.6 3.525-2.025 4.8-3.525.3-.225.15-.9.075-1.2-.15-.825-.825-1.2-1.575-1.35-.375.075-1.35 0-1.8.375-.9.375-2.025.525-2.85.975-1.275.525-3 .6-3.45 2.025-.975 1.2-1.5 2.7-2.625 3.9.075.075-.15.45-.375.6-.6-.075-.75-.825-.9-1.35-.9-1.725-1.275-3.675-2.025-5.475 0 0-.15-.225-.15-.45-1.725-5.1-2.775-10.65-4.275-15.9-.675-1.65-.975-3.6-1.875-5.1.15 0 0 .075 0 0l-.15-.3c-.225-.675-.519-.988-.825-1.65.056-.4-.15-.825 0-1.125-.15-.525 0-1.35.225-1.875.15-.45.75-.3 1.125-.45 1.875.675 3.675 1.65 5.25 2.775.375.3.375.075.375.3 2.55 1.575 4.8 3.75 7.05 5.7.75.975 1.725 1.575 2.55 2.475 1.35 1.125 2.1 2.775 3.675 3.75 2.25 2.7 4.8 5.1 6.975 7.95l.225.075c.525.975 1.35 1.8 1.725 3h.15c1.35 2.775 2.625 5.7 3.75 8.625.825 1.125 2.55 1.05 3.825 1.575 1.8.675 3.45 1.725 5.25 2.475.225.225.75.3.825.6.825.15 1.275.825 2.025 1.125 1.05.975 2.25 1.875 3.3 2.775.225.3.3.675.75.825.675 1.125 1.875 1.8 2.025 3.375-2.775.375-5.4 1.05-8.4.45-1.275-.525-2.55-.825-3.675-1.575-.075-.225-.375-.225-.375-.45-.6-.45-1.275-1.425-2.1-1.05-.075.675.001 1.471.301 1.921.5 2.083 1.084 3.667 1.424 5.354.15.675.375 1.2.45 1.95.9 5.175 1.95 9.975 1.425 15.75-.075 1.275.15 3-.225 4.425-.15 1.8-.375 3.675-.45 5.325-.225.975-.15 1.875-.45 3-.3.375-.075 1.125-.45 1.5l-.075.9c-.75 3.825-1.875 7.5-2.625 11.4-.6 1.8-1.2 3.6-1.875 5.4.15.9.975 1.125 1.425 1.65.225 0 .3.225.375.375 2.1 1.425 2.581 2.162 3.406 4.638.3.674.875 2.625.875 2.937l.187 1.75-.118 1.55c-.069.7-.257.889-.3 1.2-.13.931-.525 2.024-1.35 2.55-2.175-3.3-4.275-7.125-8.175-8.775-1.125 0-1.8.75-2.475 1.35-.3.525-1.05.6-1.2 1.35-.3.225-.525.6-.825.9-1.35 1.8-2.7 3.6-3.675 5.625l-1.125 1.948c-.225-.148-.45-.448-.45-.823-.375-.976-.825-1.95-1.125-3 0-.15.075-.825 0-.9-.075-2.024-.225-4.8.45-6.675.075-1.125.6-2.175 1.125-3.225.825-1.8 1.8-3.6 3.3-4.875.256-.2.225-.3.375-.375 1.275-.825.9-2.85 1.275-4.275.3-3.225.15-6-.15-9.6-.3-3.675-.45-7.35-1.65-10.65-.675-2.475-1.2-5.25-2.025-7.725-1.05-2.85-1.8-6.3-3.15-9.225-.075-.75-.45-.975-.225-1.8.6-1.725 1.2-3.45 1.875-5.175l-.075-.15c.3-.525.075-1.5.525-1.95-.075-.825.225-1.725.375-2.625-.15-.3-.15-.225-.075-.525" fill="#d0d2d3" transform="translate(28.396 14.688396)"/><path clip-path="url(#z)" d="m122.974 53.017c-.525.75-1.575.975-2.325 1.575-.825.15-1.8-.15-2.925-.075l-3.225-.075c-.45-.75-.45-1.725-.6-2.625l.225-.3c3.225.075 6.375.375 8.85 1.5" fill="#d0d2d3" transform="translate(28.396 14.688396)"/><path clip-path="url(#A)" d="m55.774 81.367h.075c-.375 1.8-.375 3.15-.975 4.725-.6 2.1-1.275 4.35-2.25 6-.075.6-.825 1.2-.3 1.875.15.15.375.225.525.3.3-.15.525-.45.9-.45.525.9.675 1.425.975 2.4 1.35 3.9 2.475 7.95 3.6 12.075.225 2.175 2.025 4.35.3 6.375-1.425 1.95-3 3.975-4.875 5.55l-.225.375c-1.125.6-1.725 1.725-3.225 1.8-2.475-1.575-3.6-4.2-5.1-6.45-.45-1.5-.975-2.85-1.275-4.425 0-.975-.156-1.663-.082-2.713-.224-.225.157-.962.082-1.262.075-2.55 1.125-4.5 1.5-6.9-.075-.525.15-1.2.225-1.725 1.2-4.575-2.25-8.175-1.275-13.125h-.075l.3-3.375.056-.675c.187-.437.169-.9.169-1.2.15-1.725.375-2.85.525-4.575h-.075c.15-.45.075-1.275.075-1.65.3-1.125.15-2.7.6-4.05 1.425-2.775 3.375-5.025 4.8-7.8 1.575-.45 3.075-1.125 4.725-1.5.375-.225 1.875-.825 1.8.225-.45.9-1.275 1.5-2.025 2.175-1.05.675-2.55.75-3.45 1.575-.675 2.25-2.1 4.05-3.825 5.4-.075.45.15.75.525.9 3.075-1.725 6.075-3.525 9.225-5.025 1.425-.6 3.075-1.5 4.8-.675.15.225.15.375-.15.525-2.025.525-3.75 1.35-5.475 2.4-.6.9-1.875 1.125-2.625 2.025-.75.375-1.125 1.05-1.95 1.35-.225.375-.675.6-1.05.9-.3.15-.375.6-.225.9.6.525 1.05 0 1.575-.225.75-.525 1.5-1.2 2.325-1.65.15-.45.675-.6 1.05-.9.45-.375.975-.675 1.425-1.05 1.95-1.125 3.75-2.475 6.525-2.55.15.15.75.15.525.675-.975.375-1.65 1.35-2.775 1.65-1.425.675-2.925 1.35-4.125 2.475-.3.3-.15.225-.3.3-1.425.975-2.85 2.025-4.05 3.3-.075.675.375.75.75 1.05 1.65-1.5 3.75-2.25 6.075-2.85 1.35-.3 2.7-1.05 4.275-.675.45.3-.15.6-.225.9-3.075 1.5-6.3 2.85-9.6 4.2-.3.225-.15.6 0 .9.3.375.975-.15 1.125.225l.15 1.65" fill="#d0d2d3" transform="translate(28.396 14.688396)"/><path clip-path="url(#B)" d="m105.78 74.804c-.15.45-.062 1.062-.281 1.925-.635 2.51-1.156 3.887-2.532 5.825 0 .15-1 1.125-1 1.125-.6.675-.937 1.125-1.999 1.625-1.313.875-2.723 1.354-4.438 1.75-1.625.375-3.15.563-4.875.938-1.65.224-3.937.312-5.625.312-1.25-.062-1.25-.125-1.937-.312-1.547-.229-2.813-1-4.188-2.625-.187-.313-.331-.538-.181-.913.525-.45 1.07.218 1.35.6 2.019 2.75 6.3 2.1 9.75 1.95 2.85-.675 6.075-.75 8.55-2.025 2.1-.675 3.3-2.55 4.5-4.275.3-.525.355-.719.593-1.275.188-.438.125-.375.307-.825.381-1.112.631-1.988.819-3.3.125-.375.156-1.05.456-1.275.606-.1.506.475.731.775" transform="translate(28.396 14.688396)"/><path clip-path="url(#C)" d="m106.624 85.192c-.15.675.15 2.025.075 2.925.143 1.125.143 1.875.375 2.925.476 2.155.768 4.387 1.2 6.375.006.387.075.525.15.825 0 .3.043 1.062.075 1.425.075.525-.032 1.075 0 1.65-.225.075.075.225 0 .375-.094.737 0 .75-.075 1.275.075.975-.225 2.175-.15 3.075-.15.975 0 1.5-.075 2.55-.075.975-.075 2.1-.375 2.925.143.537 0 .525-.075.825.075 1.575-.094 2.587-.225 3.9 0 .15-.075.675-.3.825-.375.225-.675 0-.975-.225.093-.413.156-.475.093-.975.526-2.85.6-5.538.75-8.313.15-2.475.413-6.412.188-9.187-.45-2.85-.988-5.6-1.438-8.375.075-1.575-.25-3-.343-4.875.15-.525.975-.45 1.125.075" transform="translate(28.396 14.688396)"/><path clip-path="url(#D)" d="m117.499 121.117c.075.375-.469.625-.844.875-3.6.9-6.375 1.688-10.125 2.438-1.374.274-2.637.462-4.063.687-1.062.125-2.325.225-3.375.375-.45.15-.687.062-1.618-.1-.15-.675.375-.825.9-.9 6.3-.825 12.675-1.725 18.15-3.75.525-.15.75.15.975.375" transform="translate(28.396 14.688396)"/><path clip-path="url(#E)" d="m89.524 280.642c-.075-.523.225-.975.075-1.35.3-.675.225-1.575.45-2.25.075-1.575.6-3.15.9-4.727-.075-.225.225-.6.15-.823.525-1.875 1.125-3.601 1.125-5.851h.075c.225-1.875.375-3.451.45-5.25.225-.899.075-1.426.375-2.176-.075-.675.225-1.65.075-2.324.45-1.125.225-3.149.6-4.426.075-.75.075-1.875.3-2.324 0-1.951.75-4.351.225-6.226-.355-.179-.38-1.015-.45-1.2l.15-.3c-.075-2.55-.3-5.024.525-7.125-.15-.45.375-.75.3-1.274.375-1.426.675-2.851 1.35-4.051.15-.6.225-1.199.6-1.725.9-2.926 2.85-5.102 4.2-7.727.375-.148.3-.824.45-1.273l-.375-1.125c.525-.525-.225-.9-.075-1.5l-.225-1.2h.075c-.075-.899-.45-1.8-.45-2.774.225-.301-.15-.976-.15-1.5.15-.899-.375-1.875.075-2.926-.225-2.4.375-3.525.525-5.85.225-1.352.206-2.562.806-3.688-.15-.149.037-.963.187-1.188.313-1.312.882-2.176 1.107-3.375.525-.75.45-1.649.45-2.551.075-.449-.15-1.049-.15-1.574.075-1.051-.225-1.274-.15-2.399-.375-.3 0-.75 0-1.125-.45-.675-.075-1.95-.6-2.625 0-.3.225-1.125-.3-1.351-.375-1.051.15-2.699-.525-3.449.3-.45-.15-1.051 0-1.426-.15-1.274-.075-2.324-.075-3.524.225-.899.15-1.95.3-2.774-.15-.601.15-1.351.075-1.949 0-.676.225-1.352.225-2.25l-.075-.45c.375-2.399.375-5.101.975-7.351.6-.375 1.2.226 2.025 0 1.5.149 2.4-.449 3.375-1.125.45-.524.6-1.274 1.05-1.801-.019-.273.168-.462.225-.75.3-1.273.525-2.25.525-3.523.3-2.477-.6-4.351.75-6.15 1.125-1.2 1.95-2.7 2.55-4.275.45-.6.675-1.35.9-2.175.825-2.025 1.65-4.125 3.75-5.1 2.7-1.575 5.85-2.4 8.85-3.45 1.125-.3 2.1-.75 3-1.35 1.2-.3 2.475-.825 3.825-.6l.225.225c1.125 3.675 2.775 6.975 3.75 10.8.75 2.1 1.725 4.65.9 7.275.15.375-.225.975-.15 1.35-.6 1.351-.675 3.075-1.35 4.351-.525 1.949-.9 4.424-1.35 6.601.075.073 0 .448-.075.6-.075 1.125-.225 2.25-.6 3.226-.15 1.199-.375 2.476-.825 3.449-.15 1.125-.525 2.551-1.05 3.602-.075 1.125-.825 1.8-.825 3-.225.523-.375 1.199-.675 1.725l.075.075c-1.35 2.25-2.1 4.8-3.15 7.2-.6 1.273-1.2 2.625-1.8 3.975-1.125 2.551-2.475 4.95-3.225 7.725-.375.375-.45.826-.675 1.275-.375.676-.15 1.2-.45 2.025-.3.675-.45 1.5-.9 2.1-.6 1.275-.9 2.7-1.35 4.2-.525 2.625-.975 4.8-1.65 7.351-1.425 2.549-3.75 4.5-7.275 4.424-1.5-.073-3.45-.073-4.275-1.35h-.375c.45-.225-.15-.525-.225-.75-.15-.225-.3-.9-.825-.525-.15.302-.15.677-.3.977.3 1.05 1.2 1.575 2.025 2.25 1.725.75 4.35.825 6.375.6 1.2-.225 2.175-.898 3.225-1.35.675.825-.225 2.1.075 3.45.075.6.6 1.573.075 1.948-.225.677.15 1.201-.075 1.802-.075.375-.075 1.649-.075 2.175-.375.75 0 2.023-.675 2.475-.975 5.7-2.7 11.25-5.1 16.125-1.65 4.875-3.825 9.375-5.775 14.025-.9 2.475-2.025 4.8-2.85 7.35-.225.227-.225.602-.375.9-.975 2.25-1.575 4.648-2.475 6.975-.3.676.15 1.201.375 1.727.75.75 1.575 1.574 2.025 2.55.6.675.975 1.425 1.425 2.175 1.125 1.35 1.8 3.15 3.15 4.275.3.225.375.6.75.824.225.375.525.601.9.899.825.75 1.65 1.726 2.85 1.95.525.264.862.178 1.088.479 1.153.946 1.978 3.094.281 1.912l-1.219-1.416c-.825-.449-1.8-1.125-2.85-.75-.075.227-.215.312.084.535l.394.188c1.106.412.797.703 1.397 1.152.225.375.834.807.3 1.463-.3.375-.9.264-1.425.113-.075-1.726-1.444-2.795-2.793-3.32l-.582.17c.919.91 1.425 1.426 1.725 2.4.3.75-.45.75-.675.975-.45.15-.675.074-.975-.074.525-1.875-.816-2.569-1.866-3.471-.6-.225-1.35-.824-1.95-.225 0 1.5 1.791 1.069 2.316 2.194.15.823-.525 1.05-.9 1.425-1.65.45-3-.675-4.35-1.2-1.275-.899-3.225-.3-4.95-.6-1.125.149-2.475.524-3.3-.302-.075-.448-.6-.6-.75-.975-.975-1.199-.675-3.375-.975-4.949.225-.149-.075-.601.15-.826" fill="#d0d2d3" transform="translate(28.396 14.688396)"/><path clip-path="url(#F)" d="m99.424 220.717c0 .226-.375.075-.45.226.15-.151.15-.301.45-.226" fill="#ccc" transform="translate(28.396 14.688396)"/><path clip-path="url(#G)" d="m56.523998 221.467h.15v.075h-.15z" fill="#ccc" transform="translate(28.396 14.688396)"/><g fill="#00875c"><path clip-path="url(#H)" d="m14.475 174.79c-.523 0-.468.004-.533.531-.15 1.232-.1 22.107-.15 22.982.074.008 7.047.771 11.425.951l.108.005c4.336.183 6.953.29 9.75-2.507 2.724-2.725 2.958-7.111 2.965-8.391 0-.088.005-.203.013-.352.078-1.638.316-6.621-4.067-10.24-3.732-3.078-10.222-3.058-13.342-3.047-.73.007-5.849.103-6.169.068m-.733 28.677c-.097 2.24-.404 8.994-.355 10.976.011.436.01.916.01 1.427-.003 2.653-.008 6.29 1.728 8 .711.7 1.647 1.03 2.86 1.01.726-.012 1.172.103 1.447.373.297.293.337.716.337 1.13 0 .312-.121.586-.35.788-.446.396-1.241.455-1.837.381-.752-.094-3.631-.313-5.79-.313-2.183 0-5.953.271-5.99.277-.677.125-1.335-.168-.375-1.097.596-.577 1.12-2.864 1.163-6.33l.086-6.407c.09-6.488.122-13.844.192-18.009.091-5.45 0-9.8-.093-12.848-.123-4.048-1.089-8.937-4.995-9.237-.806-.062-1.359-.171-1.623-.52-.15-.197-.192-.447-.129-.764.132-.658 1.139-1.24 2.291-1.031 1.017.187 1.283.234 2.998.234.627 0 2.177-.109 4.321-.261 3.672-.261 9.22-.722 14.357-.771 4.847-.047 11.858.424 16.519 4.978 2.623 2.563 3.953 6.065 3.953 10.414 0 7.006-4.394 10.167-7.302 12.258m0 0c-2.781 2.086-7.884 5.894-15.29 5.894-4.651 0-7.249-.394-8.133-.552" transform="translate(28.396 14.688396)"/><path clip-path="url(#I)" d="m353.797 201.123c-.523-10.112-1.449-15.399-5.535-19.992-4.777-5.371-12.182-5.894-20.654-5.997-6.314-.076-10.633.654-13.201 2.235-6.428 3.955-8.291 5.649-8.525 18.144-.27 14.4 3.096 18.596 6.564 21.658 3.078 2.717 12.492 6.434 20.828 6.312 7.434-.106 10.336-1.619 13.914-3.916 4.996-3.207 7.096-9.068 6.609-18.444m7.041-2.246c-.387 12.606-2.945 17.283-13.035 23.829-9.627 6.244-15.762 5.943-18.711 5.801l-.178-.009c-.326-.017-.777-.019-1.299-.021-3.84-.021-12.836-.072-20.293-5.61-7.604-5.646-8.387-15.103-8.523-23.522-.125-7.561.619-15.519 10.961-22.412 8.631-5.755 17.412-6.804 23.26-6.67 10.164.229 17.365 2.415 21.404 6.495 3.401 3.432 6.823 8.747 6.414 22.119" transform="translate(28.396 14.688396)"/><path clip-path="url(#J)" d="m212.64 226.938c.056-.562.223-4.457.399-8.584l.34-7.772c.273-5.91.502-25.285.409-30.849-.093-5.57-3.114-5.771-4.107-5.838-1.413-.095-2.01-.681-2-1.181 0-.017 0-.03 0-.044 0-.24.094-.467.265-.638.267-.267 1.14-.402 1.755-.402 1.113 0 8.682-.559 9.561-.733l.177-.037c.509-.104 1.169-.35 1.362-.014.229.395 0 0 .021 1.312.015.936-.179 13.961-.276 25.634-.078 9.137-.121 17.357-.184 20.764-.117 6.42 1.709 6.744 3.825 7.123.274.049.562.1.845.164.246.057.43.069.578.08.571.04.717.234.672.906-.029.438-.104.876-.438 1.107-.254.176-.6.195-1.059.058-.733-.22-6.801-.19-9.717-.179l-1.483.006.134-.031c-.047.023-.672.199-1.002-.027-.225-.157-.118-.414-.077-.825" transform="translate(28.396 14.688396)"/><path clip-path="url(#K)" d="m379.383 226.388c-1.773-.955-4.08-1.058-4.666-4.371-.334-1.879-.291-9.631-.277-15.892l.004-3.483c0-6.662 1.006-17.181 1.016-17.295.115.125 10.557 11.984 21.076 22.961 10.52 10.979 23.285 22.832 23.414 22.951l-.059-.074c.035.062.352.601.863.572.383-.021.701-.339.969-.972 1.582-3.729 1.865-16.656 1.781-23.707-.07-6.038.996-22.31 1.508-30.127.17-2.566.25-3.81.25-4.002 0-.614 0-1.146-.377-1.38-.318-.196-.713-.041-.98.095-.801.399-7.439.444-8.816.339-.924-.07-1.408.023-1.664.329-.182.214-.223.5-.129.875.027.11.049.203.066.285.131.577.377.655.994.661 3.566.025 4.824 2.898 5.453 7.438.41 2.974.537 7.466.641 11.073.047 1.622.086 3.021.145 3.98.152 2.528.051 15.836.014 20.847l-.016 1.891c0 .8-.055 1.237-.164 1.302l.002-.002c-.002.002-.141.028-.543-.324-11.246-9.825-15.662-14.515-19.559-18.65-1.404-1.491-2.73-2.898-4.289-4.459-4.232-4.232-12.58-15.085-17.293-20.915-1.979-2.447-3.283-4.063-3.557-4.337l.062.093c-.188-.433-.773-.989-1.852-.812-2.436.402-7.293.193-8.668.078-.648-.055-1.141-.031-1.418.259-.246.257-.234.62-.199.909.104.84.281.953.986 1.074l.092.017c2.832.497 4.303 1.291 6.072 4.924 1.33 2.733 1.305 4.032 1.225 7.89-.023 1.094-.053 2.455-.053 4.096 0 7.164-2.023 32.748-2.4 35.197-.154 1.006-.422 1.779-.045 2.125 1.176 1.078 8.225.459 9.953.45.001-.001 1.522-1.325.438-1.909" transform="translate(28.396 14.688396)"/><path clip-path="url(#L)" d="m103.097 201.123c-.525-10.112-1.449-15.399-5.535-19.992-4.777-5.371-12.181-5.894-20.655-5.997-6.315-.076-10.633.654-13.201 2.235-6.428 3.955-8.292 5.649-8.526 18.144-.271 14.4 3.095 18.596 6.565 21.658 3.079 2.717 12.491 6.434 20.827 6.312 7.435-.106 10.336-1.619 13.914-3.916 4.997-3.207 7.097-9.068 6.611-18.444m7.04-2.246c-.386 12.606-2.944 17.283-13.035 23.829-9.627 6.244-15.761 5.943-18.71 5.801l-.178-.009c-.328-.017-.777-.019-1.298-.021-3.841-.021-12.837-.072-20.294-5.61-7.602-5.646-8.386-15.103-8.525-23.522-.123-7.561.621-15.519 10.962-22.412 8.631-5.755 17.413-6.804 23.26-6.67 10.164.229 17.365 2.415 21.405 6.495 3.401 3.432 6.823 8.747 6.413 22.119" transform="translate(28.396 14.688396)"/><path clip-path="url(#M)" d="m124.158 175.47c7.031-5.048 12.675-5.016 15.085-5.002l.338.001c2.29 0 11.255.791 14.994 2.229l.257.098c1.46.467 1.543.551 1.404.83-.057.113-.402.839-.463 1.002-.2.533-.774 2.551-1.281 4.329l-.605 2.108c-.063.217-.116.416-.163.592-.249.936-.414 1.554-1.495 1.365-.973-.168-.965-1.039-.958-1.881.003-.302.006-.611-.025-.934-.268-2.79-6.737-4.626-12.689-4.938-8.343-.436-10.221.877-11.878 2.037-.261.182-.507.354-.777.52-.902.554-3.546 3.08-3.625 5.896-.115 4.088-.272 9.688 14.551 10.993 14.691 1.296 21.655 3.923 21.498 15.347-.091 6.67-3.851 9.164-8.205 12.053-.618.41-1.257.834-1.899 1.279-5.074 3.512-7.14 4.674-12.199 5-5.975.385-18.181-2.035-21.506-3.144-.475-.157-.642-.073-.137-1.394l.081-.297c.305-1.143 2.079-7.196 2.629-8.709.305-.838.892-1.311 1.496-1.203.459.08.95.535.95 1.57 0 .35-.079.707-.161 1.088-.317 1.459-.645 2.969 3.362 4.28 4.573 1.497 11.457 2.724 14.107 2.739 1.921.012 8.481-.243 12.265-4.001 1.757-1.746 2.649-4.024 2.651-6.774.007-10.301-10.464-10.859-15.495-11.129-.45-.023-.837-.045-1.175-.068-11.101-.845-18.433-2.174-19.174-12.562-.509-7.137 3.503-9.973 7.384-12.715z" transform="translate(28.396 14.688396)"/><path clip-path="url(#N)" d="m284.481 199.12c0-.128-.072-12.869-6.336-18.137-6.488-5.457-15.549-5.264-20.963-5.146-.721.016-1.4.029-1.999.029-5.199 0-10.329.137-12.101.263l-.039.003-.041-.008c-.27-.053-.727-.064-.895.074-.033.027-.064.064-.064.158 0 .209-.033 1.377-.086 3.146-.152 5.204-.439 14.892-.439 19.778l-.016 5.607c-.021 6.394-.055 16.055.117 16.686-.01-.034-.05-.108-.137-.151.971.485 17.213 1.545 19.913 1.545.248 0 .554.011.908.021 3.045.098 10.178.322 16.977-4.579 4.964-3.578 5.201-16.662 5.199-19.248zm-4.057 22.036c-10.969 6.713-15.574 6.665-20.452 6.614-.736-.008-1.499-.016-2.278.002-5.744.131-23.271-1.043-23.449-1.056l-.298-.021.019-.297c.008-.114.697-11.659.697-25.564 0-13.85-.037-18.389-.17-20.234l-.013-.18c-.124-1.779-.294-4.217-2.946-5.236-.932-.357-1.438-.975-1.295-1.569.123-.503.758-.953 2.186-.824 4.312.39 5.709.181 9.627-.153.875-.125 2.074-.457 3.439-.707 2.105-.387 6.242-.628 11.758-.591 9.666.067 21.631 1.021 28.412 7.843 3.721 3.743 6.041 7.991 6.104 17.594.064 9.84-.729 17.884-11.341 24.379" transform="translate(28.396 14.688396)"/><path clip-path="url(#O)" d="m173.592 171.931c1.002.115 14.375-1.375 28.625-.25.263.021.013.854-.094 1.092-.047.104-.101.225-.148.365l-.321 1.008c-.99 3.123-1.954 6.09-2.299 6.641-.275.441-.587.695-.926.759-.27.052-.548-.022-.803-.215-.28-.211-.938-.703-.567-1.813l.04-.117c.274-.815.688-2.047-.048-2.711-.817-.734-2.438-.894-3.74-1.02l-.159-.016c-5.628-.551-17.81-.723-19.36-.389l.346 19.793c0 .197-.02-.021 0 0 .137.133.507.123.834.113.087-.003.177-.005.265-.005l10.482-.044 11.625-.049s-.502-.02.948.078c.511.035-.013.646-.196 1.317-.273.999-1.755 5.882-2.049 6.567-.13.305-.476 1.111-1.274.912-.187-.047-.576-.145-.78-.516-.17-.31-.165-.722.014-1.258l.062-.186c.207-.604.442-1.29.141-1.739-.245-.366-.846-.583-1.787-.642-3.321-.207-17.492-.73-18.316-.523-.111.027-.236.384-.236.818v.057" transform="translate(28.396 14.688396)"/><path clip-path="url(#P)" d="m173.954 221.99c-.038.481-.045.584 1.309.702 2.156.187 11.029.736 15.878.646 4.695-.088 8.087-.151 9.795-1.681 1.387-1.24 1.463-1.405 1.83-2.195.087-.189.187-.402.322-.676.45-.898.904-.934 1.49-.699.283.114.467.281.565.514.149.354.083.832-.214 1.547-1.271 3.049-2.813 6.735-2.969 7.049-.266.531-.61.628-1.194.628l-17.784-.078-15.475-.067-.741-.059c-.218.002-.223-.105-.059-1.055.141-.815.553-16.697.553-27.254l.012-4.09c.062-8.541.08-17.49-1.672-19.091-1.739-1.588-2.254-1.651-3.782-1.84l-.216-.024c-.707-.091-.842-.32-.876-.805-.006-.082-.012-.175-.029-.277-.132-.787.475-.898.839-.965l.137-.025c.642-.129 1.161-.076 3.724.003 3.071.106 4.358-.101 8.196-.269" transform="translate(28.396 14.688396)"/><path clip-path="url(#Q)" d="m156.045 134.675-.095 11.797c0-.029-.01-.05-.014-.055.362.486 4.716.795 7.554.795.655 0 2.92-.086 4.548-1.196 1.273-.868 2.575-2.078 2.575-4.47 0-3.145-1.003-5.05-3.066-5.824-2.713-1.017-4.968-1.091-8.359-1.091-2.888 0-3.1.027-3.143.044m.993-2.309c1.185 0 4.378-.14 5.178-.207 2.022-.168 5.414-1.074 5.414-5.25 0-1.861-.416-3.11-1.31-3.931-1.471-1.354-4.333-1.716-9.881-1.251-.066.002-.128.02-.143.035.001-.001.003-.003.003-.004 0 0-.002.005-.002.017 0 .55-.275 9.715-.349 10.304-.018.148.002.183.003.183.08.104.838.104 1.087.104m9.101.094c.005.003-.296.017.279.045.039.002.095.004.164.006 5.05.136 7.831 2.655 7.831 7.093 0 4.471-2.251 5.806-4.857 7.352l-.5.298-.92.563c-2.056 1.279-3.088 1.923-7.568 1.799-2.752-.076-9.234-.499-9.234-.762l.081-.448.002-.019c.005-.041.481-3.871.604-13.575.062-4.973-.221-8.668-.373-10.652l-.043-.561c-.099-1.338-.122-1.345-.713-1.513-.147-.042-.33-.093-.545-.169-.786-.278-.999-.658-.936-1.027.079-.46.113-.628.986-.696 1-.016 3.015.127 3.904-.058.064-.014 1.865-.536 2.167-.564 2.497-.234 3.553-.327 6.336-.25 5.575.155 8.554 2.32 8.617 6.261.072 4.541-4.568 6.698-5.282 6.877" transform="translate(28.396 14.688396)"/><path clip-path="url(#R)" d="m207.33 135.394-.024-.332c-.298-4.216-.535-7.546-2.992-10.105-2.945-3.067-7.509-3.12-10.841-3.159-1.057-.013-4.671.047-6.776 1.342-1.998 1.23-4.307 3.385-4.436 9.186-.134 6.041.943 8.372 3.256 11.036 1.906 2.194 5.996 3.504 10.943 3.504 3.971 0 5.405-.519 7.115-1.683 2.858-1.943 4.086-5.145 3.755-9.789m3.929-1.192c-.216 7.045-1.956 9.34-7.074 12.661-5.056 3.279-8.321 3.117-9.889 3.039l-.14-.008c-.172-.008-.405-.01-.674-.011-2.079-.011-6.405-.034-10.378-2.89-4.614-3.316-4.706-8.915-4.773-13.003-.076-4.634.895-8.185 5.961-11.562 3.633-2.422 7.569-3.561 12.035-3.479 2.568.046 8.816.46 11.366 3.298 1.924 2.14 3.784 4.827 3.566 11.955" transform="translate(28.396 14.688396)"/><path clip-path="url(#S)" d="m219.543 121.869c3.588-2.576 6.328-2.53 7.646-2.509l.297.004c1.304 0 6.435.481 8.435 1.09.865.351 1.115.226.865.664-.035.059-.41 1.24-.578 1.774-.266.846-.597 1.899-.809 2.458-.117.311-.281.645-.604.763-.205.074-.424.046-.655-.082-.5-.28-.417-.764-.345-1.191.024-.144.05-.292.062-.452.021-.3-.083-.572-.324-.833-.869-.941-3.38-1.549-6.394-1.549-2.796 0-5.156.837-6.435 1.62-.44.271-1.886 1.264-1.938 2.67-.051 1.357-.184 4.964 7.432 5.725 7.521.752 11.15 1.396 11.479 7.746.191 3.74-2.006 5.207-4.333 6.76-.294.196-.599.399-.899.608-2.732 1.892-4.054 2.729-6.691 2.729-2.69 0-9.246-.875-10.957-1.735-.532-.269-.636-.198-.574-.481l.211-.627c.177-.659 1.055-3.371 1.326-4.118.185-.505.553-.788.939-.72.283.05.613.332.613.961 0 .117-.008.238-.016.354-.047.759-.092 1.476 1.685 2.067 2.382.794 5.915 1.4 7.252 1.372.077-.001 7.779-.225 7.783-5.617.002-3.409-2.837-5.326-8.438-5.698l-.264-.018c-5.207-.396-9.705-.737-10.128-6.66-.274-3.873 1.401-5.029 3.526-6.493.27-.187.548-.379.831-.582" transform="translate(28.396 14.688396)"/><path clip-path="url(#T)" d="m241.521 122.242c-.877.055-1.842.221-2.224 1.427-.168.531-.441.881-.816 1.04-.49.207-.939-.005-.99-.03l-.234-.117.086-.249 1.595-4.648.073-.211.223.009c.1.004 9.568.258 14.413.317 4.332.052 12.705-.306 13.987-.385.451-.028.387-.091 1.14-.091.25 0 .062.375-.625 2.001-.179.423-.54 2.005-.675 2.679-.104.521-.596.911-1.071.851-.179-.022-.756-.175-.702-1.203.014-.244.033-.454.049-.622.021-.215.045-.458.019-.519.003.006.011.016.017.019-.039-.022-.174-.044-.598-.019-.518.03-2.307-.051-4.381-.144-2.271-.102-5.381-.242-5.729-.155 0 0 .021-.005.047-.021-.088.052-.162.086-.223.113-.031.013-.074.033-.085.041.002-.002.005-.005.007-.007-.009.015-.039.093-.039.428 0 .131-.013.757-.035 1.793-.097 4.62-.219 18.703-.106 20.499.021.33.089.62.122.879.176 1.363.236 1.623 1.138 1.713.806.081 1.347.518 1.524.911.111.251.097.506-.043.7-.125.173-.557.384-.987.304-1.623-.303-4.998-.303-5.468-.062-.582.298-.717-.03-.729-.194-.015-.197.03-.854.03-1.013 0-.244.044-1.945.103-4.097.092-3.429.215-8.125.244-10.128.07-4.933-.113-7.049-.115-7.121l-.063-4.874" transform="translate(28.396 14.688396)"/><path clip-path="url(#U)" d="m272.709 136.617c.812.188 6.113.149 9.188.125l-5.188-11.125c-.01.034-.86 2.867-1.617 4.999-.558 1.574-1.988 5.027-2.383 6.001m-3.751 12.859c-4.901-.108-7.074.371-6.008-.91.354-.428.66-.967 1.086-1.542 1.317-1.783 3.312-4.478 5.853-10.138 2.478-5.516 4.104-9.711 4.709-12.13l.153-.598c.473-1.814.601-2.301-.922-2.716-.949-.259-1.183-.474-1.183-.881 0-.537.888-.735 1.241-.676.387.065 3.326-.012 3.671-.127 1.331-.444 1.639-.245 1.938.622.045.133.098.283.168.446.088.208.338.818.683 1.662 1.288 3.157 3.972 9.727 5.138 12.058l.208.416c1.587 3.177 4.511 8.995 5.519 10.345.343.46 1.25 1.875 2.812 2.4l.407.088c.906.012.908.396.916.871.001.059-.129.512-.234.623-.303.311-.871.306-1.39.258-.83-.074-2.862.072-3.987.141-.705.043-1.314-.459-2.258-2.029-.827-1.379-4.368-8.308-4.568-8.69l-11.234-.018c-.034.072-2.699 5.51-3.176 6.668-.297.721-.568 1.515-.332 1.928.113.196.349.315.719.366 1.17.158 1.24.674 1.218.889-.051.42-.569.584-1.147.674" transform="translate(28.396 14.688396)"/><path clip-path="url(#V)" d="m324 134.459c0-.094.002-.21.006-.344.039-1.671.141-6.107-3.34-9.09-3.377-2.895-8.109-2.807-10.938-2.755-.352.007-.684.013-.979.013-2.736 0-5.434.072-6.361.138l-.041.003-.039-.008c-.133-.026-.309-.021-.354.01.008-.006.018-.022.018-.031v.004c0 .112-.016.695-.045 1.661-.082 2.739-.23 7.838-.23 10.41l-.008 2.956c-.012 3.348-.082 8.424.006 8.83-.008-.039.096.048 0 0 .49.114 9.473.718 10.961.718.109 0 .24.003.391.006 1.545.035 5.164.115 8.117-2.593 2.975-2.727 2.875-7.879 2.842-9.572-.004-.141-.006-.263-.006-.356m-1.972 11.5c-5.441 3.585-8.336 3.616-11.137 3.646l-.814.013c-3.031.067-12.559-.55-12.652-.556l-.301-.021.021-.3c.004-.063.415-6.388.415-13.646 0-8.26-.086-10.704-.137-11.426-.012-.163-.014-.3-.016-.411-.008-.431-.008-.431-1.111-.856-.578-.222-.898-.707-.783-1.181.086-.353.201-.561 1.048-.604 1.095-.063 2.94-.003 4.782-.25.137-.018.498-.077.613-.154.148-.1.42-.224.729-.271 1.18-.178 2.623-.198 4.242-.219.811-.011 1.648-.022 2.508-.052 5.184-.181 11.838.689 14.975 3.675 1.551 1.476 3.43 4.374 3.582 9.798.155 5.572-.044 8.916-5.964 12.815" transform="translate(28.396 14.688396)"/><path clip-path="url(#W)" d="m336.627 121.866c3.588-2.576 6.328-2.531 7.646-2.509l.297.004c1.305 0 6.48.34 8.434 1.09.502.193.533.166.908.354.189.096-.08.547-.158.718-.027.063-.059.133-.09.216-.059.154-.203.615-.371 1.149-.266.847-.598 1.9-.809 2.459-.117.311-.137.492-.447.742-.17.135-.514.181-.75.063-.375-.188-.564-.597-.408-1.315.033-.142.051-.292.064-.452.021-.3-.084-.572-.324-.833-.871-.941-3.381-1.549-6.395-1.549-2.797 0-5.156.837-6.434 1.62-.441.271-1.887 1.264-1.938 2.669-.051 1.358-.186 4.965 7.432 5.726 7.52.752 11.148 1.396 11.477 7.746.193 3.74-2.006 5.207-4.332 6.76-.295.196-.598.399-.898.608-2.734 1.893-4.053 2.729-6.693 2.729-2.688 0-9.244-.875-10.957-1.734-.531-.27-.668-.07-.531-.57l.17-.539c.176-.659 1.055-3.371 1.324-4.118.186-.506.555-.788.941-.72.283.05.613.332.613.961 0 .117-.01.238-.018.354-.047.759-.09 1.476 1.686 2.067 2.383.794 5.916 1.4 7.252 1.372.076-.002 7.779-.224 7.783-5.617.002-3.409-2.838-5.326-8.438-5.698l-.264-.018c-5.207-.396-9.705-.737-10.127-6.66-.277-3.873 1.398-5.029 3.523-6.493.27-.187.549-.379.832-.582" transform="translate(28.396 14.688396)"/><path clip-path="url(#X)" d="m423.909 141.718c0-3.146-1.004-5.051-3.066-5.825-2.713-1.017-4.969-1.09-8.357-1.09-2.891 0-3.244.057-3.289.074 0 0-.047.07 0 0l-.104 11.74c0-.029.143-.023.141-.028.361.485 4.715.795 7.553.795.654 0 2.92-.087 4.549-1.197 1.27-.868 2.573-2.079 2.573-4.469m-13.576-9.181c1.186 0 4.379-.14 5.178-.207 2.023-.168 5.414-1.074 5.414-5.25 0-1.86-.416-3.109-1.309-3.931-1.471-1.353-4.334-1.716-9.883-1.251-.064.002-.127.02-.143.035.002-.001.002-.003.002-.004v.017c-.002.734.012 9.519-.062 10.109-.02.147 0 .5 0 .5.08.104.554-.018.803-.018m8.74.185c.039.002.734-.042.805-.04 5.051.137 7.83 2.656 7.83 7.093 0 4.471-2.25 5.806-4.857 7.352l-.5.298-.918.564c-2.057 1.279-3.09 1.921-7.568 1.798-2.752-.076-9.232-.499-9.232-.761l.08-.45.002-.019c.004-.039.379-3.753.604-13.574.113-4.972-.221-8.667-.373-10.652l-.043-.561c-.1-1.338-.121-1.345-.713-1.512-.146-.042-.33-.094-.545-.17-.785-.278-1-.658-.936-1.027.078-.46.316-.753 1.189-.82 1.268.062 3.699.013 4.508-.126.064-.011 1.057-.344 1.357-.372 2.498-.233 3.555-.327 6.336-.25 5.576.155 8.557 2.321 8.617 6.262.072 4.539-4.928 6.787-5.643 6.967" transform="translate(28.396 14.688396)"/><path clip-path="url(#Y)" d="m379.897 136.617c.688.188 6.051.087 9.125.063l-5.125-10.813c-.012.034-.854 2.689-1.609 4.821-.559 1.575-1.996 4.955-2.391 5.929m10.312 2.563-11.225-.17c-.033.072-2.816 5.519-3.293 6.677-.299.722-.568 1.514-.33 1.928.111.194.346.315.717.366 1.17.158 1.24.675 1.217.89-.047.423-.572.546-1.143.678-.568.132-4.447.015-4.498.017h-.312-.438c-.09-.049-.145.006-.312.006-.438 0-1.375.183-.447-.935.355-.427.66-.967 1.086-1.542 1.318-1.783 3.312-4.478 5.854-10.138 2.475-5.516 4.104-9.711 4.709-12.13l.154-.598c.471-1.814.598-2.301-.922-2.717-.949-.258-1.184-.473-1.184-.879 0-.538.885-.736 1.24-.677.387.064 3.328-.012 3.672-.128 1.33-.443 1.637-.244 1.938.623.047.133.098.283.168.446.09.208.338.818.684 1.662 1.289 3.157 3.971 9.726 5.137 12.058l.207.416c1.588 3.177 4.512 8.995 5.52 10.345.344.46 1.25 1.875 2.812 2.4l.406.088c.906.013.91.396.916.871.002.059-.127.513-.234.623-.303.312-.871.306-1.389.259-.83-.075-2.863.071-3.988.141-.705.042-1.314-.46-2.258-2.03-.831-1.382-4.214-7.863-4.464-8.55" transform="translate(28.396 14.688396)"/></g></svg>