<?xml version="1.0" encoding="UTF-8" standalone="no"?>
<svg
   xmlns:dc="http://purl.org/dc/elements/1.1/"
   xmlns:cc="http://creativecommons.org/ns#"
   xmlns:rdf="http://www.w3.org/1999/02/22-rdf-syntax-ns#"
   xmlns:svg="http://www.w3.org/2000/svg"
   xmlns="http://www.w3.org/2000/svg"
   xmlns:sodipodi="http://sodipodi.sourceforge.net/DTD/sodipodi-0.dtd"
   xmlns:inkscape="http://www.inkscape.org/namespaces/inkscape"
   viewBox="0 0 344.25 229.5"
   width="255"
   height="170"
   version="1.1"
   id="svg54"
   sodipodi:docname="logo-goteborg.svg"
   inkscape:version="0.92.3 (2405546, 2018-03-11)">
  <metadata
     id="metadata60">
    <rdf:RDF>
      <cc:Work
         rdf:about="">
        <dc:format>image/svg+xml</dc:format>
        <dc:type
           rdf:resource="http://purl.org/dc/dcmitype/StillImage" />
        <dc:title></dc:title>
      </cc:Work>
    </rdf:RDF>
  </metadata>
  <defs
     id="defs58" />
  <sodipodi:namedview
     pagecolor="#ffffff"
     bordercolor="#666666"
     borderopacity="1"
     objecttolerance="10"
     gridtolerance="10"
     guidetolerance="10"
     inkscape:pageopacity="0"
     inkscape:pageshadow="2"
     inkscape:window-width="1301"
     inkscape:window-height="686"
     id="namedview56"
     showgrid="false"
     inkscape:zoom="2.1327014"
     inkscape:cx="115.34667"
     inkscape:cy="35"
     inkscape:window-x="176"
     inkscape:window-y="139"
     inkscape:window-maximized="0"
     inkscape:current-layer="svg54"
     scale-x="1.35" />
  <g
     id="g893"
     transform="translate(4.3242474,-54.431418)">
    <g
       transform="translate(0,113.29572)"
       id="g48">
      <g
         id="g4">
        <path
           style="fill:#ffffff"
           inkscape:connector-curvature="0"
           id="path2"
           d="m 48.5,111.4 c -0.9,0 -1.1,-0.8 -1.7,-1.4 -0.6,-0.6 -1.2,-1.2 -1.9,-1.7 -1.5,-1.1 -3.2,-2 -5,-2.4 -3.3,-0.9 -6.7,-0.8 -10,-0.8 -7,0 -15.1,1 -21.3,-3 C 5.9,100.3 3.7,97.7 2.3,94.8 0.6,91.1 0.4,87.2 0.4,83.2 c 0,-3.6 0,-7.3 -0.1,-10.9 0,-2.8 0,-5.6 -0.1,-8.4 0.8,0.6 1.6,1.3 2.6,0.9 1,-0.4 1.7,-1.3 1.8,-2.4 0,-1 0,-2 0,-3 0.1,-4.3 0.1,-8.5 0.2,-12.8 0,-3.2 0.1,-6.4 0.1,-9.5 C 4.9,35.3 4.4,34.3 2.5,33.9 0.5,33.5 0.6,32.1 0.6,30.4 0.6,25.5 0.7,20.6 0.7,15.8 0.7,13.2 1,10.5 0.8,7.9 0.8,5.5 0.6,3 3.2,2.3 4.7,1.9 8.8,1.8 9,4.2 9.2,6.1 6.7,6.5 5.3,6.8 c 3.3,1.1 6.5,1.7 10,1.4 4.2,-0.3 7.6,-2.1 11.2,-4.1 3.2,-1.7 6.4,-3.8 10.2,-3.7 4.2,0.1 8.3,1 12.5,0.9 4.1,0 8.3,-1.4 12.5,-0.7 3.9,0.7 7,3.3 10.4,5.1 3.5,1.8 7.3,2.9 11.3,2.9 1.8,0 3.7,-0.1 5.4,-0.6 C 89.3,7.9 90.4,7.7 90.3,7.2 90.2,6.7 88.9,6.5 88.4,6.2 86.9,5 88.1,3.6 89.5,3.1 c 1.8,-0.5 4,-0.4 5.6,0.5 1.3,0.8 1.3,2.3 1.3,3.6 0,2.2 0,4.5 0.1,6.7 0,3.6 0.1,7.2 0.1,10.8 0,2 0,4 0.1,6.1 0,0.8 0.3,3.1 -0.4,3.6 -1.1,0.7 -3.3,-0.3 -3.9,1.3 -0.3,0.8 -0.1,1.8 -0.1,2.6 0,1.2 0,2.3 0,3.5 0,4.3 0.1,8.7 0.1,13 0,1.5 0,2.9 0,4.4 0,1.8 -0.6,4.6 1,5.8 0.6,0.5 1.4,0.5 2.1,0.5 0.3,0 1.2,-0.3 1.4,0 0.2,0.2 0,1.1 0,1.4 0,1.5 0,3.1 -0.1,4.6 -0.1,4.1 -0.1,8.2 -0.2,12.3 0.2,5.2 -0.6,10.6 -3.9,15 -3.6,4.7 -9.2,6.6 -14.9,6.6 -3.5,0 -7.1,0.1 -10.6,0.1 -5.5,0 -12.6,-0.4 -16.4,4.6 -0.8,0.9 -1.2,1.3 -2.3,1.3 z" />
      </g>
      <g
         style="fill:#0076bc"
         id="g14">
        <path
           inkscape:connector-curvature="0"
           id="path6"
           d="m 80.7,85.5 c -5.4,6.7 -11,13.2 -17.2,19 4,-0.1 8,0.1 11.9,0 3,-0.1 6.6,0 9.4,-1.2 5.3,-2.3 9,-6.9 10.4,-12.5 1,-3.8 0.8,-7.7 0.8,-11.5 0,-3.1 0,-6.3 0,-9.4 -6.1,4 -10.7,10 -15.3,15.6 -4.6,5.7 5.2,-6.4 0,0 z M 2.5,33.6 c 1.1,0 2.5,-1.6 3.4,-2.5 1.4,-1.4 2.7,-3 3.9,-4.6 2.5,-3.3 4.5,-6.9 7.4,-9.9 2.6,-2.8 5.7,-5.1 9.1,-7 1.8,-1 3.6,-1.6 5.2,-2.9 0.7,-0.6 1.4,-1.3 1.9,-2 C 32.9,4.3 32.7,3.3 32.9,2.7 30.1,4 27.7,6 25,7.2 22.1,8.5 19,9.4 15.9,9.7 11.1,10.1 4.9,10.4 1.2,6.8 1.2,11.3 1.1,15.8 1.1,20.4 1.1,23.3 1,26.1 1,29 0.9,30.4 0.3,33.6 2.5,33.6 Z M 75.2,9 C 70.9,7.7 67.4,5.1 63.3,3.4 c 0,1.2 -1,1.9 -2.1,2.2 -1.1,0.3 -1.1,0.1 -1.9,0.8 -2.4,2.3 -4.7,4.5 -7.2,6.7 l -4.4,3.2 c -1.4,0.8 -4.1,2.8 -4.1,2.8 l -2.8,1.7 v 0 c -0.1,0 -0.2,0 -0.4,0.1 -0.3,0.2 -0.7,0.4 -1,0.7 -0.8,0.6 -1.6,1.2 -2.3,1.8 -1.6,1.3 -3,2.8 -4.5,4.2 -0.7,0.8 -1.4,1.6 -2.1,2.4 -0.5,0.5 -0.4,0.4 0,0.7 0.3,0.3 0.6,0.6 0.9,0.9 -0.5,0.5 -1.1,1 -1.6,1.5 l -7,6.2 c -1.5,1.5 -4.4,4.6 -4.4,4.6 l -7.9,7.2 C 9.3,52.3 8,53.4 6.7,54.5 6,55.1 5.1,55.4 5.1,56.3 c 0,1.8 0,3.6 -0.1,5.4 0,0.9 -0.3,1.8 -0.9,2.4 C 3.5,64.7 2.8,65 2,65 1.6,65 1.1,64.9 0.7,64.9 c -0.1,0.1 0,0.4 -0.1,0.5 -0.2,0.6 0,1.6 0,2.2 0,6.3 0.1,12.6 0.1,18.9 C 3,84.8 5.2,83 7.5,81.3 9.3,79.9 11.2,78.5 13,77 c 1,-0.8 1.9,-1.6 2.9,-2.4 0.4,-0.3 1.8,-1.1 1.9,-1.6 l 4.1,-3.7 c 0,0 0.1,0 0.1,0 4.1,-4 7.8,-8.4 11.2,-13 0,0 0.5,-0.6 1.8,-2.4 L 62.6,27.5 C 69.9,22.5 77.1,17 82.5,10 80.1,9.9 77.6,9.7 75.2,9 Z" />
        <g
           id="g12">
          <path
             inkscape:connector-curvature="0"
             id="path8"
             d="M 96.3,31.3 C 96.2,28 96.1,24.7 96.1,21.4 90,28.8 81.3,32.7 74.2,38.8 74,38.9 73.9,39.1 73.7,39.3 l -4.6,4 c -0.3,0.3 -0.5,0.7 -0.8,1 l -0.4,0.4 c -1.1,-0.3 -2.2,-1.5 -1.8,-2.5 0,0.1 0.1,0.1 0.1,0.2 0.8,1.5 2.5,-0.5 1.1,-1 -1.5,-0.5 -3.1,0 -4.2,1 -1.9,1.8 -2.1,5.1 -1.5,7.5 0.1,0.3 0.2,0.6 0.3,0.9 l -40.7,41 c -3.2,3.7 -6.4,7.4 -9.5,11.2 4,1.7 8.3,1.6 12.5,1.6 2.3,0 4.6,0.1 6.8,0.1 1.5,0 3.2,0.6 4.4,-0.4 2.9,-2.4 5.9,-4.8 8.7,-7.3 1.7,-1.5 3.4,-3 5,-4.5 0.7,-0.7 1.5,-1.3 2.2,-2 L 66.8,73.6 c 2,-2.2 3.9,-4.5 5.8,-6.7 0.1,-0.1 0.1,-0.1 0.1,-0.2 v 0 L 73.6,66 v 0 c 0.1,0 0.3,0 0.6,-0.2 0.8,-0.6 1.5,-1.2 2.3,-1.9 1.3,-1.2 2.5,-2.4 3.7,-3.7 0.6,-0.7 1.2,-1.4 1.7,-2.2 l 1.5,-1 c 2.7,-2.2 5.5,-4.3 8.4,-6.2 0.3,-0.5 0.1,-1.8 0.1,-2.4 0,-0.3 0,-0.6 0,-1 0,-3.6 0,-7.1 0,-10.7 0,-1.5 0.1,-2.5 1.9,-2.7 1.1,-0.2 2.6,0.3 2.7,-1.3 -0.2,-0.5 -0.2,-0.9 -0.2,-1.4 z" />
          <path
             inkscape:connector-curvature="0"
             id="path10"
             d="m 66.2,42.3 c 0.1,0.3 -0.1,0 0,0 z" />
        </g>
      </g>
      <g
         style="fill:#ffd300"
         id="g28">
        <path
           inkscape:connector-curvature="0"
           id="path16"
           d="m 69.5,43 0.5,1.1 1.9,-1.4 0.2,-1.3 -1.8,-0.2 -1,1.2 z" />
        <circle
           id="circle18"
           r="1"
           cy="42.299999"
           cx="75.199997" />
        <circle
           id="circle20"
           r="0.89999998"
           cy="43.200001"
           cx="77.099998" />
        <path
           inkscape:connector-curvature="0"
           id="path22"
           d="m 64.8,52.3 6.9,-0.2 0.8,-5 -0.8,0.5 -0.6,0.8 0.1,1.1 -1,0.9 -1.4,-0.9 0.2,-0.7 h 0.8 l 0.4,-1 -0.9,-0.2 -1,-1 -0.7,0.3 -0.2,0.7 -1.1,0.1 0.1,0.7 1.2,0.6 -0.3,1 -1.4,0.2 -0.6,-0.5 0.2,-1.2 -1.4,-1.3 -0.2,0.4 z m 10.5,0 7,-0.2 0.6,-5 -0.7,0.5 -0.5,0.8 v 1.1 l -0.9,0.9 -1.5,-0.7 0.2,-0.9 h 0.9 l 0.4,-1 -0.9,-0.2 -1.1,-1 -0.6,0.3 -0.2,0.7 -1.3,0.2 0.2,0.6 1.2,0.6 -0.2,1 -1.4,0.2 -0.7,-0.5 0.2,-1.2 -1.3,-1.3 -0.3,0.4 z m -5.3,7.5 6.9,-0.1 0.7,-5 -0.7,0.5 -0.8,0.9 0.3,1 -1,0.9 -1.5,-0.7 0.3,-0.9 0.9,-0.1 0.4,-0.9 -1,-0.2 -1,-1 -0.6,0.3 -0.3,0.7 -1.2,0.2 0.2,0.6 1.2,0.6 -0.2,0.9 -1.5,0.3 -0.6,-0.5 0.2,-1.3 -1.4,-1.3 -0.2,0.5 z" />
        <ellipse
           id="ellipse24"
           ry="0.69999999"
           rx="0.60000002"
           cy="44.099998"
           cx="78.699997" />
        <path
           inkscape:connector-curvature="0"
           id="path26"
           d="m 69.8,95 -0.9,-2 0.7,-2.1 -2.6,-0.1 -0.5,-2.3 -3.1,0.7 -2.6,2.3 -2.4,-0.9 -0.2,-3.6 3.4,-2.6 1.9,-2.2 1.1,0.8 1.4,-1.9 0.3,-3 1.3,0.1 -0.8,-3.8 -2.8,-3 -6.5,-2.4 -9.9,-0.6 2.9,-2 -2.6,-0.6 9,-8.1 2.7,-0.3 1.7,-2.2 -0.7,-0.5 -1.8,-0.2 1,-3 1.2,-2.3 -0.1,-5 -2.9,-2.7 0.7,-2.7 -0.3,-1.8 -7.6,0.5 -1.1,-2.4 2.2,-2.4 4.3,0.6 4.2,-1 1.3,-2.5 0.5,-2.6 -2,-0.9 -3.1,-1.2 -1.1,-2 1.9,-2.1 1.7,-1.9 -1.8,-0.5 0.1,-1.1 -0.7,-0.9 V 15.8 L 55.6,14.4 H 54.7 L 54.2,13.7 51.3,13.3 51,12.2 49.5,11.7 48.4,12.3 48.1,13.6 47,13.4 46.3,14 l -1,-0.2 -0.6,0.7 -1.2,0.2 -0.1,0.8 -1.2,0.5 0.1,1.1 -0.6,0.5 v 1.2 l -1.2,0.1 -1,0.9 1.9,0.9 1.5,1.3 0.2,2.3 -3.3,-0.8 0.8,2.6 1.8,1.7 -3.2,1.2 -1,1.4 -0.3,5 v 9.3 l -6.8,-6.2 -2,-4.6 1.9,-2.4 -2.9,-2.8 13.5,-14.6 6.3,-7.7 h -1.3 l -6.7,6 -14.4,13.7 -2.6,-2.6 -1.9,1.7 1.5,2.1 -1.5,1.5 -1.4,0.7 -0.5,1.5 -1.3,1.4 0.7,3 0.8,1.4 1.1,-0.2 3.5,2.6 1.1,0.8 1.8,4.4 1,0.3 0.7,2.3 1.4,1 3.7,3.5 2.8,4.3 v 2.9 l -1.6,3.4 -3.3,3.6 -3.1,4.5 -0.8,2.9 -3.7,0.7 -2.4,-1.9 0.9,-4.2 2.4,-4 0.8,-4.3 -1.7,-2.3 0.7,-1.1 1,-4.1 -1,-5 -2.7,-2 -2.9,-0.5 -3.4,0.2 -3.4,1.7 -1.3,2.2 0.7,5.6 0.4,2.1 1.9,-1.5 1.7,-0.9 0.7,-2.3 0.4,-3 1.5,-1.4 H 21 l 2,1.6 V 52 l -1.2,3.5 -0.6,-0.2 -2.1,-0.3 -1.8,0.6 -2,1.3 -3.3,2.1 -1,2.2 -0.4,3.9 0.9,0.4 -0.5,1.3 0.5,2.3 3.1,-1.3 1.3,-3 v -4.2 l 1.7,-2.9 3.3,0.1 -3.3,8.5 0.3,5.6 2.5,4.2 4.2,0.8 3.5,-0.5 1.1,2 -1.5,3.2 -5.6,2.1 -0.6,3.2 -0.3,2.7 0.3,2.3 1.6,-0.3 1,3.5 4.3,1.7 0.1,-1.6 2,1.1 4.5,0.2 0.2,-1.6 h 2.4 l 0.6,-1 -1.4,-1.7 1.2,-1 -3.3,-1.4 -2.3,1.4 -3,0.5 -0.6,-2.7 1.6,-3 2.8,-0.2 4.1,-0.8 1.6,0.5 2.8,-1.3 1.5,-1.9 1.5,-0.7 v -2.5 l 1,0.3 -0.3,-3.6 5.3,1 4.4,3.1 0.3,3.5 -3.1,2.4 0.4,1.8 -0.7,2 0.7,4.9 1.8,-1.1 0.3,1.3 1.4,1.8 8.3,0.6 -0.2,-1.6 1.8,0.4 z M 51.6,18.9 h -0.5 v -3 l 2.6,0.5 1.8,1.4 0.5,1.5 -1.4,-0.2 -0.8,0.5 0.3,0.6 1.4,0.6 -1.7,0.7 -2.6,-0.3 0.9,-1 0.4,-0.8 z M 20,67.1 l 0.8,-4.2 2.3,-3.6 -0.5,4.3 z M 46.6,21.4 44,21.2 43.8,20.8 45,19.7 44.7,19 43,19.4 43.5,18.1 45,16.5 48,16 l 0.1,2.8 -1.2,0.3 -0.7,0.8 1.2,1.1 z" />
      </g>
      <g
         style="fill:#c24f3b"
         id="g34">
        <path
           inkscape:connector-curvature="0"
           id="path30"
           d="m 24.2,28.9 c 0.1,0.3 0.3,0.6 0.3,1 V 30 l 0.1,-0.2 c 0.2,-0.3 0.5,-0.6 0.8,-0.7 l -1.3,-0.5 z m -1.7,2.2 c 0.3,0.3 0.7,0.5 1,0.6 h 0.1 v -0.1 c 0,-0.4 0,-0.8 -0.3,-1.2 -0.1,0.3 -0.4,0.5 -0.8,0.7 z M 21,32.5 c 0.3,0.3 1,0.5 1.2,0.6 h 0.1 V 33 c 0,-0.6 -0.1,-1 -0.4,-1.4 -0.2,0.6 -0.4,0.7 -0.9,0.9 z m 41,0.9 c 0,0 0,0 0,0 0.1,0.4 0,0.8 -0.3,1.1 -0.4,0.3 -0.9,0.5 -1.6,0.5 -0.5,0 -1,-0.1 -1.4,-0.1 L 58,34.6 c -1.3,-0.4 -2.8,-0.8 -4.3,-0.8 -1.4,0 -2.4,0.4 -3.3,1.1 v 1.3 c 0.8,-0.8 1.9,-1.1 3.3,-1.1 1,0 2.2,0.2 3.6,0.7 0.7,0.3 2.1,0.8 3.3,0.8 0.8,0 1.3,-0.2 1.7,-0.6 0.5,-0.5 0.7,-1.1 0.5,-1.7 0.1,-0.4 -0.2,-0.9 -0.8,-0.9 z m -42.7,1.3 c 0.2,0.2 0.6,0.4 1,0.4 h 0.1 v 0 c 0,-0.3 0,-0.9 -0.3,-1.2 0,0.1 -0.3,0.6 -0.8,0.8 z" />
        <path
           inkscape:connector-curvature="0"
           id="path32"
           d="m 53.4,37.1 c 0.2,0.1 0.5,0.1 0.7,0.1 0.3,0 0.6,-0.1 0.9,-0.2 l -0.8,-1 z m 2.3,0 c 0.2,0.1 0.4,0.1 0.7,0.1 0.3,0 0.5,-0.1 0.8,-0.2 l -0.7,-1 z m 15.1,7 c 0.4,0.2 0.8,0.3 1.3,0.3 h 0.1 v -0.1 c 0,-0.4 -0.1,-0.8 -0.3,-1.2 z m 3.3,-0.8 c 0,0 0,0 0,0 L 73.9,44 H 74 c 0.2,0 0.3,-0.1 0.5,-0.2 0.1,-0.1 0.2,-0.1 0.3,-0.2 -0.2,-0.1 -0.4,-0.3 -0.7,-0.3 z m 1.5,1.5 -0.1,0.2 h 0.1 c 0.4,0 0.9,-0.2 1.1,-0.4 l -0.6,-0.5 c -0.2,0.2 -0.4,0.5 -0.5,0.7 z m 1.9,-0.2 -0.4,0.6 h 0.1 c 0.3,0 0.6,0 0.8,-0.2 z M 68,88.4 c -0.3,0 -0.6,0.1 -0.9,0.2 H 67 l 0.2,1 h 0.1 C 67.7,89.3 68.9,89.1 68.9,89 68.8,88.6 68.5,88.4 68,88.4 Z m -29.2,2.3 c -0.1,0 -0.2,0 -0.4,0.1 -0.1,0.3 -0.2,0.4 -0.1,0.6 0.1,0.2 0.4,0.2 0.6,0.2 h 0.5 c 0.2,0 0.4,0 0.5,0.1 L 40,91.6 C 39.6,91 39.2,90.7 38.8,90.7 Z m 31.4,0.6 c 0,0 0,0 0,0 0,0.4 -0.1,0.7 -0.4,1.1 0,0 0.4,-0.1 0.9,-0.1 0.3,0 0.6,0 0.8,0.1 h 0.1 v -0.1 c 0,-0.8 -0.9,-1 -1.4,-1 z m -31.4,2.6 c 0,0.3 -0.1,0.5 -0.3,0.8 l 1.2,0.4 v -0.5 c -0.2,-0.4 -0.6,-0.7 -0.9,-0.7 z m 31.4,0.2 c 0,0 0,0 0,0 -0.2,0.2 -0.3,0.3 -0.2,0.5 0,0.2 0.3,0.4 0.6,0.5 0.1,0 0.2,0.1 0.3,0.1 H 71 v -0.7 c -0.2,-0.1 -0.4,-0.4 -0.8,-0.4 z m -34.9,1.2 v 1 c 0.6,0.1 1.1,0.4 1.3,0.8 l 0.1,0.1 v -0.1 c 0.1,-0.3 0.1,-0.6 -0.1,-1 -0.3,-0.5 -0.8,-0.8 -1.3,-0.8 z m -6.2,0.4 c 0,0 -0.1,0.5 -0.3,1 0.5,0.2 1.2,0.7 1.2,0.7 l 0.1,0.1 v -0.3 c -0.1,-0.5 -0.2,-1.1 -1,-1.5 z m 34.8,1.4 0.1,0.1 c 0.3,0.2 0.5,0.5 0.6,0.8 v 0.1 L 64.8,98 v 0 C 65,97.6 65,96.9 64.7,96.5 Z" />
      </g>
      <path
         style="fill:#ffffff"
         inkscape:connector-curvature="0"
         id="path36"
         d="m 49.1,28.2 3.2,0.5 0.5,-2.4 -2.9,0.8 z" />
      <g
         id="g46">
        <path
           inkscape:connector-curvature="0"
           id="path38"
           d="m 46.6,23.1 c -0.5,-0.4 -1.4,-0.5 -1.9,0 0.5,0.4 1.5,0.5 1.9,0 -0.2,-0.2 -0.2,0.2 0,0 z m 3.9,0 c -0.5,-0.4 -1.4,-0.5 -1.9,0 0.4,0.5 1.4,0.5 1.9,0 -0.3,-0.2 -0.3,0.2 0,0 z m 3.6,0 c -0.5,-0.4 -1.4,-0.5 -1.9,0 0.4,0.5 1.4,0.5 1.9,0 -0.3,-0.2 -0.2,0.3 0,0 z" />
        <path
           inkscape:connector-curvature="0"
           id="path40"
           d="m 97.4,63.6 c 0,-1.1 -2,-2.2 -3,-1.8 -1.5,0.6 -0.4,3 0.8,2.4 0.8,-0.4 -1.8,-2 0,-1.6 1.5,0.3 2.3,2.4 0.2,2.4 -3,0 -2.4,-3.4 -2.4,-5.4 0,-1.2 0,-2.3 0,-3.5 0,-4.4 -0.1,-8.7 -0.1,-13.1 0,-1.6 0,-3.3 -0.1,-4.9 0,-0.8 -0.3,-2.5 0.5,-2.9 1.2,-0.7 3.9,0.3 3.9,-1.8 0,-0.3 0,-0.6 0,-0.9 0,-1.8 0,-3.5 -0.1,-5.3 C 97.1,23.5 97,19.8 97,16 97,13.3 97,10.6 96.9,7.9 96.9,6 97.2,4 95,3.1 93.3,2.4 91.3,2.2 89.5,2.8 88,3.3 86.5,4.7 88,6.2 c 0.5,0.5 1.6,1.1 2.4,1.1 -3,1.3 -6.5,1.4 -9.7,1 C 76.8,7.8 73.6,6.4 70.3,4.4 67.5,2.8 64.7,0.8 61.4,0.4 57.4,-0.1 53.5,1.1 49.5,1.2 45.1,1 41,0.1 36.8,0 33,-0.1 30,1.9 26.8,3.6 23.8,5.2 21.2,7 17.7,7.6 13.9,8.2 10.2,8 6.5,6.8 7.8,6.6 9.1,6 9.3,4.5 9.5,3 7.9,2.2 6.6,1.9 5.1,1.6 2.6,1.7 1.5,2.9 c -1,1 -1,3 -0.9,4.4 0.3,2.6 -0.1,5.7 -0.1,8.4 0,3.4 0,6.8 -0.1,10.3 0,1.7 0,3.4 0,5.1 0,0.3 0,0.7 0,1 0.1,1.8 1.4,1.9 2.7,2.2 1.4,0.3 1.6,1.4 1.6,2.5 0,1.5 0,2.9 -0.1,4.4 0,4.4 -0.1,8.8 -0.1,13.2 0,2.7 -0.1,5.3 -0.1,8 0,1.1 -1.1,2.1 -2.2,2.1 C 0.1,64.5 0.9,62 2.6,62 3.5,62 2.7,62.7 2.3,62.9 2,63 1.4,63.2 1.6,63.6 2.2,64.8 3.9,62.8 3.8,62.1 3.6,60.3 0.8,61.3 0.3,62.4 0,62.9 0,63.4 0,63.8 0,65 0,66.2 0,67.4 0,71.8 0.1,76.1 0.1,80.5 0.2,84 0,87.6 0.7,91 c 1.5,6.9 6.9,12.5 13.9,13.9 4.2,0.8 8.8,0.4 13.1,0.5 4.1,0.1 8.6,-0.3 12.6,0.9 3,0.9 5.6,2.8 7.4,5.4 0.3,0.1 1.7,0.1 2,0 0.6,-0.3 1.3,-1.4 1.8,-2 3.8,-4.2 10.5,-3.8 15.6,-3.9 3.8,0 7.6,-0.1 11.5,-0.1 6.2,0 12,-2.7 15.3,-8.1 2.5,-4 3.3,-8.2 3.3,-12.8 0.1,-4.3 0.1,-8.5 0.2,-12.8 0,-1.9 0.1,-3.8 0.1,-5.7 -0.1,-0.8 0.2,-2 -0.1,-2.7 z M 60.4,0.8 c 2.7,0 5.4,1.7 7.6,3 2.5,1.5 5.1,2.8 7.7,3.8 3.9,1.2 8.2,1.6 12.2,0.8 1.4,-0.3 3,-0.6 4.2,-1.4 1.3,-0.8 1.4,-3.4 -0.6,-3.4 -1.1,0 0.2,1.4 0.3,1.6 0.2,0.9 -1.5,0.7 -2,0.6 C 88.4,5.4 87.8,4 89.4,3.3 91.4,2.6 98,3.7 95,7 92.6,9.6 88.1,9.6 84.8,9.6 80.8,9.6 76.8,9 73.1,7.6 69.5,6.2 66.4,3.7 62.8,2.2 61.9,1.8 59.2,0.9 59.1,2.6 c 0,0.6 0.7,1.3 0.9,0.4 0.1,-0.8 0.6,-0.8 1.4,-0.6 1,0.3 1.2,1.4 0.4,2 C 61,5 59.8,4.9 58.9,4.5 58.1,4.2 57.4,3.4 57.6,2.5 57.7,1.3 59.4,0.8 60.4,0.8 Z M 39.1,1.2 C 39.1,1 39,0.9 38.9,0.8 c 3.1,0.5 6.3,0.7 9.5,0.7 1.9,0 3.9,-0.2 5.8,-0.3 1,-0.1 2.4,0 3.4,-0.4 -1.1,0.8 -1.9,2.8 -0.4,3.7 -3,-0.5 -6,-0.6 -9.1,-0.6 -3.3,0 -6.7,-0.1 -10,0.5 0.8,-1 1.6,-1.8 1,-3.2 0,-0.1 0.1,0.3 0,0 z M 2.1,3.4 C 3.5,2.3 6.9,1.9 8.1,3.6 9.5,5.9 3.6,5.7 5.4,4.2 6.1,3.7 5.7,3 4.9,3.3 4.4,3.5 4.1,3.9 3.8,4.3 c -1,1.5 2.1,3 3,3.4 7,2.7 15.7,0 21.5,-4.2 2.2,-1.6 5.6,-3.1 8.4,-2.6 4.1,0.5 -0.7,5.3 -2.7,3.5 -1.1,-1.1 0.6,-2.6 1.8,-2 0.5,0.3 -0.3,1 0.4,1 0.9,0 0.8,-1.3 0.2,-1.7 -1.2,-0.9 -3.5,0.5 -4.5,1 -1.3,0.7 -2.5,1.4 -3.8,2 -1.7,0.9 -3.2,1.9 -5,2.6 C 21.3,8 19.5,8.5 17.6,8.8 13.8,9.5 9.4,9.7 5.6,8.6 4.3,8.2 3.1,7.6 2.2,6.6 1.4,5.9 1,4.3 2.1,3.4 2.8,2.9 2,3.5 2.1,3.4 Z M 96,70 c 0,3.4 0,6.8 -0.1,10.2 0,4.9 0,9.7 -2.1,14.3 -1.4,3 -3.6,5.6 -6.4,7.4 -3,1.9 -6.1,2.3 -9.6,2.5 -4.1,0.2 -8.2,0.1 -12.3,0.1 -3.2,0 -6.5,0 -9.6,0.9 -2.9,0.8 -5.5,2.4 -7.2,4.9 -4.5,-5.9 -11.6,-5.9 -18.4,-6 C 22.6,104.2 13.2,105.4 7.1,99.6 -0.1,92.7 1.3,82.1 1.1,73 1.1,71.2 1.1,69.5 1,67.7 1,66.9 1.2,66 1,65.3 6.6,66.5 5.5,59 5.6,55.6 5.7,52.7 5.7,49.8 5.7,47 5.7,43.3 5.8,39.7 5.8,36 5.8,33.8 4.1,33.6 2.4,33.2 0.7,32.8 1.3,30.1 1.3,28.8 1.3,23.9 1.4,18.9 1.4,14 c 0,-1 0,-2 0,-3 0,-1.2 0.2,-2.7 0,-3.8 3.7,3.7 9.9,3.1 14.7,2.7 3.1,-0.3 6,-1.3 8.8,-2.3 C 26.3,7 27.7,6 29,5.2 c 1.3,-0.8 2.8,-1.4 3.9,-2.3 -0.3,0.6 -0.1,1.6 0.4,2 1.1,1 2.8,0.7 4.1,0.5 3.5,-0.6 7.2,-0.7 10.7,-0.7 3.5,0 6.9,0.3 10.3,0.7 1.1,0.1 1.9,0.5 3.1,0.3 1,-0.2 2.2,-1.1 2.1,-2.2 2.7,1.3 5.5,2.8 8,4.2 3.6,1.7 7.6,2.4 11.5,2.6 3.9,0.2 10.2,0.7 12.9,-2.7 0.1,5.6 0.1,11.1 0.2,16.7 0,2.1 0.1,4.3 0.1,6.4 0,0.5 0,1 0,1.5 0,1.6 -0.9,1.4 -2.1,1.5 -1,0.1 -2.5,0.4 -2.5,1.7 -0.1,0.4 0,0.9 0,1.3 0,1.9 0,3.9 0,5.8 0,3.4 -0.1,6.8 -0.1,10.3 0,2.7 0,5.4 0,8.1 0,0.7 0,1.4 0,2 0.2,1.8 2.4,3.8 4.4,2.9 0.1,1.4 0.1,2.8 0,4.2 z" />
        <path
           inkscape:connector-curvature="0"
           id="path42"
           d="m 86.7,45.6 c -0.3,-2.3 -1.6,-4.7 -4.1,-5.1 -1.1,-0.2 -2.7,-0.1 -3.2,1 -0.6,1 0.4,2.4 1.5,2.2 -0.3,0.2 -1,0.2 -1.2,0.4 0.1,-0.5 -0.8,-1.8 -1.4,-1.1 0,-0.5 -0.2,-0.9 -0.6,-1.1 -0.6,-0.3 -0.8,0.1 -1.2,-0.4 0,0 -1.4,-1.3 -1.6,-0.7 -0.3,-0.7 -0.7,-2.1 -1.8,-1.7 -0.7,0.3 -0.8,1.2 -1.5,1.5 -1.9,-0.1 -3.5,1.4 -2.5,3.1 -1,0.4 -1.3,0.1 -2.2,-0.3 0.9,-0.1 1.7,-1 1.6,-1.9 -0.2,-1.3 -1.8,-1.5 -2.8,-1.4 -1.9,0.2 -4.4,1.6 -5,3.4 C 60,42.8 59,42 58.6,41 c -0.2,-0.4 1.2,-3.6 0.3,-3.8 1.3,0 2.8,0.1 3.9,-0.7 1.1,-0.9 1.4,-2.4 0.4,-3.4 -0.4,-0.4 -1.5,-1.1 -2.1,-0.6 -0.3,0.3 -0.1,0.9 -0.2,1.2 -0.6,1.5 -3.3,-0.2 -4.3,-0.1 2.2,-0.3 4.8,-0.8 5.2,-3.3 0.1,-0.6 0.2,-1.2 0.4,-1.8 0.1,-0.4 0.4,-0.8 0.5,-1.1 0.5,-1.2 -2.7,-1.6 -3.5,-1.8 -0.8,-0.3 -2.6,-1 -2.6,-2.1 0,-1 -0.1,-1.1 0.7,-1.7 0.5,-0.4 1,-1 1.5,-1.4 0.2,-0.2 1.4,-0.8 1.4,-0.9 0.2,-0.7 -1.7,-1.9 -2.3,-1.2 0.4,-0.5 0.2,-1.3 -0.5,-1.5 0.3,-0.7 0,-1.5 -0.7,-1.8 -0.6,-0.2 -0.3,-0.5 -0.9,-0.9 -0.2,-0.2 -0.8,-0.3 -1,-0.1 -0.2,-0.5 -0.5,-0.9 -1.1,-0.9 -0.8,0 -0.3,0.3 -1,-0.1 -0.3,-0.1 -1,-0.3 -1.1,0.1 0,-0.7 -0.4,-1.5 -1.2,-1.7 -0.5,-0.2 -0.6,-0.1 -0.5,-0.7 0.3,0 0.7,0 1,0 C 51,10 50.6,10.1 50,10.2 c -0.2,0 -0.1,-0.6 -0.1,-0.8 -0.2,0 -0.5,0 -0.7,0 0,0.2 0,0.5 0,0.7 -0.3,0 -0.6,0 -1,0 -0.1,1 0.9,0.2 0.9,0.6 0.1,0.7 0,0.4 -0.6,0.7 -0.5,0.3 -1.2,1 -0.9,1.7 -0.4,-0.5 -1.5,-0.2 -1.6,0.4 -0.6,-0.5 -1.6,-0.2 -1.7,0.6 -0.5,-0.2 -1.9,0.2 -1.5,1 -0.8,-0.1 -1.7,0.9 -1.1,1.6 -0.6,0.2 -1,1 -0.6,1.5 -0.9,-0.3 -2,0.4 -2.3,1.2 0,0.2 -0.2,0.3 -0.1,0.4 0,0.1 1.3,0.4 1.5,0.5 0.2,0.1 2.1,1.6 2.1,1.6 0,0.4 0,0.8 0,1.3 C 41.8,23.3 41,23 40.1,23 39,22.9 39,23.4 39.2,24.4 c 0.3,1.2 0.8,2.5 2,3.1 -1.4,0.2 -3.1,1.1 -3.4,2.6 -0.2,0.8 -0.2,1.7 -0.1,2.6 -0.2,0.8 -0.5,1.5 -0.5,2.4 0,1.1 0.1,0.3 0.1,0.5 0.2,0.6 0,0.9 -0.1,1.5 -0.2,0.9 -0.1,1.6 0,2.5 0,0.6 -0.2,1.3 0,1.9 0.2,0.7 0.4,1.4 0.3,2.1 -1.5,-1.3 -3,-2.6 -4.4,-4.1 -0.6,-0.6 -1.4,-1.3 -1.9,-2.1 -0.4,-0.9 -0.8,-1.8 -1.1,-2.7 -0.1,-0.3 -0.6,-1.2 -0.4,-1.5 0.5,-0.5 1,-0.9 1.5,-1.4 0.6,-0.5 -0.2,-0.9 -0.7,-1.3 -0.6,-0.5 -1.2,-1.4 -1.9,-1.6 3.7,-4.4 7.8,-8.6 11.7,-12.9 1.5,-1.6 2.9,-3.3 4.3,-5 1,-1.2 1.9,-2.3 2.8,-3.6 0.2,-0.3 1.3,-1.5 0.8,-1.8 -0.6,-0.4 -1.9,0.6 -2.4,0.9 -1.2,0.9 -2.3,2 -3.3,2.9 -1.1,1 -2.2,1.9 -3.2,2.9 -2.4,2.3 -4.7,4.9 -7.3,7.1 -1.1,0.9 -2.2,2 -3.3,3 -0.7,0.7 -1.4,1.4 -2.1,2 -0.3,0.3 -1,0.8 -1.1,1.1 -0.5,-0.5 -1,-1.2 -1.5,-1.7 -0.4,-0.4 -0.9,-1.5 -1.4,-1 -0.8,0.7 -1.6,1.5 -2.3,2.2 0.5,0.6 1.1,1.1 1.7,1.7 -0.5,0 -1,0.3 -1.3,0.7 -0.1,0.1 -0.4,1.1 -0.4,1.1 -1,0 -2.5,1.5 -1.6,2.4 -0.8,-0.1 -1.7,0.6 -1.5,1.5 0.1,0.4 0.2,0.8 0.4,1.2 0.3,0.5 0.5,0.4 0.3,0.9 -0.5,1 1.5,3.4 2.1,2.4 0.9,1 2,2 3.2,2.5 0.4,0.2 1.2,0.3 1.4,0.7 0.6,1 0.7,2.3 1.3,3.4 0.5,0.8 0.5,2.1 1.1,2.8 0.2,-0.4 0.4,-0.7 0.5,-1.1 0.4,1.4 0.8,2.9 2,3.7 0.2,-0.2 0.2,-0.7 0.1,-0.9 0.5,0.9 0.9,1.7 1.5,2.5 0.7,1.1 0.9,1.3 1.2,0.1 2,1.8 4.6,5.1 3.7,7.9 -1.1,3.1 -3.8,5.3 -5.8,7.8 -1.1,1.4 -2.2,2.8 -2.7,4.6 -0.3,1 -0.1,1.6 -1.1,2.1 -1,0.4 -2.1,0.7 -3.1,0.1 -2.7,-2 -0.5,-5.1 0.9,-7.3 1.8,-2.8 2.9,-6.1 0.4,-8.9 1.3,-2.7 2.3,-6.5 0.9,-9.3 -1.4,-3.2 -5,-4.1 -8.3,-3.7 -2.7,0.4 -5.5,1.1 -6.3,4 -0.3,1 -0.4,2.2 -0.3,3.2 0.1,0.6 0.2,1.2 0.2,1.8 0,0.5 -0.2,1.5 0.5,1.3 -0.3,1 0,2 0.8,2.6 0.6,-1.9 2.8,-1.9 4,-3.3 1.5,-1.7 0.7,-3.3 1.3,-5.3 0.7,-2.2 3.9,-1 4.9,0.3 1.3,1.7 0.3,4.5 -0.3,6.4 -1.8,-0.7 -3.9,-0.6 -5.4,0.5 -1.4,1 -2.8,2 -4.2,3 -1.6,1.1 -2,2.7 -2.1,4.6 -0.1,0.5 -0.1,1 -0.1,1.5 0,1 -0.2,1.5 0.9,1 -0.6,0.9 -0.9,2.2 -0.6,3.2 0.2,-0.1 0.7,-0.4 0.7,-0.6 0,0.6 -0.4,1.2 -0.1,1.8 1.2,-1 3,-0.9 4.1,-2.1 1,-1 1.4,-2.4 1.4,-3.8 0,-1.6 -0.3,-3.1 0.2,-4.6 0.5,-1.5 2.3,-1.8 3.6,-1.4 -1,2.7 -2.5,5 -3,8 -0.6,3.7 -0.3,7.9 3.1,10.3 1.7,1.2 3.8,1.3 5.7,1 0.5,-0.1 0.9,-0.2 1.4,-0.4 0.8,-0.3 0.8,0.5 0.9,1.2 0.1,1 -0.1,2.1 -0.8,2.8 -1.3,1.5 -3.5,1 -5.1,1.8 -1.3,0.7 -2.1,2.9 -1.6,4.3 0.1,-0.1 0.3,-0.1 0.4,-0.2 -0.2,0.5 -0.3,1 -0.4,1.6 0,0.2 -0.5,1.9 0.2,1.2 -0.2,1 -0.2,2.7 0.3,3.5 0.5,-0.4 1.1,-0.9 1.6,-1.3 -0.2,1.6 0.3,3.4 1.8,4.2 1.8,1 4.1,0.9 5.9,2 0,-0.5 0,-1 0,-1.5 2.2,0.5 5.1,-0.7 6.4,1.8 0.2,-0.9 0.7,-2.4 -0.2,-3 0.5,-0.5 1.2,-0.4 1.9,-0.3 0.7,0.2 1.4,0.8 1.5,-0.3 0.1,-1.6 -1.6,-1.8 -2.5,-2.8 0.9,-0.5 2.1,0 3,0.3 C 41,91.3 40.1,90.3 39.3,90.1 38.9,90 38.4,90 38,90 c -0.5,-0.4 -1.1,-0.6 -1.7,-0.8 -1.2,-0.3 -2,-0.1 -2.9,0.6 -0.7,0.6 -1.6,1.2 -2.6,1.2 -2.4,0 -1.5,-4.1 0.1,-4.7 2.3,-0.9 5.2,0.6 7.3,-0.9 0,0.2 0.1,0.3 0.1,0.5 1.5,-0.4 4.6,-1.1 4.9,-3 0.2,0.1 0.3,0.3 0.4,0.6 1.1,-0.9 1.7,-2.3 1.6,-3.7 0.1,0.1 0.3,0.2 0.4,0.3 0.7,-1 0.5,-2.6 0.3,-3.8 3,0.4 8.4,1.1 9.2,4.9 0.4,2 -1.8,2.2 -2.8,3.5 -0.6,0.7 -0.8,1.6 -0.8,2.5 0.1,0.4 0.1,0.9 0.6,0.4 -0.6,0.8 -0.9,1.9 -0.9,2.8 0,0.2 -0.1,1.7 0.5,0.8 0.4,1.4 0.3,2.7 0.3,4.1 0.9,-0.2 1.7,-0.6 2.3,-1.3 -1.5,2.5 2.9,2.7 4.3,2.7 1.5,0 2.9,0 4.4,0.3 1.1,0.2 1.6,1.4 1.8,2.4 0.6,-1.1 1.3,-2.7 0.4,-3.8 1,0.2 2.2,0.5 3.3,0.1 0.4,-0.2 0.7,-0.6 1.2,-0.6 0.7,0 1.2,0.5 1.6,1 0.6,-0.3 0.5,-1.5 0.4,-2 -0.1,-0.3 -0.3,-0.7 -0.6,-0.9 -0.3,-0.3 -1.2,-0.1 -1.3,-0.5 1.1,-0.5 1.9,0.2 2.6,0.9 0.2,-1 0.3,-2.4 -0.8,-3.1 -1.2,-0.7 -3,-0.3 -4.3,-0.5 0.8,-0.5 1.7,-0.7 2.7,-0.4 0.4,-0.8 -0.4,-1.8 -1.2,-2.1 -1.2,-0.4 -2,0.3 -3.1,0.3 -1.1,0 -2,0.4 -2.9,1.1 -0.5,0.4 -0.9,0.9 -1.3,1.4 -0.4,0.3 -0.5,0.2 -1.1,0.2 -0.7,-0.1 -1.5,0.1 -1.7,-0.8 -0.1,-1.1 -0.3,-2.2 0.3,-3.1 0.6,-0.9 1.8,-1.4 2.7,-1.9 0.7,-0.5 1.9,-1.3 2.1,-2.1 0.1,0.3 0.2,0.8 0.5,0.8 0.5,0 1,-0.5 1.3,-0.9 0.5,-0.5 0.9,-1.2 1.1,-1.8 0.3,-0.8 0.1,-1.7 0.4,-2.4 0.1,0.2 0.7,0.3 0.9,0.5 0.6,-1.7 -0.1,-4 -1.1,-5.5 -1,-1.7 -2.9,-3.1 -4.8,-3.9 -4,-1.7 -9,-1.8 -13.3,-1.7 0.8,-0.6 1.8,-1 2.7,-1.6 -0.4,-0.6 -1,-1.1 -1.7,-1.1 0.6,-0.5 1.2,-0.9 1.8,-1.4 0.4,-0.3 0.8,-0.7 1.3,-1 0.3,-0.2 1.1,-1.2 1.5,-1.2 0.7,0 2.4,-2.1 2.8,-2.7 0.3,-0.3 0.6,-0.5 0.8,-0.9 0.7,0.1 1.4,0 2.1,-0.3 0.6,-0.3 1.1,-0.8 1.3,-1.4 0.2,-0.4 0.2,-1 0.5,-1.3 0.5,-0.4 1.8,1.9 2,2.1 1.9,2.5 3.9,4.9 6.2,7.1 1,0.9 2,1.9 3,2.7 0.5,0.4 0.4,0.5 0.9,0.1 0.7,-0.6 1.3,-1.1 1.9,-1.7 1.8,-1.8 3.8,-3.5 5.4,-5.6 1.5,-2 3,-4 4,-6.4 1,-2.3 1.5,-4.7 1.4,-7.5 z m -8,-2 c 0.5,0 0.7,1 0.1,1 -0.5,0 -0.7,-1 -0.1,-1 z M 77.9,45 c -0.2,0.1 -0.4,0.2 -0.7,0.2 0.2,-0.4 0.4,-0.6 0.7,-0.2 z m -1,-2.4 c 0.7,0 1.1,1.1 0.2,1.1 -0.6,0.1 -0.8,-1.1 -0.2,-1.1 z m -0.3,1.9 c -0.3,0.2 -0.7,0.3 -1,0.4 0.3,-0.5 0.6,-1 1,-0.4 z M 74,43.6 c 0,0 0.1,-0.2 0.1,-0.3 0.2,0 0.4,0.1 0.5,0.3 0,0 0,0 0,0 -0.2,0.1 -0.4,0.2 -0.6,0.3 0,0 0,-0.2 0,-0.3 z m 1.9,-1 c -0.4,0.6 -1.5,0.3 -1.4,-0.4 0.1,-0.9 2,-0.5 1.4,0.4 -0.1,0.2 0.1,-0.1 0,0 z m -4.7,1 c 0.2,-0.1 0.4,-0.2 0.5,-0.4 0.2,0.3 0.2,0.7 0.3,1 -0.4,0 -0.8,-0.1 -1.2,-0.2 0.1,-0.1 0.3,-0.3 0.4,-0.4 z M 71,41.5 c 0.1,0 0.2,0.1 0.4,0.1 1.2,0.9 -1.3,1.6 -1.2,2.2 -0.1,-0.4 -0.5,-0.8 -0.5,-1.3 0,-0.7 0.7,-1 1.3,-1 z M 58,34.6 c 0.8,0.2 1.7,0.4 2.6,0.3 0.5,0 1.2,-0.2 1.5,-0.7 0.1,-0.1 0.3,-0.8 0,-0.9 1.3,0.1 0.9,2.1 0.1,2.6 C 61,36.7 59,36.1 57.8,35.6 56.7,35.2 55.4,34.9 54.2,34.8 53.1,34.7 51.2,35 50.5,36 50,32.7 56.2,34.2 58,34.6 Z m -6.5,-1 c 1,-1 2.5,-0.6 3.8,-0.3 -1.1,-0.1 -3.1,-0.2 -4.1,0.6 0.1,-0.1 0.2,-0.2 0.3,-0.3 z m 1,3.5 c -0.5,0.2 -1.1,0 -1.6,-0.2 0.8,-0.7 1.8,-1 2.8,-1 -0.4,0.3 -0.7,1.1 -1.2,1.2 -0.2,0 0.1,-0.1 0,0 z M 54.3,36 c 0.2,0.3 0.5,0.6 0.7,0.9 -0.5,0.2 -1,0.1 -1.6,0.2 0.4,-0.4 0.6,-0.7 0.9,-1.1 z M 55,35.9 c 0.3,0 0.6,0.1 0.9,0.1 -0.1,0.2 -0.3,0.4 -0.4,0.5 -0.2,-0.2 -0.4,-0.4 -0.5,-0.6 z m 1.6,0.3 c 0.2,0.3 0.4,0.5 0.6,0.8 -0.4,0.2 -0.9,0.1 -1.3,0.1 0.1,-0.3 0.4,-0.6 0.7,-0.9 z M 50.9,13 c -0.3,0 -0.6,0 -0.9,0 0,-0.3 0,-0.6 0,-0.8 0.4,0 0.7,0.4 0.9,0.8 z m -0.1,0.5 c -0.2,1.2 -2.2,1.3 -2.4,0.1 0.8,0 1.6,-0.1 2.4,-0.1 z m -1.5,-1.3 c 0,0.9 0,0.8 -0.9,0.9 0.1,-0.5 0.4,-0.9 0.9,-0.9 z m -7.5,5.6 C 42,17 42.7,17.6 42.9,17.1 42.2,17 42.3,15.9 43,15.8 c 0.4,-0.1 0.7,0.3 0.9,0 0,-0.1 -0.4,-0.5 -0.1,-0.9 0.2,-0.3 0.6,-0.2 0.9,0 0.6,0.5 0.1,0.2 0.3,-0.3 0.2,-0.5 0.6,-0.6 1.1,-0.4 0.2,0.1 0.3,0.5 0.4,0.5 0.3,0.1 0.2,-1.5 1.2,-1 0.9,0.5 1.1,1.6 2.5,1.4 0.9,-0.2 1.3,-1.5 2.1,-1.5 0.9,0 0.3,0.7 0.7,0.8 0.2,0 0.1,-0.3 0.2,-0.3 0.5,-0.4 1.2,-0.3 1.4,0.4 0.2,0.7 -0.2,0.5 0.3,0.2 0.6,-0.4 1.6,0.5 1,1 0.3,0.4 0.4,-0.4 1,0 1.1,0.6 -0.1,1 -0.1,1.4 0,0.2 0.6,0 0.8,0.2 0.8,0.7 -0.4,1.6 -0.8,2.1 -0.6,-2.5 -2.3,-3.7 -4.8,-3.7 -0.8,0 -0.9,-0.1 -0.9,0.7 0,0.7 0,1.5 0.1,2.2 -0.3,-1.1 -2.1,-1.4 -2.3,-0.1 0,-0.6 0,-1.2 0,-1.8 0,-1.1 0.2,-1.2 -1,-1.2 -2.4,0 -4.4,1.2 -4.8,3.7 -0.8,-0.2 -1.5,-0.8 -1.3,-1.4 0.1,-0.2 -0.1,0.3 0,0 z m 11.5,1.6 c -0.1,0.7 0.7,1.2 1.3,1.5 -0.9,0.3 -1.9,0.1 -2.9,0 0.7,-0.7 1.6,-1.3 0.6,-2.1 -0.1,-0.1 -1,-0.4 -1,-0.3 0,-0.4 0,-0.7 0,-1.1 0,-0.4 0,-0.7 0,-1.1 0,-0.2 1.2,-0.1 1.3,0 1.5,0.2 2.3,1.1 2.7,2.5 -0.6,0 -1.3,0.2 -2,0.6 0,0.1 0.5,-0.3 0,0 z m -7.4,0.2 c -0.5,0.3 0.6,1.2 0.9,1.3 -0.8,0.4 -1.9,0.2 -2.7,0 1.6,-0.7 1.2,-2.7 -0.5,-1.9 0.1,-0.9 0.6,-1.7 1.3,-2.2 0.9,-0.6 1.8,-0.3 2.7,-0.5 0,0.6 0.1,1.2 0.1,1.8 0.1,0.6 -1.3,0.9 -1.8,1.5 z m -3.4,1.6 c -0.1,-0.3 0,-0.6 -0.3,-0.8 -0.5,0.1 -0.5,0.4 -0.9,0 -0.2,-0.3 -1,-1 -1.4,-0.9 0.8,-1.1 1.8,-0.1 2.3,0.5 0.6,0.7 1.6,-1.5 2.4,-0.4 -0.1,0.4 -0.5,0.6 -0.9,0.7 -0.1,0 -0.7,0.1 -0.8,0.2 -0.1,0.4 0.1,0.8 0.6,1 1.2,0.3 5.3,0.9 5.1,-1.3 -0.4,0 -0.7,0.3 -1.2,0.3 -0.6,0 -1.1,-0.7 -0.5,-1 0.8,-0.5 1.7,0.8 2.2,0.3 -0.3,-0.4 -0.2,-1.9 0.6,-1.2 0.5,0.4 0.2,1 -0.1,1.3 0.9,0.3 1.6,-1.3 2.5,-0.1 -0.1,0.4 -0.4,0.6 -0.7,0.7 -0.4,0.2 -0.9,-0.3 -1.2,-0.2 -0.3,2.2 5.8,2.4 5.8,0.5 -0.1,-0.3 -2.3,-0.2 -2,-1 0.6,-0.7 2,0 2.2,0.8 0.5,-0.7 1.9,-2.1 2.8,-1.1 -0.4,0.1 -0.9,0.6 -1.2,0.9 -0.2,0.2 -0.2,0.7 -0.5,0.7 -0.5,-0.1 -0.6,-0.3 -0.8,0.2 -0.7,1.5 -2.9,1 -4.3,1 -1.9,0 -3.8,0 -5.7,0 -0.9,-0.3 -3.5,0.2 -4,-1.1 -0.1,-0.1 0.3,0.7 0,0 z m 0.7,1.3 c 4.2,0 8.3,0 12.5,0 -0.3,0.2 -0.5,0.4 -0.8,0.7 0.3,0.2 0.6,0.5 0.9,0.7 -4.2,0 -8.3,-0.1 -12.5,-0.1 0.4,-0.6 0.7,-1 -0.1,-1.3 z m -2.5,3.1 C 40.5,25.1 40.2,24.5 40,24 c 1.1,0.3 2.3,0.7 3.4,1 0.6,0.2 0.6,-0.7 1,-0.7 0.3,0 0.7,0 1,0 2.9,0 5.9,0.1 8.8,0.1 1,0 1.7,-0.2 2.5,0.7 0.9,1 1.7,1.2 3,1.6 0.9,0.3 2.9,0.5 1.6,1.7 -0.4,0.4 -1.3,-0.2 -1.6,0.1 -0.5,1.1 1,0.8 1.4,0.8 0.2,4.4 -5.6,3.1 -8.2,2.6 -2.3,0 -4.4,1.8 -3.9,4.3 0.3,1.3 1.8,2.1 3,1.6 1.1,-0.4 2.6,-0.3 3.8,-0.1 0.8,0.1 1.8,-0.8 2.2,0 0.2,0.5 0,1.5 -0.3,2 -0.5,0.5 -1.1,0.3 -1.7,0.5 0.5,-0.3 1,-1.3 0.1,-1.3 -1.1,0.8 -1.9,1.6 -3.3,1.3 0.2,-0.1 0.5,-0.4 0.4,-0.7 0,-0.9 -0.9,0.1 -1.1,0.2 -0.6,0.4 -1.3,0.5 -2.1,0.4 -0.7,-0.1 -1,-0.5 -1.6,-0.8 -0.1,2 2.2,2.2 3.7,1.7 0.2,0 0.5,0.3 0.7,0.3 0.6,0.2 1.2,0.1 1.8,0 0.5,-0.2 0.5,-0.3 1.1,-0.2 0.5,0.1 1.2,0.2 1.6,0 -0.1,1.7 1.9,2.4 2.6,3.7 0.4,0.7 0.4,1.7 0.3,2.5 0,0.4 -0.1,0.8 -0.3,1.2 -0.2,0.6 -0.8,1 -1,1.4 -0.2,-0.4 0.2,-0.9 -0.1,-1.3 -0.3,0.6 -0.7,1.2 -1.3,1.6 1,-2.5 -1.2,-4.1 -1.2,-6.5 -1.6,0.2 0,3.4 0.1,4 0.4,1.6 -0.2,3 -1.9,3.4 0.1,-0.2 0.7,-1.2 0.3,-1.4 -0.5,0.8 -1,1.3 -2,1.5 0.8,-1.1 0.6,-2.3 0.3,-3.5 -0.2,-0.8 -0.4,-1.6 -0.2,-2.4 0.1,-0.7 0.6,-0.7 0.8,-1.2 -0.7,-0.9 -1.6,0.7 -1.7,1.2 -0.1,0.6 -0.1,1.2 -0.1,1.7 0,0.7 0.1,1.5 0.1,2.2 0,0.4 -0.1,0.9 -0.3,1.3 -0.2,0.3 -0.9,0.4 -1.1,0.6 0.1,-0.5 0.3,-0.9 0.2,-1.4 -0.4,0.2 -0.7,0.7 -1,1 -0.5,0.4 -0.8,0.3 -1.4,0.5 1.2,-1 1,-2.6 0.9,-4 -0.1,-0.8 -0.1,-1.6 0.3,-2.3 0.3,-0.6 0.8,-1.3 -0.3,-0.7 -3.1,1.6 0.9,6.1 -3.1,6.9 0.2,-0.3 0.3,-0.8 0.3,-1.2 -0.3,0.1 -0.6,0.5 -0.9,0.7 -0.5,0.3 -0.8,0.2 -1.3,0.2 1.4,-0.5 1.7,-2 1.6,-3.2 0,-0.5 -0.1,-1.2 0,-1.7 0,-0.3 0.8,-1.9 0.8,-1.9 -2,0 -1.9,2.5 -2,3.8 -0.2,1.7 -1,2.3 -2.6,2.5 0.1,-0.2 0.5,-0.5 0.4,-0.8 -0.6,0.2 -1.5,0.3 -2.1,-0.1 1.7,0 1.9,-2.3 1.7,-3.5 0,-0.6 0.2,-1.4 0.6,-2 -0.1,0.2 0.8,-0.6 0.3,-0.2 0.4,-0.4 0.1,-0.8 -0.4,-0.6 -1,0.4 -1.2,2.1 -1.5,2.9 -0.2,0.8 -0.3,1.7 -0.9,2.2 -0.7,0.7 -2,0.6 -2.9,0.2 1.7,-0.1 2.2,-2.9 2,-4.2 -1,0.9 -0.7,4 -2.7,3.6 -0.4,-0.1 -0.6,-0.4 -0.8,-0.7 1.5,0.4 2.4,-1.7 2,-2.9 -0.2,-1 0.1,-2.1 1.2,-2.6 1.5,-0.7 3.6,-0.3 4.7,-1.8 0.8,-0.9 0.9,-2.2 1,-3.5 0.1,-2.8 0.1,-5.6 0,-8.5 0.9,0.4 1.9,0.1 2.8,0.3 1,0.2 1.7,1 2.7,1.2 1.1,0.2 4.7,-0.3 3.6,-2.2 0.9,0 2.9,-0.1 2.2,-1.4 -0.5,-0.7 -2,-1.4 -2.7,-0.6 0.7,0.4 1.4,0.2 1.9,1 -1.3,0.8 -2.6,-0.3 -3.9,-0.2 -1.2,0.9 -2.7,1.5 -4.3,1.5 -0.7,0 -1.4,-0.1 -2,-0.4 -0.7,-0.3 -0.8,-0.8 -1.5,-0.2 -0.6,0.9 -2,-0.1 -2.8,-1.2 z m 11.2,29.8 c 0.5,2.2 -0.3,4 -2.5,4.6 0.5,-0.3 0.6,-0.9 0.9,-1.3 0,0 0,-0.1 -0.1,-0.1 -0.5,0.7 -1.2,1.2 -2.1,1.1 1.5,-1 1.6,-2.8 1.6,-4.4 0,-0.8 -0.1,-1.7 0.1,-2.5 0.1,-0.8 0.2,-0.7 0.9,-0.5 0.5,0.1 1.1,0.1 1.4,-0.3 -0.4,1 -0.3,2.2 -0.2,3.4 z m -3,-3.6 c -1.3,2.6 1,6.7 -3.1,7.3 0.4,-0.3 1.1,-0.7 1.1,-1.3 -0.7,0.8 -1.4,0.8 -2.3,0.9 0.6,-0.3 1.2,-0.4 1.4,-1.2 0.4,-1.3 0.1,-2.6 0,-4 0,-0.6 -0.1,-1.3 0.1,-1.9 0.1,-0.1 0.6,0 0.8,0 0.7,-0.1 0.8,-0.3 1.4,0 0.2,0.1 0.4,0.1 0.6,0.2 z m -7.3,5.4 c -0.4,0 -0.8,-0.2 -1.1,-0.4 3.1,0.5 2.2,-4.3 2,-5.9 0.7,0 1.2,-0.1 1.8,0.3 0.1,0.1 0.8,0.2 0.8,0.3 0.1,0.4 -0.1,1.1 -0.1,1.6 0,1.2 0.5,2.9 -0.1,4 -0.4,0.8 -2.1,1.1 -2.9,0.6 0.4,-0.2 0.8,-0.5 1,-0.9 -0.5,0.2 -0.9,0.4 -1.4,0.4 z M 40,55.6 c 0.4,-0.2 0.6,-0.6 0.5,-1 -0.3,0.1 -0.9,0.3 -1.1,0.4 0.9,-0.5 0.6,-1.4 0.4,-2.2 -0.3,-1.1 -0.4,-2 -0.2,-3.1 0.3,0.4 0.7,0.7 1.2,0.8 0.4,0.1 0.7,-0.1 0.7,0.4 0,0.4 0,0.8 0.1,1.1 0.1,1 0.4,2.2 0,3.1 -0.4,0.7 -1.6,0.6 -1.6,0.5 z m 1.3,-22.4 c -1.1,0.2 -2.4,0.5 -2.8,1.6 -0.4,-1.3 0.8,-2.6 1.9,-3.1 0.8,-0.4 1.7,-0.6 2.6,-0.9 0.4,-0.1 1,-0.2 1.2,-0.4 -0.3,0.7 -0.9,0.9 -1.6,1.2 0.3,0.2 1.4,0.3 1.7,-0.1 -0.7,1.1 -1.9,1.5 -3,1.7 -0.4,0.1 1.1,-0.2 0,0 z m 10.6,-5.6 c -0.1,0.2 -0.1,0.6 0.2,0.8 -0.7,0 -1.5,-0.1 -2.1,-0.5 0.6,-0.4 1.9,-1.6 2.5,-1.2 -0.5,0.2 -0.6,0.5 -0.6,0.9 z m -12.6,2.1 c 1.1,-1.7 3.3,-0.6 4.8,-1.6 -0.3,0.8 -1.3,0.5 -1.8,1.1 0.6,0.2 1.4,0 2,0 -1.4,1.4 -4.5,0.4 -5.5,2.4 -0.4,-0.7 0,-1.4 0.5,-1.9 0.6,-1 -0.3,0.3 0,0 z m -0.5,5.9 c 0.5,-0.9 1.4,-1.5 2.4,-1.7 0.8,-0.1 2.1,-0.1 2.8,-0.6 -0.3,0.8 -1.4,0.8 -1.8,1.5 0.4,0.1 1.7,0.2 2.1,-0.1 -0.6,1.4 -2,1.6 -3.3,1.8 -0.6,0.1 -1.3,0.3 -1.8,0.7 -0.2,0.2 -0.6,0.7 -0.9,0.7 -0.1,-0.6 0,-1.7 0.5,-2.3 z m -0.4,4 c 0.9,-2.6 3.8,-1.9 5.6,-3.3 -0.1,1.2 -1.4,1.1 -2.1,1.8 0.4,0.2 1.4,0.3 1.8,0 0.1,2.4 -4.5,1.6 -5.5,3 0,-0.5 0,-1.1 0.2,-1.5 z M 24.2,27.5 c -1,-0.6 -1.8,-1.7 -2.7,-2.4 0.6,-0.5 1.2,-1.6 1.8,-0.9 0.8,1 1.5,1.9 2.4,2.9 3.4,-3.7 7.1,-7 10.6,-10.5 C 38,15 39.7,13.4 41.4,11.8 42.3,11 43.3,10.1 44.2,9.4 45,8.7 46.3,7 47.3,6.7 c -3.5,4.4 -7.6,8.6 -11.4,12.8 -1.8,2 -3.6,3.9 -5.5,5.9 -0.5,0.5 -1.5,2.2 -2.1,2.2 -0.2,0 -1.2,1.3 -1.1,1.3 0.5,0.5 1,1 1.6,1.4 0.4,0.4 0.9,1.1 1.4,1.2 -0.3,0.2 -1,0.7 -1.1,1.1 -0.8,-2.2 -2.8,-4.1 -4.9,-5.1 z m -2,6.3 c -0.3,0.4 -0.7,0.7 -1,1.1 -0.1,-0.4 0,-1.4 -0.3,-1.7 0.4,0.2 0.8,0.5 1.3,0.6 z m -2,0.2 c 0.1,0.3 0.2,0.7 0.1,1 -0.3,0 -0.6,-0.2 -1,-0.3 0.4,-0.1 0.7,-0.4 0.9,-0.7 0.1,0.2 -0.1,0.2 0,0 z m 1.4,-5.7 C 22,27 23.2,29 23,29.8 c -0.3,1.4 -1.7,-0.6 -1.4,-1.5 0.1,-0.3 -0.2,0.6 0,0 z m 0.3,3.5 c 0.2,0.3 0.3,0.8 0.3,1.2 -0.4,-0.1 -0.9,-0.2 -1.2,-0.5 0.5,-0.1 0.8,-0.3 0.9,-0.7 0.2,0.4 -0.1,0.5 0,0 z m 1.2,1.3 C 23,32.8 23,32.4 23,32.1 c 0.3,0.1 0.6,0.2 0.8,0.3 0.2,0.1 0.3,-1.5 0.4,-1.6 0,0.4 0,0.8 0,1.1 0.1,0.6 -0.6,0.8 -1.1,1.2 0,-0.3 0.4,-0.3 0,0 z m 0.5,-1.6 c -0.4,-0.1 -0.7,-0.3 -1,-0.4 0.1,0 0.8,-0.4 0.8,-0.6 0.1,0.3 0.2,0.6 0.2,1 -0.3,-0.1 0,-0.2 0,0 z m 0.9,-1.6 c 0,-0.4 -0.1,-0.8 -0.3,-1.1 0.4,0.1 0.7,0.3 1.1,0.4 -0.3,0 -0.7,0.3 -0.8,0.7 0,-0.4 0.1,-0.4 0,0 z m -4.2,-0.2 c 1,0 1.7,1.8 0.5,2.2 -1,0.4 -2,-1.9 -0.5,-2.2 0.5,0 -0.5,0.1 0,0 z m -2,3.6 c -0.4,-1 0.3,-1.9 1.1,-0.8 1,1.2 -0.5,2 -1.1,0.8 z m 1.2,3.2 c -0.3,-0.2 -1.3,-1 -0.5,-1.2 0.2,-0.1 0.9,0.3 1,0.4 0.3,0 -0.3,0.6 -0.5,0.8 z m -0.3,20.3 c -3.1,0 -3.8,2.8 -3.7,5.3 0.1,1.5 0.1,3 -0.6,4.3 -0.3,0.5 -0.7,1 -1.2,1.4 -0.4,0.3 -1.8,0.3 -1.9,0.6 0.7,-1 2.6,-2 1.7,-3.5 -0.3,1.1 -1.3,1.8 -2.1,2.5 -0.1,-1.4 3.3,-4.5 1.4,-5.7 -0.2,0.5 -0.3,1.1 -0.5,1.6 -0.2,0.6 -0.9,1 -1.1,1.5 -0.3,-1.1 -0.1,-2.6 0.2,-3.7 0.4,-1.4 1.6,-2 2.7,-2.7 1.4,-0.8 2.7,-2.2 4.2,-2.8 1,-0.3 2.3,0 3.2,0.4 -0.2,0.4 -0.5,0.8 -0.6,1.2 -0.6,-0.2 -1.1,-0.4 -1.7,-0.4 z m 9.7,39.7 c 0.1,-0.1 0.4,-0.6 0.3,-0.8 0.7,0.4 0.5,1 0.9,1.5 -0.4,-0.2 -0.8,-0.5 -1.2,-0.7 0.2,-0.3 0.5,0.2 0,0 z m 7.3,0 c -0.8,-0.6 -0.8,-0.2 -0.9,-1.2 1,0.1 1.1,0.9 1.4,1.7 -0.1,-0.2 -0.3,-0.3 -0.5,-0.5 z m 2.3,-1.9 c 0.2,-0.2 0.3,-0.4 0.4,-0.7 0.5,0.1 0.8,0.5 0.8,1 -0.4,-0.1 -0.8,-0.2 -1.2,-0.3 z M 40,91.5 c -0.4,-0.4 -1.3,0.2 -1.6,-0.3 -0.2,-0.3 0.1,-0.5 0.4,-0.5 0.5,0.1 0.9,0.5 1.2,0.8 -0.1,-0.1 -0.4,-0.5 0,0 z m 4.9,-12.8 c 0,-0.1 0,-0.1 0,0 0,0 0,0 0,0 z M 64.7,98 c 0,-0.4 -0.4,-0.8 -0.7,-0.9 0.2,-0.2 0.4,-0.3 0.7,-0.5 0.2,0.4 0.1,1 0,1.4 -0.1,-0.3 0.1,-0.4 0,0 z m 5.9,-3 c -0.4,-0.2 -0.8,-0.4 -0.4,-0.8 0.4,0.1 0.7,0.5 0.7,1 -0.1,-0.1 -0.2,-0.2 -0.3,-0.2 -0.2,-0.1 0.1,0 0,0 z m 1,-2.7 c -0.5,-0.1 -1.2,-0.2 -1.7,0 0.3,-0.3 0.4,-0.6 0.2,-1 0.6,0.1 1.4,0.3 1.5,1 -0.2,-0.1 -0.1,-0.8 0,0 z M 68,88.5 c 0.3,0 0.7,0.1 0.8,0.4 -0.5,0.1 -1.2,0.2 -1.5,0.5 C 67.2,88.7 67,88.5 68,88.5 Z M 49.9,69.2 c 6.5,0 15.6,0.3 17.1,8.3 -0.9,-0.7 -1.7,-1.5 -2.6,-2.1 -0.1,0.9 0.9,2.4 1.2,3.3 0.3,1.2 0.1,2.5 -0.9,3.5 0,-1.3 -0.5,-2.8 -1.8,-3.4 0.4,1.7 0.8,3.7 -0.8,4.8 -1,0.7 -2.7,1.2 -3.5,2.2 -0.4,0.6 -0.6,1.3 -0.8,1.9 -0.3,2.2 0.1,4.7 2.8,4.4 1.2,-0.1 1.5,-0.7 2.2,-1.4 0.5,-0.5 1.1,-0.9 1.8,-1.2 0.5,-0.2 1.2,-0.1 1.7,-0.3 0.3,1.3 -2.3,1.6 -2.2,2.8 1.7,1.1 3.4,-1.2 5.2,-0.2 -1.1,1.7 -3.4,1 -4.9,1.9 0.5,0.5 1.3,0.7 2.1,0.6 0.6,-0.1 1.2,-0.2 1.8,-0.3 0.7,-0.1 0.6,0.3 1.1,0.5 -0.7,0 -1.2,0.4 -1.8,0.7 -0.7,0.4 -1.1,0.2 -1.8,0 -1.5,-0.5 -3.4,-1.2 -4.7,0 0.8,1 2.8,-0.2 3.1,1.4 -1.2,-0.4 -3.1,-0.5 -4.4,-0.4 -1.3,0.1 -3,0.2 -4.1,-0.8 C 55.1,94.8 55.5,92.3 55.6,91.5 54.4,91.4 54.1,93.9 53,94.3 52.9,93 52.7,92 53.7,91 c 0.2,-0.2 1.4,-1.2 1,-1.5 -0.5,0 -0.9,0.4 -1.4,0.6 -0.3,0.1 -0.7,0.1 -1,0.2 0.1,-0.5 0.1,-1 0.4,-1.4 0.3,-0.5 0.7,-0.5 1.1,-0.9 0.8,-0.5 1.5,-1.1 1.7,-2.1 C 55,85.2 53,86.8 52.7,87 52.5,85.2 54,84.9 55.2,84.2 56.4,83.4 56.4,81.7 56,80.4 55,77.4 51.5,76 48.6,75.6 47.7,75.5 45.7,75.7 45.2,75 44.8,74.4 44.4,73.8 44,73.3 c -0.1,-0.2 -0.7,-0.8 -0.7,-1 0.5,-0.6 1.1,-1.2 1.7,-1.8 1.4,-1.4 2.9,-1.3 4.9,-1.3 z m -3.5,-1.6 c 1,-0.4 1.8,-0.9 2.8,-1.1 -1.6,1.2 -3.5,1.9 -5,3.4 0.7,-0.8 1.4,-1.6 2.2,-2.3 z M 49,64.3 c -2.4,1.8 -4.8,3.6 -6.3,6.2 -0.3,-0.4 -0.1,-2.6 -0.6,-2.2 -1,0.8 -1,2.5 -0.5,3.5 0.5,1.2 1.5,2.1 2.3,3.1 1,1.2 1.3,2.2 1.2,3.6 -0.5,-0.8 -1.8,-1.9 -2.8,-1.5 1,1.5 2.6,2.4 1.8,4.5 -0.3,-0.8 -0.8,-1.6 -1.6,-2 -0.2,-0.1 -0.9,-0.5 -1.1,-0.2 -0.1,0.2 0.5,0.8 0.6,1.1 1.1,2 -0.4,3.7 -2.4,4.2 0.5,-0.9 1.2,-3 -0.4,-3.4 0.6,3.5 -3.1,3.9 -5.6,3.9 -1.2,0 -2.5,0 -3.7,0.4 -1.5,0.5 -1.6,2.5 -1.6,3.8 0,0.9 -0.1,1.7 0.8,2.3 1.1,0.7 2.1,0.6 3.3,0.2 0.8,-0.3 1.3,-1 1.9,-1.3 1.1,-0.8 2.3,-0.1 3.3,0.6 -0.7,0.2 -1,0.8 -1.8,0.8 -0.9,0 -1.8,0.1 -2.6,0.5 0.3,1.3 2.9,0.3 3.8,0.6 0.4,0.1 1.3,0.8 0.8,1.2 -0.6,0.5 -1.4,0.3 -2.1,0.1 -1,-0.2 -2.9,-1.1 -3.3,0.3 0.9,-0.3 2.1,0.2 2.3,1.1 -0.8,-0.2 -1.6,0 -2.4,0 -0.8,0 -1.4,-0.4 -2.1,-0.8 -0.7,-0.4 -1.7,-0.1 -2.5,-0.3 -0.3,0.5 1.1,0.9 0.8,1.4 -1.4,-0.2 -3.5,-0.8 -4,-2.3 -0.5,-1.4 0.5,-3 -0.1,-4.4 -0.8,0.7 -1.5,1.4 -2.2,2.1 -0.6,-1.8 2.9,-3.1 1.8,-4.6 -0.3,0.3 -0.5,0.7 -0.7,1 -0.2,0.3 -0.4,0.5 -0.7,0.7 -0.1,0.1 -0.7,0.1 -0.8,0.2 0,-0.8 0.2,-1.6 1,-2 0.6,-0.3 1.9,-1 1.2,-1.9 -0.6,0.3 -1.1,0.7 -1.7,0.8 -0.2,-3.3 4.4,-2.6 6.3,-4 1.5,-1.1 1.7,-2.7 1.3,-4.3 -0.3,-1.4 -0.4,-2.5 -1.9,-2 -1.7,0.5 -3.7,1.3 -5.5,0.6 -1.4,-0.5 -2.5,-1.8 -3.3,-3 -1.7,-3 -1.1,-6.7 0,-9.8 1.5,-4.2 8.3,-12.8 2.6,-16.4 -2.7,-1.7 -5.6,-0.5 -5.8,2.6 -0.2,1.5 0,2.7 -0.7,3.7 -0.8,1.3 -2.6,0.9 -3.3,2.4 -0.7,-1.4 1,-2.4 1.8,-3.2 0.7,-0.8 0.6,-1.6 0.4,-2.7 -0.5,0.3 -0.9,1.4 -1.3,2 -0.4,0.4 -0.9,0.5 -1.2,1.1 -0.7,-1.6 0.4,-2 1.2,-3.1 0.4,-0.4 1.6,-1.9 0.5,-2.3 -0.3,0.8 -1,1.9 -1.8,2.2 -0.6,-4.8 7.5,-5.5 10.5,-3.9 5.2,2.7 2.3,9 0.6,12.9 -0.9,1.8 -2,3.6 -2.6,5.6 -0.3,1.1 -0.7,2.2 -0.6,3.5 0,0.8 0.1,1.5 0.6,0.4 0.9,-1.8 2.7,-3.2 3.4,-5.3 0.3,-0.9 0.4,-1.8 0.2,-2.8 -0.3,-1.2 -0.1,-1.2 0.3,-2.3 2.1,1.7 1.1,5 0,7 -1,1.8 -2.6,3.4 -2.9,5.5 -0.4,2.7 1.4,4.8 4.2,4.6 0.9,-0.1 2.9,-0.6 3,-1.6 0.2,-1.4 0.8,-2.8 1.5,-4 2.2,-3.7 6.7,-6.5 7.6,-10.9 0.6,-3 -2.1,-5.1 -3.6,-7.2 -0.7,-1 -0.8,-1.5 -0.9,-2.7 0,-0.4 -0.4,-1 -0.7,-0.3 C 32,48.4 32,49.1 32,49.6 30.6,48.8 30.5,47 30.6,45.7 c 0.2,-3 -1.5,1.6 -1.1,1.6 -0.9,0 -1.1,-3.2 -1.2,-3.7 0,-0.4 -0.2,-2.2 -0.7,-0.9 0,0 -0.2,1.4 -0.3,1.4 -0.8,0 -1.4,-3.9 -1.9,-4.5 -0.4,-0.5 -1.1,-0.6 -1.8,-0.9 -1,-0.5 -1.7,-1.3 -2.5,-1.9 0.5,-0.5 2.8,-3.5 3.4,-3.2 0.5,0.5 0.4,2.3 1.9,1.7 0.5,-0.4 -1.3,-2.9 -1.4,-3.6 -0.1,-1.2 0.5,-2.3 1.6,-1.1 0.8,1 1.5,2.2 2,3.5 0.5,1.3 0.8,3.1 1.6,4.1 1,1.2 2,2.3 3.2,3.4 1.1,1 2.2,2 3.3,3 0.3,0.3 1.3,1.3 0.1,1.3 -0.5,0 -0.5,-0.7 -0.9,-0.8 -0.3,0.8 -0.3,1.7 0,2.6 0.2,0.5 0.5,1 0.9,1.3 0.3,0.2 1.7,1.1 2,0.6 -0.2,0.6 -0.2,1.4 -0.2,2 0.1,0.6 1.1,3.5 -0.5,2.2 -0.4,0.7 0.1,1.4 0.6,1.9 0.6,0.6 0.9,0.9 1.4,1.6 0.4,0.7 1.2,1.2 2,1.4 0.6,0.2 1.3,0 1.8,0.4 0.7,0.6 1.7,0.8 2.6,0.8 0.6,0 0.6,-0.1 1,0.3 0.4,0.4 1,0.6 1.5,0.7 1.4,0.3 3.2,0.2 4.6,-0.2 -1.4,1.2 -3,2.4 -4.6,3.6 z M 22.7,61.6 c -0.4,0.8 -0.7,1.8 -1.2,2.6 -0.3,0.6 -1,1.1 -1.2,1.8 0.5,-2.1 1.6,-3.9 2.4,-5.9 0.1,0.5 0.1,1 0,1.5 z m 31,-1.6 c -0.1,0.1 -0.3,0.1 -0.4,0.2 0.6,-0.6 1.2,-1.6 1,-2.5 -0.6,1.2 -1.4,2.4 -3,2.4 3,-1.8 1.7,-5.3 1.5,-8.2 0.9,0.1 2,0.3 2.8,-0.2 -0.7,2.3 1.4,7.7 -1.9,8.3 z m 6.2,-3.8 c -0.4,0.1 -0.8,0 -1.1,0.1 0.2,0.4 0.7,0.5 1.1,0.4 -2.5,2.1 -4.1,-1.7 -3.5,-3.7 0.1,-0.4 0.3,-1.1 0.6,-1.4 0.5,-0.5 2,-0.9 2.8,-1.1 0,1.3 -1.2,2 -1.3,3.3 -0.1,1.4 1.2,2.1 2.4,1.3 -0.2,0.5 -0.5,0.9 -1,1.1 -0.1,0 0.3,-0.1 0,0 z m 0.8,-2.1 c -0.8,0.5 -2,0.8 -1.3,-0.7 0.4,-0.9 1.3,-1.7 1.1,-2.7 0.2,0.5 0.4,1.1 0.6,1.6 0.1,0.3 0.3,0.6 0.4,1 0.2,0.4 -0.5,0.5 -0.8,0.8 z m 23.7,-1.4 c -1.8,4.4 -5,7.9 -8.4,11.1 -0.8,0.7 -1.6,1.3 -2.5,2 -0.7,-0.6 -1.3,-1.1 -1.9,-1.6 -1.9,-1.6 -3.5,-3.3 -5.1,-5.2 -2.6,-3.1 -4.8,-6.8 -5.2,-10.9 -0.1,-1.5 0.1,-3.2 0.8,-4.5 1.1,-1.9 3.4,-3 5.4,-2 0.3,0.4 0,0.9 -0.4,1.1 C 66.3,43.1 66.4,42 66,42 c -0.8,0.8 0.9,2.4 1.5,2.7 0.8,0.3 1.7,0 2.3,-0.4 0.9,0.3 1.8,0.6 2.7,0.8 -0.1,-1.6 -0.3,-3.3 0.8,-4.6 1,0.8 0.2,3.4 0.1,4.5 0.8,-0.4 1.4,-1.2 2.3,-1.3 -0.3,0.6 -0.9,1 -0.9,1.8 0.5,0.1 1.2,-0.1 1.7,-0.3 0,1.1 3.3,0.1 3.8,-0.1 1.1,-0.4 3.1,-1.4 2,-2.8 -0.6,0.2 -0.2,0.9 -1.1,0.9 -0.6,-0.1 -1.1,-0.4 -0.9,-1 0.3,-0.9 2,-0.7 2.6,-0.4 1.9,0.7 2.6,3.2 2.7,4.9 0.1,2 -0.4,4.1 -1.2,6 -0.4,0.9 0.2,-0.4 0,0 z" />
        <path
           inkscape:connector-curvature="0"
           id="path44"
           d="m 77.7,54.4 c -0.4,0 -1,0.2 -1.1,0.7 -0.1,0.5 -0.5,0.4 -0.7,0.8 -0.2,0.5 0.3,0.8 0.3,1.1 0.1,0.3 -0.7,0.8 -0.9,0.8 -0.3,0 -1.2,-0.6 -1,-0.9 0.1,-0.2 0.8,-0.1 1.1,-0.5 0.2,-0.3 0.6,-1 0.2,-1.3 C 75.3,55 75.1,55 74.9,55 c -0.6,0 -0.3,0 -0.7,-0.4 -0.6,-0.8 -1.9,-0.7 -2,0.5 -1.5,-0.4 -1.4,1.6 -0.4,1.7 1.5,0.3 -0.3,1.2 -0.6,0.9 -0.2,-0.2 -0.6,-0.4 -0.6,-0.7 0.3,-0.4 0.5,-1 0.1,-1.3 -0.5,-0.4 -0.3,-0.3 -0.6,-0.7 -0.2,-0.2 -1,-0.7 -1.3,-0.4 -0.3,0.4 0.4,2.9 0.5,3.5 0.1,0.8 0,2 0.9,2 0.7,0 1.4,0 2.1,0 1.5,0 3,0 4.5,0 0.6,0 0.6,-2 0.6,-2.5 0.2,-0.6 0.9,-3.2 0.3,-3.2 z M 77.1,57 c -0.1,0.6 -0.2,1.2 -0.3,1.8 -0.1,0.7 0,0.7 -0.7,0.7 -1.2,0 -2.3,0 -3.5,0 -0.7,0 -1.4,0 -2.2,0 -0.5,0 -0.4,-0.9 -0.5,-1.3 -0.2,-1.1 -0.4,-2.1 -0.6,-3.2 0.3,0.1 0.4,0.2 0.4,0.5 0,0.4 0.3,0.3 0.6,0.5 0.4,0.2 -0.5,1 -0.2,1.4 0.6,0.6 1.4,1.3 2.2,0.6 0.2,-0.2 0.8,-0.8 0.8,-1.1 0.2,-0.7 -1.1,-0.6 -1.4,-1.1 -0.3,-0.5 0.4,-0.3 0.6,-0.2 1,0.4 0.4,-0.3 0.4,-0.5 0.1,-0.3 0.5,-0.8 0.8,-0.5 0.6,0.5 0.1,0.4 0.1,0.8 0,0.7 1,0 1.3,0.1 0.3,0.1 -0.5,0.8 -0.7,0.8 -0.5,0 -0.7,0.3 -0.6,0.8 0,0.3 0.5,0.8 0.8,1 0.8,0.7 1.6,0.1 2.2,-0.6 0.3,-0.4 -0.6,-1.1 -0.1,-1.4 0.3,-0.2 0.6,-0.1 0.6,-0.5 0,-0.3 0.1,-0.4 0.4,-0.5 -0.2,0.5 -0.2,1.4 -0.4,1.9 z m -5.2,-4.6 c 0.3,-1.3 0.5,-2.5 0.6,-3.8 0.1,-0.7 0.7,-2.1 -0.5,-1.6 -0.5,0.2 -0.5,0.5 -0.7,0.9 -0.2,0.4 -0.8,0.2 -0.7,0.9 0.1,0.8 0.5,0.8 -0.3,1.4 -0.4,0.2 -1.5,-0.4 -1.3,-0.8 0.1,-0.2 0.7,0 0.9,-0.2 0.2,-0.2 0.8,-1.1 0.5,-1.4 -0.3,-0.6 -0.9,0 -1.2,-0.5 -0.2,-0.4 -0.6,-0.9 -1.1,-0.9 -0.4,0 -0.6,0.3 -0.8,0.6 -0.1,0.2 -0.2,0.3 -0.2,0.5 -0.3,-0.1 -0.7,-0.1 -1,0.1 -0.4,0.3 -0.1,0.9 0.1,1.2 0.3,0.4 1,0.3 1.1,0.5 0.3,0.6 -2.4,1.5 -1.7,-0.3 0.2,-0.6 -0.1,-0.6 -0.3,-1 -0.4,-0.2 -0.2,-0.6 -0.6,-0.8 -1.3,-0.9 -1,0.4 -0.9,1.2 0.2,1.2 0.3,2.5 0.6,3.7 0.2,0.7 0.4,0.5 1.1,0.5 0.9,0 1.8,0 2.7,0 1.2,-0.2 2.7,0 3.7,-0.2 z M 65,51.9 c -0.3,-1.4 -0.3,-3.1 -0.8,-4.4 0.6,0.1 0.2,0.8 0.7,0.9 0.6,0.1 0.3,0.5 0.1,0.9 -0.2,0.5 0.3,0.9 0.7,1.2 0.8,0.6 3,-0.6 2.3,-1.5 -0.1,-0.2 -1.8,-0.4 -1.4,-1 0.1,-0.4 1.1,0.3 1.3,0.1 0.4,-0.2 -0.5,-1.1 0.5,-1.2 0.3,0 0.5,0.3 0.6,0.5 0.1,0.2 -0.2,0.1 -0.2,0.3 0,0.7 1.1,-0.1 1.4,0.2 -0.3,0.9 -1,0.3 -1.5,0.9 -0.7,1 1.4,2.1 2.3,1.5 0.2,-0.2 0.7,-0.5 0.7,-0.9 0,-0.3 -0.6,-0.9 -0.2,-1.1 0.4,-0.2 0.3,-0.2 0.6,-0.4 0.2,-0.2 -0.1,-0.4 0.4,-0.6 0,0.4 -0.6,4.4 -0.8,4.4 -2.4,0.2 -4.6,0.2 -6.7,0.2 z m 18,-5.1 c -0.5,0 -1.1,0.3 -1.2,0.8 -0.1,0.4 -0.6,0.3 -0.7,0.7 -0.2,0.8 0.7,1 -0.1,1.5 -0.4,0.3 -1.8,0 -1.5,-0.7 0.1,-0.2 0.7,0 0.9,-0.2 0.2,-0.2 0.8,-1.1 0.5,-1.4 -0.3,-0.6 -0.9,0 -1.2,-0.5 -0.2,-0.4 -0.6,-0.9 -1.1,-0.9 -0.4,0 -0.6,0.3 -0.8,0.6 -0.1,0.2 -0.2,0.3 -0.2,0.5 -0.3,-0.1 -0.7,-0.1 -1,0.1 -0.4,0.3 -0.1,0.9 0.1,1.2 0.3,0.4 1,0.3 1.1,0.5 0.3,0.6 -1.1,1 -1.5,0.7 -0.8,-0.6 0.4,-1.1 -0.3,-1.8 -0.3,-0.3 -0.5,-0.1 -0.6,-0.6 -0.1,-0.4 -1.5,-1 -1.4,-0.4 0.2,1.3 0.4,2.6 0.7,3.9 0.2,1.3 0,1.4 1.2,1.4 2,0 4,0 6.1,0 0.7,0 0.7,-2.3 0.8,-2.9 0.2,-0.2 0.7,-2.5 0.2,-2.5 z m -7.5,5.1 c -0.3,-1.4 -0.3,-3.1 -0.8,-4.4 0.5,0.1 0.2,0.4 0.4,0.5 0,0.4 0.7,0.2 0.7,0.6 0,0.4 -0.6,0.8 -0.3,1.2 0.9,1.1 2,1.2 2.8,-0.1 0.6,-1 -0.9,-0.9 -1.3,-1.7 0.1,-0.4 0.8,0 1.1,0 0.6,0 -0.3,-1.2 0.6,-1.2 0.4,0 0.7,0.5 0.4,0.7 -0.6,0.5 1.4,0.4 1.4,0.4 -0.3,0.9 -1,0.3 -1.5,0.9 -0.7,1 1.4,2.1 2.3,1.5 0.2,-0.2 0.7,-0.5 0.7,-0.9 0,-0.3 -0.6,-0.9 -0.2,-1.1 0.4,-0.2 0.3,-0.2 0.6,-0.4 0.2,-0.2 -0.1,-0.4 0.4,-0.6 0,0.4 -0.6,4.4 -0.8,4.4 -2.3,0.2 -4.4,0.2 -6.5,0.2 z" />
      </g>
    </g>
    <g
       transform="translate(0,113.29572)"
       id="g52">
      <path
         inkscape:connector-curvature="0"
         id="path50"
         d="m 138.1,59.4 c -9.9,0 -17.2,-5.6 -17.2,-16 0.1,-11.4 8.7,-16.4 19,-16.4 2.7,0 5,0.3 7.6,1.1 l -0.7,7.1 h -1.6 c -0.8,-4 -2.7,-5.3 -6.9,-5.3 -7.4,-0.1 -11.2,5.8 -11.2,12.8 0,8.2 4,13.7 12.6,13.7 1.2,0 2.5,-0.2 3.7,-0.4 V 44.9 h 5.6 c -0.2,1.5 -0.3,3.1 -0.3,4.6 0,2.6 0.1,5.4 0.3,8 -3.6,1.3 -7.2,1.9 -10.9,1.9 z m 33.7,-12.1 c 0,3.9 -1.2,9.4 -6.1,9.4 -4.9,0 -6.2,-5.7 -6.2,-9.6 0,-3.9 1.2,-9.4 6.1,-9.4 4.9,0 6.2,5.7 6.2,9.6 z m 1.1,-19.6 c 0,-1.6 -0.8,-2.9 -2.6,-2.9 -1.8,0 -2.6,1.3 -2.6,3 0,1.6 0.7,3 2.5,3 1.9,0 2.7,-1.3 2.7,-3.1 z m -8.7,0 c 0,-1.6 -0.8,-2.9 -2.6,-2.9 -1.8,0 -2.6,1.3 -2.6,3 0,1.6 0.8,3 2.5,3 1.9,0 2.7,-1.3 2.7,-3.1 z m 13.1,18.9 c 0,-6.8 -4.2,-11.6 -11.1,-11.6 -7.6,0 -12.1,5.4 -12.1,12.7 0,6.7 4.2,11.6 11.1,11.6 7.5,0 12.1,-5.4 12.1,-12.7 z m 17.5,11.5 c -1.2,0.7 -3.9,1.2 -5.3,1.2 -4.3,0 -6.4,-2.5 -6.4,-6.7 0,-4.6 0.2,-9.2 0.3,-13.8 l -4.3,-0.7 v -1.4 l 4.3,-0.9 v -6.2 l 5,-0.9 -0.1,7.1 h 6.2 v 2.9 h -6.2 c 0,4 -0.1,8 -0.1,12 0,2.9 0.5,5.8 3.9,5.8 0.7,0 2.2,-0.3 2.8,-0.5 0,0.8 0,1.2 -0.1,2.1 z m 18.5,-14.3 v 0 l -10.1,0.3 c 0.3,-3.2 1.5,-6.5 5.3,-6.5 3.6,0.1 4.8,3.1 4.8,6.2 z m 5.4,0.5 c 0,-6.2 -3.3,-9.2 -9.9,-9.2 -7.2,0 -11.2,5.3 -11.2,12 0,7.4 4.5,12.1 12.1,12.1 2.7,0 5.7,-0.5 8.1,-2 l 0.4,-2.9 c -2,1.1 -4.7,1.8 -7,1.8 -6.2,0 -8.2,-4.3 -8.2,-9.7 l 15.5,0.2 c 0.1,-0.7 0.2,-1.5 0.2,-2.3 z m 21.9,3.1 v 0 c 0,3.9 -1.4,9.4 -6.2,9.4 -4.6,0 -4.2,-4.8 -4.2,-8 0,-3.3 -0.1,-7.6 0,-7.9 1.1,-1 3.1,-1.8 4.7,-1.8 4.6,-0.1 5.7,4.5 5.7,8.3 z m 5.5,-1.4 c 0,-5.9 -2.8,-11 -9.3,-11 -3.1,0 -4.8,1.1 -6.7,3.6 l 0.1,-14.5 c -0.6,0 -1.2,-0.1 -1.8,-0.1 -2.3,0 -4.7,0.2 -6.9,0.7 v 1.5 c 2.5,0.1 3.4,0.5 3.8,3 0.4,2.6 0.3,5.8 0.3,8 0,6.7 -0.3,13.5 -0.5,20.2 1.5,0.9 4.1,1.9 8.5,1.9 7.8,0 12.5,-5.6 12.5,-13.3 z m 21.2,1.3 c 0,3.9 -1.2,9.4 -6.1,9.4 -4.9,0 -6.2,-5.7 -6.2,-9.6 0,-3.9 1.2,-9.4 6.1,-9.4 4.9,0 6.2,5.7 6.2,9.6 z m 5.6,-0.7 c 0,-6.7 -4.3,-11.5 -11.2,-11.5 -7.6,0 -12.2,5.4 -12.2,12.7 0,6.7 4.3,11.6 11.2,11.6 7.5,-0.1 12.2,-5.5 12.2,-12.8 z m 19.6,-5.4 h -1.3 c -0.6,-1.3 -1.3,-1.8 -2.7,-1.8 -1.9,0 -3.2,1.3 -4.2,2.7 v 16.8 h -5.5 c 0.4,-5 0.6,-10.1 0.6,-15.1 0,-3.3 0.4,-6 -3.8,-6.2 v -1.4 c 2.3,-0.7 5,-0.8 7.3,-0.8 0.4,0 0.8,0 1.2,0 l 0.1,4 c 1.3,-3.1 4,-4.3 7.2,-4.3 0.5,0 1,0 1.5,0.2 z m 16.2,1.9 c 0,2.4 -1.1,5.2 -3.9,5.2 -3,0 -4,-3.7 -4,-6.2 0,-2.4 1.1,-5.4 3.9,-5.4 3,0.1 4,4.1 4,6.4 z m 8.2,18.6 c 0,-2.3 -0.9,-4.1 -2.4,-5.1 -3.9,-2.8 -13.1,0.2 -13.1,-3.7 0,-1 0.4,-1.9 1.1,-2.5 5.5,0.7 11.5,-1.7 11.5,-8.1 0,-1.1 -0.2,-2.1 -0.6,-3.1 h 3 v -3 H 311 c -1.9,-1.3 -3.7,-1.7 -5.9,-1.7 -5.2,0 -9.6,2.7 -9.6,8.3 0,3.6 1.7,5.9 5.1,7 -1.6,1.2 -2.2,2.7 -2.2,4.3 0,1.6 0.6,3.1 2.1,3.8 -3.1,0.4 -5.7,1.5 -5.7,5 0,5.5 6.5,6.9 10.8,6.9 5.2,0 11.3,-1.9 11.3,-8.1 z m -5.2,1.1 c 0,3.3 -3,4.6 -5.9,4.6 -2.7,0 -5.6,-1.3 -5.6,-4.4 0,-3.3 2.9,-4 5.7,-4 2.5,0.2 5.8,0.5 5.8,3.8 z M 326,59.3 c -2.6,0 -4.9,-0.4 -7.3,-1.7 l 0.6,-4.6 c 1.8,1.9 4,3.6 6.8,3.6 2,0 3.9,-1.1 3.9,-3.3 0,-2.6 -2.2,-3.5 -4.7,-4.4 -3,-1.1 -6.5,-2.3 -6.5,-6.8 0,-5.5 4.9,-7.2 9.5,-7.2 2.1,0 4.2,0.3 6.2,1.2 l -0.6,5.5 h -1.6 c -0.4,-2.4 -1.6,-4 -4.3,-4 -1.9,0 -3.8,1.2 -3.8,3.3 0,2.5 2.3,3.3 4.9,4.2 3.1,1 6.5,2.2 6.5,6.8 0.1,5.5 -4.8,7.4 -9.6,7.4 z m -195.8,46.5 c -3.2,0 -6.3,-0.6 -9,-2.4 l 1,-5 c 2.2,2.9 4.4,4.5 8.1,4.5 3.2,0 5.6,-1.8 5.6,-5.1 0,-4 -3.3,-5 -6.7,-6.2 -3.8,-1.3 -7.8,-2.7 -7.8,-8.6 0,-6.6 6,-9.5 11.8,-9.5 2.4,0 5.1,0.1 7.1,1.4 l -0.7,6.6 h -1.5 c -0.1,-0.4 -0.1,-0.7 -0.2,-1 -0.6,-2.7 -1.9,-4.1 -5.1,-4.1 -3,0 -5.5,1.7 -5.5,4.9 0,4.1 3.6,4.8 7.2,6.1 3.6,1.2 7.3,2.9 7.3,8.8 -0.2,6.7 -5.6,9.6 -11.6,9.6 z m 28.7,-1.3 c -1.2,0.7 -3.9,1.2 -5.3,1.2 -4.3,0 -6.4,-2.5 -6.4,-6.7 0,-4.6 0.2,-9.2 0.3,-13.8 l -4.3,-0.7 v -1.4 l 4.3,-0.9 V 76 l 5,-0.9 -0.1,7.1 h 6.2 v 2.9 h -6.2 c 0,4 -0.1,8 -0.1,12 0,2.9 0.5,5.8 3.9,5.8 0.7,0 2.2,-0.3 2.8,-0.5 0,0.9 0,1.3 -0.1,2.1 z M 175,95.8 c 0,3.4 -0.3,6.8 -4.5,6.8 -2.2,0 -3.6,-1.5 -3.6,-3.8 0,-1.9 1,-2.6 2.5,-3.3 1.7,-0.9 3.7,-1.4 5.7,-1.6 v 1.9 z m 8.6,9.5 v -1.6 c -3.9,-0.1 -3.7,-2.9 -3.7,-6.1 0,-2.4 0.2,-4.7 0.2,-7.1 0,-6.3 -2.2,-9 -8.7,-9 -3.1,0 -6.1,0.6 -8.5,2.8 l 0.7,3.7 h 1.6 c 0.8,-2.3 2.7,-3.4 5.1,-3.4 4.5,0 4.7,3.1 4.6,7 0,0 -7.1,0.9 -10.1,2.3 -2.2,1 -3.4,2.8 -3.4,5.4 0,4.3 3.3,6.5 7.3,6.5 3,0 5.2,-1 6.8,-3.5 l 0.1,3 z m 18.3,-14.4 c 0,3.2 0,6.3 0,9.5 -1.1,1.5 -2.9,2.1 -4.8,2.1 -4.4,0 -6,-4.8 -6,-8.5 0,-4.1 1.5,-9.8 6.5,-9.8 4.4,0 4.3,3.3 4.3,6.7 z m 8.7,14.5 v -1.5 c -0.9,-0.1 -1.9,-0.4 -2.6,-0.9 -1.1,-0.8 -1.2,-2.3 -1.2,-3.8 -0.3,-9.1 0,-19.6 0.1,-28.6 -1.9,-0.2 -6.1,0.1 -8.9,0.8 v 1.4 c 4.1,0.2 4,2.6 4,5.7 0,1.5 0,2.9 0,4 -1.4,-0.6 -2.9,-0.7 -4.3,-0.7 -7.4,0 -12.1,5 -12.1,12.6 0,6.2 3.5,11.5 10.1,11.5 2.6,0 5.1,-0.9 6.8,-2.9 0,0 0.1,0.9 0.1,2.5 h 8 z" />
    </g>
  </g>
</svg>
