<?xml version="1.0" encoding="UTF-8" standalone="no"?>
<svg
   xmlns:dc="http://purl.org/dc/elements/1.1/"
   xmlns:cc="http://creativecommons.org/ns#"
   xmlns:rdf="http://www.w3.org/1999/02/22-rdf-syntax-ns#"
   xmlns:svg="http://www.w3.org/2000/svg"
   xmlns="http://www.w3.org/2000/svg"
   xmlns:sodipodi="http://sodipodi.sourceforge.net/DTD/sodipodi-0.dtd"
   xmlns:inkscape="http://www.inkscape.org/namespaces/inkscape"
   viewBox="0 0 76.5 51"
   version="1.1"
   id="svg48"
   sodipodi:docname="logo-sigtuna.svg"
   width="255"
   height="170"
   inkscape:version="0.92.3 (2405546, 2018-03-11)">
  <metadata
     id="metadata52">
    <rdf:RDF>
      <cc:Work
         rdf:about="">
        <dc:format>image/svg+xml</dc:format>
        <dc:type
           rdf:resource="http://purl.org/dc/dcmitype/StillImage" />
        <dc:title>Asset 1</dc:title>
      </cc:Work>
    </rdf:RDF>
  </metadata>
  <sodipodi:namedview
     pagecolor="#ffffff"
     bordercolor="#666666"
     borderopacity="1"
     objecttolerance="10"
     gridtolerance="10"
     guidetolerance="10"
     inkscape:pageopacity="0"
     inkscape:pageshadow="2"
     inkscape:window-width="1920"
     inkscape:window-height="1047"
     id="namedview50"
     showgrid="false"
     inkscape:zoom="1.49"
     inkscape:cx="108.50559"
     inkscape:cy="97.600503"
     inkscape:window-x="0"
     inkscape:window-y="0"
     inkscape:window-maximized="1"
     inkscape:current-layer="svg48"
     scale-x="0.5"
     inkscape:pagecheckerboard="false"
     borderlayer="true" />
  <defs
     id="defs4">
    <style
       id="style2">.cls-1,.cls-3{fill:#fff;}.cls-1{fill-rule:evenodd;}.cls-2{fill:#004c98;}.cls-4{fill:#ffd744;}</style>
  </defs>
  <title
     id="title6">Asset 1</title>
  <g
     data-name="Lager 1"
     id="Lager_1"
     transform="translate(6.08,-8.47)">
    <path
       style="fill:#ffffff;fill-rule:evenodd"
       inkscape:connector-curvature="0"
       id="path8"
       d="M 64.34,32.17 A 32.17,32.17 0 1 1 32.17,0 32.17,32.17 0 0 1 64.34,32.17"
       class="cls-1" />
    <path
       inkscape:connector-curvature="0"
       id="path10"
       d="m 19.91,11.45 c 0,0.36 0,0.3 0,0.63 0,0.1 0,0.17 -0.15,0.17 -0.29,0 -0.22,-0.48 -0.6,-1 a 1.61,1.61 0 0 0 -1.37,-0.74 c -0.65,0 -1,0.28 -1,1 0,0.72 0.3,0.67 2.42,2.91 a 2,2 0 0 1 0.53,1.47 c 0,1.48 -1.36,2 -2.63,2 -0.66,0 -1.88,-0.18 -1.93,-0.42 A 9.56,9.56 0 0 1 15,15.87 c 0,-0.23 0.1,-0.26 0.22,-0.26 0.12,0 0.6,1.74 2.09,1.74 0.69,0 1.27,-0.3 1.27,-1.06 0,-0.56 -0.39,-1 -2.14,-2.76 a 2.45,2.45 0 0 1 -0.72,-1.67 1.78,1.78 0 0 1 2,-1.79 9.38,9.38 0 0 1 1.65,0.39 c 0.09,0 0.28,-0.13 0.37,-0.13 0.09,0 0.2,0.12 0.2,0.27 v 0.85 z" />
    <path
       inkscape:connector-curvature="0"
       id="path12"
       d="m 21,13.93 c 0,-0.37 -0.74,-0.17 -0.74,-0.46 0,-0.12 0.11,-0.18 0.32,-0.19 1,0 1.45,-0.16 1.61,-0.16 0.16,0 0.15,0 0.15,0.1 a 31.25,31.25 0 0 0 -0.63,3.39 c 0,0.13 0,0.33 0.24,0.33 0.35,0 0.53,-0.62 0.76,-0.62 a 0.12,0.12 0 0 1 0.14,0.13 1.87,1.87 0 0 1 -1.67,1.39 c -0.54,0 -0.65,-0.47 -0.65,-0.95 a 26.09,26.09 0 0 1 0.47,-3 m 1.65,-2.59 c 0,0.16 -0.56,0.81 -0.76,0.81 -0.2,0 -0.6,-0.64 -0.6,-0.81 0,-0.17 0.56,-0.8 0.76,-0.8 0.2,0 0.55,0.68 0.55,0.84 z" />
    <path
       inkscape:connector-curvature="0"
       id="path14"
       d="m 26.85,13.33 c 0.53,0 0.52,-0.22 0.74,-0.22 0.22,0 0.33,0.11 0.33,0.39 a 0.45,0.45 0 0 1 -0.39,0.46 c -0.29,0 -0.59,-0.3 -0.86,-0.34 A 2,2 0 0 1 27,14.7 c 0,1.14 -1,1.67 -2,1.67 a 2.11,2.11 0 0 1 -0.51,-0.08 0.19,0.19 0 0 0 -0.16,0.2 c 0,0.32 0.63,0.37 1.27,0.49 0.64,0.12 1.61,0.38 1.61,1.3 0,1.25 -1.32,1.51 -2.32,1.51 -0.77,0 -2.13,-0.21 -2.13,-1.23 0,-1.02 1,-1 1,-1.1 0,-0.1 -0.13,-0.29 -0.13,-0.43 0,-0.71 0.44,-0.74 0.44,-0.92 0,-0.18 -0.61,-0.31 -0.61,-1.33 a 1.65,1.65 0 0 1 1.76,-1.69 c 0.58,0 1.11,0.24 1.67,0.24 m -1.56,0.12 c -0.51,0 -0.75,0.64 -0.75,1.63 0,0.56 0.23,0.91 0.62,0.91 0.66,0 0.74,-1 0.74,-1.48 0,-0.48 -0.12,-1.06 -0.65,-1.06 z m 0.87,5.34 c 0,-0.28 -0.22,-0.43 -0.61,-0.56 -0.39,-0.13 -1.43,-0.44 -1.51,-0.44 a 0.58,0.58 0 0 0 -0.48,0.63 c 0,0.75 0.87,1 1.48,1 0.41,0.05 1.08,-0.06 1.08,-0.63 z" />
    <path
       inkscape:connector-curvature="0"
       id="path16"
       d="m 31.34,13.83 c 0.22,0 0.22,-0.11 0.22,-0.27 0,-0.16 0,-0.28 -0.22,-0.28 h -1 c 0.17,-1.16 0.2,-1.27 0.2,-1.34 0,-0.07 -0.11,-0.13 -0.19,-0.13 -0.08,0 -0.49,0.45 -0.83,0.8 -0.34,0.35 -1.11,0.91 -1.11,1 a 0.13,0.13 0 0 0 0.13,0.17 c 0.46,0 0.53,0 0.53,0 0,0 -0.36,2.17 -0.36,2.86 0,0.92 0.48,1.1 0.87,1.1 a 2.06,2.06 0 0 0 1.72,-1.51 c 0,-0.1 0,-0.15 -0.14,-0.15 -0.14,0 -0.44,0.63 -0.84,0.63 -0.4,0 -0.42,-0.23 -0.42,-0.49 0,-0.26 0.24,-1.67 0.35,-2.49 h 1.07 z" />
    <path
       inkscape:connector-curvature="0"
       id="path18"
       d="m 36.84,13.28 c 0.16,0 0.19,0.05 0.19,0.17 0,0.28 -0.54,2.25 -0.54,3.06 0,0.15 0,0.43 0.2,0.43 0.2,0 0.52,-0.57 0.71,-0.57 0.19,0 0.15,0 0.15,0.14 a 1.87,1.87 0 0 1 -1.68,1.33 c -0.43,0 -0.56,-0.38 -0.56,-0.7 a 11.89,11.89 0 0 1 0.11,-1.39 v 0 c -0.36,0.71 -1,2.11 -2.31,2.11 -0.53,0 -0.65,-0.35 -0.65,-0.7 0,-0.35 0.42,-2.4 0.42,-2.77 0,-0.18 -0.07,-0.3 -0.25,-0.3 -0.37,0 -0.35,0.69 -0.62,0.69 -0.08,0 -0.15,0 -0.15,-0.17 a 1.75,1.75 0 0 1 1.55,-1.47 c 0.47,0 0.65,0.35 0.65,1 0,0.65 -0.36,2.12 -0.36,2.51 0,0.15 0,0.37 0.26,0.37 0.56,0 1.69,-2.15 2,-3.37 0,-0.14 0.06,-0.29 0.18,-0.29 h 0.76 z" />
    <path
       inkscape:connector-curvature="0"
       id="path20"
       d="m 39.35,17.72 c 0.12,0 0.13,-0.3 0.15,-0.41 0.18,-1 0.36,-3.62 1.6,-3.62 0.55,0 0.57,0.65 0.57,0.83 0,0.18 -0.07,0.63 -0.15,1.18 -0.08,0.55 -0.15,1.1 -0.15,1.28 0,0.18 -0.06,0.86 0.66,0.86 a 1.78,1.78 0 0 0 1.56,-1.21 c 0,-0.08 0,-0.14 -0.14,-0.14 -0.14,0 -0.34,0.49 -0.71,0.49 -0.14,0 -0.2,-0.14 -0.2,-0.32 0,-0.18 0.06,-0.54 0.13,-1 0.07,-0.46 0.12,-1 0.12,-1.29 0,-0.66 -0.34,-1.26 -1.08,-1.26 a 2.3,2.3 0 0 0 -2,1.22 v 0 c 0,-0.48 -0.1,-1.22 -0.74,-1.22 -0.64,0 -1.26,0.9 -1.26,1.39 0,0.11 0.06,0.17 0.13,0.17 0.26,0 0.27,-0.52 0.59,-0.52 0.16,0 0.35,0.11 0.35,0.6 0,0.49 -0.51,2.75 -0.51,2.82 0,0.07 0,0.14 0.09,0.14 h 1 z" />
    <path
       inkscape:connector-curvature="0"
       id="path22"
       d="m 46.88,13.12 a 2.7,2.7 0 0 1 1,0.29 c 0.44,0 0.59,-0.73 0.86,-0.73 0.27,0 0.14,0.08 0.14,0.16 0,0.08 -0.59,3.15 -0.59,3.64 0,0.49 0.12,0.5 0.31,0.5 0.19,0 0.4,-0.55 0.63,-0.55 0.23,0 0.13,0 0.13,0.1 a 1.62,1.62 0 0 1 -1.42,1.31 c -0.62,0 -0.73,-0.67 -0.79,-0.94 a 2.43,2.43 0 0 1 -1.7,0.94 1.37,1.37 0 0 1 -1.33,-1.49 c 0,-1.51 1.07,-3.23 2.77,-3.23 M 45.32,16 c 0,0.43 0.15,1.05 0.7,1.05 0.73,0 0.95,-0.61 1.1,-1.2 a 14.25,14.25 0 0 0 0.4,-1.94 c 0,-0.35 -0.31,-0.49 -0.62,-0.49 -1.13,0.01 -1.58,1.72 -1.58,2.58 z" />
    <path
       inkscape:connector-curvature="0"
       id="path24"
       d="M 14.14,24.81 A 3.92,3.92 0 0 0 16,22.88 c 0.1,-0.19 0.13,-0.35 0.46,-0.35 0.33,0 0.55,0.14 0.55,0.47 0,0.33 -0.57,0.7 -1.58,1.35 1,1.67 1.18,1.91 1.36,1.91 0.18,0 0.47,-0.48 0.56,-0.48 a 0.15,0.15 0 0 1 0.16,0.15 c 0,0.41 -0.76,1.32 -1.27,1.32 -0.51,0 -0.64,-0.31 -1.76,-2.24 -0.45,0.27 -0.42,0.22 -0.44,0.39 l -0.23,1.47 c 0,0.29 -0.11,0.27 -0.54,0.27 -0.43,0 -0.59,0 -0.59,-0.16 0,-0.16 0,-0.17 0.74,-5.61 0.1,-0.81 0.13,-1 0.13,-1.09 0,-0.37 -0.3,-0.3 -0.56,-0.3 -0.26,0 -0.3,0 -0.3,-0.18 a 0.21,0.21 0 0 1 0.18,-0.18 c 1.36,-0.15 1.53,-0.25 1.68,-0.25 0.15,0 0.2,0.08 0.2,0.23 0,0.15 -0.2,1.41 -0.29,2.1 z" />
    <path
       inkscape:connector-curvature="0"
       id="path26"
       d="M 22.4,24.4 A 2.61,2.61 0 0 1 20,27.25 1.89,1.89 0 0 1 18.08,25.16 2.56,2.56 0 0 1 20.55,22.53 1.77,1.77 0 0 1 22.4,24.4 M 20,26.89 c 1.2,0 1.19,-2.54 1.19,-2.93 0,-0.39 -0.06,-1.11 -0.74,-1.11 -1.05,0 -1.16,2.2 -1.16,2.93 0.01,0.39 0.04,1.11 0.71,1.11 z" />
    <path
       inkscape:connector-curvature="0"
       id="path28"
       d="m 27.34,27.13 c 0.16,0 0.1,-0.38 0.3,-1.42 0.13,-0.66 0.39,-2.53 1.3,-2.53 0.46,0 0.54,0.38 0.54,0.75 0,0.21 -0.29,2 -0.29,2.46 0,0.06 -0.05,0.86 0.67,0.86 A 1.78,1.78 0 0 0 31.42,26 0.13,0.13 0 0 0 31.28,25.86 c -0.21,0 -0.34,0.49 -0.71,0.49 -0.14,0 -0.2,-0.14 -0.2,-0.32 0,-0.18 0.25,-1.66 0.25,-2.29 a 1.12,1.12 0 0 0 -1.08,-1.26 2.31,2.31 0 0 0 -1.79,1.12 c -0.1,-0.61 -0.18,-1.12 -0.91,-1.12 A 2.41,2.41 0 0 0 25,23.67 c 0,-0.52 -0.12,-1.15 -0.71,-1.15 -0.59,0 -1.29,0.9 -1.29,1.39 0,0.11 0.05,0.17 0.13,0.17 0.26,0 0.27,-0.53 0.59,-0.53 0.16,0 0.35,0.11 0.35,0.6 0,0.49 -0.52,2.75 -0.52,2.82 0,0.07 0,0.14 0.1,0.14 h 1 c 0.12,0 0.13,-0.3 0.15,-0.41 0.18,-1 0.48,-3.62 1.44,-3.62 0.44,0 0.53,0.47 0.53,0.8 a 8.7,8.7 0 0 1 -0.16,1.42 c -0.31,1.5 -0.33,1.59 -0.33,1.66 0,0.07 0,0.14 0.1,0.14 h 1 z" />
    <path
       inkscape:connector-curvature="0"
       id="path30"
       d="m 35.68,27.13 c 0.16,0 0.1,-0.38 0.3,-1.42 0.13,-0.66 0.38,-2.53 1.3,-2.53 0.46,0 0.54,0.38 0.54,0.75 0,0.21 -0.29,2 -0.29,2.46 0,0.06 -0.05,0.86 0.66,0.86 A 1.78,1.78 0 0 0 39.75,26 0.13,0.13 0 0 0 39.61,25.86 c -0.21,0 -0.34,0.49 -0.71,0.49 -0.14,0 -0.2,-0.14 -0.2,-0.32 0,-0.18 0.25,-1.66 0.25,-2.29 a 1.12,1.12 0 0 0 -1.08,-1.26 2.33,2.33 0 0 0 -1.79,1.12 c -0.1,-0.61 -0.18,-1.12 -0.91,-1.12 a 2.41,2.41 0 0 0 -1.88,1.15 c 0,-0.52 -0.12,-1.15 -0.71,-1.15 -0.59,0 -1.26,0.9 -1.26,1.39 0,0.11 0.05,0.17 0.13,0.17 0.26,0 0.27,-0.53 0.59,-0.53 0.16,0 0.35,0.11 0.35,0.6 0,0.49 -0.51,2.75 -0.51,2.82 0,0.07 0,0.14 0.09,0.14 h 1 c 0.12,0 0.13,-0.3 0.15,-0.41 0.18,-1 0.48,-3.62 1.44,-3.62 0.44,0 0.53,0.47 0.53,0.8 a 10,10 0 0 1 -0.16,1.42 c -0.31,1.5 -0.33,1.59 -0.33,1.66 0,0.07 0,0.14 0.1,0.14 h 1 z" />
    <path
       inkscape:connector-curvature="0"
       id="path32"
       d="m 44.05,22.69 c -0.12,0 -0.15,0.15 -0.18,0.29 -0.28,1.22 -1.41,3.37 -2,3.37 -0.25,0 -0.26,-0.22 -0.26,-0.37 0,-0.39 0.36,-2 0.36,-2.51 0,-0.51 -0.18,-0.95 -0.65,-0.95 A 1.75,1.75 0 0 0 39.81,24 c 0,0.14 0.07,0.17 0.15,0.17 0.27,0 0.26,-0.69 0.62,-0.69 0.17,0 0.25,0.12 0.25,0.3 0,0.36 -0.42,2.34 -0.42,2.77 a 0.61,0.61 0 0 0 0.66,0.7 c 1.28,0 1.94,-1.41 2.31,-2.11 v 0 c 0,0.34 -0.11,0.88 -0.11,1.4 0,0.32 0.13,0.7 0.56,0.7 a 1.87,1.87 0 0 0 1.68,-1.33 c 0,-0.1 -0.05,-0.14 -0.15,-0.14 -0.1,0 -0.35,0.57 -0.71,0.57 -0.36,0 -0.2,-0.28 -0.2,-0.43 0,-0.81 0.54,-2.78 0.54,-3.06 0,-0.12 0,-0.17 -0.19,-0.17 z" />
    <path
       inkscape:connector-curvature="0"
       id="path34"
       d="m 47.35,27.13 c 0.12,0 0.13,-0.3 0.15,-0.41 0.18,-1 0.37,-3.62 1.6,-3.62 0.55,0 0.57,0.65 0.57,0.83 0,0.18 -0.07,0.63 -0.15,1.18 -0.08,0.55 -0.15,1.1 -0.15,1.28 0,0.18 0,0.86 0.66,0.86 A 1.78,1.78 0 0 0 51.59,26 0.13,0.13 0 0 0 51.45,25.86 c -0.22,0 -0.35,0.49 -0.71,0.49 -0.14,0 -0.21,-0.14 -0.21,-0.32 0,-0.18 0.07,-0.54 0.13,-1 0.06,-0.46 0.12,-1 0.12,-1.29 a 1.12,1.12 0 0 0 -1.08,-1.26 2.3,2.3 0 0 0 -2,1.23 v 0 c 0,-0.48 -0.1,-1.23 -0.74,-1.23 -0.64,0 -1.26,0.9 -1.26,1.39 0,0.11 0.05,0.17 0.13,0.17 0.26,0 0.27,-0.53 0.59,-0.53 0.16,0 0.35,0.11 0.35,0.6 0,0.49 -0.51,2.75 -0.51,2.82 0,0.07 0,0.14 0.1,0.14 h 1 z" />
    <path
       style="fill:#004c98"
       inkscape:connector-curvature="0"
       id="path36"
       d="m 43.84,47.67 a 11.65,11.65 0 0 1 -7.51,10 13.21,13.21 0 0 1 -6.38,0.54 c -0.43,-0.27 -1,-0.15 -1.45,-0.46 a 8.55,8.55 0 0 1 -3.68,-1.88 c -2.93,-2.15 -4.3,-5.59 -4.5,-9.31 V 31.7 h 23.5 v 16 z"
       class="cls-2" />
    <polyline
       style="fill:#ffffff"
       id="polyline38"
       points="24.87 34.82 26.28 34.64 25.5 35.87 26.16 36.9 24.8 36.74 24.25 37.9 23.78 36.67 22.37 36.9 23.19 35.75 22.41 34.61 23.78 34.86 24.3 33.5"
       class="cls-3" />
    <polyline
       style="fill:#ffffff"
       id="polyline40"
       points="32.67 52.93 34.08 52.75 33.3 53.98 33.96 55.01 32.59 54.85 32.04 56.01 31.57 54.78 30.17 55.01 30.99 53.86 30.21 52.71 31.58 52.98 32.1 51.6"
       class="cls-3" />
    <polyline
       style="fill:#ffffff"
       id="polyline42"
       points="40.71 34.82 42.12 34.64 41.34 35.87 42 36.9 40.63 36.74 40.08 37.9 39.61 36.67 38.21 36.9 39.03 35.75 38.25 34.61 39.62 34.86 40.14 33.5"
       class="cls-3" />
    <path
       style="fill:#ffd744"
       inkscape:connector-curvature="0"
       id="path44"
       d="m 33.48,36.25 c 0.43,0.38 0.2,1.38 1.1,1.34 0.47,0.31 0.27,1.3 1.09,1.23 a 2.21,2.21 0 0 1 0.7,1.3 c 0.39,1.15 -1.53,1.34 -0.86,2.37 a 1.3,1.3 0 0 1 -0.55,1 C 34.69,43.34 34.84,42.84 34.41,42.8 a 0.69,0.69 0 0 0 -0.78,0.12 1.67,1.67 0 0 0 -0.12,1.88 2.41,2.41 0 0 0 1.49,1.34 c 0.27,0.38 0.82,0.15 1.21,0.27 a 1.43,1.43 0 0 0 1.49,-0.88 c -0.2,-0.46 -0.82,-0.46 -0.82,-1.08 0,-0.62 0.31,-1 -0.16,-1.49 0,-0.12 0.08,-0.31 -0.08,-0.34 a 1.76,1.76 0 0 1 0.78,-1.57 2.52,2.52 0 0 1 0.78,-0.23 1.93,1.93 0 0 1 2,-0.92 l 0.51,0.12 v 0.15 0 C 39.15,43 39.15,46.56 39.18,50.09 H 25 A 23.24,23.24 0 0 0 23.58,40 a 1.94,1.94 0 0 1 2.11,0.38 c 0.59,0.61 1.84,0.54 1.88,1.69 0.23,0.8 -0.74,1.23 -0.23,2 0,0.65 -0.43,1 -0.86,1.34 0,0.5 0.47,0.73 0.86,1 a 3.14,3.14 0 0 0 2.89,-0.88 2.35,2.35 0 0 0 0.59,-2.38 c -0.35,-0.27 -0.66,-0.5 -1.06,-0.19 -0.27,0.15 -0.16,0.77 -0.59,0.54 A 1.55,1.55 0 0 1 28.86,41.85 1.86,1.86 0 0 1 27.8,40.28 c 0.12,-0.62 0.47,-1.5 1.25,-1.65 0.35,-0.42 0.35,-1.23 1.09,-1.23 0.51,-0.12 0.27,-0.92 0.74,-1.15 a 2.06,2.06 0 0 1 2.6,0.07"
       class="cls-4" />
  </g>
</svg>
