<?xml version="1.0" encoding="UTF-8" standalone="no"?>
<!-- Generator: Adobe Illustrator 21.1.0, SVG Export Plug-In . SVG Version: 6.00 Build 0)  -->

<svg
   xmlns:dc="http://purl.org/dc/elements/1.1/"
   xmlns:cc="http://creativecommons.org/ns#"
   xmlns:rdf="http://www.w3.org/1999/02/22-rdf-syntax-ns#"
   xmlns:svg="http://www.w3.org/2000/svg"
   xmlns="http://www.w3.org/2000/svg"
   xmlns:sodipodi="http://sodipodi.sourceforge.net/DTD/sodipodi-0.dtd"
   xmlns:inkscape="http://www.inkscape.org/namespaces/inkscape"
   version="1.1"
   id="Lager_1"
   x="0px"
   y="0px"
   viewBox="0 0 114.75 76.5"
   xml:space="preserve"
   sodipodi:docname="logo-uppsala.svg"
   width="255"
   height="170"
   inkscape:version="0.92.3 (2405546, 2018-03-11)"><metadata
   id="metadata1636"><rdf:RDF><cc:Work
       rdf:about=""><dc:format>image/svg+xml</dc:format><dc:type
         rdf:resource="http://purl.org/dc/dcmitype/StillImage" /><dc:title></dc:title></cc:Work></rdf:RDF></metadata><defs
   id="defs1634" /><sodipodi:namedview
   pagecolor="#ffffff"
   bordercolor="#666666"
   borderopacity="1"
   objecttolerance="10"
   gridtolerance="10"
   guidetolerance="10"
   inkscape:pageopacity="0"
   inkscape:pageshadow="2"
   inkscape:window-width="1146"
   inkscape:window-height="830"
   id="namedview1632"
   showgrid="false"
   scale-x="0.45"
   inkscape:zoom="1.42"
   inkscape:cx="55.5"
   inkscape:cy="20.049999"
   inkscape:window-x="13"
   inkscape:window-y="44"
   inkscape:window-maximized="0"
   inkscape:current-layer="Lager_1" />
<style
   type="text/css"
   id="style1587">
	.st0{fill:none;}
	.st1{fill:#FFE610;}
</style>
<g
   id="g1629"
   transform="translate(1.875,18.2)">
	<g
   id="g1595">
		<path
   class="st0"
   d="m 9.8,15.5 h 13.9 c 0.1,-1.3 0.3,-2.6 0.6,-3.9 0.1,-0.7 0.3,-1.3 0.5,-2 -0.6,0.1 -1.1,0.4 -1.6,0.7 0.2,0.3 0.2,0.7 0.2,1.1 0,0.1 0,0.3 0,0.4 -0.2,1.2 -1.1,2.1 -2.3,2.2 -0.3,0 -0.5,0 -0.8,-0.1 -1,-0.2 -1.8,-1.1 -2,-2.1 0,-0.1 0,-0.3 0,-0.4 0,-0.9 0.4,-1.7 1.1,-2.2 C 18.7,8.5 17.8,8 16.7,8 c -1,0 -2,0.5 -2.6,1.3 0.7,0.5 1.1,1.3 1.1,2.2 0,0.1 0,0.3 0,0.4 -0.2,1 -0.9,1.9 -2,2.1 -0.3,0.1 -0.5,0.1 -0.8,0.1 -1.2,-0.1 -2.2,-1 -2.3,-2.2 0,-0.1 0,-0.3 0,-0.4 0,-0.4 0.1,-0.8 0.3,-1.1 C 9.9,10 9.4,9.8 8.8,9.7 c 0.2,0.7 0.3,1.3 0.5,2 0.1,1.2 0.3,2.5 0.5,3.8 z"
   id="path1589"
   inkscape:connector-curvature="0"
   style="fill:none" />
		<path
   class="st1"
   d="m 13.6,29.9 c 0,0 0,0 0,0 1.1,0.7 2,1 3.1,1 1.1,0 2,-0.3 3.1,-1 0,0 0,0 0,0 l -3.1,-0.7 z"
   id="path1591"
   inkscape:connector-curvature="0"
   style="fill:#ffe610" />
		<path
   class="st1"
   d="m 27,17.4 c -0.2,-0.9 -0.9,-1.6 -1.7,-1.7 0.1,-1.3 0.3,-2.5 0.5,-3.7 0.2,-1 0.4,-2 0.7,-2.9 L 26.6,8.9 25.4,8 C 24.2,8 23,8.4 22,9.2 l -0.5,1.6 v 0 c 0.2,0.2 0.3,0.4 0.3,0.7 0,0 0,0.1 0,0.2 -0.1,0.5 -0.4,0.8 -0.9,0.8 -0.1,0 -0.2,0 -0.3,0 -0.4,-0.1 -0.7,-0.4 -0.7,-0.8 0,-0.1 0,-0.1 0,-0.2 0,-0.5 0.3,-0.8 0.7,-1 L 21,9 C 20.3,7.7 19,6.7 17.5,6.5 L 17.3,5.2 H 16.1 L 15.9,6.5 C 14.4,6.7 13.1,7.7 12.4,9 l 0.5,1.5 c 0.4,0.1 0.7,0.5 0.7,1 0,0 0,0.1 0,0.2 -0.1,0.4 -0.4,0.7 -0.8,0.8 -0.1,0 -0.2,0 -0.3,0 -0.5,0 -0.8,-0.4 -0.9,-0.8 0,-0.1 0,-0.1 0,-0.2 0,-0.3 0.1,-0.5 0.3,-0.7 v 0 L 11.4,9.2 C 10.4,8.4 9.2,8 8,8 L 6.8,8.8 6.9,9 c 0.3,1 0.5,2 0.7,2.9 0.2,1.2 0.4,2.5 0.5,3.7 -0.8,0.1 -1.5,0.8 -1.7,1.7 -0.1,0.6 0,1.3 0.4,1.8 0.4,0.5 0.9,0.7 1.5,0.7 H 8.5 9 9.3 c 0.1,2.8 -0.5,7 -0.5,7 L 9.3,27 c 0.9,0.4 1.6,0.8 2.2,1.3 0.2,0.2 0.5,0.4 0.7,0.6 l 3.9,-0.7 -0.2,-1.1 C 14.2,26.7 13,25.3 13,25.3 l 0.9,-5.2 c 0,0 -0.4,0.3 -1.1,0.1 -0.8,-0.1 -2.6,-2.3 -2.6,-2.3 v -0.5 c 3.5,0 4.6,0.9 4.6,2.2 l -0.1,4.9 c 0,0 0.9,0.8 2,0.8 1.1,0 2,-0.8 2,-0.8 l -0.1,-4.9 c 0,-1.3 1,-2.2 4.6,-2.2 v 0.5 c 0,0 -1.7,2.2 -2.6,2.3 -0.8,0.1 -1.1,-0.1 -1.1,-0.1 l 0.9,5.2 c 0,0 -1.3,1.4 -2.9,1.8 l -0.2,1.1 3.9,0.7 c 0.2,-0.2 0.5,-0.4 0.7,-0.6 0.7,-0.6 1.3,-1 2.3,-1.3 l 0.5,-0.2 c 0,0 -0.6,-4.2 -0.5,-7 h 0.3 l 0.5,0.1 h 0.2 c 0.6,0 1.1,-0.2 1.5,-0.7 C 27,18.7 27.1,18 27,17.4 Z m -16.7,-7 c -0.2,0.3 -0.3,0.7 -0.3,1.1 0,0.1 0,0.3 0,0.4 0.2,1.2 1.1,2.1 2.3,2.2 0.3,0 0.5,0 0.8,-0.1 1,-0.2 1.8,-1.1 2,-2.1 0,-0.1 0,-0.3 0,-0.4 C 15.1,10.6 14.7,9.8 14,9.3 14.7,8.5 15.7,8 16.7,8 c 1,0 2,0.5 2.6,1.3 -0.7,0.5 -1.1,1.3 -1.1,2.2 0,0.1 0,0.3 0,0.4 0.2,1 0.9,1.9 2,2.1 0.3,0.1 0.5,0.1 0.8,0.1 1.2,-0.1 2.2,-1 2.3,-2.2 0,-0.1 0,-0.3 0,-0.4 0,-0.4 -0.1,-0.8 -0.2,-1.1 0.5,-0.4 1,-0.6 1.6,-0.7 -0.2,0.7 -0.3,1.3 -0.5,2 -0.3,1.3 -0.5,2.6 -0.6,3.9 H 9.8 C 9.7,14.3 9.5,13 9.2,11.7 9.1,11 8.9,10.4 8.7,9.7 9.3,9.8 9.8,10 10.3,10.4 Z"
   id="path1593"
   inkscape:connector-curvature="0"
   style="fill:#ffe610" />
	</g>
	<g
   id="g1609">
		<path
   class="st1"
   d="m 40.1,16.5 h 2.3 v 9.1 h 0.1 l 3.8,-4.7 h 2.6 l -3.5,4.1 3.8,6 H 46.6 L 44,26.7 42.4,28.5 v 2.6 h -2.3 z"
   id="path1597"
   inkscape:connector-curvature="0"
   style="fill:#ffe610" />
		<path
   class="st1"
   d="m 48.8,26 c 0,-3.4 2.3,-5.3 4.8,-5.3 2.5,0 4.8,1.9 4.8,5.3 0,3.4 -2.3,5.3 -4.8,5.3 -2.5,0 -4.8,-1.9 -4.8,-5.3 z m 7.2,0 c 0,-2 -0.9,-3.4 -2.4,-3.4 -1.5,0 -2.4,1.4 -2.4,3.4 0,2 0.9,3.4 2.4,3.4 1.5,0 2.4,-1.4 2.4,-3.4 z"
   id="path1599"
   inkscape:connector-curvature="0"
   style="fill:#ffe610" />
		<path
   class="st1"
   d="m 59.8,20.9 h 1.9 l 0.2,1.4 H 62 c 0.9,-0.9 1.8,-1.6 3.1,-1.6 1.5,0 2.3,0.7 2.8,1.8 1,-1 2,-1.8 3.3,-1.8 2.1,0 3.1,1.5 3.1,4 V 31 h -2.4 v -6 c 0,-1.7 -0.5,-2.3 -1.6,-2.3 -0.6,0 -1.3,0.4 -2.1,1.3 v 7.1 h -2.4 v -6 c 0,-1.7 -0.5,-2.3 -1.6,-2.3 -0.6,0 -1.3,0.4 -2.1,1.3 v 7.1 H 59.7 V 20.9 Z"
   id="path1601"
   inkscape:connector-curvature="0"
   style="fill:#ffe610" />
		<path
   class="st1"
   d="m 75.9,20.9 h 1.9 l 0.2,1.4 h 0.1 c 0.9,-0.9 1.8,-1.6 3.1,-1.6 1.5,0 2.3,0.7 2.8,1.8 1,-1 2,-1.8 3.3,-1.8 2.1,0 3.1,1.5 3.1,4 V 31 H 88 v -6 c 0,-1.7 -0.5,-2.3 -1.6,-2.3 -0.6,0 -1.3,0.4 -2.1,1.3 v 7.1 H 82 v -6 c 0,-1.7 -0.5,-2.3 -1.6,-2.3 -0.6,0 -1.3,0.4 -2.1,1.3 v 7.1 h -2.4 z"
   id="path1603"
   inkscape:connector-curvature="0"
   style="fill:#ffe610" />
		<path
   class="st1"
   d="M 92.1,27.3 V 21 h 2.4 v 6 c 0,1.7 0.5,2.3 1.6,2.3 0.9,0 1.5,-0.4 2.2,-1.4 V 21 h 2.4 v 10.1 h -1.9 l -0.2,-1.5 h -0.1 c -0.9,1.1 -1.9,1.7 -3.3,1.7 -2.1,0 -3.1,-1.4 -3.1,-4 z"
   id="path1605"
   inkscape:connector-curvature="0"
   style="fill:#ffe610" />
		<path
   class="st1"
   d="m 102.4,20.9 h 1.9 l 0.2,1.4 h 0.1 c 0.9,-0.9 1.9,-1.6 3.3,-1.6 2.2,0 3.1,1.5 3.1,4 V 31 h -2.4 v -6 c 0,-1.7 -0.5,-2.3 -1.6,-2.3 -0.9,0 -1.5,0.4 -2.3,1.3 v 7.1 h -2.4 V 20.9 Z"
   id="path1607"
   inkscape:connector-curvature="0"
   style="fill:#ffe610" />
	</g>
	<g
   id="g1625">
		<path
   class="st1"
   d="M 40.1,7.6 V 0 h 2.4 v 7.7 c 0,2.9 1.1,3.9 2.7,3.9 1.6,0 2.8,-1 2.8,-3.9 V 0 h 2.3 v 7.6 c 0,4.4 -2,6.2 -5.1,6.2 C 42.1,13.7 40.1,12 40.1,7.6 Z"
   id="path1611"
   inkscape:connector-curvature="0"
   style="fill:#ffe610" />
		<path
   class="st1"
   d="m 52,3.4 h 1.9 l 0.2,1.1 h 0.1 c 0.9,-0.7 1.9,-1.3 3.1,-1.3 2.5,0 4,2 4,5.2 0,3.5 -2.1,5.5 -4.3,5.5 -0.9,0 -1.8,-0.4 -2.6,-1.1 l 0.1,1.7 v 3.2 H 52 Z m 6.8,4.9 c 0,-2 -0.7,-3.2 -2.2,-3.2 -0.7,0 -1.4,0.4 -2.2,1.1 v 4.7 c 0.7,0.6 1.4,0.8 2,0.8 1.3,0.1 2.4,-1.1 2.4,-3.4 z"
   id="path1613"
   inkscape:connector-curvature="0"
   style="fill:#ffe610" />
		<path
   class="st1"
   d="m 62.5,3.4 h 1.9 l 0.2,1.1 h 0.1 c 0.9,-0.7 1.9,-1.3 3.1,-1.3 2.5,0 4,2 4,5.2 0,3.5 -2.1,5.5 -4.3,5.5 -0.9,0 -1.8,-0.4 -2.6,-1.1 l 0.1,1.7 v 3.2 H 62.6 V 3.4 Z m 6.8,4.9 c 0,-2 -0.7,-3.2 -2.2,-3.2 -0.7,0 -1.4,0.4 -2.2,1.1 v 4.7 c 0.7,0.6 1.4,0.8 2,0.8 1.4,0.1 2.4,-1.1 2.4,-3.4 z"
   id="path1615"
   inkscape:connector-curvature="0"
   style="fill:#ffe610" />
		<path
   class="st1"
   d="m 72.4,12.3 1.1,-1.5 c 0.9,0.7 1.8,1.1 2.8,1.1 1.1,0 1.6,-0.5 1.6,-1.2 0,-0.8 -1.1,-1.2 -2.2,-1.6 -1.3,-0.5 -2.8,-1.3 -2.8,-3 0,-1.8 1.4,-3 3.7,-3 1.4,0 2.5,0.6 3.4,1.2 L 78.9,5.8 C 78.2,5.3 77.5,4.9 76.7,4.9 c -1,0 -1.5,0.5 -1.5,1.1 0,0.8 1,1.1 2.1,1.5 1.4,0.5 2.9,1.2 2.9,3.1 0,1.7 -1.4,3.1 -3.9,3.1 -1.5,0 -2.9,-0.6 -3.9,-1.4 z"
   id="path1617"
   inkscape:connector-curvature="0"
   style="fill:#ffe610" />
		<path
   class="st1"
   d="m 81.2,10.8 c 0,-2.2 1.8,-3.3 6,-3.7 0,-1.1 -0.5,-2 -1.8,-2 -1,0 -2,0.5 -2.8,1 L 81.7,4.5 c 1.1,-0.7 2.5,-1.3 4.2,-1.3 2.5,0 3.8,1.6 3.8,4.4 v 6 h -1.9 l -0.2,-1.1 h -0.1 c -0.9,0.8 -1.9,1.4 -3.1,1.4 -2,-0.2 -3.2,-1.4 -3.2,-3.1 z m 5.9,0 V 8.5 c -2.7,0.3 -3.7,1.1 -3.7,2.1 0,0.9 0.6,1.3 1.5,1.3 0.8,0 1.5,-0.4 2.2,-1.1 z"
   id="path1619"
   inkscape:connector-curvature="0"
   style="fill:#ffe610" />
		<path
   class="st1"
   d="m 94.8,10.8 c 0,-2.2 1.8,-3.3 6,-3.7 0,-1.1 -0.5,-2 -1.8,-2 -1,0 -2,0.5 -2.8,1 L 95.3,4.5 c 1.1,-0.7 2.5,-1.3 4.2,-1.3 2.5,0 3.8,1.6 3.8,4.4 v 6 h -1.9 l -0.2,-1.1 H 101 c -0.9,0.8 -1.9,1.4 -3.1,1.4 -1.8,-0.2 -3.1,-1.4 -3.1,-3.1 z m 6,0 V 8.5 c -2.7,0.3 -3.7,1.1 -3.7,2.1 0,0.9 0.6,1.3 1.5,1.3 0.8,0 1.4,-0.4 2.2,-1.1 z"
   id="path1621"
   inkscape:connector-curvature="0"
   style="fill:#ffe610" />
		<rect
   x="91.199997"
   class="st1"
   width="2.3"
   height="13.5"
   id="rect1623"
   y="0"
   style="fill:#ffe610" />
	</g>
	<path
   class="st1"
   d="m 26.7,0 v 2.2 h 4.5 V 24.7 C 31.4,28.6 29.9,32 27.1,34.4 24.4,36.7 20.7,38 16.7,38 12.7,38 9,36.7 6.3,34.4 3.5,32 2,28.6 2.2,24.7 V 2.2 H 6.7 V 0 H 0 v 24.9 c 0,8.8 7,15.2 16.7,15.2 9.7,0 16.7,-6.4 16.7,-15.2 V 0 Z"
   id="path1627"
   inkscape:connector-curvature="0"
   style="fill:#ffe610" />
</g>
</svg>