<svg xmlns="http://www.w3.org/2000/svg" id="Lager_1" data-name="Lager 1" width="255mm" height="170mm" viewBox="0 0 530.079 353.386"><defs id="defs5976"><style id="style5974">.cls-1,.cls-2{fill:#1d1d1b}.cls-2{fill-rule:evenodd}.cls-3{fill:#e50043}.cls-4{fill:#fff}</style></defs><g id="g6123" transform="translate(7.899 -109.214) translate(0 231.657)"><g id="g6008"><path id="path5980" d="M333.613 50.845c2.668 4.201 5.416 8.442 8.081 12.682 1.17-.08 2.342-.202 3.515-.202 1.168 0 2.34.123 3.917.202-2.18-2.866-7.554-10.984-11.028-16.235 2.1-2.626 8.603-9.815 10.42-11.632-.928.079-1.695.202-2.424.202a21.89 21.89 0 0 1-2.259-.202c-1.414 2.057-6.665 8.603-10.302 12.884 0-5.212 0-10.744.324-12.884-.888.079-1.978.202-3.312.202-1.331 0-2.425-.123-3.313-.202.245 3.553.325 6.66.325 11.185v5.497c0 4.52-.08 7.632-.325 11.185.888-.08 1.982-.202 3.313-.202 1.334 0 2.424.123 3.312.202a126.753 126.753 0 0 1-.324-12.682z" class="cls-1" fill="#1d1d1b"/><path id="path5982" d="M349.87 49.593c0 10.1 6.87 14.46 15.39 14.46 9.006 0 15.43-6.503 15.43-14.499 0-9.736-6.747-14.423-15.307-14.423-9.37 0-15.513 6.504-15.513 14.462zm24.194-.888c0 8.805-4.24 12.844-9.089 12.844-4.524 0-8.48-2.988-8.48-11.591 0-6.95 3.234-12.52 8.765-12.52 5.212 0 8.805 4.28 8.805 11.268z" class="cls-2" fill="#1d1d1b" fill-rule="evenodd"/><path id="path5984" d="M389.264 45.19c3.032 6.1 5.938 12.24 8.808 18.337a4.957 4.957 0 0 1 .767-.08 5.008 5.008 0 0 1 .764.08c2.912-6.258 5.9-12.48 8.928-18.739h.083c.644 6.259 1.331 13.125 1.615 18.739a31.509 31.509 0 0 1 3.351-.202 29.465 29.465 0 0 1 3.27.202c-1.006-5.694-2.424-18.58-3.47-27.867a8.325 8.325 0 0 1-1.699.202 8.636 8.636 0 0 1-1.736-.202c-2.91 6.42-6.219 13.287-9.41 19.307-2.948-5.697-6.384-12.886-9.333-19.307a7.512 7.512 0 0 1-1.614.202 7.954 7.954 0 0 1-1.658-.202c-1.129 9.287-2.464 18.577-4.158 27.867a10.079 10.079 0 0 1 1.9-.202 10.464 10.464 0 0 1 1.898.202c.403-6.096.766-12.236 1.616-18.336z" class="cls-1" fill="#1d1d1b"/><path id="path5986" d="M425.457 45.19c3.028 6.1 5.939 12.24 8.805 18.337a3.754 3.754 0 0 1 1.533 0c2.908-6.258 5.897-12.48 8.926-18.739h.083c.647 6.259 1.33 13.125 1.615 18.739a31.64 31.64 0 0 1 3.353-.202 29.47 29.47 0 0 1 3.271.202c-1.01-5.694-2.424-18.58-3.474-27.867a8.255 8.255 0 0 1-1.694.202 8.705 8.705 0 0 1-1.74-.202c-2.907 6.42-6.219 13.287-9.41 19.307-2.95-5.697-6.383-12.886-9.33-19.307a7.516 7.516 0 0 1-1.617.202 7.843 7.843 0 0 1-1.652-.202c-1.131 9.287-2.462 18.577-4.16 27.867a10.055 10.055 0 0 1 1.899-.202 10.452 10.452 0 0 1 1.896.202c.402-6.096.769-12.236 1.613-18.336z" class="cls-1" fill="#1d1d1b"/><path id="path5988" d="M470.656 64.052c7.833 0 11.916-3.877 11.916-13.246 0-6.989.28-12.765.526-15.146a11.73 11.73 0 0 1-2.023.202 12.108 12.108 0 0 1-2.06-.202c.201 3.716.324 7.391.324 11.107 0 7.513-.447 14.498-6.906 14.498-5.252 0-8.078-1.615-8.078-11.47a132.988 132.988 0 0 1 .565-14.135 27.316 27.316 0 0 1-6.625 0c.083 1.331.162 4.038.162 8.319 0 2.91-.079 5.089-.079 9.452 0 7.592 5.37 10.621 12.278 10.621z" class="cls-1" fill="#1d1d1b"/><path id="path5990" d="M489.967 43.695c0 8.24-.605 18.664-.805 19.832a9.586 9.586 0 0 1 1.856-.202 10.464 10.464 0 0 1 1.898.202c-.121-1.493-.244-3.755-.244-10.218 0-3.029 0-6.38.082-9.41q9.328 9.814 17.65 19.628a6.44 6.44 0 0 1 1.575-.202 7.732 7.732 0 0 1 1.656.202c0-10.743 0-16.113.646-27.867a8.284 8.284 0 0 1-3.633 0c.28 1.817.28 12.8.28 19.224-5.938-6.424-11.715-12.803-17.53-19.224a8.28 8.28 0 0 1-3.632 0c.04 1.935.2 4.402.2 8.035z" class="cls-1" fill="#1d1d1b"/><path id="path5992" d="M107.987 52.291c0 4.521-.08 7.632-.32 11.186.889-.083 2.626-.201 4.078-.201 2.022 0 3.795.2 5.939.2 4.806 0 9.409-2.302 9.409-8.077 0-4.888-4.805-6.665-7.269-6.788v-.078c2.504-.404 6.582-2.263 6.582-6.665s-3.312-6.262-8.157-6.262c-2.302 0-4.967.202-7.27.202a33.086 33.086 0 0 1-3.312-.202c.241 3.558.32 6.665.32 11.19zm12.44-9.657c0 3.435-2.301 5.132-4.604 5.132h-1.815c0-1.373-.04-2.668-.04-4.121 0-1.375.08-3.637.162-5.615a10.545 10.545 0 0 1 1.978-.118c3.19 0 4.32 2.14 4.32 4.722zm.285 13.049c0 3.513-2.061 5.491-4.442 5.491-.889 0-1.496-.038-2.222-.078 0-1.418-.08-4.525-.08-7.072 0-1.654.04-2.786.04-3.916.485 0 1.006-.04 1.736-.04 3.23 0 4.968 1.856 4.968 5.615z" class="cls-2" fill="#1d1d1b" fill-rule="evenodd"/><path id="path5994" d="M130.675 49.544c0 10.095 6.866 14.458 15.386 14.458 9.006 0 15.43-6.503 15.43-14.499 0-9.736-6.743-14.422-15.307-14.422-9.37 0-15.509 6.503-15.509 14.463zm24.191-.89c0 8.805-4.24 12.845-9.085 12.845-4.525 0-8.485-2.99-8.485-11.592 0-6.95 3.23-12.52 8.765-12.52 5.212 0 8.805 4.28 8.805 11.268z" class="cls-2" fill="#1d1d1b" fill-rule="evenodd"/><path id="path5996" d="M169.486 52.291c0 4.521-.083 7.632-.323 11.186.888-.083 1.978-.201 3.313-.201 1.33 0 2.42.118 3.312.2-.245-3.553-.324-6.664-.324-11.185v-10.1c0-1.535 0-2.988.08-3.553a71.063 71.063 0 0 1 7.19.526 7.964 7.964 0 0 1 0-3.558c-3.432.122-5.252.202-10.258.202-5.01 0-6.827-.08-10.502-.202a7.964 7.964 0 0 1 0 3.558c2.423-.285 5.815-.526 7.39-.526a26.038 26.038 0 0 1 .123 3.553v10.1z" class="cls-1" fill="#1d1d1b"/><path id="path5998" d="M193.864 50.795c2.666 4.2 5.413 8.44 8.079 12.682 1.172-.083 2.345-.201 3.513-.201 1.173 0 2.346.118 3.92.2-2.183-2.866-7.553-10.983-11.027-16.234 2.1-2.626 8.603-9.816 10.42-11.636-.929.083-1.698.202-2.424.202a20.878 20.878 0 0 1-2.263-.202c-1.41 2.06-6.661 8.603-10.297 12.887 0-5.212 0-10.744.324-12.887a33.098 33.098 0 0 1-3.313.202 33.142 33.142 0 0 1-3.312-.202c.244 3.558.324 6.664.324 11.19v5.495c0 4.521-.08 7.632-.324 11.186.888-.083 1.981-.201 3.312-.201 1.334 0 2.424.118 3.313.2-.324-2.542-.324-6.866-.324-12.681z" class="cls-1" fill="#1d1d1b"/><path id="path6000" d="M223.616 47.724c-1.13-1.857-4.158-8.119-6.017-12.118-1.212.083-2.381.202-3.593.202-1.212 0-2.424-.119-3.636-.202a1442.541 1442.541 0 0 1 8.646 16.318c.036 1.252.08 2.507.08 3.759 0 2.503-.367 5.208-.486 7.794 1.133-.083 2.301-.201 3.43-.201 1.135 0 2.307.118 3.436.2a68.974 68.974 0 0 1-.403-8.44c0-1.335.08-2.666.08-3.957 2.585-5.09 6.664-12.44 8.444-15.473a16.273 16.273 0 0 1-1.942.202 13.4 13.4 0 0 1-1.856-.202c-1.776 3.96-3.92 9.05-6.1 12.118z" class="cls-1" fill="#1d1d1b"/><path id="path6002" d="M251.473 63.477c1.211-.083 2.463-.201 3.675-.201 1.212 0 2.424.118 3.636.2-2.952-4.563-6.02-9.167-8.606-13.731 4-1.01 6.261-3.514 6.261-7.435a6.295 6.295 0 0 0-2.626-5.33c-1.413-1.008-2.905-1.374-6.988-1.374-2.744 0-4.48.201-5.934.201a33.086 33.086 0 0 1-3.312-.201c.24 3.557.323 6.664.323 11.189v5.496c0 4.521-.082 7.632-.323 11.186.888-.083 1.978-.201 3.312-.201 1.331 0 2.424.118 3.313.2-.245-3.553-.324-6.664-.324-11.185v-1.658h.36zm-1.213-20.275c0 3.795-1.938 5.777-5.496 5.777a7.537 7.537 0 0 1-.884-.083c0-3.676.04-7.313.118-10.984 4.402 0 6.262.525 6.262 5.29z" class="cls-2" fill="#1d1d1b" fill-rule="evenodd"/><path id="path6004" d="M269.682 50.795c2.666 4.2 5.413 8.44 8.079 12.682 1.172-.083 2.344-.201 3.513-.201 1.173 0 2.345.118 3.917.2-2.18-2.866-7.55-10.983-11.024-16.234 2.1-2.626 8.604-9.816 10.42-11.636-.932.083-1.698.202-2.424.202a20.822 20.822 0 0 1-2.263-.202c-1.414 2.06-6.664 8.604-10.3 12.887 0-5.212 0-10.744.322-12.887a27.283 27.283 0 0 1-6.62 0c.24 3.558.32 6.665.32 11.19v5.495c0 4.521-.08 7.632-.32 11.186.888-.083 1.977-.201 3.308-.201 1.335 0 2.425.118 3.313.2-.323-2.542-.323-6.866-.323-12.681z" class="cls-1" fill="#1d1d1b"/><path id="path6006" d="M300.405 35.405a5.975 5.975 0 0 1-3.071 0c-3.472 9.21-9.532 23.59-11.51 28.072a19.566 19.566 0 0 1 2.018-.201 14.78 14.78 0 0 1 1.899.2 78.62 78.62 0 0 1 2.747-8.279c1.414-.04 2.788-.08 4.197-.08 1.738 0 3.435.04 5.173.08a165.402 165.402 0 0 1 2.787 8.28c1.13-.083 2.302-.201 3.432-.201 1.133 0 2.262.118 3.553.2-3.068-6.581-7.794-18.86-11.225-28.07zm-6.866 17.411a150.635 150.635 0 0 1 3.795-9.614c1.291 3.15 2.424 6.342 3.596 9.614z" class="cls-2" fill="#1d1d1b" fill-rule="evenodd"/></g><g id="g6070"><path id="path6010" d="M0 0l.001 65.634a55.807 55.807 0 0 0 6.798 21.428 41.36 41.36 0 0 0 13.826 14.74c7.031 4.445 15.611 6.699 25.5 6.699 9.719 0 18.166-2.254 25.106-6.7a41.51 41.51 0 0 0 13.69-14.739 56.844 56.844 0 0 0 6.829-21.436V0z" class="cls-3" fill="#e50043"/><g id="g6068"><path id="path6012" d="M50.843 8.893l.016-.105c.01-.058.227-1.425-.393-1.872a2.496 2.496 0 0 0-1.525-.497 6.93 6.93 0 0 0-1.239.155 9.366 9.366 0 0 1-1.593.194h-.084a11.085 11.085 0 0 1-1.887-.224 9.68 9.68 0 0 0-1.602-.197 1.564 1.564 0 0 0-1.434.632 3.13 3.13 0 0 0-.207 1.808l.017.106z" class="cls-4" fill="#ffffff"/><path id="path6014" d="M38.502 24.33l.865-1.123a10.665 10.665 0 1 1 12.536.35l.803 1.168a12.084 12.084 0 1 0-14.204-.395z" class="cls-4" fill="#ffffff"/><path id="path6016" d="M25.816 53.043l-1.591-10.78c-.66.014-2.143-.004-2.8-.66a.862.862 0 0 1-.264-.673c.05-.91 1.583-1.508 2.845-1.816l-.016-.006L21.5 19.553l-.017-.13-3.308.542 2.504 19.975-.01.007.361 2.566a2.841 2.841 0 0 1 1.867.828 3.171 3.171 0 0 1 .662 2.63 5.9 5.9 0 0 1-1.752 2.832l.008.035 2.893 19.387.018.12 3.247-.439-2.152-14.864z" class="cls-4" fill="#ffffff"/><path id="path6018" d="M21.656 40.957a.37.37 0 0 0 .121.296c.518.518 2.006.54 2.647.506l.226-.013.567 3.838a5.158 5.158 0 0 0 1.416-4.463h.004a4.587 4.587 0 0 0-.612-.828 5.276 5.276 0 0 0-1.263-.838c-1.477.305-3.073.924-3.106 1.502z" class="cls-4" fill="#ffffff"/><path id="path6020" d="M22.534 43.68a2.414 2.414 0 0 0-1.71-.676l-.226.01-.387-2.759c-.59.432-1.443 1.199-1.398 2.01a15.57 15.57 0 0 0 1.131 5.282c.21.61 1.199.738 1.652.764a5.152 5.152 0 0 0 1.47-2.395 2.715 2.715 0 0 0-.532-2.236z" class="cls-4" fill="#ffffff"/><path id="path6022" d="M45.938 33.902l7.732-7.85c-.999-.534-1.809-.9-1.876-.927l-2.201-1.639v1.777L45.936 31.3l-3.746-6.288V23.61l-2.055 1.343a14.454 14.454 0 0 0-2.166.861z" class="cls-4" fill="#ffffff"/><path id="path6024" d="M18.041 23.559a18.316 18.316 0 0 1-3.873-1.184 19.723 19.723 0 0 1-3.874-3.039l-.146-.146-.062.196c-.02.063-2.031 6.464-1.349 11.897.53 4.223 3.326 10.444 3.355 10.505l.152.338.082-.361a13.755 13.755 0 0 1 1.173-3.212 13.598 13.598 0 0 1 2.04-2.285l.03-.028.009-.04a23.053 23.053 0 0 1 .992-3.509 5.841 5.841 0 0 1 2.326-2.406z" class="cls-4" fill="#ffffff"/><path id="path6026" d="M78.189 35.943a4.37 4.37 0 0 1-2.626-.799 4.85 4.85 0 0 0-.01 6.149 9.831 9.831 0 0 0 1.734.191 1.528 1.528 0 0 0 1.167-.32.505.505 0 0 0 .107-.427 24.55 24.55 0 0 1-.373-4.794z" class="cls-4" fill="#ffffff"/><path id="path6028" d="M70.803 43.59a2.578 2.578 0 0 0-1.511 1.513 3.46 3.46 0 0 0-.154 2.899 3.16 3.16 0 0 0 1.59 1.445 4.31 4.31 0 0 0 2.941-1.436 7.416 7.416 0 0 0 .605-4.02 5.15 5.15 0 0 0-3.471-.4z" class="cls-4" fill="#ffffff"/><path id="path6030" d="M26.71 52.525a13.094 13.094 0 0 0 3.433-1.33c.314-.829 1.804-5.131.021-7.995l.422-.262c1.658 2.664.733 6.326.222 7.87a17.816 17.816 0 0 0 3.393-2.734 12.153 12.153 0 0 0 2.554-3.914l-.69-7.694.494-.044.707 7.885c.335.609.847 1.27 1.5 1.273l2.482.018h1.787v-2.032h.496v2.032h2.159v-11.24l-8.182-8.303a7.227 7.227 0 0 0-2.976 2.685 22.724 22.724 0 0 0-1.548 3.658 30.582 30.582 0 0 1-2.108 4.904 8.698 8.698 0 0 1-3.73 3.88 5.808 5.808 0 0 1-.281 2.69c2.899 3.332.655 7.415-.155 8.653z" class="cls-4" fill="#ffffff"/><path id="path6032" d="M25.306 46.186l.915 6.189c.67-.963 2.998-4.791.422-7.993a5.616 5.616 0 0 1-1.337 1.804z" class="cls-4" fill="#ffffff"/><path id="rect6034" class="cls-4" fill="#ffffff" d="M49.905 46.094H53.126000000000005V47.662H49.905z"/><path id="polygon6036" class="cls-4" fill="#ffffff" d="M38.625 46.085L38.625 47.662 41.877 47.662 41.877 46.094z"/><path id="rect6038" class="cls-4" fill="#ffffff" d="M42.373 46.094H49.409V47.662H42.373z"/><path id="path6040" d="M39.897 99.675c1.916.212 3.82.364 5.48.39V48.174h-1.961z" class="cls-4" fill="#ffffff"/><path id="path6042" d="M42.919 48.174h-4.334l-.038.045c-.116.137-2.867 3.39-3.277 5.935-2.687 16.594-6.157 41.88-6.422 43.819.763.148 5.62 1.074 10.554 1.646z" class="cls-4" fill="#ffffff"/><path id="path6044" d="M56.374 54.154c-.41-2.543-2.918-5.795-3.024-5.931l-.037-.05h-4.931l3.538 51.53c4.9-.502 9.737-1.365 10.896-1.58l-.004-.029c-.036-.265-3.657-26.762-6.438-43.94z" class="cls-4" fill="#ffffff"/><path id="path6046" d="M45.873 48.174v51.896c1.693-.002 3.618-.129 5.554-.317l-3.542-51.58z" class="cls-4" fill="#ffffff"/><path id="path6048" d="M58.177 99.402c-1.863.284-4.064.583-6.276.808a.296.296 0 0 0 .035.243c.129.154.236.295.334.424.569.752.855 1.129 3.073 1.129.212 0 .442-.004.693-.01 1.42-.037 3.392.206 3.442-1.356a1.101 1.101 0 0 0-.304-.822 1.565 1.565 0 0 0-.997-.416z" class="cls-4" fill="#ffffff"/><path id="path6050" d="M34.002 99.373a.486.486 0 0 1-.195.02 2.144 2.144 0 0 0-.477-.053 1.635 1.635 0 0 0-1.177.43 1.11 1.11 0 0 0-.304.824c.043 1.35 1.555 1.35 2.77 1.35h.148c.18 0 .356 0 .524.004.25.008.48.011.693.011 2.218 0 2.504-.378 3.073-1.128.099-.13.205-.271.334-.424a.335.335 0 0 0 .025-.287 137.593 137.593 0 0 1-5.414-.747z" class="cls-4" fill="#ffffff"/><path id="path6052" d="M64.293 39.485a.92.92 0 0 0 .18.017 5.569 5.569 0 0 0 1.766-.512c.251-.504 1.113-2.035 1.933-3.38l-3.549.826a7.553 7.553 0 0 0-.452 2.95.171.171 0 0 0 .122.1z" class="cls-4" fill="#ffffff"/><path id="path6054" d="M72.277 29.557l-4.207.789-.024.028a26.37 26.37 0 0 0-1.951 2.606l4.5-1.033c.742-1.07 1.418-2.02 1.682-2.39z" class="cls-4" fill="#ffffff"/><path id="path6056" d="M68.538 35.016l.202-.32c.411-.639.93-1.409 1.448-2.16l-4.453 1.034a8.09 8.09 0 0 0-.33.643 14.756 14.756 0 0 0-.62 1.673l3.753-.872z" class="cls-4" fill="#ffffff"/><path id="path6058" d="M46.19 24.066h-.018a9.364 9.364 0 0 1-1.535-.193l-.07-.014-1.88-1.833v2.849l3.253 5.462 3.157-5.213v-2.999l-1.33 1.73-.089.018a9.257 9.257 0 0 1-1.488.193z" class="cls-4" fill="#ffffff"/><path id="path6060" d="M49.998 15.838l-.806-2.647h-6.586l-.989 2.51.795 4.998v.002l.07.435 2.326 2.267a8.538 8.538 0 0 0 1.364.168h.013a8.371 8.371 0 0 0 1.301-.165l1.778-2.312zm-7.22.834a.102.102 0 0 1-.078-.071 1.47 1.47 0 0 1 .132-1.193 1.384 1.384 0 0 1 1.223-.446 1.324 1.324 0 0 1 1.113.51 1.998 1.998 0 0 1 .11 1.567.106.106 0 0 1-.096.072l-.006.001a.106.106 0 0 1-.097-.063c-.122-.273-.538-.996-.981-1.063-.518-.065-1.213.649-1.22.657a.106.106 0 0 1-.1.029zm3.83 1.63l-.734 1.268-.731-1.268zm-.091 3.748a1.646 1.646 0 0 0-1.24-.01l-.221-.443a2.14 2.14 0 0 1 1.638-.01zm1.391-1.09h-4.063l-.047-.276 1.982-.704.046.016 2.126.687zm1.142-4.357a.107.107 0 0 1-.179.041c-.006-.007-.64-.662-1.143-.662a.501.501 0 0 0-.076.006c-.44.067-.858.79-.982 1.064a.105.105 0 0 1-.096.062h-.005a.106.106 0 0 1-.096-.073 2.005 2.005 0 0 1 .11-1.567 1.326 1.326 0 0 1 1.112-.51 1.36 1.36 0 0 1 1.223.446 1.475 1.475 0 0 1 .132 1.193z" class="cls-4" fill="#ffffff"/><path id="path6062" d="M38.742 20.668a2.166 2.166 0 0 0 1.543.72 2.49 2.49 0 0 0 1.622-.708l-.802-5.033 1.164-2.952h7.291l.944 3.104-.006.054-.675 4.834a2.478 2.478 0 0 0 1.612.702 2.176 2.176 0 0 0 1.546-.721c2.848-2.848-1.05-7.245-1.543-7.778l.994-3.511H39.54l.993 3.508c-.4.404-2.78 2.904-2.795 5.366a3.276 3.276 0 0 0 1.004 2.415z" class="cls-4" fill="#ffffff"/><path id="path6064" d="M54.123 26.299l-7.937 8.058v11.24h2.098v-2.029h.496v2.03h3.993c.639-.005 1.139-.634 1.475-1.233l.756-7.883.494.047-.741 7.728a11.066 11.066 0 0 0 2.779 4.15 21.568 21.568 0 0 0 3.366 2.544c-1.992-5.043.553-7.926.666-8.05l.366.335c-.108.118-2.608 2.955-.394 7.983l.061.132a2.624 2.624 0 0 0 .962.355.324.324 0 0 0 .059-.01 27.516 27.516 0 0 1 .89-5.333 37.375 37.375 0 0 1 1.546-4.601 11.246 11.246 0 0 1-3.963-4.405 22.12 22.12 0 0 1-1.805-4.54 11.575 11.575 0 0 0-1.86-4.038 11.294 11.294 0 0 0-3.307-2.48z" class="cls-4" fill="#ffffff"/><path id="path6066" d="M83.694 24.506l-.155-.17-.058.224a16.038 16.038 0 0 1-.827 2.415 6.965 6.965 0 0 1-1.577 2.013 9.327 9.327 0 0 0-1.401 1.621 8.354 8.354 0 0 0-.831 2.12h-.018a3.806 3.806 0 0 1 .573-2.114 14.266 14.266 0 0 1 1.203-1.517 6.59 6.59 0 0 0 1.758-3.008 12.31 12.31 0 0 0 .002-3.606l-.024-.168-.153.073a31.307 31.307 0 0 0-7.198 4.86 33.632 33.632 0 0 0-2.595 2.9 48.5 48.5 0 0 0-5.218 8.01 43.321 43.321 0 0 0-1.63 3.496 38.994 38.994 0 0 0-.81 2.175q-.085.243-.164.486c-.21.64-.407 1.286-.582 1.944-.015.056-.033.11-.048.166a30.066 30.066 0 0 0-.987 7.71c-.037 1.24-.075 2.522-.223 4.135a28.4 28.4 0 0 1-.758 4.333l-.031.134c-.485 2.104-1.591 5.34-1.602 5.371l.204.131a22.996 22.996 0 0 1 3.579-2.793 23.216 23.216 0 0 1 3.842-1.46l.222-.063-.174-.151a8.603 8.603 0 0 1-2.592-6.646c.232-3.16 4.032-7.127 4.472-7.576a3.364 3.364 0 0 1-1.202-1.335 3.926 3.926 0 0 1 .144-3.307 3.056 3.056 0 0 1 1.803-1.786 5.442 5.442 0 0 1 3.658.335l.934-1.778a5.421 5.421 0 0 1-.006-6.91l-.06-.092c-.495-.815-.327-1.945.499-3.36l.427.25c-.725 1.246-.894 2.206-.502 2.853.575.945 2.185 1.024 2.681 1.026a11.39 11.39 0 0 0 3.011-4.066 7.673 7.673 0 0 1 1.349-2.202 5.54 5.54 0 0 0 1.468-3.06 2.108 2.108 0 0 0-.403-1.613zm-5.64 4.29a.694.694 0 1 1 .757-.69.725.725 0 0 1-.757.69z" class="cls-4" fill="#ffffff"/></g></g></g></svg>