<svg height="170" viewBox="0 0 76.5 51" width="255" xmlns="http://www.w3.org/2000/svg"><g transform="translate(6.08 -8.47)"><path d="m64.34 32.17a32.17 32.17 0 1 1 -32.17-32.17 32.17 32.17 0 0 1 32.17 32.17" fill="#fff" fill-rule="evenodd"/><path d="m19.91 11.45v.63c0 .1 0 .17-.15.17-.29 0-.22-.48-.6-1a1.61 1.61 0 0 0 -1.37-.74c-.65 0-1 .28-1 1s.3.67 2.42 2.91a2 2 0 0 1 .53 1.47c0 1.48-1.36 2-2.63 2-.66 0-1.88-.18-1.93-.42a9.56 9.56 0 0 1 -.18-1.6c0-.23.1-.26.22-.26s.6 1.74 2.09 1.74c.69 0 1.27-.3 1.27-1.06 0-.56-.39-1-2.14-2.76a2.45 2.45 0 0 1 -.72-1.67 1.78 1.78 0 0 1 2-1.79 9.38 9.38 0 0 1 1.65.39c.09 0 .28-.13.37-.13s.2.12.2.27v.85z"/><path d="m21 13.93c0-.37-.74-.17-.74-.46 0-.12.11-.18.32-.19 1 0 1.45-.16 1.61-.16s.15 0 .15.1a31.25 31.25 0 0 0 -.63 3.39c0 .13 0 .33.24.33.35 0 .53-.62.76-.62a.12.12 0 0 1 .14.13 1.87 1.87 0 0 1 -1.67 1.39c-.54 0-.65-.47-.65-.95a26.09 26.09 0 0 1 .47-3m1.65-2.59c0 .16-.56.81-.76.81s-.6-.64-.6-.81.56-.8.76-.8.55.68.55.84z"/><path d="m26.85 13.33c.53 0 .52-.22.74-.22s.33.11.33.39a.45.45 0 0 1 -.39.46c-.29 0-.59-.3-.86-.34a2 2 0 0 1 .33 1.08c0 1.14-1 1.67-2 1.67a2.11 2.11 0 0 1 -.51-.08.19.19 0 0 0 -.16.2c0 .32.63.37 1.27.49s1.61.38 1.61 1.3c0 1.25-1.32 1.51-2.32 1.51-.77 0-2.13-.21-2.13-1.23s1-1 1-1.1-.13-.29-.13-.43c0-.71.44-.74.44-.92s-.61-.31-.61-1.33a1.65 1.65 0 0 1 1.76-1.69c.58 0 1.11.24 1.67.24m-1.56.12c-.51 0-.75.64-.75 1.63 0 .56.23.91.62.91.66 0 .74-1 .74-1.48s-.12-1.06-.65-1.06zm.87 5.34c0-.28-.22-.43-.61-.56s-1.43-.44-1.51-.44a.58.58 0 0 0 -.48.63c0 .75.87 1 1.48 1 .41.05 1.08-.06 1.08-.63z"/><path d="m31.34 13.83c.22 0 .22-.11.22-.27s0-.28-.22-.28h-1c.17-1.16.2-1.27.2-1.34s-.11-.13-.19-.13-.49.45-.83.8-1.11.91-1.11 1a.13.13 0 0 0 .13.17h.53s-.36 2.17-.36 2.86c0 .92.48 1.1.87 1.1a2.06 2.06 0 0 0 1.72-1.51c0-.1 0-.15-.14-.15s-.44.63-.84.63-.42-.23-.42-.49.24-1.67.35-2.49h1.07z"/><path d="m36.84 13.28c.16 0 .19.05.19.17 0 .28-.54 2.25-.54 3.06 0 .15 0 .43.2.43s.52-.57.71-.57.15 0 .15.14a1.87 1.87 0 0 1 -1.68 1.33c-.43 0-.56-.38-.56-.7a11.89 11.89 0 0 1 .11-1.39c-.36.71-1 2.11-2.31 2.11-.53 0-.65-.35-.65-.7s.42-2.4.42-2.77c0-.18-.07-.3-.25-.3-.37 0-.35.69-.62.69-.08 0-.15 0-.15-.17a1.75 1.75 0 0 1 1.55-1.47c.47 0 .65.35.65 1s-.36 2.12-.36 2.51c0 .15 0 .37.26.37.56 0 1.69-2.15 2-3.37 0-.14.06-.29.18-.29h.76z"/><path d="m39.35 17.72c.12 0 .13-.3.15-.41.18-1 .36-3.62 1.6-3.62.55 0 .57.65.57.83s-.07.63-.15 1.18-.15 1.1-.15 1.28-.06.86.66.86a1.78 1.78 0 0 0 1.56-1.21c0-.08 0-.14-.14-.14s-.34.49-.71.49c-.14 0-.2-.14-.2-.32s.06-.54.13-1 .12-1 .12-1.29c0-.66-.34-1.26-1.08-1.26a2.3 2.3 0 0 0 -2 1.22c0-.48-.1-1.22-.74-1.22s-1.26.9-1.26 1.39c0 .11.06.17.13.17.26 0 .27-.52.59-.52.16 0 .35.11.35.6s-.51 2.75-.51 2.82 0 .14.09.14h1z"/><path d="m46.88 13.12a2.7 2.7 0 0 1 1 .29c.44 0 .59-.73.86-.73s.14.08.14.16-.59 3.15-.59 3.64.12.5.31.5.4-.55.63-.55.13 0 .13.1a1.62 1.62 0 0 1 -1.42 1.31c-.62 0-.73-.67-.79-.94a2.43 2.43 0 0 1 -1.7.94 1.37 1.37 0 0 1 -1.33-1.49c0-1.51 1.07-3.23 2.77-3.23m-1.57 2.88c0 .43.15 1.05.7 1.05.73 0 .95-.61 1.1-1.2a14.25 14.25 0 0 0 .4-1.94c0-.35-.31-.49-.62-.49-1.13.01-1.58 1.72-1.58 2.58z"/><path d="m14.14 24.81a3.92 3.92 0 0 0 1.86-1.93c.1-.19.13-.35.46-.35s.55.14.55.47-.57.7-1.58 1.35c1 1.67 1.18 1.91 1.36 1.91s.47-.48.56-.48a.15.15 0 0 1 .16.15c0 .41-.76 1.32-1.27 1.32s-.64-.31-1.76-2.24c-.45.27-.42.22-.44.39l-.23 1.47c0 .29-.11.27-.54.27s-.59 0-.59-.16 0-.17.74-5.61c.1-.81.13-1 .13-1.09 0-.37-.3-.3-.56-.3s-.3 0-.3-.18a.21.21 0 0 1 .18-.18c1.36-.15 1.53-.25 1.68-.25s.2.08.2.23-.2 1.41-.29 2.1z"/><path d="m22.4 24.4a2.61 2.61 0 0 1 -2.4 2.85 1.89 1.89 0 0 1 -1.92-2.09 2.56 2.56 0 0 1 2.47-2.63 1.77 1.77 0 0 1 1.85 1.87m-2.4 2.49c1.2 0 1.19-2.54 1.19-2.93s-.06-1.11-.74-1.11c-1.05 0-1.16 2.2-1.16 2.93.01.39.04 1.11.71 1.11z"/><path d="m27.34 27.13c.16 0 .1-.38.3-1.42.13-.66.39-2.53 1.3-2.53.46 0 .54.38.54.75 0 .21-.29 2-.29 2.46 0 .06-.05.86.67.86a1.78 1.78 0 0 0 1.56-1.25.13.13 0 0 0 -.14-.14c-.21 0-.34.49-.71.49-.14 0-.2-.14-.2-.32s.25-1.66.25-2.29a1.12 1.12 0 0 0 -1.08-1.26 2.31 2.31 0 0 0 -1.79 1.12c-.1-.61-.18-1.12-.91-1.12a2.41 2.41 0 0 0 -1.84 1.19c0-.52-.12-1.15-.71-1.15s-1.29.9-1.29 1.39c0 .11.05.17.13.17.26 0 .27-.53.59-.53.16 0 .35.11.35.6s-.52 2.75-.52 2.82 0 .14.1.14h1c.12 0 .13-.3.15-.41.18-1 .48-3.62 1.44-3.62.44 0 .53.47.53.8a8.7 8.7 0 0 1 -.16 1.42c-.31 1.5-.33 1.59-.33 1.66s0 .14.1.14h1z"/><path d="m35.68 27.13c.16 0 .1-.38.3-1.42.13-.66.38-2.53 1.3-2.53.46 0 .54.38.54.75 0 .21-.29 2-.29 2.46 0 .06-.05.86.66.86a1.78 1.78 0 0 0 1.56-1.25.13.13 0 0 0 -.14-.14c-.21 0-.34.49-.71.49-.14 0-.2-.14-.2-.32s.25-1.66.25-2.29a1.12 1.12 0 0 0 -1.08-1.26 2.33 2.33 0 0 0 -1.79 1.12c-.1-.61-.18-1.12-.91-1.12a2.41 2.41 0 0 0 -1.88 1.15c0-.52-.12-1.15-.71-1.15s-1.26.9-1.26 1.39c0 .11.05.17.13.17.26 0 .27-.53.59-.53.16 0 .35.11.35.6s-.51 2.75-.51 2.82 0 .14.09.14h1c.12 0 .13-.3.15-.41.18-1 .48-3.62 1.44-3.62.44 0 .53.47.53.8a10 10 0 0 1 -.16 1.42c-.31 1.5-.33 1.59-.33 1.66s0 .14.1.14h1z"/><path d="m44.05 22.69c-.12 0-.15.15-.18.29-.28 1.22-1.41 3.37-2 3.37-.25 0-.26-.22-.26-.37 0-.39.36-2 .36-2.51s-.18-.95-.65-.95a1.75 1.75 0 0 0 -1.51 1.48c0 .14.07.17.15.17.27 0 .26-.69.62-.69.17 0 .25.12.25.3 0 .36-.42 2.34-.42 2.77a.61.61 0 0 0 .66.7c1.28 0 1.94-1.41 2.31-2.11 0 .34-.11.88-.11 1.4 0 .32.13.7.56.7a1.87 1.87 0 0 0 1.68-1.33c0-.1-.05-.14-.15-.14s-.35.57-.71.57-.2-.28-.2-.43c0-.81.54-2.78.54-3.06 0-.12 0-.17-.19-.17z"/><path d="m47.35 27.13c.12 0 .13-.3.15-.41.18-1 .37-3.62 1.6-3.62.55 0 .57.65.57.83s-.07.63-.15 1.18-.15 1.1-.15 1.28 0 .86.66.86a1.78 1.78 0 0 0 1.56-1.25.13.13 0 0 0 -.14-.14c-.22 0-.35.49-.71.49-.14 0-.21-.14-.21-.32s.07-.54.13-1 .12-1 .12-1.29a1.12 1.12 0 0 0 -1.08-1.26 2.3 2.3 0 0 0 -2 1.23c0-.48-.1-1.23-.74-1.23s-1.26.9-1.26 1.39c0 .11.05.17.13.17.26 0 .27-.53.59-.53.16 0 .35.11.35.6s-.51 2.75-.51 2.82 0 .14.1.14h1z"/><path d="m43.84 47.67a11.65 11.65 0 0 1 -7.51 10 13.21 13.21 0 0 1 -6.38.54c-.43-.27-1-.15-1.45-.46a8.55 8.55 0 0 1 -3.68-1.88c-2.93-2.15-4.3-5.59-4.5-9.31v-14.86h23.5v16z" fill="#004c98"/><g fill="#fff"><path d="m24.87 34.82 1.41-.18-.78 1.23.66 1.03-1.36-.16-.55 1.16-.47-1.23-1.41.23.82-1.15-.78-1.14 1.37.25.52-1.36"/><path d="m32.67 52.93 1.41-.18-.78 1.23.66 1.03-1.37-.16-.55 1.16-.47-1.23-1.4.23.82-1.15-.78-1.15 1.37.27.52-1.38"/><path d="m40.71 34.82 1.41-.18-.78 1.23.66 1.03-1.37-.16-.55 1.16-.47-1.23-1.4.23.82-1.15-.78-1.14 1.37.25.52-1.36"/></g><path d="m33.48 36.25c.43.38.2 1.38 1.1 1.34.47.31.27 1.3 1.09 1.23a2.21 2.21 0 0 1 .7 1.3c.39 1.15-1.53 1.34-.86 2.37a1.3 1.3 0 0 1 -.55 1c-.27-.15-.12-.65-.55-.69a.69.69 0 0 0 -.78.12 1.67 1.67 0 0 0 -.12 1.88 2.41 2.41 0 0 0 1.49 1.34c.27.38.82.15 1.21.27a1.43 1.43 0 0 0 1.49-.88c-.2-.46-.82-.46-.82-1.08s.31-1-.16-1.49c0-.12.08-.31-.08-.34a1.76 1.76 0 0 1 .78-1.57 2.52 2.52 0 0 1 .78-.23 1.93 1.93 0 0 1 2-.92l.51.12v.15c-1.56 2.83-1.56 6.39-1.53 9.92h-14.18a23.24 23.24 0 0 0 -1.42-10.09 1.94 1.94 0 0 1 2.11.38c.59.61 1.84.54 1.88 1.69.23.8-.74 1.23-.23 2 0 .65-.43 1-.86 1.34 0 .5.47.73.86 1a3.14 3.14 0 0 0 2.89-.88 2.35 2.35 0 0 0 .59-2.38c-.35-.27-.66-.5-1.06-.19-.27.15-.16.77-.59.54a1.55 1.55 0 0 1 -.31-1.65 1.86 1.86 0 0 1 -1.06-1.57c.12-.62.47-1.5 1.25-1.65.35-.42.35-1.23 1.09-1.23.51-.12.27-.92.74-1.15a2.06 2.06 0 0 1 2.6.07" fill="#ffd744"/></g></svg>