<?xml version="1.0" encoding="UTF-8" standalone="no"?>
<!-- Generator: Adobe Illustrator 19.0.0, SVG Export Plug-In . SVG Version: 6.00 Build 0)  -->

<svg
   xmlns:dc="http://purl.org/dc/elements/1.1/"
   xmlns:cc="http://creativecommons.org/ns#"
   xmlns:rdf="http://www.w3.org/1999/02/22-rdf-syntax-ns#"
   xmlns:svg="http://www.w3.org/2000/svg"
   xmlns="http://www.w3.org/2000/svg"
   xmlns:sodipodi="http://sodipodi.sourceforge.net/DTD/sodipodi-0.dtd"
   xmlns:inkscape="http://www.inkscape.org/namespaces/inkscape"
   version="1.1"
   id="layer"
   x="0px"
   y="0px"
   viewBox="-153 -46 620 413"
   xml:space="preserve"
   sodipodi:docname="logo-helsinkisvg.svg"
   width="620"
   height="413"
   inkscape:version="0.92.3 (2405546, 2018-03-11)"><metadata
   id="metadata11"><rdf:RDF><cc:Work
       rdf:about=""><dc:format>image/svg+xml</dc:format><dc:type
         rdf:resource="http://purl.org/dc/dcmitype/StillImage" /><dc:title></dc:title></cc:Work></rdf:RDF></metadata><defs
   id="defs9" /><sodipodi:namedview
   pagecolor="#ffffff"
   bordercolor="#666666"
   borderopacity="1"
   objecttolerance="10"
   gridtolerance="10"
   guidetolerance="10"
   inkscape:pageopacity="0"
   inkscape:pageshadow="2"
   inkscape:window-width="1368"
   inkscape:window-height="780"
   id="namedview7"
   showgrid="false"
   inkscape:zoom="0.36196319"
   inkscape:cx="326"
   inkscape:cy="326"
   inkscape:window-x="0"
   inkscape:window-y="0"
   inkscape:window-maximized="0"
   inkscape:current-layer="layer" />
<g
   id="g4"
   transform="translate(-11.5,-114)">
	<path
   d="M 59.8,304.5 C 52.9,289 37.4,286.8 27.7,280.3 23.1,277.2 21.2,271 20.4,265.9 15.8,266.4 8.2,266.5 4.6,257 1.7,249.6 2.9,237.3 -6.6,226.9 -15.3,217.5 -26,214.3 -35.8,215 c 12,8.2 7.3,20.5 -1.4,20.5 -12.2,0 -15.6,-14.9 -33.4,-14.9 -4.1,0 -7.7,1.3 -9.9,2.8 10,1.3 12.4,9.6 15.5,17.1 2.5,6 6.9,9.5 13.4,11.3 -1.2,0.7 -4,1.5 -7.6,1.5 -7.9,0 -13.3,-4.2 -19,-10.1 -5,-5.2 -10.5,-10.1 -19.8,-10.1 -4.6,0 -8.1,1.5 -9.3,2.3 5.1,0.8 12.6,3.9 12.6,9.4 0,4.7 -5.1,6.5 -9.3,2 -4.6,-5 -11.2,-8.8 -18.6,-8.8 -3.7,0 -7.4,1.2 -8.9,2.8 8.8,1 14.1,6.8 19.6,19.7 3.1,7.3 7.5,14.2 18.6,14.3 5,0.1 12.2,-2.4 16.4,1.7 4,3.9 2.6,9 4.5,13.1 2.3,5.2 7,7.9 16.3,8.4 -7.7,6.6 -26.1,2.6 -32.4,-4.1 0.8,16.8 13.8,31.8 39.6,24.8 4.5,-1.2 7.7,-0.5 9.4,4.1 2.4,6.3 8,7.4 13.3,6.7 12.1,-1.5 19.3,1 26.3,9.4 1.5,-14.1 -8.3,-22.3 -14.5,-26.2 -5.9,-3.8 -6.5,-7.7 -6.6,-10.7 4.3,5 9.8,7.1 15.6,7.9 10,1.4 17.2,4.3 21,9.7 1.1,-15.4 -14.8,-18.9 -16.8,-25.4 5,3.3 8.7,4.5 13.9,4.1 7,-0.5 15.4,-6.1 21.7,4.8 8,-5.1 18.4,-3.3 25.4,1.4 z m -86.7,-20.9 h -17.9 v -18.3 h 17.9 z m -17.9,-82.1 h 17.9 v -18.3 h -17.9 c 0,0 0,18.3 0,18.3 z m 17.9,146 h -17.9 v 18.3 h 17.9 z m 128.1,-57.1 c 5.8,0 9.7,-3.3 9.7,-10.3 v -15.3 h -5.2 v 15.6 c 0,3.5 -1.7,5.2 -4.4,5.2 -2.7,0 -4.4,-1.8 -4.4,-5.3 v -15.5 h -5.2 v 15.4 c 0,6.8 3.7,10.2 9.5,10.2 z m 13,-0.4 h 5.1 v -15.2 l 10,15.2 h 4.5 v -25.2 h -5.1 v 14.7 L 119,264.8 h -4.8 z m 23.4,0 h 5.2 v -25.2 h -5.2 z m 15.3,0.2 h 4.8 l 8.5,-25.4 h -5.5 l -5.3,17.4 -5.3,-17.4 h -5.7 z M 167.6,290 H 184 v -4.7 h -11.2 v -5.6 h 9.7 V 275 h -9.7 v -5.4 h 11.1 v -4.7 h -16.3 c 0,-0.1 0,25.1 0,25.1 z m 19.3,0 h 5.2 v -8.3 h 3.3 l 4.7,8.3 h 6 l -5.4,-9.4 c 2.8,-1.2 4.7,-3.6 4.7,-7.5 V 273 c 0,-2.5 -0.8,-4.5 -2.1,-5.8 -1.6,-1.6 -3.9,-2.4 -6.9,-2.4 h -9.5 z m 5.3,-12.9 v -7.6 h 3.8 c 2.7,0 4.2,1.3 4.2,3.8 v 0 c 0,2.3 -1.4,3.8 -4.1,3.8 z m 23.5,13.2 c 4.9,0 8.5,-2.9 8.5,-7.6 v -0.1 c 0,-3.9 -2.4,-5.8 -6.8,-7.5 -3.9,-1.6 -4.8,-2.3 -4.8,-3.7 v 0 c 0,-1.3 1.1,-2.2 2.9,-2.2 1.9,0 3.8,1 5.4,2.3 l 2.9,-4 c -2.3,-2.1 -5.2,-3.1 -8.1,-3.1 -4.9,0 -8.3,3 -8.3,7.4 v 0.1 c 0,4.3 2.8,6 7.2,7.8 3.6,1.4 4.3,2.2 4.3,3.4 v 0 c 0,1.5 -1.2,2.5 -3.2,2.5 -2.5,0 -4.6,-1.4 -6.3,-2.8 l -3.1,3.8 c 2.9,2.6 6.2,3.7 9.4,3.7 z m 10.5,-0.3 h 5.2 v -25.2 h -5.2 z m 13.4,0 h 5.2 v -20.4 h 6.4 v -4.8 h -17.9 v 4.8 h 6.3 z m 20.1,0 h 5.2 v -10 l 8.2,-15.2 h -5.8 l -5,9.9 -5,-9.9 h -5.9 l 8.2,15.3 z m 31.4,0.4 c 6.7,0 11.4,-5.3 11.4,-12.9 v -0.4 c 0,-7.5 -4.7,-12.8 -11.4,-12.8 -6.7,0 -11.4,5.3 -11.4,12.9 v 0.4 c 0,7.6 4.6,12.8 11.4,12.8 z m 0,-4.8 c -3.5,0 -6.1,-3.1 -6.1,-8.1 v -0.2 c 0,-5 2.5,-8.1 6,-8.1 3.5,0 6,3.1 6,8.1 v 0.2 c 0.1,5 -2.4,8.1 -5.9,8.1 z m 13.5,4.4 h 5.2 v -10 h 9.7 v -4.8 h -9.7 v -5.7 h 11 v -4.8 H 304.5 V 290 Z m 26.4,0 h 5.2 v -10.3 h 8.3 V 290 h 5.2 v -25.2 h -5.2 v 10.1 h -8.3 V 264.8 H 331 Z m 22.5,0 h 16.4 v -4.7 h -11.2 v -5.6 h 9.7 V 275 h -9.7 v -5.4 h 11.1 v -4.7 h -16.3 z m 19.3,0 h 15.4 v -4.8 H 378 v -20.4 h -5.2 z m 25.6,0.3 c 4.9,0 8.5,-2.9 8.5,-7.6 v -0.1 c 0,-3.9 -2.4,-5.8 -6.8,-7.5 -3.9,-1.6 -4.8,-2.3 -4.8,-3.7 v 0 c 0,-1.3 1.1,-2.2 2.9,-2.2 1.9,0 3.8,1 5.4,2.3 l 2.9,-4 c -2.3,-2.1 -5.2,-3.1 -8.2,-3.1 -4.9,0 -8.3,3 -8.3,7.4 v 0.1 c 0,4.3 2.8,6 7.2,7.8 3.6,1.4 4.3,2.2 4.3,3.4 v 0 c 0,1.5 -1.2,2.5 -3.3,2.5 -2.5,0 -4.6,-1.4 -6.3,-2.8 l -3.1,3.8 c 3,2.6 6.4,3.7 9.6,3.7 z m 11,-0.3 h 5.2 v -25.2 h -5.2 z m 9,0 h 5.1 v -15.2 l 10,15.2 h 4.5 v -25.2 h -5.1 v 14.7 l -9.7,-14.7 h -4.8 z m 23.4,0 h 5.2 v -7.4 l 2.3,-3 6.3,10.4 h 6.1 l -8.8,-14.5 8.5,-10.7 h -6.2 l -8.3,10.9 v -10.9 h -5.2 z m 21.5,0 h 5.2 v -25.2 h -5.2 z"
   id="path2"
   inkscape:connector-curvature="0" />
</g>
</svg>