<?xml version="1.0" encoding="UTF-8" standalone="no"?>
<svg
   xmlns:dc="http://purl.org/dc/elements/1.1/"
   xmlns:cc="http://creativecommons.org/ns#"
   xmlns:rdf="http://www.w3.org/1999/02/22-rdf-syntax-ns#"
   xmlns:svg="http://www.w3.org/2000/svg"
   xmlns="http://www.w3.org/2000/svg"
   xmlns:sodipodi="http://sodipodi.sourceforge.net/DTD/sodipodi-0.dtd"
   xmlns:inkscape="http://www.inkscape.org/namespaces/inkscape"
   id="Lager_1"
   data-name="Lager 1"
   width="255mm"
   height="170mm"
   viewBox="0 0 530.07875 353.38584"
   version="1.1"
   sodipodi:docname="logo-botkyrka.svg"
   inkscape:version="0.92.3 (2405546, 2018-03-11)">
  <metadata
     id="metadata6075">
    <rdf:RDF>
      <cc:Work
         rdf:about="">
        <dc:format>image/svg+xml</dc:format>
        <dc:type
           rdf:resource="http://purl.org/dc/dcmitype/StillImage" />
        <dc:title>bk_logo_liggande_cmyk</dc:title>
      </cc:Work>
    </rdf:RDF>
  </metadata>
  <sodipodi:namedview
     pagecolor="#ffffff"
     bordercolor="#666666"
     borderopacity="1"
     objecttolerance="10"
     gridtolerance="10"
     guidetolerance="10"
     inkscape:pageopacity="0"
     inkscape:pageshadow="2"
     inkscape:window-width="1600"
     inkscape:window-height="847"
     id="namedview6073"
     showgrid="false"
     inkscape:zoom="1"
     inkscape:cx="428.57014"
     inkscape:cy="432.33392"
     inkscape:window-x="99"
     inkscape:window-y="42"
     inkscape:window-maximized="0"
     inkscape:current-layer="Lager_1"
     scale-x="0.55" />
  <defs
     id="defs5976">
    <style
       id="style5974">
      .cls-1, .cls-2 {
        fill: #1d1d1b;
      }

      .cls-2 {
        fill-rule: evenodd;
      }

      .cls-3 {
        fill: #e50043;
      }

      .cls-4 {
        fill: #fff;
      }
    </style>
  </defs>
  <title
     id="title5978">bk_logo_liggande_cmyk</title>
  <g
     id="g6123"
     transform="translate(7.8989196,-109.21446)">
    <g
       transform="translate(0,231.65687)"
       id="g6008">
      <path
         style="fill:#1d1d1b"
         inkscape:connector-curvature="0"
         id="path5980"
         d="m 333.6133,50.8452 c 2.668,4.2012 5.416,8.4414 8.081,12.6817 1.169,-0.0791 2.3418,-0.2017 3.5147,-0.2017 1.168,0 2.3408,0.1226 3.917,0.2017 -2.1807,-2.8662 -7.5537,-10.9834 -11.0283,-16.2349 2.1,-2.6255 8.6035,-9.8154 10.42,-11.6318 -0.9278,0.0786 -1.6944,0.2016 -2.4238,0.2016 a 21.89,21.89 0 0 1 -2.2588,-0.2016 c -1.4141,2.0571 -6.6651,8.603 -10.3018,12.8833 0,-5.2119 0,-10.7432 0.3242,-12.8833 -0.8886,0.0786 -1.9785,0.2016 -3.3125,0.2016 -1.331,0 -2.4248,-0.123 -3.3125,-0.2016 0.2442,3.5532 0.3242,6.6606 0.3242,11.185 v 5.4966 c 0,4.5205 -0.08,7.6319 -0.3242,11.1851 0.8877,-0.0791 1.9815,-0.2017 3.3125,-0.2017 1.334,0 2.4239,0.1226 3.3125,0.2017 a 126.7532,126.7532 0 0 1 -0.3242,-12.6817 z"
         class="cls-1" />
      <path
         style="fill:#1d1d1b;fill-rule:evenodd"
         inkscape:connector-curvature="0"
         id="path5982"
         d="m 349.87,49.5933 c 0,10.1 6.8692,14.459 15.39,14.459 9.0058,0 15.4306,-6.5025 15.4306,-14.4981 0,-9.7363 -6.748,-14.4228 -15.3076,-14.4228 -9.37,0 -15.5127,6.5034 -15.5127,14.4619 z m 24.1944,-0.8882 c 0,8.8047 -4.24,12.8437 -9.0889,12.8437 -4.5244,0 -8.48,-2.9882 -8.48,-11.5913 0,-6.9492 3.2334,-12.52 8.7647,-12.52 5.2119,0 8.8047,4.28 8.8047,11.2681 z"
         class="cls-2" />
      <path
         style="fill:#1d1d1b"
         inkscape:connector-curvature="0"
         id="path5984"
         d="m 389.2637,45.1909 c 3.0322,6.1 5.9385,12.24 8.8086,18.336 a 4.9575,4.9575 0 0 1 0.7666,-0.0791 5.0075,5.0075 0 0 1 0.7646,0.0791 c 2.9112,-6.2583 5.9,-12.48 8.9278,-18.7388 h 0.083 c 0.6435,6.2588 1.331,13.1245 1.6152,18.7388 a 31.5086,31.5086 0 0 1 3.3506,-0.2017 29.4645,29.4645 0 0 1 3.2695,0.2017 c -1.0058,-5.6934 -2.4238,-18.58 -3.47,-27.8667 a 8.3247,8.3247 0 0 1 -1.6983,0.2016 8.636,8.636 0 0 1 -1.7363,-0.2016 c -2.91,6.42 -6.2187,13.2866 -9.4092,19.3071 -2.9492,-5.6973 -6.3847,-12.8867 -9.3339,-19.3071 A 7.5117,7.5117 0 0 1 389.5876,35.8618 7.9539,7.9539 0 0 1 387.93,35.66 c -1.1289,9.2866 -2.4639,18.5766 -4.1582,27.8667 a 10.0789,10.0789 0 0 1 1.8994,-0.2017 10.4643,10.4643 0 0 1 1.8984,0.2017 c 0.4034,-6.0957 0.7666,-12.2359 1.6163,-18.336 z"
         class="cls-1" />
      <path
         style="fill:#1d1d1b"
         inkscape:connector-curvature="0"
         id="path5986"
         d="m 425.457,45.1909 c 3.0284,6.1 5.9385,12.24 8.8047,18.336 a 3.7538,3.7538 0 0 1 1.5332,0 c 2.9082,-6.2583 5.8975,-12.48 8.9258,-18.7388 h 0.083 c 0.6475,6.2588 1.3311,13.1245 1.6152,18.7388 a 31.64,31.64 0 0 1 3.3526,-0.2017 29.4706,29.4706 0 0 1 3.2715,0.2017 c -1.0108,-5.6934 -2.4239,-18.58 -3.4737,-27.8667 a 8.2545,8.2545 0 0 1 -1.6943,0.2016 8.7047,8.7047 0 0 1 -1.74,-0.2016 c -2.9073,6.42 -6.2188,13.2866 -9.41,19.3071 -2.9492,-5.6973 -6.3828,-12.8867 -9.3291,-19.3071 a 7.5159,7.5159 0 0 1 -1.6182,0.2016 7.8431,7.8431 0 0 1 -1.6513,-0.2016 c -1.1319,9.2866 -2.4629,18.5766 -4.1612,27.8667 a 10.0554,10.0554 0 0 1 1.8995,-0.2017 10.4523,10.4523 0 0 1 1.8964,0.2017 c 0.4014,-6.0957 0.7686,-12.2359 1.6133,-18.336 z"
         class="cls-1" />
      <path
         style="fill:#1d1d1b"
         inkscape:connector-curvature="0"
         id="path5988"
         d="m 470.6563,64.0523 c 7.833,0 11.916,-3.877 11.916,-13.2466 0,-6.9883 0.28,-12.7652 0.5254,-15.1455 a 11.73,11.73 0 0 1 -2.0225,0.2016 12.1082,12.1082 0 0 1 -2.06,-0.2016 c 0.2012,3.7153 0.3233,7.3911 0.3233,11.1064 0,7.5137 -0.4463,14.4986 -6.9053,14.4986 -5.252,0 -8.0781,-1.6153 -8.0781,-11.47 A 132.9875,132.9875 0 0 1 464.92,35.66 a 27.3163,27.3163 0 0 1 -6.625,0 c 0.083,1.331 0.1621,4.0385 0.1621,8.3188 0,2.91 -0.0791,5.0889 -0.0791,9.4522 0,7.5923 5.37,10.6211 12.2784,10.6211 z"
         class="cls-1" />
      <path
         style="fill:#1d1d1b"
         inkscape:connector-curvature="0"
         id="path5990"
         d="m 489.9668,43.6948 c 0,8.24 -0.6045,18.6641 -0.8047,19.8321 a 9.5863,9.5863 0 0 1 1.8555,-0.2017 10.4643,10.4643 0 0 1 1.8984,0.2017 c -0.1211,-1.4927 -0.2441,-3.7544 -0.2441,-10.2178 0,-3.0288 0,-6.3809 0.082,-9.4092 q 9.3282,9.813 17.65,19.627 a 6.44,6.44 0 0 1 1.5752,-0.2017 7.7316,7.7316 0 0 1 1.6562,0.2017 c 0,-10.7432 0,-16.1128 0.6456,-27.8667 a 8.2845,8.2845 0 0 1 -3.6329,0 c 0.28,1.8164 0.28,12.8 0.28,19.2241 C 504.99,48.46 499.2129,42.0806 493.3975,35.66 a 8.28,8.28 0 0 1 -3.6319,0 c 0.04,1.9345 0.2012,4.4023 0.2012,8.0346 z"
         class="cls-1" />
      <path
         style="fill:#1d1d1b;fill-rule:evenodd"
         inkscape:connector-curvature="0"
         id="path5992"
         d="m 107.9873,52.291 c 0,4.521 -0.08,7.6324 -0.32,11.1856 0.8882,-0.0825 2.626,-0.2007 4.0781,-0.2007 2.022,0 3.7949,0.2007 5.9385,0.2007 4.8057,0 9.4087,-2.3023 9.4087,-8.0777 0,-4.8881 -4.8047,-6.6645 -7.2686,-6.7876 v -0.0786 c 2.5035,-0.4033 6.5821,-2.2627 6.5821,-6.6645 0,-4.4018 -3.3125,-6.2622 -8.1573,-6.2622 -2.3017,0 -4.9672,0.2016 -7.269,0.2016 a 33.0863,33.0863 0 0 1 -3.3125,-0.2016 c 0.2407,3.5576 0.32,6.6645 0.32,11.1894 z m 12.44,-9.6567 c 0,3.4346 -2.3017,5.1318 -4.604,5.1318 h -1.8154 c 0,-1.3735 -0.04,-2.6684 -0.04,-4.1211 0,-1.3745 0.08,-3.6367 0.1621,-5.6152 a 10.5452,10.5452 0 0 1 1.978,-0.1182 c 3.19,0 4.3193,2.14 4.3193,4.7227 z m 0.2847,13.0483 c 0,3.5137 -2.061,5.4917 -4.4419,5.4917 -0.8887,0 -1.4966,-0.0385 -2.2226,-0.0786 0,-1.4175 -0.08,-4.5249 -0.08,-7.0713 0,-1.6548 0.04,-2.7866 0.04,-3.9165 0.4854,0 1.0064,-0.04 1.7368,-0.04 3.2295,0 4.9673,1.8559 4.9673,5.6147 z"
         class="cls-2" />
      <path
         style="fill:#1d1d1b;fill-rule:evenodd"
         inkscape:connector-curvature="0"
         id="path5994"
         d="m 130.6748,49.5435 c 0,10.0957 6.8662,14.4585 15.3867,14.4585 9.0054,0 15.43,-6.503 15.43,-14.4986 0,-9.7363 -6.7436,-14.4228 -15.3076,-14.4228 -9.3691,0 -15.5088,6.5029 -15.5088,14.4629 z m 24.1914,-0.8887 c 0,8.8047 -4.2407,12.8438 -9.0849,12.8438 -4.5254,0 -8.4849,-2.9893 -8.4849,-11.5918 0,-6.9493 3.23,-12.5206 8.7651,-12.5206 5.2115,0 8.8047,4.28 8.8047,11.2686 z"
         class="cls-2" />
      <path
         style="fill:#1d1d1b"
         inkscape:connector-curvature="0"
         id="path5996"
         d="m 169.4863,52.291 c 0,4.521 -0.083,7.6324 -0.3237,11.1856 0.8887,-0.0825 1.9785,-0.2007 3.313,-0.2007 1.33,0 2.42,0.1182 3.312,0.2007 -0.2441,-3.5532 -0.3237,-6.6646 -0.3237,-11.1856 v -10.1 c 0,-1.5351 0,-2.9882 0.08,-3.5527 a 71.0631,71.0631 0 0 1 7.1894,0.5254 7.9637,7.9637 0 0 1 0,-3.5576 c -3.4311,0.122 -5.251,0.2016 -10.2573,0.2016 -5.0108,0 -6.8267,-0.08 -10.5025,-0.2016 a 7.9637,7.9637 0 0 1 0,3.5576 c 2.4239,-0.2847 5.8155,-0.5254 7.3912,-0.5254 a 26.0384,26.0384 0 0 1 0.122,3.5527 v 10.1 z"
         class="cls-1" />
      <path
         style="fill:#1d1d1b"
         inkscape:connector-curvature="0"
         id="path5998"
         d="m 193.8643,50.7949 c 2.6655,4.2007 5.413,8.441 8.0786,12.6817 1.1718,-0.0825 2.3447,-0.2007 3.5136,-0.2007 1.1729,0 2.3453,0.1182 3.92,0.2007 -2.1836,-2.8667 -7.5533,-10.9839 -11.0274,-16.2349 2.1006,-2.626 8.603,-9.8154 10.4194,-11.6357 -0.9282,0.083 -1.6977,0.2016 -2.4238,0.2016 a 20.8779,20.8779 0 0 1 -2.2622,-0.2016 c -1.41,2.06 -6.6616,8.603 -10.2974,12.8867 0,-5.2114 0,-10.7432 0.3238,-12.8867 a 33.0976,33.0976 0 0 1 -3.313,0.2016 33.1425,33.1425 0 0 1 -3.312,-0.2016 c 0.2441,3.5576 0.3237,6.6645 0.3237,11.1894 v 5.4956 c 0,4.521 -0.08,7.6324 -0.3237,11.1856 0.8882,-0.0825 1.9814,-0.2007 3.312,-0.2007 1.3345,0 2.4243,0.1182 3.313,0.2007 -0.3238,-2.5425 -0.3238,-6.8662 -0.3238,-12.6817 z"
         class="cls-1" />
      <path
         style="fill:#1d1d1b"
         inkscape:connector-curvature="0"
         id="path6000"
         d="m 223.6162,47.7237 c -1.13,-1.8565 -4.1577,-8.1187 -6.0171,-12.1177 -1.2124,0.083 -2.3813,0.2016 -3.5932,0.2016 -1.2119,0 -2.4239,-0.1186 -3.6363,-0.2016 1.2515,2.3056 5.8589,10.9482 8.6465,16.3178 0.0361,1.2525 0.08,2.5074 0.08,3.7588 0,2.5035 -0.3672,5.208 -0.4863,7.794 1.1328,-0.0825 2.3017,-0.2007 3.4311,-0.2007 1.1338,0 2.3057,0.1182 3.4351,0.2007 a 68.9743,68.9743 0 0 1 -0.4028,-8.4409 c 0,-1.335 0.0791,-2.6661 0.0791,-3.9571 2.5859,-5.0893 6.6645,-12.44 8.4448,-15.4726 a 16.273,16.273 0 0 1 -1.9419,0.2016 13.4,13.4 0 0 1 -1.856,-0.2016 c -1.7763,3.96 -3.92,9.05 -6.1,12.1177 z"
         class="cls-1" />
      <path
         style="fill:#1d1d1b;fill-rule:evenodd"
         inkscape:connector-curvature="0"
         id="path6002"
         d="m 251.4727,63.4766 c 1.2114,-0.0825 2.4638,-0.2007 3.6753,-0.2007 1.2115,0 2.4243,0.1182 3.6362,0.2007 -2.9527,-4.564 -6.02,-9.1675 -8.6065,-13.732 3.9995,-1.01 6.2618,-3.5136 6.2618,-7.4345 a 6.2949,6.2949 0 0 0 -2.626,-5.33 c -1.4131,-1.0078 -2.9058,-1.3745 -6.9883,-1.3745 -2.7441,0 -4.481,0.2016 -5.9341,0.2016 a 33.0863,33.0863 0 0 1 -3.3125,-0.2016 c 0.2412,3.5576 0.3237,6.6645 0.3237,11.1894 v 5.496 c 0,4.521 -0.0825,7.6324 -0.3237,11.1856 0.8887,-0.0825 1.978,-0.2007 3.3125,-0.2007 1.3311,0 2.4243,0.1182 3.3125,0.2007 -0.2446,-3.5532 -0.3237,-6.6646 -0.3237,-11.1856 v -1.6582 h 0.3594 z M 250.26,43.2017 c 0,3.7949 -1.9385,5.7768 -5.4956,5.7768 a 7.5366,7.5366 0 0 1 -0.8848,-0.0825 c 0,-3.6758 0.04,-7.3125 0.1182,-10.9844 4.4023,0 6.2622,0.5254 6.2622,5.29 z"
         class="cls-2" />
      <path
         style="fill:#1d1d1b"
         inkscape:connector-curvature="0"
         id="path6004"
         d="m 269.6816,50.7949 c 2.6661,4.2007 5.4131,8.441 8.0791,12.6817 1.1719,-0.0825 2.3448,-0.2007 3.5137,-0.2007 1.1729,0 2.3447,0.1182 3.917,0.2007 -2.1807,-2.8667 -7.55,-10.9839 -11.0244,-16.2349 2.1006,-2.626 8.6035,-9.8154 10.42,-11.6357 -0.9316,0.083 -1.6982,0.2016 -2.4238,0.2016 A 20.8222,20.8222 0 0 1 279.9,35.606 c -1.4141,2.06 -6.6641,8.6035 -10.3008,12.8867 0,-5.2114 0,-10.7432 0.3233,-12.8867 a 27.2826,27.2826 0 0 1 -6.6211,0 c 0.2412,3.5576 0.32,6.6645 0.32,11.1894 v 5.4956 c 0,4.521 -0.0791,7.6324 -0.32,11.1856 0.8886,-0.0825 1.9775,-0.2007 3.3086,-0.2007 1.3349,0 2.4248,0.1182 3.3125,0.2007 C 269.6,60.9341 269.6,56.61 269.6,50.7949 Z"
         class="cls-1" />
      <path
         style="fill:#1d1d1b;fill-rule:evenodd"
         inkscape:connector-curvature="0"
         id="path6006"
         d="m 300.4053,35.4053 a 5.9753,5.9753 0 0 1 -3.0713,0 c -3.4717,9.21 -9.5322,23.59 -11.51,28.0713 a 19.5663,19.5663 0 0 1 2.0176,-0.2007 14.78,14.78 0 0 1 1.8994,0.2007 78.62,78.62 0 0 1 2.7471,-8.2793 c 1.414,-0.04 2.7881,-0.08 4.1973,-0.08 1.7373,0 3.4345,0.04 5.1728,0.08 1.0107,2.7475 1.9385,5.5312 2.7871,8.2793 1.13,-0.0825 2.3018,-0.2007 3.4317,-0.2007 1.1328,0 2.2617,0.1182 3.5527,0.2007 -3.0674,-6.5816 -7.794,-18.8609 -11.2246,-28.0713 z m -6.8662,17.4111 c 1.1679,-3.2729 2.4209,-6.4638 3.7949,-9.6147 1.291,3.1509 2.4238,6.3418 3.5957,9.6147 z"
         class="cls-2" />
    </g>
    <g
       transform="translate(0,231.65687)"
       id="g6070">
      <path
         style="fill:#e50043"
         inkscape:connector-curvature="0"
         id="path6010"
         d="m 0,0 0.001,65.6338 a 55.8073,55.8073 0 0 0 6.7978,21.4287 41.36,41.36 0 0 0 13.8262,14.7393 c 7.0313,4.4453 15.6113,6.6992 25.5,6.6992 9.7188,0 18.166,-2.2539 25.1064,-6.6992 A 41.51,41.51 0 0 0 84.9209,87.0625 56.8441,56.8441 0 0 0 91.75,65.626 V 0 Z"
         class="cls-3" />
      <g
         id="g6068">
        <path
           style="fill:#ffffff"
           inkscape:connector-curvature="0"
           id="path6012"
           d="M 50.8428,8.8926 50.8594,8.7881 C 50.8694,8.7305 51.0859,7.3633 50.4658,6.916 A 2.4959,2.4959 0 0 0 48.9414,6.419 6.9293,6.9293 0 0 0 47.7022,6.5742 9.3659,9.3659 0 0 1 46.1094,6.7676 h -0.084 A 11.085,11.085 0 0 1 44.1377,6.544 9.6806,9.6806 0 0 0 42.5361,6.3467 1.564,1.564 0 0 0 41.1016,6.9795 3.13,3.13 0 0 0 40.8945,8.7871 l 0.0176,0.1055 z"
           class="cls-4" />
        <path
           style="fill:#ffffff"
           inkscape:connector-curvature="0"
           id="path6014"
           d="m 38.502,24.33 0.8652,-1.1231 a 10.6652,10.6652 0 1 1 12.5361,0.35 l 0.8028,1.1679 A 12.0844,12.0844 0 1 0 38.502,24.33 Z"
           class="cls-4" />
        <path
           style="fill:#ffffff"
           inkscape:connector-curvature="0"
           id="path6016"
           d="M 25.8164,53.043 24.2246,42.263 C 23.5654,42.2767 22.082,42.2591 21.4258,41.6038 A 0.8622,0.8622 0 0 1 21.1611,40.93 c 0.05,-0.91 1.583,-1.5078 2.8448,-1.8164 l -0.0157,-0.0059 -2.4912,-19.5549 -0.0166,-0.129 -3.3086,0.5411 2.5039,19.9751 -0.01,0.0069 0.3613,2.5664 a 2.841,2.841 0 0 1 1.8672,0.8281 3.1715,3.1715 0 0 1 0.6621,2.63 5.9,5.9 0 0 1 -1.752,2.8311 l 0.0079,0.0351 2.8928,19.387 0.0176,0.1211 3.2471,-0.4394 L 25.82,53.042 Z"
           class="cls-4" />
        <path
           style="fill:#ffffff"
           inkscape:connector-curvature="0"
           id="path6018"
           d="m 21.6563,40.957 a 0.3693,0.3693 0 0 0 0.121,0.2959 c 0.5176,0.5176 2.0059,0.54 2.6465,0.5059 l 0.2266,-0.0127 0.5664,3.8379 a 5.1576,5.1576 0 0 0 1.416,-4.4629 l 0.0039,-10e-4 A 4.5871,4.5871 0 0 0 26.0254,40.293 5.2759,5.2759 0 0 0 24.7617,39.4551 c -1.4765,0.3049 -3.0732,0.9238 -3.1054,1.5019 z"
           class="cls-4" />
        <path
           style="fill:#ffffff"
           inkscape:connector-curvature="0"
           id="path6020"
           d="m 22.5342,43.68 a 2.4139,2.4139 0 0 0 -1.711,-0.6758 l -0.2255,0.01 -0.3868,-2.7588 c -0.59,0.4316 -1.4433,1.1982 -1.3984,2.0088 a 15.5709,15.5709 0 0 0 1.1318,5.2832 c 0.21,0.61 1.1983,0.7373 1.6514,0.7637 A 5.1515,5.1515 0 0 0 23.0664,45.9165 2.7154,2.7154 0 0 0 22.5342,43.68 Z"
           class="cls-4" />
        <path
           style="fill:#ffffff"
           inkscape:connector-curvature="0"
           id="path6022"
           d="M 45.9375,33.9024 53.67,26.0518 C 52.671,25.5176 51.8614,25.1524 51.794,25.125 l -2.2011,-1.6387 v 1.7764 L 45.9356,31.3 42.19,25.0117 V 23.61 l -2.0547,1.3427 a 14.454,14.454 0 0 0 -2.166,0.8614 z"
           class="cls-4" />
        <path
           style="fill:#ffffff"
           inkscape:connector-curvature="0"
           id="path6024"
           d="M 18.041,23.5586 A 18.3158,18.3158 0 0 1 14.168,22.375 19.7231,19.7231 0 0 1 10.2939,19.336 l -0.1455,-0.1465 -0.0625,0.1963 c -0.0205,0.0634 -2.0312,6.4638 -1.3486,11.8974 0.5293,4.2227 3.3252,10.4434 3.3545,10.5049 l 0.1523,0.3379 0.0821,-0.3613 a 13.7555,13.7555 0 0 1 1.1728,-3.2119 13.5977,13.5977 0 0 1 2.04,-2.2852 l 0.03,-0.0273 0.0088,-0.0411 a 23.0531,23.0531 0 0 1 0.9922,-3.5078 5.8413,5.8413 0 0 1 2.3262,-2.4062 z"
           class="cls-4" />
        <path
           style="fill:#ffffff"
           inkscape:connector-curvature="0"
           id="path6026"
           d="m 78.1885,35.9434 a 4.37,4.37 0 0 1 -2.626,-0.7989 4.85,4.85 0 0 0 -0.01,6.1485 9.8311,9.8311 0 0 0 1.7344,0.1914 1.5275,1.5275 0 0 0 1.167,-0.32 0.5046,0.5046 0 0 0 0.1074,-0.4278 24.5494,24.5494 0 0 1 -0.3728,-4.7932 z"
           class="cls-4" />
        <path
           style="fill:#ffffff"
           inkscape:connector-curvature="0"
           id="path6028"
           d="m 70.8027,43.5908 a 2.5775,2.5775 0 0 0 -1.5107,1.5127 3.4593,3.4593 0 0 0 -0.1543,2.8985 3.16,3.16 0 0 0 1.59,1.4453 4.31,4.31 0 0 0 2.9414,-1.4365 7.4157,7.4157 0 0 0 0.6045,-4.02 5.15,5.15 0 0 0 -3.4709,-0.4 z"
           class="cls-4" />
        <path
           style="fill:#ffffff"
           inkscape:connector-curvature="0"
           id="path6030"
           d="m 26.71,52.5254 a 13.0937,13.0937 0 0 0 3.4326,-1.33 c 0.3144,-0.8291 1.8047,-5.1318 0.0215,-7.9951 l 0.4218,-0.2627 c 1.6582,2.6641 0.7334,6.3262 0.2217,7.87 a 17.8158,17.8158 0 0 0 3.3936,-2.7334 12.153,12.153 0 0 0 2.5537,-3.914 l -0.69,-7.6944 0.4942,-0.0439 0.707,7.8848 c 0.335,0.6093 0.8467,1.2695 1.5,1.2734 0.8877,0.0059 1.7,0.0117 2.4815,0.0176 h 1.7871 v -2.0313 h 0.4961 v 2.0313 H 45.69 v -11.24 L 37.5083,26.055 a 7.2269,7.2269 0 0 0 -2.9761,2.685 22.7237,22.7237 0 0 0 -1.5478,3.6582 30.5818,30.5818 0 0 1 -2.1084,4.9043 8.6981,8.6981 0 0 1 -3.73,3.8789 5.8082,5.8082 0 0 1 -0.2813,2.6914 c 2.899,3.3313 0.6553,7.4143 -0.1547,8.6526 z"
           class="cls-4" />
        <path
           style="fill:#ffffff"
           inkscape:connector-curvature="0"
           id="path6032"
           d="m 25.3057,46.1856 0.915,6.1894 c 0.67,-0.9629 2.9981,-4.791 0.4219,-7.9931 a 5.6158,5.6158 0 0 1 -1.3369,1.8037 z"
           class="cls-4" />
        <rect
           style="fill:#ffffff"
           id="rect6034"
           height="1.5683"
           width="3.2207"
           y="46.0938"
           x="49.9053"
           class="cls-4" />
        <polygon
           style="fill:#ffffff"
           id="polygon6036"
           points="38.625,46.085 38.625,47.662 41.877,47.662 41.877,46.094 "
           class="cls-4" />
        <rect
           style="fill:#ffffff"
           id="rect6038"
           height="1.5683"
           width="7.0360999"
           y="46.0938"
           x="42.3731"
           class="cls-4" />
        <path
           style="fill:#ffffff"
           inkscape:connector-curvature="0"
           id="path6040"
           d="m 39.8965,99.6748 c 1.916,0.2119 3.82,0.3643 5.48,0.3906 V 48.1738 H 43.416 Z"
           class="cls-4" />
        <path
           style="fill:#ffffff"
           inkscape:connector-curvature="0"
           id="path6042"
           d="M 42.9189,48.1738 H 38.585 l -0.0381,0.045 c -0.1162,0.1367 -2.8672,3.3906 -3.2774,5.9355 -2.6865,16.5938 -6.1562,41.8789 -6.4218,43.8184 0.7636,0.1484 5.62,1.0742 10.5546,1.6465 z"
           class="cls-4" />
        <path
           style="fill:#ffffff"
           inkscape:connector-curvature="0"
           id="path6044"
           d="m 56.374,54.1543 c -0.41,-2.543 -2.9179,-5.7949 -3.0244,-5.9316 l -0.0371,-0.0489 h -4.9307 l 3.5381,51.53 c 4.8994,-0.5029 9.7373,-1.3662 10.8965,-1.58 L 62.8125,98.0945 C 62.7764,97.8291 59.1553,71.332 56.374,54.1543 Z"
           class="cls-4" />
        <path
           style="fill:#ffffff"
           inkscape:connector-curvature="0"
           id="path6046"
           d="M 45.8731,48.1738 V 100.07 c 1.6933,-0.002 3.6181,-0.1289 5.5537,-0.3174 l -3.542,-51.5791 z"
           class="cls-4" />
        <path
           style="fill:#ffffff"
           inkscape:connector-curvature="0"
           id="path6048"
           d="m 58.1768,99.4024 c -1.8633,0.2832 -4.0635,0.583 -6.2754,0.8076 a 0.296,0.296 0 0 0 0.0351,0.2431 c 0.128,0.1543 0.2354,0.295 0.333,0.4239 0.5694,0.7519 0.8555,1.1289 3.0733,1.1289 0.2119,0 0.4424,-0.004 0.6933,-0.01 1.419,-0.0371 3.3916,0.2061 3.4414,-1.3555 a 1.1012,1.1012 0 0 0 -0.3037,-0.8222 1.5649,1.5649 0 0 0 -0.997,-0.4158 z"
           class="cls-4" />
        <path
           style="fill:#ffffff"
           inkscape:connector-curvature="0"
           id="path6050"
           d="M 34.002,99.3731 A 0.4862,0.4862 0 0 1 33.8066,99.3926 2.1439,2.1439 0 0 0 33.33,99.34 a 1.6355,1.6355 0 0 0 -1.1768,0.43 1.11,1.11 0 0 0 -0.3037,0.8243 c 0.043,1.35 1.5547,1.35 2.77,1.35 h 0.1475 c 0.18,0 0.3565,0 0.5244,0.004 0.25,0.008 0.4805,0.0107 0.6924,0.0107 h 10e-4 c 2.2168,0 2.5029,-0.3779 3.0722,-1.1279 0.0987,-0.13 0.2051,-0.2715 0.334,-0.4238 a 0.3346,0.3346 0 0 0 0.0254,-0.2871 C 37.5293,99.9014 35.65,99.6319 34.002,99.3731 Z"
           class="cls-4" />
        <path
           style="fill:#ffffff"
           inkscape:connector-curvature="0"
           id="path6052"
           d="m 64.293,39.4854 a 0.92,0.92 0 0 0 0.1806,0.0166 5.5687,5.5687 0 0 0 1.7657,-0.5117 c 0.2509,-0.504 1.1132,-2.0352 1.9326,-3.3809 l -3.5488,0.8262 a 7.5534,7.5534 0 0 0 -0.4522,2.95 0.1714,0.1714 0 0 0 0.1221,0.0998 z"
           class="cls-4" />
        <path
           style="fill:#ffffff"
           inkscape:connector-curvature="0"
           id="path6054"
           d="m 72.2773,29.5567 -4.207,0.789 -0.0244,0.0283 a 26.3708,26.3708 0 0 0 -1.9512,2.606 l 4.5,-1.0332 c 0.7422,-1.0698 1.418,-2.019 1.6826,-2.3901 z"
           class="cls-4" />
        <path
           style="fill:#ffffff"
           inkscape:connector-curvature="0"
           id="path6056"
           d="m 68.5381,35.0156 c 0.0674,-0.1074 0.1377,-0.22 0.2021,-0.32 0.4112,-0.6386 0.9307,-1.4082 1.4473,-2.16 L 65.7354,33.57 c -0.1241,0.2188 -0.2373,0.4356 -0.3311,0.6426 a 14.7557,14.7557 0 0 0 -0.6191,1.6738 l 3.7529,-0.872 z"
           class="cls-4" />
        <path
           style="fill:#ffffff"
           inkscape:connector-curvature="0"
           id="path6058"
           d="m 46.19,24.0664 h -0.0176 a 9.364,9.364 0 0 1 -1.5352,-0.1933 l -0.07,-0.0137 -1.8808,-1.833 v 2.8486 l 3.2536,5.4619 3.1572,-5.2129 v -2.999 l -1.33,1.7295 -0.0889,0.0186 A 9.2565,9.2565 0 0 1 46.19,24.0664 Z"
           class="cls-4" />
        <path
           style="fill:#ffffff"
           inkscape:connector-curvature="0"
           id="path6060"
           d="m 49.9981,15.8379 -0.8057,-2.6465 h -6.586 l -0.9892,2.51 0.7949,4.998 v 0 0.002 l 0.07,0.4346 2.3262,2.2666 a 8.538,8.538 0 0 0 1.3633,0.1679 h 0.0137 a 8.3712,8.3712 0 0 0 1.3007,-0.164 l 1.7784,-2.3125 z m -7.2208,0.834 a 0.1022,0.1022 0 0 1 -0.0771,-0.0713 1.47,1.47 0 0 1 0.1318,-1.1924 1.384,1.384 0 0 1 1.2227,-0.4463 1.3238,1.3238 0 0 1 1.1133,0.5108 1.9979,1.9979 0 0 1 0.1093,1.5664 0.1057,0.1057 0 0 1 -0.0957,0.0722 l -0.0058,0.001 a 0.1065,0.1065 0 0 1 -0.0967,-0.0635 c -0.1221,-0.2724 -0.5381,-0.996 -0.9814,-1.0625 -0.5176,-0.0654 -1.2129,0.6485 -1.22,0.6563 a 0.1062,0.1062 0 0 1 -0.1004,0.0293 z m 3.83,1.63 -0.7333,1.2681 -0.7314,-1.2685 z m -0.0908,3.748 a 1.6459,1.6459 0 0 0 -1.2393,-0.01 l -0.2216,-0.4434 a 2.1407,2.1407 0 0 1 1.6386,-0.01 z m 1.3916,-1.09 H 43.8447 L 43.7979,20.6845 45.78,19.98 l 0.0459,0.0156 2.126,0.6875 z M 49.05,16.6026 a 0.1073,0.1073 0 0 1 -0.1787,0.0419 c -0.0059,-0.0078 -0.64,-0.6621 -1.1436,-0.6621 a 0.5012,0.5012 0 0 0 -0.0761,0.0059 c -0.4405,0.0664 -0.8575,0.79 -0.9815,1.0635 a 0.1047,0.1047 0 0 1 -0.0957,0.0625 l -0.0058,-0.001 a 0.1059,0.1059 0 0 1 -0.0957,-0.0723 2.0047,2.0047 0 0 1 0.1093,-1.5673 1.326,1.326 0 0 1 1.1123,-0.51 1.36,1.36 0 0 1 1.2237,0.4463 1.4747,1.4747 0 0 1 0.1318,1.1926 z"
           class="cls-4" />
        <path
           style="fill:#ffffff"
           inkscape:connector-curvature="0"
           id="path6062"
           d="m 38.7422,20.668 a 2.1664,2.1664 0 0 0 1.543,0.7207 2.4893,2.4893 0 0 0 1.622,-0.709 l -0.8017,-5.0332 1.1631,-2.9512 H 49.56 l 0.9443,3.1035 -0.0068,0.0538 -0.6748,4.8339 a 2.4785,2.4785 0 0 0 1.6123,0.7022 2.1759,2.1759 0 0 0 1.5459,-0.7207 c 2.8476,-2.8477 -1.05,-7.2451 -1.543,-7.7783 L 52.432,9.3789 H 39.54 l 0.9932,3.5078 c -0.4,0.4043 -2.7793,2.9043 -2.7949,5.3662 a 3.2762,3.2762 0 0 0 1.0039,2.4151 z"
           class="cls-4" />
        <path
           style="fill:#ffffff"
           inkscape:connector-curvature="0"
           id="path6064"
           d="m 54.1231,26.2988 -7.9375,8.0586 v 11.24 h 2.0986 v -2.029 H 48.78 v 2.0293 h 3.9931 c 0.6387,-0.0049 1.1387,-0.6338 1.4747,-1.2324 l 0.7558,-7.8829 0.4942,0.0469 -0.7413,7.7276 a 11.0658,11.0658 0 0 0 2.7793,4.1494 21.5682,21.5682 0 0 0 3.3662,2.5449 c -1.9921,-5.043 0.5528,-7.9258 0.6661,-8.05 l 0.3662,0.3349 c -0.1084,0.1182 -2.6084,2.9551 -0.3946,7.9825 l 0.0616,0.1328 a 2.6238,2.6238 0 0 0 0.9619,0.3545 0.3238,0.3238 0 0 0 0.0586,-0.0108 27.5156,27.5156 0 0 1 0.8906,-5.332 37.3747,37.3747 0 0 1 1.5459,-4.6016 11.2464,11.2464 0 0 1 -3.9629,-4.4043 22.12,22.12 0 0 1 -1.8057,-4.54 11.5745,11.5745 0 0 0 -1.8593,-4.0381 11.294,11.294 0 0 0 -3.3073,-2.4803 z"
           class="cls-4" />
        <path
           style="fill:#ffffff"
           inkscape:connector-curvature="0"
           id="path6066"
           d="m 83.6943,24.5059 -0.1552,-0.17 -0.0577,0.2236 a 16.0377,16.0377 0 0 1 -0.8271,2.415 6.9648,6.9648 0 0 1 -1.5771,2.0137 9.3269,9.3269 0 0 0 -1.4014,1.6211 8.3536,8.3536 0 0 0 -0.8311,2.1191 h -0.0175 a 3.8064,3.8064 0 0 1 0.5728,-2.1131 14.2664,14.2664 0 0 1 1.2031,-1.5176 6.59,6.59 0 0 0 1.7582,-3.0077 12.31,12.31 0 0 0 0.002,-3.6055 l -0.0244,-0.168 -0.1533,0.0723 a 31.3074,31.3074 0 0 0 -7.1973,4.86 33.6323,33.6323 0 0 0 -2.5957,2.8995 48.4993,48.4993 0 0 0 -5.2178,8.01 c -0.5791,1.1162 -1.1309,2.2813 -1.63,3.4971 -0.291,0.709 -0.5576,1.4375 -0.81,2.1748 q -0.085,0.2431 -0.1641,0.4863 c -0.21,0.6387 -0.4072,1.2852 -0.582,1.9434 -0.0147,0.0566 -0.0332,0.1094 -0.0479,0.166 a 30.0659,30.0659 0 0 0 -0.9873,7.7109 c -0.0361,1.2393 -0.0742,2.5215 -0.2226,4.1338 a 28.4,28.4 0 0 1 -0.7578,4.333 l -0.0313,0.1348 c -0.4844,2.1035 -1.5908,5.3389 -1.6016,5.3711 l 0.2041,0.1309 a 22.9958,22.9958 0 0 1 3.5782,-2.793 23.216,23.216 0 0 1 3.8427,-1.461 l 0.2217,-0.0625 -0.1738,-0.1513 a 8.6026,8.6026 0 0 1 -2.5918,-6.6455 c 0.2314,-3.16 4.0313,-7.127 4.4717,-7.5762 a 3.3643,3.3643 0 0 1 -1.2022,-1.335 3.9257,3.9257 0 0 1 0.1446,-3.3066 3.0564,3.0564 0 0 1 1.8027,-1.7861 5.4423,5.4423 0 0 1 3.6582,0.3349 l 0.9336,-1.7783 A 5.421,5.421 0 0 1 75.224,34.7706 c -0.02,-0.03 -0.04,-0.06 -0.0595,-0.0927 -0.4952,-0.8145 -0.3272,-1.9454 0.498,-3.3594 l 0.4277,0.25 c -0.7255,1.2451 -0.8945,2.2051 -0.5019,2.8525 0.5742,0.9453 2.1846,1.0244 2.6807,1.0264 a 11.3906,11.3906 0 0 0 3.011,-4.0665 7.6725,7.6725 0 0 1 1.3486,-2.2022 5.54,5.54 0 0 0 1.4688,-3.0595 2.1084,2.1084 0 0 0 -0.4031,-1.6133 z m -5.6406,4.291 a 0.6943,0.6943 0 1 1 0.7578,-0.6914 0.7254,0.7254 0 0 1 -0.7578,0.6914 z"
           class="cls-4" />
      </g>
    </g>
  </g>
</svg>
