<?xml version="1.0" encoding="UTF-8" standalone="no"?>
<!-- Generator: Adobe Illustrator 19.0.0, SVG Export Plug-In . SVG Version: 6.00 Build 0)  -->

<svg
   xmlns:dc="http://purl.org/dc/elements/1.1/"
   xmlns:cc="http://creativecommons.org/ns#"
   xmlns:rdf="http://www.w3.org/1999/02/22-rdf-syntax-ns#"
   xmlns:svg="http://www.w3.org/2000/svg"
   xmlns="http://www.w3.org/2000/svg"
   xmlns:sodipodi="http://sodipodi.sourceforge.net/DTD/sodipodi-0.dtd"
   xmlns:inkscape="http://www.inkscape.org/namespaces/inkscape"
   version="1.1"
   id="Layer_1"
   x="0px"
   y="0px"
   viewBox="0 0 247.35 164.9"
   enable-background="new 0 0 239.4 66.9"
   xml:space="preserve"
   sodipodi:docname="logo-helsingborg.svg"
   width="255"
   height="170"
   inkscape:version="0.92.3 (2405546, 2018-03-11)"><metadata
   id="metadata5014"><rdf:RDF><cc:Work
       rdf:about=""><dc:format>image/svg+xml</dc:format><dc:type
         rdf:resource="http://purl.org/dc/dcmitype/StillImage" /><dc:title></dc:title></cc:Work></rdf:RDF></metadata><defs
   id="defs5012" /><sodipodi:namedview
   pagecolor="#ffffff"
   bordercolor="#666666"
   borderopacity="1"
   objecttolerance="10"
   gridtolerance="10"
   guidetolerance="10"
   inkscape:pageopacity="0"
   inkscape:pageshadow="2"
   inkscape:window-width="1378"
   inkscape:window-height="995"
   id="namedview5010"
   showgrid="false"
   viewbox-width="237.6"
   units="px"
   scale-x="0.97"
   inkscape:zoom="1.8796993"
   inkscape:cx="147.63"
   inkscape:cy="76.01"
   inkscape:window-x="99"
   inkscape:window-y="52"
   inkscape:window-maximized="0"
   inkscape:current-layer="Layer_1" />
<g
   id="XMLID_2_"
   transform="translate(3.975,48.820625)">
	<g
   id="XMLID_54_">
		<polygon
   id="XMLID_72_"
   points="74.5,25.1 77.2,25.1 77.2,41.6 74.5,41.6 74.5,34.4 66.2,34.4 66.2,41.6 63.6,41.6 63.6,25.1 66.2,25.1 66.2,32.1 74.5,32.1 "
   style="fill:#1d1d1b" />
		<polygon
   id="XMLID_71_"
   points="85.9,39.4 92.2,39.4 92.2,41.6 83.3,41.6 83.3,25.1 92.1,25.1 91.3,27.4 85.9,27.4 85.9,32.1 91.3,32.1 91.3,34.3 85.9,34.3 "
   style="fill:#1d1d1b" />
		<polygon
   id="XMLID_70_"
   points="100.2,39.4 106.3,39.4 106.3,41.6 97.6,41.6 97.6,25.1 100.2,25.1 "
   style="fill:#1d1d1b" />
		<path
   id="XMLID_69_"
   d="m 114.9,41.9 c -2.3,0 -3.8,-0.8 -4.9,-1.4 l 1.1,-2 c 0.8,0.6 2.1,1.2 3.7,1.2 1.3,0 2.9,-0.6 2.9,-2.1 0,-2.5 -4,-3 -6,-5.3 -0.7,-0.8 -1.1,-1.7 -1.1,-2.9 0,-2.4 1.9,-4.4 5.2,-4.4 1.8,0 3.1,0.5 3.9,0.9 v 2.5 c -1.1,-0.7 -2.4,-1.1 -3.8,-1.1 -1.4,0 -2.6,0.6 -2.6,1.9 0,3.3 7.2,3.2 7.2,8.2 0,2.7 -2.5,4.5 -5.6,4.5 z"
   inkscape:connector-curvature="0"
   style="fill:#1d1d1b" />
		<polygon
   id="XMLID_68_"
   points="125.7,25.1 128.4,25.1 128.4,41.6 125.7,41.6 "
   style="fill:#1d1d1b" />
		<path
   id="XMLID_67_"
   d="m 146.5,41.6 -7.8,-10.1 c -0.8,-1 -1.2,-1.7 -1.6,-2.4 v 0 c 0,0.6 0,1.4 0,2.2 v 10.4 h -2.6 V 25.1 h 2.7 l 7.5,9.8 c 0.9,1.2 1.4,1.8 1.7,2.5 v 0 c 0,-0.7 0,-1.5 0,-2.3 v -9.9 h 2.6 v 16.5 h -2.5 z"
   inkscape:connector-curvature="0"
   style="fill:#1d1d1b" />
		<path
   id="XMLID_66_"
   d="m 162.1,41.9 c -5,0 -8.3,-3.5 -8.3,-8.3 0,-5 3.6,-8.6 9,-8.6 2.1,0 3.7,0.5 4.8,0.9 v 2.5 c -1.2,-0.6 -2.8,-1.2 -4.6,-1.2 -4.3,0 -6.3,2.7 -6.3,6.1 0,3.7 2.3,6.3 6.1,6.3 1.2,0 2.2,-0.2 2.8,-0.6 v -5.7 h 2.6 v 7 c -1.4,0.8 -3.6,1.6 -6.1,1.6 z"
   inkscape:connector-curvature="0"
   style="fill:#1d1d1b" />
		<path
   id="XMLID_62_"
   d="m 178.9,34.4 h -2.2 v 5 h 2.1 c 2.1,0 3.2,-1 3.2,-2.6 0,-1.4 -1.2,-2.4 -3.1,-2.4 z m -2.2,-7 v 4.7 h 1.9 c 1.2,0 2.4,-0.9 2.4,-2.4 0,-1.4 -0.8,-2.3 -2.6,-2.3 z m 2.2,14.2 H 174 V 25.1 h 5 c 3.2,0 4.6,2.1 4.6,4.1 0,1.5 -0.7,2.9 -2.1,3.5 v 0 c 1.7,0.4 3.2,2 3.2,4 0,2.3 -1.5,4.9 -5.8,4.9 z"
   inkscape:connector-curvature="0"
   style="fill:#1d1d1b" />
		<path
   id="XMLID_59_"
   d="m 196.9,27.3 c -3.3,0 -5.6,2.4 -5.6,6.2 0,3.8 2.2,6.2 5.6,6.2 3.3,0 5.5,-2.4 5.5,-6.2 0.1,-3.7 -2,-6.2 -5.5,-6.2 z m -5.9,0.1 c 1.5,-1.5 3.6,-2.4 6,-2.4 2.6,0 4.8,1 6.3,2.6 1.4,1.5 2.1,3.5 2.1,5.9 0,2.5 -0.8,4.7 -2.4,6.2 -1.5,1.5 -3.5,2.3 -6,2.3 -2.3,0 -4.3,-0.7 -5.7,-2 -1.7,-1.5 -2.6,-3.8 -2.6,-6.3 -0.1,-2.6 0.8,-4.8 2.3,-6.3 z"
   inkscape:connector-curvature="0"
   style="fill:#1d1d1b" />
		<path
   id="XMLID_56_"
   d="m 214.2,27.4 h -1.5 v 5.5 h 1.6 c 1.7,0 3,-1.3 3,-2.9 -0.1,-1.4 -0.9,-2.6 -3.1,-2.6 z m 4.6,14.2 c -2.6,-4.3 -3.9,-6.5 -4.5,-6.7 h -1.5 v 6.7 h -2.6 V 25.1 h 4.1 c 4.1,0 5.7,2.1 5.7,4.6 0,2.3 -1.5,3.7 -3.1,4.4 v 0 c 0.7,0.3 2.4,3.3 5,7.5 z"
   inkscape:connector-curvature="0"
   style="fill:#1d1d1b" />
		<path
   id="XMLID_55_"
   d="m 233.3,41.9 c -5,0 -8.3,-3.5 -8.3,-8.3 0,-5 3.6,-8.6 9,-8.6 2.1,0 3.7,0.5 4.8,0.9 v 2.5 c -1.2,-0.6 -2.8,-1.2 -4.6,-1.2 -4.3,0 -6.3,2.7 -6.3,6.1 0,3.7 2.3,6.3 6.1,6.3 1.2,0 2.2,-0.2 2.8,-0.6 v -5.7 h 2.6 v 7 c -1.3,0.8 -3.5,1.6 -6.1,1.6 z"
   inkscape:connector-curvature="0"
   style="fill:#1d1d1b" />
	</g>
	<g
   id="XMLID_3_">
		<path
   id="XMLID_53_"
   d="M 42.5,17.5 H 21.9 v 0 0 0 H 1.2 c 0,37.5 0,37.5 0,39.3 0,1.7 0.7,3.5 3.4,4.2 2.7,0.7 12.6,3 14.4,3.5 2.4,0.6 2.8,2.3 2.9,2.5 v 0 0 0 0 c 0,-0.1 0.5,-1.9 2.9,-2.5 1.8,-0.4 11.8,-2.8 14.4,-3.5 2.7,-0.7 3.4,-2.5 3.4,-4.2 C 42.5,55 42.5,55 42.5,17.5 Z"
   inkscape:connector-curvature="0"
   style="fill:#ffffff" />
		<path
   id="XMLID_52_"
   d="m 16.3,38.9 h -9 c -0.9,0.3 -3,1.4 -3,3.4 0,0.7 0.3,1.2 0.6,1.5 h 6.5 z"
   inkscape:connector-curvature="0"
   style="fill:#e20613;stroke:#ffffff;stroke-width:0.05756" />
		<polygon
   id="XMLID_51_"
   points="26.7,29 17,29 17,38.2 21.7,33.7 21.8,33.8 21.9,33.8 22,33.7 26.7,38.2 "
   style="fill:#e20613;stroke:#ffffff;stroke-width:0.05756" />
		<path
   id="XMLID_50_"
   d="M 11.9,44.2 H 5.3 v 6 h 0.8 v 2.4 h 3.7 v -2.5 h 2.9 v -5.7 c -0.4,0 -0.6,-0.1 -0.8,-0.2 z"
   inkscape:connector-curvature="0"
   style="fill:#e20613;stroke:#ffffff;stroke-width:0.05756" />
		<path
   id="XMLID_49_"
   d="m 29.3,44.1 c -0.2,0.1 -0.7,0.4 -1.4,0.4 0,0 0,0 0,0 -0.7,0 -1.1,-0.2 -1.4,-0.3 -0.2,0.1 -0.7,0.3 -1.4,0.3 -0.7,0 -1.2,-0.2 -1.5,-0.4 -0.2,0.2 -0.8,0.4 -1.8,0.4 -1,0 -1.5,-0.2 -1.8,-0.4 -0.3,0.1 -0.8,0.4 -1.5,0.4 -0.7,0 -1.2,-0.2 -1.4,-0.3 -0.2,0.1 -0.7,0.3 -1.4,0.3 -0.7,0 -1.2,-0.3 -1.4,-0.4 -0.2,0.1 -0.7,0.2 -1.2,0.3 v 5.7 h 2.1 v 2.4 H 19 v -2.3 h 5.6 v 2.3 h 3.7 v -2.4 h 2.1 v -5.7 c -0.4,0 -0.9,-0.2 -1.1,-0.3 z"
   inkscape:connector-curvature="0"
   style="fill:#e20613;stroke:#ffffff;stroke-width:0.05756" />
		<path
   id="XMLID_48_"
   d="m 36.3,38.9 h -9 l 4.9,4.8 h 6.5 c 0.3,-0.3 0.6,-0.8 0.6,-1.5 0.1,-2 -2.1,-3 -3,-3.3 z"
   inkscape:connector-curvature="0"
   style="fill:#e20613;stroke:#ffffff;stroke-width:0.05756" />
		<path
   id="XMLID_47_"
   d="m 31,44.4 v 5.7 h 2.9 v 2.5 h 3.7 v -2.3 -0.1 h 0.9 v -6 h -6.6 c -0.3,0.1 -0.5,0.2 -0.9,0.2 z"
   inkscape:connector-curvature="0"
   style="fill:#e20613;stroke:#ffffff;stroke-width:0.05756" />
		<path
   id="XMLID_46_"
   d="m 38.3,50.9 v 2.4 h -5.1 v -2.5 h -4.1 v 2.4 H 23.9 V 51 h -4.2 v 2.3 h -5.2 v -2.4 h -4.1 v 2.5 h -5 V 51 H 1.2 c 0,4.5 0,5 0,5.9 0,1.7 0.7,3.5 3.4,4.2 2.7,0.7 12.6,3 14.4,3.5 2.4,0.6 2.9,2.5 2.9,2.5 0,0 0.5,-1.9 2.9,-2.5 1.8,-0.4 11.8,-2.8 14.4,-3.5 2.7,-0.7 3.4,-2.5 3.4,-4.2 0,-0.9 0,-1.3 0,-5.9 h -4.3 z"
   inkscape:connector-curvature="0"
   style="fill:#e20613;stroke:#ffffff;stroke-width:0.05756" />
		<polygon
   id="XMLID_45_"
   points="21.9,22.3 17.6,25.6 18,25.6 18,26.9 18.9,26.9 18.9,25.5 21.3,25.5 21.3,26.9 22.4,26.9 22.4,25.5 24.8,25.5 24.8,26.9 25.7,26.9 25.7,25.6 26.1,25.6 "
   style="fill:#e20613;stroke:#ffffff;stroke-width:0.05756" />
		<path
   id="XMLID_44_"
   d="m 21.9,22.1 c 0.2,0 0.4,-0.2 0.4,-0.4 0,-0.2 -0.2,-0.4 -0.4,-0.4 -0.2,0 -0.4,0.2 -0.4,0.4 0,0.2 0.1,0.4 0.4,0.4"
   inkscape:connector-curvature="0"
   style="fill:#e20613" />
		<path
   id="XMLID_43_"
   d="m 22.6,19.9 c 0,0 -0.2,0.1 -0.3,0.1 v 0 c 0,0 -0.1,0 -0.1,0 0,0 0,0 0,0 0,-0.1 0,-0.2 0,-0.2 0,-0.1 0.1,-0.3 0.1,-0.3 l 0.1,-0.2 -0.2,0.1 c 0,0 -0.2,0.1 -0.3,0.1 -0.1,0 -0.3,-0.1 -0.3,-0.1 l -0.2,-0.1 0.1,0.2 c 0,0 0.1,0.2 0.1,0.3 0,0.1 0,0.2 0,0.2 0,0 0,0 0,0 0,0 -0.1,0 -0.1,0 -0.1,0 -0.3,-0.1 -0.3,-0.1 h -0.1 v 0.5 c 0,0.1 0,0.4 0,0.4 v 0.1 l 0.1,-0.1 c 0,0 0.1,-0.1 0.2,-0.1 0,0 0.1,0 0.1,0 0,0 0,0 0,0 0,0 0,0.1 0,0.1 0,0.1 -0.1,0.4 -0.1,0.4 v 0.1 0 c 0.1,-0.1 0.3,-0.2 0.5,-0.2 0.2,0 0.4,0.1 0.5,0.2 v 0 -0.1 c 0,0 -0.1,-0.3 -0.1,-0.4 0,0 0,-0.1 0,-0.1 0,0 0,0 0,0 0,0 0.1,0 0.1,0 0.1,0 0.2,0.1 0.2,0.1 l 0.1,0.1 v -0.1 c 0,0 0,-0.2 0,-0.4 v -0.5 z"
   inkscape:connector-curvature="0"
   style="fill:#e20613" />
		<path
   id="XMLID_42_"
   d="m 9.3,27 c 0.3,0 0.5,0.2 0.5,0.5 C 9.8,27.8 9.6,28 9.3,28 9,28 8.8,27.8 8.8,27.5 8.8,27.2 9,27 9.3,27"
   inkscape:connector-curvature="0"
   style="fill:#e20613" />
		<polygon
   id="XMLID_41_"
   points="9.1,28.3 9.1,29.9 9.6,29.9 9.6,28.3 "
   style="fill:#e20613" />
		<path
   id="XMLID_40_"
   d="m 34.4,27 c 0.3,0 0.5,0.2 0.5,0.5 0,0.3 -0.2,0.5 -0.5,0.5 -0.3,0 -0.5,-0.2 -0.5,-0.5 0,-0.3 0.2,-0.5 0.5,-0.5"
   inkscape:connector-curvature="0"
   style="fill:#e20613" />
		<polygon
   id="XMLID_39_"
   points="34.2,28.3 34.2,29.9 34.6,29.9 34.6,28.3 "
   style="fill:#e20613" />
		<polygon
   id="XMLID_38_"
   points="21.1,0.6 20.1,0.6 20.1,0 18.7,0 18.7,1.7 19.3,1.7 19.3,4.4 18.2,4.4 18.2,6 16.1,6 16.1,4.4 15.1,4.4 15.1,1.7 15.7,1.7 15.7,0 14.3,0 14.3,0.6 13.3,0.6 13.3,0 11.8,0 11.8,0.6 10.8,0.6 10.8,0 9.3,0 9.3,1.7 10,1.7 10,4.4 8.9,4.4 8.9,6 6.8,6 6.8,4.4 5.7,4.4 5.7,1.7 6.4,1.7 6.4,0 4.9,0 4.9,0.6 3.9,0.6 3.9,0 2.5,0 2.5,0.6 1.5,0.6 1.5,0 0,0 0,1.7 0.7,1.7 0.7,6.1 3.2,8.8 3.2,13.1 2,13.1 2,17.5 41.8,17.5 41.8,13.1 40.5,13.1 40.5,8.8 43,6.1 43,1.7 43.7,1.7 43.7,0 42.2,0 42.2,0.6 41.2,0.6 41.2,0 39.8,0 39.8,0.6 38.8,0.6 38.8,0 37.3,0 37.3,1.7 38,1.7 38,4.4 36.9,4.4 36.9,6 34.8,6 34.8,4.4 33.7,4.4 33.7,1.7 34.4,1.7 34.4,0 32.9,0 32.9,0.6 31.9,0.6 31.9,0 30.5,0 30.5,0.6 29.4,0.6 29.4,0 28,0 28,1.7 28.7,1.7 28.7,4.4 27.6,4.4 27.6,6 25.5,6 25.5,4.4 24.4,4.4 24.4,1.7 25,1.7 25,0 23.6,0 23.6,0.6 22.6,0.6 22.6,0 21.1,0 "
   style="fill:#e20613" />
		<rect
   id="XMLID_37_"
   x="27.200001"
   y="34.799999"
   width="8.6999998"
   height="3.5"
   style="fill:#e20613;stroke:#ffffff;stroke-width:0.05756" />
		<polygon
   id="XMLID_36_"
   points="27.2,34.3 37.8,34.3 34.8,30.2 27.2,30.2 "
   style="fill:#e20613;stroke:#ffffff;stroke-width:0.05756" />
		<polygon
   id="XMLID_35_"
   points="8.9,30.2 5.9,34.3 16.5,34.3 16.5,30.2 "
   style="fill:#e20613;stroke:#ffffff;stroke-width:0.05756" />
		<rect
   id="XMLID_34_"
   x="7.8000002"
   y="34.799999"
   width="8.6999998"
   height="3.5"
   style="fill:#e20613;stroke:#ffffff;stroke-width:0.05756" />
		<path
   id="XMLID_33_"
   d="m 16.4,48.8 h -1.6 v -2.3 c 0.2,-0.8 1.3,-0.8 1.6,0 z"
   inkscape:connector-curvature="0"
   style="fill:#ffffff" />
		<path
   id="XMLID_32_"
   d="m 22.8,48.8 h -2 v -2.5 c 0.3,-1 1.7,-1 2,0 z"
   inkscape:connector-curvature="0"
   style="fill:#ffffff" />
		<path
   id="XMLID_31_"
   d="m 19.6,48.8 h -2 v -2.5 c 0.3,-1 1.7,-1 2,0 z"
   inkscape:connector-curvature="0"
   style="fill:#ffffff" />
		<path
   id="XMLID_30_"
   d="m 27.3,48.8 h 1.6 v -2.3 c -0.2,-0.8 -1.3,-0.8 -1.6,0 z"
   inkscape:connector-curvature="0"
   style="fill:#ffffff" />
		<path
   id="XMLID_29_"
   d="m 24.1,48.8 h 2 v -2.5 c -0.3,-1 -1.7,-1 -2,0 z"
   inkscape:connector-curvature="0"
   style="fill:#ffffff" />
		<path
   id="XMLID_28_"
   d="M 7.4,47.4 H 6.3 v -1.3 c 0.2,-0.5 0.9,-0.5 1.1,0 z"
   inkscape:connector-curvature="0"
   style="fill:#ffffff;stroke:#ffffff;stroke-width:0.05756" />
		<path
   id="XMLID_27_"
   d="M 9.6,47.4 H 8.5 v -1.3 c 0.2,-0.5 0.9,-0.5 1.1,0 z"
   inkscape:connector-curvature="0"
   style="fill:#ffffff;stroke:#ffffff;stroke-width:0.05756" />
		<path
   id="XMLID_26_"
   d="m 11.8,47.4 h -1.1 v -1.3 c 0.2,-0.5 0.9,-0.5 1.1,0 z"
   inkscape:connector-curvature="0"
   style="fill:#ffffff;stroke:#ffffff;stroke-width:0.05756" />
		<path
   id="XMLID_25_"
   d="m 33,47.4 h -1.1 v -1.3 c 0.2,-0.5 0.9,-0.5 1.1,0 z"
   inkscape:connector-curvature="0"
   style="fill:#ffffff;stroke:#ffffff;stroke-width:0.05756" />
		<path
   id="XMLID_24_"
   d="m 35.2,47.4 h -1.1 v -1.3 c 0.2,-0.5 0.9,-0.5 1.1,0 z"
   inkscape:connector-curvature="0"
   style="fill:#ffffff;stroke:#ffffff;stroke-width:0.05756" />
		<path
   id="XMLID_23_"
   d="m 37.4,47.4 h -1.1 v -1.3 c 0.2,-0.5 0.9,-0.5 1.1,0 z"
   inkscape:connector-curvature="0"
   style="fill:#ffffff;stroke:#ffffff;stroke-width:0.05756" />
		<path
   id="XMLID_22_"
   d="M 10.5,37.3 H 9.4 V 36 c 0.2,-0.5 0.9,-0.5 1.1,0 z"
   inkscape:connector-curvature="0"
   style="fill:#ffffff;stroke:#ffffff;stroke-width:0.05756" />
		<path
   id="XMLID_21_"
   d="M 12.7,37.3 H 11.6 V 36 c 0.2,-0.5 0.9,-0.5 1.1,0 z"
   inkscape:connector-curvature="0"
   style="fill:#ffffff;stroke:#ffffff;stroke-width:0.05756" />
		<path
   id="XMLID_20_"
   d="M 14.9,37.3 H 13.8 V 36 c 0.2,-0.5 0.9,-0.5 1.1,0 z"
   inkscape:connector-curvature="0"
   style="fill:#ffffff;stroke:#ffffff;stroke-width:0.05756" />
		<path
   id="XMLID_19_"
   d="M 29.9,37.3 H 28.8 V 36 c 0.2,-0.5 0.9,-0.5 1.1,0 z"
   inkscape:connector-curvature="0"
   style="fill:#ffffff;stroke:#ffffff;stroke-width:0.05756" />
		<path
   id="XMLID_18_"
   d="M 32.1,37.3 H 31 V 36 c 0.2,-0.5 0.9,-0.5 1.1,0 z"
   inkscape:connector-curvature="0"
   style="fill:#ffffff;stroke:#ffffff;stroke-width:0.05756" />
		<path
   id="XMLID_17_"
   d="M 34.3,37.3 H 33.2 V 36 c 0.2,-0.5 0.9,-0.5 1.1,0 z"
   inkscape:connector-curvature="0"
   style="fill:#ffffff;stroke:#ffffff;stroke-width:0.05756" />
		<path
   id="XMLID_16_"
   d="m 20.2,31.4 h -1.1 v -1.3 c 0.2,-0.5 0.9,-0.5 1.1,0 z"
   inkscape:connector-curvature="0"
   style="fill:#ffffff;stroke:#ffffff;stroke-width:0.05756" />
		<path
   id="XMLID_15_"
   d="m 22.4,31.4 h -1.1 v -1.3 c 0.2,-0.5 0.9,-0.5 1.1,0 z"
   inkscape:connector-curvature="0"
   style="fill:#ffffff;stroke:#ffffff;stroke-width:0.05756" />
		<path
   id="XMLID_14_"
   d="m 24.6,31.4 h -1.1 v -1.3 c 0.2,-0.5 0.9,-0.5 1.1,0 z"
   inkscape:connector-curvature="0"
   style="fill:#ffffff;stroke:#ffffff;stroke-width:0.05756" />
		<path
   id="XMLID_13_"
   d="m 14.9,43.8 c 0.2,0.1 0.5,0.2 0.9,0.2 v 0 c 0.8,0 1.2,-0.3 1.2,-0.3 v 0 0 h 0.1 l 3.9,-8.4 -6.1,8.5 c 0,0 0,0 0,0 z"
   inkscape:connector-curvature="0"
   style="fill:#e20613;stroke:#ffffff;stroke-width:0.05756" />
		<path
   id="XMLID_12_"
   d="m 17.7,43.8 c 0.2,0.1 0.5,0.1 1,0.1 v 0 c 0.7,0 1.2,-0.3 1.3,-0.4 v 0 c 0,0 0,0 0,0 v 0 0 l 1.5,-8.6 -3.8,8.9 c -0.1,0 -0.1,0 0,0 z"
   inkscape:connector-curvature="0"
   style="fill:#e20613;stroke:#ffffff;stroke-width:0.05756" />
		<path
   id="XMLID_11_"
   d="m 20.6,43.8 c 0.2,0.1 0.6,0.2 1.3,0.2 v 0 c 0.8,0 1.2,-0.1 1.4,-0.2 v 0 l -1.4,-8.9 -1.3,8.9 c -0.1,0 -0.1,0 0,0 z"
   inkscape:connector-curvature="0"
   style="fill:#e20613;stroke:#ffffff;stroke-width:0.05756" />
		<path
   id="XMLID_10_"
   d="m 12.1,43.7 c 0.2,0.1 0.4,0.2 0.7,0.2 v 0 c 0.5,0 1.1,-0.2 1.4,-0.3 v 0 c 0.1,0 0.1,0 0.1,0 v 0 0 l 5.9,-8 -8.1,8.1 c 0,0 0,0 0,0 z"
   inkscape:connector-curvature="0"
   style="fill:#e20613;stroke:#ffffff;stroke-width:0.05756" />
		<path
   id="XMLID_9_"
   d="m 28.8,43.8 c 0,0 0,0 0,0 l -6.1,-8.6 3.9,8.4 h 0.1 v 0 0 c 0,0 0.4,0.3 1.2,0.3 v 0 c 0.3,0.1 0.6,0 0.9,-0.1 z"
   inkscape:connector-curvature="0"
   style="fill:#e20613;stroke:#ffffff;stroke-width:0.05756" />
		<path
   id="XMLID_8_"
   d="m 26,43.8 c 0.1,0 0.1,0 0,0 l -3.8,-8.8 1.5,8.6 v 0 0 c 0,0 0,0 0,0 v 0 c 0.1,0.1 0.6,0.4 1.3,0.4 v 0 c 0.5,0 0.8,-0.1 1,-0.2 z"
   inkscape:connector-curvature="0"
   style="fill:#e20613;stroke:#ffffff;stroke-width:0.05756" />
		<path
   id="XMLID_7_"
   d="m 31.6,43.7 c 0,0 0,0 0,0 l -8.2,-8.2 5.9,8 v 0 0 c 0,0 0,0 0.1,0 v 0 c 0.3,0.1 0.9,0.3 1.4,0.3 v 0 c 0.4,0.1 0.6,0 0.8,-0.1 z"
   inkscape:connector-curvature="0"
   style="fill:#e20613;stroke:#ffffff;stroke-width:0.05756" />
		<polygon
   id="XMLID_6_"
   points="21.9,34 20.9,33 21.9,32 22.8,33 "
   style="fill:#ffffff" />
		<polygon
   id="XMLID_5_"
   points="17.5,27.4 17.5,26.1 16.1,26.1 16.1,28.5 27.6,28.5 27.6,26.1 26.2,26.1 26.2,27.4 24.2,27.4 24.2,26 23,26 23,27.4 20.7,27.4 20.7,26 19.5,26 19.5,27.4 "
   style="fill:#e20613" />
		<path
   id="XMLID_4_"
   d="M 42.5,17.5 H 21.9 v 0 0 0 H 1.2 c 0,37.5 0,37.5 0,39.3 0,1.7 0.7,3.5 3.4,4.2 2.7,0.7 12.6,3 14.4,3.5 2.4,0.6 2.9,2.5 2.9,2.5 0,0 0.5,-1.9 2.9,-2.5 1.8,-0.4 11.8,-2.8 14.4,-3.5 2.7,-0.7 3.4,-2.5 3.4,-4.2 C 42.5,55 42.5,55 42.5,17.5 Z"
   inkscape:connector-curvature="0"
   style="fill:none;stroke:#1d1d1b;stroke-width:0.13169999" />
	</g>
</g>
</svg>