<svg xmlns="http://www.w3.org/2000/svg" viewBox="0 0 247.35 164.9" width="255" height="170"><g transform="translate(3.975 48.82)"><path fill="#1d1d1b" d="M74.5 25.1L77.2 25.1 77.2 41.6 74.5 41.6 74.5 34.4 66.2 34.4 66.2 41.6 63.6 41.6 63.6 25.1 66.2 25.1 66.2 32.1 74.5 32.1z"/><path fill="#1d1d1b" d="M85.9 39.4L92.2 39.4 92.2 41.6 83.3 41.6 83.3 25.1 92.1 25.1 91.3 27.4 85.9 27.4 85.9 32.1 91.3 32.1 91.3 34.3 85.9 34.3z"/><path fill="#1d1d1b" d="M100.2 39.4L106.3 39.4 106.3 41.6 97.6 41.6 97.6 25.1 100.2 25.1z"/><path d="M114.9 41.9c-2.3 0-3.8-.8-4.9-1.4l1.1-2c.8.6 2.1 1.2 3.7 1.2 1.3 0 2.9-.6 2.9-2.1 0-2.5-4-3-6-5.3-.7-.8-1.1-1.7-1.1-2.9 0-2.4 1.9-4.4 5.2-4.4 1.8 0 3.1.5 3.9.9v2.5c-1.1-.7-2.4-1.1-3.8-1.1s-2.6.6-2.6 1.9c0 3.3 7.2 3.2 7.2 8.2 0 2.7-2.5 4.5-5.6 4.5z" fill="#1d1d1b"/><path fill="#1d1d1b" d="M125.7 25.1L128.4 25.1 128.4 41.6 125.7 41.6z"/><path d="M146.5 41.6l-7.8-10.1c-.8-1-1.2-1.7-1.6-2.4V41.7h-2.6V25.1h2.7l7.5 9.8c.9 1.2 1.4 1.8 1.7 2.5V25.2h2.6v16.5h-2.5zm15.6.3c-5 0-8.3-3.5-8.3-8.3 0-5 3.6-8.6 9-8.6 2.1 0 3.7.5 4.8.9v2.5c-1.2-.6-2.8-1.2-4.6-1.2-4.3 0-6.3 2.7-6.3 6.1 0 3.7 2.3 6.3 6.1 6.3 1.2 0 2.2-.2 2.8-.6v-5.7h2.6v7c-1.4.8-3.6 1.6-6.1 1.6zm16.8-7.5h-2.2v5h2.1c2.1 0 3.2-1 3.2-2.6 0-1.4-1.2-2.4-3.1-2.4zm-2.2-7v4.7h1.9c1.2 0 2.4-.9 2.4-2.4 0-1.4-.8-2.3-2.6-2.3zm2.2 14.2H174V25.1h5c3.2 0 4.6 2.1 4.6 4.1 0 1.5-.7 2.9-2.1 3.5 1.7.4 3.2 2 3.2 4 0 2.3-1.5 4.9-5.8 4.9zm18-14.3c-3.3 0-5.6 2.4-5.6 6.2 0 3.8 2.2 6.2 5.6 6.2 3.3 0 5.5-2.4 5.5-6.2.1-3.7-2-6.2-5.5-6.2zm-5.9.1c1.5-1.5 3.6-2.4 6-2.4 2.6 0 4.8 1 6.3 2.6 1.4 1.5 2.1 3.5 2.1 5.9 0 2.5-.8 4.7-2.4 6.2-1.5 1.5-3.5 2.3-6 2.3-2.3 0-4.3-.7-5.7-2-1.7-1.5-2.6-3.8-2.6-6.3-.1-2.6.8-4.8 2.3-6.3zm23.2 0h-1.5v5.5h1.6c1.7 0 3-1.3 3-2.9-.1-1.4-.9-2.6-3.1-2.6zm4.6 14.2c-2.6-4.3-3.9-6.5-4.5-6.7h-1.5v6.7h-2.6V25.1h4.1c4.1 0 5.7 2.1 5.7 4.6 0 2.3-1.5 3.7-3.1 4.4.7.3 2.4 3.3 5 7.5zm14.5.3c-5 0-8.3-3.5-8.3-8.3 0-5 3.6-8.6 9-8.6 2.1 0 3.7.5 4.8.9v2.5c-1.2-.6-2.8-1.2-4.6-1.2-4.3 0-6.3 2.7-6.3 6.1 0 3.7 2.3 6.3 6.1 6.3 1.2 0 2.2-.2 2.8-.6v-5.7h2.6v7c-1.3.8-3.5 1.6-6.1 1.6z" fill="#1d1d1b"/><g><path d="M42.5 17.5H1.2v39.3c0 1.7.7 3.5 3.4 4.2 2.7.7 12.6 3 14.4 3.5 2.4.6 2.8 2.3 2.9 2.5 0-.1.5-1.9 2.9-2.5 1.8-.4 11.8-2.8 14.4-3.5 2.7-.7 3.4-2.5 3.4-4.2-.1-1.8-.1-1.8-.1-39.3z" fill="#ffffff"/><path d="M16.3 38.9h-9c-.9.3-3 1.4-3 3.4 0 .7.3 1.2.6 1.5h6.5z" fill="#e20613" stroke="#ffffff" stroke-width="0.05756"/><path fill="#e20613" stroke="#ffffff" stroke-width="0.05756" d="M26.7 29L17 29 17 38.2 21.7 33.7 21.8 33.8 21.9 33.8 22 33.7 26.7 38.2z"/><path d="M11.9 44.2H5.3v6h.8v2.4h3.7v-2.5h2.9v-5.7c-.4 0-.6-.1-.8-.2zm17.4-.1c-.2.1-.7.4-1.4.4s-1.1-.2-1.4-.3c-.2.1-.7.3-1.4.3s-1.2-.2-1.5-.4c-.2.2-.8.4-1.8.4s-1.5-.2-1.8-.4c-.3.1-.8.4-1.5.4s-1.2-.2-1.4-.3c-.2.1-.7.3-1.4.3s-1.2-.3-1.4-.4c-.2.1-.7.2-1.2.3v5.7h2.1v2.4H19v-2.3h5.6v2.3h3.7v-2.4h2.1v-5.7c-.4 0-.9-.2-1.1-.3zm7-5.2h-9l4.9 4.8h6.5c.3-.3.6-.8.6-1.5.1-2-2.1-3-3-3.3zM31 44.4v5.7h2.9v2.5h3.7v-2.4h.9v-6h-6.6c-.3.1-.5.2-.9.2z" fill="#e20613" stroke="#ffffff" stroke-width="0.05756"/><path d="M38.3 50.9v2.4h-5.1v-2.5h-4.1v2.4h-5.2V51h-4.2v2.3h-5.2v-2.4h-4.1v2.5h-5V51H1.2v5.9c0 1.7.7 3.5 3.4 4.2 2.7.7 12.6 3 14.4 3.5 2.4.6 2.9 2.5 2.9 2.5s.5-1.9 2.9-2.5c1.8-.4 11.8-2.8 14.4-3.5 2.7-.7 3.4-2.5 3.4-4.2V51h-4.3z" fill="#e20613" stroke="#ffffff" stroke-width="0.05756"/><path fill="#e20613" stroke="#ffffff" stroke-width="0.05756" d="M21.9 22.3L17.6 25.6 18 25.6 18 26.9 18.9 26.9 18.9 25.5 21.3 25.5 21.3 26.9 22.4 26.9 22.4 25.5 24.8 25.5 24.8 26.9 25.7 26.9 25.7 25.6 26.1 25.6z"/><path d="M21.9 22.1c.2 0 .4-.2.4-.4s-.2-.4-.4-.4-.4.2-.4.4.1.4.4.4m.7-2.2s-.2.1-.3.1h-.1v-.2c0-.1.1-.3.1-.3l.1-.2-.2.1s-.2.1-.3.1c-.1 0-.3-.1-.3-.1l-.2-.1.1.2s.1.2.1.3v.2h-.1c-.1 0-.3-.1-.3-.1h-.1v1l.1-.1s.1-.1.2-.1h.1v.1c0 .1-.1.4-.1.4v.1c.1-.1.3-.2.5-.2s.4.1.5.2v-.1s-.1-.3-.1-.4v-.1h.1c.1 0 .2.1.2.1l.1.1v-.1-.9zM9.3 27c.3 0 .5.2.5.5s-.2.5-.5.5-.5-.2-.5-.5.2-.5.5-.5" fill="#e20613"/><path fill="#e20613" d="M9.1 28.3L9.1 29.9 9.6 29.9 9.6 28.3z"/><path d="M34.4 27c.3 0 .5.2.5.5s-.2.5-.5.5-.5-.2-.5-.5.2-.5.5-.5" fill="#e20613"/><path fill="#e20613" d="M34.2 28.3L34.2 29.9 34.6 29.9 34.6 28.3z"/><path fill="#e20613" d="M21.1 0.6L20.1 0.6 20.1 0 18.7 0 18.7 1.7 19.3 1.7 19.3 4.4 18.2 4.4 18.2 6 16.1 6 16.1 4.4 15.1 4.4 15.1 1.7 15.7 1.7 15.7 0 14.3 0 14.3 0.6 13.3 0.6 13.3 0 11.8 0 11.8 0.6 10.8 0.6 10.8 0 9.3 0 9.3 1.7 10 1.7 10 4.4 8.9 4.4 8.9 6 6.8 6 6.8 4.4 5.7 4.4 5.7 1.7 6.4 1.7 6.4 0 4.9 0 4.9 0.6 3.9 0.6 3.9 0 2.5 0 2.5 0.6 1.5 0.6 1.5 0 0 0 0 1.7 0.7 1.7 0.7 6.1 3.2 8.8 3.2 13.1 2 13.1 2 17.5 41.8 17.5 41.8 13.1 40.5 13.1 40.5 8.8 43 6.1 43 1.7 43.7 1.7 43.7 0 42.2 0 42.2 0.6 41.2 0.6 41.2 0 39.8 0 39.8 0.6 38.8 0.6 38.8 0 37.3 0 37.3 1.7 38 1.7 38 4.4 36.9 4.4 36.9 6 34.8 6 34.8 4.4 33.7 4.4 33.7 1.7 34.4 1.7 34.4 0 32.9 0 32.9 0.6 31.9 0.6 31.9 0 30.5 0 30.5 0.6 29.4 0.6 29.4 0 28 0 28 1.7 28.7 1.7 28.7 4.4 27.6 4.4 27.6 6 25.5 6 25.5 4.4 24.4 4.4 24.4 1.7 25 1.7 25 0 23.6 0 23.6 0.6 22.6 0.6 22.6 0 21.1 0z"/><path fill="#e20613" stroke="#ffffff" stroke-width="0.05756" d="M27.2 34.8H35.9V38.3H27.2z"/><path fill="#e20613" stroke="#ffffff" stroke-width="0.05756" d="M27.2 34.3L37.8 34.3 34.8 30.2 27.2 30.2z"/><path fill="#e20613" stroke="#ffffff" stroke-width="0.05756" d="M8.9 30.2L5.9 34.3 16.5 34.3 16.5 30.2z"/><path fill="#e20613" stroke="#ffffff" stroke-width="0.05756" d="M7.8 34.8H16.5V38.3H7.8z"/><path d="M16.4 48.8h-1.6v-2.3c.2-.8 1.3-.8 1.6 0zm6.4 0h-2v-2.5c.3-1 1.7-1 2 0zm-3.2 0h-2v-2.5c.3-1 1.7-1 2 0zm7.7 0h1.6v-2.3c-.2-.8-1.3-.8-1.6 0zm-3.2 0h2v-2.5c-.3-1-1.7-1-2 0z" fill="#ffffff"/><path d="M7.4 47.4H6.3v-1.3c.2-.5.9-.5 1.1 0zm2.2 0H8.5v-1.3c.2-.5.9-.5 1.1 0zm2.2 0h-1.1v-1.3c.2-.5.9-.5 1.1 0zm21.2 0h-1.1v-1.3c.2-.5.9-.5 1.1 0zm2.2 0h-1.1v-1.3c.2-.5.9-.5 1.1 0zm2.2 0h-1.1v-1.3c.2-.5.9-.5 1.1 0zM10.5 37.3H9.4V36c.2-.5.9-.5 1.1 0zm2.2 0h-1.1V36c.2-.5.9-.5 1.1 0zm2.2 0h-1.1V36c.2-.5.9-.5 1.1 0zm15 0h-1.1V36c.2-.5.9-.5 1.1 0zm2.2 0H31V36c.2-.5.9-.5 1.1 0zm2.2 0h-1.1V36c.2-.5.9-.5 1.1 0zm-14.1-5.9h-1.1v-1.3c.2-.5.9-.5 1.1 0zm2.2 0h-1.1v-1.3c.2-.5.9-.5 1.1 0zm2.2 0h-1.1v-1.3c.2-.5.9-.5 1.1 0z" fill="#ffffff" stroke="#ffffff" stroke-width="0.05756"/><path d="M14.9 43.8c.2.1.5.2.9.2.8 0 1.2-.3 1.2-.3h.1l3.9-8.4-6.1 8.5zm2.8 0c.2.1.5.1 1 .1.7 0 1.2-.3 1.3-.4l1.5-8.6-3.8 8.9c-.1 0-.1 0 0 0zm2.9 0c.2.1.6.2 1.3.2.8 0 1.2-.1 1.4-.2l-1.4-8.9-1.3 8.9c-.1 0-.1 0 0 0zm-8.5-.1c.2.1.4.2.7.2.5 0 1.1-.2 1.4-.3h.1l5.9-8-8.1 8.1zm16.7.1l-6.1-8.6 3.9 8.4h.1s.4.3 1.2.3c.3.1.6 0 .9-.1zm-2.8 0c.1 0 .1 0 0 0L22.2 35l1.5 8.6c.1.1.6.4 1.3.4.5 0 .8-.1 1-.2zm5.6-.1l-8.2-8.2 5.9 8h.1c.3.1.9.3 1.4.3.4.1.6 0 .8-.1z" fill="#e20613" stroke="#ffffff" stroke-width="0.05756"/><path fill="#ffffff" d="M21.9 34L20.9 33 21.9 32 22.8 33z"/><path fill="#e20613" d="M17.5 27.4L17.5 26.1 16.1 26.1 16.1 28.5 27.6 28.5 27.6 26.1 26.2 26.1 26.2 27.4 24.2 27.4 24.2 26 23 26 23 27.4 20.7 27.4 20.7 26 19.5 26 19.5 27.4z"/><path d="M42.5 17.5H1.2v39.3c0 1.7.7 3.5 3.4 4.2 2.7.7 12.6 3 14.4 3.5 2.4.6 2.9 2.5 2.9 2.5s.5-1.9 2.9-2.5c1.8-.4 11.8-2.8 14.4-3.5 2.7-.7 3.4-2.5 3.4-4.2-.1-1.8-.1-1.8-.1-39.3z" fill="none" stroke="#1d1d1b" stroke-width="0.13169999"/></g></g></svg>