<svg height="318" viewBox="0 0 497.12 330.72" width="478" xmlns="http://www.w3.org/2000/svg"><g transform="translate(3.599982 90.858348)"><g fill="#484848"><path d="m262 23.81a11.37 11.37 0 0 1 -3.63 7.59 11.88 11.88 0 0 1 -8.12 2.67 10.9 10.9 0 0 1 -8.8-3.94q-3.32-3.93-3.31-10.54v-3a17.66 17.66 0 0 1 1.56-7.59 11.54 11.54 0 0 1 4.38-5 12.16 12.16 0 0 1 6.55-1.76 11.19 11.19 0 0 1 7.92 2.76 11.5 11.5 0 0 1 3.45 7.61h-4.11a8.86 8.86 0 0 0 -2.31-5.38 7 7 0 0 0 -5-1.66 7.31 7.31 0 0 0 -6.14 2.89c-1.48 1.94-2.22 4.68-2.22 8.25v3a13.73 13.73 0 0 0 2.1 8 6.83 6.83 0 0 0 5.9 3 7.94 7.94 0 0 0 5.23-1.54c1.21-1 2-2.83 2.41-5.38z"/><path d="m265.73 21.92a13.55 13.55 0 0 1 1.33-6.09 9.87 9.87 0 0 1 3.7-4.18 10.07 10.07 0 0 1 5.42-1.46 9.71 9.71 0 0 1 7.61 3.25 12.52 12.52 0 0 1 2.91 8.67v.27a13.7 13.7 0 0 1 -1.29 6 9.76 9.76 0 0 1 -3.69 4.16 10.21 10.21 0 0 1 -5.5 1.49 9.67 9.67 0 0 1 -7.59-3.26 12.44 12.44 0 0 1 -2.9-8.62zm4 .46a9.9 9.9 0 0 0 1.77 6.16 6 6 0 0 0 9.53 0 10.73 10.73 0 0 0 1.77-6.58 9.85 9.85 0 0 0 -1.8-6.15 5.74 5.74 0 0 0 -4.78-2.35 5.66 5.66 0 0 0 -4.71 2.32q-1.83 2.28-1.82 6.6z"/><path d="m294.88 10.61.13 2.9a8.38 8.38 0 0 1 6.9-3.32q7.29 0 7.36 8.23v15.23h-3.94v-15.25a5.24 5.24 0 0 0 -1.14-3.68 4.53 4.53 0 0 0 -3.48-1.19 5.71 5.71 0 0 0 -3.36 1 7 7 0 0 0 -2.26 2.68v16.44h-3.93v-23z"/><path d="m316.21 33.65v-20h-3.64v-3.04h3.64v-2.36a7.85 7.85 0 0 1 2-5.73 7.46 7.46 0 0 1 5.6-2 10.38 10.38 0 0 1 2.7.36l-.23 3.12a11.18 11.18 0 0 0 -2.13-.19 3.82 3.82 0 0 0 -3 1.12 4.54 4.54 0 0 0 -1 3.22v2.43h4.91v3.05h-4.91v20z"/><path d="m337.67 34.07a10 10 0 0 1 -7.62-3.07 11.44 11.44 0 0 1 -2.94-8.23v-.77a13.75 13.75 0 0 1 1.31-6.12 10.17 10.17 0 0 1 3.66-4.21 9.17 9.17 0 0 1 5.1-1.52 8.63 8.63 0 0 1 7 3c1.66 2 2.49 4.8 2.49 8.48v1.64h-15.6a8.15 8.15 0 0 0 2 5.5 6.24 6.24 0 0 0 4.84 2.1 6.91 6.91 0 0 0 3.53-.85 8.92 8.92 0 0 0 2.56-2.27l2.4 1.87a9.66 9.66 0 0 1 -8.73 4.45zm-.49-20.65a5.26 5.26 0 0 0 -4 1.74 8.48 8.48 0 0 0 -2 4.86h11.54v-.3a7.45 7.45 0 0 0 -1.62-4.65 4.93 4.93 0 0 0 -3.92-1.65z"/><path d="m362.13 14.14a13.11 13.11 0 0 0 -1.94-.14 5.19 5.19 0 0 0 -5.26 3.3v16.35h-3.93v-23h3.83l.07 2.66a6.12 6.12 0 0 1 5.49-3.08 4 4 0 0 1 1.75.29z"/><path d="m374.53 34.07a10.07 10.07 0 0 1 -7.62-3.07 11.44 11.44 0 0 1 -2.91-8.23v-.77a13.89 13.89 0 0 1 1.31-6.12 10.31 10.31 0 0 1 3.66-4.21 9.17 9.17 0 0 1 5.1-1.52 8.64 8.64 0 0 1 7 3c1.66 2 2.49 4.8 2.49 8.48v1.64h-15.65a8.2 8.2 0 0 0 2 5.5 6.26 6.26 0 0 0 4.85 2.1 6.94 6.94 0 0 0 3.53-.85 8.75 8.75 0 0 0 2.53-2.26l2.41 1.87a9.67 9.67 0 0 1 -8.7 4.44zm-.53-20.65a5.24 5.24 0 0 0 -4 1.74 8.41 8.41 0 0 0 -2 4.84h11.54v-.3a7.45 7.45 0 0 0 -1.54-4.63 4.94 4.94 0 0 0 -4-1.65z"/><path d="m391.58 10.61.13 2.9a8.38 8.38 0 0 1 6.9-3.32q7.31 0 7.37 8.23v15.23h-3.98v-15.25a5.34 5.34 0 0 0 -1.14-3.68 4.56 4.56 0 0 0 -3.48-1.19 5.72 5.72 0 0 0 -3.37 1 6.93 6.93 0 0 0 -2.25 2.68v16.44h-3.94v-23z"/><path d="m420.69 30.86a5.69 5.69 0 0 0 3.68-1.28 4.53 4.53 0 0 0 1.75-3.19h3.72a7.08 7.08 0 0 1 -1.36 3.76 8.92 8.92 0 0 1 -3.35 2.85 9.68 9.68 0 0 1 -4.44 1.06 9.49 9.49 0 0 1 -7.48-3.14c-1.86-2.09-2.78-5-2.78-8.59v-.66a13.89 13.89 0 0 1 1.23-6 9.47 9.47 0 0 1 3.55-4.07 10.11 10.11 0 0 1 5.46-1.44 9.23 9.23 0 0 1 6.44 2.32 8.25 8.25 0 0 1 2.73 6h-3.72a5.47 5.47 0 0 0 -1.69-3.67 5.27 5.27 0 0 0 -3.76-1.44 5.51 5.51 0 0 0 -4.67 2.21 10.14 10.14 0 0 0 -1.65 6.25v.75a9.92 9.92 0 0 0 1.65 6.13 5.54 5.54 0 0 0 4.69 2.15z"/><path d="m443.52 34.07a10 10 0 0 1 -7.62-3.07 11.44 11.44 0 0 1 -2.9-8.23v-.77a13.75 13.75 0 0 1 1.31-6.12 10.17 10.17 0 0 1 3.66-4.21 9.17 9.17 0 0 1 5.1-1.52 8.63 8.63 0 0 1 7 3c1.66 2 2.49 4.8 2.49 8.48v1.64h-15.66a8.15 8.15 0 0 0 2 5.5 6.24 6.24 0 0 0 4.84 2.1 6.91 6.91 0 0 0 3.53-.85 8.92 8.92 0 0 0 2.54-2.26l2.4 1.87a9.66 9.66 0 0 1 -8.69 4.44zm-.52-20.65a5.26 5.26 0 0 0 -4 1.74 8.48 8.48 0 0 0 -2 4.84h11.54v-.3a7.45 7.45 0 0 0 -1.62-4.65 4.93 4.93 0 0 0 -3.92-1.63z"/><path d="m237.56 74.92a13.55 13.55 0 0 1 1.33-6.09 9.89 9.89 0 0 1 3.71-4.18 10 10 0 0 1 5.4-1.46 9.7 9.7 0 0 1 7.61 3.25 12.52 12.52 0 0 1 2.91 8.67v.27a13.7 13.7 0 0 1 -1.29 6 9.74 9.74 0 0 1 -3.68 4.16 10.23 10.23 0 0 1 -5.5 1.49 9.64 9.64 0 0 1 -7.59-3.26 12.44 12.44 0 0 1 -2.91-8.62zm4 .46a9.84 9.84 0 0 0 1.78 6.16 6 6 0 0 0 9.53 0 10.79 10.79 0 0 0 1.76-6.58 9.85 9.85 0 0 0 -1.8-6.15 5.74 5.74 0 0 0 -4.83-2.39 5.64 5.64 0 0 0 -4.7 2.32 10.71 10.71 0 0 0 -1.78 6.64z"/><path d="m266.72 63.61.12 2.9a8.38 8.38 0 0 1 6.9-3.32q7.31 0 7.37 8.23v15.23h-3.94v-15.25a5.29 5.29 0 0 0 -1.17-3.68 4.54 4.54 0 0 0 -3.48-1.19 5.66 5.66 0 0 0 -3.36 1 6.87 6.87 0 0 0 -2.26 2.68v16.44h-3.9v-23z"/><path d="m303.18 58v5.58h4.3v3h-4.3v14.42a3.24 3.24 0 0 0 .58 2.08 2.41 2.41 0 0 0 2 .69 9.6 9.6 0 0 0 1.87-.26v3.18a11.5 11.5 0 0 1 -3 .42 4.88 4.88 0 0 1 -4-1.6 6.8 6.8 0 0 1 -1.34-4.53v-14.32h-4.2v-3h4.2v-5.66z"/><path d="m315.24 66.4a8.39 8.39 0 0 1 6.81-3.21q7.31 0 7.37 8.23v15.23h-3.94v-15.25a5.24 5.24 0 0 0 -1.14-3.68 4.53 4.53 0 0 0 -3.48-1.19 5.66 5.66 0 0 0 -3.36 1 6.87 6.87 0 0 0 -2.26 2.68v16.44h-3.94v-32.65h3.94z"/><path d="m344.41 87.07a10.07 10.07 0 0 1 -7.62-3.07 11.44 11.44 0 0 1 -2.94-8.23v-.77a13.89 13.89 0 0 1 1.31-6.12 10.17 10.17 0 0 1 3.66-4.21 9.17 9.17 0 0 1 5.1-1.52 8.63 8.63 0 0 1 7 3c1.66 2 2.49 4.8 2.49 8.48v1.64h-15.6a8.15 8.15 0 0 0 2 5.5 6.24 6.24 0 0 0 4.84 2.1 7 7 0 0 0 3.54-.85 8.88 8.88 0 0 0 2.53-2.26l2.4 1.87a9.66 9.66 0 0 1 -8.71 4.44zm-.49-20.65a5.24 5.24 0 0 0 -4 1.74 8.34 8.34 0 0 0 -2 4.86h11.53v-.3a7.51 7.51 0 0 0 -1.61-4.65 5 5 0 0 0 -3.92-1.65z"/><path d="m387.18 74h-12.26v12.65h-6.39v-31h20.18v5.17h-13.79v8h12.26z"/><path d="m404.66 84.3a7.71 7.71 0 0 1 -6.31 2.77 7.27 7.27 0 0 1 -5.65-2.13q-1.95-2.13-2-6.24v-15.09h6.15v14.9c0 2.4 1.1 3.6 3.28 3.6s3.52-.72 4.3-2.17v-16.33h6.18v23h-5.79z"/><path d="m422.43 58v5.66h3.94v4.51h-3.94v11.5a2.73 2.73 0 0 0 .49 1.83 2.44 2.44 0 0 0 1.87.55 10.83 10.83 0 0 0 1.81-.14v4.66a12.66 12.66 0 0 1 -3.73.55q-6.47 0-6.6-6.53v-12.47h-3.36v-4.51h3.36v-5.61z"/><path d="m443.09 84.3a7.7 7.7 0 0 1 -6.3 2.77 7.29 7.29 0 0 1 -5.66-2.13q-2-2.13-2-6.24v-15.09h6.16v14.9q0 3.6 3.27 3.6 3.27 0 4.3-2.17v-16.33h6.18v23h-5.79z"/><path d="m466.4 69.38a17.29 17.29 0 0 0 -2.21-.17q-3.49 0-4.58 2.36v15.08h-6.15v-23h5.81l.17 2.75a5.7 5.7 0 0 1 5.13-3.17 6.65 6.65 0 0 1 1.92.27z"/><path d="m479.51 87.07a11.27 11.27 0 0 1 -8.25-3.07 11 11 0 0 1 -3.18-8.28v-.59a13.82 13.82 0 0 1 1.34-6.21 9.87 9.87 0 0 1 3.8-4.22 10.72 10.72 0 0 1 5.61-1.47 9.55 9.55 0 0 1 7.44 3q2.72 3 2.71 8.45v2.51h-14.67a5.74 5.74 0 0 0 1.8 3.62 5.43 5.43 0 0 0 3.8 1.36 6.64 6.64 0 0 0 5.56-2.58l3 3.39a9.18 9.18 0 0 1 -3.74 3 12.18 12.18 0 0 1 -5.22 1.09zm-.7-18.92a3.84 3.84 0 0 0 -3 1.24 6.38 6.38 0 0 0 -1.46 3.55h8.56v-.5a4.57 4.57 0 0 0 -1.11-3.17 4 4 0 0 0 -2.99-1.12z"/><path d="m237.56 127.92a13.55 13.55 0 0 1 1.33-6.09 9.89 9.89 0 0 1 3.71-4.18 10 10 0 0 1 5.41-1.46 9.7 9.7 0 0 1 7.61 3.25 12.52 12.52 0 0 1 2.91 8.67v.27a13.7 13.7 0 0 1 -1.29 6 9.74 9.74 0 0 1 -3.68 4.16 10.23 10.23 0 0 1 -5.5 1.49 9.64 9.64 0 0 1 -7.59-3.26 12.44 12.44 0 0 1 -2.91-8.62zm4 .46a9.84 9.84 0 0 0 1.78 6.16 6 6 0 0 0 9.53 0 10.79 10.79 0 0 0 1.76-6.58 9.85 9.85 0 0 0 -1.8-6.15 5.74 5.74 0 0 0 -4.78-2.35 5.64 5.64 0 0 0 -4.7 2.32 10.71 10.71 0 0 0 -1.83 6.6z"/><path d="m264.2 139.65v-20h-3.64v-3h3.64v-2.36a7.85 7.85 0 0 1 2-5.73 7.45 7.45 0 0 1 5.59-2 10.46 10.46 0 0 1 2.71.36l-.21 3.17a11.18 11.18 0 0 0 -2.13-.19 3.82 3.82 0 0 0 -3 1.12 4.54 4.54 0 0 0 -1.05 3.22v2.43h4.92v3h-4.92v20z"/><path d="m306.62 126.17h-12.26v8.34h14.39v5.14h-20.75v-31h20.73v5.17h-14.37v7.39h12.26z"/><path d="m325.58 137.3a7.7 7.7 0 0 1 -6.3 2.77 7.27 7.27 0 0 1 -5.65-2.13q-2-2.13-2-6.24v-15.09h6.15v14.9q0 3.6 3.28 3.6c2.08 0 3.52-.72 4.3-2.17v-16.33h6.17v23h-5.79z"/><path d="m348.9 122.38a17.44 17.44 0 0 0 -2.22-.17q-3.49 0-4.57 2.36v15.08h-6.11v-23h5.81l.18 2.75a5.68 5.68 0 0 1 5.13-3.17 6.53 6.53 0 0 1 1.91.27z"/><path d="m350.54 127.92a13.62 13.62 0 0 1 1.32-6.11 9.7 9.7 0 0 1 3.8-4.16 11.06 11.06 0 0 1 5.76-1.46 10.5 10.5 0 0 1 7.58 2.81 11.43 11.43 0 0 1 3.29 7.75v1.57a12 12 0 0 1 -3 8.51 11.48 11.48 0 0 1 -15.89 0q-3-3.19-3-8.69zm6.15.43a8.55 8.55 0 0 0 1.24 5 4.43 4.43 0 0 0 7 0q1.26-1.71 1.26-5.49a8.46 8.46 0 0 0 -1.26-5 4.07 4.07 0 0 0 -3.53-1.77 4 4 0 0 0 -3.49 1.75 9.54 9.54 0 0 0 -1.22 5.51z"/><path d="m396.58 128.34a13.84 13.84 0 0 1 -2.42 8.53 7.76 7.76 0 0 1 -6.52 3.2 7.2 7.2 0 0 1 -5.65-2.43v10.86h-6.15v-31.89h5.71l.21 2.26a7.22 7.22 0 0 1 5.83-2.68 7.79 7.79 0 0 1 6.62 3.15q2.37 3.15 2.37 8.68zm-6.16-.47a9.16 9.16 0 0 0 -1.13-5 3.71 3.71 0 0 0 -3.31-1.75 4 4 0 0 0 -4 2.22v9.46a4.11 4.11 0 0 0 4 2.28c3.02.03 4.44-2.38 4.44-7.21z"/><path d="m410.61 140.07a11.27 11.27 0 0 1 -8.25-3.11 11 11 0 0 1 -3.18-8.28v-.59a14 14 0 0 1 1.34-6.21 9.87 9.87 0 0 1 3.8-4.22 10.72 10.72 0 0 1 5.61-1.47 9.55 9.55 0 0 1 7.44 3q2.72 3 2.71 8.45v2.51h-14.66a5.68 5.68 0 0 0 1.79 3.62 5.46 5.46 0 0 0 3.81 1.36 6.62 6.62 0 0 0 5.55-2.58l3 3.39a9.18 9.18 0 0 1 -3.74 3.05 12.18 12.18 0 0 1 -5.22 1.08zm-.7-18.92a3.84 3.84 0 0 0 -3 1.24 6.38 6.38 0 0 0 -1.46 3.55h8.55v-.5a4.57 4.57 0 0 0 -1.11-3.17 4 4 0 0 0 -2.98-1.12z"/></g><path d="m1.44 9h211.62v131h-211.62z" fill="#164194" stroke="#fff" stroke-miterlimit="10"/><path d="m109.84 29.21-4.73 3.46 1.84-5.56-4.76-3.42 5.86.02 1.79-5.58 1.79 5.58 5.85-.02-4.75 3.42 1.83 5.56z" fill="#ffed00"/><path d="m109.84 125.72-4.73 3.47 1.84-5.56-4.76-3.43 5.86.03 1.79-5.58 1.79 5.58 5.85-.03-4.75 3.43 1.83 5.56z" fill="#ffed00"/><path d="m85.83 35.63-4.72 3.46 1.83-5.56-4.75-3.42 5.86.02 1.78-5.58 1.79 5.58 5.86-.02-4.76 3.42 1.84 5.56z" fill="#ffed00"/><path d="m68.16 53.34-4.73 3.46 1.84-5.56-4.76-3.43 5.86.03 1.79-5.58 1.78 5.58 5.86-.03-4.75 3.43 1.83 5.56z" fill="#ffed00"/><path d="m61.64 77.41-4.72 3.46 1.83-5.56-4.75-3.43 5.85.03 1.79-5.58 1.79 5.58 5.86-.03-4.76 3.43 1.84 5.56z" fill="#ffed00"/><path d="m68.09 101.48-4.72 3.47 1.83-5.56-4.75-3.43 5.86.03 1.78-5.58 1.79 5.58 5.86-.03-4.76 3.43 1.84 5.56z" fill="#ffed00"/><path d="m85.83 119.19-4.72 3.46 1.83-5.56-4.75-3.42 5.86.02 1.78-5.58 1.79 5.58 5.86-.02-4.76 3.42 1.84 5.56z" fill="#ffed00"/><path d="m133.87 35.63 4.72 3.46-1.83-5.56 4.75-3.42-5.86.02-1.78-5.58-1.79 5.58-5.86-.02 4.76 3.42-1.84 5.56z" fill="#ffed00"/><path d="m151.54 53.34 4.73 3.46-1.84-5.56 4.76-3.43-5.86.03-1.79-5.58-1.79 5.58-5.85-.03 4.75 3.43-1.83 5.56z" fill="#ffed00"/><path d="m158.06 77.41 4.72 3.46-1.83-5.56 4.75-3.43-5.86.03-1.78-5.58-1.79 5.58-5.86-.03 4.76 3.43-1.84 5.56z" fill="#ffed00"/><path d="m151.61 101.48 4.72 3.47-1.83-5.56 4.75-3.43-5.86.03-1.78-5.58-1.79 5.58-5.86-.03 4.76 3.43-1.84 5.56z" fill="#ffed00"/><path d="m133.87 119.19 4.72 3.46-1.83-5.56 4.75-3.42-5.86.02-1.78-5.58-1.79 5.58-5.86-.02 4.76 3.42-1.84 5.56z" fill="#ffed00"/><path d="m262 23.81a11.37 11.37 0 0 1 -3.63 7.59 11.88 11.88 0 0 1 -8.12 2.67 10.9 10.9 0 0 1 -8.8-3.94q-3.32-3.93-3.31-10.54v-3a17.66 17.66 0 0 1 1.56-7.59 11.54 11.54 0 0 1 4.38-5 12.16 12.16 0 0 1 6.55-1.76 11.19 11.19 0 0 1 7.92 2.76 11.5 11.5 0 0 1 3.45 7.61h-4.11a8.86 8.86 0 0 0 -2.31-5.38 7 7 0 0 0 -5-1.66 7.31 7.31 0 0 0 -6.14 2.89c-1.48 1.94-2.22 4.68-2.22 8.25v3a13.73 13.73 0 0 0 2.1 8 6.83 6.83 0 0 0 5.9 3 7.94 7.94 0 0 0 5.23-1.54c1.21-1 2-2.83 2.41-5.38z" fill="#484848"/><path d="m265.73 21.92a13.55 13.55 0 0 1 1.33-6.09 9.87 9.87 0 0 1 3.7-4.18 10.07 10.07 0 0 1 5.42-1.46 9.71 9.71 0 0 1 7.61 3.25 12.52 12.52 0 0 1 2.91 8.67v.27a13.7 13.7 0 0 1 -1.29 6 9.76 9.76 0 0 1 -3.69 4.16 10.21 10.21 0 0 1 -5.5 1.49 9.67 9.67 0 0 1 -7.59-3.26 12.44 12.44 0 0 1 -2.9-8.62zm4 .46a9.9 9.9 0 0 0 1.77 6.16 6 6 0 0 0 9.53 0 10.73 10.73 0 0 0 1.77-6.58 9.85 9.85 0 0 0 -1.8-6.15 5.74 5.74 0 0 0 -4.78-2.35 5.66 5.66 0 0 0 -4.71 2.32q-1.83 2.28-1.82 6.6z" fill="#484848"/><path d="m294.88 10.61.13 2.9a8.38 8.38 0 0 1 6.9-3.32q7.29 0 7.36 8.23v15.23h-3.94v-15.25a5.24 5.24 0 0 0 -1.14-3.68 4.53 4.53 0 0 0 -3.48-1.19 5.71 5.71 0 0 0 -3.36 1 7 7 0 0 0 -2.26 2.68v16.44h-3.93v-23z" fill="#484848"/><path d="m316.21 33.65v-20h-3.64v-3.04h3.64v-2.36a7.85 7.85 0 0 1 2-5.73 7.46 7.46 0 0 1 5.6-2 10.38 10.38 0 0 1 2.7.36l-.23 3.12a11.18 11.18 0 0 0 -2.13-.19 3.82 3.82 0 0 0 -3 1.12 4.54 4.54 0 0 0 -1 3.22v2.43h4.91v3.05h-4.91v20z" fill="#484848"/><path d="m337.67 34.07a10 10 0 0 1 -7.62-3.07 11.44 11.44 0 0 1 -2.94-8.23v-.77a13.75 13.75 0 0 1 1.31-6.12 10.17 10.17 0 0 1 3.66-4.21 9.17 9.17 0 0 1 5.1-1.52 8.63 8.63 0 0 1 7 3c1.66 2 2.49 4.8 2.49 8.48v1.64h-15.6a8.15 8.15 0 0 0 2 5.5 6.24 6.24 0 0 0 4.84 2.1 6.91 6.91 0 0 0 3.53-.85 8.92 8.92 0 0 0 2.56-2.27l2.4 1.87a9.66 9.66 0 0 1 -8.73 4.45zm-.49-20.65a5.26 5.26 0 0 0 -4 1.74 8.48 8.48 0 0 0 -2 4.86h11.54v-.3a7.45 7.45 0 0 0 -1.62-4.65 4.93 4.93 0 0 0 -3.92-1.65z" fill="#484848"/><path d="m362.13 14.14a13.11 13.11 0 0 0 -1.94-.14 5.19 5.19 0 0 0 -5.26 3.3v16.35h-3.93v-23h3.83l.07 2.66a6.12 6.12 0 0 1 5.49-3.08 4 4 0 0 1 1.75.29z" fill="#484848"/><path d="m374.53 34.07a10.07 10.07 0 0 1 -7.62-3.07 11.44 11.44 0 0 1 -2.91-8.23v-.77a13.89 13.89 0 0 1 1.31-6.12 10.31 10.31 0 0 1 3.66-4.21 9.17 9.17 0 0 1 5.1-1.52 8.64 8.64 0 0 1 7 3c1.66 2 2.49 4.8 2.49 8.48v1.64h-15.65a8.2 8.2 0 0 0 2 5.5 6.26 6.26 0 0 0 4.85 2.1 6.94 6.94 0 0 0 3.53-.85 8.75 8.75 0 0 0 2.53-2.26l2.41 1.87a9.67 9.67 0 0 1 -8.7 4.44zm-.53-20.65a5.24 5.24 0 0 0 -4 1.74 8.41 8.41 0 0 0 -2 4.84h11.54v-.3a7.45 7.45 0 0 0 -1.54-4.63 4.94 4.94 0 0 0 -4-1.65z" fill="#484848"/><path d="m391.58 10.61.13 2.9a8.38 8.38 0 0 1 6.9-3.32q7.31 0 7.37 8.23v15.23h-3.98v-15.25a5.34 5.34 0 0 0 -1.14-3.68 4.56 4.56 0 0 0 -3.48-1.19 5.72 5.72 0 0 0 -3.37 1 6.93 6.93 0 0 0 -2.25 2.68v16.44h-3.94v-23z" fill="#484848"/><path d="m420.69 30.86a5.69 5.69 0 0 0 3.68-1.28 4.53 4.53 0 0 0 1.75-3.19h3.72a7.08 7.08 0 0 1 -1.36 3.76 8.92 8.92 0 0 1 -3.35 2.85 9.68 9.68 0 0 1 -4.44 1.06 9.49 9.49 0 0 1 -7.48-3.14c-1.86-2.09-2.78-5-2.78-8.59v-.66a13.89 13.89 0 0 1 1.23-6 9.47 9.47 0 0 1 3.55-4.07 10.11 10.11 0 0 1 5.46-1.44 9.23 9.23 0 0 1 6.44 2.32 8.25 8.25 0 0 1 2.73 6h-3.72a5.47 5.47 0 0 0 -1.69-3.67 5.27 5.27 0 0 0 -3.76-1.44 5.51 5.51 0 0 0 -4.67 2.21 10.14 10.14 0 0 0 -1.65 6.25v.75a9.92 9.92 0 0 0 1.65 6.13 5.54 5.54 0 0 0 4.69 2.15z" fill="#484848"/><path d="m443.52 34.07a10.07 10.07 0 0 1 -7.63-3.07 11.48 11.48 0 0 1 -2.89-8.23v-.77a13.75 13.75 0 0 1 1.31-6.12 10.17 10.17 0 0 1 3.66-4.21 9.17 9.17 0 0 1 5.1-1.52 8.63 8.63 0 0 1 7 3c1.66 2 2.49 4.8 2.49 8.48v1.64h-15.66a8.15 8.15 0 0 0 2 5.5 6.24 6.24 0 0 0 4.84 2.1 6.91 6.91 0 0 0 3.53-.85 8.92 8.92 0 0 0 2.54-2.26l2.4 1.87a9.66 9.66 0 0 1 -8.69 4.44zm-.52-20.65a5.26 5.26 0 0 0 -4 1.74 8.48 8.48 0 0 0 -2 4.84h11.54v-.3a7.45 7.45 0 0 0 -1.62-4.65 4.93 4.93 0 0 0 -3.92-1.63z" fill="#484848"/><path d="m237.56 74.92a13.55 13.55 0 0 1 1.33-6.09 9.89 9.89 0 0 1 3.71-4.18 10 10 0 0 1 5.4-1.46 9.7 9.7 0 0 1 7.61 3.25 12.52 12.52 0 0 1 2.91 8.67v.27a13.7 13.7 0 0 1 -1.29 6 9.74 9.74 0 0 1 -3.68 4.16 10.23 10.23 0 0 1 -5.5 1.49 9.64 9.64 0 0 1 -7.59-3.26 12.44 12.44 0 0 1 -2.91-8.62zm4 .46a9.84 9.84 0 0 0 1.78 6.16 6 6 0 0 0 9.53 0 10.79 10.79 0 0 0 1.76-6.58 9.85 9.85 0 0 0 -1.8-6.15 5.74 5.74 0 0 0 -4.83-2.39 5.64 5.64 0 0 0 -4.7 2.32 10.71 10.71 0 0 0 -1.78 6.64z" fill="#484848"/><path d="m266.72 63.61.12 2.9a8.38 8.38 0 0 1 6.9-3.32q7.31 0 7.37 8.23v15.23h-3.94v-15.25a5.29 5.29 0 0 0 -1.17-3.68 4.54 4.54 0 0 0 -3.48-1.19 5.66 5.66 0 0 0 -3.36 1 6.87 6.87 0 0 0 -2.26 2.68v16.44h-3.9v-23z" fill="#484848"/><path d="m303.18 58v5.58h4.3v3h-4.3v14.42a3.24 3.24 0 0 0 .58 2.08 2.41 2.41 0 0 0 2 .69 9.6 9.6 0 0 0 1.87-.26v3.18a11.5 11.5 0 0 1 -3 .42 4.88 4.88 0 0 1 -4-1.6 6.8 6.8 0 0 1 -1.34-4.53v-14.32h-4.2v-3h4.2v-5.66z" fill="#484848"/><path d="m315.24 66.4a8.39 8.39 0 0 1 6.81-3.21q7.31 0 7.37 8.23v15.23h-3.94v-15.25a5.24 5.24 0 0 0 -1.14-3.68 4.53 4.53 0 0 0 -3.48-1.19 5.66 5.66 0 0 0 -3.36 1 6.87 6.87 0 0 0 -2.26 2.68v16.44h-3.94v-32.65h3.94z" fill="#484848"/><path d="m344.41 87.07a10.07 10.07 0 0 1 -7.62-3.07 11.44 11.44 0 0 1 -2.94-8.23v-.77a13.89 13.89 0 0 1 1.31-6.12 10.17 10.17 0 0 1 3.66-4.21 9.17 9.17 0 0 1 5.1-1.52 8.63 8.63 0 0 1 7 3c1.66 2 2.49 4.8 2.49 8.48v1.64h-15.6a8.15 8.15 0 0 0 2 5.5 6.24 6.24 0 0 0 4.84 2.1 7 7 0 0 0 3.54-.85 8.88 8.88 0 0 0 2.53-2.26l2.4 1.87a9.66 9.66 0 0 1 -8.71 4.44zm-.49-20.65a5.24 5.24 0 0 0 -4 1.74 8.34 8.34 0 0 0 -2 4.86h11.53v-.3a7.51 7.51 0 0 0 -1.61-4.65 5 5 0 0 0 -3.92-1.65z" fill="#484848"/><path d="m387.18 74h-12.26v12.65h-6.39v-31h20.18v5.17h-13.79v8h12.26z" fill="#484848"/><path d="m404.66 84.3a7.71 7.71 0 0 1 -6.31 2.77 7.27 7.27 0 0 1 -5.65-2.13q-1.95-2.13-2-6.24v-15.09h6.15v14.9c0 2.4 1.1 3.6 3.28 3.6s3.52-.72 4.3-2.17v-16.33h6.18v23h-5.79z" fill="#484848"/><path d="m422.43 58v5.66h3.94v4.51h-3.94v11.5a2.73 2.73 0 0 0 .49 1.83 2.44 2.44 0 0 0 1.87.55 10.83 10.83 0 0 0 1.81-.14v4.66a12.66 12.66 0 0 1 -3.73.55q-6.47 0-6.6-6.53v-12.47h-3.36v-4.51h3.36v-5.61z" fill="#484848"/><path d="m443.09 84.3a7.7 7.7 0 0 1 -6.3 2.77 7.29 7.29 0 0 1 -5.66-2.13q-2-2.13-2-6.24v-15.09h6.16v14.9q0 3.6 3.27 3.6 3.27 0 4.3-2.17v-16.33h6.18v23h-5.79z" fill="#484848"/><path d="m466.4 69.38a17.29 17.29 0 0 0 -2.21-.17q-3.49 0-4.58 2.36v15.08h-6.15v-23h5.81l.17 2.75a5.7 5.7 0 0 1 5.13-3.17 6.65 6.65 0 0 1 1.92.27z" fill="#484848"/><path d="m479.51 87.07a11.27 11.27 0 0 1 -8.25-3.07 11 11 0 0 1 -3.18-8.28v-.59a13.82 13.82 0 0 1 1.34-6.21 9.87 9.87 0 0 1 3.8-4.22 10.72 10.72 0 0 1 5.61-1.47 9.55 9.55 0 0 1 7.44 3q2.72 3 2.71 8.45v2.51h-14.67a5.74 5.74 0 0 0 1.8 3.62 5.43 5.43 0 0 0 3.8 1.36 6.64 6.64 0 0 0 5.56-2.58l3 3.39a9.18 9.18 0 0 1 -3.74 3 12.18 12.18 0 0 1 -5.22 1.09zm-.7-18.92a3.84 3.84 0 0 0 -3 1.24 6.38 6.38 0 0 0 -1.46 3.55h8.56v-.5a4.57 4.57 0 0 0 -1.11-3.17 4 4 0 0 0 -2.99-1.12z" fill="#484848"/><path d="m237.56 127.92a13.55 13.55 0 0 1 1.33-6.09 9.89 9.89 0 0 1 3.71-4.18 10 10 0 0 1 5.41-1.46 9.7 9.7 0 0 1 7.61 3.25 12.52 12.52 0 0 1 2.91 8.67v.27a13.7 13.7 0 0 1 -1.29 6 9.74 9.74 0 0 1 -3.68 4.16 10.23 10.23 0 0 1 -5.5 1.49 9.64 9.64 0 0 1 -7.59-3.26 12.44 12.44 0 0 1 -2.91-8.62zm4 .46a9.84 9.84 0 0 0 1.78 6.16 6 6 0 0 0 9.53 0 10.79 10.79 0 0 0 1.76-6.58 9.85 9.85 0 0 0 -1.8-6.15 5.74 5.74 0 0 0 -4.78-2.35 5.64 5.64 0 0 0 -4.7 2.32 10.71 10.71 0 0 0 -1.83 6.6z" fill="#484848"/><path d="m264.2 139.65v-20h-3.64v-3h3.64v-2.36a7.85 7.85 0 0 1 2-5.73 7.45 7.45 0 0 1 5.59-2 10.46 10.46 0 0 1 2.71.36l-.21 3.17a11.18 11.18 0 0 0 -2.13-.19 3.82 3.82 0 0 0 -3 1.12 4.54 4.54 0 0 0 -1.05 3.22v2.43h4.92v3h-4.92v20z" fill="#484848"/><path d="m306.62 126.17h-12.26v8.34h14.39v5.14h-20.75v-31h20.73v5.17h-14.37v7.39h12.26z" fill="#484848"/><path d="m325.58 137.3a7.7 7.7 0 0 1 -6.3 2.77 7.27 7.27 0 0 1 -5.65-2.13q-2-2.13-2-6.24v-15.09h6.15v14.9q0 3.6 3.28 3.6c2.08 0 3.52-.72 4.3-2.17v-16.33h6.17v23h-5.79z" fill="#484848"/><path d="m348.9 122.38a17.44 17.44 0 0 0 -2.22-.17q-3.49 0-4.57 2.36v15.08h-6.11v-23h5.81l.18 2.75a5.68 5.68 0 0 1 5.13-3.17 6.53 6.53 0 0 1 1.91.27z" fill="#484848"/><path d="m350.54 127.92a13.62 13.62 0 0 1 1.32-6.11 9.7 9.7 0 0 1 3.8-4.16 11.06 11.06 0 0 1 5.76-1.46 10.5 10.5 0 0 1 7.58 2.81 11.43 11.43 0 0 1 3.29 7.75v1.57a12.06 12.06 0 0 1 -3 8.51 11.48 11.48 0 0 1 -15.89 0q-3-3.19-3-8.69zm6.15.43a8.55 8.55 0 0 0 1.24 5 4.43 4.43 0 0 0 7 0q1.26-1.71 1.26-5.49a8.46 8.46 0 0 0 -1.26-5 4.07 4.07 0 0 0 -3.53-1.77 4 4 0 0 0 -3.49 1.75 9.54 9.54 0 0 0 -1.22 5.51z" fill="#484848"/><path d="m396.58 128.34a13.84 13.84 0 0 1 -2.42 8.53 7.76 7.76 0 0 1 -6.52 3.2 7.2 7.2 0 0 1 -5.65-2.43v10.86h-6.15v-31.89h5.71l.21 2.26a7.22 7.22 0 0 1 5.83-2.68 7.79 7.79 0 0 1 6.62 3.15q2.37 3.15 2.37 8.68zm-6.16-.47a9.16 9.16 0 0 0 -1.13-5 3.71 3.71 0 0 0 -3.31-1.75 4 4 0 0 0 -4 2.22v9.46a4.11 4.11 0 0 0 4 2.28c3.02.03 4.44-2.38 4.44-7.21z" fill="#484848"/><path d="m410.61 140.07a11.27 11.27 0 0 1 -8.25-3.11 11 11 0 0 1 -3.18-8.28v-.59a14 14 0 0 1 1.34-6.21 9.87 9.87 0 0 1 3.8-4.22 10.72 10.72 0 0 1 5.61-1.47 9.55 9.55 0 0 1 7.44 3q2.72 3 2.71 8.45v2.51h-14.66a5.68 5.68 0 0 0 1.79 3.62 5.46 5.46 0 0 0 3.81 1.36 6.62 6.62 0 0 0 5.55-2.58l3 3.39a9.18 9.18 0 0 1 -3.74 3.05 12.18 12.18 0 0 1 -5.22 1.08zm-.7-18.92a3.84 3.84 0 0 0 -3 1.24 6.38 6.38 0 0 0 -1.46 3.55h8.55v-.5a4.57 4.57 0 0 0 -1.11-3.17 4 4 0 0 0 -2.98-1.12z" fill="#484848"/></g></svg>