<?xml version="1.0" encoding="UTF-8" standalone="no"?>
<svg
   xmlns:dc="http://purl.org/dc/elements/1.1/"
   xmlns:cc="http://creativecommons.org/ns#"
   xmlns:rdf="http://www.w3.org/1999/02/22-rdf-syntax-ns#"
   xmlns:svg="http://www.w3.org/2000/svg"
   xmlns="http://www.w3.org/2000/svg"
   xmlns:sodipodi="http://sodipodi.sourceforge.net/DTD/sodipodi-0.dtd"
   xmlns:inkscape="http://www.inkscape.org/namespaces/inkscape"
   viewBox="0 0 478.03 318"
   version="1.1"
   id="svg3998"
   sodipodi:docname="logo-europas-framtid.svg"
   width="478.03"
   height="318"
   inkscape:version="0.92.3 (2405546, 2018-03-11)">
  <metadata
     id="metadata4002">
    <rdf:RDF>
      <cc:Work
         rdf:about="">
        <dc:format>image/svg+xml</dc:format>
        <dc:type
           rdf:resource="http://purl.org/dc/dcmitype/StillImage" />
        <dc:title></dc:title>
      </cc:Work>
    </rdf:RDF>
  </metadata>
  <sodipodi:namedview
     pagecolor="#ffffff"
     bordercolor="#666666"
     borderopacity="1"
     objecttolerance="10"
     gridtolerance="10"
     guidetolerance="10"
     inkscape:pageopacity="0"
     inkscape:pageshadow="2"
     inkscape:window-width="1920"
     inkscape:window-height="1080"
     id="namedview4000"
     showgrid="false"
     inkscape:zoom="1.9500333"
     inkscape:cx="238.14082"
     inkscape:cy="111.70371"
     inkscape:window-x="0"
     inkscape:window-y="0"
     inkscape:window-maximized="1"
     inkscape:current-layer="svg3998"
     fit-margin-top="0"
     fit-margin-left="0"
     fit-margin-right="0"
     fit-margin-bottom="0" />
  <defs
     id="defs3915">
    <style
       id="style3913">.cls-1{fill:#164194;stroke:#fff;stroke-miterlimit:10;}.cls-2{fill:#ffed00;}.cls-3{fill:#484848;}</style>
  </defs>
  <g
     id="Layer_1"
     data-name="Layer 1"
     transform="translate(2.0599994,88.748082)">
    <rect
       class="cls-1"
       x="1.4400001"
       y="9"
       width="211.62"
       height="131"
       id="rect3917"
       style="fill:#164194;stroke:#ffffff;stroke-miterlimit:10" />
    <polygon
       class="cls-2"
       points="108.05,23.71 109.84,18.13 111.63,23.71 117.48,23.69 112.73,27.11 114.56,32.67 109.84,29.21 105.11,32.67 106.95,27.11 102.19,23.69 "
       id="polygon3919"
       style="fill:#ffed00" />
    <polygon
       class="cls-2"
       points="108.05,120.23 109.84,114.65 111.63,120.23 117.48,120.2 112.73,123.63 114.56,129.19 109.84,125.72 105.11,129.19 106.95,123.63 102.19,120.2 "
       id="polygon3921"
       style="fill:#ffed00" />
    <polygon
       class="cls-2"
       points="84.05,30.13 85.83,24.55 87.62,30.13 93.48,30.11 88.72,33.53 90.56,39.09 85.83,35.63 81.11,39.09 82.94,33.53 78.19,30.11 "
       id="polygon3923"
       style="fill:#ffed00" />
    <polygon
       class="cls-2"
       points="66.37,47.84 68.16,42.26 69.94,47.84 75.8,47.81 71.05,51.24 72.88,56.8 68.16,53.34 63.43,56.8 65.27,51.24 60.51,47.81 "
       id="polygon3925"
       style="fill:#ffed00" />
    <polygon
       class="cls-2"
       points="59.85,71.91 61.64,66.33 63.43,71.91 69.29,71.88 64.53,75.31 66.37,80.87 61.64,77.41 56.92,80.87 58.75,75.31 54,71.88 "
       id="polygon3927"
       style="fill:#ffed00" />
    <polygon
       class="cls-2"
       points="66.31,95.99 68.09,90.41 69.88,95.99 75.74,95.96 70.98,99.39 72.82,104.95 68.09,101.48 63.37,104.95 65.2,99.39 60.45,95.96 "
       id="polygon3929"
       style="fill:#ffed00" />
    <polygon
       class="cls-2"
       points="84.05,113.69 85.83,108.11 87.62,113.69 93.48,113.67 88.72,117.09 90.56,122.65 85.83,119.19 81.11,122.65 82.94,117.09 78.19,113.67 "
       id="polygon3931"
       style="fill:#ffed00" />
    <polygon
       class="cls-2"
       points="135.65,30.13 133.87,24.55 132.08,30.13 126.22,30.11 130.98,33.53 129.14,39.09 133.87,35.63 138.59,39.09 136.76,33.53 141.51,30.11 "
       id="polygon3933"
       style="fill:#ffed00" />
    <polygon
       class="cls-2"
       points="153.33,47.84 151.54,42.26 149.75,47.84 143.9,47.81 148.65,51.24 146.82,56.8 151.54,53.34 156.27,56.8 154.43,51.24 159.19,47.81 "
       id="polygon3935"
       style="fill:#ffed00" />
    <polygon
       class="cls-2"
       points="159.84,71.91 158.06,66.33 156.27,71.91 150.41,71.88 155.17,75.31 153.33,80.87 158.06,77.41 162.78,80.87 160.95,75.31 165.7,71.88 "
       id="polygon3937"
       style="fill:#ffed00" />
    <polygon
       class="cls-2"
       points="153.39,95.99 151.61,90.41 149.82,95.99 143.96,95.96 148.72,99.39 146.88,104.95 151.61,101.48 156.33,104.95 154.5,99.39 159.25,95.96 "
       id="polygon3939"
       style="fill:#ffed00" />
    <polygon
       class="cls-2"
       points="135.65,113.69 133.87,108.11 132.08,113.69 126.22,113.67 130.98,117.09 129.14,122.65 133.87,119.19 138.59,122.65 136.76,117.09 141.51,113.67 "
       id="polygon3941"
       style="fill:#ffed00" />
    <path
       class="cls-3"
       d="m 248.42,18.73 -3.79,3.94 v 10.48 h -4.09 v -31 h 4.09 V 17.48 L 258.4,2.15 h 4.94 l -12.2,13.69 13.16,17.31 h -4.9 z"
       id="path3943"
       inkscape:connector-curvature="0"
       style="fill:#484848" />
    <path
       class="cls-3"
       d="m 264.78,21.42 a 13.69,13.69 0 0 1 1.33,-6.09 9.86,9.86 0 0 1 3.71,-4.17 10.08,10.08 0 0 1 5.42,-1.47 9.72,9.72 0 0 1 7.61,3.25 12.58,12.58 0 0 1 2.9,8.67 v 0.28 a 13.69,13.69 0 0 1 -1.29,6 9.74,9.74 0 0 1 -3.68,4.16 10.14,10.14 0 0 1 -5.5,1.49 9.7,9.7 0 0 1 -7.59,-3.25 12.49,12.49 0 0 1 -2.91,-8.63 z m 4,0.47 a 9.83,9.83 0 0 0 1.74,6.11 6,6 0 0 0 9.53,0 10.85,10.85 0 0 0 1.76,-6.59 9.8,9.8 0 0 0 -1.8,-6.14 6,6 0 0 0 -9.48,0 10.72,10.72 0 0 0 -1.79,6.62 z"
       id="path3945"
       inkscape:connector-curvature="0"
       style="fill:#484848" />
    <path
       class="cls-3"
       d="m 293.94,10.11 0.13,2.9 A 8.35,8.35 0 0 1 301,9.69 q 7.31,0 7.37,8.24 v 15.22 h -3.94 V 17.9 a 5.26,5.26 0 0 0 -1.14,-3.68 4.57,4.57 0 0 0 -3.52,-1.22 5.66,5.66 0 0 0 -3.36,1 7,7 0 0 0 -2.26,2.68 v 16.47 h -3.94 v -23 z"
       id="path3947"
       inkscape:connector-curvature="0"
       style="fill:#484848" />
    <path
       class="cls-3"
       d="m 315.26,33.15 v -20 h -3.64 v -3.04 h 3.64 V 7.75 a 7.85,7.85 0 0 1 2,-5.73 7.48,7.48 0 0 1 5.6,-2 10.46,10.46 0 0 1 2.71,0.36 l -0.22,3.17 a 11.88,11.88 0 0 0 -2.13,-0.19 3.85,3.85 0 0 0 -2.95,1.12 4.54,4.54 0 0 0 -1.05,3.22 v 2.43 h 4.92 v 3.05 h -4.94 v 20 z"
       id="path3949"
       inkscape:connector-curvature="0"
       style="fill:#484848" />
    <path
       class="cls-3"
       d="m 336.72,33.57 a 10.07,10.07 0 0 1 -7.62,-3.07 11.42,11.42 0 0 1 -2.94,-8.23 v -0.73 a 13.89,13.89 0 0 1 1.31,-6.12 10.24,10.24 0 0 1 3.66,-4.21 9.17,9.17 0 0 1 5.1,-1.52 8.61,8.61 0 0 1 7,3 q 2.49,3 2.49,8.47 V 22.8 H 330.1 a 8.2,8.2 0 0 0 2,5.5 6.26,6.26 0 0 0 4.84,2.1 7,7 0 0 0 3.54,-0.85 8.88,8.88 0 0 0 2.52,-2.3 l 2.41,1.87 a 9.67,9.67 0 0 1 -8.69,4.45 z m -0.49,-20.65 a 5.24,5.24 0 0 0 -4,1.74 8.44,8.44 0 0 0 -2,4.86 h 11.54 v -0.3 a 7.57,7.57 0 0 0 -1.62,-4.65 5,5 0 0 0 -3.92,-1.65 z"
       id="path3951"
       inkscape:connector-curvature="0"
       style="fill:#484848" />
    <path
       class="cls-3"
       d="M 361.18,13.65 A 11.63,11.63 0 0 0 359.25,13.5 5.18,5.18 0 0 0 354,16.8 v 16.35 h -3.94 v -23 h 3.83 l 0.06,2.66 a 6.16,6.16 0 0 1 5.5,-3.08 4.14,4.14 0 0 1 1.74,0.29 z"
       id="path3953"
       inkscape:connector-curvature="0"
       style="fill:#484848" />
    <path
       class="cls-3"
       d="M 373.59,33.57 A 10.07,10.07 0 0 1 366,30.5 11.42,11.42 0 0 1 363,22.27 v -0.73 a 13.89,13.89 0 0 1 1.31,-6.12 10.17,10.17 0 0 1 3.69,-4.21 9.17,9.17 0 0 1 5.1,-1.52 8.61,8.61 0 0 1 7,3 q 2.49,3 2.49,8.47 V 22.8 H 367 a 8.15,8.15 0 0 0 2,5.5 6.24,6.24 0 0 0 4.84,2.1 7,7 0 0 0 3.54,-0.85 8.88,8.88 0 0 0 2.53,-2.26 l 2.4,1.87 a 9.66,9.66 0 0 1 -8.72,4.41 z M 373.1,12.92 a 5.23,5.23 0 0 0 -4,1.74 8.37,8.37 0 0 0 -2,4.86 h 11.53 v -0.3 A 7.51,7.51 0 0 0 377,14.57 5,5 0 0 0 373.1,12.92 Z"
       id="path3955"
       inkscape:connector-curvature="0"
       style="fill:#484848" />
    <path
       class="cls-3"
       d="m 390.64,10.11 0.13,2.9 a 8.38,8.38 0 0 1 6.9,-3.32 q 7.29,0 7.36,8.24 v 15.22 h -3.94 V 17.9 A 5.31,5.31 0 0 0 400,14.22 4.61,4.61 0 0 0 396.47,13 a 5.71,5.71 0 0 0 -3.36,1 7,7 0 0 0 -2.26,2.68 v 16.47 h -3.93 v -23 z"
       id="path3957"
       inkscape:connector-curvature="0"
       style="fill:#484848" />
    <path
       class="cls-3"
       d="m 423.63,27 a 2.9,2.9 0 0 0 -1.2,-2.48 11.45,11.45 0 0 0 -4.19,-1.52 19.73,19.73 0 0 1 -4.75,-1.54 6.66,6.66 0 0 1 -2.6,-2.13 5.08,5.08 0 0 1 -0.84,-2.93 6,6 0 0 1 2.4,-4.79 9.3,9.3 0 0 1 6.12,-2 9.59,9.59 0 0 1 6.35,2 6.41,6.41 0 0 1 2.44,5.17 h -4 a 3.57,3.57 0 0 0 -1.36,-2.69 5.16,5.16 0 0 0 -3.46,-1.17 5.36,5.36 0 0 0 -3.37,0.94 3,3 0 0 0 -1.17,2.45 2.39,2.39 0 0 0 1.13,2.15 13.94,13.94 0 0 0 4.08,1.38 21.51,21.51 0 0 1 4.79,1.58 7,7 0 0 1 2.71,2.2 5.42,5.42 0 0 1 0.88,3.14 5.88,5.88 0 0 1 -2.47,4.95 10.34,10.34 0 0 1 -6.4,1.86 11.49,11.49 0 0 1 -4.9,-1 7.92,7.92 0 0 1 -3.33,-2.73 6.62,6.62 0 0 1 -1.21,-3.8 h 3.94 a 4.08,4.08 0 0 0 1.59,3.14 6.17,6.17 0 0 0 3.91,1.16 6.27,6.27 0 0 0 3.58,-0.91 2.78,2.78 0 0 0 1.33,-2.43 z"
       id="path3959"
       inkscape:connector-curvature="0"
       style="fill:#484848" />
    <path
       class="cls-3"
       d="M 441.53,33.57 A 10.07,10.07 0 0 1 433.91,30.5 11.42,11.42 0 0 1 431,22.27 v -0.73 a 13.89,13.89 0 0 1 1.31,-6.12 10.17,10.17 0 0 1 3.66,-4.21 9.17,9.17 0 0 1 5.03,-1.52 8.61,8.61 0 0 1 7,3 q 2.49,3 2.49,8.47 v 1.64 h -15.6 a 8.2,8.2 0 0 0 2,5.5 6.24,6.24 0 0 0 4.84,2.1 7,7 0 0 0 3.54,-0.85 8.88,8.88 0 0 0 2.53,-2.26 l 2.41,1.87 a 9.67,9.67 0 0 1 -8.68,4.41 z M 441,12.92 a 5.24,5.24 0 0 0 -4,1.74 8.37,8.37 0 0 0 -2,4.86 h 11.54 v -0.3 A 7.57,7.57 0 0 0 445,14.57 5,5 0 0 0 441,12.92 Z"
       id="path3961"
       inkscape:connector-curvature="0"
       style="fill:#484848" />
    <path
       class="cls-3"
       d="m 458.58,10.11 0.13,2.9 a 8.38,8.38 0 0 1 6.9,-3.32 q 7.29,0 7.36,8.24 V 33.15 H 469 V 17.9 a 5.31,5.31 0 0 0 -1.13,-3.68 4.6,4.6 0 0 0 -3.45,-1.22 5.72,5.72 0 0 0 -3.37,1 7,7 0 0 0 -2.26,2.68 v 16.47 h -3.93 v -23 z"
       id="path3963"
       inkscape:connector-curvature="0"
       style="fill:#484848" />
    <path
       class="cls-3"
       d="m 238.88,74.42 a 13.69,13.69 0 0 1 1.33,-6.09 9.86,9.86 0 0 1 3.71,-4.17 10,10 0 0 1 5.41,-1.47 9.73,9.73 0 0 1 7.67,3.25 12.58,12.58 0 0 1 2.9,8.67 v 0.28 a 13.69,13.69 0 0 1 -1.29,6 9.74,9.74 0 0 1 -3.68,4.16 10.14,10.14 0 0 1 -5.5,1.49 9.68,9.68 0 0 1 -7.59,-3.25 12.49,12.49 0 0 1 -2.91,-8.63 z m 4,0.47 a 9.83,9.83 0 0 0 1.74,6.11 6,6 0 0 0 9.53,0 10.85,10.85 0 0 0 1.76,-6.59 9.8,9.8 0 0 0 -1.8,-6.14 6,6 0 0 0 -9.48,0 10.72,10.72 0 0 0 -1.79,6.62 z"
       id="path3965"
       inkscape:connector-curvature="0"
       style="fill:#484848" />
    <path
       class="cls-3"
       d="m 268,63.11 0.1,2.56 a 8.51,8.51 0 0 1 6.84,-3 q 4.83,0 6.58,3.7 a 8.6,8.6 0 0 1 3,-2.68 8.83,8.83 0 0 1 4.35,-1 q 7.58,0 7.71,8 v 15.46 h -3.94 V 71 a 5.32,5.32 0 0 0 -1.13,-3.7 5,5 0 0 0 -3.76,-1.3 5.11,5.11 0 0 0 -5.32,4.83 v 15.32 h -4 v -15.1 q 0,-5 -4.92,-5 a 5.27,5.27 0 0 0 -5.3,3.3 v 16.8 h -3.94 v -23 z"
       id="path3967"
       inkscape:connector-curvature="0"
       style="fill:#484848" />
    <path
       class="cls-3"
       d="M 331.78,72.67 H 319.51 V 81 h 14.4 v 5.13 h -20.78 v -31 h 20.73 v 5.17 h -14.35 v 7.39 h 12.27 z"
       id="path3969"
       inkscape:connector-curvature="0"
       style="fill:#484848" />
    <path
       class="cls-3"
       d="m 350.73,83.81 a 7.73,7.73 0 0 1 -6.3,2.76 7.27,7.27 0 0 1 -5.65,-2.13 q -1.95,-2.11 -2,-6.23 v -15.1 h 6.15 V 78 q 0,3.6 3.28,3.6 3.28,0 4.3,-2.17 V 63.11 h 6.17 v 23 h -5.78 z"
       id="path3971"
       inkscape:connector-curvature="0"
       style="fill:#484848" />
    <path
       class="cls-3"
       d="m 374.05,68.88 a 17.44,17.44 0 0 0 -2.22,-0.17 c -2.32,0 -3.85,0.79 -4.57,2.36 v 15.08 h -6.16 v -23 h 5.82 l 0.17,2.75 a 5.68,5.68 0 0 1 5.13,-3.17 6.53,6.53 0 0 1 1.91,0.27 z"
       id="path3973"
       inkscape:connector-curvature="0"
       style="fill:#484848" />
    <path
       class="cls-3"
       d="m 375.69,74.42 a 13.65,13.65 0 0 1 1.31,-6.11 9.62,9.62 0 0 1 3.8,-4.15 11.07,11.07 0 0 1 5.76,-1.47 10.48,10.48 0 0 1 7.61,2.85 11.43,11.43 0 0 1 3.29,7.75 v 1.57 a 12,12 0 0 1 -3,8.51 11.48,11.48 0 0 1 -15.89,0 c -2,-2.13 -3,-5 -3,-8.69 z m 6.15,0.43 a 8.66,8.66 0 0 0 1.24,5 4.44,4.44 0 0 0 7,0 q 1.26,-1.73 1.26,-5.49 a 8.5,8.5 0 0 0 -1.26,-5 4.07,4.07 0 0 0 -3.53,-1.77 4,4 0 0 0 -3.49,1.76 9.57,9.57 0 0 0 -1.22,5.5 z"
       id="path3975"
       inkscape:connector-curvature="0"
       style="fill:#484848" />
    <path
       class="cls-3"
       d="m 421.73,74.84 a 13.84,13.84 0 0 1 -2.42,8.53 7.75,7.75 0 0 1 -6.52,3.2 7.18,7.18 0 0 1 -5.64,-2.42 V 95 H 401 V 63.11 h 5.71 l 0.21,2.26 a 7.23,7.23 0 0 1 5.84,-2.68 7.82,7.82 0 0 1 6.62,3.15 q 2.36,3.15 2.36,8.68 z m -6.15,-0.47 a 9.09,9.09 0 0 0 -1.14,-5 3.71,3.71 0 0 0 -3.31,-1.75 4,4 0 0 0 -4,2.22 v 9.46 a 4.09,4.09 0 0 0 4,2.28 q 4.45,0.03 4.45,-7.21 z"
       id="path3977"
       inkscape:connector-curvature="0"
       style="fill:#484848" />
    <path
       class="cls-3"
       d="m 438.45,86.15 a 7,7 0 0 1 -0.62,-2.07 7.43,7.43 0 0 1 -5.83,2.49 8.18,8.18 0 0 1 -5.61,-2 6.29,6.29 0 0 1 -2.22,-4.93 6.52,6.52 0 0 1 2.71,-5.63 q 2.72,-2 7.85,-2 h 2.83 v -1.26 a 3.78,3.78 0 0 0 -0.82,-2.55 3.23,3.23 0 0 0 -2.59,-1 3.62,3.62 0 0 0 -2.43,0.75 2.52,2.52 0 0 0 -0.89,2 h -6.13 a 6.18,6.18 0 0 1 1.23,-3.7 8.14,8.14 0 0 1 3.49,-2.67 12.7,12.7 0 0 1 5.07,-1 10,10 0 0 1 6.76,2.14 7.46,7.46 0 0 1 2.5,6 v 10 a 11.07,11.07 0 0 0 0.92,5 v 0.36 z m -5.09,-4.28 a 5.27,5.27 0 0 0 2.52,-0.61 4,4 0 0 0 1.7,-1.63 v -4 h -2.3 q -4.62,0 -4.92,3.2 v 0.36 a 2.45,2.45 0 0 0 0.81,1.89 3.13,3.13 0 0 0 2.19,0.79 z"
       id="path3979"
       inkscape:connector-curvature="0"
       style="fill:#484848" />
    <path
       class="cls-3"
       d="M 460.44,79.78 A 2,2 0 0 0 459.32,78 12.72,12.72 0 0 0 455.74,76.84 q -8.22,-1.73 -8.22,-7 a 6.35,6.35 0 0 1 2.54,-5.12 10.26,10.26 0 0 1 6.65,-2 11.08,11.08 0 0 1 7,2.06 6.53,6.53 0 0 1 2.63,5.37 h -6.15 a 3,3 0 0 0 -0.86,-2.19 3.6,3.6 0 0 0 -2.66,-0.86 3.71,3.71 0 0 0 -2.4,0.7 2.22,2.22 0 0 0 -0.85,1.79 1.9,1.9 0 0 0 1,1.65 10.11,10.11 0 0 0 3.27,1.09 26.65,26.65 0 0 1 3.88,1 q 4.88,1.78 4.87,6.2 a 6,6 0 0 1 -2.7,5.09 11.65,11.65 0 0 1 -7,1.95 12.21,12.21 0 0 1 -5.15,-1 8.66,8.66 0 0 1 -3.52,-2.83 6.61,6.61 0 0 1 -1.28,-3.89 h 5.84 a 3.21,3.21 0 0 0 1.21,2.52 4.82,4.82 0 0 0 3,0.87 4.42,4.42 0 0 0 2.67,-0.67 2.08,2.08 0 0 0 0.93,-1.79 z"
       id="path3981"
       inkscape:connector-curvature="0"
       style="fill:#484848" />
    <path
       class="cls-3"
       d="m 241,139.15 v -18.52 h -3.43 v -4.52 H 241 v -2 a 8,8 0 0 1 2.22,-6 8.62,8.62 0 0 1 6.23,-2.14 14.55,14.55 0 0 1 3.13,0.42 l -0.06,4.73 a 7.78,7.78 0 0 0 -1.88,-0.19 q -3.47,0 -3.47,3.29 v 1.86 h 4.58 v 4.52 h -4.58 v 18.52 z"
       id="path3983"
       inkscape:connector-curvature="0"
       style="fill:#484848" />
    <path
       class="cls-3"
       d="m 267.3,121.88 a 17.44,17.44 0 0 0 -2.22,-0.17 q -3.49,0 -4.57,2.36 v 15.08 h -6.16 v -23 h 5.82 l 0.16,2.75 a 5.7,5.7 0 0 1 5.14,-3.17 6.53,6.53 0 0 1 1.91,0.27 z"
       id="path3985"
       inkscape:connector-curvature="0"
       style="fill:#484848" />
    <path
       class="cls-3"
       d="m 283.36,139.15 a 6.75,6.75 0 0 1 -0.62,-2.07 7.45,7.45 0 0 1 -5.81,2.49 8.15,8.15 0 0 1 -5.61,-2 6.27,6.27 0 0 1 -2.23,-4.93 6.52,6.52 0 0 1 2.72,-5.63 q 2.71,-2 7.84,-2 h 2.83 v -1.33 a 3.78,3.78 0 0 0 -0.82,-2.55 3.21,3.21 0 0 0 -2.58,-1 3.65,3.65 0 0 0 -2.44,0.75 2.52,2.52 0 0 0 -0.88,2 h -6.16 a 6.13,6.13 0 0 1 1.24,-3.7 8.08,8.08 0 0 1 3.49,-2.67 12.63,12.63 0 0 1 5.07,-1 10.06,10.06 0 0 1 6.76,2.14 7.49,7.49 0 0 1 2.5,6 v 10 a 11.09,11.09 0 0 0 0.91,5 v 0.36 z m -5.09,-4.28 a 5.23,5.23 0 0 0 2.51,-0.61 4,4 0 0 0 1.7,-1.63 v -4 h -2.3 q -4.62,0 -4.91,3.2 v 0.36 a 2.44,2.44 0 0 0 0.8,1.89 3.14,3.14 0 0 0 2.2,0.79 z"
       id="path3987"
       inkscape:connector-curvature="0"
       style="fill:#484848" />
    <path
       class="cls-3"
       d="m 298.83,116.11 0.19,2.58 a 8.09,8.09 0 0 1 6.62,-3 q 4.44,0 6.11,3.51 a 7.91,7.91 0 0 1 6.92,-3.51 c 2.5,0 4.35,0.72 5.58,2.18 1.23,1.46 1.83,3.64 1.83,6.57 v 14.71 h -6.18 v -14.73 a 4.44,4.44 0 0 0 -0.76,-2.87 3.44,3.44 0 0 0 -2.71,-0.9 3.84,3.84 0 0 0 -3.83,2.64 v 15.86 h -6.15 v -14.7 a 4.35,4.35 0 0 0 -0.79,-2.91 3.44,3.44 0 0 0 -2.68,-0.89 4,4 0 0 0 -3.79,2.17 v 16.33 h -6.15 v -23 z"
       id="path3989"
       inkscape:connector-curvature="0"
       style="fill:#484848" />
    <path
       class="cls-3"
       d="m 337.76,110.45 v 5.66 h 3.94 v 4.52 h -3.94 v 11.49 a 2.73,2.73 0 0 0 0.49,1.83 2.47,2.47 0 0 0 1.88,0.56 9.61,9.61 0 0 0 1.8,-0.15 V 139 a 12.55,12.55 0 0 1 -3.72,0.55 q -6.48,0 -6.6,-6.53 v -12.39 h -3.36 v -4.52 h 3.36 v -5.66 z"
       id="path3991"
       inkscape:connector-curvature="0"
       style="fill:#484848" />
    <path
       class="cls-3"
       d="m 344.51,110.15 a 3,3 0 0 1 0.93,-2.28 4,4 0 0 1 5,0 3.27,3.27 0 0 1 0,4.58 4,4 0 0 1 -5,0 3,3 0 0 1 -0.93,-2.3 z m 6.54,29 h -6.17 v -23 h 6.17 z"
       id="path3993"
       inkscape:connector-curvature="0"
       style="fill:#484848" />
    <path
       class="cls-3"
       d="m 354.65,127.46 c 0,-3.59 0.8,-6.45 2.42,-8.58 a 7.83,7.83 0 0 1 6.61,-3.19 7,7 0 0 1 5.55,2.51 v -11.75 h 6.18 v 32.7 h -5.56 l -0.3,-2.45 a 7.22,7.22 0 0 1 -5.92,2.87 7.82,7.82 0 0 1 -6.52,-3.2 q -2.46,-3.21 -2.46,-8.91 z m 6.15,0.44 a 9.16,9.16 0 0 0 1.13,5 3.65,3.65 0 0 0 3.28,1.73 4.11,4.11 0 0 0 4,-2.41 v -9.14 a 4,4 0 0 0 -4,-2.41 c -2.93,-0.02 -4.41,2.39 -4.41,7.23 z"
       id="path3995"
       inkscape:connector-curvature="0"
       style="fill:#484848" />
  </g>
</svg>
