<?xml version="1.0" encoding="UTF-8" standalone="no"?>
<svg
   xmlns:dc="http://purl.org/dc/elements/1.1/"
   xmlns:cc="http://creativecommons.org/ns#"
   xmlns:rdf="http://www.w3.org/1999/02/22-rdf-syntax-ns#"
   xmlns:svg="http://www.w3.org/2000/svg"
   xmlns="http://www.w3.org/2000/svg"
   xmlns:sodipodi="http://sodipodi.sourceforge.net/DTD/sodipodi-0.dtd"
   xmlns:inkscape="http://www.inkscape.org/namespaces/inkscape"
   class="Logo"
   viewBox="0 0 229.5 153"
   version="1.1"
   id="svg10"
   sodipodi:docname="logo-hyresgastforeningen.svg"
   width="255"
   height="170"
   style="fill:none"
   inkscape:version="0.92.3 (2405546, 2018-03-11)">
  <metadata
     id="metadata16">
    <rdf:RDF>
      <cc:Work
         rdf:about="">
        <dc:format>image/svg+xml</dc:format>
        <dc:type
           rdf:resource="http://purl.org/dc/dcmitype/StillImage" />
        <dc:title></dc:title>
      </cc:Work>
    </rdf:RDF>
  </metadata>
  <defs
     id="defs14" />
  <sodipodi:namedview
     pagecolor="#ffffff"
     bordercolor="#666666"
     borderopacity="1"
     objecttolerance="10"
     gridtolerance="10"
     guidetolerance="10"
     inkscape:pageopacity="0"
     inkscape:pageshadow="2"
     inkscape:window-width="1435"
     inkscape:window-height="726"
     id="namedview12"
     showgrid="false"
     inkscape:zoom="2.027027"
     inkscape:cx="22.693332"
     inkscape:cy="54.466667"
     inkscape:window-x="0"
     inkscape:window-y="0"
     inkscape:window-maximized="0"
     inkscape:current-layer="svg10"
     scale-x="0.9" />
  <g
     id="g827"
     transform="translate(4.039,-68.5)">
    <path
       style="fill:#ff4d56"
       inkscape:connector-curvature="0"
       id="path2"
       d="m 17.2,139.564 a 12.738,12.738 0 0 0 -3.577,-0.481 c -1.252,0 -2.34,0.137 -3.578,0.481 v 13.142 c 0,-1.926 1.514,-3.578 3.578,-3.578 a 3.562,3.562 0 0 1 3.578,3.578 V 160 h 10.046 v -7.294 c 0,-6.192 -3.854,-11.284 -10.046,-13.142 z" />
    <path
       style="fill:#ff0037"
       inkscape:connector-curvature="0"
       id="path4"
       d="M 10.046,130 H 0 v 30 h 10.046 z" />
    <path
       style="fill:#f97d7d"
       inkscape:connector-curvature="0"
       id="path6"
       d="m 17.201,130 v 9.564 c 6.193,1.858 10.046,6.95 10.046,13.142 V 130 Z" />
    <path
       style="fill:currentColor"
       inkscape:connector-curvature="0"
       id="path8"
       d="m 111.881,150.973 c 1.087,1.21 2.532,1.871 4.184,1.871 2.27,0 3.949,-1.252 3.949,-3.138 0,-1.706 -1.362,-2.518 -2.738,-2.876 l -2.175,-0.578 c -0.605,-0.165 -1.128,-0.536 -1.128,-1.1 0,-0.702 0.784,-1.267 1.858,-1.267 0.963,0 1.816,0.468 2.449,1.17 l 1.445,-0.99 c -0.949,-1.102 -2.298,-1.886 -3.881,-1.886 -2.188,0 -3.688,1.486 -3.688,3.137 0,1.39 1.046,2.395 2.422,2.739 l 1.968,0.51 c 1.101,0.274 1.624,0.563 1.624,1.21 0,0.84 -0.839,1.39 -2.133,1.39 -1.142,0 -2.037,-0.427 -2.697,-1.17 l -1.459,0.977 z m -33.84,0 c 1.088,1.21 2.533,1.871 4.184,1.871 2.27,0 3.95,-1.252 3.95,-3.138 0,-1.706 -1.363,-2.518 -2.739,-2.876 l -2.174,-0.578 c -0.606,-0.165 -1.129,-0.536 -1.129,-1.1 0,-0.702 0.785,-1.267 1.858,-1.267 0.963,0 1.817,0.468 2.45,1.17 l 1.445,-0.99 c -0.95,-1.102 -2.298,-1.886 -3.881,-1.886 -2.188,0 -3.688,1.486 -3.688,3.137 0,1.39 1.046,2.395 2.422,2.739 l 1.968,0.51 c 1.1,0.274 1.624,0.563 1.624,1.21 0,0.84 -0.84,1.39 -2.133,1.39 -1.143,0 -2.037,-0.427 -2.698,-1.17 l -1.458,0.977 z m -31.665,1.596 h 2.05 v -14.106 h -2.05 v 5.918 h -7.17 v -5.918 h -2.05 v 14.107 h 2.05 v -6.262 h 7.17 v 6.262 z m 89.711,-12.785 c 0,0.688 0.51,1.225 1.211,1.225 0.689,0 1.184,-0.537 1.184,-1.225 0,-0.66 -0.509,-1.21 -1.184,-1.21 -0.701,0 -1.211,0.55 -1.211,1.21 z m -30.798,0 c 0,0.688 0.537,1.225 1.211,1.225 0.661,0 1.225,-0.537 1.225,-1.225 0,-0.66 -0.564,-1.21 -1.225,-1.21 -0.66,0 -1.211,0.55 -1.211,1.21 z m 34.982,0 c 0,0.688 0.564,1.225 1.225,1.225 0.66,0 1.211,-0.537 1.211,-1.225 0,-0.66 -0.523,-1.21 -1.211,-1.21 -0.675,0 -1.225,0.55 -1.225,1.21 z m -39.206,0 a 1.21,1.21 0 0 0 1.224,1.225 c 0.661,0 1.211,-0.537 1.211,-1.225 0,-0.66 -0.536,-1.21 -1.211,-1.21 -0.674,0 -1.224,0.55 -1.224,1.21 z m 73.169,0.028 a 1.2525,1.2525 0 1 0 2.505,0 1.24,1.24 0 0 0 -1.252,-1.252 1.24,1.24 0 0 0 -1.253,1.252 z m -17.298,4.1 c 1.349,0 2.601,0.785 3.096,2.533 h -6.165 c 0.523,-1.748 1.734,-2.532 3.069,-2.532 z m -84.908,0 c 1.348,0 2.6,0.785 3.096,2.533 H 68.96 c 0.523,-1.748 1.734,-2.532 3.069,-2.532 z m 133.61,0 c 1.349,0 2.601,0.785 3.096,2.533 h -6.165 c 0.537,-1.748 1.748,-2.532 3.069,-2.532 z m -29.243,-1.472 h -1.844 v 10.13 h 1.844 z m -24.688,-0.192 a 6.613,6.613 0 0 0 -0.95,-0.083 c -1.059,0 -1.871,0.44 -2.738,1.225 v -1.225 h -1.858 v 10.405 h 1.858 v -5.615 c 0,-1.569 1.307,-2.862 2.779,-2.862 0.262,0 0.565,0 0.909,0.096 v -1.94 z m -84.991,0 a 6.593,6.593 0 0 0 -0.95,-0.083 c -1.073,0 -1.871,0.44 -2.738,1.225 v -1.225 H 61.17 v 10.405 h 1.858 v -5.615 c 0,-1.569 1.307,-2.862 2.78,-2.862 0.261,0 0.564,0 0.908,0.096 v -1.94 z m 127.307,1.665 c 1.913,0 3.399,1.665 3.399,3.578 0,1.926 -1.527,3.316 -3.399,3.316 -1.871,0 -3.316,-1.39 -3.316,-3.316 0,-1.886 1.403,-3.578 3.316,-3.578 z m -101.628,0 c 1.913,0 3.399,1.665 3.399,3.578 0,1.926 -1.528,3.316 -3.4,3.316 -1.87,0 -3.316,-1.39 -3.316,-3.316 -0.014,-1.886 1.404,-3.578 3.317,-3.578 z m 46.981,7.183 c -1.995,0 -3.495,-1.596 -3.495,-3.605 0,-1.996 1.514,-3.578 3.495,-3.578 2.01,0 3.523,1.61 3.523,3.578 0,1.995 -1.513,3.605 -3.523,3.605 z m -35.009,0 c -2.009,0 -3.523,-1.61 -3.523,-3.605 0,-1.968 1.514,-3.578 3.523,-3.578 1.996,0 3.523,1.596 3.523,3.578 0,2.023 -1.527,3.605 -3.523,3.605 z m 112.431,-7.142 c 1.487,0 2.794,1.17 2.794,3 v 5.615 h 1.83 v -5.863 c 0,-2.477 -2.091,-4.555 -4.61,-4.555 -1.032,0 -2.009,0.344 -2.876,1.046 v -1.046 h -1.858 v 10.419 h 1.858 v -5.74 c 0,-1.568 1.294,-2.876 2.862,-2.876 z m -33.908,0 c 1.486,0 2.794,1.17 2.794,3 v 5.615 h 1.83 v -5.863 c 0,-2.477 -2.092,-4.555 -4.61,-4.555 -1.032,0 -2.009,0.344 -2.876,1.046 v -1.046 h -1.858 v 10.419 h 1.858 v -5.74 c 0.014,-1.568 1.293,-2.876 2.862,-2.876 z m -14.793,0 c 1.486,0 2.793,1.17 2.793,3 v 5.615 h 1.83 v -5.863 c 0,-2.477 -2.091,-4.555 -4.61,-4.555 -1.032,0 -2.009,0.344 -2.876,1.046 v -1.046 h -1.858 v 10.419 h 1.858 v -5.74 c 0.014,-1.568 1.294,-2.876 2.863,-2.876 z m -113.326,7.142 c -1.486,0 -2.752,-1.142 -2.752,-2.972 v -5.684 h -1.872 v 5.835 c 0,2.519 2.147,4.569 4.624,4.569 1.1,0 2.05,-0.399 2.862,-1.046 v 0.44 c 0,1.83 -1.39,3.276 -3.302,3.276 -1.129,0 -2.216,-0.482 -3.014,-1.486 l -1.445,1.1 c 1.17,1.294 2.78,2.134 4.527,2.134 2.877,0 5.092,-2.257 5.092,-5.23 v -9.592 h -1.858 v 5.794 c -0.013,1.582 -1.293,2.862 -2.862,2.862 z m 155.945,-3.646 c 0,-2.904 -2.271,-5.299 -5.078,-5.299 -2.794,0 -5.051,2.381 -5.051,5.395 0,2.945 2.161,5.298 5.381,5.298 1.913,0 3.248,-0.84 4.252,-1.968 l -1.389,-1.1 c -0.688,0.742 -1.666,1.334 -2.973,1.334 -1.968,0 -3.082,-1.293 -3.358,-2.959 h 8.188 c 0,-0.234 0.028,-0.413 0.028,-0.701 z m -48.716,0 c 0,-2.904 -2.27,-5.299 -5.078,-5.299 -2.793,0 -5.05,2.381 -5.05,5.395 0,2.945 2.16,5.298 5.381,5.298 1.912,0 3.234,-0.84 4.252,-1.968 l -1.39,-1.1 c -0.688,0.742 -1.665,1.334 -2.972,1.334 -1.968,0 -3.083,-1.293 -3.358,-2.959 h 8.188 c 0.014,-0.234 0.027,-0.413 0.027,-0.701 z m -84.908,0 c 0,-2.904 -2.27,-5.299 -5.078,-5.299 -2.793,0 -5.05,2.381 -5.05,5.395 0,2.945 2.16,5.298 5.38,5.298 1.913,0 3.248,-0.84 4.253,-1.968 l -1.39,-1.1 c -0.688,0.742 -1.665,1.334 -2.973,1.334 -1.968,0 -3.082,-1.293 -3.358,-2.959 h 8.188 c 0.014,-0.234 0.028,-0.413 0.028,-0.701 z m 47.023,-3.234 h 5.009 v 8.353 h 1.858 v -8.353 h 2.917 v -1.776 h -2.917 c 0.151,-1.706 1.266,-2.408 2.917,-2.45 v -1.815 c -2.642,0.083 -4.513,1.707 -4.775,4.266 h -5.009 v -2.451 h -1.872 v 2.45 h -1.816 v 1.776 h 1.816 v 4.046 c 0,2.697 1.955,4.32 4.748,4.39 v -1.79 c -1.775,-0.055 -2.876,-1.045 -2.876,-2.793 z m 9.908,3.302 a 5.313,5.313 0 0 0 5.353,5.34 c 2.973,0 5.381,-2.353 5.381,-5.34 0,-2.972 -2.394,-5.353 -5.381,-5.353 a 5.316,5.316 0 0 0 -5.353,5.353 z m -35.023,0 c 0,2.973 2.436,5.34 5.381,5.34 1.473,0 2.752,-0.578 3.784,-1.528 0.523,0.922 1.404,1.432 2.959,1.445 v -1.789 c -0.963,-0.041 -1.362,-0.481 -1.362,-1.17 v -7.65 h -1.872 v 1.32 c -1.073,-0.784 -2.257,-1.335 -3.605,-1.335 -2.835,0.014 -5.285,2.381 -5.285,5.367 z m 89.849,-0.069 c 0,2.877 2.312,5.12 5.147,5.12 1.252,0 2.38,-0.427 3.426,-1.266 v 0.922 c 0,1.83 -1.431,3.316 -3.344,3.316 -1.128,0 -2.215,-0.509 -3,-1.514 l -1.472,1.101 c 1.183,1.308 2.78,2.134 4.555,2.134 2.917,0 5.092,-2.271 5.092,-5.23 v -9.867 h -1.831 v 1.252 c -1.032,-0.784 -2.188,-1.252 -3.426,-1.252 -2.821,0 -5.147,2.408 -5.147,5.285 z m -101.628,0 c 0,2.877 2.311,5.12 5.146,5.12 1.253,0 2.381,-0.427 3.427,-1.266 v 0.922 c 0,1.83 -1.431,3.316 -3.344,3.316 -1.129,0 -2.216,-0.509 -3,-1.514 l -1.473,1.101 c 1.184,1.308 2.78,2.134 4.555,2.134 2.918,0 5.092,-2.271 5.092,-5.23 v -9.867 h -1.83 v 1.252 c -1.032,-0.784 -2.188,-1.252 -3.427,-1.252 -2.835,0 -5.147,2.408 -5.147,5.285 z"
       class="Logo__text" />
  </g>
</svg>
