<?xml version="1.0" encoding="UTF-8" standalone="no"?>
<svg
   xmlns:dc="http://purl.org/dc/elements/1.1/"
   xmlns:cc="http://creativecommons.org/ns#"
   xmlns:rdf="http://www.w3.org/1999/02/22-rdf-syntax-ns#"
   xmlns:svg="http://www.w3.org/2000/svg"
   xmlns="http://www.w3.org/2000/svg"
   xmlns:sodipodi="http://sodipodi.sourceforge.net/DTD/sodipodi-0.dtd"
   xmlns:inkscape="http://www.inkscape.org/namespaces/inkscape"
   viewBox="0 0 229.5 153"
   version="1.1"
   id="svg5837"
   sodipodi:docname="logo-bostadsbolaget.svg"
   width="255"
   height="170"
   style="color:#003dac"
   inkscape:version="0.92.3 (2405546, 2018-03-11)">
  <metadata
     id="metadata5843">
    <rdf:RDF>
      <cc:Work
         rdf:about="">
        <dc:format>image/svg+xml</dc:format>
        <dc:type
           rdf:resource="http://purl.org/dc/dcmitype/StillImage" />
        <dc:title>Logo</dc:title>
      </cc:Work>
    </rdf:RDF>
  </metadata>
  <defs
     id="defs5841" />
  <sodipodi:namedview
     pagecolor="#ffffff"
     bordercolor="#666666"
     borderopacity="1"
     objecttolerance="10"
     gridtolerance="10"
     guidetolerance="10"
     inkscape:pageopacity="0"
     inkscape:pageshadow="2"
     inkscape:window-width="1488"
     inkscape:window-height="703"
     id="namedview5839"
     showgrid="false"
     inkscape:zoom="2.0452686"
     inkscape:cx="233.15381"
     inkscape:cy="39.014999"
     inkscape:window-x="0"
     inkscape:window-y="0"
     inkscape:window-maximized="0"
     inkscape:current-layer="svg5837" />
  <style
     id="style5831">
    svg {
      color: #003dac;
    }
    path {
      fill: currentColor;
    }  
  </style>
  <title
     id="title5833">Logo</title>
  <path
     d="m 46.880001,71.492964 -0.37,-2.17 c 0.39,0.07 0.09,0.37 0.35,0.42 0.08,0 0.22,0 0.21,0.16 -0.01,0.16 -0.27,0.39 -0.13,0.56 0.14,0.17 0.51,0.55 0.89,0.39 a 1.4,1.4 0 0 0 0.52,-0.63 c 0.06,-0.22 -0.17,-0.29 -0.31,-0.29 -0.14,0 -0.23,0 -0.36,-0.22 0,0 -0.08,-0.12 -0.06,-0.17 0.02,-0.05 0.24,0 0.35,0 0.11,0 0.34,0.16 0.34,-0.07 0,-0.23 -0.16,-0.05 -0.11,-0.17 0.05,-0.12 0.16,-0.3 0.28,-0.27 0.12,0.03 0.28,0.27 0.28,0.27 a 0.24,0.24 0 0 0 -0.11,0.17 c 0,0.1 0.23,0.11 0.34,0.07 0.11,-0.04 0.32,-0.06 0.35,0 a 0.13,0.13 0 0 1 -0.06,0.17 c -0.13,0.24 -0.21,0.22 -0.36,0.22 -0.15,0 -0.38,0.07 -0.31,0.29 a 1.34,1.34 0 0 0 0.52,0.63 c 0.38,0.16 0.68,-0.15 0.89,-0.39 0.21,-0.24 -0.13,-0.42 -0.13,-0.56 0,-0.14 0.13,-0.14 0.21,-0.16 0.26,0 -0.05,-0.35 0.35,-0.42 l -0.33,2.17 z m 8.36,0 0.39,-2.17 c -0.35,0.07 -0.09,0.37 -0.35,0.42 -0.08,0 -0.22,0 -0.21,0.16 0.01,0.16 0.34,0.32 0.13,0.56 -0.21,0.24 -0.51,0.55 -0.89,0.39 a 1.4,1.4 0 0 1 -0.52,-0.63 c -0.06,-0.22 0.16,-0.29 0.31,-0.29 0.15,0 0.23,0 0.36,-0.22 a 0.14,0.14 0 0 0 0.06,-0.17 c 0,-0.06 -0.24,0 -0.35,0 -0.11,0 -0.34,0 -0.34,-0.07 a 0.24,0.24 0 0 1 0.11,-0.17 c 0,0 -0.16,-0.27 -0.28,-0.27 -0.12,0 -0.23,0.15 -0.28,0.27 -0.05,0.12 0.11,-0.06 0.11,0.17 0,0.23 -0.23,0.07 -0.34,0.07 -0.11,0 -0.27,0 -0.34,0 -0.07,0 0,0.17 0,0.17 0.13,0.22 0.22,0.22 0.36,0.22 0.14,0 0.38,0.07 0.31,0.29 a 1.34,1.34 0 0 1 -0.52,0.63 c -0.38,0.16 -0.75,-0.22 -0.89,-0.39 -0.14,-0.17 0.12,-0.4 0.13,-0.56 0.01,-0.16 -0.13,-0.16 -0.21,-0.16 -0.26,0 0,-0.35 -0.35,-0.42 l 0.37,2.17 z m -4.74,1.76 c -0.11,0 -0.33,-0.06 -0.35,0 -0.02,0.06 0.06,0.17 0.06,0.17 0.13,0.23 0.22,0.23 0.36,0.23 0.14,0 0.38,0.06 0.31,0.28 a 1.28,1.28 0 0 1 -0.52,0.63 c -0.38,0.17 -0.75,-0.23 -0.89,-0.39 -0.14,-0.16 0.12,-0.43 0.13,-0.55 0.01,-0.12 -0.13,-0.17 -0.21,-0.17 -0.26,-0.05 0,-0.35 -0.35,-0.42 l 0.37,2.2 h 3.24 l 0.33,-2.2 c -0.35,0.07 -0.09,0.42 -0.35,0.42 -0.08,0 -0.22,0 -0.21,0.17 0.01,0.17 0.34,0.3 0.13,0.55 -0.21,0.25 -0.51,0.56 -0.89,0.39 a 1.34,1.34 0 0 1 -0.52,-0.63 c -0.06,-0.22 0.16,-0.27 0.31,-0.28 0.15,-0.01 0.23,0 0.36,-0.23 a 0.13,0.13 0 0 0 0.06,-0.17 c 0,-0.06 -0.24,0 -0.35,0 -0.11,0 -0.34,0 -0.34,-0.07 0,-0.07 0.11,-0.16 0.11,-0.16 0,0 -0.16,-0.28 -0.28,-0.28 -0.12,0 -0.23,0.12 -0.28,0.28 -0.05,0.16 0.11,-0.07 0.11,0.16 0,0.23 -0.23,0.12 -0.34,0.07 z m -20.62,-26.819999 a 1.43,1.43 0 0 0 0.87,-1.77 1.37,1.37 0 0 0 -1.68,-1 h -0.15 a 1.4216979,1.4216979 0 0 0 0.95,2.68 z m 20.29,20.339999 c 0.07,-0.63 -0.74,-0.38 -0.93,-0.12 -0.19,0.26 0.07,0.59 0.16,0.85 0.21,-0.25 0.67,-0.39 0.77,-0.73 z m -15.17,-23.279999 a 0.52,0.52 0 0 0 0.57,-0.59 c 0,-0.39 -0.28,-0.5 -0.71,-0.46 l -0.59,0.05 0.12,1 z m 17.64,24.359999 -0.25,-0.22 a 2.14,2.14 0 0 0 -0.28,0.39 1.23,1.23 0 0 0 0.53,-0.17 z m -7.46,2.54 a 4,4 0 0 1 0.77,-3.56 2,2 0 0 1 2.22,-0.43 c 0.14,0.08 0.1,0.32 0,0.43 a 0.47,0.47 0 0 1 -0.34,0.22 c -0.3,0.09 -0.39,-0.5 -0.46,-0.34 a 1.6,1.6 0 0 0 0.66,1.17 1.12,1.12 0 0 0 1.25,-0.14 c 0.43,0.12 0.84,0.31 1.29,0.39 0,-0.75 -0.17,-1.69 0.45,-2.24 0.22,0.19 0.2,0.53 0.2,0.85 l -0.2,1.33 c 0.4,-0.19 0.73,-0.59 1.17,-0.59 -0.13,0.28 -0.44,0.5 -0.46,0.83 a 2.92,2.92 0 0 0 0.83,-0.12 v 0.17 a 4.3,4.3 0 0 0 2.46,-0.54 1,1 0 0 0 0.43,-0.46 0.72,0.72 0 0 0 -0.1,-0.59 c -0.2,0.07 -0.05,0.42 -0.45,0.42 a 0.56,0.56 0 0 1 -0.55,-0.26 0.41,0.41 0 0 1 0.21,-0.51 1.59,1.59 0 0 1 1.68,0.37 c 1.18,1.45 0.82,3.49 0.2,5.08 a 16.68,16.68 0 0 1 -5.32,6.45 c -2.62,-2.12 -5.15,-4.77 -5.94,-7.93 z m 6.2,-1.32 c 0.16,0.88 0.26,1.75 0.45,2.61 h 3.57 c 0.19,-0.86 0.29,-1.73 0.44,-2.61 0,-0.16 -0.25,-0.08 -0.36,0 v 0 c -0.41,0.15 -0.22,0.43 -0.37,0.47 -0.41,0.1 -0.29,0.47 -0.13,0.7 0.16,0.23 -0.19,0.28 -0.32,0.36 -0.13,0.08 -0.49,-0.09 -0.64,-0.35 -0.15,-0.26 0.3,-0.08 0.41,-0.18 0.11,-0.1 0.32,-0.58 0.32,-0.65 a 0.51,0.51 0 0 0 -0.54,-0.12 0.71,0.71 0 0 0 -0.49,-0.52 h -0.09 c -0.22,0 -0.46,0.36 -0.5,0.52 -0.21,0 -0.44,0 -0.53,0.12 -0.09,0.12 0.08,0.46 0.25,0.65 0.17,0.19 0.54,0 0.42,0.18 -0.12,0.18 -0.42,0.51 -0.65,0.35 -0.23,-0.16 -0.33,-0.28 -0.33,-0.36 0,-0.08 0.28,-0.6 -0.12,-0.7 -0.16,0 0,-0.32 -0.38,-0.47 -0.16,0 -0.44,-0.12 -0.41,0 z m -0.39,3.42 c -0.22,0 -0.46,0.36 -0.5,0.53 -0.21,0 -0.44,0 -0.53,0.11 -0.09,0.11 0.08,0.46 0.25,0.65 0.17,0.19 0.54,0 0.42,0.19 -0.12,0.19 -0.42,0.5 -0.65,0.35 -0.23,-0.15 -0.39,-0.27 -0.32,-0.37 0.07,-0.1 0.28,-0.6 -0.12,-0.7 -0.16,0 0,-0.31 -0.38,-0.46 -0.11,0 -0.39,-0.12 -0.36,0 0.16,0.88 0.26,1.76 0.45,2.61 h 3.57 c 0.19,-0.85 0.28,-1.73 0.44,-2.61 0,-0.15 -0.25,-0.07 -0.36,0 -0.41,0.15 -0.22,0.42 -0.37,0.46 -0.41,0.1 -0.29,0.47 -0.13,0.7 0.16,0.23 -0.19,0.28 -0.32,0.37 -0.13,0.09 -0.49,-0.1 -0.64,-0.35 -0.15,-0.25 0.3,-0.09 0.41,-0.19 0.11,-0.1 0.33,-0.56 0.25,-0.65 a 0.62,0.62 0 0 0 -0.53,-0.11 0.73,0.73 0 0 0 -0.49,-0.53 z m -4.72,-3.4 c 0.16,0.88 0.25,1.75 0.44,2.61 h 3.53 c 0.19,-0.86 0.29,-1.73 0.45,-2.61 0,-0.16 -0.25,-0.08 -0.36,0 v 0 c -0.41,0.15 -0.22,0.43 -0.37,0.47 -0.41,0.1 -0.29,0.47 -0.13,0.7 0.16,0.23 -0.2,0.28 -0.32,0.36 -0.12,0.08 -0.49,-0.09 -0.65,-0.35 -0.16,-0.26 0.3,-0.08 0.42,-0.18 0.12,-0.1 0.33,-0.56 0.25,-0.65 a 0.57,0.57 0 0 0 -0.53,-0.1 0.71,0.71 0 0 0 -0.49,-0.52 h -0.1 c -0.21,0 -0.46,0.36 -0.49,0.52 -0.21,0 -0.44,0 -0.53,0.12 -0.09,0.12 0.07,0.46 0.25,0.65 0.18,0.19 0.53,0 0.41,0.18 -0.12,0.18 -0.42,0.51 -0.64,0.35 -0.22,-0.16 -0.39,-0.26 -0.32,-0.36 0.07,-0.1 0.28,-0.6 -0.13,-0.7 -0.15,0 0,-0.32 -0.37,-0.47 -0.07,-0.02 -0.35,-0.14 -0.32,-0.02 z m 4.09,-1.33 a 1,1 0 0 0 -0.12,-0.54 l -0.49,0.39 a 2.1,2.1 0 0 0 0.61,0.15 z m 1,-0.54 -0.06,0.35 c 0.13,0 0.23,-0.14 0.35,-0.14 a 0.34,0.34 0 0 0 -0.27,-0.21 z m -11.81,-15.249999 v 0.44 h 0.47 a 0.49,0.49 0 0 0 -0.47,-0.44 z m 3.54,12.19 -0.28,-0.46 -0.39,0.46 a 0.79,0.79 0 0 0 0.67,0 z m 9.51,3.149999 a 0.33,0.33 0 0 0 0.41,0.16 0.3,0.3 0 0 0 0.14,-0.31 c -0.08,-0.26 -0.51,-0.41 -0.57,-0.14 v 0 a 0.48,0.48 0 0 0 0.02,0.29 z m -8.56,5.32 a 0.28,0.28 0 0 0 0.24,0.18 c 0.29,0 0.65,-0.4 1,-0.51 -0.15,-0.5 -0.38,-1 -0.55,-1.43 -0.08,0.89 -0.69,1.08 -0.69,1.76 z m -4.63,-19.489999 a 0.63,0.63 0 0 0 0.6,-0.48 h -1.26 a 0.57,0.57 0 0 0 0.66,0.48 z m -0.16,-1.18 a 0.52,0.52 0 0 0 -0.47,0.45 h 0.47 z m 2.93,10.42 c -1.51,-0.49 -1.79,0.05 -2.07,0.32 a 3.3,3.3 0 0 1 2.07,-0.32 z m -0.07,1.75 -0.36,-0.49 -0.43,0.49 a 1.33,1.33 0 0 0 0.79,0 z m -2.27,-1 v 0.6 c 0.92,-0.85 2.35,-0.58 3.41,-0.23 0.72,0.28 1.94,0.64 2.45,0.09 a 0.9,0.9 0 0 0 0.26,-0.81 0.51,0.51 0 0 0 -0.43,-0.42 0.46,0.46 0 0 1 -0.12,0.54 2,2 0 0 1 -1.48,0.17 v 0 c -1.27,-0.32 -2.94,-0.94 -4.09,0.06 z m 2.64,0.54 -0.49,-0.11 0.25,0.37 z m -1.62,0.49 h 0.13 l 0.47,-0.65 a 2.12,2.12 0 0 0 -1.42,0.51 1.12,1.12 0 0 0 0.82,0.14 z m 11.17,2.919999 v 0 a 0.34,0.34 0 0 0 0.24,-0.42 c 0,-0.22 -0.3,-0.22 -0.51,-0.22 v 0 c -0.11,0.06 -0.26,0.12 -0.26,0.26 a 0.49,0.49 0 0 0 0,0.12 0.38,0.38 0 0 0 0.53,0.26 z m -28.13,-20.649999 a 0.5,0.5 0 0 0 -0.65,-0.28 l -0.12,0.07 -0.53,0.3 0.49,0.86 0.53,-0.3 a 0.5,0.5 0 0 0 0.28,-0.65 z m 26.26,44.879996 c 0,-0.44 -0.56,-0.52 -0.7,-0.52 v 0 a 0.48,0.48 0 0 1 -0.18,0.51 2.2,2.2 0 0 1 0.88,0.01 z m -16.84,10.339999 1.42,0.2 -0.5,-1.889999 z m 19.57,-33.509996 a 0.78,0.78 0 0 0 0.37,-0.06 l -0.19,-0.18 z m -28.8,-19.059999 0.57,-0.32 c 0.56,-0.32 0.67,-0.58 0.47,-0.93 -0.2,-0.35 -0.52,-0.31 -0.87,-0.11 l -0.71,0.4 z m 0.66,47.409996 -0.66,-0.36 -1.42,2.58 0.67,0.36 a 1.4700765,1.4700765 0 0 0 1.41,-2.58 z m -15.54,-20.089997 -0.1,-0.81 -1.09,0.14 0.08,0.65 c 0.08,0.63 0.27,0.84 0.67,0.78 0.4,-0.06 0.49,-0.36 0.44,-0.76 z m 3.09,5.09 -0.06,-0.17 a 1.42,1.42 0 1 0 -0.89,1.839997 1.36,1.36 0 0 0 0.95,-1.669997 z m -0.06,-21.639999 a 1.42,1.42 0 0 0 1.36,-2.49 1.38,1.38 0 0 0 -1.9,0.4 1.14,1.14 0 0 0 -0.1,0.19 1.42,1.42 0 0 0 0.64,1.9 z m 7.51,35.779996 0.59,-1.92 -1.69,1 z m 30,-2.91 v -0.23 a 0.43,0.43 0 0 0 -0.35,-0.23 c -0.28,0.23 0.17,0.34 0.35,0.46 z m -14.18,-18.409997 c 0.45,0.09 0.92,0.3 1.36,-0.19 0.44,-0.49 0,-2 0.17,-2.89 a 1,1 0 0 1 -0.59,-0.31 h -0.69 v 0 c -0.09,0.86 0.49,1.89 -0.16,2.62 a 0.84,0.84 0 0 1 -0.8,0.28 l 0.11,0.12 a 1.18,1.18 0 0 0 1.11,-0.08 1.11,1.11 0 0 1 -0.6,0.42 z m 1.92,0.65 c 2.07,0 0.95,-2.4 1.54,-3.55 l -0.54,-0.25 a 1.73,1.73 0 0 1 -0.84,0.16 v 0 c -0.18,1 0.27,1.88 0,2.88 a 1.06,1.06 0 0 1 -0.77,0.59 1.5,1.5 0 0 0 1.24,-0.42 c -0.13,0.27 -0.44,0.45 -0.63,0.59 z m 11.32,14.699997 c -0.14,-0.38 -0.59,-0.25 -0.86,-0.18 l 0.08,0.43 a 2.73,2.73 0 0 1 0.78,-0.25 z m -5.06,-17.029997 c -0.1,-0.85 0.63,-1.14 0.63,-1.85 h -0.11 a 5.09,5.09 0 0 1 -1.26,0.44 l -0.3,0.68 a 2.05,2.05 0 0 0 0.4,2 1,1 0 0 0 1.38,-0.1 c -0.2,0 -0.48,0 -0.59,-0.2 a 1.19,1.19 0 0 0 0.53,0 v 0 a 0.72,0.72 0 0 0 0.46,-0.59 c -0.79,0.48 -1.14,-0.13 -1.14,-0.38 z m 10.18,-5 c 0,-0.2 -0.26,-0.46 -0.42,-0.2 a 0.28,0.28 0 0 0 0.12,0.4 c 0.12,0.13 0.24,0.02 0.27,-0.18 z m -19.31,5.74 a 0.72,0.72 0 0 0 0.54,0 c 0.78,-0.47 0.14,-1.73 0.29,-2.47 a 1.44,1.44 0 0 1 -1,-0.51 l 0.05,0.05 c -0.31,1 0.25,1.88 0.18,2.18 a 0.62,0.62 0 0 1 -0.31,0.44 c 0.22,0.12 0.4,-0.14 0.57,-0.14 -0.03,0.15 -0.14,0.45 -0.32,0.45 z m 2.13,6.9 v 0 c 0.77,-0.63 1.69,-1 2.47,-1.63 a 3.45,3.45 0 0 0 -2.47,1.63 z m -2.11,10.659997 a 0.65,0.65 0 0 0 -0.73,-0.39 c -0.27,0.56 0.57,0.23 0.73,0.39 z m 5.94,-16.549997 a 15.18,15.18 0 0 1 0,-2.86 1.3,1.3 0 0 1 -1.06,0 v 0 c -0.54,1 0.31,2.91 -1,3.77 h 0.31 a 1.41,1.41 0 0 0 0.8,-0.57 1.87,1.87 0 0 1 -0.43,0.68 1.63,1.63 0 0 0 1.38,-1.02 z m 0.39,-2.89 c 0,1 0.35,2.39 0.14,3 a 1.92,1.92 0 0 1 -1,1.06 c 0.89,0.06 1.31,-0.66 1.57,-1.2 a 1.65,1.65 0 0 1 -0.47,1.14 l 0.22,-0.06 v 0.06 a 1.15,1.15 0 0 0 0.94,-1.14 10.61,10.61 0 0 1 0,-2.87 2.49,2.49 0 0 1 -1.4,0.01 z m -15.38,-9.999999 c 0.14,-0.15 0.11,-0.29 0,-0.49 -0.11,-0.2 -0.27,-0.45 -0.55,-0.45 a 0.54,0.54 0 0 0 -0.39,0.54 1,1 0 0 0 0.37,0.54 0.43,0.43 0 0 0 0.57,-0.2 z m 3.85,31.509996 a 1.25,1.25 0 0 1 -0.18,0.45 2.5,2.5 0 0 1 0.62,0.34 0.89,0.89 0 0 0 -0.44,-0.85 z m 3,-0.19 v 0.46 a 1,1 0 0 1 0.64,0.39 c 0.18,-0.45 -0.27,-0.91 -0.61,-0.91 z m 2,-0.36 a 0.61,0.61 0 0 0 -0.41,-0.32 0.48,0.48 0 0 1 -0.16,0.35 l 0.57,0.17 z m -9.77,-28.589996 0.35,-0.41 -0.59,-0.23 c -0.41,0.12 0.06,0.51 0.24,0.64 z m 1,9.629999 a 3,3 0 0 0 -1.43,-0.22 c -0.68,0.07 -1.13,0.74 -1.74,1.07 a 9.41,9.41 0 0 0 -1.51,1 3.51,3.51 0 0 0 -0.45,2.47 2.71,2.71 0 0 0 0.86,-1.53 0.69,0.69 0 0 1 0.2,0.45 c 0,0.93 -1.06,1.48 -1,2.36 a 2.48,2.48 0 0 0 1.05,-1.19 c 0.39,0.68 -0.51,1.15 -0.85,1.68 a 1.79,1.79 0 0 0 0.79,-0.14 2.33,2.33 0 0 0 1.08,-2 c 0.07,-1 -0.32,-2.08 0.36,-2.86 h 0.09 a 1.85,1.85 0 0 1 2.23,-0.45 c 0.1,-0.19 0.16,-0.34 0.33,-0.64 z m -15.07,3.12 a 0.51,0.51 0 0 0 0.43,-0.58 0.13,0.13 0 0 0 0,-0.06 v -0.65 l -1.08,0.17 0.08,0.61 a 0.49,0.49 0 0 0 0.57,0.51 z m 14,-13.669999 a 1,1 0 0 0 0.5,0.17 1,1 0 0 0 -0.08,-0.57 0.58,0.58 0 0 1 -0.45,0.4 z m 1.64,12.549999 a 10.21,10.21 0 0 0 -1.22,2.84 4.4,4.4 0 0 0 1.22,-2.84 z m -0.22,-12.909999 -0.78,-0.25 a 5,5 0 0 0 0.24,0.78 z m 9.92,-7 c 0.09,0 0.33,-0.9 0.63,-1.24 a 2.7,2.7 0 0 1 2.18,-0.61 v 1.55 a 0.61,0.61 0 0 1 1.16,0 v -1.4 a 5,5 0 0 1 1.58,0.13 2.32,2.32 0 0 1 1.26,1.65 3.64,3.64 0 0 0 0.43,-0.45 0.34,0.34 0 0 0 0.09,-0.12 0.41,0.41 0 0 0 -0.19,-0.55 l -0.09,-0.18 c 0,0 0,0 0,0.06 v -0.09 0 c 0.11,-0.32 0,-0.58 -0.33,-0.58 l -0.18,-0.14 a 0.5,0.5 0 0 0 0,-0.12 0.38,0.38 0 0 0 -0.49,-0.23 l -0.2,-0.1 a 0.37,0.37 0 0 0 0,-0.11 0.42,0.42 0 0 0 -0.57,-0.12 h -0.23 a 0.6,0.6 0 0 0 -0.08,-0.08 0.41,0.41 0 0 0 -0.57,0.08 0.94,0.94 0 0 1 -0.85,0.55 1.21,1.21 0 0 1 -0.93,-0.58 0.39,0.39 0 0 0 -0.17,-0.14 0.36,0.36 0 0 0 -0.45,0.21 h -0.22 a 0.31,0.31 0 0 0 -0.13,-0.06 0.37,0.37 0 0 0 -0.45,0.26 l -0.21,0.09 c -0.27,-0.1 -0.46,0 -0.46,0.31 l -0.14,0.18 h 0.09 c -0.43,0 -0.58,0.2 -0.49,0.54 l -0.18,0.2 v 0 a 0.3,0.3 0 0 0 -0.13,0.09 0.41,0.41 0 0 0 0,0.58 c 0.13,0.11 0.23,0.39 0.32,0.38 z m 28.4,4.84 a 1.48,1.48 0 0 0 0.76,-1.95 1.14,1.14 0 0 0 -0.1,-0.19 l -0.35,-0.66 -2.61,1.37 0.35,0.67 a 1.48,1.48 0 0 0 1.95,0.72 z m 1.9,21.069999 -1.93,0.129997 1.5,1.22 z m -4.81,-27.999999 -1.83,0.62 0.91,1.11 z m -16.48,39.069996 c 0.7,-0.51 1.67,-0.15 2.39,0.09 0.74,0.39 1.11,-0.46 1.74,-0.37 -0.13,-0.11 -0.24,-0.32 -0.4,-0.32 -0.68,0 -1.52,0.42 -2.08,-0.14 0.78,-0.35 1.89,0 2.42,-0.88 -0.88,-0.65 -1.63,0.65 -2.54,0.08 0,-0.33 0.39,-0.36 0.55,-0.59 0.16,-0.23 0.59,-0.44 0.53,-0.75 a 2.91,2.91 0 0 0 -2.32,1.32 3.28,3.28 0 0 1 -0.7,0.1 5.06,5.06 0 0 1 -0.68,-0.1 1.57,1.57 0 0 1 -0.62,-1 3.15,3.15 0 0 1 0.61,-2.12 15.46,15.46 0 0 0 1.79,-1.08 c 0.63,-0.55 0.37,-1.59 0.23,-2.24 a 1.7,1.7 0 0 1 0.88,1.65 c 1.17,-0.91 0.24,-2.27 -0.08,-3.27 0.44,0.32 0.85,0.71 1.26,1.06 a 3.69,3.69 0 0 0 -1,-2.24 6.71,6.71 0 0 0 -3.59,-1.669997 h 0.08 a 37.75,37.75 0 0 0 -5.21,-0.16 4.37,4.37 0 0 0 -1.9,1.5 l 1,1.489997 c 1.87,0.1 3.65,0.38 4.87,1.83 a 2.24,2.24 0 0 1 0.34,2.13 c -0.22,0.62 -0.92,0.44 -1.28,0.94 a 1.17,1.17 0 0 0 -0.28,0.88 l 1,-0.63 c 0.11,0 0.19,-0.18 0.31,-0.09 a 1.53,1.53 0 0 1 -1,1.08 1.17,1.17 0 0 0 -0.67,1 c 0.49,0.11 0.77,-0.37 1.2,-0.37 0,0.33 -0.4,0.51 -0.61,0.77 -0.49,0.36 -0.28,1.06 -0.28,1.57 0.44,-0.05 0.58,-0.64 0.71,-0.83 0.13,-0.19 0.31,-0.51 0.57,-0.51 v 1.8 c 0.54,0.72 1.64,0.58 2.45,0.51 0.6,0.17 1.23,0 1.81,0.24 -0.08,-0.83 -1.13,-0.21 -1.5,-0.68 z m 26.17,-53.299996 v 66.749995 h -66.37 V 39.262965 Z m -4.68,22.88 c -1.6,0.49 -0.63,2.67 -1.36,2.9 -0.26,0.08 -0.48,-0.11 -0.61,-0.53 a 2.58,2.58 0 0 1 0.1,-1.69 l -1,0.29 a 3.21,3.21 0 0 0 0.07,1.74 c 0.3,0.999999 1,1.549999 1.88,1.289999 1.55,-0.48 0.66,-2.679999 1.33,-2.889999 0.22,-0.07 0.45,0.14 0.57,0.54 a 3.59,3.59 0 0 1 0,1.53 l 0.82,-0.32 a 3.57,3.57 0 0 0 0,-1.56 c -0.32,-1.03 -1.03,-1.54 -1.8,-1.3 z m -1.58,-6 -4.11,2.18 0.9,1.7 c 0.87,1.64 2.13,1.93 3.31,1.3 l 0.29,-0.17 a 2.31,2.31 0 0 0 0.58,-3.2 z m -3,-4 -4.79,1.51 0.79,1 0.93,-0.32 1.32,1.56 -0.46,0.88 0.79,1 2.31,-4.64 z m -5.54,-4 1.27,1.1 -2.48,2.85 0.88,0.75 2.48,-2.88 1.28,1.1 0.56,-0.6 -3.44,-3 z m -5.73,0.45 a 3.16,3.16 0 0 0 1.22,1.24 c 0.89,0.53 1.8,0.47 2.25,-0.3 0.78,-1.36 -1.36,-2.4 -1,-3 0.12,-0.22 0.43,-0.22 0.78,0 a 3.48,3.48 0 0 1 1.06,1.1 l 0.51,-0.71 a 3.87,3.87 0 0 0 -1.17,-1.11 c -0.93,-0.55 -1.8,-0.44 -2.21,0.25 -0.85,1.38 1.33,2.35 0.94,3 -0.14,0.21 -0.42,0.22 -0.81,0 a 2.67,2.67 0 0 1 -1.06,-1.33 z m -6.73,-2.41 a 3.21,3.21 0 0 0 1.5,0.89 c 1,0.27 1.86,0 2.1,-0.88 0.44,-1.57 -1.9,-2 -1.71,-2.69 0.06,-0.18 0.36,-0.29 0.76,-0.18 a 3.56,3.56 0 0 1 1.31,0.81 l 0.24,-0.93 a 3.71,3.71 0 0 0 -1.42,-0.77 c -1.07,-0.29 -1.85,0 -2.07,0.81 -0.44,1.61 1.91,2 1.71,2.71 -0.08,0.23 -0.35,0.35 -0.78,0.23 a 2.65,2.65 0 0 1 -1.37,-1 z m -5.62,-2.37 a 2.49,2.49 0 0 0 2.51,2.43 3.06,3.06 0 0 0 2,-0.46 l 0.2,-1.89 -1.83,-0.16 -0.07,0.85 0.67,0.06 v 0.54 a 1.74,1.74 0 0 1 -0.78,0.1 c -1,-0.08 -1.56,-0.68 -1.49,-1.51 v -0.21 a 1.5,1.5 0 0 1 1.83,-1.07 4,4 0 0 1 1.7,0.58 l 0.06,-1 a 4.58,4.58 0 0 0 -1.8,-0.58 c -1.65,-0.14 -2.88,0.73 -3,2.15 z m -5.21,-2.1 0.5,4.63 1.15,-0.12 -0.2,-1.88 h 0.33 c 0.62,-0.07 0.9,0.8 1.51,1.74 l 1.26,-0.14 c -0.79,-1.26 -1,-1.82 -1.5,-2 a 1.2,1.2 0 0 0 0.67,-1.22 0.36,0.36 0 0 0 0,-0.1 1.37,1.37 0 0 0 -1.63,-1.07 z m -5.78,3.78 a 2.41,2.41 0 0 0 2.84,1.86 h 0.05 a 2.49,2.49 0 0 0 1.76,-3 2.4,2.4 0 0 0 -4.65,1.14 z m -6.06,0.92 2.29,4 2,-1.11 c 1.19,-0.67 1,-1.54 0.76,-2 a 1.21,1.21 0 0 0 -1.49,-0.55 1,1 0 0 0 0.1,-1.12 c -0.26,-0.45 -0.92,-0.79 -1.92,-0.25 z m -4.21,3.18 3,3.59 2.65,-2.19 -0.55,-0.67 -1.75,1.46 -0.71,-0.86 1.6,-1.35 -0.54,-0.66 -1.64,1.35 -0.62,-0.77 1.72,-1.41 -0.55,-0.59 z m -4.13,4.58 0.65,0.56 1.09,-1.24 2.9,2.46 0.75,-0.89 -2.9,-2.45 1.09,-1.24 -0.65,-0.6 z m -1.85,2.87 a 2.4023998,2.4023998 0 0 0 3.94,2.75 v -0.05 a 2.49,2.49 0 0 0 -0.83,-3.42 2.4,2.4 0 0 0 -3.11,0.72 z m -0.85,-0.15 a 0.24,0.24 0 0 0 0.11,0.06 0.44,0.44 0 0 0 0.58,-0.26 0.45,0.45 0 0 0 -0.26,-0.58 v 0 0 a 0.43,0.43 0 0 0 -0.59,0.19 0.45,0.45 0 0 0 0.16,0.59 z m -0.67,1.21 a 0.45,0.45 0 0 0 0.43,-0.78 0.45,0.45 0 0 0 -0.43,0.78 z m 0.18,8.619999 h 0.19 a 2.5,2.5 0 0 0 2.89,-1.999999 3.11,3.11 0 0 0 0,-2 l -1.83,-0.54 -0.52,1.76 0.82,0.24 0.19,-0.64 0.53,0.15 a 1.59,1.59 0 0 1 -0.07,0.78 v 0.15 a 1.42,1.42 0 0 1 -1.74,0.999999 l -0.15,-0.05 a 1.49,1.49 0 0 1 -0.77,-1.949999 3.87,3.87 0 0 1 0.9,-1.54 l -1,-0.38 a 4.34,4.34 0 0 0 -0.89,1.65 2.47,2.47 0 0 0 1.45,3.369999 z m -0.78,11.67 a 1.22,1.22 0 0 0 1.07,-1.13 1.07,1.07 0 0 0 1,0.52 c 0.54,-0.07 1.13,-0.59 1,-1.68 l -0.28,-2 -4.62,0.57 0.28,2.25 c 0.17,1.36 1.03,1.57 1.55,1.47 z m 2.87,5.929997 a 2.41,2.41 0 1 0 -3.16,-1.83 v 0.13 a 2.49,2.49 0 0 0 3.16,1.7 z m 2.14,1.44 c 0.2,-0.12 0.46,0 0.66,0.41 a 3.48,3.48 0 0 1 0.37,1.48 l 0.75,-0.45 a 3.86,3.86 0 0 0 -0.46,-1.55 c -0.49,-0.89 -1.3,-1.29 -2,-0.89 -1.46,0.82 -0.1,2.73 -0.76,3.12 -0.24,0.14 -0.49,0 -0.71,-0.38 a 2.65,2.65 0 0 1 -0.26,-1.68 l -0.88,0.5 a 3.24,3.24 0 0 0 0.44,1.69 c 0.51,0.86 1.33,1.3 2.11,0.86 1.41,-0.8 0.07,-2.76 0.69,-3.11 z m 0.7,7.15 2.88,-2.42 1.07,1.3 0.7,-0.54 -2.92,-3.47 -0.66,0.54 1.09,1.27 -2.95,2.42 z m 5.63,5.26 1.34,-4.94 -1,-0.86 -4.44,2.35 0.94,0.79 0.87,-0.48 1.59,1.34 -0.3,1 z m 5.07,-2.4 -1.75,-1 -2.25,4.08 1.64,0.92 c 1.63,0.899999 2.84,0.439999 3.49,-0.73 a 2.24,2.24 0 0 0 0.13,-0.27 2.31,2.31 0 0 0 -1.31,-3 z m 3.74,3 c 0.08,-0.22 0.38,-0.28 0.77,-0.15 a 3.64,3.64 0 0 1 1.27,0.85 l 0.29,-0.91 a 3.93,3.93 0 0 0 -1.39,-0.83 c -1,-0.29 -1.85,-0.05 -2.1,0.71 -0.53,1.589999 1.81,2.059999 1.57,2.789999 -0.08,0.25 -0.36,0.33 -0.78,0.19 a 2.63,2.63 0 0 1 -1.32,-1.07 l -0.32,1 a 3.2,3.2 0 0 0 1.46,1 c 1,0.32 1.86,0.06 2.14,-0.78 0.45,-1.609999 -1.87,-2.169999 -1.64,-2.829999 z m 7.46,5.099999 -1.36,-4.889999 -1.38,-0.22 -2.51,4.339999 1.21,0.14 0.48,-0.86 2.06,0.29 0.25,1 z m 5.86,-0.23 -2.18,-2.36 1.4,-2.249999 -1.28,0.06 -1.41,2.179999 -0.13,-2.139999 -1.16,0.06 0.16,4.639999 h 1.16 l -0.1,-2.18 2,2.09 z m 2.58,-4.439999 1.64,-0.38 -0.19,-0.82 -4.41,1 0.19,0.83 1.59,-0.41 0.85,3.699999 1.15,-0.26 z m 2.06,-6.07 c 0.6,0.14 1.54,0.34 2,-0.22 a 0.86,0.86 0 0 1 0.94,0.49 c 0.27,-0.13 0.19,-0.54 0.2,-0.77 a 0.78,0.78 0 0 0 -0.43,-0.69 c -0.15,-0.1 -0.46,0 -0.51,-0.23 a 1,1 0 0 1 1,0.12 l 0.28,0.31 a 1.72,1.72 0 0 0 -0.06,-1.14 c -0.46,-0.75 -1.45,-0.33 -2.15,-0.57 -0.1,0.06 -0.25,0 -0.33,0 a 1.49,1.49 0 0 1 1.32,-0.28 0.86,0.86 0 0 0 -0.08,-0.61 1,1 0 0 0 -0.82,-0.45 1.55,1.55 0 0 0 -0.89,0.22 2.82,2.82 0 0 0 -2.48,1.32 c -0.39,-0.11 -1.09,0.14 -1.22,-0.43 a 1.89,1.89 0 0 1 0.27,-1.71 c 0.74,-0.64 1.75,-1 2.26,-1.85 l 0.16,0.43 a 2.55,2.55 0 0 0 1.37,-2.53 1.42,1.42 0 0 1 0.48,0.23 2.52,2.52 0 0 0 0,-1.28 3.32,3.32 0 0 0 -0.38,-1.19 3.84,3.84 0 0 0 -0.79,-0.999997 5.84,5.84 0 0 0 -2.38,-1.33 12.54,12.54 0 0 0 -2.9,-0.48 c -0.5,0 -1,-0.06 -1.49,-0.08 h -1.1 c -0.07,0 -0.29,-0.06 -0.35,0 l 1.33,-0.8 a 1.12,1.12 0 0 0 -0.9,-0.54 29.92,29.92 0 0 0 4.09,-3.58 1.57,1.57 0 0 0 1.45,-0.54 2,2 0 0 0 0.38,-0.83 0.2,0.2 0 0 1 0.24,-0.15 l 0.09,0.05 a 30.71,30.71 0 0 0 5.08,5.66 l 0.47,0.4 a 22,22 0 0 0 5,-5.5 c 1.22,-2.06 2.23,-4.87 0.7,-6.92 v 0 a 2.31,2.31 0 0 0 -2.28,-0.68 1,1 0 0 0 -0.6,0.51 0.68,0.68 0 0 0 0.2,0.8 0.7,0.7 0 0 0 0.59,0.2 1.6,1.6 0 0 1 -0.6,0.18 0.48,0.48 0 0 0 -0.67,-0.53 0.6,0.6 0 0 0 -0.62,-0.6 0.63,0.63 0 0 0 -0.19,0 c 0,-0.47 -0.66,-0.57 -0.85,-0.5 -0.13,-0.29 -0.21,-0.729999 -0.61,-0.839999 -0.4,-0.11 -0.56,0.609999 -1,0.759999 a 1.29,1.29 0 0 0 -1.24,0.54 1.24,1.24 0 0 0 0.11,1 1,1 0 0 1 -0.4,0.18 h -0.11 a 0.68,0.68 0 0 1 -0.5,-0.22 l -0.13,-0.14 a 0.77,0.77 0 0 0 0.67,-0.45 0.7,0.7 0 0 0 -0.07,-0.76 1.86,1.86 0 0 0 -1.82,-0.23 3,3 0 0 0 -1.89,1.61 c -0.4,-0.44 -1,-0.86 -1.08,-1.43 a 2.29,2.29 0 0 0 0.25,-1.699999 c 0.7,0 1.66,0.08 2.14,-0.63 a 1.12,1.12 0 0 0 0.18,-1 1.67,1.67 0 0 0 -0.57,-0.61 c -0.25,-0.09 -0.63,-0.17 -0.72,0 a 1,1 0 0 1 -0.11,0.63 c -0.42,0.31 -0.77,0.13 -1.26,0.05 a 4.67,4.67 0 0 1 -0.82,-0.25 2.94,2.94 0 0 0 2.48,-1.18 6.33,6.33 0 0 1 0.5,-1.86 0.57,0.57 0 0 0 0,-0.26 c -1,-0.57 -2.34,-0.39 -3.07,-1.53 v -0.77 c 0.64,-0.29 1,-1.18 1.71,-1.24 a 1.06,1.06 0 0 0 -0.22,-0.47 1,1 0 0 0 -0.9,-0.22 0.43,0.43 0 0 0 0,-0.58 0.39,0.39 0 0 0 -0.1,-0.08 0.59,0.59 0 0 0 -0.09,-0.67 0.74,0.74 0 0 0 -0.47,-0.2 0.51,0.51 0 0 0 -0.15,-0.33 0.56,0.56 0 0 0 -0.59,-0.11 0.52,0.52 0 0 0 -0.34,-0.38 0.56,0.56 0 0 0 -0.5,0.09 0.44,0.44 0 0 0 -0.17,-0.16 1,1 0 0 0 -0.29,-0.08 0.43,0.43 0 0 0 -0.29,0.1 0.84,0.84 0 0 0 -0.79,-0.89 v 0 -0.37 h 0.47 v -0.26 h -0.47 v -0.41 h -0.32 v 0.37 h -0.49 v 0.26 h 0.45 v 0.33 a 0.85,0.85 0 0 0 -0.79,0.89 0.5,0.5 0 0 0 -0.7,0.09 0.75,0.75 0 0 0 -0.07,0.12 0.52,0.52 0 0 0 -0.73,0.08 0.54,0.54 0 0 0 -0.1,0.2 0.49,0.49 0 0 0 -0.66,0.21 0.49,0.49 0 0 0 -0.05,0.29 0.52,0.52 0 0 0 -0.59,0.46 0.5,0.5 0 0 0 0.07,0.34 0.51,0.51 0 0 0 -0.34,0.62 0.37,0.37 0 0 0 0,0.11 1.13,1.13 0 0 0 -0.82,0.19 c -0.24,0.14 -0.24,0.38 -0.35,0.57 a 1.13,1.13 0 0 1 0.89,0.4 1.8,1.8 0 0 0 0.91,0.62 v 0.65 a 7.6,7.6 0 0 0 -1.65,-0.2 2.13,2.13 0 0 0 0.08,0.94 2.31,2.31 0 0 0 0.94,1.26 2,2 0 0 0 -1.6,1.09 3.33,3.33 0 0 0 -0.11,1.47 c -0.13,0.5 -0.38,1.13 -0.12,1.6 -0.12,0.6 -0.41,1.33 -0.06,1.909999 -0.44,0.63 0.26,1.21 0,1.88 a 25.76,25.76 0 0 1 -3.09,-2.999999 14.9,14.9 0 0 1 -0.75,-2.06 l 1,-0.85 a 6.15,6.15 0 0 0 -0.63,-0.62 7.46,7.46 0 0 1 -0.79,-0.7 l 6.4,-7 a 32.66,32.66 0 0 0 3.26,-4.18 0.18,0.18 0 0 0 -0.12,-0.17 2.58,2.58 0 0 0 -1.31,0.65 l -2.9,2.6 -6.87,6.57 c -0.37,-0.48 -0.83,-1 -1.25,-1.45 l -1.28,1.17 a 7,7 0 0 1 0.79,0.85 c -0.46,0 -0.75,0.48 -0.79,0.88 a 0.83,0.83 0 0 0 -0.85,0.83 0.79,0.79 0 0 0 0,0.3 0.63,0.63 0 0 0 -0.73,0.52 1,1 0 0 0 0,0.17 2.25,2.25 0 0 0 0.43,0.91 0.6,0.6 0 0 0 -0.08,0.63 c 0.25,0.28 0.49,0.87 0.94,0.74 l 0.08,-0.08 a 5.85,5.85 0 0 0 1.36,1.17 l 0.74,0.299999 c 0.24,0.06 1,2.93 1.25,3.1 l 0.28,-0.49 a 3.21,3.21 0 0 0 1,1.81 c 0.11,-0.11 0,-0.31 0.09,-0.43 a 11.48,11.48 0 0 0 1.22,1.79 l 0.17,-0.51 a 13.43,13.43 0 0 1 1.34,1.67 2.36,2.36 0 0 1 0.43,2.24 c -0.94,2.53 -4.07,4.07 -4.32,6.879997 a 2,2 0 0 1 -1.94,0.24 c -0.26,-0.2 -0.57,-0.26 -0.65,-0.999997 a 2.39,2.39 0 0 1 0.09,-0.84 c 0.46,-1.49 2.15,-2.82 1.85,-4.66 a 2.54,2.54 0 0 0 -0.71,-1.51 c 0.7,-1.5 1.31,-3.9 -0.08,-5.32 a 3.75,3.75 0 0 0 -2.87,-1.09 c -1.25,0.18 -2.83,0.22 -3.51,1.49 a 3.63,3.63 0 0 0 -0.29,2.08 7.63,7.63 0 0 1 0.12,1.51 h 0.23 a 1.14,1.14 0 0 0 0.34,1.25 c 0.32,-1 1.51,-0.9 2.05,-1.76 1,-0.83 -0.34,-2.88 1.39,-3 a 2,2 0 0 1 1.77,1.08 4.82,4.82 0 0 1 -0.41,2.9 2.58,2.58 0 0 0 -2.83,0.4 c -1.07,1.11 -2.78,1.24 -2.81,3 a 8.39,8.39 0 0 0 -0.16,1.87 c 0.15,0.06 0.28,-0.11 0.45,-0.08 a 2.35,2.35 0 0 0 -0.33,1.53 2.19,2.19 0 0 0 0.39,-0.29 c 0,0.25 -0.22,0.57 -0.06,0.86 0.75,-0.63 1.93,-0.42 2.4,-1.49 0.65,-1.14 0,-2.55 0.45,-3.79 a 1.36,1.36 0 0 1 1.76,-0.5 c -0.19,0.51 -0.52,1 -0.73,1.56 -0.77,1.67 -1.24,4.27 -0.49,5.829997 a 3.34,3.34 0 0 0 2.79,2.06 5.28,5.28 0 0 0 2.19,-0.32 1.94,1.94 0 0 1 -0.02,1.91 c -0.91,1.33 -3.12,0.21 -3.36,2.17 a 3.37,3.37 0 0 0 -0.06,1 l 0.21,-0.06 a 7.3,7.3 0 0 0 -0.32,1.4 c 0.08,0.08 0.15,0 0.22,-0.06 a 2.24,2.24 0 0 0 -0.06,0.52 v 0.44 a 1.26,1.26 0 0 0 0.06,0.42 c 0.06,0.14 0,0.24 0.07,0.36 l 0.81,-0.63 a 2,2 0 0 0 0.89,2 c 0.89,0.47 2,0.43 2.85,1 v -0.73 c 1,0.24 2.46,-0.38 3.1,0.85 0.1,-0.49 0.32,-1 -0.09,-1.42 0.41,-0.42 1.08,-0.1 1.54,0 a 0.74,0.74 0 0 0 0,-0.68 c -0.2,-0.54 -0.83,-0.57 -1.16,-1 a 1.89,1.89 0 0 1 1.49,0.14 1.14,1.14 0 0 0 -0.61,-1 2.52,2.52 0 0 0 -0.82,-0.14 2,2 0 0 0 -1.93,-0.32 c -0.58,0.46 -1.28,1.09 -2,0.71 a 1.92,1.92 0 0 1 0.12,-2 c 1.12,-0.82 2.87,0.07 4,-0.65 v 0.23 c 0.91,-0.23 2,-0.48 2.39,-1.49 0.11,0 0.15,0.18 0.17,0.29 a 2.29,2.29 0 0 0 0.83,-1.82 l 0.17,0.17 a 3.09,3.09 0 0 0 0.13,-1.81 c 1.64,0.22 3.49,0.48 4.42,2.07 a 1.14,1.14 0 0 1 -0.06,1.19 2.45,2.45 0 0 0 -1.53,1.66 2.51,2.51 0 0 0 0,0.67 c 0.09,0.09 0.17,0 0.28,0 a 2.66,2.66 0 0 0 -0.45,1.25 v 0.6 a 0.31,0.31 0 0 0 0.25,-0.08 6.12,6.12 0 0 1 0.12,2 3,3 0 0 0 1.25,-0.53 0.88,0.88 0 0 0 0,0.71 c 0.29,0.49 0.89,0.52 1.42,0.57 a 21,21 0 0 1 3.07,0.19 2.1,2.1 0 0 1 0.59,1.09 c 0.3,-0.48 0.64,-1.25 0.19,-1.78 z m 3.07,8.359999 -1.69,-4.329999 -1.08,0.33 1.69,4.339999 z m 4.75,-2.389999 -0.42,-0.72 -2,1.1 -0.54,-1 1.85,-1 -0.41,-0.75 -1.86,1 -0.47,-0.86 2,-1.07 -0.41,-0.75 -3,1.64 2.26,4.059999 z m 3.7,-4.61 a 1.22,1.22 0 0 0 -1.52,-0.3 1.08,1.08 0 0 0 -0.09,-1.12 c -0.33,-0.41 -1.08,-0.63 -1.93,0.06 l -1.57,1.27 2.93,3.61 1.76,-1.42 c 1.06,-0.84 0.76,-1.66 0.42,-2.1 z m 3.52,-5.45 a 2.4,2.4 0 1 0 0.13,3.57 c 0,0 0,0 0.05,0 a 2.5,2.5 0 0 0 -0.18,-3.55 z m 4.43,-3.19 -0.71,-0.36 -1.15,2.1 -3.33,-1.83 -0.56,1 4.04,2.22 z m 2.08,-5.739997 -5.07,0.5 -0.43,1.269997 3.8,3.27 0.4,-1.16 -0.76,-0.63 0.66,-1.999997 1,-0.06 z m 0.21,-5.62 -1.89,-0.25 -0.24,1.82 0.85,0.11 0.08,-0.67 0.55,0.07 a 1.76,1.76 0 0 1 0.06,0.79 c -0.13,1 -0.75,1.53 -1.57,1.42 a 0.87,0.87 0 0 1 -0.22,0 1.48,1.48 0 0 1 -1,-1.84 4.18,4.18 0 0 1 0.66,-1.67 l -1,-0.15 a 4.31,4.31 0 0 0 -0.62,1.77 c -0.23,1.65 0.59,2.91 2,3.1 h 0.17 a 2.51,2.51 0 0 0 2.58,-2.5 3.17,3.17 0 0 0 -0.41,-2 z m -22.23,19.149997 a 0.92,0.92 0 0 1 0.35,0.47 v 0 a 0.76,0.76 0 0 0 0,-0.69 z m 12.79,-3.53 a 0.27,0.27 0 0 0 -0.07,0.08 1.42,1.42 0 1 0 2,-0.22 1.36,1.36 0 0 0 -1.93,0.14 z m -3.23,4 a 0.49,0.49 0 0 0 -0.69,-0.14 0.24,0.24 0 0 0 -0.08,0.06 l -0.47,0.32 0.63,0.83 0.47,-0.38 a 0.5,0.5 0 0 0 0.14,-0.72 z m 0.56,1.18 -0.64,0.51 0.69,0.9 0.51,-0.41 c 0.5,-0.4 0.57,-0.68 0.32,-1 -0.25,-0.32 -0.57,-0.25 -0.88,-0.03 z m -20.47,-12.9 c -0.63,-0.76 -1.23,-1.529997 -0.7,-2.529997 0.07,-0.11 0.18,-0.32 0.33,-0.32 0,0.43 -0.13,0.8 0.14,1.12 l 0.49,-0.8 v 0 c 1.48,-1.61 3.42,-2.64 4.9,-4.12 l -0.45,0.1 c -0.9,-0.08 -2,0.29 -2.7,-0.51 a 2.06,2.06 0 0 1 -1.75,-0.48 1.78,1.78 0 0 1 -1.79,-0.88 c -0.08,-0.48 -0.74,-0.57 -0.91,-1.06 a 0.52,0.52 0 0 1 0,-0.51 l 0.08,0.09 c 0.13,0.2 0.4,0.13 0.4,0 a 3.56,3.56 0 0 1 -0.18,-2 1.48,1.48 0 0 1 -1.11,-0.43 1.76,1.76 0 0 1 -0.32,-1.76 c 0.21,0.1 0.2,0.53 0.58,0.39 a 0.4,0.4 0 0 0 0.16,-0.32 32.75,32.75 0 0 1 -3.59,-3.689999 c -0.26,-0.82 -0.56,-1.64 -0.89,-2.42 -0.35,-0.55 -1,-1.87 -1.41,-1.37 a 1.38,1.38 0 0 0 -0.07,1.09 5,5 0 0 0 0.57,1 c 0.08,0.12 0.14,0.26 0,0.38 -0.36,0.15 -0.53,-0.1 -0.75,-0.33 0,-0.15 0,-0.52 -0.25,-0.52 a 16,16 0 0 0 -1.56,1.52 l -0.07,0.07 a 3.63,3.63 0 0 0 1.67,1.14 c 0.78,0.13 0.82,1.469999 1.12,2.209999 0.05,0.12 0.2,0.29 0.29,0.28 0.09,-0.01 0,-0.64 0.24,-0.87 a 0.08,0.08 0 1 1 0.16,0 4.61,4.61 0 0 0 0.55,2.36 c 0.06,0.1 0.14,0.1 0.14,0 a 1.7,1.7 0 0 1 0.26,-1.25 l 0.15,0.08 -0.09,1 c 0,0.32 0.43,0.95 0.71,1.32 0.18,0.19 0.14,-1 0.35,-1 0.21,0 0.09,0.85 0.28,1.2 0.8,1.39 2.64,2.44 2,4.32 -0.83,2.6 -4.14,4.26 -4.4,7.149997 a 2.88,2.88 0 0 1 -0.65,0.39 2.4,2.4 0 0 1 -1.35,0.18 1.81,1.81 0 0 1 -1.36,-1 2.78,2.78 0 0 1 0.22,-2.219997 c 0.91,-1.39 2.2,-2.86 1.43,-4.7 a 1,1 0 0 0 -0.37,-0.45 c -0.11,0.25 -0.22,0.51 -0.34,0.76 0.91,1.86 -1,3.19 -1.76,4.67 h -0.02 c -0.3,-1.47 0.44,-2.64 0.91,-3.86 a 17.93,17.93 0 0 0 1.68,-3.77 3.14,3.14 0 0 0 -3.7,-4 4.77,4.77 0 0 0 -2.2,0.71 2,2 0 0 0 -0.61,1.63 2.08,2.08 0 0 0 0.94,-1.14 0.66,0.66 0 0 1 0.18,0.25 c 0.1,0.59 -0.5,1 -0.9,1.36 a 0.94,0.94 0 0 0 -0.1,1.05 c 0.36,-0.53 0.61,-0.44 0.88,-0.84 a 6.38,6.38 0 0 0 0.37,-0.74 v 0.53 c 0.07,0.8 -0.45,0.88 -0.93,1.38 a 1.07,1.07 0 0 0 -0.22,1 1.3,1.3 0 0 1 1,-0.68 c 1.44,-0.41 0.71,-2 1.14,-3 a 1.53,1.53 0 0 1 1.26,-0.85 2.67,2.67 0 0 1 2.17,1.12 c 0.69,1.47 0,3.08 -0.63,4.35 -0.91,1.86 -2,3.64 -1.91,5.94 a 3.79,3.79 0 0 0 0.87,2.279997 4.15,4.15 0 0 0 0.94,0.83 c 1.09,0.7 2.4,0.06 3.48,-0.22 0,0 0.12,0 0.12,0.1 a 3,3 0 0 1 0.26,2.52 c -0.67,1 -1.91,1.1 -2.91,1.33 a 1.3,1.3 0 0 0 -0.71,1.2 2.47,2.47 0 0 0 0.89,-0.4 c 0,0.11 0.07,0.23 0,0.34 -0.11,0.35 -0.5,0.42 -0.77,0.6 a 1.22,1.22 0 0 0 -0.37,0.94 c 0.62,0.06 0.77,-0.61 1.08,-0.94 l 0.06,0.2 c 0,0.78 -1.29,1.1 -1,2 l 1.14,-1 c 0.14,0.71 -0.27,1.5 0,2.26 a 2.73,2.73 0 0 0 2,1 c 0.15,-0.26 -0.54,-0.62 -0.4,-0.71 a 2.12,2.12 0 0 0 1,0.06 l 0.48,0.27 c 0.54,0.43 1.43,0.14 1.92,0.26 a 0.5,0.5 0 0 0 -0.24,-0.46 1.23,1.23 0 0 0 -0.97,-0.08 c 0.3,-0.64 1,-0.23 1.46,-0.15 0.46,0.08 1,0.24 1.34,-0.16 -0.33,-0.94 -1.48,-0.37 -2.14,-0.49 a 0.31,0.31 0 0 1 -0.23,-0.28 3.08,3.08 0 0 1 1.5,-0.23 1.1,1.1 0 0 1 0.61,-0.38 1.33,1.33 0 0 0 -1.31,-0.47 c -0.58,0.14 -0.57,0.76 -2,1 a 1.36,1.36 0 0 1 -1.13,-0.69 c 0,-0.87 -0.16,-1.88 0.54,-2.47 1.38,-0.66 3.17,0.2 4.38,-0.8 a 1.87,1.87 0 0 0 0.43,-1.42 0.82,0.82 0 0 1 0.38,0.42 1.68,1.68 0 0 1 -0.29,1.25 c 0.54,-0.12 1.29,-0.49 1.4,-1.12 a 1.74,1.74 0 0 0 -0.5,-1.47 l 0.06,-0.06 a 1.57,1.57 0 0 1 1.24,1.14 c 0.53,-1.11 -0.46,-1.63 -0.84,-2.23 h 0.17 a 1.46,1.46 0 0 1 1.18,0.8 1.24,1.24 0 0 0 0,-1 5.33,5.33 0 0 0 -0.83,-1.29 z m 2.29,-27.209996 v -1.07 l -0.12,0.07 0.11,-0.07 a 5.57,5.57 0 0 0 -1,0 1.4,1.4 0 0 0 -1,1.27 0.77,0.77 0 0 1 0.78,0.15 0.42,0.42 0 0 1 0,0.36 1.16,1.16 0 0 1 -0.57,0.43 2.3,2.3 0 0 0 1.35,0 1.2,1.2 0 0 1 -0.5,-0.61 1.4,1.4 0 0 1 0.95,-0.53 z m 2.34,4 -0.24,-0.12 a 4.4,4.4 0 0 1 -1,0.65 1.49,1.49 0 0 0 1,0.29 h 0.06 a 0.61,0.61 0 0 1 0.18,-0.86 z m -7.84,9.839999 a 0.49,0.49 0 0 0 0,0.11 0.54,0.54 0 0 0 0.72,0.25 c 0.74,-0.26 0.49,-1.26 1,-1.73 a 3.31,3.31 0 0 1 -0.28,1.42 c -0.17,0.27 -0.42,0.62 -0.74,0.62 a 1.32,1.32 0 0 0 1.43,0 c 0.43,-0.43 0.4,-1.37 0.71,-2 0.13,-0.22 0.28,-0.55 0.57,-0.55 h 0.05 a 0.14,0.14 0 0 1 0.09,0.19 c -0.84,0.55 -0.34,1.66 -0.69,2.42 a 0.72,0.72 0 0 1 -0.67,0.45 c 0.17,0.28 0.69,0.21 1,0.12 a 2.7,2.7 0 0 1 -0.25,0.34 c 1.8,0 1.1,-1.67 1.47,-2.47 a 1,1 0 0 1 0.81,-0.61 v 0.06 c -0.94,0.75 0.06,2.12 -0.79,2.9 a 1.27,1.27 0 0 1 -0.42,0.31 c 0.47,0.23 1,-0.2 1.09,-0.47 a 1,1 0 0 1 -0.18,0.65 0.88,0.88 0 0 0 0.55,-0.15 c 1.08,-0.65 0.06,-1.81 0.54,-2.73 a 1.12,1.12 0 0 1 0.8,-0.63 c 0.07,0 0,0.1 0,0.16 -1,0.92 0.31,2.45 -0.78,3.39 0.44,0.21 0.93,-0.34 1.21,-0.72 a 5.46,5.46 0 0 1 -0.1,0.69 0.63,0.63 0 0 0 0.56,-0.29 1.88,1.88 0 0 0 0.1,-1.28 c 0,-0.7 -0.16,-1.4 0.38,-1.88 v 0 a 0.31,0.31 0 0 1 0.44,0 c -0.06,0.07 -0.16,0 -0.23,0.14 -0.67,1.13 0.62,2.23 -0.22,3.3 h 0.13 c 0.39,0 0.69,-0.44 0.86,-0.7 a 0.91,0.91 0 0 1 -0.2,0.66 v 0 a 1,1 0 0 0 0.92,-0.62 c 0.43,-0.95 -0.44,-1.66 -0.35,-2.57 0.07,-0.15 0.16,-0.4 0.31,-0.4 -0.11,1.22 1.16,1.65 0.56,3.17 0.32,0 0.7,-0.75 0.7,-0.75 a 2,2 0 0 0 0,0.65 2.19,2.19 0 0 0 0.61,-2.18 c -0.14,-1 -1.41,-1.17 -1.41,-2.17 a 1.64,1.64 0 0 1 -1,-0.08 1.49,1.49 0 0 1 -1.55,0 1.69,1.69 0 0 1 -1.19,0.08 1,1 0 0 1 -0.62,-0.879999 2.4,2.4 0 0 0 0.53,0.369999 1.62,1.62 0 0 0 1.65,-0.479999 c 0.2,0.13 0.15,0.37 -0.08,0.509999 0.65,0.35 1.11,-0.179999 1.65,-0.589999 0.3,0 0.21,0.42 -0.12,0.589999 a 0.8,0.8 0 0 0 0.57,0 c 0.64,-0.329999 0.48,-0.939999 0.4,-1.329999 l -0.19,-0.06 c -0.45,0.45 -1,0.1 -1.61,0.18 a 2.76,2.76 0 0 0 -1.24,0.16 1.19,1.19 0 0 1 -1.24,-0.57 1.7,1.7 0 0 1 0.14,-1.34 2.11,2.11 0 0 1 1.73,-0.92 c 1,0.15 2.34,0.49 3.34,0 a 1.42,1.42 0 0 0 0.68,-1.35 h -0.46 c -0.23,0 -0.3,-0.25 -0.23,-0.4 l 0.62,0.06 a 0.75,0.75 0 0 0 0.38,-0.63 l -2.14,-0.74 c -0.22,-0.22 -0.43,-0.6 -0.74,-0.72 l -5.7,-0.07 c -0.13,0.08 -0.21,0.29 -0.37,0.36 l -1.72,-0.56 a 3,3 0 0 0 0.67,1.26 1.06,1.06 0 0 0 1,0.28 c 0.32,0 0.58,-0.65 0.87,-0.2 a 3.14,3.14 0 0 0 3.3,-0.45 c 0.65,0 1.28,0.49 1.91,0.11 -0.07,-0.44 -0.63,-0.35 -0.94,-0.51 a 0.92,0.92 0 0 1 0.92,0 c 0.22,0.16 0.53,0.36 0.45,0.68 a 1.35,1.35 0 0 1 -1.18,0.31 0.78,0.78 0 0 1 -0.31,0.88 2.48,2.48 0 0 1 -2.19,0 c -0.48,-0.62 -1.41,-0.24 -2,-0.49 v 3.74 a 4.18,4.18 0 0 1 -0.38,2 c -0.62,0.999999 -1.93,0.559999 -2.71,1.199999 a 1.23,1.23 0 0 0 -0.25,1.09 1.15,1.15 0 0 1 -0.4,1.29 0.61,0.61 0 0 1 -0.55,0.08 z m 4.15,-12.149999 h 4.75 a 1,1 0 0 0 1,-0.7 2.74,2.74 0 0 0 0.39,0.09 1.25,1.25 0 0 1 0.76,-0.75 c 0,-0.15 -0.4,-0.23 -0.66,-0.15 a 1.43,1.43 0 0 0 -0.73,0.6 v 0 a 0.81,0.81 0 0 0 -1.11,-0.28 c -0.12,0.21 0.61,0.51 1,0.51 0,0.32 -0.2,0.34 -0.36,0.41 a 2.83,2.83 0 0 1 -2.21,-0.13 0.59,0.59 0 0 1 -0.24,-0.52 c 0,0 0.34,0.21 0.58,0.1 a 0.47,0.47 0 0 0 0.36,-0.36 0.55,0.55 0 0 0 -0.59,-0.22 c -0.15,0.05 -0.31,0.35 -0.59,0.26 a 0.8,0.8 0 0 0 0.18,-0.41 0.41,0.41 0 0 0 -0.31,-0.32 c -0.12,0.06 -0.31,0.12 -0.31,0.33 a 0.94,0.94 0 0 0 0.13,0.4 c -0.25,0.1 -0.43,-0.19 -0.63,-0.25 a 0.61,0.61 0 0 0 -0.63,0.21 0.53,0.53 0 0 0 0.24,0.36 c 0.26,0.16 0.54,-0.09 0.77,-0.09 -0.05,0.19 -0.08,0.43 -0.29,0.54 a 3.89,3.89 0 0 1 -2.19,0.06 v 0 a 0.34,0.34 0 0 1 -0.24,-0.43 l 0.48,-0.11 c 0.15,-0.06 0.43,-0.19 0.31,-0.39 a 0.89,0.89 0 0 0 -1,0.34 c -0.23,-0.1 -0.28,-0.42 -0.54,-0.54 a 0.73,0.73 0 0 0 -0.78,0.17 1.22,1.22 0 0 1 0.76,0.61 c 0.15,0 0.28,-0.2 0.38,-0.12 0.1,0.08 0.1,0.28 0.1,0.39 h -0.09 c 0.19,0.45 0.85,0.35 1.31,0.35 z m -0.57,7.84 c -0.28,0 -0.62,0.17 -0.88,0 0.36,-0.2 1,-0.35 1,-0.85 -0.82,0.52 -1.94,0.34 -2.61,1.2 h 0.06 a 1.74,1.74 0 0 0 -0.29,1.129999 c 0.49,-0.61 1.38,-0.33 2,-0.679999 0.32,-0.17 0.72,-0.48 0.72,-0.84 z m 0.21,-3.22 c -0.25,0 -0.58,0.16 -0.82,0 a 1,1 0 0 0 0.79,-0.55 8.84,8.84 0 0 0 -2.27,0.83 1.32,1.32 0 0 0 -0.55,1.33 c 0.71,-1.17 2.28,-0.42 2.85,-1.61 z m 5.62,-3.76 -0.41,-0.37 0.4,-0.28 -6.15,-0.06 0.29,0.32 -0.29,0.34 z m -5.56,5.32 a 4.69,4.69 0 0 1 -1.06,0 c 0.32,-0.16 0.77,-0.31 0.92,-0.68 -0.75,0.33 -1.56,0.11 -2.06,0.56 a 2,2 0 0 0 -0.82,1.74 h 0.15 c 0.69,-1.18 2.34,-0.37 2.9,-1.65 z m -0.06,-2.75 h -0.22 a 2.41,2.41 0 0 1 -0.76,0 c 0.28,-0.2 0.73,-0.14 0.9,-0.51 -0.75,0.36 -1.83,-0.05 -2.39,0.77 v 0 a 0.83,0.83 0 0 0 -0.26,0.94 c 0.61,-1.01 1.95,-0.49 2.73,-1.2 z m -10.81,0.48 c 0.12,0.07 0.34,0.17 0.46,0 a 0.88,0.88 0 0 0 0,-0.71 c -0.09,-0.23 -0.53,-0.69 -0.71,-0.23 v 0 a 1,1 0 0 0 0.21,0.94 z m 16.09,-5.94 a 1.7,1.7 0 0 0 -1.85,-0.74 v 1.11 a 1,1 0 0 1 0.77,0.43 2.41,2.41 0 0 1 -0.56,0.71 2.85,2.85 0 0 0 1.42,0 h 0.08 c -0.24,-0.17 -0.61,-0.44 -0.61,-0.78 a 1.66,1.66 0 0 1 1,-0.22 1,1 0 0 0 -0.29,-0.51 z m -14.48,5.51 -0.59,-0.28 a 1.74,1.74 0 0 1 0.17,0.59 0.63,0.63 0 0 1 0.42,-0.31 z m -2.8,1.69 c -0.14,-0.23 -0.58,-0.46 -0.72,-0.29 -0.14,0.17 0,0.41 0,0.57 v 0 a 0.55,0.55 0 0 0 0.54,0.35 c 0.28,-0.12 0.28,-0.4 0.18,-0.63 z m 0.71,-0.11 a 1.38,1.38 0 0 0 0.6,0.28 1,1 0 0 0 -0.17,-0.66 0.5,0.5 0 0 1 -0.47,0.38 z m 3.87,0.1 0.59,-0.51 c -0.19,-0.2 -1.48,-1.35 -1.48,-1.35 l 3.74,-4 4.84,-5.32 1.28,-1.53 h -0.12 l -2.9,2.58 -5.42,5.14 -2.25,2.25 c -0.49,-0.5 -0.87,-1.05 -1.31,-1.57 h -0.08 l -0.67,0.6 1.28,1.17 a 4.67,4.67 0 0 1 2.46,2.54 z m -2.25,-0.17 v -0.77 h -0.06 a 2.45,2.45 0 0 1 -0.14,0.8 l -0.47,-0.17 a 2.48,2.48 0 0 0 0.06,0.54 4.93,4.93 0 0 0 0.57,-0.4 z m -0.84,-0.64 a 1.22,1.22 0 0 0 0.51,0.27 1.24,1.24 0 0 0 -0.11,-0.57 0.52,0.52 0 0 1 -0.44,0.3 z m 55.51,-21.73 a 41.71,41.71 0 0 1 7.56,-0.63 c 4.14,0 6.8,0.67 8.8,2.2 a 6.21,6.21 0 0 1 2.639999,5.36 c 0,2.91 -1.999999,5.47 -5.419999,6.64 v 0.09 c 3,0.71 6.609999,3.09 6.609999,7.58 a 8,8 0 0 1 -2.699999,6.059999 c -2.23,1.92 -5.85,2.82 -11.08,2.82 a 52.91,52.91 0 0 1 -6.41,-0.36 z m 4.12,12.4 h 3.75 c 4.38,0 7,-2.16 7,-5.07 0,-3.55 -2.86,-4.94 -7,-4.94 a 18.69,18.69 0 0 0 -3.66,0.27 z m 0,14.489999 a 22.36,22.36 0 0 0 3.47,0.18 c 4.28,0 8.23,-1.479999 8.23,-5.879999 0,-4.12 -3.76,-5.83 -8.28,-5.83 h -3.42 z M 127.34,58.322965 c 0,7.999999 -5.9,11.539999 -11.46,11.539999 -6.24,0 -11,-4.31 -11,-11.179999 0,-7.26 5,-11.53 11.43,-11.53 6.43,0 11.03,4.51 11.03,11.17 z m -18.27,0.23 c 0,4.76 2.9,8.339999 7,8.339999 4.1,0 7,-3.539999 7,-8.429999 0,-3.68 -1.95,-8.35 -6.9,-8.35 -4.95,0 -7.1,4.29 -7.1,8.42 z m 21.53,6.77 a 11.33,11.33 0 0 0 5.52,1.569999 c 3,0 4.47,-1.429999 4.47,-3.229999 0,-1.8 -1.19,-2.91 -4.28,-4 -4.14,-1.39 -6.09,-3.54 -6.09,-6.15 0,-3.5 3,-6.37 7.94,-6.37 a 12,12 0 0 1 5.66,1.35 l -1,2.87 a 9.39,9.39 0 0 0 -4.71,-1.26 c -2.47,0 -3.85,1.35 -3.85,3 0,1.65 1.38,2.6 4.37,3.67 4,1.44 6,3.33 6,6.56 0,3.809999 -3.14,6.549999 -8.61,6.549999 a 13.69,13.69 0 0 1 -6.46,-1.56 z m 23.64,-22.9 v 5.21 h 6 v 3 h -6 v 11.69 c 0,2.7 0.81,4.219999 3.14,4.219999 a 8.22,8.22 0 0 0 2.42,-0.27 l 0.2,3 a 10.41,10.41 0 0 1 -3.71,0.59 6,6 0 0 1 -4.54,-1.71 c -1.19,-1.17 -1.62,-3.089999 -1.62,-5.649999 v -11.87 h -3.57 v -3 h 3.57 v -4 z m 26,21.72 a 29.23,29.23 0 0 0 0.38,5.199999 h -3.8 l -0.34,-2.73 h -0.14 a 8.77,8.77 0 0 1 -7,3.23 c -4.66,0 -7,-3.1 -7,-6.239999 0,-5.25 5,-8.12 13.84,-8.08 v -0.45 c 0,-1.79 -0.52,-5 -5.23,-5 a 12,12 0 0 0 -6,1.61 l -0.95,-2.6 a 15,15 0 0 1 7.56,-1.93 c 7,0 8.75,4.53 8.75,8.89 z m -4,-5.88 c -4.57,-0.09 -9.75,0.67 -9.75,4.89 0,2.559999 1.81,3.769999 4,3.769999 a 5.7,5.7 0 0 0 5.49,-3.599999 3.86,3.86 0 0 0 0.24,-1.26 z m 29.6,-20.77 v 26.24 c 0,1.929999 0,4.129999 0.19,5.609999 h -3.79 l -0.19,-3.77 h -0.09 a 8.6,8.6 0 0 1 -7.85,4.27 c -5.57,0 -9.85,-4.449999 -9.85,-10.999999 0,-7.23 4.71,-11.67 10.33,-11.67 3.51,0 5.89,1.57 6.94,3.32 h 0.09 v -13 z m -4.19,19 a 6.18,6.18 0 0 0 -0.19,-1.66 6.07,6.07 0 0 0 -6,-4.58 c -4.32,0 -6.89,3.59 -6.89,8.39 0,4.4 2.28,7.999999 6.8,7.999999 a 6.25,6.25 0 0 0 6.32,-6.149999 v -0.24 z m 9.1,8.83 a 11.26,11.26 0 0 0 5.51,1.569999 c 3,0 4.47,-1.429999 4.47,-3.229999 0,-1.8 -1.19,-2.91 -4.28,-4 -4.14,-1.39 -6.09,-3.54 -6.09,-6.15 0,-3.5 3,-6.37 8,-6.37 a 12,12 0 0 1 5.7,1.35 l -1.1,2.83 a 9.32,9.32 0 0 0 -4.72,-1.23 c -2.47,0 -3.85,1.35 -3.85,3 0,1.65 1.36,2.6 4.36,3.67 4,1.44 6,3.33 6,6.56 0,3.809999 -3.14,6.549999 -8.61,6.549999 a 13.79,13.79 0 0 1 -6.39,-1.55 z M 81.550001,74.322964 h 4.2 v 13.639997 h 0.1 c 1.47,-2.42 4.14,-4 7.85,-4 5.7,0 9.749999,4.48 9.699999,11.08 0,7.749999 -5.179999,11.599999 -10.319999,11.599999 -3.33,0 -6,-1.21 -7.71,-4.08 h -0.1 l -0.19,3.58 h -3.64 c 0.09,-1.47 0.19,-3.67 0.19,-5.59 z m 4.2,23.169997 a 7.67,7.67 0 0 0 0.19,1.44 6.41,6.41 0 0 0 6.3,4.559999 c 4.38,0 7,-3.36 7,-8.329999 0,-4.35 -2.37,-8.07 -6.85,-8.07 a 6.62,6.62 0 0 0 -6.37,4.84 7.37,7.37 0 0 0 -0.27,1.64 z m 42.999999,-2.32 c 0,7.999999 -5.89,11.509999 -11.46,11.509999 -6.23,0 -11,-4.3 -11,-11.159999 0,-7.26 5,-11.52 11.42,-11.52 6.53,-0.03 10.98,4.49 10.98,11.14 z m -18.27,0.18 c 0,4.749999 2.91,8.329999 7,8.329999 4.09,0 7,-3.54 7,-8.419999 0,-3.68 -2,-8.34 -6.89,-8.34 -4.89,0 -7.17,4.31 -7.17,8.4 z m 22.66,-20.999997 h 4.16 v 31.799996 h -4.25 z m 26.1,26.639996 a 29.12,29.12 0 0 0 0.38,5.19 h -3.87 l -0.34,-2.73 h -0.18 a 8.77,8.77 0 0 1 -7,3.23 c -4.66,0 -7,-3.09 -7,-6.23 0,-5.239999 4.95,-8.109999 13.84,-8.059999 v -0.45 c 0,-1.8 -0.52,-5 -5.23,-5 a 11.92,11.92 0 0 0 -6,1.62 l -1,-2.61 a 14.93,14.93 0 0 1 7.56,-1.92 c 7,0 8.75,4.53 8.75,8.88 z m -4,-5.869999 c -4.57,-0.09 -9.75,0.67 -9.75,4.879999 0,2.56 1.8,3.77 3.94,3.77 a 5.72,5.72 0 0 0 5.57,-3.63 3.86,3.86 0 0 0 0.24,-1.259999 z m 29.2,7.929999 c 0,5 -1,8 -3.28,9.9 a 13.19,13.19 0 0 1 -8.41,2.54 15.48,15.48 0 0 1 -7.66,-1.8 l 1,-3 a 13.5,13.5 0 0 0 6.75,1.71 c 4.29,0 7.42,-2.11 7.42,-7.57 v -2.34 0 a 8.37,8.37 0 0 1 -7.33,3.62 c -5.7,0 -9.79,-4.56 -9.79,-10.569999 0,-7.35 5.09,-11.52 10.37,-11.52 4,0 6.18,2 7.18,3.76 h 0.06 l 0.2,-3.29 h 3.66 c -0.09,1.57 -0.19,3.32 -0.19,6 z m -4.13,-9.999999 a 5.47,5.47 0 0 0 -0.24,-1.8 6,6 0 0 0 -5.85,-4.17 c -4,0 -6.85,3.19 -6.85,8.21 0,4.26 2.28,7.789999 6.8,7.789999 a 6.08,6.08 0 0 0 5.8,-3.999999 6.55,6.55 0 0 0 0.34,-2.1 z m 12.31,3 c 0.1,5.329999 3.71,7.529999 7.9,7.529999 a 16.1,16.1 0 0 0 6.31,-1.09 l 0.72,2.82 a 19.49,19.49 0 0 1 -7.66,1.39 c -7.09,0 -11.32,-4.44 -11.32,-10.999999 0,-6.56 4.09,-11.7 10.8,-11.7 7.51,0 9.51,6.23 9.51,10.22 a 16.1,16.1 0 0 1 -0.14,1.84 z m 12.28,-2.82 c 0,-2.51 -1.1,-6.42 -5.81,-6.42 -4.23,0 -6.08,3.68 -6.42,6.42 z m 13.18,-13.999997 v 5.259997 h 6 v 3 h -6 v 11.68 c 0,2.679999 0.81,4.209999 3.14,4.209999 a 8.28,8.28 0 0 0 2.43,-0.27 l 0.19,2.95 a 10.41,10.41 0 0 1 -3.71,0.59 6,6 0 0 1 -4.52,-1.7 c -1.19,-1.17 -1.62,-3.1 -1.62,-5.649999 v -11.81 h -3.56 v -3 h 3.56 v -3.999997 z"
     id="path5835"
     inkscape:connector-curvature="0"
     style="fill:currentColor" />
</svg>
