<?xml version="1.0" encoding="UTF-8" standalone="no"?>
<svg
   xmlns:dc="http://purl.org/dc/elements/1.1/"
   xmlns:cc="http://creativecommons.org/ns#"
   xmlns:rdf="http://www.w3.org/1999/02/22-rdf-syntax-ns#"
   xmlns:svg="http://www.w3.org/2000/svg"
   xmlns="http://www.w3.org/2000/svg"
   xmlns:sodipodi="http://sodipodi.sourceforge.net/DTD/sodipodi-0.dtd"
   xmlns:inkscape="http://www.inkscape.org/namespaces/inkscape"
   viewBox="0 0 497.12 330.72"
   version="1.1"
   id="svg5821"
   sodipodi:docname="logo-future-europe.svg"
   width="478"
   height="318"
   inkscape:version="0.92.3 (2405546, 2018-03-11)">
  <metadata
     id="metadata5825">
    <rdf:RDF>
      <cc:Work
         rdf:about="">
        <dc:format>image/svg+xml</dc:format>
        <dc:type
           rdf:resource="http://purl.org/dc/dcmitype/StillImage" />
        <dc:title></dc:title>
      </cc:Work>
    </rdf:RDF>
  </metadata>
  <sodipodi:namedview
     pagecolor="#ffffff"
     bordercolor="#666666"
     borderopacity="1"
     objecttolerance="10"
     gridtolerance="10"
     guidetolerance="10"
     inkscape:pageopacity="0"
     inkscape:pageshadow="2"
     inkscape:window-width="1206"
     inkscape:window-height="868"
     id="namedview5823"
     showgrid="false"
     scale-x="1.04"
     inkscape:zoom="1.0047536"
     inkscape:cx="298.73173"
     inkscape:cy="58.363839"
     inkscape:window-x="0"
     inkscape:window-y="0"
     inkscape:window-maximized="0"
     inkscape:current-layer="svg5821" />
  <defs
     id="defs5676">
    <style
       id="style5674">.cls-1{fill:#484848;}.cls-2{fill:#164194;stroke:#fff;stroke-miterlimit:10;}.cls-3{fill:#ffed00;}</style>
  </defs>
  <g
     id="Layer_1"
     data-name="Layer 1"
     transform="translate(3.5999817,90.858348)">
    <path
       class="cls-1"
       d="m 262,23.81 a 11.37,11.37 0 0 1 -3.63,7.59 11.88,11.88 0 0 1 -8.12,2.67 10.9,10.9 0 0 1 -8.8,-3.94 q -3.32,-3.93 -3.31,-10.54 v -3 A 17.66,17.66 0 0 1 239.7,9 11.54,11.54 0 0 1 244.08,4 12.16,12.16 0 0 1 250.63,2.24 11.19,11.19 0 0 1 258.55,5 11.5,11.5 0 0 1 262,12.61 h -4.11 a 8.86,8.86 0 0 0 -2.31,-5.38 7,7 0 0 0 -5,-1.66 7.31,7.31 0 0 0 -6.14,2.89 c -1.48,1.94 -2.22,4.68 -2.22,8.25 v 3 a 13.73,13.73 0 0 0 2.1,8 6.83,6.83 0 0 0 5.9,3 7.94,7.94 0 0 0 5.23,-1.54 c 1.21,-1 2,-2.83 2.41,-5.38 z"
       id="path5678"
       inkscape:connector-curvature="0"
       style="fill:#484848" />
    <path
       class="cls-1"
       d="m 265.73,21.92 a 13.55,13.55 0 0 1 1.33,-6.09 9.87,9.87 0 0 1 3.7,-4.18 10.07,10.07 0 0 1 5.42,-1.46 9.71,9.71 0 0 1 7.61,3.25 12.52,12.52 0 0 1 2.91,8.67 v 0.27 a 13.7,13.7 0 0 1 -1.29,6 9.76,9.76 0 0 1 -3.69,4.16 10.21,10.21 0 0 1 -5.5,1.49 9.67,9.67 0 0 1 -7.59,-3.26 12.44,12.44 0 0 1 -2.9,-8.62 z m 4,0.46 a 9.9,9.9 0 0 0 1.77,6.16 6,6 0 0 0 9.53,0 10.73,10.73 0 0 0 1.77,-6.58 9.85,9.85 0 0 0 -1.8,-6.15 5.74,5.74 0 0 0 -4.78,-2.35 5.66,5.66 0 0 0 -4.71,2.32 q -1.83,2.28 -1.82,6.6 z"
       id="path5680"
       inkscape:connector-curvature="0"
       style="fill:#484848" />
    <path
       class="cls-1"
       d="m 294.88,10.61 0.13,2.9 a 8.38,8.38 0 0 1 6.9,-3.32 q 7.29,0 7.36,8.23 v 15.23 h -3.94 V 18.4 a 5.24,5.24 0 0 0 -1.14,-3.68 4.53,4.53 0 0 0 -3.48,-1.19 5.71,5.71 0 0 0 -3.36,1 7,7 0 0 0 -2.26,2.68 v 16.44 h -3.93 v -23 z"
       id="path5682"
       inkscape:connector-curvature="0"
       style="fill:#484848" />
    <path
       class="cls-1"
       d="m 316.21,33.65 v -20 h -3.64 v -3.04 h 3.64 V 8.25 a 7.85,7.85 0 0 1 2,-5.73 7.46,7.46 0 0 1 5.6,-2 10.38,10.38 0 0 1 2.7,0.36 L 326.28,4 a 11.18,11.18 0 0 0 -2.13,-0.19 3.82,3.82 0 0 0 -3,1.12 4.54,4.54 0 0 0 -1,3.22 v 2.43 h 4.91 v 3.05 h -4.91 v 20 z"
       id="path5684"
       inkscape:connector-curvature="0"
       style="fill:#484848" />
    <path
       class="cls-1"
       d="M 337.67,34.07 A 10,10 0 0 1 330.05,31 11.44,11.44 0 0 1 327.11,22.77 V 22 a 13.75,13.75 0 0 1 1.31,-6.12 10.17,10.17 0 0 1 3.66,-4.21 9.17,9.17 0 0 1 5.1,-1.52 8.63,8.63 0 0 1 7,3 c 1.66,2 2.49,4.8 2.49,8.48 v 1.64 h -15.6 a 8.15,8.15 0 0 0 2,5.5 6.24,6.24 0 0 0 4.84,2.1 6.91,6.91 0 0 0 3.53,-0.85 8.92,8.92 0 0 0 2.56,-2.27 l 2.4,1.87 a 9.66,9.66 0 0 1 -8.73,4.45 z m -0.49,-20.65 a 5.26,5.26 0 0 0 -4,1.74 8.48,8.48 0 0 0 -2,4.86 h 11.54 v -0.3 a 7.45,7.45 0 0 0 -1.62,-4.65 4.93,4.93 0 0 0 -3.92,-1.65 z"
       id="path5686"
       inkscape:connector-curvature="0"
       style="fill:#484848" />
    <path
       class="cls-1"
       d="M 362.13,14.14 A 13.11,13.11 0 0 0 360.19,14 5.19,5.19 0 0 0 354.93,17.3 V 33.65 H 351 v -23 h 3.83 l 0.07,2.66 a 6.12,6.12 0 0 1 5.49,-3.08 4,4 0 0 1 1.75,0.29 z"
       id="path5688"
       inkscape:connector-curvature="0"
       style="fill:#484848" />
    <path
       class="cls-1"
       d="M 374.53,34.07 A 10.07,10.07 0 0 1 366.91,31 11.44,11.44 0 0 1 364,22.77 V 22 a 13.89,13.89 0 0 1 1.31,-6.12 10.31,10.31 0 0 1 3.66,-4.21 9.17,9.17 0 0 1 5.1,-1.52 8.64,8.64 0 0 1 7,3 c 1.66,2 2.49,4.8 2.49,8.48 v 1.64 h -15.65 a 8.2,8.2 0 0 0 2,5.5 6.26,6.26 0 0 0 4.85,2.1 6.94,6.94 0 0 0 3.53,-0.85 8.75,8.75 0 0 0 2.53,-2.26 l 2.41,1.87 a 9.67,9.67 0 0 1 -8.7,4.44 z M 374,13.42 a 5.24,5.24 0 0 0 -4,1.74 8.41,8.41 0 0 0 -2,4.84 h 11.54 V 19.7 A 7.45,7.45 0 0 0 378,15.07 4.94,4.94 0 0 0 374,13.42 Z"
       id="path5690"
       inkscape:connector-curvature="0"
       style="fill:#484848" />
    <path
       class="cls-1"
       d="m 391.58,10.61 0.13,2.9 a 8.38,8.38 0 0 1 6.9,-3.32 q 7.31,0 7.37,8.23 V 33.65 H 402 V 18.4 a 5.34,5.34 0 0 0 -1.14,-3.68 4.56,4.56 0 0 0 -3.48,-1.19 5.72,5.72 0 0 0 -3.37,1 6.93,6.93 0 0 0 -2.25,2.68 v 16.44 h -3.94 v -23 z"
       id="path5692"
       inkscape:connector-curvature="0"
       style="fill:#484848" />
    <path
       class="cls-1"
       d="m 420.69,30.86 a 5.69,5.69 0 0 0 3.68,-1.28 4.53,4.53 0 0 0 1.75,-3.19 h 3.72 a 7.08,7.08 0 0 1 -1.36,3.76 8.92,8.92 0 0 1 -3.35,2.85 9.68,9.68 0 0 1 -4.44,1.06 9.49,9.49 0 0 1 -7.48,-3.14 c -1.86,-2.09 -2.78,-5 -2.78,-8.59 v -0.66 a 13.89,13.89 0 0 1 1.23,-6 9.47,9.47 0 0 1 3.55,-4.07 10.11,10.11 0 0 1 5.46,-1.44 9.23,9.23 0 0 1 6.44,2.32 8.25,8.25 0 0 1 2.73,6 h -3.72 a 5.47,5.47 0 0 0 -1.69,-3.67 5.27,5.27 0 0 0 -3.76,-1.44 5.51,5.51 0 0 0 -4.67,2.21 10.14,10.14 0 0 0 -1.65,6.25 v 0.75 a 9.92,9.92 0 0 0 1.65,6.13 5.54,5.54 0 0 0 4.69,2.15 z"
       id="path5694"
       inkscape:connector-curvature="0"
       style="fill:#484848" />
    <path
       class="cls-1"
       d="M 443.52,34.07 A 10,10 0 0 1 435.9,31 11.44,11.44 0 0 1 433,22.77 V 22 a 13.75,13.75 0 0 1 1.31,-6.12 10.17,10.17 0 0 1 3.66,-4.21 9.17,9.17 0 0 1 5.1,-1.52 8.63,8.63 0 0 1 7,3 c 1.66,2 2.49,4.8 2.49,8.48 v 1.64 H 436.9 a 8.15,8.15 0 0 0 2,5.5 6.24,6.24 0 0 0 4.84,2.1 6.91,6.91 0 0 0 3.53,-0.85 8.92,8.92 0 0 0 2.54,-2.26 l 2.4,1.87 a 9.66,9.66 0 0 1 -8.69,4.44 z M 443,13.42 a 5.26,5.26 0 0 0 -4,1.74 8.48,8.48 0 0 0 -2,4.84 h 11.54 V 19.7 A 7.45,7.45 0 0 0 446.92,15.05 4.93,4.93 0 0 0 443,13.42 Z"
       id="path5696"
       inkscape:connector-curvature="0"
       style="fill:#484848" />
    <path
       class="cls-1"
       d="m 237.56,74.92 a 13.55,13.55 0 0 1 1.33,-6.09 9.89,9.89 0 0 1 3.71,-4.18 10,10 0 0 1 5.4,-1.46 9.7,9.7 0 0 1 7.61,3.25 12.52,12.52 0 0 1 2.91,8.67 v 0.27 a 13.7,13.7 0 0 1 -1.29,6 9.74,9.74 0 0 1 -3.68,4.16 10.23,10.23 0 0 1 -5.5,1.49 9.64,9.64 0 0 1 -7.59,-3.26 12.44,12.44 0 0 1 -2.91,-8.62 z m 4,0.46 a 9.84,9.84 0 0 0 1.78,6.16 6,6 0 0 0 9.53,0 10.79,10.79 0 0 0 1.76,-6.58 9.85,9.85 0 0 0 -1.8,-6.15 5.74,5.74 0 0 0 -4.83,-2.39 5.64,5.64 0 0 0 -4.7,2.32 10.71,10.71 0 0 0 -1.78,6.64 z"
       id="path5698"
       inkscape:connector-curvature="0"
       style="fill:#484848" />
    <path
       class="cls-1"
       d="m 266.72,63.61 0.12,2.9 a 8.38,8.38 0 0 1 6.9,-3.32 q 7.31,0 7.37,8.23 v 15.23 h -3.94 V 71.4 a 5.29,5.29 0 0 0 -1.17,-3.68 4.54,4.54 0 0 0 -3.48,-1.19 5.66,5.66 0 0 0 -3.36,1 6.87,6.87 0 0 0 -2.26,2.68 V 86.65 H 263 v -23 z"
       id="path5700"
       inkscape:connector-curvature="0"
       style="fill:#484848" />
    <path
       class="cls-1"
       d="m 303.18,58 v 5.58 h 4.3 v 3 h -4.3 V 81 a 3.24,3.24 0 0 0 0.58,2.08 2.41,2.41 0 0 0 2,0.69 9.6,9.6 0 0 0 1.87,-0.26 v 3.18 a 11.5,11.5 0 0 1 -3,0.42 4.88,4.88 0 0 1 -4,-1.6 6.8,6.8 0 0 1 -1.34,-4.53 V 66.66 h -4.2 v -3 h 4.2 V 58 Z"
       id="path5702"
       inkscape:connector-curvature="0"
       style="fill:#484848" />
    <path
       class="cls-1"
       d="m 315.24,66.4 a 8.39,8.39 0 0 1 6.81,-3.21 q 7.31,0 7.37,8.23 v 15.23 h -3.94 V 71.4 a 5.24,5.24 0 0 0 -1.14,-3.68 4.53,4.53 0 0 0 -3.48,-1.19 5.66,5.66 0 0 0 -3.36,1 6.87,6.87 0 0 0 -2.26,2.68 V 86.65 H 311.3 V 54 h 3.94 z"
       id="path5704"
       inkscape:connector-curvature="0"
       style="fill:#484848" />
    <path
       class="cls-1"
       d="M 344.41,87.07 A 10.07,10.07 0 0 1 336.79,84 11.44,11.44 0 0 1 333.85,75.77 V 75 a 13.89,13.89 0 0 1 1.31,-6.12 10.17,10.17 0 0 1 3.66,-4.21 9.17,9.17 0 0 1 5.1,-1.52 8.63,8.63 0 0 1 7,3 c 1.66,2 2.49,4.8 2.49,8.48 v 1.64 h -15.6 a 8.15,8.15 0 0 0 2,5.5 6.24,6.24 0 0 0 4.84,2.1 7,7 0 0 0 3.54,-0.85 8.88,8.88 0 0 0 2.53,-2.26 l 2.4,1.87 a 9.66,9.66 0 0 1 -8.71,4.44 z m -0.49,-20.65 a 5.24,5.24 0 0 0 -4,1.74 8.34,8.34 0 0 0 -2,4.86 h 11.53 v -0.3 a 7.51,7.51 0 0 0 -1.61,-4.65 5,5 0 0 0 -3.92,-1.65 z"
       id="path5706"
       inkscape:connector-curvature="0"
       style="fill:#484848" />
    <path
       class="cls-1"
       d="m 387.18,74 h -12.26 v 12.65 h -6.39 v -31 h 20.18 v 5.17 h -13.79 v 8 h 12.26 z"
       id="path5708"
       inkscape:connector-curvature="0"
       style="fill:#484848" />
    <path
       class="cls-1"
       d="m 404.66,84.3 a 7.71,7.71 0 0 1 -6.31,2.77 7.27,7.27 0 0 1 -5.65,-2.13 q -1.95,-2.13 -2,-6.24 V 63.61 h 6.15 v 14.9 c 0,2.4 1.1,3.6 3.28,3.6 2.18,0 3.52,-0.72 4.3,-2.17 V 63.61 h 6.18 v 23 h -5.79 z"
       id="path5710"
       inkscape:connector-curvature="0"
       style="fill:#484848" />
    <path
       class="cls-1"
       d="m 422.43,58 v 5.66 h 3.94 v 4.51 h -3.94 v 11.5 a 2.73,2.73 0 0 0 0.49,1.83 2.44,2.44 0 0 0 1.87,0.55 10.83,10.83 0 0 0 1.81,-0.14 v 4.66 a 12.66,12.66 0 0 1 -3.73,0.55 q -6.47,0 -6.6,-6.53 V 68.12 h -3.36 v -4.51 h 3.36 V 58 Z"
       id="path5712"
       inkscape:connector-curvature="0"
       style="fill:#484848" />
    <path
       class="cls-1"
       d="m 443.09,84.3 a 7.7,7.7 0 0 1 -6.3,2.77 7.29,7.29 0 0 1 -5.66,-2.13 q -2,-2.13 -2,-6.24 V 63.61 h 6.16 v 14.9 q 0,3.6 3.27,3.6 3.27,0 4.3,-2.17 V 63.61 h 6.18 v 23 h -5.79 z"
       id="path5714"
       inkscape:connector-curvature="0"
       style="fill:#484848" />
    <path
       class="cls-1"
       d="m 466.4,69.38 a 17.29,17.29 0 0 0 -2.21,-0.17 q -3.49,0 -4.58,2.36 v 15.08 h -6.15 v -23 h 5.81 l 0.17,2.75 a 5.7,5.7 0 0 1 5.13,-3.17 6.65,6.65 0 0 1 1.92,0.27 z"
       id="path5716"
       inkscape:connector-curvature="0"
       style="fill:#484848" />
    <path
       class="cls-1"
       d="M 479.51,87.07 A 11.27,11.27 0 0 1 471.26,84 11,11 0 0 1 468.08,75.72 v -0.59 a 13.82,13.82 0 0 1 1.34,-6.21 9.87,9.87 0 0 1 3.8,-4.22 10.72,10.72 0 0 1 5.61,-1.47 9.55,9.55 0 0 1 7.44,3 q 2.72,3 2.71,8.45 v 2.51 h -14.67 a 5.74,5.74 0 0 0 1.8,3.62 5.43,5.43 0 0 0 3.8,1.36 6.64,6.64 0 0 0 5.56,-2.58 l 3,3.39 a 9.18,9.18 0 0 1 -3.74,3 12.18,12.18 0 0 1 -5.22,1.09 z m -0.7,-18.92 a 3.84,3.84 0 0 0 -3,1.24 6.38,6.38 0 0 0 -1.46,3.55 h 8.56 v -0.5 a 4.57,4.57 0 0 0 -1.11,-3.17 4,4 0 0 0 -2.99,-1.12 z"
       id="path5718"
       inkscape:connector-curvature="0"
       style="fill:#484848" />
    <path
       class="cls-1"
       d="m 237.56,127.92 a 13.55,13.55 0 0 1 1.33,-6.09 9.89,9.89 0 0 1 3.71,-4.18 10,10 0 0 1 5.41,-1.46 9.7,9.7 0 0 1 7.61,3.25 12.52,12.52 0 0 1 2.91,8.67 v 0.27 a 13.7,13.7 0 0 1 -1.29,6 9.74,9.74 0 0 1 -3.68,4.16 10.23,10.23 0 0 1 -5.5,1.49 9.64,9.64 0 0 1 -7.59,-3.26 12.44,12.44 0 0 1 -2.91,-8.62 z m 4,0.46 a 9.84,9.84 0 0 0 1.78,6.16 6,6 0 0 0 9.53,0 10.79,10.79 0 0 0 1.76,-6.58 9.85,9.85 0 0 0 -1.8,-6.15 5.74,5.74 0 0 0 -4.78,-2.35 5.64,5.64 0 0 0 -4.7,2.32 10.71,10.71 0 0 0 -1.83,6.6 z"
       id="path5720"
       inkscape:connector-curvature="0"
       style="fill:#484848" />
    <path
       class="cls-1"
       d="m 264.2,139.65 v -20 h -3.64 v -3 h 3.64 v -2.36 a 7.85,7.85 0 0 1 2,-5.73 7.45,7.45 0 0 1 5.59,-2 10.46,10.46 0 0 1 2.71,0.36 l -0.21,3.17 a 11.18,11.18 0 0 0 -2.13,-0.19 3.82,3.82 0 0 0 -3,1.12 4.54,4.54 0 0 0 -1.05,3.22 v 2.43 h 4.92 v 3 h -4.92 v 20 z"
       id="path5722"
       inkscape:connector-curvature="0"
       style="fill:#484848" />
    <path
       class="cls-1"
       d="m 306.62,126.17 h -12.26 v 8.34 h 14.39 v 5.14 H 288 v -31 h 20.73 v 5.17 h -14.37 v 7.39 h 12.26 z"
       id="path5724"
       inkscape:connector-curvature="0"
       style="fill:#484848" />
    <path
       class="cls-1"
       d="m 325.58,137.3 a 7.7,7.7 0 0 1 -6.3,2.77 7.27,7.27 0 0 1 -5.65,-2.13 q -2,-2.13 -2,-6.24 v -15.09 h 6.15 v 14.9 q 0,3.6 3.28,3.6 c 2.08,0 3.52,-0.72 4.3,-2.17 v -16.33 h 6.17 v 23 h -5.79 z"
       id="path5726"
       inkscape:connector-curvature="0"
       style="fill:#484848" />
    <path
       class="cls-1"
       d="m 348.9,122.38 a 17.44,17.44 0 0 0 -2.22,-0.17 q -3.49,0 -4.57,2.36 v 15.08 H 336 v -23 h 5.81 l 0.18,2.75 a 5.68,5.68 0 0 1 5.13,-3.17 6.53,6.53 0 0 1 1.91,0.27 z"
       id="path5728"
       inkscape:connector-curvature="0"
       style="fill:#484848" />
    <path
       class="cls-1"
       d="m 350.54,127.92 a 13.62,13.62 0 0 1 1.32,-6.11 9.7,9.7 0 0 1 3.8,-4.16 11.06,11.06 0 0 1 5.76,-1.46 10.5,10.5 0 0 1 7.58,2.81 11.43,11.43 0 0 1 3.29,7.75 v 1.57 a 12,12 0 0 1 -3,8.51 11.48,11.48 0 0 1 -15.89,0 q -3,-3.19 -3,-8.69 z m 6.15,0.43 a 8.55,8.55 0 0 0 1.24,5 4.43,4.43 0 0 0 7,0 q 1.26,-1.71 1.26,-5.49 a 8.46,8.46 0 0 0 -1.26,-5 4.07,4.07 0 0 0 -3.53,-1.77 4,4 0 0 0 -3.49,1.75 9.54,9.54 0 0 0 -1.22,5.51 z"
       id="path5730"
       inkscape:connector-curvature="0"
       style="fill:#484848" />
    <path
       class="cls-1"
       d="m 396.58,128.34 a 13.84,13.84 0 0 1 -2.42,8.53 7.76,7.76 0 0 1 -6.52,3.2 7.2,7.2 0 0 1 -5.65,-2.43 v 10.86 h -6.15 v -31.89 h 5.71 l 0.21,2.26 a 7.22,7.22 0 0 1 5.83,-2.68 7.79,7.79 0 0 1 6.62,3.15 q 2.37,3.15 2.37,8.68 z m -6.16,-0.47 a 9.16,9.16 0 0 0 -1.13,-5 3.71,3.71 0 0 0 -3.31,-1.75 4,4 0 0 0 -4,2.22 v 9.46 a 4.11,4.11 0 0 0 4,2.28 c 3.02,0.03 4.44,-2.38 4.44,-7.21 z"
       id="path5732"
       inkscape:connector-curvature="0"
       style="fill:#484848" />
    <path
       class="cls-1"
       d="m 410.61,140.07 a 11.27,11.27 0 0 1 -8.25,-3.11 11,11 0 0 1 -3.18,-8.28 v -0.59 a 14,14 0 0 1 1.34,-6.21 9.87,9.87 0 0 1 3.8,-4.22 10.72,10.72 0 0 1 5.61,-1.47 9.55,9.55 0 0 1 7.44,3 q 2.72,3 2.71,8.45 v 2.51 h -14.66 a 5.68,5.68 0 0 0 1.79,3.62 5.46,5.46 0 0 0 3.81,1.36 6.62,6.62 0 0 0 5.55,-2.58 l 3,3.39 a 9.18,9.18 0 0 1 -3.74,3.05 12.18,12.18 0 0 1 -5.22,1.08 z m -0.7,-18.92 a 3.84,3.84 0 0 0 -3,1.24 6.38,6.38 0 0 0 -1.46,3.55 H 414 v -0.5 a 4.57,4.57 0 0 0 -1.11,-3.17 4,4 0 0 0 -2.98,-1.12 z"
       id="path5734"
       inkscape:connector-curvature="0"
       style="fill:#484848" />
    <rect
       class="cls-2"
       x="1.4400001"
       y="9"
       width="211.62"
       height="131"
       id="rect5736"
       style="fill:#164194;stroke:#ffffff;stroke-miterlimit:10" />
    <polygon
       class="cls-3"
       points="109.84,29.21 105.11,32.67 106.95,27.11 102.19,23.69 108.05,23.71 109.84,18.13 111.63,23.71 117.48,23.69 112.73,27.11 114.56,32.67 "
       id="polygon5738"
       style="fill:#ffed00" />
    <polygon
       class="cls-3"
       points="109.84,125.72 105.11,129.19 106.95,123.63 102.19,120.2 108.05,120.23 109.84,114.65 111.63,120.23 117.48,120.2 112.73,123.63 114.56,129.19 "
       id="polygon5740"
       style="fill:#ffed00" />
    <polygon
       class="cls-3"
       points="85.83,35.63 81.11,39.09 82.94,33.53 78.19,30.11 84.05,30.13 85.83,24.55 87.62,30.13 93.48,30.11 88.72,33.53 90.56,39.09 "
       id="polygon5742"
       style="fill:#ffed00" />
    <polygon
       class="cls-3"
       points="68.16,53.34 63.43,56.8 65.27,51.24 60.51,47.81 66.37,47.84 68.16,42.26 69.94,47.84 75.8,47.81 71.05,51.24 72.88,56.8 "
       id="polygon5744"
       style="fill:#ffed00" />
    <polygon
       class="cls-3"
       points="61.64,77.41 56.92,80.87 58.75,75.31 54,71.88 59.85,71.91 61.64,66.33 63.43,71.91 69.29,71.88 64.53,75.31 66.37,80.87 "
       id="polygon5746"
       style="fill:#ffed00" />
    <polygon
       class="cls-3"
       points="68.09,101.48 63.37,104.95 65.2,99.39 60.45,95.96 66.31,95.99 68.09,90.41 69.88,95.99 75.74,95.96 70.98,99.39 72.82,104.95 "
       id="polygon5748"
       style="fill:#ffed00" />
    <polygon
       class="cls-3"
       points="85.83,119.19 81.11,122.65 82.94,117.09 78.19,113.67 84.05,113.69 85.83,108.11 87.62,113.69 93.48,113.67 88.72,117.09 90.56,122.65 "
       id="polygon5750"
       style="fill:#ffed00" />
    <polygon
       class="cls-3"
       points="133.87,35.63 138.59,39.09 136.76,33.53 141.51,30.11 135.65,30.13 133.87,24.55 132.08,30.13 126.22,30.11 130.98,33.53 129.14,39.09 "
       id="polygon5752"
       style="fill:#ffed00" />
    <polygon
       class="cls-3"
       points="151.54,53.34 156.27,56.8 154.43,51.24 159.19,47.81 153.33,47.84 151.54,42.26 149.75,47.84 143.9,47.81 148.65,51.24 146.82,56.8 "
       id="polygon5754"
       style="fill:#ffed00" />
    <polygon
       class="cls-3"
       points="158.06,77.41 162.78,80.87 160.95,75.31 165.7,71.88 159.84,71.91 158.06,66.33 156.27,71.91 150.41,71.88 155.17,75.31 153.33,80.87 "
       id="polygon5756"
       style="fill:#ffed00" />
    <polygon
       class="cls-3"
       points="151.61,101.48 156.33,104.95 154.5,99.39 159.25,95.96 153.39,95.99 151.61,90.41 149.82,95.99 143.96,95.96 148.72,99.39 146.88,104.95 "
       id="polygon5758"
       style="fill:#ffed00" />
    <polygon
       class="cls-3"
       points="133.87,119.19 138.59,122.65 136.76,117.09 141.51,113.67 135.65,113.69 133.87,108.11 132.08,113.69 126.22,113.67 130.98,117.09 129.14,122.65 "
       id="polygon5760"
       style="fill:#ffed00" />
    <path
       class="cls-1"
       d="m 262,23.81 a 11.37,11.37 0 0 1 -3.63,7.59 11.88,11.88 0 0 1 -8.12,2.67 10.9,10.9 0 0 1 -8.8,-3.94 q -3.32,-3.93 -3.31,-10.54 v -3 A 17.66,17.66 0 0 1 239.7,9 11.54,11.54 0 0 1 244.08,4 12.16,12.16 0 0 1 250.63,2.24 11.19,11.19 0 0 1 258.55,5 11.5,11.5 0 0 1 262,12.61 h -4.11 a 8.86,8.86 0 0 0 -2.31,-5.38 7,7 0 0 0 -5,-1.66 7.31,7.31 0 0 0 -6.14,2.89 c -1.48,1.94 -2.22,4.68 -2.22,8.25 v 3 a 13.73,13.73 0 0 0 2.1,8 6.83,6.83 0 0 0 5.9,3 7.94,7.94 0 0 0 5.23,-1.54 c 1.21,-1 2,-2.83 2.41,-5.38 z"
       id="path5762"
       inkscape:connector-curvature="0"
       style="fill:#484848" />
    <path
       class="cls-1"
       d="m 265.73,21.92 a 13.55,13.55 0 0 1 1.33,-6.09 9.87,9.87 0 0 1 3.7,-4.18 10.07,10.07 0 0 1 5.42,-1.46 9.71,9.71 0 0 1 7.61,3.25 12.52,12.52 0 0 1 2.91,8.67 v 0.27 a 13.7,13.7 0 0 1 -1.29,6 9.76,9.76 0 0 1 -3.69,4.16 10.21,10.21 0 0 1 -5.5,1.49 9.67,9.67 0 0 1 -7.59,-3.26 12.44,12.44 0 0 1 -2.9,-8.62 z m 4,0.46 a 9.9,9.9 0 0 0 1.77,6.16 6,6 0 0 0 9.53,0 10.73,10.73 0 0 0 1.77,-6.58 9.85,9.85 0 0 0 -1.8,-6.15 5.74,5.74 0 0 0 -4.78,-2.35 5.66,5.66 0 0 0 -4.71,2.32 q -1.83,2.28 -1.82,6.6 z"
       id="path5764"
       inkscape:connector-curvature="0"
       style="fill:#484848" />
    <path
       class="cls-1"
       d="m 294.88,10.61 0.13,2.9 a 8.38,8.38 0 0 1 6.9,-3.32 q 7.29,0 7.36,8.23 v 15.23 h -3.94 V 18.4 a 5.24,5.24 0 0 0 -1.14,-3.68 4.53,4.53 0 0 0 -3.48,-1.19 5.71,5.71 0 0 0 -3.36,1 7,7 0 0 0 -2.26,2.68 v 16.44 h -3.93 v -23 z"
       id="path5766"
       inkscape:connector-curvature="0"
       style="fill:#484848" />
    <path
       class="cls-1"
       d="m 316.21,33.65 v -20 h -3.64 v -3.04 h 3.64 V 8.25 a 7.85,7.85 0 0 1 2,-5.73 7.46,7.46 0 0 1 5.6,-2 10.38,10.38 0 0 1 2.7,0.36 L 326.28,4 a 11.18,11.18 0 0 0 -2.13,-0.19 3.82,3.82 0 0 0 -3,1.12 4.54,4.54 0 0 0 -1,3.22 v 2.43 h 4.91 v 3.05 h -4.91 v 20 z"
       id="path5768"
       inkscape:connector-curvature="0"
       style="fill:#484848" />
    <path
       class="cls-1"
       d="M 337.67,34.07 A 10,10 0 0 1 330.05,31 11.44,11.44 0 0 1 327.11,22.77 V 22 a 13.75,13.75 0 0 1 1.31,-6.12 10.17,10.17 0 0 1 3.66,-4.21 9.17,9.17 0 0 1 5.1,-1.52 8.63,8.63 0 0 1 7,3 c 1.66,2 2.49,4.8 2.49,8.48 v 1.64 h -15.6 a 8.15,8.15 0 0 0 2,5.5 6.24,6.24 0 0 0 4.84,2.1 6.91,6.91 0 0 0 3.53,-0.85 8.92,8.92 0 0 0 2.56,-2.27 l 2.4,1.87 a 9.66,9.66 0 0 1 -8.73,4.45 z m -0.49,-20.65 a 5.26,5.26 0 0 0 -4,1.74 8.48,8.48 0 0 0 -2,4.86 h 11.54 v -0.3 a 7.45,7.45 0 0 0 -1.62,-4.65 4.93,4.93 0 0 0 -3.92,-1.65 z"
       id="path5770"
       inkscape:connector-curvature="0"
       style="fill:#484848" />
    <path
       class="cls-1"
       d="M 362.13,14.14 A 13.11,13.11 0 0 0 360.19,14 5.19,5.19 0 0 0 354.93,17.3 V 33.65 H 351 v -23 h 3.83 l 0.07,2.66 a 6.12,6.12 0 0 1 5.49,-3.08 4,4 0 0 1 1.75,0.29 z"
       id="path5772"
       inkscape:connector-curvature="0"
       style="fill:#484848" />
    <path
       class="cls-1"
       d="M 374.53,34.07 A 10.07,10.07 0 0 1 366.91,31 11.44,11.44 0 0 1 364,22.77 V 22 a 13.89,13.89 0 0 1 1.31,-6.12 10.31,10.31 0 0 1 3.66,-4.21 9.17,9.17 0 0 1 5.1,-1.52 8.64,8.64 0 0 1 7,3 c 1.66,2 2.49,4.8 2.49,8.48 v 1.64 h -15.65 a 8.2,8.2 0 0 0 2,5.5 6.26,6.26 0 0 0 4.85,2.1 6.94,6.94 0 0 0 3.53,-0.85 8.75,8.75 0 0 0 2.53,-2.26 l 2.41,1.87 a 9.67,9.67 0 0 1 -8.7,4.44 z M 374,13.42 a 5.24,5.24 0 0 0 -4,1.74 8.41,8.41 0 0 0 -2,4.84 h 11.54 V 19.7 A 7.45,7.45 0 0 0 378,15.07 4.94,4.94 0 0 0 374,13.42 Z"
       id="path5774"
       inkscape:connector-curvature="0"
       style="fill:#484848" />
    <path
       class="cls-1"
       d="m 391.58,10.61 0.13,2.9 a 8.38,8.38 0 0 1 6.9,-3.32 q 7.31,0 7.37,8.23 V 33.65 H 402 V 18.4 a 5.34,5.34 0 0 0 -1.14,-3.68 4.56,4.56 0 0 0 -3.48,-1.19 5.72,5.72 0 0 0 -3.37,1 6.93,6.93 0 0 0 -2.25,2.68 v 16.44 h -3.94 v -23 z"
       id="path5776"
       inkscape:connector-curvature="0"
       style="fill:#484848" />
    <path
       class="cls-1"
       d="m 420.69,30.86 a 5.69,5.69 0 0 0 3.68,-1.28 4.53,4.53 0 0 0 1.75,-3.19 h 3.72 a 7.08,7.08 0 0 1 -1.36,3.76 8.92,8.92 0 0 1 -3.35,2.85 9.68,9.68 0 0 1 -4.44,1.06 9.49,9.49 0 0 1 -7.48,-3.14 c -1.86,-2.09 -2.78,-5 -2.78,-8.59 v -0.66 a 13.89,13.89 0 0 1 1.23,-6 9.47,9.47 0 0 1 3.55,-4.07 10.11,10.11 0 0 1 5.46,-1.44 9.23,9.23 0 0 1 6.44,2.32 8.25,8.25 0 0 1 2.73,6 h -3.72 a 5.47,5.47 0 0 0 -1.69,-3.67 5.27,5.27 0 0 0 -3.76,-1.44 5.51,5.51 0 0 0 -4.67,2.21 10.14,10.14 0 0 0 -1.65,6.25 v 0.75 a 9.92,9.92 0 0 0 1.65,6.13 5.54,5.54 0 0 0 4.69,2.15 z"
       id="path5778"
       inkscape:connector-curvature="0"
       style="fill:#484848" />
    <path
       class="cls-1"
       d="M 443.52,34.07 A 10.07,10.07 0 0 1 435.89,31 11.48,11.48 0 0 1 433,22.77 V 22 a 13.75,13.75 0 0 1 1.31,-6.12 10.17,10.17 0 0 1 3.66,-4.21 9.17,9.17 0 0 1 5.1,-1.52 8.63,8.63 0 0 1 7,3 c 1.66,2 2.49,4.8 2.49,8.48 v 1.64 H 436.9 a 8.15,8.15 0 0 0 2,5.5 6.24,6.24 0 0 0 4.84,2.1 6.91,6.91 0 0 0 3.53,-0.85 8.92,8.92 0 0 0 2.54,-2.26 l 2.4,1.87 a 9.66,9.66 0 0 1 -8.69,4.44 z M 443,13.42 a 5.26,5.26 0 0 0 -4,1.74 8.48,8.48 0 0 0 -2,4.84 h 11.54 V 19.7 A 7.45,7.45 0 0 0 446.92,15.05 4.93,4.93 0 0 0 443,13.42 Z"
       id="path5780"
       inkscape:connector-curvature="0"
       style="fill:#484848" />
    <path
       class="cls-1"
       d="m 237.56,74.92 a 13.55,13.55 0 0 1 1.33,-6.09 9.89,9.89 0 0 1 3.71,-4.18 10,10 0 0 1 5.4,-1.46 9.7,9.7 0 0 1 7.61,3.25 12.52,12.52 0 0 1 2.91,8.67 v 0.27 a 13.7,13.7 0 0 1 -1.29,6 9.74,9.74 0 0 1 -3.68,4.16 10.23,10.23 0 0 1 -5.5,1.49 9.64,9.64 0 0 1 -7.59,-3.26 12.44,12.44 0 0 1 -2.91,-8.62 z m 4,0.46 a 9.84,9.84 0 0 0 1.78,6.16 6,6 0 0 0 9.53,0 10.79,10.79 0 0 0 1.76,-6.58 9.85,9.85 0 0 0 -1.8,-6.15 5.74,5.74 0 0 0 -4.83,-2.39 5.64,5.64 0 0 0 -4.7,2.32 10.71,10.71 0 0 0 -1.78,6.64 z"
       id="path5782"
       inkscape:connector-curvature="0"
       style="fill:#484848" />
    <path
       class="cls-1"
       d="m 266.72,63.61 0.12,2.9 a 8.38,8.38 0 0 1 6.9,-3.32 q 7.31,0 7.37,8.23 v 15.23 h -3.94 V 71.4 a 5.29,5.29 0 0 0 -1.17,-3.68 4.54,4.54 0 0 0 -3.48,-1.19 5.66,5.66 0 0 0 -3.36,1 6.87,6.87 0 0 0 -2.26,2.68 V 86.65 H 263 v -23 z"
       id="path5784"
       inkscape:connector-curvature="0"
       style="fill:#484848" />
    <path
       class="cls-1"
       d="m 303.18,58 v 5.58 h 4.3 v 3 h -4.3 V 81 a 3.24,3.24 0 0 0 0.58,2.08 2.41,2.41 0 0 0 2,0.69 9.6,9.6 0 0 0 1.87,-0.26 v 3.18 a 11.5,11.5 0 0 1 -3,0.42 4.88,4.88 0 0 1 -4,-1.6 6.8,6.8 0 0 1 -1.34,-4.53 V 66.66 h -4.2 v -3 h 4.2 V 58 Z"
       id="path5786"
       inkscape:connector-curvature="0"
       style="fill:#484848" />
    <path
       class="cls-1"
       d="m 315.24,66.4 a 8.39,8.39 0 0 1 6.81,-3.21 q 7.31,0 7.37,8.23 v 15.23 h -3.94 V 71.4 a 5.24,5.24 0 0 0 -1.14,-3.68 4.53,4.53 0 0 0 -3.48,-1.19 5.66,5.66 0 0 0 -3.36,1 6.87,6.87 0 0 0 -2.26,2.68 V 86.65 H 311.3 V 54 h 3.94 z"
       id="path5788"
       inkscape:connector-curvature="0"
       style="fill:#484848" />
    <path
       class="cls-1"
       d="M 344.41,87.07 A 10.07,10.07 0 0 1 336.79,84 11.44,11.44 0 0 1 333.85,75.77 V 75 a 13.89,13.89 0 0 1 1.31,-6.12 10.17,10.17 0 0 1 3.66,-4.21 9.17,9.17 0 0 1 5.1,-1.52 8.63,8.63 0 0 1 7,3 c 1.66,2 2.49,4.8 2.49,8.48 v 1.64 h -15.6 a 8.15,8.15 0 0 0 2,5.5 6.24,6.24 0 0 0 4.84,2.1 7,7 0 0 0 3.54,-0.85 8.88,8.88 0 0 0 2.53,-2.26 l 2.4,1.87 a 9.66,9.66 0 0 1 -8.71,4.44 z m -0.49,-20.65 a 5.24,5.24 0 0 0 -4,1.74 8.34,8.34 0 0 0 -2,4.86 h 11.53 v -0.3 a 7.51,7.51 0 0 0 -1.61,-4.65 5,5 0 0 0 -3.92,-1.65 z"
       id="path5790"
       inkscape:connector-curvature="0"
       style="fill:#484848" />
    <path
       class="cls-1"
       d="m 387.18,74 h -12.26 v 12.65 h -6.39 v -31 h 20.18 v 5.17 h -13.79 v 8 h 12.26 z"
       id="path5792"
       inkscape:connector-curvature="0"
       style="fill:#484848" />
    <path
       class="cls-1"
       d="m 404.66,84.3 a 7.71,7.71 0 0 1 -6.31,2.77 7.27,7.27 0 0 1 -5.65,-2.13 q -1.95,-2.13 -2,-6.24 V 63.61 h 6.15 v 14.9 c 0,2.4 1.1,3.6 3.28,3.6 2.18,0 3.52,-0.72 4.3,-2.17 V 63.61 h 6.18 v 23 h -5.79 z"
       id="path5794"
       inkscape:connector-curvature="0"
       style="fill:#484848" />
    <path
       class="cls-1"
       d="m 422.43,58 v 5.66 h 3.94 v 4.51 h -3.94 v 11.5 a 2.73,2.73 0 0 0 0.49,1.83 2.44,2.44 0 0 0 1.87,0.55 10.83,10.83 0 0 0 1.81,-0.14 v 4.66 a 12.66,12.66 0 0 1 -3.73,0.55 q -6.47,0 -6.6,-6.53 V 68.12 h -3.36 v -4.51 h 3.36 V 58 Z"
       id="path5796"
       inkscape:connector-curvature="0"
       style="fill:#484848" />
    <path
       class="cls-1"
       d="m 443.09,84.3 a 7.7,7.7 0 0 1 -6.3,2.77 7.29,7.29 0 0 1 -5.66,-2.13 q -2,-2.13 -2,-6.24 V 63.61 h 6.16 v 14.9 q 0,3.6 3.27,3.6 3.27,0 4.3,-2.17 V 63.61 h 6.18 v 23 h -5.79 z"
       id="path5798"
       inkscape:connector-curvature="0"
       style="fill:#484848" />
    <path
       class="cls-1"
       d="m 466.4,69.38 a 17.29,17.29 0 0 0 -2.21,-0.17 q -3.49,0 -4.58,2.36 v 15.08 h -6.15 v -23 h 5.81 l 0.17,2.75 a 5.7,5.7 0 0 1 5.13,-3.17 6.65,6.65 0 0 1 1.92,0.27 z"
       id="path5800"
       inkscape:connector-curvature="0"
       style="fill:#484848" />
    <path
       class="cls-1"
       d="M 479.51,87.07 A 11.27,11.27 0 0 1 471.26,84 11,11 0 0 1 468.08,75.72 v -0.59 a 13.82,13.82 0 0 1 1.34,-6.21 9.87,9.87 0 0 1 3.8,-4.22 10.72,10.72 0 0 1 5.61,-1.47 9.55,9.55 0 0 1 7.44,3 q 2.72,3 2.71,8.45 v 2.51 h -14.67 a 5.74,5.74 0 0 0 1.8,3.62 5.43,5.43 0 0 0 3.8,1.36 6.64,6.64 0 0 0 5.56,-2.58 l 3,3.39 a 9.18,9.18 0 0 1 -3.74,3 12.18,12.18 0 0 1 -5.22,1.09 z m -0.7,-18.92 a 3.84,3.84 0 0 0 -3,1.24 6.38,6.38 0 0 0 -1.46,3.55 h 8.56 v -0.5 a 4.57,4.57 0 0 0 -1.11,-3.17 4,4 0 0 0 -2.99,-1.12 z"
       id="path5802"
       inkscape:connector-curvature="0"
       style="fill:#484848" />
    <path
       class="cls-1"
       d="m 237.56,127.92 a 13.55,13.55 0 0 1 1.33,-6.09 9.89,9.89 0 0 1 3.71,-4.18 10,10 0 0 1 5.41,-1.46 9.7,9.7 0 0 1 7.61,3.25 12.52,12.52 0 0 1 2.91,8.67 v 0.27 a 13.7,13.7 0 0 1 -1.29,6 9.74,9.74 0 0 1 -3.68,4.16 10.23,10.23 0 0 1 -5.5,1.49 9.64,9.64 0 0 1 -7.59,-3.26 12.44,12.44 0 0 1 -2.91,-8.62 z m 4,0.46 a 9.84,9.84 0 0 0 1.78,6.16 6,6 0 0 0 9.53,0 10.79,10.79 0 0 0 1.76,-6.58 9.85,9.85 0 0 0 -1.8,-6.15 5.74,5.74 0 0 0 -4.78,-2.35 5.64,5.64 0 0 0 -4.7,2.32 10.71,10.71 0 0 0 -1.83,6.6 z"
       id="path5804"
       inkscape:connector-curvature="0"
       style="fill:#484848" />
    <path
       class="cls-1"
       d="m 264.2,139.65 v -20 h -3.64 v -3 h 3.64 v -2.36 a 7.85,7.85 0 0 1 2,-5.73 7.45,7.45 0 0 1 5.59,-2 10.46,10.46 0 0 1 2.71,0.36 l -0.21,3.17 a 11.18,11.18 0 0 0 -2.13,-0.19 3.82,3.82 0 0 0 -3,1.12 4.54,4.54 0 0 0 -1.05,3.22 v 2.43 h 4.92 v 3 h -4.92 v 20 z"
       id="path5806"
       inkscape:connector-curvature="0"
       style="fill:#484848" />
    <path
       class="cls-1"
       d="m 306.62,126.17 h -12.26 v 8.34 h 14.39 v 5.14 H 288 v -31 h 20.73 v 5.17 h -14.37 v 7.39 h 12.26 z"
       id="path5808"
       inkscape:connector-curvature="0"
       style="fill:#484848" />
    <path
       class="cls-1"
       d="m 325.58,137.3 a 7.7,7.7 0 0 1 -6.3,2.77 7.27,7.27 0 0 1 -5.65,-2.13 q -2,-2.13 -2,-6.24 v -15.09 h 6.15 v 14.9 q 0,3.6 3.28,3.6 c 2.08,0 3.52,-0.72 4.3,-2.17 v -16.33 h 6.17 v 23 h -5.79 z"
       id="path5810"
       inkscape:connector-curvature="0"
       style="fill:#484848" />
    <path
       class="cls-1"
       d="m 348.9,122.38 a 17.44,17.44 0 0 0 -2.22,-0.17 q -3.49,0 -4.57,2.36 v 15.08 H 336 v -23 h 5.81 l 0.18,2.75 a 5.68,5.68 0 0 1 5.13,-3.17 6.53,6.53 0 0 1 1.91,0.27 z"
       id="path5812"
       inkscape:connector-curvature="0"
       style="fill:#484848" />
    <path
       class="cls-1"
       d="m 350.54,127.92 a 13.62,13.62 0 0 1 1.32,-6.11 9.7,9.7 0 0 1 3.8,-4.16 11.06,11.06 0 0 1 5.76,-1.46 10.5,10.5 0 0 1 7.58,2.81 11.43,11.43 0 0 1 3.29,7.75 v 1.57 a 12.06,12.06 0 0 1 -3,8.51 11.48,11.48 0 0 1 -15.89,0 q -3,-3.19 -3,-8.69 z m 6.15,0.43 a 8.55,8.55 0 0 0 1.24,5 4.43,4.43 0 0 0 7,0 q 1.26,-1.71 1.26,-5.49 a 8.46,8.46 0 0 0 -1.26,-5 4.07,4.07 0 0 0 -3.53,-1.77 4,4 0 0 0 -3.49,1.75 9.54,9.54 0 0 0 -1.22,5.51 z"
       id="path5814"
       inkscape:connector-curvature="0"
       style="fill:#484848" />
    <path
       class="cls-1"
       d="m 396.58,128.34 a 13.84,13.84 0 0 1 -2.42,8.53 7.76,7.76 0 0 1 -6.52,3.2 7.2,7.2 0 0 1 -5.65,-2.43 v 10.86 h -6.15 v -31.89 h 5.71 l 0.21,2.26 a 7.22,7.22 0 0 1 5.83,-2.68 7.79,7.79 0 0 1 6.62,3.15 q 2.37,3.15 2.37,8.68 z m -6.16,-0.47 a 9.16,9.16 0 0 0 -1.13,-5 3.71,3.71 0 0 0 -3.31,-1.75 4,4 0 0 0 -4,2.22 v 9.46 a 4.11,4.11 0 0 0 4,2.28 c 3.02,0.03 4.44,-2.38 4.44,-7.21 z"
       id="path5816"
       inkscape:connector-curvature="0"
       style="fill:#484848" />
    <path
       class="cls-1"
       d="m 410.61,140.07 a 11.27,11.27 0 0 1 -8.25,-3.11 11,11 0 0 1 -3.18,-8.28 v -0.59 a 14,14 0 0 1 1.34,-6.21 9.87,9.87 0 0 1 3.8,-4.22 10.72,10.72 0 0 1 5.61,-1.47 9.55,9.55 0 0 1 7.44,3 q 2.72,3 2.71,8.45 v 2.51 h -14.66 a 5.68,5.68 0 0 0 1.79,3.62 5.46,5.46 0 0 0 3.81,1.36 6.62,6.62 0 0 0 5.55,-2.58 l 3,3.39 a 9.18,9.18 0 0 1 -3.74,3.05 12.18,12.18 0 0 1 -5.22,1.08 z m -0.7,-18.92 a 3.84,3.84 0 0 0 -3,1.24 6.38,6.38 0 0 0 -1.46,3.55 H 414 v -0.5 a 4.57,4.57 0 0 0 -1.11,-3.17 4,4 0 0 0 -2.98,-1.12 z"
       id="path5818"
       inkscape:connector-curvature="0"
       style="fill:#484848" />
  </g>
</svg>
