<?xml version="1.0" encoding="UTF-8" standalone="no"?>
<svg
   xmlns:dc="http://purl.org/dc/elements/1.1/"
   xmlns:cc="http://creativecommons.org/ns#"
   xmlns:rdf="http://www.w3.org/1999/02/22-rdf-syntax-ns#"
   xmlns:svg="http://www.w3.org/2000/svg"
   xmlns="http://www.w3.org/2000/svg"
   xmlns:sodipodi="http://sodipodi.sourceforge.net/DTD/sodipodi-0.dtd"
   xmlns:inkscape="http://www.inkscape.org/namespaces/inkscape"
   id="Layer_1"
   data-name="Layer 1"
   width="255"
   height="170"
   viewBox="0 0 288.15 192.1"
   version="1.1"
   sodipodi:docname="logo-nyc.svg"
   inkscape:version="0.92.3 (2405546, 2018-03-11)">
  <metadata
     id="metadata5142">
    <rdf:RDF>
      <cc:Work
         rdf:about="">
        <dc:format>image/svg+xml</dc:format>
        <dc:type
           rdf:resource="http://purl.org/dc/dcmitype/StillImage" />
        <dc:title>Artboard 4</dc:title>
      </cc:Work>
    </rdf:RDF>
  </metadata>
  <sodipodi:namedview
     pagecolor="#ffffff"
     bordercolor="#666666"
     borderopacity="1"
     objecttolerance="10"
     gridtolerance="10"
     guidetolerance="10"
     inkscape:pageopacity="0"
     inkscape:pageshadow="2"
     inkscape:window-width="1216"
     inkscape:window-height="673"
     id="namedview5140"
     showgrid="false"
     scale-x="1.13"
     inkscape:zoom="1.3313609"
     inkscape:cx="169"
     inkscape:cy="50"
     inkscape:window-x="0"
     inkscape:window-y="0"
     inkscape:window-maximized="0"
     inkscape:current-layer="Layer_1" />
  <defs
     id="defs5083">
    <style
       id="style5081">.cls-1{fill:#0a5796;}</style>
  </defs>
  <title
     id="title5085">Artboard 4</title>
  <g
     id="g5716"
     transform="translate(-24.93,-23.125)">
    <path
       style="fill:#0a5796"
       inkscape:connector-curvature="0"
       id="path5087"
       d="m 182.22,95.15 h 0.42 c 0.27,0 0.46,0 0.46,-0.32 0,-0.32 -0.27,-0.29 -0.48,-0.29 h -0.4 z m -0.47,-1 h 0.89 c 0.59,0 0.93,0.19 0.93,0.7 a 0.6,0.6 0 0 1 -0.62,0.63 l 0.63,1 h -0.49 l -0.58,-1 h -0.29 v 1 h -0.47 v -2.31 z m 0.84,2.84 a 1.66,1.66 0 0 0 0,-3.31 1.66,1.66 0 0 0 0,3.31 z m 0,-3.76 a 2.11,2.11 0 1 1 -2.16,2.1 2.09,2.09 0 0 1 2.16,-2.1 z m -39.83,0 -9.69,9.7 v -6.46 l -3.24,-3.23 h -12.92 l -3.24,3.23 v 6.47 l -6.46,6.46 -6.45,-6.46 V 96.47 L 97.52,93.24 H 84.6 l -3.23,3.23 -3.23,-3.23 H 65.21 L 62,96.47 V 109.4 L 45.83,93.24 H 32.91 l -3.23,3.23 v 45.24 l 3.23,3.22 h 12.92 l 3.23,-3.22 v -12.93 l 16.15,16.15 h 12.93 l 3.23,-3.22 V 115.86 L 97.52,132 v 9.7 l 3.24,3.22 h 12.91 l 3.24,-3.22 V 132 l 16.16,-16.15 v 19.39 l 9.69,9.69 h 32.3 l 9.69,-9.69 v -9.69 l -3.22,-3.23 h -16.16 v 3.23 h -12.92 v -12.92 h 12.92 v 3.19 h 16.16 l 3.22,-3.19 v -9.69 l -9.69,-9.7 z"
       class="cls-1" />
    <path
       inkscape:connector-curvature="0"
       id="path5089"
       d="m 206.42,98 a 2.36,2.36 0 0 0 -2.63,-2 c -2.2,0 -3,1.94 -3,3.88 0,1.94 0.84,3.87 3,3.87 a 2.42,2.42 0 0 0 2.63,-2.41 h 3.4 c -0.18,3.37 -2.65,5.34 -6,5.34 -4,0 -6.51,-3 -6.51,-6.8 0,-3.8 2.6,-6.88 6.55,-6.88 2.82,0 5.87,1.79 6,4.94 z" />
    <path
       inkscape:connector-curvature="0"
       id="path5091"
       d="m 214.38,95.67 h -3.11 v -2.38 h 3.11 z m -3.11,1.19 h 3.11 v 9.5 h -3.11 z" />
    <path
       inkscape:connector-curvature="0"
       id="path5093"
       d="m 221.85,106.36 h -3.58 l -3.17,-9.5 h 3.24 l 1.74,6.28 v 0 l 1.76,-6.28 H 225 Z" />
    <path
       inkscape:connector-curvature="0"
       id="path5095"
       d="m 228.87,95.67 h -3.11 v -2.38 h 3.11 z m -3.11,1.19 h 3.11 v 9.5 h -3.11 z" />
    <path
       inkscape:connector-curvature="0"
       id="path5097"
       d="M 236.82,100.34 A 1.46,1.46 0 0 0 235.3,99 c -1.74,0 -2,1.48 -2,2.79 0,1.31 0.53,2.49 1.85,2.49 a 1.66,1.66 0 0 0 1.77,-1.63 h 3 a 4.45,4.45 0 0 1 -4.78,4 4.73,4.73 0 0 1 -5,-4.87 c 0,-3 1.92,-5.17 5,-5.17 2.36,0 4.47,1.24 4.69,3.75 z" />
    <path
       inkscape:connector-curvature="0"
       id="path5099"
       d="m 197.75,112.63 h 10.41 v 2.73 h -7 v 2.29 h 6.41 v 2.63 h -6.41 v 2.49 h 7.19 v 2.93 h -10.6 z" />
    <path
       inkscape:connector-curvature="0"
       id="path5101"
       d="m 209.89,116.2 h 3 v 1.3 0 a 3.59,3.59 0 0 1 3,-1.57 c 3.16,0 3.42,2.3 3.42,3.68 v 6.09 h -3.11 v -4.59 c 0,-1.3 0.14,-2.62 -1.56,-2.62 -1.17,0 -1.68,1 -1.68,2 v 5.21 h -3.11 z" />
    <path
       inkscape:connector-curvature="0"
       id="path5103"
       d="m 230.28,124.54 c 0,1.56 -0.29,4.49 -4.73,4.49 -2.22,0 -4.3,-0.5 -4.67,-3 H 224 a 1,1 0 0 0 0.53,0.82 2.44,2.44 0 0 0 1.14,0.21 c 1.48,0 1.62,-1.05 1.62,-2.22 v -0.9 0 a 3,3 0 0 1 -2.53,1.4 c -2.87,0 -4.17,-2 -4.17,-4.72 0,-2.72 1.48,-4.65 4.17,-4.65 a 2.75,2.75 0 0 1 2.55,1.46 v 0 -1.23 h 3 z m -4.81,-6.23 c -1.37,0 -1.81,1.2 -1.81,2.38 0,1.18 0.51,2.23 1.79,2.23 1.28,0 1.89,-1 1.89,-2.22 0,-1.22 -0.48,-2.39 -1.87,-2.39 z" />
    <path
       inkscape:connector-curvature="0"
       id="path5105"
       d="m 231.88,119.13 a 2.91,2.91 0 0 1 1.48,-2.54 6.22,6.22 0 0 1 3,-0.66 c 2.25,0 4.43,0.49 4.43,3.18 v 4.15 a 5.63,5.63 0 0 0 0.36,2.44 H 238 a 3.88,3.88 0 0 1 -0.18,-0.9 4.28,4.28 0 0 1 -3.09,1.2 c -1.81,0 -3.24,-0.91 -3.24,-2.87 0,-3.09 3.37,-2.85 5.53,-3.29 0.53,-0.11 0.82,-0.3 0.82,-0.88 0,-0.58 -0.86,-1 -1.5,-1 a 1.38,1.38 0 0 0 -1.55,1.19 z m 4,4.92 c 1.48,0 2,-0.84 1.91,-2.8 a 8.39,8.39 0 0 1 -1.93,0.51 c -0.69,0.17 -1.28,0.46 -1.28,1.21 0,0.75 0.63,1.08 1.32,1.08 z" />
    <path
       inkscape:connector-curvature="0"
       id="path5107"
       d="m 251.69,124.54 c 0,1.56 -0.29,4.49 -4.74,4.49 -2.21,0 -4.3,-0.5 -4.66,-3 h 3.11 a 1,1 0 0 0 0.53,0.82 2.4,2.4 0 0 0 1.13,0.21 c 1.48,0 1.63,-1.05 1.63,-2.22 v -0.9 0 a 3,3 0 0 1 -2.52,1.4 c -2.87,0 -4.17,-2 -4.17,-4.72 0,-2.72 1.48,-4.65 4.17,-4.65 a 2.74,2.74 0 0 1 2.54,1.46 v 0 -1.23 h 3 z m -4.81,-6.23 c -1.37,0 -1.81,1.2 -1.81,2.38 0,1.18 0.51,2.23 1.79,2.23 1.28,0 1.88,-1 1.88,-2.22 0,-1.22 -0.47,-2.39 -1.86,-2.39 z" />
    <path
       inkscape:connector-curvature="0"
       id="path5109"
       d="m 256,121.71 a 2,2 0 0 0 2.13,2.16 1.85,1.85 0 0 0 1.77,-1 h 2.91 c -0.57,2.19 -2.6,3.14 -4.72,3.14 -3.09,0 -5.2,-1.86 -5.2,-5 a 5,5 0 0 1 5.13,-5 c 3.4,0 5.1,2.56 5,5.78 z m 3.86,-1.71 a 1.92,1.92 0 0 0 -1.86,-2 2.06,2.06 0 0 0 -2,2 z" />
    <path
       inkscape:connector-curvature="0"
       id="path5111"
       d="m 264.17,116.2 h 3 v 1.3 0 a 3.18,3.18 0 0 1 2.83,-1.57 2.74,2.74 0 0 1 2.76,1.53 3.5,3.5 0 0 1 3,-1.53 c 3,0 3.35,2.28 3.35,4.1 v 5.67 h -3.12 v -5.58 c 0,-1 -0.49,-1.63 -1.29,-1.63 -1.34,0 -1.47,1 -1.47,2.56 v 4.65 H 270 v -5.4 c 0,-1.12 -0.33,-1.81 -1.17,-1.81 -1.11,0 -1.59,0.64 -1.59,2.58 v 4.63 h -3.11 z" />
    <path
       inkscape:connector-curvature="0"
       id="path5113"
       d="m 283.38,121.71 a 2,2 0 0 0 2.12,2.16 1.88,1.88 0 0 0 1.78,-1 h 2.9 c -0.56,2.13 -2.59,3.13 -4.72,3.13 -3.09,0 -5.19,-1.86 -5.19,-5 a 5,5 0 0 1 5.12,-5 c 3.4,0 5.1,2.56 5,5.78 z m 3.86,-1.71 a 1.93,1.93 0 0 0 -1.85,-2 2,2 0 0 0 -2,1.94 z" />
    <path
       inkscape:connector-curvature="0"
       id="path5115"
       d="m 291.54,116.2 h 3 v 1.3 0 a 3.58,3.58 0 0 1 3,-1.57 c 3.16,0 3.42,2.3 3.42,3.68 v 6.09 h -3.11 v -4.59 c 0,-1.3 0.15,-2.62 -1.55,-2.62 -1.18,0 -1.69,1 -1.69,2 v 5.21 h -3.11 z" />
    <path
       inkscape:connector-curvature="0"
       id="path5117"
       d="m 308.33,118.21 h -1.92 v 4.32 c 0,0.75 0.43,0.92 1.11,0.92 0.26,0 0.53,0 0.81,0 v 2.25 c -0.57,0 -1.14,0.09 -1.71,0.09 -2.65,0 -3.32,-0.77 -3.32,-3.35 v -4.23 h -1.58 v -2 h 1.58 v -2.88 h 3.11 v 2.87 h 1.92 z" />
    <path
       inkscape:connector-curvature="0"
       id="path5119"
       d="m 206.42,136.64 a 2.36,2.36 0 0 0 -2.63,-2 c -2.2,0 -3,1.94 -3,3.88 0,1.94 0.84,3.88 3,3.88 a 2.43,2.43 0 0 0 2.63,-2.4 h 3.4 c -0.18,3.37 -2.65,5.34 -6,5.34 -4,0 -6.51,-3 -6.51,-6.8 0,-3.8 2.56,-6.81 6.51,-6.81 2.82,0 5.87,1.79 6,4.94 z" />
    <path
       inkscape:connector-curvature="0"
       id="path5121"
       d="m 215.66,135.27 a 5,5 0 1 1 -5,5 4.87,4.87 0 0 1 5,-5 z m 0,7.66 c 1.45,0 1.9,-1.42 1.9,-2.63 0,-1.21 -0.45,-2.65 -1.9,-2.65 -1.45,0 -1.88,1.44 -1.88,2.65 0,1.21 0.44,2.63 1.88,2.63 z" />
    <path
       inkscape:connector-curvature="0"
       id="path5123"
       d="m 221.93,135.54 h 3 v 1.3 0 a 3.16,3.16 0 0 1 2.72,-1.57 2.75,2.75 0 0 1 2.77,1.54 3.47,3.47 0 0 1 3,-1.54 c 3,0 3.35,2.29 3.35,4.1 V 145 h -3.11 v -5.54 c 0,-1 -0.49,-1.63 -1.3,-1.63 -1.34,0 -1.46,1 -1.46,2.56 V 145 h -3.11 v -5.4 c 0,-1.12 -0.33,-1.81 -1.17,-1.81 -1.12,0 -1.6,0.64 -1.6,2.58 V 145 h -3.11 z" />
    <path
       inkscape:connector-curvature="0"
       id="path5125"
       d="m 238.54,135.54 h 3 v 1.3 0 a 3.17,3.17 0 0 1 2.73,-1.57 2.73,2.73 0 0 1 2.76,1.54 3.47,3.47 0 0 1 3,-1.54 c 3,0 3.35,2.29 3.35,4.1 V 145 h -3.11 v -5.54 c 0,-1 -0.49,-1.63 -1.3,-1.63 -1.33,0 -1.46,1 -1.46,2.56 V 145 h -3.11 v -5.4 c 0,-1.12 -0.33,-1.81 -1.17,-1.81 -1.12,0 -1.6,0.64 -1.6,2.58 V 145 h -3.11 z" />
    <path
       inkscape:connector-curvature="0"
       id="path5127"
       d="m 258.32,134.35 h -3.11 V 132 h 3.11 z m -3.11,1.19 h 3.11 V 145 h -3.11 z" />
    <path
       inkscape:connector-curvature="0"
       id="path5129"
       d="m 262.58,141.91 a 1.27,1.27 0 0 0 0.51,1.06 1.93,1.93 0 0 0 1.15,0.33 c 0.61,0 1.46,-0.26 1.46,-1 0,-0.74 -1,-0.87 -1.51,-1 -2,-0.5 -4.41,-0.55 -4.41,-3.11 0,-2.29 2.47,-2.91 4.33,-2.91 2.09,0 4.27,0.6 4.38,3.07 h -2.88 a 0.88,0.88 0 0 0 -0.4,-0.82 1.8,1.8 0 0 0 -1,-0.24 c -0.51,0 -1.33,0.06 -1.33,0.71 0,0.9 2.08,1.07 3.51,1.38 a 2.69,2.69 0 0 1 2.42,2.56 c 0,2.54 -2.42,3.38 -4.56,3.38 -2.14,0 -4.56,-0.75 -4.65,-3.4 z" />
    <path
       inkscape:connector-curvature="0"
       id="path5131"
       d="m 272.48,141.91 a 1.27,1.27 0 0 0 0.52,1.09 2,2 0 0 0 1.16,0.33 c 0.6,0 1.46,-0.26 1.46,-1 0,-0.74 -1,-0.87 -1.52,-1 -1.95,-0.5 -4.41,-0.55 -4.41,-3.11 0,-2.29 2.47,-2.91 4.34,-2.91 2.09,0 4.26,0.6 4.37,3.07 h -2.87 a 0.9,0.9 0 0 0 -0.4,-0.82 1.82,1.82 0 0 0 -1,-0.24 c -0.51,0 -1.34,0.06 -1.34,0.71 0,0.9 2.09,1.07 3.52,1.38 a 2.68,2.68 0 0 1 2.41,2.56 c 0,2.54 -2.41,3.38 -4.55,3.38 -2.14,0 -4.56,-0.75 -4.65,-3.4 z" />
    <path
       inkscape:connector-curvature="0"
       id="path5133"
       d="M 283.13,134.35 H 280 V 132 h 3.11 z m -3.13,1.19 h 3.11 V 145 H 280 Z" />
    <path
       inkscape:connector-curvature="0"
       id="path5135"
       d="m 289.44,135.27 a 5,5 0 1 1 -5,5 4.87,4.87 0 0 1 5,-5 z m 0,7.66 c 1.44,0 1.9,-1.42 1.9,-2.63 0,-1.21 -0.46,-2.65 -1.9,-2.65 -1.44,0 -1.89,1.44 -1.89,2.65 0,1.21 0.45,2.63 1.89,2.63 z" />
    <path
       inkscape:connector-curvature="0"
       id="path5137"
       d="m 295.71,135.54 h 3 v 1.3 0 a 3.59,3.59 0 0 1 3,-1.57 c 3.17,0 3.43,2.3 3.43,3.68 V 145 h -3.11 v -4.55 c 0,-1.3 0.14,-2.62 -1.56,-2.62 -1.17,0 -1.68,1 -1.68,2 V 145 h -3.11 z" />
  </g>
</svg>
