<?xml version="1.0" encoding="UTF-8" standalone="no"?>
<!-- Generator: Adobe Illustrator 16.0.0, SVG Export Plug-In . SVG Version: 6.00 Build 0)  -->

<svg
   xmlns:dc="http://purl.org/dc/elements/1.1/"
   xmlns:cc="http://creativecommons.org/ns#"
   xmlns:rdf="http://www.w3.org/1999/02/22-rdf-syntax-ns#"
   xmlns:svg="http://www.w3.org/2000/svg"
   xmlns="http://www.w3.org/2000/svg"
   xmlns:xlink="http://www.w3.org/1999/xlink"
   xmlns:sodipodi="http://sodipodi.sourceforge.net/DTD/sodipodi-0.dtd"
   xmlns:inkscape="http://www.inkscape.org/namespaces/inkscape"
   version="1.1"
   id="Layer_1"
   x="0px"
   y="0px"
   width="255"
   height="170"
   viewBox="0 0 484.5 323"
   enable-background="new 0 0 427.708 293.619"
   xml:space="preserve"
   sodipodi:docname="logo-poseidon.svg"
   inkscape:version="0.92.3 (2405546, 2018-03-11)"><metadata
   id="metadata521"><rdf:RDF><cc:Work
       rdf:about=""><dc:format>image/svg+xml</dc:format><dc:type
         rdf:resource="http://purl.org/dc/dcmitype/StillImage" /><dc:title></dc:title></cc:Work></rdf:RDF></metadata><defs
   id="defs519" /><sodipodi:namedview
   pagecolor="#ffffff"
   bordercolor="#666666"
   borderopacity="1"
   objecttolerance="10"
   gridtolerance="10"
   guidetolerance="10"
   inkscape:pageopacity="0"
   inkscape:pageshadow="2"
   inkscape:window-width="1208"
   inkscape:window-height="578"
   id="namedview517"
   showgrid="false"
   scale-x="1.9"
   inkscape:zoom="0.80376273"
   inkscape:cx="213.854"
   inkscape:cy="146.80949"
   inkscape:window-x="0"
   inkscape:window-y="0"
   inkscape:window-maximized="0"
   inkscape:current-layer="Layer_1" />
<polygon
   points="114.349,287.467 114.349,287.317 114.049,287.242 "
   id="polygon2"
   style="fill:#cccccc"
   transform="translate(0,-123.61899)" />
<g
   id="g514"
   transform="translate(28.396,14.688396)">
	<g
   id="g12">
		<defs
   id="defs5">
			<rect
   id="SVGID_1_"
   width="427.70801"
   height="293.61899"
   x="0"
   y="0" />
		</defs>
		<clipPath
   id="SVGID_2_">
			<use
   xlink:href="#SVGID_1_"
   overflow="visible"
   id="use7"
   style="overflow:visible"
   x="0"
   y="0"
   width="100%"
   height="100%" />
		</clipPath>
		<path
   clip-path="url(#SVGID_2_)"
   d="m 116.224,289.117 c 0,0.3 -0.375,0.149 -0.525,0.3 -0.619,-0.45 -1.116,-1.8 -3.647,-2.719 2.044,-0.028 4.247,1.669 4.172,2.419"
   id="path10"
   inkscape:connector-curvature="0"
   style="fill:#cccccc" />
	</g>
	<g
   id="g22">
		<defs
   id="defs15">
			<rect
   id="SVGID_3_"
   width="427.70801"
   height="293.61899"
   x="0"
   y="0" />
		</defs>
		<clipPath
   id="SVGID_4_">
			<use
   xlink:href="#SVGID_3_"
   overflow="visible"
   id="use17"
   style="overflow:visible"
   x="0"
   y="0"
   width="100%"
   height="100%" />
		</clipPath>
		<path
   clip-path="url(#SVGID_4_)"
   d="m 113.974,288.742 c 0.225,0.3 0,0.6 -0.15,0.75 -0.3,0.225 -0.844,0.216 -1.003,0.009 -0.075,-0.449 -0.272,-0.834 -0.122,-1.209 1.087,-0.136 0.367,-0.914 1.275,0.45"
   id="path20"
   inkscape:connector-curvature="0"
   style="fill:#cccccc" />
	</g>
	<g
   id="g32">
		<defs
   id="defs25">
			<rect
   id="SVGID_5_"
   width="427.70801"
   height="293.61899"
   x="0"
   y="0" />
		</defs>
		<clipPath
   id="SVGID_6_">
			<use
   xlink:href="#SVGID_5_"
   overflow="visible"
   id="use27"
   style="overflow:visible"
   x="0"
   y="0"
   width="100%"
   height="100%" />
		</clipPath>
		<path
   clip-path="url(#SVGID_6_)"
   d="m 92.606,237.03 c 0,-0.9 0.375,-1.727 0.3,-2.477 1.2,-4.574 2.775,-9.148 5.175,-12.976 0.45,-1.05 1.2,-1.875 2.1,-2.476 l 0.075,-0.674 h 0.075 c -0.3,-0.977 0.075,-2.551 -0.675,-3.227 -0.375,-1.648 -0.825,-3.449 -0.75,-5.174 -0.15,-1.201 -0.075,-2.176 -0.075,-3.301 0.15,-1.125 0,-2.851 0.45,-4.051 -0.15,-0.898 0.225,-1.8 0.375,-2.699 0.3,-1.051 0.45,-2.176 0.9,-3.15 0.6,-1.949 1.125,-4.125 1.95,-5.699 -0.3,-1.275 -0.15,-2.324 -0.45,-3.6 0,-0.676 -0.3,-1.426 -0.075,-2.176 -0.3,-0.449 -0.225,-1.125 -0.375,-1.65 0.375,-0.523 -0.3,-0.824 -0.15,-1.273 0.15,-0.9 -0.75,-1.426 -0.45,-2.25 -0.15,-0.525 -0.45,-0.9 -0.45,-1.576 0.075,-0.449 -0.6,-0.674 0,-0.975 -0.15,-0.375 -0.225,-0.525 0,-0.824 -0.525,-0.9 -0.225,-2.326 -0.3,-3.451 0.075,-2.25 0.225,-4.049 0.15,-6.225 -0.225,0.525 -0.682,0.962 -0.849,1.462 l -0.051,0.188 c -0.975,1.574 -1.425,3.523 -2.325,5.1 0,0.75 -0.75,1.275 -0.75,2.176 -0.3,0.148 -0.225,0.523 -0.525,0.674 -1.275,3.076 -3.3,5.701 -4.8,8.625 -0.375,0.601 -0.675,1.125 -0.975,1.801 -0.3,0.074 -0.225,0.449 -0.45,0.675 -0.825,2.024 -2.625,3.524 -2.475,6.075 -0.15,0.976 -0.15,2.25 -0.675,3.074 0.15,1.5 -0.525,2.25 -0.525,3.9 0,0.676 -0.375,1.199 -0.375,1.725 -0.3,0.976 -0.375,2.101 -0.975,2.851 0.225,0.226 -0.225,0.45 -0.15,0.75 -0.6,1.575 -1.425,3.226 -2.55,4.575 -0.9,0.675 -1.875,1.125 -2.625,1.875 -0.75,2.4 -1.2,5.025 -1.5,7.8 -0.075,0.226 0,1.051 -0.075,1.351 l -0.075,2.625 c -0.45,0.602 0.3,0.977 -0.15,1.649 0.225,0.601 0.3,1.274 -0.075,1.801 v 0.675 h -0.075 c 0.01,0.954 -0.3,0.977 -0.225,1.575 0.225,0.226 -0.075,0.449 -0.075,0.675 l -0.15,1.801 c -0.124,0.569 0.075,0.524 -0.15,0.975 -0.3,1.352 -0.675,2.775 -1.125,4.051 0.15,1.125 -0.75,2.025 -0.825,3.225 -0.375,1.052 -0.75,1.5 -0.975,2.625 -1.125,2.701 -1.725,5.699 -2.925,8.4 -0.225,0.299 -0.225,0.9 -0.3,1.275 l -0.225,0.299 c 0.075,0.301 -0.075,0.826 -0.15,1.201 -0.9,3.674 -1.95,7.725 -2.55,11.625 0.3,0.225 -0.15,0.975 0.075,1.35 -0.15,0.824 0,2.025 0.225,2.924 0,1.275 0.075,3.451 -0.45,4.801 -0.225,0.375 -0.225,1.052 -0.75,1.199 0.375,0.15 -0.075,0.603 -0.075,0.9 -0.6,0.975 -0.9,2.25 -1.2,3.525 -0.6,1.725 -0.225,3.899 -0.3,5.85 0,0.451 -0.075,1.35 0.075,1.875 -0.45,0.225 0.15,0.676 -0.225,1.051 0,0.9 0.15,2.025 -0.675,2.699 l -0.075,0.225 c -1.575,0.9 -4.125,1.426 -5.7,0.301 v -0.301 c -1.2,-0.375 -1.875,0.676 -3.075,0.603 -0.45,-0.15 -1.05,-0.076 -1.275,-0.451 -1.425,0.076 -2.775,0.226 -4.05,-0.226 l -0.225,0.074 c -0.075,0 -0.525,0.076 -0.9,0 -1.35,-1.049 -4.425,-0.225 -4.125,-3 0.3,-1.35 0.45,-2.85 1.35,-3.75 0.9,-2.174 3.375,-2.699 4.725,-4.424 1.2,-1.426 1.2,-3.75 2.025,-5.475 0.3,-1.426 0.9,-2.477 1.2,-3.9 0.525,-0.75 0.6,-1.801 1.2,-2.475 0.15,-0.227 0.075,-0.602 0.3,-0.9 0.075,-1.201 0.15,-2.625 0.075,-4.275 h 0.15 c -0.225,-0.073 -0.45,-0.375 -0.225,-0.524 -0.225,-0.074 0.075,-0.149 0,-0.375 -0.225,-1.274 -0.225,-3.674 -0.375,-5.324 0.075,-1.725 0,-2.7 -0.225,-4.5 0.075,-2.926 -0.15,-5.774 -0.225,-9 0.075,-0.301 0,-0.975 -0.075,-1.35 l 0.075,-0.226 -0.075,-0.076 c 0.3,-2.85 -0.15,-6.225 -0.3,-8.85 0,-0.225 0.3,-0.225 0.075,-0.375 0.15,-0.975 0,-1.801 0.075,-2.625 -0.075,-0.676 0.16,-0.913 0.15,-1.725 0.075,-0.301 0.225,-0.75 0,-0.977 0.3,-1.875 0.45,-3.824 0.9,-5.625 l 0.675,-0.898 c -0.3,-0.076 -0.225,-0.602 -0.15,-0.75 0.525,-1.125 0.45,-2.701 1.125,-3.75 -0.45,-0.375 0.075,-0.602 0.15,-0.977 0.375,-0.074 0.075,-0.523 0.3,-0.675 0.9,-0.524 0.075,-1.726 0.675,-2.399 1.125,-2.101 1.875,-4.351 2.85,-6.525 0.3,0 0,-0.449 0.225,-0.6 0.3,-0.375 0.525,-0.824 0.525,-1.351 0.375,-3.75 1.725,-6.899 2.4,-10.426 0.15,-0.824 0.075,-1.8 -0.3,-2.399 l 0.075,-0.148 c -0.675,-1.875 -0.45,-3.301 -0.9,-5.4 0.3,-0.375 0.225,-0.6 0.075,-1.051 v -2.023 c 0.075,-0.149 0.225,-0.375 0,-0.451 0.15,-1.424 0.45,-3.375 0.45,-4.948 -0.075,-0.9 0.525,-1.5 0.6,-2.177 0.15,-0.225 0.375,-0.823 0.15,-1.274 0.075,-0.449 -0.15,-1.574 0.15,-2.024 0,-0.3 0,-0.824 0.15,-1.199 0,-0.525 0.225,-1.199 0.15,-1.65 0,-0.148 0.3,-0.299 0.075,-0.523 0.375,-2.399 1.2,-4.649 1.65,-7.125 1.425,-4.125 2.55,-8.477 4.2,-12.377 -0.525,-1.272 -1.425,-2.324 -2.325,-3.299 -0.675,-0.6 -1.425,-1.125 -2.175,-1.65 -2.25,0.449 -3.3,2.474 -4.725,4.05 -0.75,1.049 -1.5,2.174 -2.25,3.299 -0.299,0.805 -0.6,0.9 -0.675,1.5 -0.6,0.525 -0.29,1.555 -1.04,2.305 -0.167,1 -0.46,0.922 -0.46,1.445 -0.375,0.076 -0.6,0.227 -0.975,0 -0.375,-0.225 -0.45,-0.75 -0.675,-1.125 -1.875,-3.074 -1.95,-8.025 -1.725,-11.775 0.3,-2.774 1.425,-5.1 2.55,-7.35 0.675,-1.649 2.025,-2.924 3.15,-4.274 1.575,-5.025 0.525,-10.501 0.15,-15.976 l -0.225,-0.75 -0.375,0.076 c -0.825,1.35 -2.025,2.325 -2.925,3.525 -1.2,0.899 -1.95,2.024 -3.225,2.774 -0.075,0.151 -0.375,0.151 -0.525,0.375 -0.9,0.375 -1.725,1.576 -2.925,0.901 -0.675,-0.225 -1.05,-0.901 -1.65,-1.276 -0.3,-0.375 -0.75,-0.599 -0.9,-1.125 -1.2,-1.349 -2.175,-3 -3.075,-4.724 -1.05,-1.875 -1.425,-4.575 -1.65,-6.6 0.075,-2.775 0.225,-5.025 1.125,-7.35 -0.225,-0.15 0.075,-0.375 0.075,-0.6 0.45,-2.775 1.5,-6.226 0.225,-9.075 -0.45,-1.125 -0.6,-2.401 -1.05,-3.526 0,0 0.15,-0.299 -0.075,-0.375 0.3,-2.849 0.525,-5.474 0.75,-8.474 0.525,-3.151 0.375,-6.225 0.825,-8.926 -0.15,-1.5 1.425,-2.625 0.375,-3.899 -0.75,-1.5 -1.35,-3.076 -2.025,-4.576 -0.057,-0.237 -0.15,-0.75 -0.15,-1.049 -0.6,-1.425 -1.05,-2.775 -1.5,-4.275 -0.45,-1.051 -0.525,-2.475 -0.975,-3.6 -1.425,-5.775 -2.7,-11.775 -5.175,-16.875 -0.375,-1.5 -0.6,-3.451 0.45,-4.5 0.75,-1.05 2.1,-1.05 3.45,-0.75 0.675,0.299 1.381,0.612 1.906,1.062 0.562,0.25 0.269,0.212 0.419,0.212 0.268,0.226 0.393,0.288 0.6,0.301 2.175,1.5 4.275,3 6.3,4.65 1.425,1.574 3,2.85 4.5,4.424 1.05,0.75 1.95,1.875 2.925,2.701 0.975,1.424 2.325,2.324 3.375,3.75 0.9,0.525 1.2,1.799 2.175,2.324 0.9,0.901 1.575,1.951 2.55,2.776 0.675,0.675 1.961,2.574 3.086,2.449 1.375,0.875 3.25,0.85 4.75,1 3.625,-1.875 7.125,-3.25 11.75,-4.25 2.326,-3.075 4.714,-8.125 6.364,-11.574 0.375,-0.526 0.75,-1.125 0.525,-1.875 -1.275,-0.375 -2.25,-0.975 -3.825,-0.901 -0.75,0.451 -1.05,1.201 -1.125,2.1 0.15,0.826 0.45,1.576 1.2,1.875 0.225,0.226 0.075,0.601 -0.075,0.826 -1.65,0.674 -3.3,-0.301 -4.35,-1.275 -0.9,-1.2 -0.675,-3.301 -0.15,-4.725 -0.6,-2.1 0.3,-3.6 1.575,-4.875 0.6,-0.525 1.425,-0.975 2.025,-1.576 0,-1.574 0.825,-2.475 1.65,-3.449 1.05,-0.225 1.05,-1.5 1.35,-2.325 0.15,-0.525 0.975,-0.976 0.375,-1.576 -0.3,-0.674 -0.6,-1.424 -0.6,-2.324 0.3,-0.975 0.375,-2.176 1.35,-2.551 0.75,0 1.425,0.826 2.25,0.225 1.725,-1.049 3,-2.924 4.8,-3.824 0.9,-0.75 1.575,-0.75 2.775,-1.125 l 1.125,-0.225 c 0.825,-1.125 0.675,-2.85 1.725,-3.826 1.875,-0.225 2.4,-2.174 3.675,-3.149 1.275,-1.201 2.625,-2.4 4.65,-2.701 1.05,-1.424 2.7,-2.324 4.575,-2.699 1.2,-0.975 2.1,-2.551 4.2,-2.025 1.05,0.15 1.65,0.9 2.1,1.724 1.05,0.826 2.325,1.276 3.225,2.176 3.15,0.6 4.425,3.975 7.05,5.174 1.125,0.676 0.975,2.476 2.25,3.076 1.95,0.525 3.525,1.725 4.125,3.674 0.375,2.701 -0.975,5.176 -3,6.451 l -2.175,0.975 c -0.975,1.65 -1.8,3.224 -2.925,4.724 -0.825,2.85 -1.2,6.151 -1.725,8.926 -0.225,0.299 -0.45,0.824 -1.2,0.674 -0.675,-0.225 -2.175,-0.899 -2.475,0.226 -0.525,0.975 -1.275,1.799 -1.95,2.7 -0.525,0.375 -0.975,-0.375 -1.425,0.074 -0.375,0.451 -0.075,1.5 -0.9,1.351 -0.45,-0.076 -0.975,-0.375 -1.425,-0.15 -0.6,1.049 -1.425,2.025 -2.1,3 -0.975,0.525 -1.8,-0.75 -2.7,-0.301 -0.225,0.901 0.075,1.725 -0.225,2.551 0,0.674 -0.375,2.4 0.3,3.074 3.9,0.301 8.175,0.6 11.4,2.176 1.575,-0.301 3.15,-0.525 4.725,-0.826 1.275,0.076 2.775,-0.225 4.125,0 1.5,0.076 3.3,0.226 4.8,0.525 3.9,0.526 6.9,2.1 10.35,3.375 1.575,-0.299 2.925,-0.9 4.5,-1.199 4.125,-0.375 8.775,-0.826 12.975,-0.301 2.1,0.451 4.2,0.676 6.225,1.201 0.075,-0.076 0.225,-0.15 0.15,-0.375 h 0.15 c 2.175,-5.25 5.1,-10.05 8.25,-14.625 0.975,-1.576 1.35,-3.601 2.025,-5.326 1.05,-4.275 2.55,-8.099 4.65,-11.625 l -0.15,-0.525 c -1.95,-1.35 -3.975,-2.85 -5.25,-4.725 -0.45,-0.449 -0.75,-0.974 -1.275,-1.349 -0.3,-0.75 -0.9,-1.125 -1.2,-1.875 -1.725,-2.026 -2.775,-4.575 -3.225,-7.5 0.075,-0.6 0.075,-1.2 0.525,-1.575 0.6,-0.525 1.8,-0.076 2.25,-0.75 0.15,-0.375 0.45,-0.675 0.75,-0.9 0.75,0.074 2.1,0.375 2.25,-0.6 0.45,-0.601 1.125,-1.05 2.175,-0.976 0.975,-0.074 1.8,0.75 2.7,0.375 1.05,-1.199 3.075,-1.5 4.8,-1.35 4.65,-0.15 9.15,-0.15 13.5,0 4.125,-0.074 8.025,-1.049 12.15,-0.599 1.351,0.074 1.575,2.099 3.149,1.5 1.5,-0.676 2.476,0.224 3.301,1.05 0.149,0.375 0.449,0.524 0.75,0.75 0.824,-0.15 1.5,-0.3 2.175,0.075 -0.149,0.599 0.675,0.15 0.524,0.75 0.825,0.3 1.801,-0.375 2.399,0.224 0.226,0 0.375,0.301 0.45,0.526 0.601,1.05 -0.301,2.099 -0.6,3.15 -1.275,2.4 -2.551,4.875 -3.977,7.199 -0.074,0.6 -0.6,0.826 -0.824,1.35 -0.601,1.125 -1.65,1.951 -1.5,3.676 -0.75,2.099 -1.801,4.275 -3.75,5.324 -2.926,2.25 -7.051,3 -11.101,3.676 -4.2,0.824 -8.325,1.199 -12.75,1.8 -0.525,0.149 -0.825,0.674 -0.975,1.274 h -0.075 c -1.05,2.775 -1.5,5.4 -1.95,8.625 l -0.019,0.226 c 0.075,0.3 -0.07,0.774 -0.132,1.024 -0.525,2.025 -0.449,3.625 -0.974,5.576 -0.026,0.549 -0.151,0.674 -0.151,1.049 l -0.149,0.451 -0.3,1.574 c 0,0.151 -0.3,0.225 -0.075,0.375 -0.45,2.026 -1.275,3.75 -1.725,5.701 -1.575,3.225 -1.875,6.75 -3.75,9.6 -0.6,0.9 -1.725,1.35 -2.7,1.424 -1.5,0.226 -3.075,0 -4.65,0.451 -4.2,0.975 -8.1,2.549 -12.15,3.9 -4.125,1.125 -8.475,2.475 -13.275,2.25 -1.425,-0.451 -2.85,0.225 -4.35,0.149 -0.9,0.226 -1.95,0.226 -2.925,0.375 -3.675,0.525 -6.975,0.676 -10.575,1.201 -0.675,0.074 -1.95,-0.15 -2.325,0.6 -0.075,1.125 -0.15,1.724 -0.3,2.849 0,1.35 -0.3,2.701 -0.075,3.975 -0.225,0.375 -0.075,1.576 -0.3,2.101 -0.15,1.274 -0.3,2.25 -0.525,3.525 -0.15,0.675 -0.3,1.575 -0.6,2.325 0.075,0.3 -0.15,0.824 -0.15,1.199 l -0.375,2.25 h -0.075 c -0.075,0.601 -0.375,1.276 -0.375,2.101 -0.225,0.6 0.075,0.975 -0.3,1.5 0,1.575 -0.375,3.675 0,5.399 -0.075,2.401 0.75,4.5 1.35,6.6 1.425,3.826 3,7.5 4.125,11.476 0.075,0.15 0.174,0.837 0.111,1.15 -0.375,0.6 -0.111,0.875 -0.186,1.55 -0.45,4.275 2.1,7.2 3.15,10.8 -0.075,0.75 0.3,1.35 0.525,2.024 0.525,1.5 0.924,2.088 1.074,3.813 l 0.051,0.913 c 0.15,4.199 -1.089,6.962 -1.989,10.712 -0.062,0.75 -0.411,0.987 -0.336,1.438 -0.375,1.049 -0.45,2.25 -0.675,3.375 -0.225,1.424 -0.225,2.398 -0.675,3.601 0.061,0.837 -0.3,0.75 -0.225,1.198 -0.225,0.9 -0.3,1.802 -0.6,2.625 0.074,0.389 -0.075,0.302 -0.075,0.451 -0.075,0.601 -0.164,0.812 -0.351,1.312 l -0.099,0.413 c -0.525,0.674 -0.525,1.574 -0.9,2.324 0,0.225 0.375,0.524 0,0.676 l -0.75,2.023 c -0.15,0.524 -0.6,0.899 -0.375,1.5 -0.6,1.575 -1.725,2.7 -2.025,4.5 -0.525,0.977 -0.9,2.024 -1.35,3 -0.9,1.801 -1.575,3.75 -2.55,5.477 -0.9,2.023 -1.725,4.125 -2.775,6.074 -0.375,0.975 -0.825,1.875 -0.975,3 -0.375,0 -0.075,0.524 -0.225,0.676 -0.675,1.424 -1.125,3.299 -1.425,5.023 -0.525,0.977 -0.375,2.325 -0.825,3.375 0,0.75 -0.3,1.352 -0.45,2.024 0.15,0.826 -0.269,1.263 -0.45,1.801 -0.15,1.199 -1.05,1.875 -1.275,3.074 -0.15,1.576 -0.825,3.301 -0.45,4.649 0.15,0.677 -0.225,1.125 0,1.726 -0.3,0.976 0,2.101 -0.45,3.076 0.375,0.674 -0.225,1.198 0,1.725 -0.15,0.525 0.075,0.75 -0.225,1.125 -0.225,3.226 -1.05,6.375 -2.025,9.3 -0.124,0.955 -0.3,0.75 -0.225,1.274 -1.05,3.076 -2.55,6 -3.6,8.851 h 0.075 c -0.6,1.875 -1.275,3.676 -2.175,5.176 0.075,0.6 -0.375,0.824 -0.375,1.35 -0.375,0 -0.3,0.525 -0.45,0.75 -0.6,1.051 -0.9,2.326 -1.425,3.525 -0.6,1.051 -0.9,2.324 -1.5,3.375 l 0.075,0.074 c -0.9,1.727 -1.425,3.75 -2.325,5.477 -0.282,0.854 -0.525,1.049 -0.525,1.725 -0.75,1.65 -1.425,3.674 -2.025,5.549 0,0.676 -0.15,0.375 0,0.676 3.6,4.5 5.85,10.726 11.775,12.9 1.95,0.75 4.125,1.65 4.5,3.975 0.225,0.75 -0.3,0.976 -0.525,1.427 -0.825,1.049 -2.7,-0.149 -3.6,0.674 -0.975,0.149 -1.875,-0.674 -2.7,0 -0.675,0 -1.65,0.149 -2.175,-0.149 -0.9,0.451 -2.175,0.75 -3.15,0.149 -0.9,-0.601 -1.65,0.375 -2.625,0.302 -0.975,0.299 -1.125,-0.525 -1.875,-0.451 -0.525,-0.375 -1.125,-0.601 -1.65,-1.049 -1.725,-0.976 -4.95,-0.601 -6.975,-0.302 -0.45,-0.375 -0.9,0 -1.35,-0.375 -1.65,-0.899 -2.55,-2.549 -2.925,-4.5 -0.15,-1.573 -0.45,-3.299 -0.075,-4.875 0.3,-0.976 0.15,-2.323 0.45,-3.375 h 0.075 c -0.075,-0.823 0.375,-2.174 0.45,-3.299 l 0.3,-0.899 -0.075,-0.076 c 0.6,-1.726 0.975,-3.75 1.35,-5.773 0.068,-0.562 0.15,-0.525 0.15,-1.051 -0.15,-1.35 0.225,-2.625 0.375,-3.975 0,-1.201 0.375,-2.851 0.375,-3.9 0.225,-0.676 0.225,-1.801 0.3,-2.4 0.375,-3.9 1.125,-8.1 1.125,-11.699 -0.225,-0.15 0.075,-0.525 -0.075,-0.676 -0.375,-0.375 -0.075,-1.273 -0.3,-1.725 -0.15,-0.975 -0.075,-1.725 -0.075,-2.625 l 0.075,-1.275 M 75.499,121.117 c 0,0.225 0.031,0.25 -0.15,0.675 -0.675,1.65 -0.975,3.45 -1.5,5.25 0,0.45 -0.225,0.975 -0.15,1.275 -0.3,0.675 -0.225,1.65 -0.6,2.4 -0.525,1.275 -0.9,2.625 -1.125,4.05 0.825,1.125 2.1,1.875 2.925,3.075 0.75,0.45 0.45,-0.675 0.9,-0.9 0.525,-1.5 1.35,-2.925 2.475,-4.05 0.525,-0.6 -0.375,-0.9 -0.3,-1.5 -0.45,-0.675 -0.525,-1.575 -0.825,-2.4 -0.057,-0.75 -0.182,-1.25 -0.369,-2.063 l -0.188,-1.312 c -0.225,-1.125 -0.268,-2.025 -0.568,-3 -0.119,-0.375 -0.244,-0.75 -0.525,-1.5"
   id="path30"
   inkscape:connector-curvature="0" />
	</g>
	<g
   id="g42">
		<defs
   id="defs35">
			<rect
   id="SVGID_7_"
   width="427.70801"
   height="293.61899"
   x="0"
   y="0" />
		</defs>
		<clipPath
   id="SVGID_8_">
			<use
   xlink:href="#SVGID_7_"
   overflow="visible"
   id="use37"
   style="overflow:visible"
   x="0"
   y="0"
   width="100%"
   height="100%" />
		</clipPath>
		<path
   clip-path="url(#SVGID_8_)"
   d="m 119.299,1.717 c -0.3,0.3 -1.125,0.15 -1.5,0.075 l -0.075,-0.15 c 0.299,-0.225 1.275,-0.3 1.575,0.075"
   id="path40"
   inkscape:connector-curvature="0"
   style="fill:#cccccc" />
	</g>
	<g
   id="g52">
		<defs
   id="defs45">
			<rect
   id="SVGID_9_"
   width="427.70801"
   height="293.61899"
   x="0"
   y="0" />
		</defs>
		<clipPath
   id="SVGID_10_">
			<use
   xlink:href="#SVGID_9_"
   overflow="visible"
   id="use47"
   style="overflow:visible"
   x="0"
   y="0"
   width="100%"
   height="100%" />
		</clipPath>
		<path
   clip-path="url(#SVGID_10_)"
   d="m 218.45,2.767 c -3.525,0.975 -7.651,1.275 -11.476,1.65 -4.275,0 -8.475,0.375 -12.675,-0.3 -1.35,-0.225 -2.7,-0.3 -3.975,-0.6 l -0.45,-0.225 c 1.05,-0.825 3.3,-0.3 4.65,-0.525 3.975,-0.075 7.8,0.3 11.7,0.075 0.225,-0.15 0.675,-0.15 0.825,0 3.3,-0.3 7.2,-0.6 10.726,-0.45 z"
   id="path50"
   inkscape:connector-curvature="0"
   style="fill:#d0d2d3" />
	</g>
	<g
   id="g62">
		<defs
   id="defs55">
			<rect
   id="SVGID_11_"
   width="427.70801"
   height="293.61899"
   x="0"
   y="0" />
		</defs>
		<clipPath
   id="SVGID_12_">
			<use
   xlink:href="#SVGID_11_"
   overflow="visible"
   id="use57"
   style="overflow:visible"
   x="0"
   y="0"
   width="100%"
   height="100%" />
		</clipPath>
		<path
   clip-path="url(#SVGID_12_)"
   d="m 122.149,3.967 c -0.075,0.45 -0.975,0.225 -1.275,0.225 -2.625,0.075 -5.1,0.375 -7.875,0.375 -0.225,-0.225 0.225,-0.375 0.3,-0.6 1.5,-0.375 3.075,-0.75 4.875,-0.675 1.125,0.225 3.15,-0.225 3.975,0.675"
   id="path60"
   inkscape:connector-curvature="0"
   style="fill:#cccccc" />
	</g>
	<g
   id="g72">
		<defs
   id="defs65">
			<rect
   id="SVGID_13_"
   width="427.70801"
   height="293.61899"
   x="0"
   y="0" />
		</defs>
		<clipPath
   id="SVGID_14_">
			<use
   xlink:href="#SVGID_13_"
   overflow="visible"
   id="use67"
   style="overflow:visible"
   x="0"
   y="0"
   width="100%"
   height="100%" />
		</clipPath>
		<path
   clip-path="url(#SVGID_14_)"
   d="m 223.7,4.342 c -0.75,0.525 -1.801,0.675 -2.775,0.9 -5.024,1.125 -10.275,1.8 -15.9,2.1 C 198.8,7.567 192.5,7.267 187.4,5.542 c -1.125,-0.45 -2.475,-0.525 -3.45,-1.125 0.3,-0.45 0.75,-0.75 1.425,-0.6 1.2,0.375 2.4,0.675 3.675,0.9 0.225,0 0.525,0.3 0.75,0.075 2.475,0.75 5.325,0.75 7.95,1.275 0.6,-0.15 1.65,-0.075 2.1,-0.075 0.9,0.225 1.95,-0.15 2.85,0.15 1.2,-0.375 2.25,0 3.525,-0.225 1.125,0.075 2.475,-0.225 3.525,-0.15 4.275,-0.375 8.25,-1.2 12.15,-2.025 0.824,-0.075 1.499,0 1.8,0.6"
   id="path70"
   inkscape:connector-curvature="0"
   style="fill:#d0d2d3" />
	</g>
	<g
   id="g82">
		<defs
   id="defs75">
			<rect
   id="SVGID_15_"
   width="427.70801"
   height="293.61899"
   x="0"
   y="0" />
		</defs>
		<clipPath
   id="SVGID_16_">
			<use
   xlink:href="#SVGID_15_"
   overflow="visible"
   id="use77"
   style="overflow:visible"
   x="0"
   y="0"
   width="100%"
   height="100%" />
		</clipPath>
		<path
   clip-path="url(#SVGID_16_)"
   d="m 227.599,6.667 c 0.75,0.15 1.575,-0.675 2.101,0.075 -0.301,1.275 -1.051,2.25 -1.5,3.45 -0.449,0.15 -0.301,0.825 -0.601,1.05 -1.575,2.775 -3,5.7 -5.101,8.1 -0.674,0.15 -0.899,1.2 -1.726,0.825 -0.3,-0.3 -0.448,-0.9 -0.976,-0.9 -1.274,-0.225 -2.25,0.6 -3.149,1.125 -2.475,0.975 -4.725,2.175 -7.424,2.85 l -3.6,0.3 c -5.25,-0.45 -11.025,-0.75 -15.975,-1.8 -2.175,-1.275 -4.2,-2.625 -5.55,-4.725 -0.45,-0.3 -0.6,-0.825 -1.05,-1.2 -0.9,-1.35 -2.175,-2.55 -2.775,-4.2 -0.3,-0.375 -0.45,-0.75 -0.675,-1.2 -0.3,-1.05 -0.75,-1.95 -0.975,-3.075 -0.075,-0.975 1.8,0 2.1,-0.825 0.375,-0.225 0.225,-0.975 0.9,-0.825 3.15,0.6 6,1.65 9.15,2.25 1.425,0.525 2.625,0.525 4.275,0.75 1.95,-0.075 3.75,0.525 5.475,0.15 2.1,-0.075 4.5,0.15 6.75,-0.15 1.725,-0.225 3.525,-0.3 5.175,-0.675 1.95,0 4.049,-0.525 6,-0.9 l 2.174,-0.225 c 0.451,-0.3 1.125,-0.225 1.726,-0.375 1.5,-0.225 2.7,-1.05 4.274,-0.9 0.227,0.449 0.302,1.125 0.977,1.05"
   id="path80"
   inkscape:connector-curvature="0"
   style="fill:#d0d2d3" />
	</g>
	<g
   id="g92">
		<defs
   id="defs85">
			<rect
   id="SVGID_17_"
   width="427.70801"
   height="293.61899"
   x="0"
   y="0" />
		</defs>
		<clipPath
   id="SVGID_18_">
			<use
   xlink:href="#SVGID_17_"
   overflow="visible"
   id="use87"
   style="overflow:visible"
   x="0"
   y="0"
   width="100%"
   height="100%" />
		</clipPath>
		<path
   clip-path="url(#SVGID_18_)"
   d="m 122.074,5.617 c 0.825,0 1.575,0.3 2.4,0.075 0.45,0.3 1.2,0.075 1.5,0.45 0.075,0.3 0.525,0.45 0.675,0.675 l 0.675,0.75 -0.225,0.15 c -3.975,0 -7.5,0.075 -11.4,-0.075 -0.975,0.525 -1.8,-0.225 -2.775,0.3 -2.175,0.3 -4.35,0.675 -6.525,1.05 0.75,-1.2 1.95,-2.25 3.375,-2.625 2.325,-0.45 4.5,-0.225 6.975,-0.6 1.95,0 3.45,-0.225 5.325,-0.15"
   id="path90"
   inkscape:connector-curvature="0"
   style="fill:#cccccc" />
	</g>
	<g
   id="g102">
		<defs
   id="defs95">
			<rect
   id="SVGID_19_"
   width="427.70801"
   height="293.61899"
   x="0"
   y="0" />
		</defs>
		<clipPath
   id="SVGID_20_">
			<use
   xlink:href="#SVGID_19_"
   overflow="visible"
   id="use97"
   style="overflow:visible"
   x="0"
   y="0"
   width="100%"
   height="100%" />
		</clipPath>
		<path
   clip-path="url(#SVGID_20_)"
   d="m 124.024,9.217 c 1.875,0.15 3.3,0 4.95,0.45 0.75,0.3 1.425,0.75 2.025,1.275 -0.075,0.3 0.525,0.375 0.15,0.75 -1.725,0.675 -3.975,0.525 -6,0.825 -1.35,0.225 -3.6,-0.15 -4.95,0.375 -1.725,-0.075 -3.975,0.075 -5.925,0.15 l -3.15,0.075 c -2.25,0.3 -4.2,0.9 -6.375,1.2 -0.45,-0.075 -0.675,-0.075 -1.2,-0.075 -0.6,0.075 -0.9,0.15 -1.425,-0.075 l -0.075,-0.225 c 0.3,-0.75 0.45,-1.575 0.9,-2.175 4.125,-1.35 8.475,-2.625 13.425,-2.475 l 5.625,-0.15 c 0.825,0.15 1.2,0.075 2.025,0.075"
   id="path100"
   inkscape:connector-curvature="0"
   style="fill:#cccccc" />
	</g>
	<g
   id="g112">
		<defs
   id="defs105">
			<rect
   id="SVGID_21_"
   width="427.70801"
   height="293.61899"
   x="0"
   y="0" />
		</defs>
		<clipPath
   id="SVGID_22_">
			<use
   xlink:href="#SVGID_21_"
   overflow="visible"
   id="use107"
   style="overflow:visible"
   x="0"
   y="0"
   width="100%"
   height="100%" />
		</clipPath>
		<path
   clip-path="url(#SVGID_22_)"
   d="m 136.474,15.892 c 0.15,0.45 0.15,1.2 0,1.575 0.075,0.9 -0.6,1.725 -0.975,2.475 -0.6,0.825 -1.35,1.35 -2.25,1.725 l -0.45,-0.075 c 0.9,-1.575 2.1,-3.375 1.35,-5.55 l 0.15,-0.15 c -0.375,-0.975 -1.05,-1.725 -1.575,-2.625 1.725,0.15 3.15,1.2 3.75,2.625"
   id="path110"
   inkscape:connector-curvature="0"
   style="fill:#d0d2d3" />
	</g>
	<g
   id="g122">
		<defs
   id="defs115">
			<rect
   id="SVGID_23_"
   width="427.70801"
   height="293.61899"
   x="0"
   y="0" />
		</defs>
		<clipPath
   id="SVGID_24_">
			<use
   xlink:href="#SVGID_23_"
   overflow="visible"
   id="use117"
   style="overflow:visible"
   x="0"
   y="0"
   width="100%"
   height="100%" />
		</clipPath>
		<path
   clip-path="url(#SVGID_24_)"
   d="m 128.449,14.317 c 0.525,1.2 0.225,2.475 0,3.6 -0.6,1.575 -1.8,2.925 -3.75,3.15 -0.45,0 -0.9,0 -1.125,-0.3 0.75,-2.025 2.25,-3.9 1.5,-6.6 0.375,-0.375 1.05,-0.3 1.575,-0.45 0.75,0 1.575,0 1.8,0.6"
   id="path120"
   inkscape:connector-curvature="0"
   style="fill:#d0d2d3" />
	</g>
	<g
   id="g132">
		<defs
   id="defs125">
			<rect
   id="SVGID_25_"
   width="427.70801"
   height="293.61899"
   x="0"
   y="0" />
		</defs>
		<clipPath
   id="SVGID_26_">
			<use
   xlink:href="#SVGID_25_"
   overflow="visible"
   id="use127"
   style="overflow:visible"
   x="0"
   y="0"
   width="100%"
   height="100%" />
		</clipPath>
		<path
   clip-path="url(#SVGID_26_)"
   d="m 132.499,15.592 c 0.225,0.525 0.3,1.275 0.3,1.8 0.075,1.35 -0.75,2.475 -1.425,3.45 -0.825,0.675 -2.025,1.35 -3.3,0.825 l -0.3,-0.225 c 0.45,-0.225 0.45,-0.975 0.825,-1.275 1.275,-0.975 1.65,-2.925 1.725,-4.725 -0.225,-0.525 0,-0.975 -0.225,-1.575 1.275,-0.075 1.875,0.975 2.4,1.725"
   id="path130"
   inkscape:connector-curvature="0"
   style="fill:#d0d2d3" />
	</g>
	<g
   id="g142">
		<defs
   id="defs135">
			<rect
   id="SVGID_27_"
   width="427.70801"
   height="293.61899"
   x="0"
   y="0" />
		</defs>
		<clipPath
   id="SVGID_28_">
			<use
   xlink:href="#SVGID_27_"
   overflow="visible"
   id="use137"
   style="overflow:visible"
   x="0"
   y="0"
   width="100%"
   height="100%" />
		</clipPath>
		<path
   clip-path="url(#SVGID_28_)"
   d="m 123.349,14.317 c 1.125,2.1 -0.225,4.5 -1.425,5.925 -0.6,0.3 -1.2,0.975 -2.025,0.6 0.675,-1.2 1.275,-2.4 1.5,-3.9 0,-0.075 0,-0.675 0.075,-0.825 0,-0.6 -0.675,-1.8 0.225,-2.025 0.525,0.075 1.35,-0.225 1.65,0.225"
   id="path140"
   inkscape:connector-curvature="0"
   style="fill:#d0d2d3" />
	</g>
	<g
   id="g152">
		<defs
   id="defs145">
			<rect
   id="SVGID_29_"
   width="427.70801"
   height="293.61899"
   x="0"
   y="0" />
		</defs>
		<clipPath
   id="SVGID_30_">
			<use
   xlink:href="#SVGID_29_"
   overflow="visible"
   id="use147"
   style="overflow:visible"
   x="0"
   y="0"
   width="100%"
   height="100%" />
		</clipPath>
		<path
   clip-path="url(#SVGID_30_)"
   d="m 116.524,14.617 c -0.75,1.5 -1.875,2.775 -2.175,4.575 -0.375,1.2 -0.45,2.775 -0.3,4.125 -1.05,0.075 -1.65,-0.675 -2.025,-1.425 -0.45,-1.725 -0.075,-3.45 0.75,-4.875 0.525,-1.05 1.275,-2.175 2.625,-2.475 z"
   id="path150"
   inkscape:connector-curvature="0"
   style="fill:#d0d2d3" />
	</g>
	<g
   id="g162">
		<defs
   id="defs155">
			<rect
   id="SVGID_31_"
   width="427.70801"
   height="293.61899"
   x="0"
   y="0" />
		</defs>
		<clipPath
   id="SVGID_32_">
			<use
   xlink:href="#SVGID_31_"
   overflow="visible"
   id="use157"
   style="overflow:visible"
   x="0"
   y="0"
   width="100%"
   height="100%" />
		</clipPath>
		<path
   clip-path="url(#SVGID_32_)"
   d="m 112.324,14.767 c -0.975,1.875 -2.25,4.05 -1.95,6.225 h -0.075 c 0.15,0.15 0,0.375 -0.15,0.525 -0.975,-0.45 -1.125,-1.65 -1.2,-2.7 -0.075,-1.5 0.675,-2.475 1.5,-3.375 0.45,-0.225 0.825,-0.9 1.425,-0.675 z"
   id="path160"
   inkscape:connector-curvature="0"
   style="fill:#d0d2d3" />
	</g>
	<g
   id="g172">
		<defs
   id="defs165">
			<rect
   id="SVGID_33_"
   width="427.70801"
   height="293.61899"
   x="0"
   y="0" />
		</defs>
		<clipPath
   id="SVGID_34_">
			<use
   xlink:href="#SVGID_33_"
   overflow="visible"
   id="use167"
   style="overflow:visible"
   x="0"
   y="0"
   width="100%"
   height="100%" />
		</clipPath>
		<path
   clip-path="url(#SVGID_34_)"
   d="m 56.738,249.306 c 0.075,-1.5 -0.8,-2.594 -0.5,-4.019 -0.3,-1.125 0.15,-3.075 -0.15,-4.351 -0.075,-1.799 -0.45,-3.976 -0.225,-5.625 -0.225,-1.649 0.3,-3.299 0.225,-4.875 0.075,-0.976 0.6,-1.574 0.45,-2.625 0.225,-0.824 -0.075,-1.666 0.45,-2.34 -0.15,-0.451 0.25,-0.561 0.25,-1.084 0,-0.076 0.184,-0.666 0.108,-0.666 0.676,-0.303 0.059,-1.068 0.434,-1.668 0.375,-0.976 0.408,-1.816 0.858,-2.792 0.6,-1.274 0.692,-2.608 1.142,-3.958 0.074,-0.15 0.525,-0.726 0.375,-0.875 0.375,-1 0.75,-3.292 1.333,-4.207 0.5,-1.168 0.809,-1.477 1.333,-2.75 0,-0.227 0,0 0.5,-0.834 0,-0.334 -0.058,-0.291 0.167,-0.666 l 0.175,-0.511 c -0.15,-0.226 -0.233,-0.508 -0.008,-0.657 0.25,-3.166 1.166,-5.832 2.108,-9.541 0.058,-2.209 -0.9,-4.352 -1.125,-6.677 0.225,-0.073 0,-0.226 0,-0.375 h 0.075 c -0.15,-2.399 0.45,-5.25 0.525,-8.024 0.075,-0.976 0.45,-1.949 0.375,-3 0.15,-1.125 0.6,-2.625 0.675,-4.125 0.375,-0.375 0,-1.274 0.375,-1.649 -0.225,-0.226 0.242,-2.759 0.242,-2.981 0.75,-3 0.55,-3.25 1.375,-6.25 0.6,-1.951 1.325,-4.052 2,-6 0.151,-0.455 0.125,-0.875 0.5,-1.875 0.226,-1.279 0.75,-2.177 1.125,-2.625 0.75,0.448 0.85,0.948 1.375,1.625 0,0.448 0.625,1.375 1,1.75 0.9,0.375 1.125,-0.375 1.125,-1 0.75,-1.375 0.875,-1.625 1.375,-2.375 -0.082,0.287 0.675,-1.113 0.75,-1.188 0.312,-1.062 0.312,-0.562 0.312,-1.75 0.063,-0.5 0.08,-0.649 0,-1.25 -0.094,-0.712 -0.027,-0.82 -0.187,-1.5 -0.075,-1.424 -0.564,-2.467 -0.813,-3.625 -0.189,-0.88 -0.002,-1.225 0.021,-1.404 0.225,-1.05 -0.396,-2.408 0.667,-3.783 0.573,-0.742 0.354,-1.721 2.375,-3.625 0.791,-2.408 -1.396,-5.921 -2.313,-9.313 -0.534,-1.976 -0.986,-3.485 -1.404,-5.779 0.75,-2.775 0.675,-6.45 1.125,-9.225 0,-0.975 0.075,-2.325 0.075,-3.45 0.3,-0.225 -0.225,-0.45 0.075,-0.675 0,-1.5 0.108,-2.958 0.108,-4.308 0,-0.075 0.15,-0.6 0,-0.75 l -0.016,-0.684 c 0,-0.825 0.016,0.184 0.016,-0.566 l -0.083,-1.917 c -0.258,-3.975 -0.6,-6.158 -1.5,-9.833 0.075,-0.3 -0.25,-0.75 -0.458,-1.875 l -1.375,-4.708 c 1.333,1.166 3.875,2.041 5.75,2.166 1.274,0.085 2.753,0.091 3.75,0 1.375,-0.125 2,0 3.166,-0.5 0.75,-0.416 1.417,-0.333 1.709,-1.458 -0.042,-1.292 -0.209,-1.375 -0.875,-2.25 -0.925,-1.214 -0.834,-1.292 -1.75,-2.125 -0.3,-0.45 -1.5,-1.375 -1.875,-1.75 0,-0.225 -1.834,-1.325 -1.909,-1.55 -1.575,-1.5 -4.416,-2.408 -6.216,-3.533 -1.65,-0.525 -1.367,-0.533 -3.167,-0.834 -0.833,-0.583 -1.162,0.047 -2.208,-1.208 -1.25,-1.5 -1.65,-3.825 -2.625,-6 -0.375,-0.875 -1.75,-2.875 -1,-2.875 1.65,0.45 5.308,1.783 6.958,2.083 0.6,0.075 1.65,0 2.25,0.075 1.725,-0.15 3.525,-0.225 5.175,-0.6 v 0.075 c 2.325,-0.075 4.425,-0.525 6.825,-0.15 0.3,0 0.45,-0.3 0.525,-0.525 -0.15,-0.6 -0.75,-0.6 -1.275,-0.75 -0.825,-0.3 -1.8,0.075 -2.625,-0.15 -4.125,0.15 -8.4,1.275 -12.3,0.6 l -0.15,-0.15 c 2.325,-1.725 5.475,-2.25 8.325,-3.075 0.825,-0.45 2.25,-0.15 3.075,-0.6 1.125,-1.125 1.95,-2.25 2.85,-3.45 l -0.075,-0.075 1.067,-1.933 c -0.075,-0.375 0.75,-1.125 0.75,-1.5 0.375,-0.45 0.325,-1.1 0.625,-1.625 0.075,-0.6 0.75,-0.7 0.75,-1.375 0.375,-0.825 0.675,-1.875 1.125,-2.625 0.75,-1.875 0.625,-3 4,-3.625 0.675,0.3 -0.65,3.475 -0.5,4 -0.825,2.4 -0.917,5.008 -1.142,7.708 l -0.075,0.6 0.15,-0.375 c -0.144,0.175 -0.075,0.225 -0.15,0.375 0.075,0.45 0.225,0.825 0.6,0.975 0.45,0.075 0.6,-0.375 0.825,-0.675 v -0.6 l 0.149,-2.97 c 0.224,-2.176 0.393,-4.35 1.143,-5.788 0.125,-0.75 0.375,-1.312 0.732,-2.163 0.339,-0.809 0.75,-1.649 1.049,-2.549 0.525,-1.051 1.576,-1.725 1.875,-2.85 0.375,-0.226 0.375,-0.9 0.75,-1.201 0.451,-1.125 0.9,-2.25 1.5,-3.299 1.05,0.524 2.55,1.049 3.826,0.75 0.674,-0.226 1.199,-0.675 1.65,-1.05 0.225,-0.45 0.899,-0.676 0.524,-1.35 -1.049,-0.301 -1.649,0.75 -2.475,1.049 -0.6,0.375 -1.574,0.15 -2.025,-0.149 -1.575,-1.425 -2.625,-3.375 -2.325,-5.925 0.225,-1.5 0.676,-3.151 1.95,-3.825 0.976,-0.675 2.775,-1.05 3.9,-0.375 1.35,0.674 0.975,2.774 2.551,3.149 0.074,0.525 0.75,0.451 1.125,0.676 l 0.074,-0.075 c 1.275,0.075 1.65,1.274 2.926,1.35 0.525,0.375 1.424,0.074 1.949,-0.076 0.375,-0.299 0.676,-0.75 0.451,-1.274 -0.375,-0.826 -0.451,-2.025 -0.301,-3.076 h 0.075 c 0.226,-2.174 1.5,-4.125 3.15,-5.474 0.826,-0.225 0.9,0.599 1.125,0.9 0.15,2.475 -0.9,4.5 -2.699,5.625 -0.451,0.375 0.15,0.6 0.299,0.75 1.125,0.449 3.076,0.449 4.125,0 1.351,-0.15 2.625,0.824 4.125,0.225 1.275,0.449 2.4,1.425 4.125,0.9 l 1.5,-0.375 c -0.45,2.4 -2.625,3.525 -3.075,5.85 -0.599,2.324 -0.974,4.8 -1.425,7.275 -0.375,0.6 -0.975,0 -1.5,0 -0.899,-0.375 -2.024,-0.676 -2.174,-1.801 -0.451,-0.224 -0.75,0.151 -0.975,0.451 -0.301,0.75 0.299,1.274 0.674,1.725 0.301,0.15 0.75,0.449 0.451,0.824 h -0.076 c -0.15,0.75 -0.824,1.576 -1.5,2.1 -1.275,0 -1.5,-1.875 -2.924,-1.199 -0.375,1.125 0.975,1.199 0.524,2.175 -0.75,-0.15 -1.2,0.225 -1.575,0.524 -0.525,1.051 -1.199,1.951 -1.875,2.926 -1.349,0.224 -2.175,-2.1 -3.224,-0.375 -0.301,1.724 -0.526,3.974 -0.451,6.074 0.226,1.5 -0.075,3.226 0.525,4.65 0,0.151 0.15,0.826 -0.15,0.975 -2.85,0.676 -5.774,1.125 -8.25,2.326 -1.274,0.375 -2.024,-0.525 -3.225,-0.6 -2.025,-0.525 -4.574,-0.226 -6.6,0.075 -0.224,0.224 -0.75,0.224 -0.75,0.75 0.075,0.3 0.301,0.449 0.526,0.525 1.424,0 2.775,-0.301 3.974,-0.301 1.651,-0.15 3.45,0.451 5.026,0.901 2.324,0.3 3.75,-1.276 5.849,-1.5 3.301,-0.676 7.051,-1.575 10.651,-0.975 1.65,0.375 3.449,0.449 5.099,0.674 0.375,0 0.301,-0.449 0.45,-0.6 -0.225,-1.049 -1.649,-0.674 -2.25,-1.349 1.5,-1.125 3.525,-1.426 5.625,-1.801 0.3,0.15 0.675,-0.149 1.201,-0.074 l 3.375,-0.225 3,0.299 c 3.599,0.451 7.349,1.201 10.349,2.851 0.526,0.299 1.276,0.375 1.651,0.975 1.65,0.074 3.074,-0.75 4.724,-1.051 1.875,-0.599 4.2,-0.525 6.301,-0.75 2.475,0 5.625,-0.074 8.174,0.375 2.1,0.451 4.201,0.901 6.375,1.35 0.975,-0.899 0.975,-2.475 1.65,-3.6 0.526,-1.349 1.35,-2.549 1.95,-3.824 l 0.219,-0.538 c 0.25,-0.562 0.306,0.313 0.306,-0.362 0.375,-0.375 0.169,-0.838 0.694,-1.138 0.125,-0.437 0.507,-0.737 0.656,-1.112 1.65,-3.075 4.275,-5.475 5.025,-9.225 0.225,-0.525 0.301,-1.051 0.525,-1.5 0.375,-1.275 0.75,-2.625 1.125,-3.9 0.825,-2.176 1.575,-4.5 2.7,-6.526 0.451,-0.75 0.976,-1.5 2.025,-1.574 2.701,0.525 5.625,0.75 8.4,1.125 l 0.45,-0.076 c 0.976,0.226 2.326,0.301 3.3,0.301 0.301,0.3 0.6,0 1.125,0.074 4.875,0.826 8.776,-1.274 12.601,-2.774 l 2.326,-1.125 c 0.375,0 0.147,0.375 0,0.524 -2.25,2.176 -5.177,3.451 -8.625,4.051 -0.226,0.224 -0.226,0.525 -0.375,0.824 0.074,0.75 1.049,0.525 1.649,0.525 4.05,-1.049 7.5,-3 10.65,-5.25 l 0.149,0.076 c -1.649,3.674 -5.551,5.25 -9.525,6.149 -5.025,0.9 -9.75,2.025 -15.15,2.326 -1.2,0.375 -2.924,0.225 -3.299,1.574 -0.676,1.801 -1.201,3.75 -1.651,5.701 0,0.225 -0.019,0.437 -0.074,0.6 -0.601,3.074 -0.601,4.35 -1.051,7.5 -0.525,4.049 -1.724,7.65 -2.849,11.25 -0.301,0.525 -0.375,1.199 -0.676,1.725 -0.674,1.724 -1.049,3.75 -1.875,5.4 l 0.076,0.074 c -0.601,1.201 -0.976,2.551 -2.101,3.301 l -3.375,0.225 c -3.75,0.375 -7.049,1.724 -10.35,2.775 -2.699,1.199 -5.699,1.799 -8.549,2.625 -3,0.6 -6.226,1.574 -9.525,0.9 -3.975,0.149 -7.576,0.825 -11.326,1.2 -2.625,0 -5.174,1.05 -7.649,0.525 -0.076,-0.375 0.074,-0.9 0.149,-1.275 0.525,-1.651 1.125,-3.075 2.101,-4.276 0.299,-0.674 1.199,-1.199 0.975,-2.025 -0.151,-0.225 -0.375,-0.225 -0.526,-0.375 -1.574,0.976 -2.4,2.701 -3.3,4.275 -1.469,3.826 -1.969,8.826 -6.094,9.888 -4.35,1.05 -9.512,1.813 -13.937,0.313 -0.938,-0.688 -1.963,-2.163 -2.563,-3.438 -0.675,-1.125 -0.812,-3 -1.93,-4.062 -0.15,-0.15 -0.676,-0.15 -0.9,0 -0.045,0.937 0.143,2.125 0.33,2.437 0.313,0.688 0.625,1.375 0.938,2 0.555,1.11 1.463,2.45 2.062,3.5 1.438,1.375 2.813,1.625 5,1.875 4.42,0.505 8.438,0.175 12.188,-1.25 1.199,-0.525 2.625,-1.562 3.482,-2.862 0.299,0 0.299,0.375 0.224,0.449 -0.074,1.5 -0.074,2.476 -0.074,3.75 -0.076,0.451 -0.15,0.976 -0.301,1.351 -0.15,1.649 -0.074,3.299 -0.75,4.875 -0.75,4.424 -2.025,8.7 -1.875,13.575 -0.074,1.425 0.375,2.699 0.6,4.275 0.75,1.725 1.125,3.674 1.801,5.4 0.974,3.524 3,6.45 3.299,10.2 -0.225,0.674 0.226,1.875 -0.674,2.099 -0.526,0.375 -1.201,-0.15 -1.651,0.45 -3.224,0.75 -5.849,2.4 -9.15,3 -3.15,1.5 -7.049,2.25 -8.549,5.625 -1.576,3.226 -2.625,6.75 -5.101,9.226 -0.225,0.375 -0.375,0.75 -0.6,1.125 -0.6,-0.676 -1.65,-1.051 -2.775,-0.75 -0.45,0.299 -1.35,0.149 -1.274,0.975 0,0.375 0.375,0.449 0.674,0.525 0.6,0.074 1.5,-0.525 1.875,0.149 0,0.525 0.301,1.05 0.076,1.575 0.149,1.425 -0.15,3.3 -0.826,4.5 -0.824,0.75 -2.025,-0.676 -2.4,0.6 0.15,0.75 0.9,0.9 1.576,1.125 1.049,0.075 1.799,-0.448 2.25,-1.125 0.299,-0.75 0.75,-1.425 0.9,-2.25 -0.007,0.639 0.249,1.139 0.118,1.514 l -0.05,0.438 c -0.3,1.352 -0.744,2.326 -1.494,3.451 -0.599,0.674 -1.8,0.449 -2.849,0.524 -1.35,-0.302 -2.1,-1.427 -2.401,-2.7 0,-1.5 -0.3,-2.55 -0.074,-3.824 -0.15,-1.726 1.125,-4.051 -0.375,-5.25 -0.226,-0.6 -0.525,-1.276 -0.9,-1.875 h 0.074 c -0.674,-1.201 -0.975,-2.776 -1.35,-4.201 -0.074,-0.375 -0.599,-0.299 -0.824,-0.149 -0.75,0.449 -0.15,1.5 -0.226,2.25 0.406,0.712 0.451,1.274 0.675,1.949 0.375,1.575 1.651,2.625 1.801,4.426 -0.15,1.425 -0.525,2.625 -0.375,4.199 0.149,1.575 0.074,2.625 0.449,3.976 0.225,0.375 0.419,0.851 0.75,1.125 -0.081,0.664 0,0.899 0,1.351 -0.75,3.603 -1.949,6.899 -3.449,9.978 -1.051,2.022 -1.801,4.272 -3,6.299 -0.375,0.451 -0.301,0.6 -0.601,1.125 -0.524,0.676 -0.75,1.426 -1.2,2.176 -0.074,0.224 -0.298,0.52 -0.373,0.82 0.075,0.523 -0.333,0.584 -0.527,1.129 -0.074,0.75 -0.824,1.051 -0.9,1.725 -0.6,0.602 -0.825,1.727 -1.5,2.477 -0.825,1.573 -1.875,3 -2.549,4.648 -0.526,0.675 -0.6,1.65 -1.35,2.25 -0.451,1.576 -0.525,3.826 -0.976,5.625 -0.45,2.4 -0.825,4.727 -1.424,7.275 -1.125,2.926 -1.801,6.6 -5.326,7.273 -2.325,0.227 -4.799,0.45 -6.299,-0.898 -1.125,-0.9 -1.875,-2.174 -2.551,-3.449 l -0.15,-0.975 c 0.076,-0.15 -0.299,-0.375 0,-0.525 -0.225,-0.6 -0.075,-1.651 -0.149,-2.176 0.149,-0.15 0,-0.227 0,-0.449 0.225,-0.526 0.074,-1.125 -0.15,-1.576 -0.151,-0.225 -0.526,-0.45 -0.826,-0.225 -0.75,0.826 -0.225,2.701 -0.45,3.826 -0.224,2.697 1.5,4.5 2.85,6.147 1.426,1.353 3.676,2.103 5.775,1.875 0.151,0.228 0.151,-0.147 0.375,0 l 0.676,0.149 c -0.525,2.701 -1.125,6 -1.201,8.926 0.301,0.824 -0.375,1.801 0.225,2.4 0,0.299 -0.299,0.6 -0.075,0.823 -0.074,2.401 -0.75,3.826 -0.974,6.076 -0.451,3.601 -1.276,7.575 -2.701,10.799 -0.6,1.651 -1.2,3.375 -1.799,4.95 -0.301,1.425 -0.901,2.775 -1.35,4.275 h 0.074 c -0.824,1.648 -1.05,3.676 -1.574,5.475 -0.75,4.05 -2.101,7.65 -1.951,12.375 0.225,1.275 0.225,2.701 0.375,4.125 -0.225,0.977 -0.674,1.8 -0.9,2.852 l -0.75,1.875 c -0.198,0.504 -0.075,0.6 -0.375,0.823 -0.524,1.651 -1.049,3.451 -0.899,5.552 0.074,1.649 0.074,4.948 -0.301,7.125 -0.824,0.823 -2.4,1.198 -3.75,0.75 -0.449,-0.15 -0.599,-0.451 -0.824,-0.75 0,-1.201 0.524,-2.101 1.049,-2.927 0.15,-0.524 -0.074,-0.823 -0.449,-1.049 -1.576,0.45 -1.951,2.25 -2.326,3.75 -0.149,0.45 -0.825,0.149 -1.049,0.601 -0.676,0 -1.576,0.073 -1.875,-0.451 -0.301,-0.898 0.375,-1.574 0.824,-2.023 0.301,-0.451 1.125,-0.524 1.051,-1.274 -0.225,-0.375 -0.676,-0.75 -1.201,-0.45 -1.575,0.601 -2.325,2.176 -2.549,3.825 -0.526,0.448 -1.201,0 -1.651,-0.226 -0.074,-1.5 2.551,-2.326 1.051,-3.676 -1.125,0 -1.576,1.199 -2.25,1.875 -0.375,0.449 -0.451,1.125 -0.676,1.65 -0.525,0.149 -0.834,-0.441 -0.675,-1.238 0.047,0.028 1.5,-1.762 1.576,-1.838 -0.301,-0.299 -0.451,-1.125 -1.125,-0.674 -0.901,0.299 -1.201,1.35 -1.801,1.948 -0.299,-0.448 -0.294,-1.04 -0.04,-1.519 0.403,-0.731 1.091,-1.256 1.466,-1.931 0.299,-0.149 0.525,-0.45 0.9,-0.524 0.149,-0.375 0.524,-0.45 0.824,-0.601 0.526,-0.677 1.5,-0.825 1.875,-1.649 0.825,-0.676 1.051,-1.726 1.575,-2.625 0.3,-1.276 0.675,-2.551 1.05,-3.826 -0.074,-0.6 0.294,-0.645 0.375,-1.273 0.526,-1.275 0.75,-2.701 1.5,-3.826 1.051,-1.574 1.125,-4.726 0.676,-6.523 0.299,-1.201 0.074,-2.102 0,-3.149 -0.076,-0.375 0.074,-1.274 -0.076,-1.726 0.225,-0.149 -0.15,-0.602 0,-1.051 0,-1.051 -0.15,-2.176 -0.15,-3.075 l -0.075,-0.226 h 0.075 c -0.299,-0.449 0.15,-0.976 -0.149,-1.574 0.074,-0.824 -0.049,-1.805 -0.15,-3.375"
   id="path170"
   inkscape:connector-curvature="0"
   style="fill:#d0d2d3" />
	</g>
	<g
   id="g182">
		<defs
   id="defs175">
			<rect
   id="SVGID_35_"
   width="427.70801"
   height="293.61899"
   x="0"
   y="0" />
		</defs>
		<clipPath
   id="SVGID_36_">
			<use
   xlink:href="#SVGID_35_"
   overflow="visible"
   id="use177"
   style="overflow:visible"
   x="0"
   y="0"
   width="100%"
   height="100%" />
		</clipPath>
		<path
   clip-path="url(#SVGID_36_)"
   d="m 108.424,15.442 c -0.075,0.525 -0.45,0.9 -0.675,1.35 -0.075,0.6 -0.375,1.35 -1.2,0.9 -0.45,-0.075 -0.375,-0.45 -0.15,-0.825 0.6,-0.525 0.975,-1.5 2.025,-1.425"
   id="path180"
   inkscape:connector-curvature="0"
   style="fill:#d0d2d3" />
	</g>
	<g
   id="g192">
		<defs
   id="defs185">
			<rect
   id="SVGID_37_"
   width="427.70801"
   height="293.61899"
   x="0"
   y="0" />
		</defs>
		<clipPath
   id="SVGID_38_">
			<use
   xlink:href="#SVGID_37_"
   overflow="visible"
   id="use187"
   style="overflow:visible"
   x="0"
   y="0"
   width="100%"
   height="100%" />
		</clipPath>
		<path
   clip-path="url(#SVGID_38_)"
   d="m 105.124,15.967 c -0.375,0.975 -0.9,1.95 -2.1,2.025 -0.975,0.45 -1.8,1.125 -2.475,1.95 h -0.15 c 0.6,-1.8 1.875,-3.075 3.45,-4.05 z"
   id="path190"
   inkscape:connector-curvature="0"
   style="fill:#d0d2d3" />
	</g>
	<g
   id="g202">
		<defs
   id="defs195">
			<rect
   id="SVGID_39_"
   width="427.70801"
   height="293.61899"
   x="0"
   y="0" />
		</defs>
		<clipPath
   id="SVGID_40_">
			<use
   xlink:href="#SVGID_39_"
   overflow="visible"
   id="use197"
   style="overflow:visible"
   x="0"
   y="0"
   width="100%"
   height="100%" />
		</clipPath>
		<path
   clip-path="url(#SVGID_40_)"
   d="m 99.199,19.267 c -0.45,0.975 -0.825,1.95 -1.35,2.85 -0.525,1.275 -1.575,2.325 -2.55,3.225 -0.525,0.45 -1.2,0.675 -1.725,1.125 -1.2,0.3 -2.4,0.45 -3.75,0.525 -0.3,-0.75 0.45,-1.125 0.675,-1.65 0.825,-0.6 1.725,-0.75 2.475,-1.275 3.375,-1.8 4.275,-6.075 7.725,-7.65 -0.45,0.9 -1.125,1.8 -1.5,2.85"
   id="path200"
   inkscape:connector-curvature="0"
   style="fill:#d0d2d3" />
	</g>
	<g
   id="g212">
		<defs
   id="defs205">
			<rect
   id="SVGID_41_"
   width="427.70801"
   height="293.61899"
   x="0"
   y="0" />
		</defs>
		<clipPath
   id="SVGID_42_">
			<use
   xlink:href="#SVGID_41_"
   overflow="visible"
   id="use207"
   style="overflow:visible"
   x="0"
   y="0"
   width="100%"
   height="100%" />
		</clipPath>
		<path
   clip-path="url(#SVGID_42_)"
   d="m 97.024,17.392 c -0.675,1.275 -1.725,2.325 -2.475,3.45 -1.275,1.125 -2.1,2.625 -4.125,2.625 -0.375,0.075 -0.675,0 -0.825,-0.3 -0.3,-0.75 -0.15,-1.35 0.225,-1.875 0.675,-0.075 1.275,0.075 2.025,-0.075 1.875,-0.975 3.3,-2.625 4.95,-3.825 z"
   id="path210"
   inkscape:connector-curvature="0"
   style="fill:#d0d2d3" />
	</g>
	<g
   id="g222">
		<defs
   id="defs215">
			<rect
   id="SVGID_43_"
   width="427.70801"
   height="293.61899"
   x="0"
   y="0" />
		</defs>
		<clipPath
   id="SVGID_44_">
			<use
   xlink:href="#SVGID_43_"
   overflow="visible"
   id="use217"
   style="overflow:visible"
   x="0"
   y="0"
   width="100%"
   height="100%" />
		</clipPath>
		<path
   clip-path="url(#SVGID_44_)"
   d="m 99.574,22.342 c -0.169,0.837 0,1.65 -0.375,2.475 -0.75,1.575 -1.95,3.075 -3.525,3.975 -0.6,0.6 -1.5,0.975 -2.325,1.425 -1.725,0.75 -3.975,0.825 -6.15,0.975 -0.6,-0.075 -0.075,-0.6 -0.075,-0.9 0.975,-1.575 2.925,-2.025 4.95,-2.175 2.925,-0.075 4.65,-2.025 6.15,-3.9 0.243,-0.413 0.525,-0.675 0.675,-0.9 0.225,-0.3 0.225,-0.825 0.675,-0.975"
   id="path220"
   inkscape:connector-curvature="0"
   style="fill:#d0d2d3" />
	</g>
	<g
   id="g232">
		<defs
   id="defs225">
			<rect
   id="SVGID_45_"
   width="427.70801"
   height="293.61899"
   x="0"
   y="0" />
		</defs>
		<clipPath
   id="SVGID_46_">
			<use
   xlink:href="#SVGID_45_"
   overflow="visible"
   id="use227"
   style="overflow:visible"
   x="0"
   y="0"
   width="100%"
   height="100%" />
		</clipPath>
		<path
   clip-path="url(#SVGID_46_)"
   d="m 100.024,27.742 c 0.225,0.6 -0.375,1.05 -0.525,1.575 -2.4,2.25 -5.25,4.05 -8.475,5.175 -2.475,0.75 -5.625,0.6 -7.95,1.5 0.3,-1.275 1.275,-2.1 2.25,-2.775 1.8,-0.525 3.45,-0.375 5.25,-0.75 2.625,-0.45 4.875,-1.5 6.675,-3 0.825,-0.675 1.575,-1.425 2.25,-2.25 0.375,0 0.45,0.3 0.525,0.525"
   id="path230"
   inkscape:connector-curvature="0"
   style="fill:#d0d2d3" />
	</g>
	<g
   id="g242">
		<defs
   id="defs235">
			<rect
   id="SVGID_47_"
   width="427.70801"
   height="293.61899"
   x="0"
   y="0" />
		</defs>
		<clipPath
   id="SVGID_48_">
			<use
   xlink:href="#SVGID_47_"
   overflow="visible"
   id="use237"
   style="overflow:visible"
   x="0"
   y="0"
   width="100%"
   height="100%" />
		</clipPath>
		<path
   clip-path="url(#SVGID_48_)"
   d="m 99.574,31.417 c -0.375,2.25 -1.875,3.675 -3.15,5.325 -2.175,1.275 -4.95,2.625 -7.875,1.65 -0.9,-0.375 -2.775,-0.75 -3.6,0 -1.35,0.825 -1.35,2.85 -1.2,4.2 -0.9,-0.3 -1.125,-1.35 -1.2,-2.25 l 0.075,-0.225 -0.075,-0.075 c 0.225,-1.65 1.35,-3 3,-3.3 1.575,-0.225 3.45,-0.45 5.1,-0.675 1.65,-0.525 3.075,-1.2 4.575,-1.875 0.225,-0.225 0.6,-0.45 0.9,-0.6 1.2,-0.675 2.25,-1.5 3.3,-2.25 z"
   id="path240"
   inkscape:connector-curvature="0"
   style="fill:#d0d2d3" />
	</g>
	<g
   id="g252">
		<defs
   id="defs245">
			<rect
   id="SVGID_49_"
   width="427.70801"
   height="293.61899"
   x="0"
   y="0" />
		</defs>
		<clipPath
   id="SVGID_50_">
			<use
   xlink:href="#SVGID_49_"
   overflow="visible"
   id="use247"
   style="overflow:visible"
   x="0"
   y="0"
   width="100%"
   height="100%" />
		</clipPath>
		<path
   clip-path="url(#SVGID_50_)"
   d="m 57.349,80.242 c 0.15,-0.525 -0.45,-1.425 0.225,-1.725 2.475,-1.2 5.25,-1.95 7.575,-3.45 l 0.256,-0.413 c 0.6,-0.3 0.719,-0.637 0.794,-1.387 -0.075,-0.75 -0.375,-1.35 -1.125,-1.575 -1.875,-0.225 -3.675,0.3 -5.325,0.75 0.15,-0.375 0.675,-0.45 0.975,-0.75 1.125,-0.9 2.55,-1.125 3.675,-2.025 0.675,-0.45 1.65,-0.6 1.95,-1.575 0.15,-0.9 -0.3,-1.35 -0.75,-1.8 -1.125,-0.075 -1.35,-1.125 -1.95,-1.8 -1.05,-0.9 -3.075,-0.9 -4.425,-0.3 -2.325,0.675 -4.2,1.95 -6.375,2.85 0.3,-0.6 0.225,-1.65 1.125,-1.725 2.1,-0.6 3.525,-2.025 4.8,-3.525 0.3,-0.225 0.15,-0.9 0.075,-1.2 -0.15,-0.825 -0.825,-1.2 -1.575,-1.35 -0.375,0.075 -1.35,0 -1.8,0.375 -0.9,0.375 -2.025,0.525 -2.85,0.975 -1.275,0.525 -3,0.6 -3.45,2.025 -0.975,1.2 -1.5,2.7 -2.625,3.9 0.075,0.075 -0.15,0.45 -0.375,0.6 -0.6,-0.075 -0.75,-0.825 -0.9,-1.35 -0.9,-1.725 -1.275,-3.675 -2.025,-5.475 0,0 -0.15,-0.225 -0.15,-0.45 -1.725,-5.1 -2.775,-10.65 -4.275,-15.9 -0.675,-1.65 -0.975,-3.6 -1.875,-5.1 0.15,0 0,0.075 0,0 l -0.15,-0.3 c -0.225,-0.675 -0.519,-0.988 -0.825,-1.65 0.056,-0.4 -0.15,-0.825 0,-1.125 -0.15,-0.525 0,-1.35 0.225,-1.875 0.15,-0.45 0.75,-0.3 1.125,-0.45 1.875,0.675 3.675,1.65 5.25,2.775 0.375,0.3 0.375,0.075 0.375,0.3 2.55,1.575 4.8,3.75 7.05,5.7 0.75,0.975 1.725,1.575 2.55,2.475 1.35,1.125 2.1,2.775 3.675,3.75 2.25,2.7 4.8,5.1 6.975,7.95 l 0.225,0.075 c 0.525,0.975 1.35,1.8 1.725,3 h 0.15 c 1.35,2.775 2.625,5.7 3.75,8.625 0.825,1.125 2.55,1.05 3.825,1.575 1.8,0.675 3.45,1.725 5.25,2.475 0.225,0.225 0.75,0.3 0.825,0.6 0.825,0.15 1.275,0.825 2.025,1.125 1.05,0.975 2.25,1.875 3.3,2.775 0.225,0.3 0.3,0.675 0.75,0.825 0.675,1.125 1.875,1.8 2.025,3.375 -2.775,0.375 -5.4,1.05 -8.4,0.45 -1.275,-0.525 -2.55,-0.825 -3.675,-1.575 -0.075,-0.225 -0.375,-0.225 -0.375,-0.45 -0.6,-0.45 -1.275,-1.425 -2.1,-1.05 -0.075,0.675 0.001,1.471 0.301,1.921 0.5,2.083 1.084,3.667 1.424,5.354 0.15,0.675 0.375,1.2 0.45,1.95 0.9,5.175 1.95,9.975 1.425,15.75 -0.075,1.275 0.15,3 -0.225,4.425 -0.15,1.8 -0.375,3.675 -0.45,5.325 -0.225,0.975 -0.15,1.875 -0.45,3 -0.3,0.375 -0.075,1.125 -0.45,1.5 l -0.075,0.9 c -0.75,3.825 -1.875,7.5 -2.625,11.4 -0.6,1.8 -1.2,3.6 -1.875,5.4 0.15,0.9 0.975,1.125 1.425,1.65 0.225,0 0.3,0.225 0.375,0.375 2.1,1.425 2.581,2.162 3.406,4.638 0.3,0.674 0.875,2.625 0.875,2.937 l 0.187,1.75 -0.118,1.55 c -0.069,0.7 -0.257,0.889 -0.3,1.2 -0.13,0.931 -0.525,2.024 -1.35,2.55 -2.175,-3.3 -4.275,-7.125 -8.175,-8.775 -1.125,0 -1.8,0.75 -2.475,1.35 -0.3,0.525 -1.05,0.6 -1.2,1.35 -0.3,0.225 -0.525,0.6 -0.825,0.9 -1.35,1.8 -2.7,3.6 -3.675,5.625 l -1.125,1.948 c -0.225,-0.148 -0.45,-0.448 -0.45,-0.823 -0.375,-0.976 -0.825,-1.95 -1.125,-3 0,-0.15 0.075,-0.825 0,-0.9 -0.075,-2.024 -0.225,-4.8 0.45,-6.675 0.075,-1.125 0.6,-2.175 1.125,-3.225 0.825,-1.8 1.8,-3.6 3.3,-4.875 0.256,-0.2 0.225,-0.3 0.375,-0.375 1.275,-0.825 0.9,-2.85 1.275,-4.275 0.3,-3.225 0.15,-6 -0.15,-9.6 -0.3,-3.675 -0.45,-7.35 -1.65,-10.65 -0.675,-2.475 -1.2,-5.25 -2.025,-7.725 -1.05,-2.85 -1.8,-6.3 -3.15,-9.225 -0.075,-0.75 -0.45,-0.975 -0.225,-1.8 0.6,-1.725 1.2,-3.45 1.875,-5.175 l -0.075,-0.15 c 0.3,-0.525 0.075,-1.5 0.525,-1.95 -0.075,-0.825 0.225,-1.725 0.375,-2.625 -0.15,-0.3 -0.15,-0.225 -0.075,-0.525"
   id="path250"
   inkscape:connector-curvature="0"
   style="fill:#d0d2d3" />
	</g>
	<g
   id="g262">
		<defs
   id="defs255">
			<rect
   id="SVGID_51_"
   width="427.70801"
   height="293.61899"
   x="0"
   y="0" />
		</defs>
		<clipPath
   id="SVGID_52_">
			<use
   xlink:href="#SVGID_51_"
   overflow="visible"
   id="use257"
   style="overflow:visible"
   x="0"
   y="0"
   width="100%"
   height="100%" />
		</clipPath>
		<path
   clip-path="url(#SVGID_52_)"
   d="m 122.974,53.017 c -0.525,0.75 -1.575,0.975 -2.325,1.575 -0.825,0.15 -1.8,-0.15 -2.925,-0.075 l -3.225,-0.075 c -0.45,-0.75 -0.45,-1.725 -0.6,-2.625 l 0.225,-0.3 c 3.225,0.075 6.375,0.375 8.85,1.5"
   id="path260"
   inkscape:connector-curvature="0"
   style="fill:#d0d2d3" />
	</g>
	<g
   id="g272">
		<defs
   id="defs265">
			<rect
   id="SVGID_53_"
   width="427.70801"
   height="293.61899"
   x="0"
   y="0" />
		</defs>
		<clipPath
   id="SVGID_54_">
			<use
   xlink:href="#SVGID_53_"
   overflow="visible"
   id="use267"
   style="overflow:visible"
   x="0"
   y="0"
   width="100%"
   height="100%" />
		</clipPath>
		<path
   clip-path="url(#SVGID_54_)"
   d="m 55.774,81.367 h 0.075 c -0.375,1.8 -0.375,3.15 -0.975,4.725 -0.6,2.1 -1.275,4.35 -2.25,6 -0.075,0.6 -0.825,1.2 -0.3,1.875 0.15,0.15 0.375,0.225 0.525,0.3 0.3,-0.15 0.525,-0.45 0.9,-0.45 0.525,0.9 0.675,1.425 0.975,2.4 1.35,3.9 2.475,7.95 3.6,12.075 0.225,2.175 2.025,4.35 0.3,6.375 -1.425,1.95 -3,3.975 -4.875,5.55 l -0.225,0.375 c -1.125,0.6 -1.725,1.725 -3.225,1.8 -2.475,-1.575 -3.6,-4.2 -5.1,-6.45 -0.45,-1.5 -0.975,-2.85 -1.275,-4.425 0,-0.975 -0.156,-1.663 -0.082,-2.713 -0.224,-0.225 0.157,-0.962 0.082,-1.262 0.075,-2.55 1.125,-4.5 1.5,-6.9 -0.075,-0.525 0.15,-1.2 0.225,-1.725 1.2,-4.575 -2.25,-8.175 -1.275,-13.125 h -0.075 l 0.3,-3.375 0.056,-0.675 c 0.187,-0.437 0.169,-0.9 0.169,-1.2 0.15,-1.725 0.375,-2.85 0.525,-4.575 h -0.075 c 0.15,-0.45 0.075,-1.275 0.075,-1.65 0.3,-1.125 0.15,-2.7 0.6,-4.05 1.425,-2.775 3.375,-5.025 4.8,-7.8 1.575,-0.45 3.075,-1.125 4.725,-1.5 0.375,-0.225 1.875,-0.825 1.8,0.225 -0.45,0.9 -1.275,1.5 -2.025,2.175 -1.05,0.675 -2.55,0.75 -3.45,1.575 -0.675,2.25 -2.1,4.05 -3.825,5.4 -0.075,0.45 0.15,0.75 0.525,0.9 3.075,-1.725 6.075,-3.525 9.225,-5.025 1.425,-0.6 3.075,-1.5 4.8,-0.675 0.15,0.225 0.15,0.375 -0.15,0.525 -2.025,0.525 -3.75,1.35 -5.475,2.4 -0.6,0.9 -1.875,1.125 -2.625,2.025 -0.75,0.375 -1.125,1.05 -1.95,1.35 -0.225,0.375 -0.675,0.6 -1.05,0.9 -0.3,0.15 -0.375,0.6 -0.225,0.9 0.6,0.525 1.05,0 1.575,-0.225 0.75,-0.525 1.5,-1.2 2.325,-1.65 0.15,-0.45 0.675,-0.6 1.05,-0.9 0.45,-0.375 0.975,-0.675 1.425,-1.05 1.95,-1.125 3.75,-2.475 6.525,-2.55 0.15,0.15 0.75,0.15 0.525,0.675 -0.975,0.375 -1.65,1.35 -2.775,1.65 -1.425,0.675 -2.925,1.35 -4.125,2.475 -0.3,0.3 -0.15,0.225 -0.3,0.3 -1.425,0.975 -2.85,2.025 -4.05,3.3 -0.075,0.675 0.375,0.75 0.75,1.05 1.65,-1.5 3.75,-2.25 6.075,-2.85 1.35,-0.3 2.7,-1.05 4.275,-0.675 0.45,0.3 -0.15,0.6 -0.225,0.9 -3.075,1.5 -6.3,2.85 -9.6,4.2 -0.3,0.225 -0.15,0.6 0,0.9 0.3,0.375 0.975,-0.15 1.125,0.225 l 0.15,1.65"
   id="path270"
   inkscape:connector-curvature="0"
   style="fill:#d0d2d3" />
	</g>
	<g
   id="g282">
		<defs
   id="defs275">
			<rect
   id="SVGID_55_"
   width="427.70801"
   height="293.61899"
   x="0"
   y="0" />
		</defs>
		<clipPath
   id="SVGID_56_">
			<use
   xlink:href="#SVGID_55_"
   overflow="visible"
   id="use277"
   style="overflow:visible"
   x="0"
   y="0"
   width="100%"
   height="100%" />
		</clipPath>
		<path
   clip-path="url(#SVGID_56_)"
   d="m 105.78,74.804 c -0.15,0.45 -0.062,1.062 -0.281,1.925 -0.635,2.51 -1.156,3.887 -2.532,5.825 0,0.15 -1,1.125 -1,1.125 -0.6,0.675 -0.937,1.125 -1.999,1.625 -1.313,0.875 -2.723,1.354 -4.438,1.75 -1.625,0.375 -3.15,0.563 -4.875,0.938 -1.65,0.224 -3.937,0.312 -5.625,0.312 -1.25,-0.062 -1.25,-0.125 -1.937,-0.312 -1.547,-0.229 -2.813,-1 -4.188,-2.625 -0.187,-0.313 -0.331,-0.538 -0.181,-0.913 0.525,-0.45 1.07,0.218 1.35,0.6 2.019,2.75 6.3,2.1 9.75,1.95 2.85,-0.675 6.075,-0.75 8.55,-2.025 2.1,-0.675 3.3,-2.55 4.5,-4.275 0.3,-0.525 0.355,-0.719 0.593,-1.275 0.188,-0.438 0.125,-0.375 0.307,-0.825 0.381,-1.112 0.631,-1.988 0.819,-3.3 0.125,-0.375 0.156,-1.05 0.456,-1.275 0.606,-0.1 0.506,0.475 0.731,0.775"
   id="path280"
   inkscape:connector-curvature="0" />
	</g>
	<g
   id="g292">
		<defs
   id="defs285">
			<rect
   id="SVGID_57_"
   width="427.70801"
   height="293.61899"
   x="0"
   y="0" />
		</defs>
		<clipPath
   id="SVGID_58_">
			<use
   xlink:href="#SVGID_57_"
   overflow="visible"
   id="use287"
   style="overflow:visible"
   x="0"
   y="0"
   width="100%"
   height="100%" />
		</clipPath>
		<path
   clip-path="url(#SVGID_58_)"
   d="m 106.624,85.192 c -0.15,0.675 0.15,2.025 0.075,2.925 0.143,1.125 0.143,1.875 0.375,2.925 0.476,2.155 0.768,4.387 1.2,6.375 0.006,0.387 0.075,0.525 0.15,0.825 0,0.3 0.043,1.062 0.075,1.425 0.075,0.525 -0.032,1.075 0,1.65 -0.225,0.075 0.075,0.225 0,0.375 -0.094,0.737 0,0.75 -0.075,1.275 0.075,0.975 -0.225,2.175 -0.15,3.075 -0.15,0.975 0,1.5 -0.075,2.55 -0.075,0.975 -0.075,2.1 -0.375,2.925 0.143,0.537 0,0.525 -0.075,0.825 0.075,1.575 -0.094,2.587 -0.225,3.9 0,0.15 -0.075,0.675 -0.3,0.825 -0.375,0.225 -0.675,0 -0.975,-0.225 0.093,-0.413 0.156,-0.475 0.093,-0.975 0.526,-2.85 0.6,-5.538 0.75,-8.313 0.15,-2.475 0.413,-6.412 0.188,-9.187 -0.45,-2.85 -0.988,-5.6 -1.438,-8.375 0.075,-1.575 -0.25,-3 -0.343,-4.875 0.15,-0.525 0.975,-0.45 1.125,0.075"
   id="path290"
   inkscape:connector-curvature="0" />
	</g>
	<g
   id="g302">
		<defs
   id="defs295">
			<rect
   id="SVGID_59_"
   width="427.70801"
   height="293.61899"
   x="0"
   y="0" />
		</defs>
		<clipPath
   id="SVGID_60_">
			<use
   xlink:href="#SVGID_59_"
   overflow="visible"
   id="use297"
   style="overflow:visible"
   x="0"
   y="0"
   width="100%"
   height="100%" />
		</clipPath>
		<path
   clip-path="url(#SVGID_60_)"
   d="m 117.499,121.117 c 0.075,0.375 -0.469,0.625 -0.844,0.875 -3.6,0.9 -6.375,1.688 -10.125,2.438 -1.374,0.274 -2.637,0.462 -4.063,0.687 -1.062,0.125 -2.325,0.225 -3.375,0.375 -0.45,0.15 -0.687,0.062 -1.618,-0.1 -0.15,-0.675 0.375,-0.825 0.9,-0.9 6.3,-0.825 12.675,-1.725 18.15,-3.75 0.525,-0.15 0.75,0.15 0.975,0.375"
   id="path300"
   inkscape:connector-curvature="0" />
	</g>
	<g
   id="g312">
		<defs
   id="defs305">
			<rect
   id="SVGID_61_"
   width="427.70801"
   height="293.61899"
   x="0"
   y="0" />
		</defs>
		<clipPath
   id="SVGID_62_">
			<use
   xlink:href="#SVGID_61_"
   overflow="visible"
   id="use307"
   style="overflow:visible"
   x="0"
   y="0"
   width="100%"
   height="100%" />
		</clipPath>
		<path
   clip-path="url(#SVGID_62_)"
   d="m 89.524,280.642 c -0.075,-0.523 0.225,-0.975 0.075,-1.35 0.3,-0.675 0.225,-1.575 0.45,-2.25 0.075,-1.575 0.6,-3.15 0.9,-4.727 -0.075,-0.225 0.225,-0.6 0.15,-0.823 0.525,-1.875 1.125,-3.601 1.125,-5.851 h 0.075 c 0.225,-1.875 0.375,-3.451 0.45,-5.25 0.225,-0.899 0.075,-1.426 0.375,-2.176 -0.075,-0.675 0.225,-1.65 0.075,-2.324 0.45,-1.125 0.225,-3.149 0.6,-4.426 0.075,-0.75 0.075,-1.875 0.3,-2.324 0,-1.951 0.75,-4.351 0.225,-6.226 -0.355,-0.179 -0.38,-1.015 -0.45,-1.2 l 0.15,-0.3 c -0.075,-2.55 -0.3,-5.024 0.525,-7.125 -0.15,-0.45 0.375,-0.75 0.3,-1.274 0.375,-1.426 0.675,-2.851 1.35,-4.051 0.15,-0.6 0.225,-1.199 0.6,-1.725 0.9,-2.926 2.85,-5.102 4.2,-7.727 0.375,-0.148 0.3,-0.824 0.45,-1.273 l -0.375,-1.125 c 0.525,-0.525 -0.225,-0.9 -0.075,-1.5 l -0.225,-1.2 h 0.075 c -0.075,-0.899 -0.45,-1.8 -0.45,-2.774 0.225,-0.301 -0.15,-0.976 -0.15,-1.5 0.15,-0.899 -0.375,-1.875 0.075,-2.926 -0.225,-2.4 0.375,-3.525 0.525,-5.85 0.225,-1.352 0.206,-2.562 0.806,-3.688 -0.15,-0.149 0.037,-0.963 0.187,-1.188 0.313,-1.312 0.882,-2.176 1.107,-3.375 0.525,-0.75 0.45,-1.649 0.45,-2.551 0.075,-0.449 -0.15,-1.049 -0.15,-1.574 0.075,-1.051 -0.225,-1.274 -0.15,-2.399 -0.375,-0.3 0,-0.75 0,-1.125 -0.45,-0.675 -0.075,-1.95 -0.6,-2.625 0,-0.3 0.225,-1.125 -0.3,-1.351 -0.375,-1.051 0.15,-2.699 -0.525,-3.449 0.3,-0.45 -0.15,-1.051 0,-1.426 -0.15,-1.274 -0.075,-2.324 -0.075,-3.524 0.225,-0.899 0.15,-1.95 0.3,-2.774 -0.15,-0.601 0.15,-1.351 0.075,-1.949 0,-0.676 0.225,-1.352 0.225,-2.25 l -0.075,-0.45 c 0.375,-2.399 0.375,-5.101 0.975,-7.351 0.6,-0.375 1.2,0.226 2.025,0 1.5,0.149 2.4,-0.449 3.375,-1.125 0.45,-0.524 0.6,-1.274 1.05,-1.801 -0.019,-0.273 0.168,-0.462 0.225,-0.75 0.3,-1.273 0.525,-2.25 0.525,-3.523 0.3,-2.477 -0.6,-4.351 0.75,-6.15 1.125,-1.2 1.95,-2.7 2.55,-4.275 0.45,-0.6 0.675,-1.35 0.9,-2.175 0.825,-2.025 1.65,-4.125 3.75,-5.1 2.7,-1.575 5.85,-2.4 8.85,-3.45 1.125,-0.3 2.1,-0.75 3,-1.35 1.2,-0.3 2.475,-0.825 3.825,-0.6 l 0.225,0.225 c 1.125,3.675 2.775,6.975 3.75,10.8 0.75,2.1 1.725,4.65 0.9,7.275 0.15,0.375 -0.225,0.975 -0.15,1.35 -0.6,1.351 -0.675,3.075 -1.35,4.351 -0.525,1.949 -0.9,4.424 -1.35,6.601 0.075,0.073 0,0.448 -0.075,0.6 -0.075,1.125 -0.225,2.25 -0.6,3.226 -0.15,1.199 -0.375,2.476 -0.825,3.449 -0.15,1.125 -0.525,2.551 -1.05,3.602 -0.075,1.125 -0.825,1.8 -0.825,3 -0.225,0.523 -0.375,1.199 -0.675,1.725 l 0.075,0.075 c -1.35,2.25 -2.1,4.8 -3.15,7.2 -0.6,1.273 -1.2,2.625 -1.8,3.975 -1.125,2.551 -2.475,4.95 -3.225,7.725 -0.375,0.375 -0.45,0.826 -0.675,1.275 -0.375,0.676 -0.15,1.2 -0.45,2.025 -0.3,0.675 -0.45,1.5 -0.9,2.1 -0.6,1.275 -0.9,2.7 -1.35,4.2 -0.525,2.625 -0.975,4.8 -1.65,7.351 -1.425,2.549 -3.75,4.5 -7.275,4.424 -1.5,-0.073 -3.45,-0.073 -4.275,-1.35 h -0.375 c 0.45,-0.225 -0.15,-0.525 -0.225,-0.75 -0.15,-0.225 -0.3,-0.9 -0.825,-0.525 -0.15,0.302 -0.15,0.677 -0.3,0.977 0.3,1.05 1.2,1.575 2.025,2.25 1.725,0.75 4.35,0.825 6.375,0.6 1.2,-0.225 2.175,-0.898 3.225,-1.35 0.675,0.825 -0.225,2.1 0.075,3.45 0.075,0.6 0.6,1.573 0.075,1.948 -0.225,0.677 0.15,1.201 -0.075,1.802 -0.075,0.375 -0.075,1.649 -0.075,2.175 -0.375,0.75 0,2.023 -0.675,2.475 -0.975,5.7 -2.7,11.25 -5.1,16.125 -1.65,4.875 -3.825,9.375 -5.775,14.025 -0.9,2.475 -2.025,4.8 -2.85,7.35 -0.225,0.227 -0.225,0.602 -0.375,0.9 -0.975,2.25 -1.575,4.648 -2.475,6.975 -0.3,0.676 0.15,1.201 0.375,1.727 0.75,0.75 1.575,1.574 2.025,2.55 0.6,0.675 0.975,1.425 1.425,2.175 1.125,1.35 1.8,3.15 3.15,4.275 0.3,0.225 0.375,0.6 0.75,0.824 0.225,0.375 0.525,0.601 0.9,0.899 0.825,0.75 1.65,1.726 2.85,1.95 0.525,0.264 0.862,0.178 1.088,0.479 1.153,0.946 1.978,3.094 0.281,1.912 l -1.219,-1.416 c -0.825,-0.449 -1.8,-1.125 -2.85,-0.75 -0.075,0.227 -0.215,0.312 0.084,0.535 l 0.394,0.188 c 1.106,0.412 0.797,0.703 1.397,1.152 0.225,0.375 0.834,0.807 0.3,1.463 -0.3,0.375 -0.9,0.264 -1.425,0.113 -0.075,-1.726 -1.444,-2.795 -2.793,-3.32 l -0.582,0.17 c 0.919,0.91 1.425,1.426 1.725,2.4 0.3,0.75 -0.45,0.75 -0.675,0.975 -0.45,0.15 -0.675,0.074 -0.975,-0.074 0.525,-1.875 -0.816,-2.569 -1.866,-3.471 -0.6,-0.225 -1.35,-0.824 -1.95,-0.225 0,1.5 1.791,1.069 2.316,2.194 0.15,0.823 -0.525,1.05 -0.9,1.425 -1.65,0.45 -3,-0.675 -4.35,-1.2 -1.275,-0.899 -3.225,-0.3 -4.95,-0.6 -1.125,0.149 -2.475,0.524 -3.3,-0.302 -0.075,-0.448 -0.6,-0.6 -0.75,-0.975 -0.975,-1.199 -0.675,-3.375 -0.975,-4.949 0.225,-0.149 -0.075,-0.601 0.15,-0.826"
   id="path310"
   inkscape:connector-curvature="0"
   style="fill:#d0d2d3" />
	</g>
	<g
   id="g322">
		<defs
   id="defs315">
			<rect
   id="SVGID_63_"
   width="427.70801"
   height="293.61899"
   x="0"
   y="0" />
		</defs>
		<clipPath
   id="SVGID_64_">
			<use
   xlink:href="#SVGID_63_"
   overflow="visible"
   id="use317"
   style="overflow:visible"
   x="0"
   y="0"
   width="100%"
   height="100%" />
		</clipPath>
		<path
   clip-path="url(#SVGID_64_)"
   d="m 99.424,220.717 c 0,0.226 -0.375,0.075 -0.45,0.226 0.15,-0.151 0.15,-0.301 0.45,-0.226"
   id="path320"
   inkscape:connector-curvature="0"
   style="fill:#cccccc" />
	</g>
	<g
   id="g332">
		<defs
   id="defs325">
			<rect
   id="SVGID_65_"
   width="427.70801"
   height="293.61899"
   x="0"
   y="0" />
		</defs>
		<clipPath
   id="SVGID_66_">
			<use
   xlink:href="#SVGID_65_"
   overflow="visible"
   id="use327"
   style="overflow:visible"
   x="0"
   y="0"
   width="100%"
   height="100%" />
		</clipPath>
		<rect
   x="56.523998"
   y="221.467"
   clip-path="url(#SVGID_66_)"
   width="0.15000001"
   height="0.075000003"
   id="rect330"
   style="fill:#cccccc" />
	</g>
	<g
   id="g342">
		<defs
   id="defs335">
			<rect
   id="SVGID_67_"
   width="427.70801"
   height="293.61899"
   x="0"
   y="0" />
		</defs>
		<clipPath
   id="SVGID_68_">
			<use
   xlink:href="#SVGID_67_"
   overflow="visible"
   id="use337"
   style="overflow:visible"
   x="0"
   y="0"
   width="100%"
   height="100%" />
		</clipPath>
		<path
   clip-path="url(#SVGID_68_)"
   d="m 14.475,174.79 c -0.523,0 -0.468,0.004 -0.533,0.531 -0.15,1.232 -0.1,22.107 -0.15,22.982 0.074,0.008 7.047,0.771 11.425,0.951 l 0.108,0.005 c 4.336,0.183 6.953,0.29 9.75,-2.507 2.724,-2.725 2.958,-7.111 2.965,-8.391 0,-0.088 0.005,-0.203 0.013,-0.352 0.078,-1.638 0.316,-6.621 -4.067,-10.24 -3.732,-3.078 -10.222,-3.058 -13.342,-3.047 -0.73,0.007 -5.849,0.103 -6.169,0.068 m -0.733,28.677 c -0.097,2.24 -0.404,8.994 -0.355,10.976 0.011,0.436 0.01,0.916 0.01,1.427 -0.003,2.653 -0.008,6.29 1.728,8 0.711,0.7 1.647,1.03 2.86,1.01 0.726,-0.012 1.172,0.103 1.447,0.373 0.297,0.293 0.337,0.716 0.337,1.13 0,0.312 -0.121,0.586 -0.35,0.788 -0.446,0.396 -1.241,0.455 -1.837,0.381 -0.752,-0.094 -3.631,-0.313 -5.79,-0.313 -2.183,0 -5.953,0.271 -5.99,0.277 -0.677,0.125 -1.335,-0.168 -0.375,-1.097 0.596,-0.577 1.12,-2.864 1.163,-6.33 l 0.086,-6.407 c 0.09,-6.488 0.122,-13.844 0.192,-18.009 0.091,-5.45 0,-9.8 -0.093,-12.848 -0.123,-4.048 -1.089,-8.937 -4.995,-9.237 -0.806,-0.062 -1.359,-0.171 -1.623,-0.52 -0.15,-0.197 -0.192,-0.447 -0.129,-0.764 0.132,-0.658 1.139,-1.24 2.291,-1.031 1.017,0.187 1.283,0.234 2.998,0.234 0.627,0 2.177,-0.109 4.321,-0.261 3.672,-0.261 9.22,-0.722 14.357,-0.771 4.847,-0.047 11.858,0.424 16.519,4.978 2.623,2.563 3.953,6.065 3.953,10.414 0,7.006 -4.394,10.167 -7.302,12.258 m 0,0 c -2.781,2.086 -7.884,5.894 -15.29,5.894 -4.651,0 -7.249,-0.394 -8.133,-0.552"
   id="path340"
   inkscape:connector-curvature="0"
   style="fill:#00875c" />
	</g>
	<g
   id="g352">
		<defs
   id="defs345">
			<rect
   id="SVGID_69_"
   width="427.70801"
   height="293.61899"
   x="0"
   y="0" />
		</defs>
		<clipPath
   id="SVGID_70_">
			<use
   xlink:href="#SVGID_69_"
   overflow="visible"
   id="use347"
   style="overflow:visible"
   x="0"
   y="0"
   width="100%"
   height="100%" />
		</clipPath>
		<path
   clip-path="url(#SVGID_70_)"
   d="m 353.797,201.123 c -0.523,-10.112 -1.449,-15.399 -5.535,-19.992 -4.777,-5.371 -12.182,-5.894 -20.654,-5.997 -6.314,-0.076 -10.633,0.654 -13.201,2.235 -6.428,3.955 -8.291,5.649 -8.525,18.144 -0.27,14.4 3.096,18.596 6.564,21.658 3.078,2.717 12.492,6.434 20.828,6.312 7.434,-0.106 10.336,-1.619 13.914,-3.916 4.996,-3.207 7.096,-9.068 6.609,-18.444 m 7.041,-2.246 c -0.387,12.606 -2.945,17.283 -13.035,23.829 -9.627,6.244 -15.762,5.943 -18.711,5.801 l -0.178,-0.009 c -0.326,-0.017 -0.777,-0.019 -1.299,-0.021 -3.84,-0.021 -12.836,-0.072 -20.293,-5.61 -7.604,-5.646 -8.387,-15.103 -8.523,-23.522 -0.125,-7.561 0.619,-15.519 10.961,-22.412 8.631,-5.755 17.412,-6.804 23.26,-6.67 10.164,0.229 17.365,2.415 21.404,6.495 3.401,3.432 6.823,8.747 6.414,22.119"
   id="path350"
   inkscape:connector-curvature="0"
   style="fill:#00875c" />
	</g>
	<g
   id="g362">
		<defs
   id="defs355">
			<rect
   id="SVGID_71_"
   width="427.70801"
   height="293.61899"
   x="0"
   y="0" />
		</defs>
		<clipPath
   id="SVGID_72_">
			<use
   xlink:href="#SVGID_71_"
   overflow="visible"
   id="use357"
   style="overflow:visible"
   x="0"
   y="0"
   width="100%"
   height="100%" />
		</clipPath>
		<path
   clip-path="url(#SVGID_72_)"
   d="m 212.64,226.938 c 0.056,-0.562 0.223,-4.457 0.399,-8.584 l 0.34,-7.772 c 0.273,-5.91 0.502,-25.285 0.409,-30.849 -0.093,-5.57 -3.114,-5.771 -4.107,-5.838 -1.413,-0.095 -2.01,-0.681 -2,-1.181 0,-0.017 0,-0.03 0,-0.044 0,-0.24 0.094,-0.467 0.265,-0.638 0.267,-0.267 1.14,-0.402 1.755,-0.402 1.113,0 8.682,-0.559 9.561,-0.733 l 0.177,-0.037 c 0.509,-0.104 1.169,-0.35 1.362,-0.014 0.229,0.395 0,0 0.021,1.312 0.015,0.936 -0.179,13.961 -0.276,25.634 -0.078,9.137 -0.121,17.357 -0.184,20.764 -0.117,6.42 1.709,6.744 3.825,7.123 0.274,0.049 0.562,0.1 0.845,0.164 0.246,0.057 0.43,0.069 0.578,0.08 0.571,0.04 0.717,0.234 0.672,0.906 -0.029,0.438 -0.104,0.876 -0.438,1.107 -0.254,0.176 -0.6,0.195 -1.059,0.058 -0.733,-0.22 -6.801,-0.19 -9.717,-0.179 l -1.483,0.006 0.134,-0.031 c -0.047,0.023 -0.672,0.199 -1.002,-0.027 -0.225,-0.157 -0.118,-0.414 -0.077,-0.825"
   id="path360"
   inkscape:connector-curvature="0"
   style="fill:#00875c" />
	</g>
	<g
   id="g372">
		<defs
   id="defs365">
			<rect
   id="SVGID_73_"
   width="427.70801"
   height="293.61899"
   x="0"
   y="0" />
		</defs>
		<clipPath
   id="SVGID_74_">
			<use
   xlink:href="#SVGID_73_"
   overflow="visible"
   id="use367"
   style="overflow:visible"
   x="0"
   y="0"
   width="100%"
   height="100%" />
		</clipPath>
		<path
   clip-path="url(#SVGID_74_)"
   d="m 379.383,226.388 c -1.773,-0.955 -4.08,-1.058 -4.666,-4.371 -0.334,-1.879 -0.291,-9.631 -0.277,-15.892 l 0.004,-3.483 c 0,-6.662 1.006,-17.181 1.016,-17.295 0.115,0.125 10.557,11.984 21.076,22.961 10.52,10.979 23.285,22.832 23.414,22.951 l -0.059,-0.074 c 0.035,0.062 0.352,0.601 0.863,0.572 0.383,-0.021 0.701,-0.339 0.969,-0.972 1.582,-3.729 1.865,-16.656 1.781,-23.707 -0.07,-6.038 0.996,-22.31 1.508,-30.127 0.17,-2.566 0.25,-3.81 0.25,-4.002 0,-0.614 0,-1.146 -0.377,-1.38 -0.318,-0.196 -0.713,-0.041 -0.98,0.095 -0.801,0.399 -7.439,0.444 -8.816,0.339 -0.924,-0.07 -1.408,0.023 -1.664,0.329 -0.182,0.214 -0.223,0.5 -0.129,0.875 0.027,0.11 0.049,0.203 0.066,0.285 0.131,0.577 0.377,0.655 0.994,0.661 3.566,0.025 4.824,2.898 5.453,7.438 0.41,2.974 0.537,7.466 0.641,11.073 0.047,1.622 0.086,3.021 0.145,3.98 0.152,2.528 0.051,15.836 0.014,20.847 l -0.016,1.891 c 0,0.8 -0.055,1.237 -0.164,1.302 l 0.002,-0.002 c -0.002,0.002 -0.141,0.028 -0.543,-0.324 -11.246,-9.825 -15.662,-14.515 -19.559,-18.65 -1.404,-1.491 -2.73,-2.898 -4.289,-4.459 -4.232,-4.232 -12.58,-15.085 -17.293,-20.915 -1.979,-2.447 -3.283,-4.063 -3.557,-4.337 l 0.062,0.093 c -0.188,-0.433 -0.773,-0.989 -1.852,-0.812 -2.436,0.402 -7.293,0.193 -8.668,0.078 -0.648,-0.055 -1.141,-0.031 -1.418,0.259 -0.246,0.257 -0.234,0.62 -0.199,0.909 0.104,0.84 0.281,0.953 0.986,1.074 l 0.092,0.017 c 2.832,0.497 4.303,1.291 6.072,4.924 1.33,2.733 1.305,4.032 1.225,7.89 -0.023,1.094 -0.053,2.455 -0.053,4.096 0,7.164 -2.023,32.748 -2.4,35.197 -0.154,1.006 -0.422,1.779 -0.045,2.125 1.176,1.078 8.225,0.459 9.953,0.45 0.001,-0.001 1.522,-1.325 0.438,-1.909"
   id="path370"
   inkscape:connector-curvature="0"
   style="fill:#00875c" />
	</g>
	<g
   id="g382">
		<defs
   id="defs375">
			<rect
   id="SVGID_75_"
   width="427.70801"
   height="293.61899"
   x="0"
   y="0" />
		</defs>
		<clipPath
   id="SVGID_76_">
			<use
   xlink:href="#SVGID_75_"
   overflow="visible"
   id="use377"
   style="overflow:visible"
   x="0"
   y="0"
   width="100%"
   height="100%" />
		</clipPath>
		<path
   clip-path="url(#SVGID_76_)"
   d="m 103.097,201.123 c -0.525,-10.112 -1.449,-15.399 -5.535,-19.992 -4.777,-5.371 -12.181,-5.894 -20.655,-5.997 -6.315,-0.076 -10.633,0.654 -13.201,2.235 -6.428,3.955 -8.292,5.649 -8.526,18.144 -0.271,14.4 3.095,18.596 6.565,21.658 3.079,2.717 12.491,6.434 20.827,6.312 7.435,-0.106 10.336,-1.619 13.914,-3.916 4.997,-3.207 7.097,-9.068 6.611,-18.444 m 7.04,-2.246 c -0.386,12.606 -2.944,17.283 -13.035,23.829 -9.627,6.244 -15.761,5.943 -18.71,5.801 l -0.178,-0.009 c -0.328,-0.017 -0.777,-0.019 -1.298,-0.021 -3.841,-0.021 -12.837,-0.072 -20.294,-5.61 -7.602,-5.646 -8.386,-15.103 -8.525,-23.522 -0.123,-7.561 0.621,-15.519 10.962,-22.412 8.631,-5.755 17.413,-6.804 23.26,-6.67 10.164,0.229 17.365,2.415 21.405,6.495 3.401,3.432 6.823,8.747 6.413,22.119"
   id="path380"
   inkscape:connector-curvature="0"
   style="fill:#00875c" />
	</g>
	<g
   id="g392">
		<defs
   id="defs385">
			<rect
   id="SVGID_77_"
   width="427.70801"
   height="293.61899"
   x="0"
   y="0" />
		</defs>
		<clipPath
   id="SVGID_78_">
			<use
   xlink:href="#SVGID_77_"
   overflow="visible"
   id="use387"
   style="overflow:visible"
   x="0"
   y="0"
   width="100%"
   height="100%" />
		</clipPath>
		<path
   clip-path="url(#SVGID_78_)"
   d="m 124.158,175.47 c 7.031,-5.048 12.675,-5.016 15.085,-5.002 l 0.338,0.001 c 2.29,0 11.255,0.791 14.994,2.229 l 0.257,0.098 c 1.46,0.467 1.543,0.551 1.404,0.83 -0.057,0.113 -0.402,0.839 -0.463,1.002 -0.2,0.533 -0.774,2.551 -1.281,4.329 l -0.605,2.108 c -0.063,0.217 -0.116,0.416 -0.163,0.592 -0.249,0.936 -0.414,1.554 -1.495,1.365 -0.973,-0.168 -0.965,-1.039 -0.958,-1.881 0.003,-0.302 0.006,-0.611 -0.025,-0.934 -0.268,-2.79 -6.737,-4.626 -12.689,-4.938 -8.343,-0.436 -10.221,0.877 -11.878,2.037 -0.261,0.182 -0.507,0.354 -0.777,0.52 -0.902,0.554 -3.546,3.08 -3.625,5.896 -0.115,4.088 -0.272,9.688 14.551,10.993 14.691,1.296 21.655,3.923 21.498,15.347 -0.091,6.67 -3.851,9.164 -8.205,12.053 -0.618,0.41 -1.257,0.834 -1.899,1.279 -5.074,3.512 -7.14,4.674 -12.199,5 -5.975,0.385 -18.181,-2.035 -21.506,-3.144 -0.475,-0.157 -0.642,-0.073 -0.137,-1.394 l 0.081,-0.297 c 0.305,-1.143 2.079,-7.196 2.629,-8.709 0.305,-0.838 0.892,-1.311 1.496,-1.203 0.459,0.08 0.95,0.535 0.95,1.57 0,0.35 -0.079,0.707 -0.161,1.088 -0.317,1.459 -0.645,2.969 3.362,4.28 4.573,1.497 11.457,2.724 14.107,2.739 1.921,0.012 8.481,-0.243 12.265,-4.001 1.757,-1.746 2.649,-4.024 2.651,-6.774 0.007,-10.301 -10.464,-10.859 -15.495,-11.129 -0.45,-0.023 -0.837,-0.045 -1.175,-0.068 -11.101,-0.845 -18.433,-2.174 -19.174,-12.562 -0.509,-7.137 3.503,-9.973 7.384,-12.715 z"
   id="path390"
   inkscape:connector-curvature="0"
   style="fill:#00875c" />
	</g>
	<g
   id="g402">
		<defs
   id="defs395">
			<rect
   id="SVGID_79_"
   width="427.70801"
   height="293.61899"
   x="0"
   y="0" />
		</defs>
		<clipPath
   id="SVGID_80_">
			<use
   xlink:href="#SVGID_79_"
   overflow="visible"
   id="use397"
   style="overflow:visible"
   x="0"
   y="0"
   width="100%"
   height="100%" />
		</clipPath>
		<path
   clip-path="url(#SVGID_80_)"
   d="m 284.481,199.12 c 0,-0.128 -0.072,-12.869 -6.336,-18.137 -6.488,-5.457 -15.549,-5.264 -20.963,-5.146 -0.721,0.016 -1.4,0.029 -1.999,0.029 -5.199,0 -10.329,0.137 -12.101,0.263 l -0.039,0.003 -0.041,-0.008 c -0.27,-0.053 -0.727,-0.064 -0.895,0.074 -0.033,0.027 -0.064,0.064 -0.064,0.158 0,0.209 -0.033,1.377 -0.086,3.146 -0.152,5.204 -0.439,14.892 -0.439,19.778 l -0.016,5.607 c -0.021,6.394 -0.055,16.055 0.117,16.686 -0.01,-0.034 -0.05,-0.108 -0.137,-0.151 0.971,0.485 17.213,1.545 19.913,1.545 0.248,0 0.554,0.011 0.908,0.021 3.045,0.098 10.178,0.322 16.977,-4.579 4.964,-3.578 5.201,-16.662 5.199,-19.248 z m -4.057,22.036 c -10.969,6.713 -15.574,6.665 -20.452,6.614 -0.736,-0.008 -1.499,-0.016 -2.278,0.002 -5.744,0.131 -23.271,-1.043 -23.449,-1.056 l -0.298,-0.021 0.019,-0.297 c 0.008,-0.114 0.697,-11.659 0.697,-25.564 0,-13.85 -0.037,-18.389 -0.17,-20.234 l -0.013,-0.18 c -0.124,-1.779 -0.294,-4.217 -2.946,-5.236 -0.932,-0.357 -1.438,-0.975 -1.295,-1.569 0.123,-0.503 0.758,-0.953 2.186,-0.824 4.312,0.39 5.709,0.181 9.627,-0.153 0.875,-0.125 2.074,-0.457 3.439,-0.707 2.105,-0.387 6.242,-0.628 11.758,-0.591 9.666,0.067 21.631,1.021 28.412,7.843 3.721,3.743 6.041,7.991 6.104,17.594 0.064,9.84 -0.729,17.884 -11.341,24.379"
   id="path400"
   inkscape:connector-curvature="0"
   style="fill:#00875c" />
	</g>
	<g
   id="g412">
		<defs
   id="defs405">
			<rect
   id="SVGID_81_"
   width="427.70801"
   height="293.61899"
   x="0"
   y="0" />
		</defs>
		<clipPath
   id="SVGID_82_">
			<use
   xlink:href="#SVGID_81_"
   overflow="visible"
   id="use407"
   style="overflow:visible"
   x="0"
   y="0"
   width="100%"
   height="100%" />
		</clipPath>
		<path
   clip-path="url(#SVGID_82_)"
   d="m 173.592,171.931 c 1.002,0.115 14.375,-1.375 28.625,-0.25 0.263,0.021 0.013,0.854 -0.094,1.092 -0.047,0.104 -0.101,0.225 -0.148,0.365 l -0.321,1.008 c -0.99,3.123 -1.954,6.09 -2.299,6.641 -0.275,0.441 -0.587,0.695 -0.926,0.759 -0.27,0.052 -0.548,-0.022 -0.803,-0.215 -0.28,-0.211 -0.938,-0.703 -0.567,-1.813 l 0.04,-0.117 c 0.274,-0.815 0.688,-2.047 -0.048,-2.711 -0.817,-0.734 -2.438,-0.894 -3.74,-1.02 l -0.159,-0.016 c -5.628,-0.551 -17.81,-0.723 -19.36,-0.389 l 0.346,19.793 c 0,0.197 -0.02,-0.021 0,0 0.137,0.133 0.507,0.123 0.834,0.113 0.087,-0.003 0.177,-0.005 0.265,-0.005 l 10.482,-0.044 11.625,-0.049 c 0,0 -0.502,-0.02 0.948,0.078 0.511,0.035 -0.013,0.646 -0.196,1.317 -0.273,0.999 -1.755,5.882 -2.049,6.567 -0.13,0.305 -0.476,1.111 -1.274,0.912 -0.187,-0.047 -0.576,-0.145 -0.78,-0.516 -0.17,-0.31 -0.165,-0.722 0.014,-1.258 l 0.062,-0.186 c 0.207,-0.604 0.442,-1.29 0.141,-1.739 -0.245,-0.366 -0.846,-0.583 -1.787,-0.642 -3.321,-0.207 -17.492,-0.73 -18.316,-0.523 -0.111,0.027 -0.236,0.384 -0.236,0.818 v 0.057"
   id="path410"
   inkscape:connector-curvature="0"
   style="fill:#00875c" />
	</g>
	<g
   id="g422">
		<defs
   id="defs415">
			<rect
   id="SVGID_83_"
   width="427.70801"
   height="293.61899"
   x="0"
   y="0" />
		</defs>
		<clipPath
   id="SVGID_84_">
			<use
   xlink:href="#SVGID_83_"
   overflow="visible"
   id="use417"
   style="overflow:visible"
   x="0"
   y="0"
   width="100%"
   height="100%" />
		</clipPath>
		<path
   clip-path="url(#SVGID_84_)"
   d="m 173.954,221.99 c -0.038,0.481 -0.045,0.584 1.309,0.702 2.156,0.187 11.029,0.736 15.878,0.646 4.695,-0.088 8.087,-0.151 9.795,-1.681 1.387,-1.24 1.463,-1.405 1.83,-2.195 0.087,-0.189 0.187,-0.402 0.322,-0.676 0.45,-0.898 0.904,-0.934 1.49,-0.699 0.283,0.114 0.467,0.281 0.565,0.514 0.149,0.354 0.083,0.832 -0.214,1.547 -1.271,3.049 -2.813,6.735 -2.969,7.049 -0.266,0.531 -0.61,0.628 -1.194,0.628 l -17.784,-0.078 -15.475,-0.067 -0.741,-0.059 c -0.218,0.002 -0.223,-0.105 -0.059,-1.055 0.141,-0.815 0.553,-16.697 0.553,-27.254 l 0.012,-4.09 c 0.062,-8.541 0.08,-17.49 -1.672,-19.091 -1.739,-1.588 -2.254,-1.651 -3.782,-1.84 l -0.216,-0.024 c -0.707,-0.091 -0.842,-0.32 -0.876,-0.805 -0.006,-0.082 -0.012,-0.175 -0.029,-0.277 -0.132,-0.787 0.475,-0.898 0.839,-0.965 l 0.137,-0.025 c 0.642,-0.129 1.161,-0.076 3.724,0.003 3.071,0.106 4.358,-0.101 8.196,-0.269"
   id="path420"
   inkscape:connector-curvature="0"
   style="fill:#00875c" />
	</g>
	<g
   id="g432">
		<defs
   id="defs425">
			<rect
   id="SVGID_85_"
   width="427.70801"
   height="293.61899"
   x="0"
   y="0" />
		</defs>
		<clipPath
   id="SVGID_86_">
			<use
   xlink:href="#SVGID_85_"
   overflow="visible"
   id="use427"
   style="overflow:visible"
   x="0"
   y="0"
   width="100%"
   height="100%" />
		</clipPath>
		<path
   clip-path="url(#SVGID_86_)"
   d="m 156.045,134.675 -0.095,11.797 c 0,-0.029 -0.01,-0.05 -0.014,-0.055 0.362,0.486 4.716,0.795 7.554,0.795 0.655,0 2.92,-0.086 4.548,-1.196 1.273,-0.868 2.575,-2.078 2.575,-4.47 0,-3.145 -1.003,-5.05 -3.066,-5.824 -2.713,-1.017 -4.968,-1.091 -8.359,-1.091 -2.888,0 -3.1,0.027 -3.143,0.044 m 0.993,-2.309 c 1.185,0 4.378,-0.14 5.178,-0.207 2.022,-0.168 5.414,-1.074 5.414,-5.25 0,-1.861 -0.416,-3.11 -1.31,-3.931 -1.471,-1.354 -4.333,-1.716 -9.881,-1.251 -0.066,0.002 -0.128,0.02 -0.143,0.035 0.001,-0.001 0.003,-0.003 0.003,-0.004 0,0 -0.002,0.005 -0.002,0.017 0,0.55 -0.275,9.715 -0.349,10.304 -0.018,0.148 0.002,0.183 0.003,0.183 0.08,0.104 0.838,0.104 1.087,0.104 m 9.101,0.094 c 0.005,0.003 -0.296,0.017 0.279,0.045 0.039,0.002 0.095,0.004 0.164,0.006 5.05,0.136 7.831,2.655 7.831,7.093 0,4.471 -2.251,5.806 -4.857,7.352 l -0.5,0.298 -0.92,0.563 c -2.056,1.279 -3.088,1.923 -7.568,1.799 -2.752,-0.076 -9.234,-0.499 -9.234,-0.762 l 0.081,-0.448 0.002,-0.019 c 0.005,-0.041 0.481,-3.871 0.604,-13.575 0.062,-4.973 -0.221,-8.668 -0.373,-10.652 l -0.043,-0.561 c -0.099,-1.338 -0.122,-1.345 -0.713,-1.513 -0.147,-0.042 -0.33,-0.093 -0.545,-0.169 -0.786,-0.278 -0.999,-0.658 -0.936,-1.027 0.079,-0.46 0.113,-0.628 0.986,-0.696 1,-0.016 3.015,0.127 3.904,-0.058 0.064,-0.014 1.865,-0.536 2.167,-0.564 2.497,-0.234 3.553,-0.327 6.336,-0.25 5.575,0.155 8.554,2.32 8.617,6.261 0.072,4.541 -4.568,6.698 -5.282,6.877"
   id="path430"
   inkscape:connector-curvature="0"
   style="fill:#00875c" />
	</g>
	<g
   id="g442">
		<defs
   id="defs435">
			<rect
   id="SVGID_87_"
   width="427.70801"
   height="293.61899"
   x="0"
   y="0" />
		</defs>
		<clipPath
   id="SVGID_88_">
			<use
   xlink:href="#SVGID_87_"
   overflow="visible"
   id="use437"
   style="overflow:visible"
   x="0"
   y="0"
   width="100%"
   height="100%" />
		</clipPath>
		<path
   clip-path="url(#SVGID_88_)"
   d="m 207.33,135.394 -0.024,-0.332 c -0.298,-4.216 -0.535,-7.546 -2.992,-10.105 -2.945,-3.067 -7.509,-3.12 -10.841,-3.159 -1.057,-0.013 -4.671,0.047 -6.776,1.342 -1.998,1.23 -4.307,3.385 -4.436,9.186 -0.134,6.041 0.943,8.372 3.256,11.036 1.906,2.194 5.996,3.504 10.943,3.504 3.971,0 5.405,-0.519 7.115,-1.683 2.858,-1.943 4.086,-5.145 3.755,-9.789 m 3.929,-1.192 c -0.216,7.045 -1.956,9.34 -7.074,12.661 -5.056,3.279 -8.321,3.117 -9.889,3.039 l -0.14,-0.008 c -0.172,-0.008 -0.405,-0.01 -0.674,-0.011 -2.079,-0.011 -6.405,-0.034 -10.378,-2.89 -4.614,-3.316 -4.706,-8.915 -4.773,-13.003 -0.076,-4.634 0.895,-8.185 5.961,-11.562 3.633,-2.422 7.569,-3.561 12.035,-3.479 2.568,0.046 8.816,0.46 11.366,3.298 1.924,2.14 3.784,4.827 3.566,11.955"
   id="path440"
   inkscape:connector-curvature="0"
   style="fill:#00875c" />
	</g>
	<g
   id="g452">
		<defs
   id="defs445">
			<rect
   id="SVGID_89_"
   width="427.70801"
   height="293.61899"
   x="0"
   y="0" />
		</defs>
		<clipPath
   id="SVGID_90_">
			<use
   xlink:href="#SVGID_89_"
   overflow="visible"
   id="use447"
   style="overflow:visible"
   x="0"
   y="0"
   width="100%"
   height="100%" />
		</clipPath>
		<path
   clip-path="url(#SVGID_90_)"
   d="m 219.543,121.869 c 3.588,-2.576 6.328,-2.53 7.646,-2.509 l 0.297,0.004 c 1.304,0 6.435,0.481 8.435,1.09 0.865,0.351 1.115,0.226 0.865,0.664 -0.035,0.059 -0.41,1.24 -0.578,1.774 -0.266,0.846 -0.597,1.899 -0.809,2.458 -0.117,0.311 -0.281,0.645 -0.604,0.763 -0.205,0.074 -0.424,0.046 -0.655,-0.082 -0.5,-0.28 -0.417,-0.764 -0.345,-1.191 0.024,-0.144 0.05,-0.292 0.062,-0.452 0.021,-0.3 -0.083,-0.572 -0.324,-0.833 -0.869,-0.941 -3.38,-1.549 -6.394,-1.549 -2.796,0 -5.156,0.837 -6.435,1.62 -0.44,0.271 -1.886,1.264 -1.938,2.67 -0.051,1.357 -0.184,4.964 7.432,5.725 7.521,0.752 11.15,1.396 11.479,7.746 0.191,3.74 -2.006,5.207 -4.333,6.76 -0.294,0.196 -0.599,0.399 -0.899,0.608 -2.732,1.892 -4.054,2.729 -6.691,2.729 -2.69,0 -9.246,-0.875 -10.957,-1.735 -0.532,-0.269 -0.636,-0.198 -0.574,-0.481 l 0.211,-0.627 c 0.177,-0.659 1.055,-3.371 1.326,-4.118 0.185,-0.505 0.553,-0.788 0.939,-0.72 0.283,0.05 0.613,0.332 0.613,0.961 0,0.117 -0.008,0.238 -0.016,0.354 -0.047,0.759 -0.092,1.476 1.685,2.067 2.382,0.794 5.915,1.4 7.252,1.372 0.077,-0.001 7.779,-0.225 7.783,-5.617 0.002,-3.409 -2.837,-5.326 -8.438,-5.698 l -0.264,-0.018 c -5.207,-0.396 -9.705,-0.737 -10.128,-6.66 -0.274,-3.873 1.401,-5.029 3.526,-6.493 0.27,-0.187 0.548,-0.379 0.831,-0.582"
   id="path450"
   inkscape:connector-curvature="0"
   style="fill:#00875c" />
	</g>
	<g
   id="g462">
		<defs
   id="defs455">
			<rect
   id="SVGID_91_"
   width="427.70801"
   height="293.61899"
   x="0"
   y="0" />
		</defs>
		<clipPath
   id="SVGID_92_">
			<use
   xlink:href="#SVGID_91_"
   overflow="visible"
   id="use457"
   style="overflow:visible"
   x="0"
   y="0"
   width="100%"
   height="100%" />
		</clipPath>
		<path
   clip-path="url(#SVGID_92_)"
   d="m 241.521,122.242 c -0.877,0.055 -1.842,0.221 -2.224,1.427 -0.168,0.531 -0.441,0.881 -0.816,1.04 -0.49,0.207 -0.939,-0.005 -0.99,-0.03 l -0.234,-0.117 0.086,-0.249 1.595,-4.648 0.073,-0.211 0.223,0.009 c 0.1,0.004 9.568,0.258 14.413,0.317 4.332,0.052 12.705,-0.306 13.987,-0.385 0.451,-0.028 0.387,-0.091 1.14,-0.091 0.25,0 0.062,0.375 -0.625,2.001 -0.179,0.423 -0.54,2.005 -0.675,2.679 -0.104,0.521 -0.596,0.911 -1.071,0.851 -0.179,-0.022 -0.756,-0.175 -0.702,-1.203 0.014,-0.244 0.033,-0.454 0.049,-0.622 0.021,-0.215 0.045,-0.458 0.019,-0.519 0.003,0.006 0.011,0.016 0.017,0.019 -0.039,-0.022 -0.174,-0.044 -0.598,-0.019 -0.518,0.03 -2.307,-0.051 -4.381,-0.144 -2.271,-0.102 -5.381,-0.242 -5.729,-0.155 0,0 0.021,-0.005 0.047,-0.021 -0.088,0.052 -0.162,0.086 -0.223,0.113 -0.031,0.013 -0.074,0.033 -0.085,0.041 0.002,-0.002 0.005,-0.005 0.007,-0.007 -0.009,0.015 -0.039,0.093 -0.039,0.428 0,0.131 -0.013,0.757 -0.035,1.793 -0.097,4.62 -0.219,18.703 -0.106,20.499 0.021,0.33 0.089,0.62 0.122,0.879 0.176,1.363 0.236,1.623 1.138,1.713 0.806,0.081 1.347,0.518 1.524,0.911 0.111,0.251 0.097,0.506 -0.043,0.7 -0.125,0.173 -0.557,0.384 -0.987,0.304 -1.623,-0.303 -4.998,-0.303 -5.468,-0.062 -0.582,0.298 -0.717,-0.03 -0.729,-0.194 -0.015,-0.197 0.03,-0.854 0.03,-1.013 0,-0.244 0.044,-1.945 0.103,-4.097 0.092,-3.429 0.215,-8.125 0.244,-10.128 0.07,-4.933 -0.113,-7.049 -0.115,-7.121 l -0.063,-4.874"
   id="path460"
   inkscape:connector-curvature="0"
   style="fill:#00875c" />
	</g>
	<g
   id="g472">
		<defs
   id="defs465">
			<rect
   id="SVGID_93_"
   width="427.70801"
   height="293.61899"
   x="0"
   y="0" />
		</defs>
		<clipPath
   id="SVGID_94_">
			<use
   xlink:href="#SVGID_93_"
   overflow="visible"
   id="use467"
   style="overflow:visible"
   x="0"
   y="0"
   width="100%"
   height="100%" />
		</clipPath>
		<path
   clip-path="url(#SVGID_94_)"
   d="m 272.709,136.617 c 0.812,0.188 6.113,0.149 9.188,0.125 l -5.188,-11.125 c -0.01,0.034 -0.86,2.867 -1.617,4.999 -0.558,1.574 -1.988,5.027 -2.383,6.001 m -3.751,12.859 c -4.901,-0.108 -7.074,0.371 -6.008,-0.91 0.354,-0.428 0.66,-0.967 1.086,-1.542 1.317,-1.783 3.312,-4.478 5.853,-10.138 2.478,-5.516 4.104,-9.711 4.709,-12.13 l 0.153,-0.598 c 0.473,-1.814 0.601,-2.301 -0.922,-2.716 -0.949,-0.259 -1.183,-0.474 -1.183,-0.881 0,-0.537 0.888,-0.735 1.241,-0.676 0.387,0.065 3.326,-0.012 3.671,-0.127 1.331,-0.444 1.639,-0.245 1.938,0.622 0.045,0.133 0.098,0.283 0.168,0.446 0.088,0.208 0.338,0.818 0.683,1.662 1.288,3.157 3.972,9.727 5.138,12.058 l 0.208,0.416 c 1.587,3.177 4.511,8.995 5.519,10.345 0.343,0.46 1.25,1.875 2.812,2.4 l 0.407,0.088 c 0.906,0.012 0.908,0.396 0.916,0.871 0.001,0.059 -0.129,0.512 -0.234,0.623 -0.303,0.311 -0.871,0.306 -1.39,0.258 -0.83,-0.074 -2.862,0.072 -3.987,0.141 -0.705,0.043 -1.314,-0.459 -2.258,-2.029 -0.827,-1.379 -4.368,-8.308 -4.568,-8.69 l -11.234,-0.018 c -0.034,0.072 -2.699,5.51 -3.176,6.668 -0.297,0.721 -0.568,1.515 -0.332,1.928 0.113,0.196 0.349,0.315 0.719,0.366 1.17,0.158 1.24,0.674 1.218,0.889 -0.051,0.42 -0.569,0.584 -1.147,0.674"
   id="path470"
   inkscape:connector-curvature="0"
   style="fill:#00875c" />
	</g>
	<g
   id="g482">
		<defs
   id="defs475">
			<rect
   id="SVGID_95_"
   width="427.70801"
   height="293.61899"
   x="0"
   y="0" />
		</defs>
		<clipPath
   id="SVGID_96_">
			<use
   xlink:href="#SVGID_95_"
   overflow="visible"
   id="use477"
   style="overflow:visible"
   x="0"
   y="0"
   width="100%"
   height="100%" />
		</clipPath>
		<path
   clip-path="url(#SVGID_96_)"
   d="m 324,134.459 c 0,-0.094 0.002,-0.21 0.006,-0.344 0.039,-1.671 0.141,-6.107 -3.34,-9.09 -3.377,-2.895 -8.109,-2.807 -10.938,-2.755 -0.352,0.007 -0.684,0.013 -0.979,0.013 -2.736,0 -5.434,0.072 -6.361,0.138 l -0.041,0.003 -0.039,-0.008 c -0.133,-0.026 -0.309,-0.021 -0.354,0.01 0.008,-0.006 0.018,-0.022 0.018,-0.031 v 0.004 c 0,0.112 -0.016,0.695 -0.045,1.661 -0.082,2.739 -0.23,7.838 -0.23,10.41 l -0.008,2.956 c -0.012,3.348 -0.082,8.424 0.006,8.83 -0.008,-0.039 0.096,0.048 0,0 0.49,0.114 9.473,0.718 10.961,0.718 0.109,0 0.24,0.003 0.391,0.006 1.545,0.035 5.164,0.115 8.117,-2.593 2.975,-2.727 2.875,-7.879 2.842,-9.572 -0.004,-0.141 -0.006,-0.263 -0.006,-0.356 m -1.972,11.5 c -5.441,3.585 -8.336,3.616 -11.137,3.646 l -0.814,0.013 c -3.031,0.067 -12.559,-0.55 -12.652,-0.556 l -0.301,-0.021 0.021,-0.3 c 0.004,-0.063 0.415,-6.388 0.415,-13.646 0,-8.26 -0.086,-10.704 -0.137,-11.426 -0.012,-0.163 -0.014,-0.3 -0.016,-0.411 -0.008,-0.431 -0.008,-0.431 -1.111,-0.856 -0.578,-0.222 -0.898,-0.707 -0.783,-1.181 0.086,-0.353 0.201,-0.561 1.048,-0.604 1.095,-0.063 2.94,-0.003 4.782,-0.25 0.137,-0.018 0.498,-0.077 0.613,-0.154 0.148,-0.1 0.42,-0.224 0.729,-0.271 1.18,-0.178 2.623,-0.198 4.242,-0.219 0.811,-0.011 1.648,-0.022 2.508,-0.052 5.184,-0.181 11.838,0.689 14.975,3.675 1.551,1.476 3.43,4.374 3.582,9.798 0.155,5.572 -0.044,8.916 -5.964,12.815"
   id="path480"
   inkscape:connector-curvature="0"
   style="fill:#00875c" />
	</g>
	<g
   id="g492">
		<defs
   id="defs485">
			<rect
   id="SVGID_97_"
   width="427.70801"
   height="293.61899"
   x="0"
   y="0" />
		</defs>
		<clipPath
   id="SVGID_98_">
			<use
   xlink:href="#SVGID_97_"
   overflow="visible"
   id="use487"
   style="overflow:visible"
   x="0"
   y="0"
   width="100%"
   height="100%" />
		</clipPath>
		<path
   clip-path="url(#SVGID_98_)"
   d="m 336.627,121.866 c 3.588,-2.576 6.328,-2.531 7.646,-2.509 l 0.297,0.004 c 1.305,0 6.48,0.34 8.434,1.09 0.502,0.193 0.533,0.166 0.908,0.354 0.189,0.096 -0.08,0.547 -0.158,0.718 -0.027,0.063 -0.059,0.133 -0.09,0.216 -0.059,0.154 -0.203,0.615 -0.371,1.149 -0.266,0.847 -0.598,1.9 -0.809,2.459 -0.117,0.311 -0.137,0.492 -0.447,0.742 -0.17,0.135 -0.514,0.181 -0.75,0.063 -0.375,-0.188 -0.564,-0.597 -0.408,-1.315 0.033,-0.142 0.051,-0.292 0.064,-0.452 0.021,-0.3 -0.084,-0.572 -0.324,-0.833 -0.871,-0.941 -3.381,-1.549 -6.395,-1.549 -2.797,0 -5.156,0.837 -6.434,1.62 -0.441,0.271 -1.887,1.264 -1.938,2.669 -0.051,1.358 -0.186,4.965 7.432,5.726 7.52,0.752 11.148,1.396 11.477,7.746 0.193,3.74 -2.006,5.207 -4.332,6.76 -0.295,0.196 -0.598,0.399 -0.898,0.608 -2.734,1.893 -4.053,2.729 -6.693,2.729 -2.688,0 -9.244,-0.875 -10.957,-1.734 -0.531,-0.27 -0.668,-0.07 -0.531,-0.57 l 0.17,-0.539 c 0.176,-0.659 1.055,-3.371 1.324,-4.118 0.186,-0.506 0.555,-0.788 0.941,-0.72 0.283,0.05 0.613,0.332 0.613,0.961 0,0.117 -0.01,0.238 -0.018,0.354 -0.047,0.759 -0.09,1.476 1.686,2.067 2.383,0.794 5.916,1.4 7.252,1.372 0.076,-0.002 7.779,-0.224 7.783,-5.617 0.002,-3.409 -2.838,-5.326 -8.438,-5.698 l -0.264,-0.018 c -5.207,-0.396 -9.705,-0.737 -10.127,-6.66 -0.277,-3.873 1.398,-5.029 3.523,-6.493 0.27,-0.187 0.549,-0.379 0.832,-0.582"
   id="path490"
   inkscape:connector-curvature="0"
   style="fill:#00875c" />
	</g>
	<g
   id="g502">
		<defs
   id="defs495">
			<rect
   id="SVGID_99_"
   width="427.70801"
   height="293.61899"
   x="0"
   y="0" />
		</defs>
		<clipPath
   id="SVGID_100_">
			<use
   xlink:href="#SVGID_99_"
   overflow="visible"
   id="use497"
   style="overflow:visible"
   x="0"
   y="0"
   width="100%"
   height="100%" />
		</clipPath>
		<path
   clip-path="url(#SVGID_100_)"
   d="m 423.909,141.718 c 0,-3.146 -1.004,-5.051 -3.066,-5.825 -2.713,-1.017 -4.969,-1.09 -8.357,-1.09 -2.891,0 -3.244,0.057 -3.289,0.074 0,0 -0.047,0.07 0,0 l -0.104,11.74 c 0,-0.029 0.143,-0.023 0.141,-0.028 0.361,0.485 4.715,0.795 7.553,0.795 0.654,0 2.92,-0.087 4.549,-1.197 1.27,-0.868 2.573,-2.079 2.573,-4.469 m -13.576,-9.181 c 1.186,0 4.379,-0.14 5.178,-0.207 2.023,-0.168 5.414,-1.074 5.414,-5.25 0,-1.86 -0.416,-3.109 -1.309,-3.931 -1.471,-1.353 -4.334,-1.716 -9.883,-1.251 -0.064,0.002 -0.127,0.02 -0.143,0.035 0.002,-0.001 0.002,-0.003 0.002,-0.004 0,0 0,0.005 0,0.017 -0.002,0.734 0.012,9.519 -0.062,10.109 -0.02,0.147 0,0.5 0,0.5 0.08,0.104 0.554,-0.018 0.803,-0.018 m 8.74,0.185 c 0.039,0.002 0.734,-0.042 0.805,-0.04 5.051,0.137 7.83,2.656 7.83,7.093 0,4.471 -2.25,5.806 -4.857,7.352 l -0.5,0.298 -0.918,0.564 c -2.057,1.279 -3.09,1.921 -7.568,1.798 -2.752,-0.076 -9.232,-0.499 -9.232,-0.761 l 0.08,-0.45 0.002,-0.019 c 0.004,-0.039 0.379,-3.753 0.604,-13.574 0.113,-4.972 -0.221,-8.667 -0.373,-10.652 l -0.043,-0.561 c -0.1,-1.338 -0.121,-1.345 -0.713,-1.512 -0.146,-0.042 -0.33,-0.094 -0.545,-0.17 -0.785,-0.278 -1,-0.658 -0.936,-1.027 0.078,-0.46 0.316,-0.753 1.189,-0.82 1.268,0.062 3.699,0.013 4.508,-0.126 0.064,-0.011 1.057,-0.344 1.357,-0.372 2.498,-0.233 3.555,-0.327 6.336,-0.25 5.576,0.155 8.557,2.321 8.617,6.262 0.072,4.539 -4.928,6.787 -5.643,6.967"
   id="path500"
   inkscape:connector-curvature="0"
   style="fill:#00875c" />
	</g>
	<g
   id="g512">
		<defs
   id="defs505">
			<rect
   id="SVGID_101_"
   width="427.70801"
   height="293.61899"
   x="0"
   y="0" />
		</defs>
		<clipPath
   id="SVGID_102_">
			<use
   xlink:href="#SVGID_101_"
   overflow="visible"
   id="use507"
   style="overflow:visible"
   x="0"
   y="0"
   width="100%"
   height="100%" />
		</clipPath>
		<path
   clip-path="url(#SVGID_102_)"
   d="m 379.897,136.617 c 0.688,0.188 6.051,0.087 9.125,0.063 l -5.125,-10.813 c -0.012,0.034 -0.854,2.689 -1.609,4.821 -0.559,1.575 -1.996,4.955 -2.391,5.929 m 10.312,2.563 -11.225,-0.17 c -0.033,0.072 -2.816,5.519 -3.293,6.677 -0.299,0.722 -0.568,1.514 -0.33,1.928 0.111,0.194 0.346,0.315 0.717,0.366 1.17,0.158 1.24,0.675 1.217,0.89 -0.047,0.423 -0.572,0.546 -1.143,0.678 -0.568,0.132 -4.447,0.015 -4.498,0.017 h -0.312 -0.438 c -0.09,-0.049 -0.145,0.006 -0.312,0.006 -0.438,0 -1.375,0.183 -0.447,-0.935 0.355,-0.427 0.66,-0.967 1.086,-1.542 1.318,-1.783 3.312,-4.478 5.854,-10.138 2.475,-5.516 4.104,-9.711 4.709,-12.13 l 0.154,-0.598 c 0.471,-1.814 0.598,-2.301 -0.922,-2.717 -0.949,-0.258 -1.184,-0.473 -1.184,-0.879 0,-0.538 0.885,-0.736 1.24,-0.677 0.387,0.064 3.328,-0.012 3.672,-0.128 1.33,-0.443 1.637,-0.244 1.938,0.623 0.047,0.133 0.098,0.283 0.168,0.446 0.09,0.208 0.338,0.818 0.684,1.662 1.289,3.157 3.971,9.726 5.137,12.058 l 0.207,0.416 c 1.588,3.177 4.512,8.995 5.52,10.345 0.344,0.46 1.25,1.875 2.812,2.4 l 0.406,0.088 c 0.906,0.013 0.91,0.396 0.916,0.871 0.002,0.059 -0.127,0.513 -0.234,0.623 -0.303,0.312 -0.871,0.306 -1.389,0.259 -0.83,-0.075 -2.863,0.071 -3.988,0.141 -0.705,0.042 -1.314,-0.46 -2.258,-2.03 -0.831,-1.382 -4.214,-7.863 -4.464,-8.55"
   id="path510"
   inkscape:connector-curvature="0"
   style="fill:#00875c" />
	</g>
</g>
</svg>