<svg xmlns="http://www.w3.org/2000/svg" viewBox="0 0 543.7 333.4"><style>.st0{display:none;fill:none}.st1,.st2{fill:none;stroke:#9a24f4;stroke-width:10;stroke-miterlimit:10}.st2{fill:#fff}.st3{fill:#9a24f4}</style><g id="Layer_1"><path class="st0" d="M-56.3 -59.8H591V388.9H-56.3z"/><path class="st0" d="M131.6 79.2H160V96.7H131.6z"/><path class="st0" d="M131.6 79.2H149.1V96.7H131.6z"/><path class="st0" d="M131.6 96.7H160V125.1H131.6z"/><path class="st0" d="M160 79.2H205.9V125.1H160z"/><path class="st0" d="M131.6 5H205.8V79.2H131.6z"/><path class="st0" d="M11.5 5H131.6V125.1H11.5z"/><path class="st0" d="M11.5 125.1H205.8V319.4H11.5z"/><path class="st0" d="M205.8 5H520.2V319.4H205.8z"/><path class="st1" d="M520.2 5c0 173.8-140.6 314.4-314.4 314.4M11.5 125.1c-.1 107.2 86.8 194.2 194.1 194.3h.2M11.5 125.1C11.5 58.8 65.2 5 131.5 5h.2m74.1 74.2c0-41-33.2-74.2-74.1-74.2m74.1 74.2c0 25.3-20.5 45.8-45.8 45.9h-.1"/><path class="st1" d="M131.7 96.7c0 15.6 12.7 28.3 28.3 28.4m-28.3-28.4c0-9.7 7.8-17.5 17.5-17.5"/></g><g id="Lager_2"><circle class="st2" cx="202.7" cy="96.7" r="22.3"/><path class="st3" d="M197.6 105.6v-3.8h2.9v-11c-.9.6-1.9.9-2.9.9v-4c1.3-.1 2.3-.5 3-1.2h4.6v15.4h2.6v3.8h-10.2z"/><circle class="st2" cx="52.7" cy="33.6" r="22.3"/><path class="st3" d="M46 42.5V42c0-1.3.2-2.4.5-3.5s.7-1.9 1.2-2.6c.5-.7 1-1.3 1.6-1.9.6-.6 1.2-1.1 1.8-1.5.6-.4 1.1-.9 1.6-1.3s.9-.9 1.2-1.4c.3-.5.5-1.1.5-1.7 0-.9-.5-1.3-1.4-1.3-.5 0-1.1.2-1.6.7s-1 1.1-1.4 1.9l-3.8-1.7c1.5-3.3 3.8-5 7-5 1.8 0 3.3.5 4.3 1.4 1 1 1.5 2.2 1.5 3.7 0 1.1-.3 2.1-.8 3.1-.5.9-1.1 1.7-1.8 2.3S55 34.4 54.2 35s-1.3 1.1-1.9 1.7c-.5.6-.8 1.2-.8 1.7H59v3.8H46z"/><circle class="st2" cx="27.3" cy="196.4" r="22.3"/><path class="st3" d="M27 205.6c-1.7 0-3.1-.4-4.3-1.2-1.2-.8-2.1-1.9-2.7-3.2l3.7-1.7c.7 1.6 1.7 2.4 3 2.4.7 0 1.3-.2 1.7-.6.4-.4.6-.9.6-1.6 0-1-.3-1.7-.9-2.1s-1.5-.6-2.7-.6h-1v-3.5h1.1c1.2 0 2-.2 2.4-.6.4-.4.6-1 .6-1.7 0-1-.6-1.6-1.7-1.6-1.2 0-2.2.6-3.1 1.9l-3.2-2.2c1.6-2.4 3.9-3.7 6.7-3.7 1.8 0 3.2.4 4.3 1.3 1.1.9 1.7 2.1 1.7 3.6 0 1.1-.3 2-.9 2.8-.6.8-1.4 1.3-2.4 1.6 2.5.7 3.7 2.3 3.7 4.8 0 1.9-.6 3.3-1.9 4.3-1 1.1-2.7 1.6-4.7 1.6z"/><circle class="st2" cx="137.7" cy="306.1" r="22.3"/><path class="st3" d="M138 314.9v-3.7h-7.9v-3.3l7.4-12.2h5.1v11.9h2.6v3.6h-2.6v3.7H138zm-3.3-7.3h3.4v-5.7l-3.4 5.7z"/><g><circle class="st2" cx="317.3" cy="297.1" r="22.3"/><path class="st3" d="M317.3 306.3c-1.7 0-3.1-.4-4.3-1.2-1.2-.8-2.1-1.9-2.7-3.2l3.7-1.7c.7 1.6 1.7 2.4 3 2.4.8 0 1.4-.2 1.8-.7s.6-1.2.6-2.3c0-2-.8-3-2.4-3-.4 0-.9.1-1.3.4-.5.3-.8.6-1.1 1.1l-3.3-.7.6-10.7h10.9l-.2 4.1h-6.9l-.3 3.6c.7-1 1.8-1.4 3.4-1.4 1.8 0 3.1.6 4 1.7.9 1.1 1.3 2.7 1.3 4.8 0 2.2-.6 3.9-1.8 5.1-1.2 1.1-2.9 1.7-5 1.7z"/></g><g><circle class="st2" cx="441.7" cy="207.5" r="22.3"/><path class="st3" d="M442.1 216.8c-2.3 0-4-.8-5.3-2.5-1.2-1.6-1.8-4-1.8-7.2 0-3.6.7-6.2 2-7.8s3.1-2.5 5.4-2.5c2.7 0 4.7 1.3 5.9 3.8l-3.8 1.9c-.6-1.3-1.3-1.9-2.2-1.9-.8 0-1.4.3-1.9 1-.4.7-.7 1.9-.8 3.6 1.1-.9 2.4-1.3 3.8-1.3 1.6 0 2.9.5 3.8 1.6 1 1.1 1.5 2.6 1.5 4.7 0 2-.6 3.6-1.8 4.8s-2.8 1.8-4.8 1.8zm.2-3.6c.7 0 1.1-.3 1.5-.8.3-.5.5-1.2.5-2 0-1.8-.7-2.7-2-2.7-1 0-1.9.3-2.7.9.1 1.7.3 2.9.8 3.6.4.6 1 1 1.9 1z"/></g><g><circle class="st2" cx="516.3" cy="56.9" r="22.3"/><path class="st3" d="M511.6 65.8l6-15.2h-7.4v-4.1h12.3v3.8l-6 15.5h-4.9z"/></g></g></svg>