<?xml version="1.0" encoding="utf-8"?>
<!-- Generator: Adobe Illustrator 22.0.1, SVG Export Plug-In . SVG Version: 6.00 Build 0)  -->
<svg version="1.1" xmlns="http://www.w3.org/2000/svg" xmlns:xlink="http://www.w3.org/1999/xlink" x="0px" y="0px"
	 viewBox="0 0 543.7 333.4" style="enable-background:new 0 0 543.7 333.4;" xml:space="preserve">
<style type="text/css">
	.st0{display:none;fill:none;}
	.st1{fill:none;stroke:#9A24F4;stroke-width:10;stroke-miterlimit:10;}
	.st2{fill:#FFFFFF;stroke:#9A24F4;stroke-width:10;stroke-miterlimit:10;}
	.st3{fill:#9A24F4;}
</style>
<g id="Layer_1">
	<rect x="-56.3" y="-59.8" class="st0" width="647.3" height="448.7"/>
	<rect x="131.6" y="79.2" class="st0" width="28.4" height="17.5"/>
	<rect x="131.6" y="79.2" class="st0" width="17.5" height="17.5"/>
	<rect x="131.6" y="96.7" class="st0" width="28.4" height="28.4"/>
	<rect x="160" y="79.2" class="st0" width="45.9" height="45.9"/>
	<rect x="131.6" y="5" class="st0" width="74.2" height="74.2"/>
	<rect x="11.5" y="5" class="st0" width="120.1" height="120.1"/>
	<rect x="11.5" y="125.1" class="st0" width="194.3" height="194.3"/>
	<rect x="205.8" y="5" class="st0" width="314.4" height="314.4"/>
	<path class="st1" d="M520.2,5c0,173.8-140.6,314.4-314.4,314.4"/>
	<path class="st1" d="M11.5,125.1c-0.1,107.2,86.8,194.2,194.1,194.3c0.1,0,0.1,0,0.2,0"/>
	<path class="st1" d="M11.5,125.1C11.5,58.8,65.2,5,131.5,5c0.1,0,0.1,0,0.2,0"/>
	<path class="st1" d="M205.8,79.2c0-41-33.2-74.2-74.1-74.2c0,0,0,0,0,0"/>
	<path class="st1" d="M205.8,79.2c0,25.3-20.5,45.8-45.8,45.9c0,0,0,0-0.1,0"/>
	<path class="st1" d="M131.7,96.7c0,15.6,12.7,28.3,28.3,28.4c0,0,0,0,0,0"/>
	<path class="st1" d="M131.7,96.7c0-9.7,7.8-17.5,17.5-17.5c0,0,0,0,0,0"/>
</g>
<g id="Lager_2">
	<g>
		<circle class="st2" cx="202.7" cy="96.7" r="22.3"/>
		<path class="st3" d="M197.6,105.6v-3.8h2.9v-11c-0.9,0.6-1.9,0.9-2.9,0.9v-4c1.3-0.1,2.3-0.5,3-1.2h4.6v15.4h2.6v3.8H197.6z"/>
	</g>
	<g>
		<circle class="st2" cx="52.7" cy="33.6" r="22.3"/>
		<path class="st3" d="M46,42.5V42c0-1.3,0.2-2.4,0.5-3.5s0.7-1.9,1.2-2.6c0.5-0.7,1-1.3,1.6-1.9c0.6-0.6,1.2-1.1,1.8-1.5
			c0.6-0.4,1.1-0.9,1.6-1.3c0.5-0.4,0.9-0.9,1.2-1.4c0.3-0.5,0.5-1.1,0.5-1.7c0-0.9-0.5-1.3-1.4-1.3c-0.5,0-1.1,0.2-1.6,0.7
			s-1,1.1-1.4,1.9l-3.8-1.7c1.5-3.3,3.8-5,7-5c1.8,0,3.3,0.5,4.3,1.4c1,1,1.5,2.2,1.5,3.7c0,1.1-0.3,2.1-0.8,3.1
			c-0.5,0.9-1.1,1.7-1.8,2.3s-1.4,1.2-2.2,1.8s-1.3,1.1-1.9,1.7c-0.5,0.6-0.8,1.2-0.8,1.7H59v3.8H46z"/>
	</g>
	<g>
		<circle class="st2" cx="27.3" cy="196.4" r="22.3"/>
		<path class="st3" d="M27,205.6c-1.7,0-3.1-0.4-4.3-1.2c-1.2-0.8-2.1-1.9-2.7-3.2l3.7-1.7c0.7,1.6,1.7,2.4,3,2.4
			c0.7,0,1.3-0.2,1.7-0.6c0.4-0.4,0.6-0.9,0.6-1.6c0-1-0.3-1.7-0.9-2.1s-1.5-0.6-2.7-0.6h-1v-3.5h1.1c1.2,0,2-0.2,2.4-0.6
			c0.4-0.4,0.6-1,0.6-1.7c0-1-0.6-1.6-1.7-1.6c-1.2,0-2.2,0.6-3.1,1.9l-3.2-2.2c1.6-2.4,3.9-3.7,6.7-3.7c1.8,0,3.2,0.4,4.3,1.3
			c1.1,0.9,1.7,2.1,1.7,3.6c0,1.1-0.3,2-0.9,2.8c-0.6,0.8-1.4,1.3-2.4,1.6c2.5,0.7,3.7,2.3,3.7,4.8c0,1.9-0.6,3.3-1.9,4.3
			C30.7,205.1,29,205.6,27,205.6z"/>
	</g>
	<g>
		<circle class="st2" cx="137.7" cy="306.1" r="22.3"/>
		<path class="st3" d="M138,314.9v-3.7h-7.9v-3.3l7.4-12.2h5.1v11.9h2.6v3.6h-2.6v3.7H138z M134.7,307.6h3.4v-5.7h0L134.7,307.6z"/>
	</g>
	<g>
		<circle class="st2" cx="317.3" cy="297.1" r="22.3"/>
		<path class="st3" d="M317.3,306.3c-1.7,0-3.1-0.4-4.3-1.2c-1.2-0.8-2.1-1.9-2.7-3.2l3.7-1.7c0.7,1.6,1.7,2.4,3,2.4
			c0.8,0,1.4-0.2,1.8-0.7s0.6-1.2,0.6-2.3c0-2-0.8-3-2.4-3c-0.4,0-0.9,0.1-1.3,0.4c-0.5,0.3-0.8,0.6-1.1,1.1l-3.3-0.7l0.6-10.7h10.9
			l-0.2,4.1h-6.9l-0.3,3.6c0.7-1,1.8-1.4,3.4-1.4c1.8,0,3.1,0.6,4,1.7c0.9,1.1,1.3,2.7,1.3,4.8c0,2.2-0.6,3.9-1.8,5.1
			C321.1,305.7,319.4,306.3,317.3,306.3z"/>
	</g>
	<g>
		<circle class="st2" cx="441.7" cy="207.5" r="22.3"/>
		<path class="st3" d="M442.1,216.8c-2.3,0-4-0.8-5.3-2.5c-1.2-1.6-1.8-4-1.8-7.2c0-3.6,0.7-6.2,2-7.8s3.1-2.5,5.4-2.5
			c2.7,0,4.7,1.3,5.9,3.8l-3.8,1.9c-0.6-1.3-1.3-1.9-2.2-1.9c-0.8,0-1.4,0.3-1.9,1c-0.4,0.7-0.7,1.9-0.8,3.6
			c1.1-0.9,2.4-1.3,3.8-1.3c1.6,0,2.9,0.5,3.8,1.6c1,1.1,1.5,2.6,1.5,4.7c0,2-0.6,3.6-1.8,4.8S444.1,216.8,442.1,216.8z
			 M442.3,213.2c0.7,0,1.1-0.3,1.5-0.8c0.3-0.5,0.5-1.2,0.5-2c0-1.8-0.7-2.7-2-2.7c-1,0-1.9,0.3-2.7,0.9c0.1,1.7,0.3,2.9,0.8,3.6
			C440.8,212.8,441.4,213.2,442.3,213.2z"/>
	</g>
	<g>
		<circle class="st2" cx="516.3" cy="56.9" r="22.3"/>
		<path class="st3" d="M511.6,65.8l6-15.2h-7.4v-4.1h12.3v3.8l-6,15.5H511.6z"/>
	</g>
</g>
</svg>
