<svg id="Lager_1" data-name="Lager 1" xmlns="http://www.w3.org/2000/svg" viewBox="0 0 321.13 299.99"><defs><style>.cls-1{fill:#ff7484;}</style></defs><title>Digidem Lab-</title><rect class="cls-1" x="298.34" y="150.43" width="4.32" height="18"/><rect class="cls-1" x="298.34" y="187.15" width="4.32" height="18"/><rect class="cls-1" x="298.34" y="223.87" width="4.32" height="18"/><polygon class="cls-1" points="299.77 1.8 300.49 1.8 308.29 25.08 313.33 25.08 304.69 0 295.57 0 286.93 25.08 291.97 25.08 299.77 1.8"/><path class="cls-1" d="M300.16,118.51a4.2,4.2,0,1,0,3,1.23A4,4,0,0,0,300.16,118.51Z"/><path class="cls-1" d="M316.45,35V58.8h-.72L307,45.12h-7v5.65a8.68,8.68,0,0,1-2.13,6,7.51,7.51,0,0,1-5.91,2.4h-.36a8.17,8.17,0,0,1-3.4-.72,8.74,8.74,0,0,1-2.76-2,9.31,9.31,0,0,1-1.82-3,9.9,9.9,0,0,1-.66-3.68,11.75,11.75,0,0,1,.66-4,9.34,9.34,0,0,1,1.89-3.21,8.38,8.38,0,0,1,3-2.1,10.27,10.27,0,0,1,4.05-.75h2.88v-5h-3.24a14.21,14.21,0,0,0-5.44,1,12.91,12.91,0,0,0-4.44,3,14.38,14.38,0,0,0-3,4.8,17.69,17.69,0,0,0-1.08,6.37,15.59,15.59,0,0,0,1,5.66A14.29,14.29,0,0,0,282,60.12a12.23,12.23,0,0,0,4.06,3,11.8,11.8,0,0,0,5,1.08h1.08a11.64,11.64,0,0,0,5.08-1.05,11.25,11.25,0,0,0,3.69-2.76,11.93,11.93,0,0,0,2.28-3.93,13.82,13.82,0,0,0,.78-4.61v-2.4h.72l8.76,13.67h7.68V35Z"/><path class="cls-1" d="M300.16,81.79a4.18,4.18,0,1,0,3,1.22A4.08,4.08,0,0,0,300.16,81.79Z"/><polygon class="cls-1" points="30.54 274.19 55.63 282.83 55.63 277.79 32.34 269.99 32.34 269.27 55.63 261.47 55.63 256.43 30.54 265.07 30.54 274.19"/><polygon class="cls-1" points="105.67 295.67 109.92 296.99 127.39 243.59 123.19 242.27 105.67 295.67"/><polygon class="cls-1" points="68.94 295.67 73.2 296.99 90.67 243.59 86.46 242.27 68.94 295.67"/><path class="cls-1" d="M6,240.59A4.61,4.61,0,0,0,4.68,244v20.7q0,1.74-1.62,1.74H0v6.48H3.06q1.62,0,1.62,1.74v20.7A4.61,4.61,0,0,0,6,298.67,4.45,4.45,0,0,0,9.3,300h5.82v-4.32H11q-1.62,0-1.62-1.8v-19.2a4.61,4.61,0,0,0-1.29-3.36A4.53,4.53,0,0,0,4.68,270H4v-.72h.72A4.53,4.53,0,0,0,8.07,268a4.61,4.61,0,0,0,1.29-3.36v-19.2q0-1.8,1.62-1.8h4.14v-4.32H9.3A4.45,4.45,0,0,0,6,240.59Z"/><path class="cls-1" d="M263.41,265.43a4.2,4.2,0,1,0,3,1.23A4,4,0,0,0,263.41,265.43Z"/><path class="cls-1" d="M226.69,265.43a4.2,4.2,0,1,0,3,1.23A4,4,0,0,0,226.69,265.43Z"/><path class="cls-1" d="M300.13,265.43a4.22,4.22,0,1,0,3,1.23A4,4,0,0,0,300.13,265.43Z"/><path class="cls-1" d="M191.65,264.65V244a4.61,4.61,0,0,0-1.29-3.36,4.45,4.45,0,0,0-3.33-1.32h-5.82v4.32h4.14q1.62,0,1.62,1.8v19.2a4.61,4.61,0,0,0,1.29,3.36,4.53,4.53,0,0,0,3.39,1.32h.72V270h-.72a4.53,4.53,0,0,0-3.39,1.32,4.61,4.61,0,0,0-1.29,3.36v19.2q0,1.8-1.62,1.8h-4.14V300H187a4.45,4.45,0,0,0,3.33-1.32,4.61,4.61,0,0,0,1.29-3.36v-20.7q0-1.74,1.62-1.74h3.06v-6.48h-3.06Q191.65,266.39,191.65,264.65Z"/><polygon class="cls-1" points="140.71 261.47 163.99 269.27 163.99 269.99 140.71 277.79 140.71 282.83 165.79 274.19 165.79 265.07 140.71 256.43 140.71 261.47"/></svg>