<svg id="Lager_1" data-name="Lager 1" xmlns="http://www.w3.org/2000/svg" viewBox="0 0 299.99 299.99"><defs><style>.cls-1{fill:#b2fbe4;}.cls-2{fill:#00f1a4;}.cls-3{fill:#ff7484;}.cls-4{fill:#e50046;}.cls-5{fill:#1d1d1b;}.cls-6{fill:#ffb800;}</style></defs><title>Namnlöst-1</title><path class="cls-1" d="M150,43.53a92.66,92.66,0,1,1-92.66,92.66A92.67,92.67,0,0,1,150,43.53"/><path class="cls-2" d="M218.67,198.39A92.66,92.66,0,1,1,114.46,50.6,92.68,92.68,0,0,0,218.67,198.39"/><polygon class="cls-3" points="207.94 208.54 155.3 208.54 144.69 208.54 92.05 208.54 86.94 256.46 144.69 256.46 155.3 256.46 213.05 256.46 207.94 208.54"/><polygon class="cls-4" points="134.89 208.54 129.78 256.46 86.94 256.46 92.05 208.54 134.89 208.54"/><path class="cls-5" d="M245.85,136.19a95.83,95.83,0,0,0-48.64-83.44,3.2,3.2,0,1,0-3.15,5.57,89.42,89.42,0,0,1,12.61,147H93.32a89.47,89.47,0,0,1,80.9-155.29A3.2,3.2,0,1,0,176,43.89,95.88,95.88,0,0,0,82.21,204q3.12,3.12,6.47,5.91l-4.92,46.23a3.18,3.18,0,0,0,.8,2.48,3.22,3.22,0,0,0,2.38,1.06h15.67a3.2,3.2,0,1,0,0-6.4H90.5l4.42-41.51H205.06l4.43,41.51H125.66a3.2,3.2,0,1,0,0,6.4h87.39a3.22,3.22,0,0,0,2.38-1.06,3.18,3.18,0,0,0,.8-2.48l-4.93-46.25c2.23-1.86,4.4-3.81,6.48-5.89a95.26,95.26,0,0,0,28.07-67.79"/><path class="cls-6" d="M191.24,90.7s-2.43,16.63-11.59,18.33c9.16,1.69,11.59,18.32,11.59,18.32s2.43-16.63,11.6-18.32c-9.17-1.7-11.6-18.33-11.6-18.33"/><path class="cls-5" d="M186.34,109a22,22,0,0,1,4.9,7.11,22,22,0,0,1,4.9-7.11,22.23,22.23,0,0,1-4.9-7.11,22.23,22.23,0,0,1-4.9,7.11m4.9,21.52h0a3.2,3.2,0,0,1-3.17-2.74c-.55-3.72-3.39-14.6-9-15.64a3.2,3.2,0,0,1,0-6.29c5.64-1,8.47-11.92,9-15.64a3.2,3.2,0,0,1,6.34,0c.55,3.73,3.4,14.61,9,15.65a3.2,3.2,0,0,1,0,6.29c-5.61,1-8.46,11.92-9,15.65a3.21,3.21,0,0,1-3.17,2.73"/><path class="cls-6" d="M214.43,122.77s-1.85,12.65-8.82,13.94c7,1.29,8.82,13.94,8.82,13.94s1.85-12.65,8.82-13.94c-7-1.29-8.82-13.94-8.82-13.94"/><path class="cls-5" d="M211.79,136.71a17.26,17.26,0,0,1,2.64,3.71,17.26,17.26,0,0,1,2.64-3.71,17.26,17.26,0,0,1-2.64-3.71,17.26,17.26,0,0,1-2.64,3.71m2.64,17.13h0a3.2,3.2,0,0,1-3.17-2.73c-.5-3.39-2.69-10.6-6.23-11.25a3.2,3.2,0,0,1,0-6.3c3.54-.65,5.73-7.87,6.23-11.26a3.21,3.21,0,0,1,3.17-2.73h0a3.2,3.2,0,0,1,3.17,2.73c.5,3.39,2.69,10.6,6.23,11.26a3.2,3.2,0,0,1,0,6.3c-3.54.65-5.73,7.86-6.23,11.25a3.21,3.21,0,0,1-3.17,2.73"/></svg>