<svg id="Lager_1" data-name="Lager 1" xmlns="http://www.w3.org/2000/svg" viewBox="0 0 299.99 299.99"><defs><style>.cls-1{fill:#ffb800;}.cls-2{fill:#ff7484;}.cls-3{fill:#1d1d1b;}</style></defs><title>Namnlöst-1</title><path class="cls-1" d="M105.63,81c36.28-24.39,86.66-14.22,110.61,22.34a79.34,79.34,0,0,1-9.53,98.84,17.08,17.08,0,0,0-2,21.28l3.94,6a2.06,2.06,0,0,1-2.23,3.13l-31.81-8.15a17.1,17.1,0,0,0-7.76-.17A79.32,79.32,0,0,1,105.63,81"/><path class="cls-2" d="M194.2,229.53l-3.94-6a17.08,17.08,0,0,1,2-21.28,79.09,79.09,0,0,0-50-134.15c28.36-2.56,57.44,10.1,74,35.31a79.34,79.34,0,0,1-9.53,98.84,17.08,17.08,0,0,0-2,21.28l3.94,6a2.06,2.06,0,0,1-2.23,3.13l-12.2-3.12h0"/><path class="cls-3" d="M187.38,120.66H112.64a3.61,3.61,0,0,1,0-7.22h74.74a3.61,3.61,0,1,1,0,7.22"/><path class="cls-3" d="M187.38,137.17H112.64a3.61,3.61,0,1,1,0-7.21h74.74a3.61,3.61,0,1,1,0,7.21"/><path class="cls-3" d="M187.38,153.69H112.64a3.61,3.61,0,1,1,0-7.21h74.74a3.61,3.61,0,1,1,0,7.21"/><path class="cls-3" d="M187.38,170H112.64a3.61,3.61,0,1,1,0-7.21h74.74a3.61,3.61,0,1,1,0,7.21"/><path class="cls-3" d="M187.38,186.56H112.64a3.61,3.61,0,1,1,0-7.21h74.74a3.61,3.61,0,1,1,0,7.21"/><path class="cls-3" d="M164.15,65.16a82.48,82.48,0,0,1,68.36,89.9,83.31,83.31,0,0,1-23.11,49.45,13.55,13.55,0,0,0-1.58,16.78l4,6a5.67,5.67,0,0,1-6.16,8.59l-31.81-8.14a13.22,13.22,0,0,0-6.09-.14,82.19,82.19,0,0,1-11.55,1.67,3.6,3.6,0,1,1-.53-7.19,75.75,75.75,0,0,0,10.55-1.53,20.52,20.52,0,0,1,9.41.2l28,7.16-1.77-2.71a20.81,20.81,0,0,1,2.46-25.77c40.9-41.89,20.65-114.7-39.27-126.81C98.87,59.29,50.19,132.25,86.63,188a75.73,75.73,0,0,0,52.93,33.56,3.61,3.61,0,0,1-1,7.15A83,83,0,0,1,67.4,154.22a44.78,44.78,0,0,1-.33-7.4,83.81,83.81,0,0,1,7.35-34.37l3.69-7.22a81.42,81.42,0,0,1,6.22-9.3l6.28-7.21a82.84,82.84,0,0,1,10.59-9.14l11.9-7.22a82,82,0,0,1,43.71-8.16c2.34.16,3.45.44,7.34,1"/></svg>