<svg id="Lager_1" data-name="Lager 1" xmlns="http://www.w3.org/2000/svg" viewBox="0 0 299.99 299.99"><defs><style>.cls-1{fill:#ffb800;}.cls-2{fill:#00f1a4;}.cls-3{fill:#ff7484;}.cls-4{fill:#1d1d1b;}</style></defs><title>Namnlöst-1</title><path class="cls-1" d="M256.44,81.32a37.77,37.77,0,0,0-75.54,0c0,30.91,37.77,58.37,37.77,58.37s37.77-27.46,37.77-58.37"/><path class="cls-2" d="M246.14,77.89a37.77,37.77,0,0,0-20.8-33.75,37.78,37.78,0,0,1,31.1,37.18c0,30.91-37.77,58.37-37.77,58.37s-2.94-2.13-7.17-5.88c9.05-7.38,34.64-30.49,34.64-55.92"/><path class="cls-2" d="M218.67,60.72a20.6,20.6,0,1,0,20.6,20.6,20.6,20.6,0,0,0-20.6-20.6"/><path class="cls-1" d="M119.09,198.07a37.77,37.77,0,0,0-75.54,0c0,30.9,37.77,58.37,37.77,58.37s37.77-27.47,37.77-58.37"/><path class="cls-3" d="M108.79,194.63A37.77,37.77,0,0,0,88,160.88a37.78,37.78,0,0,1,31.1,37.19c0,30.9-37.77,58.37-37.77,58.37s-2.93-2.14-7.17-5.88c9.06-7.39,34.64-30.49,34.64-55.93"/><path class="cls-3" d="M81.32,177.46a20.61,20.61,0,1,0,20.6,20.61,20.6,20.6,0,0,0-20.6-20.61"/><path class="cls-4" d="M253.22,81.32a34.55,34.55,0,0,0-69.1,0c0,25,27.06,48.34,34.55,54.31,7.48-6,34.55-29.29,34.55-54.31m-75.54,0a41,41,0,0,1,82,0c0,32.18-37.5,59.82-39.1,61a3.26,3.26,0,0,1-3.79,0c-1.59-1.16-39.09-28.8-39.09-61"/><path class="cls-4" d="M194.85,81.32a23.69,23.69,0,0,1,.94-6.65,3.22,3.22,0,0,1,6.18,1.8,17.23,17.23,0,0,0-.69,4.85,17.39,17.39,0,1,0,17.39-17.38,17.21,17.21,0,0,0-8,1.93,3.22,3.22,0,1,1-2.95-5.72,23.82,23.82,0,1,1-12.9,21.17"/><path class="cls-4" d="M81.32,252.37c7.48-6,34.55-29.29,34.55-54.3a34.55,34.55,0,1,0-69.1,0c0,25,27.07,48.33,34.55,54.3m0-95.29a41,41,0,0,1,41,41c0,32.17-37.5,59.81-39.09,61a3.26,3.26,0,0,1-3.79,0c-1.6-1.16-39.1-28.8-39.1-61a41,41,0,0,1,41-41"/><path class="cls-4" d="M81.32,174.25A23.73,23.73,0,0,1,89,175.51a3.22,3.22,0,0,1-2.07,6.1,17.34,17.34,0,1,0,9.47,7.79,3.21,3.21,0,1,1,5.57-3.21,23.82,23.82,0,1,1-20.65-11.94"/><path class="cls-4" d="M191.41,139.69a3.23,3.23,0,0,1,3.22-3.22h3.44a3.22,3.22,0,0,1,0,6.44h-3.44a3.22,3.22,0,0,1-3.22-3.22"/><path class="cls-4" d="M226.92,194.85h.33a32.3,32.3,0,0,1,7.35.84,3.22,3.22,0,0,1-1.45,6.27,25.92,25.92,0,0,0-5.9-.68h-.33a3.22,3.22,0,1,1,0-6.43"/><path class="cls-4" d="M253.09,229.84a24.68,24.68,0,0,0,.13-2.59,26,26,0,0,0-.26-3.64,3.22,3.22,0,1,1,6.38-.9,32.78,32.78,0,0,1,.32,4.54c0,1.07-.06,2.16-.16,3.22a3.23,3.23,0,0,1-3.2,2.9H256a3.23,3.23,0,0,1-2.89-3.52"/><path class="cls-4" d="M153.27,195.61a3.22,3.22,0,0,1-4.42,1.11,32.83,32.83,0,0,1-6.14-4.75,3.22,3.22,0,0,1,4.52-4.59,25.51,25.51,0,0,0,4.92,3.81,3.22,3.22,0,0,1,1.12,4.42"/><path class="cls-4" d="M228,253.21a26.06,26.06,0,0,0,6.16-.92,3.22,3.22,0,1,1,1.71,6.2,32,32,0,0,1-7.68,1.15h-.09a3.22,3.22,0,0,1-.1-6.44"/><path class="cls-4" d="M207.07,253.22h7a3.22,3.22,0,0,1,0,6.44h-7a3.22,3.22,0,1,1,0-6.44"/><path class="cls-4" d="M249,241.48a3.22,3.22,0,0,1,5.38,3.54,33,33,0,0,1-5,5.93,3.21,3.21,0,0,1-2.19.87,3.25,3.25,0,0,1-2.2-5.58,26.54,26.54,0,0,0,4-4.76"/><path class="cls-4" d="M248.36,202.66a32.73,32.73,0,0,1,5.24,5.73,3.22,3.22,0,1,1-5.23,3.75,25.83,25.83,0,0,0-4.21-4.59,3.22,3.22,0,0,1,4.2-4.89"/><path class="cls-4" d="M122.89,253.22h7a3.22,3.22,0,1,1,0,6.44h-7a3.22,3.22,0,1,1,0-6.44"/><path class="cls-4" d="M164,194.81c.49,0,1,0,1.48,0h5.35a3.22,3.22,0,0,1,0,6.44h-5.35c-.61,0-1.23,0-1.84-.06a3.22,3.22,0,1,1,.36-6.42"/><path class="cls-4" d="M150.05,143.87a3.22,3.22,0,0,1,1.53-4.29,32,32,0,0,1,7.38-2.45,3.21,3.21,0,1,1,1.28,6.3,26.07,26.07,0,0,0-5.9,2,3.25,3.25,0,0,1-4.29-1.53"/><path class="cls-4" d="M205.87,194.85h7a3.22,3.22,0,1,1,0,6.43h-7a3.22,3.22,0,1,1,0-6.43"/><path class="cls-4" d="M141.6,158.57a3.21,3.21,0,1,1-5.9-2.55,32,32,0,0,1,3.92-6.71,3.22,3.22,0,1,1,5.12,3.89,26.29,26.29,0,0,0-3.14,5.37"/><path class="cls-4" d="M136.11,167.78a3.22,3.22,0,0,1,3.44,3,25.32,25.32,0,0,0,1.18,6.11,3.22,3.22,0,0,1-6.13,2,32.92,32.92,0,0,1-1.48-7.63,3.23,3.23,0,0,1,3-3.44"/><path class="cls-4" d="M143.94,253.22h7a3.22,3.22,0,1,1,0,6.44h-7a3.22,3.22,0,1,1,0-6.44"/><path class="cls-4" d="M184.83,194.85h7a3.22,3.22,0,0,1,0,6.43h-7a3.22,3.22,0,1,1,0-6.43"/><path class="cls-4" d="M165,253.22h7a3.22,3.22,0,1,1,0,6.44h-7a3.22,3.22,0,1,1,0-6.44"/><path class="cls-4" d="M186,253.22h7a3.22,3.22,0,1,1,0,6.44h-7a3.22,3.22,0,1,1,0-6.44"/><path class="cls-4" d="M170.37,139.69a3.22,3.22,0,0,1,3.22-3.22h7a3.22,3.22,0,0,1,0,6.44h-7a3.22,3.22,0,0,1-3.22-3.22"/><path class="cls-4" d="M105.36,253.22h3.43a3.22,3.22,0,0,1,0,6.44h-3.43a3.22,3.22,0,1,1,0-6.44"/></svg>