<svg id="Lager_1" data-name="Lager 1" xmlns="http://www.w3.org/2000/svg" xmlns:xlink="http://www.w3.org/1999/xlink" viewBox="0 0 299.99 299.99"><defs><style>.cls-1{fill:none;}.cls-2{clip-path:url(#clip-path);}.cls-3{fill:#00f1a4;}.cls-4{fill:#ad0470;}.cls-5{fill:#ff7484;}.cls-6{fill:#ffb800;}.cls-7{fill:#1d1d1b;}</style><clipPath id="clip-path"><rect class="cls-1" x="32.91" y="26.82" width="234.16" height="246.36"/></clipPath></defs><title>Namnlöst-1</title><g class="cls-2"><path class="cls-3" d="M239,187.76a17.23,17.23,0,0,1,2-21.46,80,80,0,0,0,9.61-99.68c-24.16-36.87-75-47.12-111.54-22.53a79.84,79.84,0,0,0-35.23,62.12,79.6,79.6,0,0,1,90.71,83.5c2.08-.28,4.17-.64,6.24-1.1a16.94,16.94,0,0,1,7.82.18L240.71,197a2.08,2.08,0,0,0,2.26-3.15Z"/><path class="cls-4" d="M207.83,165.24a93.3,93.3,0,0,0-83.38-74.56,3.4,3.4,0,0,1-3-4.4A79.36,79.36,0,0,1,190.33,31a79.54,79.54,0,0,0-86.47,75.22,79.59,79.59,0,0,1,90.71,83.5q3-.41,6.06-1.06a17.34,17.34,0,0,1,8,.14l1,.24a93.78,93.78,0,0,0-1.76-23.79"/><path class="cls-5" d="M160.22,118.09C124,93.7,73.57,103.87,49.61,140.43a79.34,79.34,0,0,0,9.54,98.85,17.09,17.09,0,0,1,2,21.28l-4,6a2.06,2.06,0,0,0,2.24,3.13l31.81-8.14a16.78,16.78,0,0,1,7.75-.17,79.33,79.33,0,0,0,61.2-143.32"/><path class="cls-6" d="M71.66,266.59l3.94-6a17.08,17.08,0,0,0-2-21.28,79.09,79.09,0,0,1,50-134.15c-28.36-2.57-57.44,10.09-74,35.3a79.36,79.36,0,0,0,9.54,98.85,17.11,17.11,0,0,1,2,21.28l-4,6a2.06,2.06,0,0,0,2.24,3.13l12.19-3.12h0"/><path class="cls-7" d="M78.48,157.72h74.73a3.61,3.61,0,0,0,0-7.22H78.48a3.61,3.61,0,0,0,0,7.22"/><path class="cls-7" d="M78.48,174.24h74.73a3.61,3.61,0,0,0,0-7.22H78.48a3.61,3.61,0,0,0,0,7.22"/><path class="cls-7" d="M78.48,190.76h74.73a3.61,3.61,0,0,0,0-7.22H78.48a3.61,3.61,0,0,0,0,7.22"/><path class="cls-7" d="M78.48,207.11h74.73a3.61,3.61,0,0,0,0-7.22H78.48a3.61,3.61,0,1,0,0,7.22"/><path class="cls-7" d="M78.48,223.63h74.73a3.61,3.61,0,0,0,0-7.22H78.48a3.61,3.61,0,0,0,0,7.22"/><path class="cls-7" d="M221.67,76.39H146.93a3.61,3.61,0,0,0,0,7.22h74.74a3.61,3.61,0,0,0,0-7.22"/><path class="cls-7" d="M221.67,92.91H146.93a3.61,3.61,0,1,0,0,7.21h74.74a3.61,3.61,0,0,0,0-7.21"/><path class="cls-7" d="M263.27,117.8a3.62,3.62,0,0,0-4.11,3,75.23,75.23,0,0,1-20.63,41.58,20.81,20.81,0,0,0-2.46,25.78l1.77,2.7-28-7.15a22.23,22.23,0,0,0-11.09.14,83.85,83.85,0,0,0-7.36-34.37h30.24a3.61,3.61,0,1,0,0-7.21H187.75a82.88,82.88,0,0,0-6.22-9.31h40.14a3.61,3.61,0,1,0,0-7.21H175.24a83.55,83.55,0,0,0-10.58-9.14h57a3.61,3.61,0,1,0,0-7.21H152.75a81.88,81.88,0,0,0-43.7-8.17,75.74,75.74,0,0,1,150.82,3.5,3.61,3.61,0,0,0,7.2-.45,82.95,82.95,0,0,0-165.36-2.09A82.75,82.75,0,0,0,56.45,241.57,13.56,13.56,0,0,1,58,258.36l-3.95,6a5.68,5.68,0,0,0,6.15,8.6l31.81-8.14a13.37,13.37,0,0,1,6.09-.15,82.42,82.42,0,0,0,11.55,1.68,3.61,3.61,0,1,0,.53-7.2,74.14,74.14,0,0,1-10.54-1.53,20.7,20.7,0,0,0-9.42.2L62.31,265l1.77-2.71a20.82,20.82,0,0,0-2.46-25.77C20.71,194.64,41,121.83,100.89,109.72c66.09-13.37,114.78,59.6,78.33,115.37a75.69,75.69,0,0,1-52.92,33.56,3.61,3.61,0,1,0,1,7.15,83,83,0,0,0,71.15-74.52c3.84-.66,5.87-1.51,9.64-.55l31.81,8.14a5.67,5.67,0,0,0,6.15-8.59l-3.94-6a13.55,13.55,0,0,1,1.58-16.78,82.46,82.46,0,0,0,22.61-45.55,3.62,3.62,0,0,0-3-4.11"/></g></svg>