<svg id="Lager_1" data-name="Lager 1" xmlns="http://www.w3.org/2000/svg" viewBox="0 0 321.13 299.99"><defs><style>.cls-1{fill:#ff7484;}</style></defs><title>Digidem Lab-</title><rect class="cls-1" x="18.47" y="131.56" width="4.32" height="18"/><rect class="cls-1" x="18.47" y="94.84" width="4.32" height="18"/><rect class="cls-1" x="18.47" y="58.12" width="4.32" height="18"/><polygon class="cls-1" points="21.36 298.19 20.64 298.19 12.84 274.91 7.8 274.91 16.44 299.99 25.56 299.99 34.2 274.91 29.16 274.91 21.36 298.19"/><path class="cls-1" d="M21,181.48a4.2,4.2,0,1,0-3-7.17,4.2,4.2,0,0,0,3,7.17Z"/><path class="cls-1" d="M4.68,265V241.19H5.4l8.76,13.68h7v-5.64a8.69,8.69,0,0,1,2.13-6,7.49,7.49,0,0,1,5.91-2.4h.36a8.12,8.12,0,0,1,3.39.72,8.52,8.52,0,0,1,2.76,2,9.16,9.16,0,0,1,1.83,3,10.16,10.16,0,0,1,.66,3.69,11.94,11.94,0,0,1-.66,4,9.34,9.34,0,0,1-1.89,3.21,8.47,8.47,0,0,1-3,2.1,10.3,10.3,0,0,1-4.05.75H25.68v5h3.24a14.12,14.12,0,0,0,5.43-1.05,12.81,12.81,0,0,0,4.44-3,14.22,14.22,0,0,0,3-4.8,17.67,17.67,0,0,0,1.08-6.36,15.82,15.82,0,0,0-1-5.67,14.42,14.42,0,0,0-2.7-4.53,12.23,12.23,0,0,0-4-3,11.88,11.88,0,0,0-5-1.08H29a11.6,11.6,0,0,0-5.07,1.05,11.25,11.25,0,0,0-3.69,2.76,11.86,11.86,0,0,0-2.28,3.93,13.84,13.84,0,0,0-.78,4.62v2.4h-.72L7.68,236.87H0V265Z"/><path class="cls-1" d="M21,218.2a4.2,4.2,0,1,0-4.2-4.19A4.18,4.18,0,0,0,21,218.2Z"/><polygon class="cls-1" points="290.58 25.8 265.5 17.16 265.5 22.2 288.78 30 288.78 30.72 265.5 38.52 265.5 43.56 290.58 34.92 290.58 25.8"/><polygon class="cls-1" points="215.46 4.32 211.2 3 193.74 56.4 197.94 57.72 215.46 4.32"/><polygon class="cls-1" points="252.18 4.32 247.92 3 230.46 56.4 234.66 57.72 252.18 4.32"/><path class="cls-1" d="M315.16,59.4A4.6,4.6,0,0,0,316.44,56V35.34q0-1.74,1.62-1.74h3.07V27.12h-3.07q-1.62,0-1.62-1.74V4.68a4.6,4.6,0,0,0-1.28-3.36A4.47,4.47,0,0,0,311.83,0H306V4.32h4.15c1.08,0,1.61.6,1.61,1.8v19.2a4.65,4.65,0,0,0,1.29,3.36A4.54,4.54,0,0,0,316.44,30h.72v.72h-.72A4.54,4.54,0,0,0,313.05,32a4.65,4.65,0,0,0-1.29,3.36V54.6c0,1.2-.53,1.8-1.61,1.8H306v4.32h5.83A4.47,4.47,0,0,0,315.16,59.4Z"/><path class="cls-1" d="M57.71,34.56a4.2,4.2,0,0,0,3-7.17,4.2,4.2,0,0,0-5.94,5.94A4,4,0,0,0,57.71,34.56Z"/><path class="cls-1" d="M94.43,34.56a4.19,4.19,0,0,0,3-7.17,4.2,4.2,0,1,0-5.93,5.94A4,4,0,0,0,94.43,34.56Z"/><path class="cls-1" d="M21,34.56a4.2,4.2,0,0,0,3-7.17,4.2,4.2,0,0,0-5.94,0,4.2,4.2,0,0,0,3,7.17Z"/><path class="cls-1" d="M129.47,35.34V56a4.65,4.65,0,0,0,1.29,3.36,4.49,4.49,0,0,0,3.34,1.32h5.82V56.4h-4.14q-1.62,0-1.62-1.8V35.4A4.61,4.61,0,0,0,132.87,32a4.53,4.53,0,0,0-3.4-1.32h-.72V30h.72a4.53,4.53,0,0,0,3.4-1.32,4.61,4.61,0,0,0,1.29-3.36V6.12q0-1.8,1.62-1.8h4.14V0H134.1a4.49,4.49,0,0,0-3.34,1.32,4.65,4.65,0,0,0-1.29,3.36v20.7c0,1.16-.53,1.74-1.61,1.74h-3.07V33.6h3.07C128.94,33.6,129.47,34.18,129.47,35.34Z"/><polygon class="cls-1" points="180.42 38.52 157.14 30.72 157.14 30 180.42 22.2 180.42 17.16 155.34 25.8 155.34 34.92 180.42 43.56 180.42 38.52"/></svg>