<svg xmlns="http://www.w3.org/2000/svg" id="Logotyper" width="151.24mm" height="128.76mm" viewBox="0 0 428.72 365"><defs><style>.cls-1{fill:#004379;}</style></defs><path class="cls-1" d="M27.86,264.73h5.67v6.56c2.2,1.32,6.42,1.8,9.46,1.8,6.9,0,11.46-3.18,11.46-9,0-12.91-26.52-5.24-26.52-22.58,0-5.87,3.45-13.74,17.89-13.74,3.52,0,9.94.9,13,2.28v9.74H53.41v-6a27.08,27.08,0,0,0-8.08-1.31c-5.18,0-11,2-11,8.35,0,12.29,26.52,4.63,26.52,22.44,0,10.64-9.11,14.5-18.44,14.5-7.94,0-11.8-1.86-14.5-2.41Z"></path><path class="cls-1" d="M65.15,241.33h5.74l.27-8.71,5.66-.34-.27,9.05H87.73v4.34H76.48c-.14,5.94-.28,12-.28,17.89,0,5.11,0,9.53,5.46,9.53a19.3,19.3,0,0,0,7-1.45l-.21,4.49a20.24,20.24,0,0,1-8,1.65c-9.94,0-9.94-7.11-9.94-11.67,0-4.35.21-15.26.28-20.44H65.15Z"></path><path class="cls-1" d="M109,240.5c10.84,0,17.26,7.46,17.26,17.67,0,11.33-6.42,19.61-17.26,19.61s-17.26-7.45-17.26-17.67C91.73,248.78,98.15,240.5,109,240.5Zm0,32.59c7.6,0,11.33-6.22,11.33-13.95s-3.73-13.95-11.33-13.95-11.32,6.22-11.32,13.95S101.4,273.09,109,273.09Z"></path><path class="cls-1" d="M160.7,276.06a35.81,35.81,0,0,1-10.29,1.72c-14.08,0-18.57-9.32-18.57-18.64,0-13.6,9.87-18.64,17.81-18.64a34.18,34.18,0,0,1,11.53,1.79v9.32h-5.11V246a21.66,21.66,0,0,0-5.93-.83c-10.29,0-12.36,8.15-12.36,13.95,0,1.93.27,13.95,13.53,13.95,3.52,0,6.35-1,9.67-2Z"></path><path class="cls-1" d="M171.07,228.21h-6.91v-4.36h12.57L176.6,257l13.6-11.19v-.14h-5v-4.34h15.46v4.34H197l-14.77,12,16.09,14.92h3.86V277H186.75v-4.35H191v-.14L176.6,258.73l-.14,13.88h4.69V277H165.68v-4.35h5.11Z"></path><path class="cls-1" d="M211.33,228.21h-6.91v-4.36H217l-.07,18.72a51.89,51.89,0,0,1-.69,6.63h.14c1.52-5.39,7.25-8.7,12.63-8.7,9.81,0,12.23,6.63,12.23,13.39,0,6.08-.28,13.19-.28,18.72h5.25V277H230.73v-4.35h4.56c0-5.53.27-11.33.27-17.06,0-3.45-.13-10.36-8.07-10.36-5,0-10.57,3-10.57,12.71l-.21,14.71H222V277h-16v-4.35h5.11Z"></path><path class="cls-1" d="M267.23,240.5c10.84,0,17.26,7.46,17.26,17.67,0,11.33-6.42,19.61-17.26,19.61S250,270.33,250,260.11C250,248.78,256.38,240.5,267.23,240.5Zm0,32.59c7.59,0,11.32-6.22,11.32-13.95s-3.73-13.95-11.32-13.95-11.33,6.22-11.33,13.95S259.63,273.09,267.23,273.09Z"></path><path class="cls-1" d="M293.69,228.21h-6.91v-4.36h12.58l-.28,48.76h5.66V277H288.31v-4.35h5.11Z"></path><path class="cls-1" d="M309.77,272.61h4.56l.27-26.94h-5.73v-4.34h11.4a38.11,38.11,0,0,1-.21,4.28l-.56,3.59h.14c1.52-5.39,7.25-8.7,12.64-8.7,6.49,0,9.87,3.72,10.77,8.35h.14c.69-1.52,2.9-8.35,12.08-8.35,9.81,0,12.23,6.63,12.23,13.39,0,6.08-.28,13.19-.28,18.72h5.25V277H357v-4.35h4.56c.07-5.81.27-11.54.27-17.27,0-5.18-1.1-10.15-7.73-10.15-4.63,0-10.15,3-10.22,12.71l-.14,14.71h5.11V277H333.32v-4.35h4.55c.07-5.81.28-11.54.28-17.27,0-5.18-1.11-10.15-7.74-10.15-4.62,0-10.14,3-10.21,12.71l-.14,14.71h5.18V277H309.77Z"></path><path class="cls-1" d="M401.87,251.2h-5.11l-.28-5c-1.31-1.11-4.62-1.31-6.28-1.31-3.59,0-8.21,1.17-8.21,5.45,0,3.87,3.45,5,8.69,5.94,9.05,1.52,12.85,4.28,12.85,10.15,0,6.35-4.28,11.39-14.57,11.39-3.87,0-10-1-12.22-2.14l-.28-9.11h5.11l.28,5.32a21.65,21.65,0,0,0,8.08,1.58c3.72,0,8.21-1.58,8.21-5.93,0-3.52-3.66-4.77-7.52-5.6-9.53-2.07-14.3-3.73-14.3-10.7,0-5.73,3.8-10.7,14-10.7a36.7,36.7,0,0,1,11.25,2.14Z"></path><path class="cls-1" d="M27.31,301.52H38.7c0,6.49-.27,12.92-.27,21.07,0,5.17,1,10.7,7.87,10.7,10.36,0,10.49-11.26,10.49-16.37V305.87H51.2v-4.35H62.59l-.27,31.29h5v4.35H56.72a38.18,38.18,0,0,1,.21-4.29l.55-3.59h-.13c-1.52,4.22-5.94,8.7-12,8.7-10.22,0-12.57-6.49-12.57-14.57,0-6.49.21-12,.28-17.54H27.31Z"></path><path class="cls-1" d="M97.19,332.81h4.56c0-5.53.27-11.33.27-17.06,0-3.45-.14-10.36-8.08-10.36-5,0-10.56,3-10.56,12.71l-.14,14.71h5.18v4.35H73v-4.35h4.56l.27-26.94H72.05v-4.35h11.4a38.18,38.18,0,0,1-.21,4.29l-.55,3.59h.14c1.52-5.39,7.25-8.7,12.63-8.7,9.81,0,12.22,6.63,12.22,13.39,0,6.08-.27,13.19-.27,18.72h5.25v4.35H97.19Z"></path><path class="cls-1" d="M123.15,305.87h-6.49v-4.35h12.15l-.27,31.29h5.66v4.35h-17v-4.35h5.66Zm2.14-22.37a4.28,4.28,0,1,1-4.28,4.28A4.3,4.3,0,0,1,125.29,283.5Z"></path><path class="cls-1" d="M134.31,301.52H149v4.35h-4.28l8.22,22.86a22.9,22.9,0,0,1,.76,3h.14a20.17,20.17,0,0,1,.76-3L163,305.87h-4.63v-4.35h14.23v4.35h-3.94l-12.29,31.29h-5.66l-12.36-31.29h-4Z"></path><path class="cls-1" d="M180.44,319.82c.21,7.32,3.38,13.47,13.53,13.47a24.43,24.43,0,0,0,10.71-2.69l-.21,4.9A32.6,32.6,0,0,1,192.73,338c-11.26,0-18.23-6.14-18.23-18.57,0-10.5,5.66-18.71,16.5-18.71,14.09,0,15.4,12.77,15.4,19.12Zm20-4.35c0-5.59-3.52-10.42-9.46-10.42s-10.22,4.55-10.56,10.42Z"></path><path class="cls-1" d="M217.52,305.87h-6.08v-4.35h11.74v1.94c0,2.07-.41,6.28-.76,9.18h.21c1.38-5.25,3.24-11.74,12.08-11.74a14.21,14.21,0,0,1,3.59.56l-.55,5.11a12.53,12.53,0,0,0-3.86-.56c-7.32,0-10.57,7.18-10.71,13.47l-.27,13.33h6v4.35H212.2v-4.35h5Z"></path><path class="cls-1" d="M266.19,311.4h-5.11l-.27-5c-1.31-1.11-4.63-1.31-6.28-1.31-3.6,0-8.22,1.17-8.22,5.45,0,3.87,3.45,5,8.7,5.94,9.05,1.52,12.84,4.28,12.84,10.15,0,6.35-4.28,11.39-14.57,11.39-3.87,0-10-1-12.22-2.14l-.28-9.11h5.11l.28,5.32a21.69,21.69,0,0,0,8.08,1.58c3.73,0,8.22-1.58,8.22-5.93,0-3.53-3.66-4.77-7.53-5.6-9.53-2.07-14.29-3.73-14.29-10.7,0-5.73,3.79-10.7,14-10.7a36.76,36.76,0,0,1,11.26,2.14Z"></path><path class="cls-1" d="M279.44,305.87H273v-4.35H285.1l-.28,31.29h5.67v4.35h-17v-4.35h5.66Zm2.14-22.37a4.28,4.28,0,1,1-4.28,4.28A4.3,4.3,0,0,1,281.58,283.5Z"></path><path class="cls-1" d="M293.08,301.52h5.73l.28-8.7,5.66-.34-.27,9h11.18v4.35H304.41c-.14,5.94-.28,11.95-.28,17.89,0,5.11,0,9.53,5.46,9.53a19.3,19.3,0,0,0,7-1.45l-.21,4.49a20.42,20.42,0,0,1-8,1.65c-9.94,0-9.94-7.11-9.94-11.67,0-4.35.21-15.26.28-20.44h-5.67Z"></path><path class="cls-1" d="M324.84,319.82c.21,7.32,3.39,13.47,13.54,13.47a24.38,24.38,0,0,0,10.7-2.69l-.21,4.9A32.55,32.55,0,0,1,337.13,338c-11.25,0-18.22-6.14-18.22-18.57,0-10.5,5.66-18.71,16.5-18.71,14.09,0,15.4,12.77,15.4,19.12Zm20-4.35c0-5.59-3.52-10.42-9.46-10.42s-10.22,4.55-10.57,10.42Z"></path><path class="cls-1" d="M353.41,301.52h5.73l.27-8.7,5.67-.34-.28,9H376v4.35H364.73c-.14,5.94-.28,11.95-.28,17.89,0,5.11,0,9.53,5.46,9.53a19.25,19.25,0,0,0,7-1.45l-.2,4.49a20.46,20.46,0,0,1-8,1.65c-9.95,0-9.95-7.11-9.95-11.67,0-4.35.21-15.26.28-20.44h-5.66Z"></path><path class="cls-1" d="M177.68,42.38c.15.16.08.27-.08.4s-1.81,2.48-2,2.76-.13-.14-.07-.33a4,4,0,0,0-1.1-4.27,2.8,2.8,0,0,0-4,.59c-1,1.43-1,2.74,0,6.47,1,3.9.6,5.33-.82,7a5.43,5.43,0,0,1-7.08.48c-2.77-1.93-2.88-2.37-3.31-2.54s-.33-.41,0-.81c.49-.58,2.13-2.82,2.41-3.23s.23,0,0,.46-1.22,3.33,1.06,4.88,3.65.51,4.4-.37,1.31-1.93.14-6.4c-1.23-4.71-.38-6.25,1.4-7.65a4.94,4.94,0,0,1,6.28.05,21.78,21.78,0,0,1,2,1.81c.23.22.35.47.47.59S177.61,42.29,177.68,42.38Z"></path><path class="cls-1" d="M29.89,95.65c.06-.16.25-.08.47,0a16.12,16.12,0,0,0,3,.52c.5,0-.34.37-.6.4-.7.09-2.1.51-2.72,2.83a2.52,2.52,0,0,0,1.83,3.24c2.05.42,3.12-.36,6.14-2.78s5.18-2.79,7.15-2.23a5.14,5.14,0,0,1,3.28,6,10.52,10.52,0,0,1-1.58,3.76c-.12.35-.28.47-.79.33s-3.12-.54-3.56-.59c-.79-.09-.46-.39,0-.45,1.27-.16,4-.51,4.58-3.22a2.64,2.64,0,0,0-2.14-3.27c-1.26-.31-2.63-.26-6.16,2.67-3.82,3.15-5.44,3.14-7.49,2.21s-3.08-3-2.61-5.59a11.29,11.29,0,0,1,1.15-3.33C29.89,96.05,29.84,95.76,29.89,95.65Z"></path><path class="cls-1" d="M146.74,206.83c-.26,0-.21-.23-.25-.38,0,0-.68-2.25-.74-2.42s.13-.24.27-.08a4,4,0,0,0,3.85,1.23,2.86,2.86,0,0,0,2.13-3.39c-.53-1.63-2.14-2.4-5.64-4-3.17-1.47-4.19-2.93-4.48-4.75A5.75,5.75,0,0,1,146,187c2.65-.81,3.28-.74,3.8-1s.46.63.52.78c.25.7.94,2.9,1.1,3.31s-.15.52-.34.1-2.16-2.82-4.55-2-2.71,2.45-2.38,3.56.58,2.22,5,4.09,5.17,3.69,5.18,5.78c0,2.33-1.83,4.14-4.29,4.76a10,10,0,0,1-2.13.32c-.32,0-.57.07-.73.09S147,206.83,146.74,206.83Z"></path><path class="cls-1" d="M179.79,47.28a9.29,9.29,0,0,0,1.78-1.05c.22-.19.65,0,.92.26s4,4,4.8,4.81c1,1.1,4.46,4.25,4.9,4.67s.85.66.41,1-1.39.83-1.67,1-.19,0-.19-.29-.23-.82-1.19-1.81-2.06-2.15-2.26-2.31-.28-.19-.45,0-4.06,4.09-4.91,5-5.72,5.65-5.87,6.41.11.94.2,1.09.22.79,0,.55-1.82-2-2.2-2.32-1.9-1.65-2.13-1.86-.07-.32.32-.17a1.76,1.76,0,0,0,1.68,0c1.13-.56,5.37-4.94,6-5.54s4.7-4.88,4.82-5,.25-.3,0-.63a40,40,0,0,0-3.32-3.09,2,2,0,0,0-1.15-.43C179.86,47.45,179.43,47.44,179.79,47.28Z"></path><path class="cls-1" d="M38.94,78c-.36-.39-1.21-1.13-1.7-1.54-.22-.19-.1-.43.1-.76s2.83-5.18,3.45-6.12c.82-1.26,3.26-5.34,3.57-5.87s.53-.94.78-.7a11.78,11.78,0,0,1,1.24,1.42c.22.3.09.15-.23.15s-.73.64-1.47,1.81A22.55,22.55,0,0,0,43.24,69c-.16.32.06.42.24.55s4.8,3,5.86,3.6,6.85,3.92,7.71,3.88.79-.17.94-.28.69-.23.46,0a20.31,20.31,0,0,0-1.6,2.4c-.38.68-1.25,2.29-1.36,2.54s-.13-.16-.1-.51.27-.79-.34-1.29C54,79,48.81,76,48.09,75.58S42.33,72.29,42,72.17s-.48-.41-.68,0S39.18,75.53,39,76.55a2.16,2.16,0,0,0,0,1C39.09,78,39.11,78.19,38.94,78Z"></path><path class="cls-1" d="M62,47.76a9.85,9.85,0,0,0-1-1.95c-.17-.33-.17-.32.26-.67C61.49,45,66,41.65,66.9,41c1.22-.94,5.36-3.73,5.86-4.09s1-.58,1.21-.12.67,1.67.76,2c.12.45-.06.12-.38-.17s-.7-.18-1.85.59-2.77,1.84-3,2-.19.2-.09.4c.26.51,3.23,4.88,4.06,6,.69.9,4.8,6.72,5.58,7.06a1.25,1.25,0,0,0,1,0c.24-.05.54,0,.14.27S78.54,56,78.1,56.3s-1.6,1.19-2,1.54-.35,0-.13-.32.37-.47.07-1.19a69,69,0,0,0-4.35-6.74c-.49-.7-4.41-5.94-4.66-6.27s-.18-.24-.53,0-3.39,2.57-3.84,3-.53.42-.57.86C62.08,47.44,62.09,48.09,62,47.76Z"></path><path class="cls-1" d="M200,65.43c2.78,2.91,5,9.77-.72,14.54a10.13,10.13,0,0,1-13.67-.48c-2.4-2.65-4.86-8.86.41-14A9.75,9.75,0,0,1,200,65.43Zm-11.62,2.39c-4.16,4-3.65,8.61-1.52,10.76s6.69,2.5,10.69-1.34,3.68-9.06,1.11-11.31C196.75,64.27,192.53,63.75,188.34,67.82Z"></path><path class="cls-1" d="M205.56,159.21a9.77,9.77,0,0,1-13.44,5.64,10.07,10.07,0,0,1-5.42-12.17c1.19-3.38,6.11-8.35,12.49-5.87S206.87,155,205.56,159.21Zm-7.31-9.5c-5.66-2-9.28.66-10.2,3.35s.14,6.47,5.87,8.62c5.55,2.08,9.72,0,10.67-3.72C204.94,156.56,205,152.13,198.25,149.71Z"></path><path class="cls-1" d="M198.35,102.25a21.22,21.22,0,0,1-2.5-.27c-.57-.12-.65-.13-.83-.38a12.22,12.22,0,0,1-2.57-7.5c0-4.83,2.3-8.81,6.91-10.17A10,10,0,0,1,210,87.51a12.08,12.08,0,0,1,2.22,6.61c.09,1.4.21,2.25.28,2.69.12.76.11,1,.27,1.17s-.07.39-.36.42-1.38.19-2,.32l-1.39.37c-.6.14-.58,0-.11-.37a3.68,3.68,0,0,0,1.92-2.64c.2-1.53.45-4.88-2-7.35-1.79-1.83-4.8-3.29-9.12-1.52A8.81,8.81,0,0,0,194,95.27a6.56,6.56,0,0,0,4.17,6.53C198.83,102,199.2,102.23,198.35,102.25Z"></path><path class="cls-1" d="M214.08,104.59c0,.73.33,4,.47,4.7s-.18.42-.22.14a1.09,1.09,0,0,0-.93-.78,63,63,0,0,0-8.1.61,74.07,74.07,0,0,0,7,5.54,5.93,5.93,0,0,0,1.84,1.06c.17,0,.09.14.17-.08s.42-1.3.37.2c0,.37,0,1.44,0,1.72s.13,1,.16,1.19c.11.81,0,.65-.62-.09a21.88,21.88,0,0,0-3.5-2.94c-.67-.48-4.88-3.67-4.88-3.67s-6.05,5.75-7.19,7a15.56,15.56,0,0,0-2.36,3c-.2.44-.35.65-.28.24s.23-1.92.27-2.65.11-2.59.12-2.79c0-.39.18-.09.39,0s2-1.52,3.89-3.36c1.41-1.39,3.79-4,4-4.21a57,57,0,0,0-5.88.7,5.1,5.1,0,0,0-2.1.75,1.32,1.32,0,0,0-.4.78c0,.23-.27.36-.31,0s-.11-2-.15-2.65-.25-2-.29-2.25.17-.36.29-.08a.83.83,0,0,0,.56.56c.68.27,1.58.28,8.26-.5s7.19-1,7.87-1.13,1.14-.45,1.23-1C213.79,104.17,214.09,103.49,214.08,104.59Z"></path><path class="cls-1" d="M214.21,127.51c-.13.6-.68,3.9-.68,4.56s-.31.67-.38.22a1,1,0,0,0-.63-.88,11,11,0,0,0-3.32-.82c-2.31-.36-3.81-.63-3.81-.63s-.72,3-1.12,4.9c-.51,2.31-1.06,5.38-1.06,5.38l4.45,1.26c1.19.33,3,1.09,3.61.1.41-.69.67-.54.28.2-.14.26-1,3.42-1.08,4-.24,1.17-.4.44-.35.16s.28-.76-.76-1.17-4.52-1.58-7.59-2.46-6.58-2-8-1.88c-.7.06-.88.21-1.05.45s-.65.43-.32-.11a23.18,23.18,0,0,0,1.23-4.23c.2-1.36.42-.41.39-.15a1,1,0,0,0,.64,1,53,53,0,0,0,7.06,2.3s.71-2.81,1.18-5c.56-2.56.94-5.09.94-5.09s-1.41-.22-2.41-.4a34.16,34.16,0,0,0-5.2-.55,1.22,1.22,0,0,0-.8.7c-.07.24-.53.68-.27-.16a26.55,26.55,0,0,0,.6-4.17c.06-1.18.37-.67.38-.33a1.17,1.17,0,0,0,.54.81c1.23.54,3.44.85,7.95,1.52s7.91,1.13,8.51.92.61-.46.74-.74S214.39,126.66,214.21,127.51Z"></path><path class="cls-1" d="M195.86,173.89a30.45,30.45,0,0,0-3.09,3.59c-.48.65-.41.14-.29-.13.23-.47.09-.62-.09-1-.3-.68-2.61-2.56-5.6-5.06s-5.61-4.73-6.42-4.77c-.4,0-.75-.05-1.57.7a22,22,0,0,0-3.05,3.55,3.34,3.34,0,0,0-.37,1.91c0,.45-.14.39-.29,0a17.48,17.48,0,0,1-.62-2.5.72.72,0,0,1,.26-.66c.46-.5,4.38-4.94,5-5.57a21.69,21.69,0,0,0,1.81-2.24c.38-.63.5-.17.38.15a1.64,1.64,0,0,0-.18,1.29c.39,1.17,4.08,3.89,6.21,5.6,4.17,3.36,6.21,5.13,6.89,5.13a1.12,1.12,0,0,0,.92-.29C195.91,173.4,196.4,173.52,195.86,173.89Z"></path><path class="cls-1" d="M171.89,173.69c.2.51,2.19,3.94,4.28,7.43s4.48,7.35,4.8,7.91c.63,1.11.65,1.37-.44.83-1.59-.78-7.94-4-9-4.48s-6.24-3.14-6.24-3.14,1.12,8.47,1.2,8.94,1,7.54,1,7.89.06.92-.58.31-10.67-13.39-11.17-14a2.34,2.34,0,0,0-1.47-.86,1.4,1.4,0,0,0-.78,0c-.26.09-.45-.14-.09-.29s4-2,4.38-2.23.53,0,.19.25-.51.48-.42.88c.22,1,7.48,10,7.48,10s-1.24-8.09-1.44-9.12-.93-5.81-.93-5.81,0-.3.31-.14,7.4,3.79,8.15,4.16,5.3,2.61,5.3,2.61-4-6.46-5.63-9a2.13,2.13,0,0,0-1.08-1c-.56-.12-.74.12-1.06.26-.16.07-.42-.13.07-.43a15,15,0,0,0,1.66-1.19c.4-.32,1.43-1.3,1.59-1.46s.43,0,.24.21A1.13,1.13,0,0,0,171.89,173.69Z"></path><path class="cls-1" d="M128.1,198.31c0,.34.07,4.25.11,4.74,0,.24-.18.17-.31-.33a1.25,1.25,0,0,0-.84-.8,21.28,21.28,0,0,0-4.39-.08s-.09,4.53.39,5.06.52.43.72.47.68.3.36.27c-.61,0-4,0-4.79,0-.56.05-.28-.2.19-.31s.71-.37.89-1a34,34,0,0,0,.11-4.58,28.89,28.89,0,0,0-4.69.24,1.1,1.1,0,0,0-.56.94c0,.33-.39.62-.34.17a35.37,35.37,0,0,0,0-4.23c-.08-.56,0-.48.23-.15s.15.65.64.84a34.53,34.53,0,0,0,4.68.16s0-3.85-.08-4.44a1.14,1.14,0,0,0-1-1c-.28,0-.52-.27-.16-.23a30.25,30.25,0,0,0,4.58,0c.5-.05.2.22-.17.31a1.25,1.25,0,0,0-1,.94c-.15.59-.13,4.38-.13,4.38s3.59.05,4.24-.09a1.18,1.18,0,0,0,1-1C127.89,198.38,128.14,198,128.1,198.31Z"></path><path class="cls-1" d="M95.58,207.52a24.31,24.31,0,0,0-5.2-1.86c-.57-.1,0-.25.32-.22s.87.11,1.2-.26c.89-1,4.41-9.83,4.88-11.92s.55-5-3.38-6.37c-4.09-1.46-5.72.77-8,5-1.62,3-4.2,8.48-4.2,9.09a.91.91,0,0,0,.41.85c.36.3.58.78.23.5a23.7,23.7,0,0,0-4.51-2.18c-.36-.11-.07-.31.37-.22s.53,0,.89-.26c.88-.61,5.34-9.55,5.93-10.52a7.81,7.81,0,0,1,5.15-3.9A9.71,9.71,0,0,1,98.41,189a7.54,7.54,0,0,1,.81,6.4c-.39,1.69-4.07,9.91-4.09,11a.85.85,0,0,0,.43.77C95.8,207.38,95.94,207.74,95.58,207.52Z"></path><path class="cls-1" d="M69.81,196.56s-.77-8.32-1-11.2c-.27-3.34-1.11-9.82-1.11-9.82s-6.53,7.07-7.38,7.93-1.63,1.7-1.62,2.28a1.32,1.32,0,0,0,.37.92c.07.16.22.73.06.53a23.7,23.7,0,0,0-1.79-1.83,17.77,17.77,0,0,0-1.73-1.4c-.44-.3.11-.25.35-.09a1.12,1.12,0,0,0,.9.2c.63-.08,5.32-5.24,7.07-7.06s5.66-6.14,6.07-6.69.29-.22.32.2.72,9.09.87,10.08.57,6.73.63,7.38l.26,2.83s3-4.31,4-5.87,3.09-4.33,3.08-5.07a1.46,1.46,0,0,0-.67-1.26c-.13-.14-.24-.5.07-.22a23.18,23.18,0,0,0,4.14,2.76c.63.29-.31.12-.48,0a2.06,2.06,0,0,0-1.21,0c-.67.23-4.44,6-5.19,7.12s-3,4.32-3.58,5.18-1.75,2.65-2,3.1S69.88,197,69.81,196.56Z"></path><path class="cls-1" d="M61.4,161.73a16.55,16.55,0,0,0,1.52,2.21,20.74,20.74,0,0,0,1.88,2c.35.34-.14.21-.47,0s-.71-.36-1.74.2c-1.22.66-11.94,9.69-12.35,10.21s-.46.92-.25,1.39,0,.68-.09.45a26,26,0,0,0-3.18-4c-.47-.35,0-.27.33-.09s.42.17.78,0c1.2-.51,13.32-10.3,13.51-11a1.23,1.23,0,0,0-.1-1.05C61.21,161.79,61.16,161.3,61.4,161.73Z"></path><path class="cls-1" d="M52.11,88.83A31.44,31.44,0,0,0,50,94.07c-.11.47-.34,0-.27-.37.12-.59.21-.9-.78-1.55-1.27-.85-13.93-5.69-15.21-5.69a1.09,1.09,0,0,0-1,.56c-.21.26-.64.38-.37,0a39.7,39.7,0,0,0,2.08-5.2c.09-.57.32,0,.26.32a1,1,0,0,0,.23,1.08c1.22,1,14.9,6.29,15.92,6.12.69-.11.62-.34.85-.56S52.43,88.33,52.11,88.83Z"></path><path class="cls-1" d="M47.34,158.8l4.06-5.42s-7.11.38-8.63.51-6,.32-6.45,1a1.3,1.3,0,0,0,0,1.18c.06.32,0,.84-.16.45s-.64-1.69-1.07-2.69-.92-2-1.05-2.2.15-.25.37,0a1.56,1.56,0,0,0,1,.57c1,.26,7.61-.08,8.89-.12s10.69-.67,11.47-.6c.42,0,.79-.16.29.62-.29.44-5.9,7.79-6.33,8.38s-5.66,7.36-5.76,8.2a2.16,2.16,0,0,0,.07,1.09c.05.29,0,1.08-.09.82a38.76,38.76,0,0,0-3.16-5.1c-.39-.52.13-.17.45,0a.85.85,0,0,0,.87-.2C43.1,164.58,46.78,159.56,47.34,158.8Z"></path><path class="cls-1" d="M47.93,132.07c.27.76,1.1,4.13,1.52,5.61.14.52,1.07,3.95,1.35,4.52.14.28-.48-.16-.6-.45a.85.85,0,0,0-.36-.55,1.22,1.22,0,0,0-.63-.18c-.85-.11-5.76,1.52-8.22,2.27s-7.33,2.22-7.83,2.8a1.08,1.08,0,0,0-.3,1.16c0,.26-.16,1.2-.27.62a24.68,24.68,0,0,0-.66-3.16c-.39-1.41-2-7.23-2.12-7.48s-.15-.45.1-.54a21.63,21.63,0,0,0,2.17-.85c.51-.31.31.13,0,.43s-.43.43-.37,1.34a42.33,42.33,0,0,0,1.36,5.07s2.4-.64,3.19-.91,3.39-1.06,3.39-1.06a38.2,38.2,0,0,0-1.54-4.84c-.38-.5-.63-.4-1-.37s-.77-.18-.41-.26A23.4,23.4,0,0,0,40.82,134c.46-.22,0,.35-.21.47A1.11,1.11,0,0,0,40,135.5a10.43,10.43,0,0,0,.59,2.58c.17.49.66,2.17.66,2.17s4.35-1.26,5.07-1.6,1.29-.35,1.13-1.8A16.56,16.56,0,0,0,46,131.91a4.27,4.27,0,0,0-1-1.07c-.16-.13-.73-.61-.39-.5a26.06,26.06,0,0,1,2.94,1.12A1,1,0,0,1,47.93,132.07Z"></path><path class="cls-1" d="M69.28,63.66c-.52.54-4.34,4.68-5.41,5.89-.36.4-1.21,1.38-1.46,1.67s-.28-.22-.12-.5a1,1,0,0,0,.12-1.07c-.26-.88-4.71-4.5-6.65-6.19s-5.43-4.86-6.2-5a1.55,1.55,0,0,0-1.19.19c-.24.12-.83.37-.42,0s1-1.1,2-2.09S55,51.26,55.14,51s.33-.28.5-.1a16.48,16.48,0,0,0,1.63,1.53c.61.37.07.32-.25.25s-.44-.17-1.11.22a25.37,25.37,0,0,0-3.55,3.6L57.24,61s3.39-3.16,3.45-3.81a1.53,1.53,0,0,0-.07-.82c-.09-.26,0-.71.16-.4a16.57,16.57,0,0,0,2.67,2.63c.42.3-.08.31-.31.2s-.49-.41-1.15-.09a32,32,0,0,0-3.39,3.52s3.47,3,4.13,3.46c.85.62,1.45.77,2.3,0A17.83,17.83,0,0,0,68.32,62a3,3,0,0,0,.24-1.5c0-.3.2-.67.25-.43s.77,2.47.81,2.81S69.59,63.32,69.28,63.66Z"></path><path class="cls-1" d="M46.58,122.75c0,.41.14,2.37.27,3.23.07.49-.23-.12-.3-.37a1,1,0,0,0-.52-.7c-.68-.36-5.41,0-8.17.34-2.52.28-8.35.57-9,1.21a1.44,1.44,0,0,0-.42,1.21c0,.27-.48,1.14-.46.48,0-.4,0-2.14-.1-2.75a34.16,34.16,0,0,1-.31-6.32A5.13,5.13,0,0,1,32.28,115,5.2,5.2,0,0,1,37,118a4.55,4.55,0,0,1,1.22-1.14c1-.74,7.27-4.45,7.75-5.59a1.9,1.9,0,0,0,.15-1.25c-.06-.74.1-1.26.46,0a5.65,5.65,0,0,1-.55,4.12c-1.12,1.57-4.69,3.7-5.39,4.18s-2.73,1.61-2.72,2.75a7.47,7.47,0,0,0,.15,1.62l3.56-.36c.76-.09,3.72-.27,4.12-.72a1.05,1.05,0,0,0,.35-.83c0-.22.48-1.15.45.07C46.53,121.24,46.55,122.34,46.58,122.75Zm-11.41-4.58a4.39,4.39,0,0,0-6,1.19c-.82,1.37-.37,3.94-.37,3.94l4-.27c.64,0,4.15-.29,4.15-.29S37.37,119.47,35.17,118.17Z"></path><path class="cls-1" d="M116.46,60.88a16.22,16.22,0,0,1-3.79-10.39c0-2.89,1.31-4.72,2.58-6.49l.94-1.17c1.57-1.84,3.71-4.35,3.71-8.73,0-3.82-.44-5.46-.69-6.1-.14,1.89-1.23,9.71-9.36,16.76-2.32,2-6.21,5.4-6.21,9.61,0,6.18,4,11.29,5.23,12.73a20.72,20.72,0,0,1-1.41-7.55,20.32,20.32,0,0,1,.63-5.21l.07-.23.13.21A14.39,14.39,0,0,0,116.46,60.88Z"></path><path class="cls-1" d="M117.67,42.79c2-.78,9.37-4,9.37-9.13,0-4-3-7.62-4-8.73a19.05,19.05,0,0,1,.82,5.46C123.91,36.4,119.11,41.43,117.67,42.79Z"></path><path class="cls-1" d="M145.19,32.93c-2,2.87-9.2,5.72-9.54,5.85l-.12-.17c4.11-4.18,5.23-10.66,5.47-12.43-5.79,9.13-9.34,10.7-13.42,12.5l-1.8.81c-4.89,2.31-10.51,5.63-10.51,10.83,0,6.86,2.34,9.74,3.13,10.52a17.29,17.29,0,0,1-.68-4.61,10,10,0,0,1,.42-3.13l.15-.39.06.42c.55,3.78,5.1,7.33,6.1,8.06,0-.41-.12-1.3-.12-2.48,0-3.83.88-10.62,6.83-13.16C141.89,41,144.56,35,145.19,32.93Z"></path><path class="cls-1" d="M136.3,54.2c0-7.09,1.35-9.8,2.07-10.75C126.83,48.68,125.58,58.22,125.58,62c0,.46,0,.81,0,1.08a22.13,22.13,0,0,1,6.48-9.32l.07,0,.07,0s0,0,0,.14c0,.37-.26,1.91-1.79,8.44C131.56,61.65,136.3,58.34,136.3,54.2Z"></path><path class="cls-1" d="M146.43,53.5a12.46,12.46,0,0,0-.82-4.41,9.38,9.38,0,0,1-2.77,4.39h0l-.16-.16s1.2-1.37,1.2-5a21,21,0,0,0-.34-3.66,8.66,8.66,0,0,1-.14-1.58A11.9,11.9,0,0,1,145.26,37a16.58,16.58,0,0,0-6,9.05,58.28,58.28,0,0,0-1.5,6.77,18.73,18.73,0,0,1-.52,2.4,44.61,44.61,0,0,1-3.32,8.31,13.25,13.25,0,0,0,4.88-5.57l.15-.3L139,58a17.21,17.21,0,0,1,.12,2.1A14.43,14.43,0,0,1,138,65.85C139.52,64.62,146.43,58.81,146.43,53.5Z"></path><path class="cls-1" d="M158.7,42a9.61,9.61,0,0,0-8.16-1.52l-.34.11.22-.29a18.93,18.93,0,0,1,5.31-4.45c-1.23-.18-6.08-.63-8.48,2.82-1.55,2.23-1.81,5.6-1.81,7.58,0,.55,0,1,0,1.25,2.38-4.12,2.65-4.11,2.73-4.09l.1,0v.07a7.51,7.51,0,0,1,.13,1.59,36.6,36.6,0,0,1-.53,5.35C152.11,42.43,157.29,42,158.7,42Z"></path><path class="cls-1" d="M124.08,185l.44-19.42a13.91,13.91,0,0,1,.81,1.31,14.81,14.81,0,0,1,.8,2.3,3.2,3.2,0,0,1,.8,1.6c.15.95.59,4.15.75,4.9s.15,1.35.59,1.35c2.6,0,4-4.3,3.5-5.65a13.63,13.63,0,0,0-2-3s-1.4-4.44-1.64-5-1.25-1.05-1.55-1.25c-.15-.1-1.07-1-1.94-1.88l.12-5.44a6.11,6.11,0,0,1-.86,0,8.62,8.62,0,0,1-6.22-2.54l1,32.7Zm6.54-10.61c-1.15,1.6-1.3,1.65-1.7,1.65s-.39-1.75-.14-2.65.89-1.85,1.74-1.8C131.22,171.67,131.77,172.83,130.62,174.43Z"></path><path class="cls-1" d="M167.19,111.18a27,27,0,0,0,6.5,1.2c4.94-.26,8.64-4,9.74-4.95a37.09,37.09,0,0,1,4.2-2.49s-2.7,0-6.1-.35a23.9,23.9,0,0,0-9.34,1.1,12.61,12.61,0,0,0-4.55,2.89,4.33,4.33,0,0,1-1.9,1.25l-1.85.45a5,5,0,0,1,1.36-2.3,30.69,30.69,0,0,0,4.84-4.14,43.69,43.69,0,0,0,5.9-9.2c.24-.94,2.29-5.54,2.29-5.54A50.09,50.09,0,0,1,173,92.35a19.5,19.5,0,0,0-7.15,6.44,16.45,16.45,0,0,0-1.9,7.5c-.05,2.29-.94,4.24-2.89,6.59a48.78,48.78,0,0,1-5.2,4.85,9.59,9.59,0,0,1-3.05,1.55,6.35,6.35,0,0,1-2.09.1s1.05-1.35,1.69-1.55a12.06,12.06,0,0,0,4.7-3c2.5-2.25,4-7.95,4.2-8.89s1.1-3.85,1.1-3.85a29.51,29.51,0,0,1-4.25,3.35,22.08,22.08,0,0,0-6.64,6.84,7.07,7.07,0,0,0-.85,5.35c0,.4-.15.65-.8,1.29a4.61,4.61,0,0,1-2.2,1,17.62,17.62,0,0,1-5.2,1c-2.35,0-5.44-1.1-6.14-1.14s-1.8.59-2.25.64a10.65,10.65,0,0,1-1.25-.15c-.45,0-1.85.05-1.85.05a7.91,7.91,0,0,0,.45-2.29c.05-.35.15-.85.65-1a19.37,19.37,0,0,0,2.45-1.3,2.91,2.91,0,0,1,1.45-.3,11.8,11.8,0,0,0,5.49-1.5,22.53,22.53,0,0,0,7-7.3,29.46,29.46,0,0,1,3.9-3.34s-2.55.7-5.45,1.55-7.14,2.85-8.64,4.19a14.77,14.77,0,0,0-2.85,3.55,14.14,14.14,0,0,1-1.5,2.5c-.45.35-1.9,1.1-1.9.9a9.77,9.77,0,0,1,.9-1.85c.35-.6,1.45-2.35,2.15-3.4a12.5,12.5,0,0,0,1.3-2.7,9.64,9.64,0,0,1,1.3-2.59c2.18-2.55,3.69-2.55,4.89-2.65a51.68,51.68,0,0,0,6.2-.3,18.39,18.39,0,0,0,7.49-3c.8-.45,4.35-3,4.35-3s-3.45.6-4.55.75-5.34.2-7.79.8a22.17,22.17,0,0,0-6.65,3.45,49.55,49.55,0,0,0-4.24,3.25,11.17,11.17,0,0,1,.15-1.9,2.74,2.74,0,0,1,1.35-2,28.8,28.8,0,0,0,5.69-4.1,27.85,27.85,0,0,0,4.5-6.64c.3-.9,2.1-4.5,2.1-4.5a16.4,16.4,0,0,1-4,2.5,23.3,23.3,0,0,0-7.69,6,8.92,8.92,0,0,0-2,5,9.15,9.15,0,0,1-.4,2.4,5.69,5.69,0,0,0-.6,2.55,8.39,8.39,0,0,1-.65,2.84,9,9,0,0,1-.65,1.8,4.68,4.68,0,0,0-.65,1.15,27,27,0,0,1-2.35,3.35s-.65-.8.35-3a19.68,19.68,0,0,0,2.05-7.29,22.42,22.42,0,0,0-1.15-6.1c-.45-1.2-1.95-5.44-1.95-5.44a17.57,17.57,0,0,1-.85,4c-.7,2-2.3,6-2.3,8.84a14.14,14.14,0,0,0,2.15,6.94,3.44,3.44,0,0,1,.75,2.75,4.62,4.62,0,0,1-1.05,2.4,7,7,0,0,0-.7,2.35c-.69,3-2.19,3.89-3.49,4.94-.16.13-.35.26-.57.41l.71-27.41c.31-4.14.71-12.49,4.51-18,.47-.69.73-1,.73-1a13.26,13.26,0,0,1,9.4-5.39V70l-20.57,0h-.06l-18.84,0v2.24a13.28,13.28,0,0,1,9.4,5.39c2.94,4.1,4.76,6.51,5.28,19.49l1,31.33a5.77,5.77,0,0,0-2.59,3.93,2.21,2.21,0,0,1-.25-2,10.63,10.63,0,0,0,.85-6c-.5-2.7-3.5-7.19-4.45-8.29s-2.7-3.8-2.7-3.8,0,2.5-.1,4.5-.85,4.79.35,8.29a11.43,11.43,0,0,0,4.2,5.55,3.17,3.17,0,0,1,1.15,2,3.88,3.88,0,0,1-.1,2.05,14,14,0,0,1-.25,2.2c-.21.73-.8,1.15-.9,1.8a21.7,21.7,0,0,1-.75,3c-.15.55-.5.65-1,1.4a1.89,1.89,0,0,0-.35,1.24,16.21,16.21,0,0,1-2.6-2.64,9.12,9.12,0,0,0-6.89-5.85,24,24,0,0,0-6.5-.15,29.31,29.31,0,0,1-5.42-.64c.21,0,1.87.45,4,2.74a20,20,0,0,0,7,5,9,9,0,0,0,5.25-.06c.74-.19,1.29-.5,1.94-.25a4.49,4.49,0,0,1,1.4,1.25s-1.15.65-2,1.05c-3,1.43-5.35,2.58-7.14,5.55a31.7,31.7,0,0,0-1.95,6.79,38.8,38.8,0,0,1-1.05,3.85s1.7-1.45,3.1-2.4a21.17,21.17,0,0,0,5.7-4.94c2.24-2.85,2.54-7.25,2.64-8.15a1.16,1.16,0,0,1,1-1.15,1.49,1.49,0,0,1,1,1.35,3.53,3.53,0,0,0,.65,2c.3.45,1,1,1.6,1.9a29.5,29.5,0,0,1,1.45,3.55c.4.8.6.7,1.2,1.8s.5,1.69,1,2.54.75.75.75.75l-.3-5.29a1.35,1.35,0,0,1-.4-.35,5.39,5.39,0,0,1-.5-.9s.9-.6,1.49-.9a1.18,1.18,0,0,1,1.35.1c.4.25,3.25,2.55,6.35,2.55s9.44-3.4,10.59-4A32.82,32.82,0,0,1,139,148s-3-.3-4.6-.65a70.61,70.61,0,0,0-7.34-1.25,9,9,0,0,0-2,.25l.13-1.6s-1.32,1.12-1.77,1.47A15.5,15.5,0,0,1,120,147.8a16.51,16.51,0,0,1-2.4.7s-.2-.2-.35.55-.25.65-1.1.85a9,9,0,0,0-1.59.55s.7-1.8.8-2.1.25-.6,1.29-.8a14.88,14.88,0,0,0,7.15-3.65,22.05,22.05,0,0,0,5.14-7.44,18.66,18.66,0,0,1,3.55-4.39s-2.3.89-6.64,2.39l-.61.22.16-5.74h0v-.41l-.3.14c-.65.3-2.55.85-3.3,1.2s-1.35,1.14-2,1.44a8.37,8.37,0,0,0-2.82,1.75l0,.94h0l.19,6.11a9.69,9.69,0,0,0-2,5c-.19,1.15-.34,1.7-.49,2.3a20.66,20.66,0,0,1-.75,2,13.76,13.76,0,0,0-1.7-2.55,2.27,2.27,0,0,1-.45-2.35,14.33,14.33,0,0,1,1-2.59c.45-1.15,1-3.35,1.4-4.05s.2.65.95-3.45a6.86,6.86,0,0,1,4.64-5.34c.6-.3,1.2-1.1,2-1.45s2.65-.9,3.3-1.2a10.13,10.13,0,0,0,3.74-2.5,6.1,6.1,0,0,1,2.2-2,9.33,9.33,0,0,1,3.35-.5c1.65-.1,2,1.2,2.35,1.65a2.5,2.5,0,0,1,.4,1.5,7.82,7.82,0,0,0,3,6.6c3.34,2.89,7.44,3.14,8.94,3.54s5.24,1.95,5.24,1.95-.65-.25-3.19-4.2-5-6.29-6.54-7.18a21.65,21.65,0,0,0-5-1.66,3.84,3.84,0,0,1-1.65-.7,13.29,13.29,0,0,1-1.25-1.6,2.49,2.49,0,0,1,.65,0,11.41,11.41,0,0,0,5,1,12.33,12.33,0,0,0,5.8-1.4,2.1,2.1,0,0,1,1.95.2c.65.4,1.45,1,3,2a15.08,15.08,0,0,0,7.45,2.55,31.34,31.34,0,0,0,9.39-2,23,23,0,0,1,3.9-1.2s-2.5-.45-3.9-.75-5.95-2-9.14-2a11,11,0,0,0-5.8,1.69,1.82,1.82,0,0,1-2.05.4,2,2,0,0,1-1.54-1.35c3.79-.55,4.14-1.14,5.64-2.09s2.75-2.75,3.7-3.65c.64-.61,1.17-1.38,2.55-2.65A3.54,3.54,0,0,1,167.19,111.18Zm7.29-5.19c3.75-.88,10.64-.57,9.81-.36s-5.8,2.35-9.29,3.28a45.16,45.16,0,0,1-7.57,1.2l-.05-.1A18.44,18.44,0,0,1,174.48,106ZM167,98.84c2.51-4.22,8.4-6.57,8.4-6.57s-4.28,5.69-5.63,7.51-4.85,7-4.85,7A13.93,13.93,0,0,1,167,98.84Zm-14,12.79c2.45-4,7.25-6.42,7.25-6.42s-3,5-4.64,7.31-4.07,5.11-4.07,5.11S150.53,115.65,153,111.63Zm-13.1-2.51c2.2-1.5,8.87-4,8.87-4s-5.11,4.54-7.67,6.36a42.83,42.83,0,0,1-5.63,3.29A11.65,11.65,0,0,1,139.88,109.12ZM148.18,99c2.19-.73,9-1,9-1s-5.89,2.08-8.29,2.87a53.66,53.66,0,0,1-6.63,1.41A21.32,21.32,0,0,1,148.18,99Zm-7.88-4.38c1.88-2.93,8.71-6.47,8.71-6.47s-3.81,3.8-6.47,6.94-4.43,5.27-4.43,5.27l-.05.1A15.51,15.51,0,0,1,140.3,94.57Zm-9.08,16.07a12.38,12.38,0,0,1-1.93-6.73c0-4.18,2.4-8.67,2.4-8.67s-.11,4.91.05,7.67A53.86,53.86,0,0,1,131.22,110.64ZM99,139.55a34.16,34.16,0,0,1-5.89-3.19s6.36-.73,8.71.42c4.07,2,4.64,5,4.64,5S101.37,140.38,99,139.55Zm-1,18.77s.81-6.34,2.59-8.56a10.05,10.05,0,0,1,5.38-3.73Zm28.28-11.19c2.28-.24,8.57,1.17,8.57,1.17a85.44,85.44,0,0,1-10,1.81,39.61,39.61,0,0,1-6.32-.08S120.06,147.75,126.22,147.13Zm-6.48-8.31c2.35-2.3,9.55-4.54,9.55-4.54s-5.74,4.9-8,6.94a63.76,63.76,0,0,0-5.21,5.53S115.56,142.89,119.74,138.82Zm-6.37-8.56a30.18,30.18,0,0,1-2.66-6.26c-.69-2.54-1.72-8.66-1.72-8.66s4,5.83,4.75,7.77C114.94,126.4,113.37,130.26,113.37,130.26ZM138.16,124s4.28,1,6.21,2.29c4.1,2.77,6.63,8.09,6.63,8.09a64.9,64.9,0,0,1-7.21-4.54,35.49,35.49,0,0,1-5.63-5.69Zm22.23-3.5c3.75,0,9.23,1.88,9.23,1.88s-7,.88-9.23.88a52.53,52.53,0,0,1-6-.57S157.47,120.5,160.39,120.5Z"></path><path class="cls-1" d="M149.6,92.76a2.65,2.65,0,0,0-1.36,2.6,1.34,1.34,0,0,0,1.81,1.47,2.23,2.23,0,0,0,1.58-2.37A1.65,1.65,0,0,0,149.6,92.76Z"></path><path class="cls-1" d="M174.34,100.25a2.65,2.65,0,0,0-1.36,2.6,1.34,1.34,0,0,0,1.81,1.47,2.24,2.24,0,0,0,1.58-2.38A1.65,1.65,0,0,0,174.34,100.25Z"></path><path class="cls-1" d="M132.45,123.76a2.68,2.68,0,0,0-1.36,2.61,1.33,1.33,0,0,0,1.81,1.46,2.23,2.23,0,0,0,1.59-2.37A1.66,1.66,0,0,0,132.45,123.76Z"></path><path class="cls-1" d="M161.73,115.89a1.35,1.35,0,0,0,1.28,2,2.23,2.23,0,0,0,2.23-1.78,1.66,1.66,0,0,0-1.42-2.24A2.69,2.69,0,0,0,161.73,115.89Z"></path><path class="cls-1" d="M149.14,123.74a2.65,2.65,0,0,0-1.36,2.6,1.34,1.34,0,0,0,1.81,1.47,2.23,2.23,0,0,0,1.59-2.37A1.66,1.66,0,0,0,149.14,123.74Z"></path><path class="cls-1" d="M129.23,140.82a2.65,2.65,0,0,0-1.36,2.6,1.34,1.34,0,0,0,1.81,1.47,2.24,2.24,0,0,0,1.59-2.38A1.66,1.66,0,0,0,129.23,140.82Z"></path><path class="cls-1" d="M98.16,148.06a2.24,2.24,0,0,0,1.58-2.38,1.66,1.66,0,0,0-2-1.69,2.65,2.65,0,0,0-1.35,2.6A1.34,1.34,0,0,0,98.16,148.06Z"></path><path class="cls-1" d="M107.55,24.19a14.58,14.58,0,0,1,2.78,8.06c0,1.1-.12,2.85-.12,2.85a30.09,30.09,0,0,1-.95,5,25.81,25.81,0,0,0,3.5-7l.07-.27.13.24A9.68,9.68,0,0,1,114,36.48a12.27,12.27,0,0,0,1-4.68A8.33,8.33,0,0,0,107.55,24.19Z"></path><path class="cls-1" d="M108.46,36.61h0a32.37,32.37,0,0,0-.44-3.76c-.35,1.09-1.75,3.75-7.32,9-3.18,3-4.9,5.26-4.9,8.64,0,6.58,5.87,11.79,7.31,13a31.36,31.36,0,0,1-2-10.67c0-2.25,1.32-3.57,2.59-4.84l.31-.31a25.38,25.38,0,0,0,3.12-3.53h0a8,8,0,0,0,1.08-2.39,9.49,9.49,0,0,0,.2-1.22h0A27.27,27.27,0,0,0,108.46,36.61Z"></path><path class="cls-1" d="M77.65,95.77A1.68,1.68,0,0,0,76,97.47a1.58,1.58,0,0,0,.48,1.1,2.09,2.09,0,0,0-.6-.1,2.12,2.12,0,0,0,0,4.24,2.52,2.52,0,0,0,.56-.08,3.63,3.63,0,0,1-3.52,2.56c-3.12,0-4.36-3.36-4.48-4.16a2.09,2.09,0,1,0,2-2.68,2.13,2.13,0,0,0-.62.12,2.09,2.09,0,1,0-3.48-1.58,2.16,2.16,0,0,0,.74,1.6,2,2,0,0,0-.68-.14,2.1,2.1,0,1,0,2,2.68c-.12,1-1.88,4.16-4.5,4.16a3.55,3.55,0,0,1-3.54-2.56,2.52,2.52,0,0,0,.56.08,2.12,2.12,0,0,0,0-4.24,1.89,1.89,0,0,0-.6.1,1.58,1.58,0,0,0,.48-1.1,1.69,1.69,0,0,0-1.7-1.7A1.8,1.8,0,0,0,58,96c.44,1.74,1,5.22,1,5.7l1.46,9.52H76.23s0-.16,0-.28l1.42-9.24c.32-2.16.7-4.44,1-5.7A1.8,1.8,0,0,0,77.65,95.77Z"></path><path class="cls-1" d="M107.37,95.77a1.68,1.68,0,0,0-1.68,1.7,1.58,1.58,0,0,0,.48,1.1,2.09,2.09,0,0,0-.6-.1,2.12,2.12,0,0,0,0,4.24,2.52,2.52,0,0,0,.56-.08,3.63,3.63,0,0,1-3.52,2.56c-3.12,0-4.36-3.36-4.48-4.16a2.09,2.09,0,1,0,2-2.68,2.13,2.13,0,0,0-.62.12A2.09,2.09,0,1,0,96,96.89a2.16,2.16,0,0,0,.74,1.6,2,2,0,0,0-.68-.14,2.1,2.1,0,1,0,2,2.68c-.12,1-1.88,4.16-4.5,4.16a3.55,3.55,0,0,1-3.54-2.56,2.52,2.52,0,0,0,.56.08,2.12,2.12,0,0,0,0-4.24,1.89,1.89,0,0,0-.6.1,1.58,1.58,0,0,0,.48-1.1,1.69,1.69,0,0,0-1.7-1.7,1.8,1.8,0,0,0-1.06.2c.44,1.74,1,5.22,1,5.7l1.46,9.52H106s0-.16,0-.28l1.42-9.24c.32-2.16.74-4.57,1-5.7A1.8,1.8,0,0,0,107.37,95.77Z"></path><path class="cls-1" d="M93.68,114.78a1.85,1.85,0,0,0-1.85,1.88,1.74,1.74,0,0,0,.53,1.21,2.24,2.24,0,0,0-.67-.11,2.34,2.34,0,0,0,0,4.67,3.09,3.09,0,0,0,.62-.08,4,4,0,0,1-3.88,2.82c-3.44,0-4.81-3.71-4.94-4.59a2.31,2.31,0,1,0,2.21-3,2.22,2.22,0,0,0-.69.13A2.31,2.31,0,1,0,81.17,116a2.37,2.37,0,0,0,.82,1.76,2.13,2.13,0,0,0-.75-.15,2.32,2.32,0,1,0,2.21,3c-.14,1.06-2.08,4.59-5,4.59a3.91,3.91,0,0,1-3.9-2.82,3.09,3.09,0,0,0,.62.08,2.34,2.34,0,0,0,0-4.67,2,2,0,0,0-.67.11,1.7,1.7,0,0,0,.53-1.21,1.86,1.86,0,0,0-1.87-1.88A2,2,0,0,0,72,115c.49,1.92,1.06,5.76,1.15,6.29l1.61,10.5H92.11l0-.31,1.56-10.19c.36-2.39.81-5.05,1.13-6.29A2,2,0,0,0,93.68,114.78Z"></path></svg>