<svg height="170" viewBox="0 0 145.35 96.9" width="255" xmlns="http://www.w3.org/2000/svg"><g transform="translate(2.271857 24.45)"><g><path d="m40.179 0h-40.151c-.013.423-.273 11.205 1.103 17.995 2.254 11.112 8.461 21.105 18.972 30.005 10.513-8.9 16.719-18.893 18.975-30.005 1.378-6.79 1.111-17.572 1.101-17.995" fill="#231f20"/><g fill="#fff"><path d="m25.251 6.974c.481 0 .872.39.872.87s-.391.872-.872.872c-.48 0-.871-.393-.871-.872 0-.48.391-.87.871-.87"/><path d="m14.958 6.974c.477 0 .868.39.868.87s-.391.872-.868.872c-.481 0-.874-.393-.874-.872 0-.48.393-.87.874-.87"/><path d="m12.555 30.156c.745 0 .781-.386.815-.51-.143.144-.432.241-.88.241-.451 0-.888-.184-1.121-.914-.118-.377-.026-.811-.026-.811s.494.394.875.373c.677-.035 1.187-.465 1.187-1.242 0-.915-.652-1.9-1.932-3.42-1.142-1.352-1.705-2.808-1.705-4.238 0-3.37 3.357-5.496 3.357-5.496s.351 8.426.422 9.336c.073.909.284 2.463.827 3.67v2.936c-.148.463-.733.655-1.141.655-.319 0-.718-.3-.678-.58"/><path d="m20.103 12.986c-4.971 0-7.518.591-7.518.591l-.652-1.311s3.449-.661 8.17-.661c4.719 0 8.172.661 8.172.661l-.653 1.311c.001 0-2.547-.591-7.519-.591"/><path d="m24.564 37.022h-8.919l-1.472-1.648s.931-.848.931-2.399v-4.621c-.016-.004 1.717 2.504 4.999 2.504 2.883 0 5.029-2.45 5.001-2.441v4.558c0 1.551.93 2.399.93 2.399z"/><path d="m27.989 28.535c.38.021.875-.373.875-.373s.092.434-.027.811c-.228.73-.671.914-1.116.914-.451 0-.74-.097-.883-.241.033.124.071.51.814.51.04.279-.356.58-.677.58-.408 0-.992-.193-1.139-.656v-2.936c.541-1.207.751-2.76.822-3.67s.426-9.336.426-9.336 3.354 2.126 3.354 5.496c0 1.429-.56 2.886-1.703 4.238-1.284 1.52-1.932 2.505-1.932 3.42-.001.778.506 1.208 1.186 1.243"/><path d="m28.571 11.678s-3.587-.722-8.468-.722c-4.879 0-8.463.722-8.463.722l-2.37-4.745s.7-.484 1.199-.484c.88 0 1.077.791 1.077 1.067 0 .219-.026.387-.157.537l-.037.038c-.198.226-.247.283-.247.433 0 .137.096.35.353.35.229 0 .283-.073.386-.359.107-.291.393-.584.798-.584.397 0 .84.346.84.84 0 .527-.43.842-.84.842-.236 0-.347-.067-.423-.115-.053-.031-.08-.047-.124-.047-.051 0-.092.035-.113.062-.065.078-.09.206-.065.331.067.362.752.922 1.522.922 1.144 0 1.839-1.03 1.839-1.774.438 1.046 1.412 1.268 2.085 1.268 1.812 0 2.187-1.609 2.187-2.04 0-.29-.092-.526-.177-.567-.012-.003-.044-.018-.103.035l-.073.064c-.22.2-.632.572-1.209.572-.647 0-1.318-.486-1.318-1.3 0-.863.662-1.314 1.315-1.314.543 0 .85.298 1.057.495.08.079.163.162.207.162.091 0 .177-.037.233-.1.044-.049.068-.113.068-.182 0-.011 0-.025-.003-.039-.007-.058-.079-.129-.162-.213-.179-.186-.424-.441-.424-.934 0-.565.459-1.168 1.144-1.171.688.003 1.146.606 1.146 1.171 0 .493-.247.748-.427.934-.081.083-.15.154-.157.213 0 .014-.003.028-.003.039 0 .069.024.133.068.182.053.063.139.1.231.1.046 0 .129-.082.207-.162.206-.197.514-.495 1.058-.495.653 0 1.314.451 1.314 1.314 0 .814-.674 1.3-1.321 1.3-.574 0-.988-.371-1.208-.572l-.069-.064c-.063-.053-.094-.038-.104-.035-.084.041-.179.278-.179.567 0 .43.373 2.04 2.185 2.04.671 0 1.645-.222 2.085-1.268 0 .744.695 1.774 1.842 1.774.768 0 1.452-.56 1.519-.922.027-.125-.001-.253-.065-.331-.023-.027-.062-.062-.114-.062-.045 0-.072.015-.121.047-.079.048-.187.115-.424.115-.411 0-.839-.315-.839-.842 0-.494.444-.84.839-.84.404 0 .691.293.798.584.107.286.159.359.387.359.257 0 .351-.214.351-.35 0-.15-.047-.207-.248-.433l-.036-.038c-.131-.15-.16-.317-.16-.537 0-.276.201-1.067 1.08-1.067.5 0 1.198.484 1.198.484z"/><path d="m26.275 14.076c-.03.666-.251 6.108-.276 7.636-.008.628-.178 2.757-.339 3.555-.355 1.765-1.925 4.751-5.558 4.751-3.63 0-5.202-2.986-5.555-4.751-.161-.8-.334-2.929-.341-3.555-.021-1.528-.247-6.97-.273-7.636.397-.061 2.622-.371 6.169-.371 3.551 0 5.775.31 6.173.371"/></g><path d="m23.868 16.705c-.316 0-.653.051-.927.264-.146.11-.193.263.023.263.38 0 .618.345.618.605 0 .259-.164.389-.354.389-.192 0-.298.173-.099.213.21.041.421.065.735.065 1.088 0 1.671-.355 1.671-.657.001-.303-.597-1.142-1.667-1.142" fill="#231f20"/><path d="m16.728 15.544c.5.129 1.24.401 1.788.95.563.566.778 1.127.857 1.519.067.328.186.342.284.022.144-.461.187-1.176-.468-1.915-.606-.679-1.532-.828-2.076-.828-.133 0-.264.011-.381.027-.317.04-.331.141-.004.225" fill="#231f20"/><path d="m22.324 25.738c-.317-.151-1.191-.577-1.401-.672-.116-.055-.163-.063-.286-.063h-1.08c-.124 0-.171.008-.287.063-.211.096-1.088.521-1.398.672-.176.083-.15.253.017.253h4.414c.169 0 .193-.17.021-.253" fill="#231f20"/><path d="m18.395 17.847c0-.303-.594-1.143-1.666-1.143-.316 0-.653.051-.927.264-.144.109-.191.263.024.263.377 0 .619.345.619.605 0 .259-.166.389-.357.389-.189 0-.297.174-.097.214.213.041.42.065.737.065 1.086.001 1.667-.355 1.667-.657" fill="#231f20"/><path d="m21.524 26.622h-2.842c-.15 0-.172.141-.07.21.09.064.672.453.804.534.103.064.153.073.278.073h.815c.127 0 .178-.009.281-.073.129-.082.711-.47.802-.534.1-.068.081-.21-.068-.21" fill="#231f20"/><path d="m24.524 15.294c-.42 0-.688-.002-1.387-.002-1.435 0-2.43 1.191-2.43 2.636v4.226c0 .24-.093.387-.345.387h-.256c-.139 0-.284.034-.417.147-.216.181-.741.635-.813.725-.076.085-.054.191.163.191h2.84c.163 0 .232-.071.1-.191-.179-.166-.753-.717-.753-.717v-4.261c0-1.111.216-2.478 2.308-2.478.557 0 1.05.001 1.14.001.764 0 1.169-.667 1.169-.667s-.902.003-1.319.003" fill="#231f20"/></g><g fill="#231f20"><path d="m47.4 16.118c.618.743 1.665 1.367 2.761 1.419 1.244.06 2.046-.637 2.046-1.38 0-.899-.673-1.424-1.937-1.95l-1.012-.407c-1.932-.797-2.889-1.95-2.889-3.511 0-1.933 1.86-3.188 3.81-3.188 1.481 0 2.609.491 3.549 1.542l-1.405 1.252c-.638-.689-1.252-.962-2.14-.962-.866 0-1.769.485-1.769 1.316 0 .781.627 1.364 1.91 1.872l.993.424c1.751.712 2.943 1.764 2.943 3.443 0 1.682-1.348 3.425-4.081 3.425-1.886 0-3.264-.855-4.345-1.953z"/><path d="m60.536 19.262h-1.551c-1.815 0-2.893-1.078-2.893-2.874v-4.726h-1.541v-1.852h1.541v-2.227h2.08v2.227h2.364v1.852h-2.364v4.292c0 .964.265 1.399 1.342 1.399h1.022z"/><path d="m61.525 14.536c0-2.76 2.079-4.878 4.896-4.878 2.798 0 4.896 2.118 4.896 4.878s-2.098 4.877-4.896 4.877c-2.816.001-4.896-2.116-4.896-4.877m7.657 0c0-1.645-1.153-2.893-2.76-2.893-1.626 0-2.76 1.248-2.76 2.893s1.134 2.892 2.76 2.892c1.607.001 2.76-1.247 2.76-2.892"/><path d="m72.656 14.536c0-2.76 2.079-4.878 4.877-4.878 1.512 0 2.741.624 3.611 1.569l-1.418 1.456c-.492-.567-1.21-1.002-2.193-1.002-1.607 0-2.741 1.21-2.741 2.855s1.134 2.855 2.741 2.855c.983 0 1.701-.435 2.193-1.002l1.418 1.456c-.869.945-2.098 1.569-3.611 1.569-2.798 0-4.877-2.117-4.877-4.878"/><path d="m88.516 9.81h2.458l-3.932 4.481 4.404 4.971h-2.552l-4.159-4.726v4.726h-2.079v-13.197h2.079v8.017z"/><path d="m94.515 13.307v5.956h-2.08v-13.198h2.08v4.633c.662-.718 1.664-1.04 2.647-1.04 2.344 0 3.838 1.626 3.838 4.065v5.539h-2.08v-5.502c0-1.021-.756-2.118-2.155-2.118-1.078.001-1.891.569-2.25 1.665"/><path d="m102.685 14.536c0-2.76 2.079-4.878 4.897-4.878 2.798 0 4.896 2.118 4.896 4.878s-2.098 4.877-4.896 4.877c-2.817.001-4.897-2.116-4.897-4.877m7.657 0c0-1.645-1.153-2.893-2.76-2.893-1.627 0-2.76 1.248-2.76 2.893s1.134 2.892 2.76 2.892c1.607.001 2.76-1.247 2.76-2.892"/><path d="m114.164 6.065h2.079v13.197h-2.079z"/><path d="m120.358 13.251v6.011h-2.08v-9.452h2.08v.888c.643-.737 1.569-1.039 2.439-1.039 1.323 0 2.325.529 2.949 1.455.889-1.172 2.212-1.455 3.119-1.455 2.325 0 3.649 1.626 3.649 4.064v5.539h-2.08v-5.501c0-1.021-.586-2.117-1.947-2.117-.945 0-1.701.567-2.061 1.645.019.151.019.283.019.435v5.539h-2.079v-5.501c0-1.021-.605-2.117-1.966-2.117-.927-.001-1.702.566-2.042 1.606"/><path d="m133.677 17.775.167.152c1.126 1.024 2.21 1.52 3.538 1.52 2.248 0 3.424-1.412 3.424-2.808 0-1.241-.8-2.159-2.446-2.805l-.789-.325c-1.231-.472-1.374-.932-1.374-1.238 0-.502.603-.84 1.186-.84.643 0 1.073.226 1.534.707l.138.144 1.391-1.199-.139-.15c-.764-.827-1.683-1.258-2.926-1.258-1.579 0-3.211.983-3.211 2.628 0 1.26.81 2.222 2.408 2.858l.794.309c1.02.41 1.399.762 1.399 1.3 0 .419-.482.852-1.287.852-.035 0-.071-.001-.107-.003-.732-.034-1.582-.39-2.08-.968l-.136-.157z"/><path d="m46.51 33.282.167.152c1.125 1.024 2.21 1.52 3.538 1.52 2.248 0 3.424-1.412 3.424-2.807 0-1.241-.8-2.159-2.445-2.805l-.789-.325c-1.231-.472-1.374-.932-1.374-1.238 0-.502.603-.839 1.186-.839.643 0 1.073.226 1.534.706l.138.144 1.391-1.198-.14-.15c-.764-.827-1.683-1.258-2.926-1.258-1.578 0-3.211.983-3.211 2.628 0 1.26.81 2.222 2.408 2.858l.794.308c1.02.41 1.399.762 1.399 1.3 0 .419-.482.852-1.287.852-.036 0-.071-.001-.107-.003-.732-.034-1.582-.39-2.08-.969l-.135-.158z"/><path d="m60.536 34.803h-1.551c-1.815 0-2.893-1.078-2.893-2.874v-4.726h-1.541v-1.853h1.541v-2.227h2.08v2.227h2.364v1.853h-2.364v4.291c0 .964.265 1.399 1.342 1.399h1.022z"/><path d="m68.917 34.104c-.661.529-1.531.85-2.533.85-2.798 0-4.858-2.117-4.858-4.877s2.06-4.877 4.858-4.877c1.002 0 1.872.322 2.533.851v-.7h2.08v9.452h-2.08zm0-2.421v-3.213c-.492-.775-1.456-1.286-2.514-1.286-1.607 0-2.741 1.247-2.741 2.893 0 1.644 1.134 2.892 2.741 2.892 1.058 0 2.022-.51 2.514-1.286"/><path d="m80.047 34.104c-.662.529-1.531.85-2.533.85-2.798 0-4.859-2.117-4.859-4.877s2.061-4.877 4.859-4.877c1.002 0 1.871.322 2.533.851v-4.445h2.079v13.197h-2.079zm0-2.421v-3.213c-.492-.775-1.456-1.286-2.514-1.286-1.607 0-2.741 1.247-2.741 2.893 0 1.644 1.134 2.892 2.741 2.892 1.059 0 2.023-.51 2.514-1.286"/></g></g></svg>