<svg xmlns="http://www.w3.org/2000/svg" viewBox="0 0 344.25 229.5" width="255" height="170"><g transform="translate(4.324 -54.431)"><g transform="translate(0 113.296)"><path d="M48.5 111.4c-.9 0-1.1-.8-1.7-1.4-.6-.6-1.2-1.2-1.9-1.7-1.5-1.1-3.2-2-5-2.4-3.3-.9-6.7-.8-10-.8-7 0-15.1 1-21.3-3-2.7-1.8-4.9-4.4-6.3-7.3C.6 91.1.4 87.2.4 83.2c0-3.6 0-7.3-.1-10.9 0-2.8 0-5.6-.1-8.4.8.6 1.6 1.3 2.6.9s1.7-1.3 1.8-2.4v-3c.1-4.3.1-8.5.2-12.8 0-3.2.1-6.4.1-9.5 0-1.8-.5-2.8-2.4-3.2-2-.4-1.9-1.8-1.9-3.5 0-4.9.1-9.8.1-14.6 0-2.6.3-5.3.1-7.9C.8 5.5.6 3 3.2 2.3c1.5-.4 5.6-.5 5.8 1.9.2 1.9-2.3 2.3-3.7 2.6 3.3 1.1 6.5 1.7 10 1.4 4.2-.3 7.6-2.1 11.2-4.1C29.7 2.4 32.9.3 36.7.4c4.2.1 8.3 1 12.5.9 4.1 0 8.3-1.4 12.5-.7 3.9.7 7 3.3 10.4 5.1 3.5 1.8 7.3 2.9 11.3 2.9 1.8 0 3.7-.1 5.4-.6.5-.1 1.6-.3 1.5-.8-.1-.5-1.4-.7-1.9-1-1.5-1.2-.3-2.6 1.1-3.1 1.8-.5 4-.4 5.6.5 1.3.8 1.3 2.3 1.3 3.6 0 2.2 0 4.5.1 6.7 0 3.6.1 7.2.1 10.8 0 2 0 4 .1 6.1 0 .8.3 3.1-.4 3.6-1.1.7-3.3-.3-3.9 1.3-.3.8-.1 1.8-.1 2.6v3.5c0 4.3.1 8.7.1 13v4.4c0 1.8-.6 4.6 1 5.8.6.5 1.4.5 2.1.5.3 0 1.2-.3 1.4 0 .2.2 0 1.1 0 1.4 0 1.5 0 3.1-.1 4.6-.1 4.1-.1 8.2-.2 12.3.2 5.2-.6 10.6-3.9 15-3.6 4.7-9.2 6.6-14.9 6.6-3.5 0-7.1.1-10.6.1-5.5 0-12.6-.4-16.4 4.6-.8.9-1.2 1.3-2.3 1.3z" fill="#ffffff"/><g fill="#0076bc"><path d="M80.7 85.5c-5.4 6.7-11 13.2-17.2 19 4-.1 8 .1 11.9 0 3-.1 6.6 0 9.4-1.2 5.3-2.3 9-6.9 10.4-12.5 1-3.8.8-7.7.8-11.5v-9.4c-6.1 4-10.7 10-15.3 15.6-4.6 5.7 5.2-6.4 0 0zM2.5 33.6c1.1 0 2.5-1.6 3.4-2.5 1.4-1.4 2.7-3 3.9-4.6 2.5-3.3 4.5-6.9 7.4-9.9 2.6-2.8 5.7-5.1 9.1-7 1.8-1 3.6-1.6 5.2-2.9.7-.6 1.4-1.3 1.9-2-.5-.4-.7-1.4-.5-2C30.1 4 27.7 6 25 7.2c-2.9 1.3-6 2.2-9.1 2.5-4.8.4-11 .7-14.7-2.9 0 4.5-.1 9-.1 13.6 0 2.9-.1 5.7-.1 8.6-.1 1.4-.7 4.6 1.5 4.6zM75.2 9c-4.3-1.3-7.8-3.9-11.9-5.6 0 1.2-1 1.9-2.1 2.2-1.1.3-1.1.1-1.9.8-2.4 2.3-4.7 4.5-7.2 6.7l-4.4 3.2c-1.4.8-4.1 2.8-4.1 2.8l-2.8 1.7c-.1 0-.2 0-.4.1-.3.2-.7.4-1 .7-.8.6-1.6 1.2-2.3 1.8-1.6 1.3-3 2.8-4.5 4.2L30.5 30c-.5.5-.4.4 0 .7l.9.9c-.5.5-1.1 1-1.6 1.5l-7 6.2c-1.5 1.5-4.4 4.6-4.4 4.6l-7.9 7.2c-1.2 1.2-2.5 2.3-3.8 3.4-.7.6-1.6.9-1.6 1.8 0 1.8 0 3.6-.1 5.4 0 .9-.3 1.8-.9 2.4-.6.6-1.3.9-2.1.9-.4 0-.9-.1-1.3-.1-.1.1 0 .4-.1.5-.2.6 0 1.6 0 2.2 0 6.3.1 12.6.1 18.9C3 84.8 5.2 83 7.5 81.3c1.8-1.4 3.7-2.8 5.5-4.3 1-.8 1.9-1.6 2.9-2.4.4-.3 1.8-1.1 1.9-1.6l4.1-3.7h.1c4.1-4 7.8-8.4 11.2-13 0 0 .5-.6 1.8-2.4l27.6-26.4c7.3-5 14.5-10.5 19.9-17.5-2.4-.1-4.9-.3-7.3-1zm21.1 22.3c-.1-3.3-.2-6.6-.2-9.9-6.1 7.4-14.8 11.3-21.9 17.4-.2.1-.3.3-.5.5l-4.6 4c-.3.3-.5.7-.8 1l-.4.4c-1.1-.3-2.2-1.5-1.8-2.5 0 .1.1.1.1.2.8 1.5 2.5-.5 1.1-1-1.5-.5-3.1 0-4.2 1-1.9 1.8-2.1 5.1-1.5 7.5l.3.9-40.7 41c-3.2 3.7-6.4 7.4-9.5 11.2 4 1.7 8.3 1.6 12.5 1.6 2.3 0 4.6.1 6.8.1 1.5 0 3.2.6 4.4-.4 2.9-2.4 5.9-4.8 8.7-7.3 1.7-1.5 3.4-3 5-4.5.7-.7 1.5-1.3 2.2-2l15.5-16.9c2-2.2 3.9-4.5 5.8-6.7.1-.1.1-.1.1-.2l.9-.7c.1 0 .3 0 .6-.2.8-.6 1.5-1.2 2.3-1.9 1.3-1.2 2.5-2.4 3.7-3.7.6-.7 1.2-1.4 1.7-2.2l1.5-1c2.7-2.2 5.5-4.3 8.4-6.2.3-.5.1-1.8.1-2.4v-1-10.7c0-1.5.1-2.5 1.9-2.7 1.1-.2 2.6.3 2.7-1.3-.2-.5-.2-.9-.2-1.4z"/><path d="M66.2 42.3c.1.3-.1 0 0 0z"/></g><g fill="#ffd300"><path d="M69.5 43l.5 1.1 1.9-1.4.2-1.3-1.8-.2-1 1.2z"/><circle r="1" cy="42.3" cx="75.2"/><circle r=".9" cy="43.2" cx="77.1"/><path d="M64.8 52.3l6.9-.2.8-5-.8.5-.6.8.1 1.1-1 .9-1.4-.9.2-.7h.8l.4-1-.9-.2-1-1-.7.3-.2.7-1.1.1.1.7 1.2.6-.3 1-1.4.2-.6-.5.2-1.2-1.4-1.3-.2.4zm10.5 0l7-.2.6-5-.7.5-.5.8v1.1l-.9.9-1.5-.7.2-.9h.9l.4-1-.9-.2-1.1-1-.6.3-.2.7-1.3.2.2.6 1.2.6-.2 1-1.4.2-.7-.5.2-1.2-1.3-1.3-.3.4zM70 59.8l6.9-.1.7-5-.7.5-.8.9.3 1-1 .9-1.5-.7.3-.9.9-.1.4-.9-1-.2-1-1-.6.3-.3.7-1.2.2.2.6 1.2.6-.2.9-1.5.3-.6-.5.2-1.3-1.4-1.3-.2.5z"/><ellipse ry=".7" rx=".6" cy="44.1" cx="78.7"/><path d="M69.8 95l-.9-2 .7-2.1-2.6-.1-.5-2.3-3.1.7-2.6 2.3-2.4-.9-.2-3.6 3.4-2.6 1.9-2.2 1.1.8 1.4-1.9.3-3 1.3.1-.8-3.8-2.8-3-6.5-2.4-9.9-.6 2.9-2-2.6-.6 9-8.1 2.7-.3 1.7-2.2-.7-.5-1.8-.2 1-3 1.2-2.3-.1-5-2.9-2.7.7-2.7-.3-1.8-7.6.5-1.1-2.4 2.2-2.4 4.3.6 4.2-1 1.3-2.5.5-2.6-2-.9-3.1-1.2-1.1-2 1.9-2.1 1.7-1.9-1.8-.5.1-1.1-.7-.9v-.8l-1.6-1.4h-.9l-.5-.7-2.9-.4-.3-1.1-1.5-.5-1.1.6-.3 1.3-1.1-.2-.7.6-1-.2-.6.7-1.2.2-.1.8-1.2.5.1 1.1-.6.5v1.2l-1.2.1-1 .9 1.9.9 1.5 1.3.2 2.3-3.3-.8.8 2.6 1.8 1.7-3.2 1.2-1 1.4-.3 5v9.3l-6.8-6.2-2-4.6 1.9-2.4-2.9-2.8 13.5-14.6 6.3-7.7h-1.3l-6.7 6-14.4 13.7-2.6-2.6-1.9 1.7 1.5 2.1-1.5 1.5-1.4.7-.5 1.5-1.3 1.4.7 3 .8 1.4 1.1-.2 3.5 2.6 1.1.8 1.8 4.4 1 .3.7 2.3 1.4 1 3.7 3.5 2.8 4.3v2.9l-1.6 3.4-3.3 3.6-3.1 4.5-.8 2.9-3.7.7-2.4-1.9.9-4.2 2.4-4 .8-4.3-1.7-2.3.7-1.1 1-4.1-1-5-2.7-2-2.9-.5-3.4.2-3.4 1.7-1.3 2.2.7 5.6.4 2.1 1.9-1.5 1.7-.9.7-2.3.4-3 1.5-1.4H21l2 1.6V52l-1.2 3.5-.6-.2-2.1-.3-1.8.6-2 1.3L12 59l-1 2.2-.4 3.9.9.4-.5 1.3.5 2.3 3.1-1.3 1.3-3v-4.2l1.7-2.9 3.3.1-3.3 8.5.3 5.6 2.5 4.2 4.2.8 3.5-.5 1.1 2-1.5 3.2-5.6 2.1-.6 3.2-.3 2.7.3 2.3 1.6-.3 1 3.5 4.3 1.7.1-1.6 2 1.1 4.5.2.2-1.6h2.4l.6-1-1.4-1.7 1.2-1-3.3-1.4-2.3 1.4-3 .5-.6-2.7 1.6-3 2.8-.2 4.1-.8 1.6.5 2.8-1.3 1.5-1.9 1.5-.7v-2.5l1 .3-.3-3.6 5.3 1 4.4 3.1.3 3.5-3.1 2.4.4 1.8-.7 2 .7 4.9 1.8-1.1.3 1.3 1.4 1.8 8.3.6-.2-1.6 1.8.4zM51.6 18.9h-.5v-3l2.6.5 1.8 1.4.5 1.5-1.4-.2-.8.5.3.6 1.4.6-1.7.7-2.6-.3.9-1 .4-.8zM20 67.1l.8-4.2 2.3-3.6-.5 4.3zm26.6-45.7l-2.6-.2-.2-.4 1.2-1.1-.3-.7-1.7.4.5-1.3 1.5-1.6 3-.5.1 2.8-1.2.3-.7.8 1.2 1.1z"/></g><g fill="#c24f3b"><path d="M24.2 28.9c.1.3.3.6.3 1v.1l.1-.2c.2-.3.5-.6.8-.7l-1.3-.5zm-1.7 2.2c.3.3.7.5 1 .6h.1v-.1c0-.4 0-.8-.3-1.2-.1.3-.4.5-.8.7zM21 32.5c.3.3 1 .5 1.2.6h.1V33c0-.6-.1-1-.4-1.4-.2.6-.4.7-.9.9zm41 .9c.1.4 0 .8-.3 1.1-.4.3-.9.5-1.6.5-.5 0-1-.1-1.4-.1l-.7-.3c-1.3-.4-2.8-.8-4.3-.8-1.4 0-2.4.4-3.3 1.1v1.3c.8-.8 1.9-1.1 3.3-1.1 1 0 2.2.2 3.6.7.7.3 2.1.8 3.3.8.8 0 1.3-.2 1.7-.6.5-.5.7-1.1.5-1.7.1-.4-.2-.9-.8-.9zm-42.7 1.3c.2.2.6.4 1 .4h.1c0-.3 0-.9-.3-1.2 0 .1-.3.6-.8.8z"/><path d="M53.4 37.1c.2.1.5.1.7.1.3 0 .6-.1.9-.2l-.8-1zm2.3 0c.2.1.4.1.7.1.3 0 .5-.1.8-.2l-.7-1zm15.1 7c.4.2.8.3 1.3.3h.1v-.1c0-.4-.1-.8-.3-1.2zm3.3-.8l-.2.7h.1c.2 0 .3-.1.5-.2.1-.1.2-.1.3-.2-.2-.1-.4-.3-.7-.3zm1.5 1.5l-.1.2h.1c.4 0 .9-.2 1.1-.4l-.6-.5c-.2.2-.4.5-.5.7zm1.9-.2l-.4.6h.1c.3 0 .6 0 .8-.2zM68 88.4c-.3 0-.6.1-.9.2H67l.2 1h.1c.4-.3 1.6-.5 1.6-.6-.1-.4-.4-.6-.9-.6zm-29.2 2.3c-.1 0-.2 0-.4.1-.1.3-.2.4-.1.6.1.2.4.2.6.2h.5c.2 0 .4 0 .5.1l.1-.1c-.4-.6-.8-.9-1.2-.9zm31.4.6c0 .4-.1.7-.4 1.1 0 0 .4-.1.9-.1.3 0 .6 0 .8.1h.1v-.1c0-.8-.9-1-1.4-1zm-31.4 2.6c0 .3-.1.5-.3.8l1.2.4v-.5c-.2-.4-.6-.7-.9-.7zm31.4.2c-.2.2-.3.3-.2.5 0 .2.3.4.6.5.1 0 .2.1.3.1h.1v-.7c-.2-.1-.4-.4-.8-.4zm-34.9 1.2v1c.6.1 1.1.4 1.3.8l.1.1v-.1c.1-.3.1-.6-.1-1-.3-.5-.8-.8-1.3-.8zm-6.2.4s-.1.5-.3 1c.5.2 1.2.7 1.2.7l.1.1v-.3c-.1-.5-.2-1.1-1-1.5zm34.8 1.4l.1.1c.3.2.5.5.6.8v.1l.2-.1c.2-.4.2-1.1-.1-1.5z"/></g><path d="M49.1 28.2l3.2.5.5-2.4-2.9.8z" fill="#ffffff"/><path d="M46.6 23.1c-.5-.4-1.4-.5-1.9 0 .5.4 1.5.5 1.9 0-.2-.2-.2.2 0 0zm3.9 0c-.5-.4-1.4-.5-1.9 0 .4.5 1.4.5 1.9 0-.3-.2-.3.2 0 0zm3.6 0c-.5-.4-1.4-.5-1.9 0 .4.5 1.4.5 1.9 0-.3-.2-.2.3 0 0z"/><path d="M97.4 63.6c0-1.1-2-2.2-3-1.8-1.5.6-.4 3 .8 2.4.8-.4-1.8-2 0-1.6 1.5.3 2.3 2.4.2 2.4-3 0-2.4-3.4-2.4-5.4v-3.5c0-4.4-.1-8.7-.1-13.1 0-1.6 0-3.3-.1-4.9 0-.8-.3-2.5.5-2.9 1.2-.7 3.9.3 3.9-1.8v-.9c0-1.8 0-3.5-.1-5.3 0-3.7-.1-7.4-.1-11.2 0-2.7 0-5.4-.1-8.1 0-1.9.3-3.9-1.9-4.8-1.7-.7-3.7-.9-5.5-.3-1.5.5-3 1.9-1.5 3.4.5.5 1.6 1.1 2.4 1.1-3 1.3-6.5 1.4-9.7 1-3.9-.5-7.1-1.9-10.4-3.9-2.8-1.6-5.6-3.6-8.9-4-4-.5-7.9.7-11.9.8C45.1 1 41 .1 36.8 0 33-.1 30 1.9 26.8 3.6c-3 1.6-5.6 3.4-9.1 4-3.8.6-7.5.4-11.2-.8 1.3-.2 2.6-.8 2.8-2.3.2-1.5-1.4-2.3-2.7-2.6-1.5-.3-4-.2-5.1 1-1 1-1 3-.9 4.4.3 2.6-.1 5.7-.1 8.4 0 3.4 0 6.8-.1 10.3v6.1c.1 1.8 1.4 1.9 2.7 2.2 1.4.3 1.6 1.4 1.6 2.5 0 1.5 0 2.9-.1 4.4 0 4.4-.1 8.8-.1 13.2 0 2.7-.1 5.3-.1 8 0 1.1-1.1 2.1-2.2 2.1-2.1 0-1.3-2.5.4-2.5.9 0 .1.7-.3.9-.3.1-.9.3-.7.7.6 1.2 2.3-.8 2.2-1.5-.2-1.8-3-.8-3.5.3-.3.5-.3 1-.3 1.4v3.6c0 4.4.1 8.7.1 13.1C.2 84 0 87.6.7 91c1.5 6.9 6.9 12.5 13.9 13.9 4.2.8 8.8.4 13.1.5 4.1.1 8.6-.3 12.6.9 3 .9 5.6 2.8 7.4 5.4.3.1 1.7.1 2 0 .6-.3 1.3-1.4 1.8-2 3.8-4.2 10.5-3.8 15.6-3.9 3.8 0 7.6-.1 11.5-.1 6.2 0 12-2.7 15.3-8.1 2.5-4 3.3-8.2 3.3-12.8.1-4.3.1-8.5.2-12.8 0-1.9.1-3.8.1-5.7-.1-.8.2-2-.1-2.7zM60.4.8c2.7 0 5.4 1.7 7.6 3 2.5 1.5 5.1 2.8 7.7 3.8 3.9 1.2 8.2 1.6 12.2.8 1.4-.3 3-.6 4.2-1.4 1.3-.8 1.4-3.4-.6-3.4-1.1 0 .2 1.4.3 1.6.2.9-1.5.7-2 .6-1.4-.4-2-1.8-.4-2.5 2-.7 8.6.4 5.6 3.7-2.4 2.6-6.9 2.6-10.2 2.6-4 0-8-.6-11.7-2-3.6-1.4-6.7-3.9-10.3-5.4-.9-.4-3.6-1.3-3.7.4 0 .6.7 1.3.9.4.1-.8.6-.8 1.4-.6 1 .3 1.2 1.4.4 2-.8.6-2 .5-2.9.1-.8-.3-1.5-1.1-1.3-2 .1-1.2 1.8-1.7 2.8-1.7zm-21.3.4c0-.2-.1-.3-.2-.4 3.1.5 6.3.7 9.5.7 1.9 0 3.9-.2 5.8-.3 1-.1 2.4 0 3.4-.4-1.1.8-1.9 2.8-.4 3.7-3-.5-6-.6-9.1-.6-3.3 0-6.7-.1-10 .5.8-1 1.6-1.8 1-3.2 0-.1.1.3 0 0zm-37 2.2c1.4-1.1 4.8-1.5 6 .2 1.4 2.3-4.5 2.1-2.7.6.7-.5.3-1.2-.5-.9-.5.2-.8.6-1.1 1-1 1.5 2.1 3 3 3.4 7 2.7 15.7 0 21.5-4.2C30.5 1.9 33.9.4 36.7.9c4.1.5-.7 5.3-2.7 3.5-1.1-1.1.6-2.6 1.8-2 .5.3-.3 1 .4 1 .9 0 .8-1.3.2-1.7-1.2-.9-3.5.5-4.5 1-1.3.7-2.5 1.4-3.8 2-1.7.9-3.2 1.9-5 2.6-1.8.7-3.6 1.2-5.5 1.5-3.8.7-8.2.9-12-.2-1.3-.4-2.5-1-3.4-2-.8-.7-1.2-2.3-.1-3.2.7-.5-.1.1 0 0zM96 70c0 3.4 0 6.8-.1 10.2 0 4.9 0 9.7-2.1 14.3-1.4 3-3.6 5.6-6.4 7.4-3 1.9-6.1 2.3-9.6 2.5-4.1.2-8.2.1-12.3.1-3.2 0-6.5 0-9.6.9-2.9.8-5.5 2.4-7.2 4.9-4.5-5.9-11.6-5.9-18.4-6-7.7-.1-17.1 1.1-23.2-4.7-7.2-6.9-5.8-17.5-6-26.6 0-1.8 0-3.5-.1-5.3 0-.8.2-1.7 0-2.4 5.6 1.2 4.5-6.3 4.6-9.7.1-2.9.1-5.8.1-8.6 0-3.7.1-7.3.1-11 0-2.2-1.7-2.4-3.4-2.8-1.7-.4-1.1-3.1-1.1-4.4 0-4.9.1-9.9.1-14.8v-3c0-1.2.2-2.7 0-3.8 3.7 3.7 9.9 3.1 14.7 2.7 3.1-.3 6-1.3 8.8-2.3C26.3 7 27.7 6 29 5.2c1.3-.8 2.8-1.4 3.9-2.3-.3.6-.1 1.6.4 2 1.1 1 2.8.7 4.1.5 3.5-.6 7.2-.7 10.7-.7 3.5 0 6.9.3 10.3.7 1.1.1 1.9.5 3.1.3 1-.2 2.2-1.1 2.1-2.2 2.7 1.3 5.5 2.8 8 4.2 3.6 1.7 7.6 2.4 11.5 2.6 3.9.2 10.2.7 12.9-2.7.1 5.6.1 11.1.2 16.7 0 2.1.1 4.3.1 6.4v1.5c0 1.6-.9 1.4-2.1 1.5-1 .1-2.5.4-2.5 1.7-.1.4 0 .9 0 1.3v5.8c0 3.4-.1 6.8-.1 10.3v10.1c.2 1.8 2.4 3.8 4.4 2.9.1 1.4.1 2.8 0 4.2z"/><path d="M86.7 45.6c-.3-2.3-1.6-4.7-4.1-5.1-1.1-.2-2.7-.1-3.2 1-.6 1 .4 2.4 1.5 2.2-.3.2-1 .2-1.2.4.1-.5-.8-1.8-1.4-1.1 0-.5-.2-.9-.6-1.1-.6-.3-.8.1-1.2-.4 0 0-1.4-1.3-1.6-.7-.3-.7-.7-2.1-1.8-1.7-.7.3-.8 1.2-1.5 1.5-1.9-.1-3.5 1.4-2.5 3.1-1 .4-1.3.1-2.2-.3.9-.1 1.7-1 1.6-1.9-.2-1.3-1.8-1.5-2.8-1.4-1.9.2-4.4 1.6-5 3.4-.7-.7-1.7-1.5-2.1-2.5-.2-.4 1.2-3.6.3-3.8 1.3 0 2.8.1 3.9-.7 1.1-.9 1.4-2.4.4-3.4-.4-.4-1.5-1.1-2.1-.6-.3.3-.1.9-.2 1.2-.6 1.5-3.3-.2-4.3-.1 2.2-.3 4.8-.8 5.2-3.3.1-.6.2-1.2.4-1.8.1-.4.4-.8.5-1.1.5-1.2-2.7-1.6-3.5-1.8-.8-.3-2.6-1-2.6-2.1 0-1-.1-1.1.7-1.7.5-.4 1-1 1.5-1.4.2-.2 1.4-.8 1.4-.9.2-.7-1.7-1.9-2.3-1.2.4-.5.2-1.3-.5-1.5.3-.7 0-1.5-.7-1.8-.6-.2-.3-.5-.9-.9-.2-.2-.8-.3-1-.1-.2-.5-.5-.9-1.1-.9-.8 0-.3.3-1-.1-.3-.1-1-.3-1.1.1 0-.7-.4-1.5-1.2-1.7-.5-.2-.6-.1-.5-.7h1c.1-.7-.3-.6-.9-.5-.2 0-.1-.6-.1-.8h-.7v.7h-1c-.1 1 .9.2.9.6.1.7 0 .4-.6.7-.5.3-1.2 1-.9 1.7-.4-.5-1.5-.2-1.6.4-.6-.5-1.6-.2-1.7.6-.5-.2-1.9.2-1.5 1-.8-.1-1.7.9-1.1 1.6-.6.2-1 1-.6 1.5-.9-.3-2 .4-2.3 1.2 0 .2-.2.3-.1.4 0 .1 1.3.4 1.5.5.2.1 2.1 1.6 2.1 1.6v1.3c-.5.1-1.3-.2-2.2-.2-1.1-.1-1.1.4-.9 1.4.3 1.2.8 2.5 2 3.1-1.4.2-3.1 1.1-3.4 2.6-.2.8-.2 1.7-.1 2.6-.2.8-.5 1.5-.5 2.4 0 1.1.1.3.1.5.2.6 0 .9-.1 1.5-.2.9-.1 1.6 0 2.5 0 .6-.2 1.3 0 1.9.2.7.4 1.4.3 2.1-1.5-1.3-3-2.6-4.4-4.1-.6-.6-1.4-1.3-1.9-2.1-.4-.9-.8-1.8-1.1-2.7-.1-.3-.6-1.2-.4-1.5.5-.5 1-.9 1.5-1.4.6-.5-.2-.9-.7-1.3-.6-.5-1.2-1.4-1.9-1.6 3.7-4.4 7.8-8.6 11.7-12.9 1.5-1.6 2.9-3.3 4.3-5 1-1.2 1.9-2.3 2.8-3.6.2-.3 1.3-1.5.8-1.8-.6-.4-1.9.6-2.4.9-1.2.9-2.3 2-3.3 2.9-1.1 1-2.2 1.9-3.2 2.9-2.4 2.3-4.7 4.9-7.3 7.1-1.1.9-2.2 2-3.3 3-.7.7-1.4 1.4-2.1 2-.3.3-1 .8-1.1 1.1-.5-.5-1-1.2-1.5-1.7-.4-.4-.9-1.5-1.4-1-.8.7-1.6 1.5-2.3 2.2.5.6 1.1 1.1 1.7 1.7-.5 0-1 .3-1.3.7-.1.1-.4 1.1-.4 1.1-1 0-2.5 1.5-1.6 2.4-.8-.1-1.7.6-1.5 1.5.1.4.2.8.4 1.2.3.5.5.4.3.9-.5 1 1.5 3.4 2.1 2.4.9 1 2 2 3.2 2.5.4.2 1.2.3 1.4.7.6 1 .7 2.3 1.3 3.4.5.8.5 2.1 1.1 2.8.2-.4.4-.7.5-1.1.4 1.4.8 2.9 2 3.7.2-.2.2-.7.1-.9.5.9.9 1.7 1.5 2.5.7 1.1.9 1.3 1.2.1 2 1.8 4.6 5.1 3.7 7.9-1.1 3.1-3.8 5.3-5.8 7.8-1.1 1.4-2.2 2.8-2.7 4.6-.3 1-.1 1.6-1.1 2.1-1 .4-2.1.7-3.1.1-2.7-2-.5-5.1.9-7.3 1.8-2.8 2.9-6.1.4-8.9 1.3-2.7 2.3-6.5.9-9.3-1.4-3.2-5-4.1-8.3-3.7-2.7.4-5.5 1.1-6.3 4-.3 1-.4 2.2-.3 3.2.1.6.2 1.2.2 1.8 0 .5-.2 1.5.5 1.3-.3 1 0 2 .8 2.6.6-1.9 2.8-1.9 4-3.3 1.5-1.7.7-3.3 1.3-5.3.7-2.2 3.9-1 4.9.3 1.3 1.7.3 4.5-.3 6.4-1.8-.7-3.9-.6-5.4.5l-4.2 3c-1.6 1.1-2 2.7-2.1 4.6-.1.5-.1 1-.1 1.5 0 1-.2 1.5.9 1-.6.9-.9 2.2-.6 3.2.2-.1.7-.4.7-.6 0 .6-.4 1.2-.1 1.8 1.2-1 3-.9 4.1-2.1 1-1 1.4-2.4 1.4-3.8 0-1.6-.3-3.1.2-4.6.5-1.5 2.3-1.8 3.6-1.4-1 2.7-2.5 5-3 8-.6 3.7-.3 7.9 3.1 10.3 1.7 1.2 3.8 1.3 5.7 1 .5-.1.9-.2 1.4-.4.8-.3.8.5.9 1.2.1 1-.1 2.1-.8 2.8-1.3 1.5-3.5 1-5.1 1.8-1.3.7-2.1 2.9-1.6 4.3.1-.1.3-.1.4-.2-.2.5-.3 1-.4 1.6 0 .2-.5 1.9.2 1.2-.2 1-.2 2.7.3 3.5.5-.4 1.1-.9 1.6-1.3-.2 1.6.3 3.4 1.8 4.2 1.8 1 4.1.9 5.9 2v-1.5c2.2.5 5.1-.7 6.4 1.8.2-.9.7-2.4-.2-3 .5-.5 1.2-.4 1.9-.3.7.2 1.4.8 1.5-.3.1-1.6-1.6-1.8-2.5-2.8.9-.5 2.1 0 3 .3.1-.9-.8-1.9-1.6-2.1-.4-.1-.9-.1-1.3-.1-.5-.4-1.1-.6-1.7-.8-1.2-.3-2-.1-2.9.6-.7.6-1.6 1.2-2.6 1.2-2.4 0-1.5-4.1.1-4.7 2.3-.9 5.2.6 7.3-.9 0 .2.1.3.1.5 1.5-.4 4.6-1.1 4.9-3 .2.1.3.3.4.6 1.1-.9 1.7-2.3 1.6-3.7.1.1.3.2.4.3.7-1 .5-2.6.3-3.8 3 .4 8.4 1.1 9.2 4.9.4 2-1.8 2.2-2.8 3.5-.6.7-.8 1.6-.8 2.5.1.4.1.9.6.4-.6.8-.9 1.9-.9 2.8 0 .2-.1 1.7.5.8.4 1.4.3 2.7.3 4.1.9-.2 1.7-.6 2.3-1.3-1.5 2.5 2.9 2.7 4.3 2.7 1.5 0 2.9 0 4.4.3 1.1.2 1.6 1.4 1.8 2.4.6-1.1 1.3-2.7.4-3.8 1 .2 2.2.5 3.3.1.4-.2.7-.6 1.2-.6.7 0 1.2.5 1.6 1 .6-.3.5-1.5.4-2-.1-.3-.3-.7-.6-.9-.3-.3-1.2-.1-1.3-.5 1.1-.5 1.9.2 2.6.9.2-1 .3-2.4-.8-3.1-1.2-.7-3-.3-4.3-.5.8-.5 1.7-.7 2.7-.4.4-.8-.4-1.8-1.2-2.1-1.2-.4-2 .3-3.1.3s-2 .4-2.9 1.1c-.5.4-.9.9-1.3 1.4-.4.3-.5.2-1.1.2-.7-.1-1.5.1-1.7-.8-.1-1.1-.3-2.2.3-3.1.6-.9 1.8-1.4 2.7-1.9.7-.5 1.9-1.3 2.1-2.1.1.3.2.8.5.8.5 0 1-.5 1.3-.9.5-.5.9-1.2 1.1-1.8.3-.8.1-1.7.4-2.4.1.2.7.3.9.5.6-1.7-.1-4-1.1-5.5-1-1.7-2.9-3.1-4.8-3.9-4-1.7-9-1.8-13.3-1.7.8-.6 1.8-1 2.7-1.6-.4-.6-1-1.1-1.7-1.1.6-.5 1.2-.9 1.8-1.4.4-.3.8-.7 1.3-1 .3-.2 1.1-1.2 1.5-1.2.7 0 2.4-2.1 2.8-2.7.3-.3.6-.5.8-.9.7.1 1.4 0 2.1-.3.6-.3 1.1-.8 1.3-1.4.2-.4.2-1 .5-1.3.5-.4 1.8 1.9 2 2.1 1.9 2.5 3.9 4.9 6.2 7.1 1 .9 2 1.9 3 2.7.5.4.4.5.9.1.7-.6 1.3-1.1 1.9-1.7 1.8-1.8 3.8-3.5 5.4-5.6 1.5-2 3-4 4-6.4 1-2.3 1.5-4.7 1.4-7.5zm-8-2c.5 0 .7 1 .1 1-.5 0-.7-1-.1-1zm-.8 1.4c-.2.1-.4.2-.7.2.2-.4.4-.6.7-.2zm-1-2.4c.7 0 1.1 1.1.2 1.1-.6.1-.8-1.1-.2-1.1zm-.3 1.9c-.3.2-.7.3-1 .4.3-.5.6-1 1-.4zm-2.6-.9s.1-.2.1-.3c.2 0 .4.1.5.3l-.6.3v-.3zm1.9-1c-.4.6-1.5.3-1.4-.4.1-.9 2-.5 1.4.4-.1.2.1-.1 0 0zm-4.7 1c.2-.1.4-.2.5-.4.2.3.2.7.3 1-.4 0-.8-.1-1.2-.2l.4-.4zm-.2-2.1c.1 0 .2.1.4.1 1.2.9-1.3 1.6-1.2 2.2-.1-.4-.5-.8-.5-1.3 0-.7.7-1 1.3-1zm-13-6.9c.8.2 1.7.4 2.6.3.5 0 1.2-.2 1.5-.7.1-.1.3-.8 0-.9 1.3.1.9 2.1.1 2.6-1.2.8-3.2.2-4.4-.3-1.1-.4-2.4-.7-3.6-.8-1.1-.1-3 .2-3.7 1.2-.5-3.3 5.7-1.8 7.5-1.4zm-6.5-1c1-1 2.5-.6 3.8-.3-1.1-.1-3.1-.2-4.1.6l.3-.3zm1 3.5c-.5.2-1.1 0-1.6-.2.8-.7 1.8-1 2.8-1-.4.3-.7 1.1-1.2 1.2-.2 0 .1-.1 0 0zm1.8-1.1c.2.3.5.6.7.9-.5.2-1 .1-1.6.2.4-.4.6-.7.9-1.1zm.7-.1c.3 0 .6.1.9.1-.1.2-.3.4-.4.5-.2-.2-.4-.4-.5-.6zm1.6.3c.2.3.4.5.6.8-.4.2-.9.1-1.3.1.1-.3.4-.6.7-.9zM50.9 13H50v-.8c.4 0 .7.4.9.8zm-.1.5c-.2 1.2-2.2 1.3-2.4.1.8 0 1.6-.1 2.4-.1zm-1.5-1.3c0 .9 0 .8-.9.9.1-.5.4-.9.9-.9zm-7.5 5.6c.2-.8.9-.2 1.1-.7-.7-.1-.6-1.2.1-1.3.4-.1.7.3.9 0 0-.1-.4-.5-.1-.9.2-.3.6-.2.9 0 .6.5.1.2.3-.3.2-.5.6-.6 1.1-.4.2.1.3.5.4.5.3.1.2-1.5 1.2-1 .9.5 1.1 1.6 2.5 1.4.9-.2 1.3-1.5 2.1-1.5.9 0 .3.7.7.8.2 0 .1-.3.2-.3.5-.4 1.2-.3 1.4.4.2.7-.2.5.3.2.6-.4 1.6.5 1 1 .3.4.4-.4 1 0 1.1.6-.1 1-.1 1.4 0 .2.6 0 .8.2.8.7-.4 1.6-.8 2.1-.6-2.5-2.3-3.7-4.8-3.7-.8 0-.9-.1-.9.7 0 .7 0 1.5.1 2.2-.3-1.1-2.1-1.4-2.3-.1v-1.8c0-1.1.2-1.2-1-1.2-2.4 0-4.4 1.2-4.8 3.7-.8-.2-1.5-.8-1.3-1.4.1-.2-.1.3 0 0zm11.5 1.6c-.1.7.7 1.2 1.3 1.5-.9.3-1.9.1-2.9 0 .7-.7 1.6-1.3.6-2.1-.1-.1-1-.4-1-.3v-1.1-1.1c0-.2 1.2-.1 1.3 0 1.5.2 2.3 1.1 2.7 2.5-.6 0-1.3.2-2 .6 0 .1.5-.3 0 0zm-7.4.2c-.5.3.6 1.2.9 1.3-.8.4-1.9.2-2.7 0 1.6-.7 1.2-2.7-.5-1.9.1-.9.6-1.7 1.3-2.2.9-.6 1.8-.3 2.7-.5 0 .6.1 1.2.1 1.8.1.6-1.3.9-1.8 1.5zm-3.4 1.6c-.1-.3 0-.6-.3-.8-.5.1-.5.4-.9 0-.2-.3-1-1-1.4-.9.8-1.1 1.8-.1 2.3.5.6.7 1.6-1.5 2.4-.4-.1.4-.5.6-.9.7-.1 0-.7.1-.8.2-.1.4.1.8.6 1 1.2.3 5.3.9 5.1-1.3-.4 0-.7.3-1.2.3-.6 0-1.1-.7-.5-1 .8-.5 1.7.8 2.2.3-.3-.4-.2-1.9.6-1.2.5.4.2 1-.1 1.3.9.3 1.6-1.3 2.5-.1-.1.4-.4.6-.7.7-.4.2-.9-.3-1.2-.2-.3 2.2 5.8 2.4 5.8.5-.1-.3-2.3-.2-2-1 .6-.7 2 0 2.2.8.5-.7 1.9-2.1 2.8-1.1-.4.1-.9.6-1.2.9-.2.2-.2.7-.5.7-.5-.1-.6-.3-.8.2-.7 1.5-2.9 1-4.3 1h-5.7c-.9-.3-3.5.2-4-1.1-.1-.1.3.7 0 0zm.7 1.3h12.5c-.3.2-.5.4-.8.7.3.2.6.5.9.7-4.2 0-8.3-.1-12.5-.1.4-.6.7-1-.1-1.3zm-2.5 3.1c-.2-.5-.5-1.1-.7-1.6 1.1.3 2.3.7 3.4 1 .6.2.6-.7 1-.7h1c2.9 0 5.9.1 8.8.1 1 0 1.7-.2 2.5.7.9 1 1.7 1.2 3 1.6.9.3 2.9.5 1.6 1.7-.4.4-1.3-.2-1.6.1-.5 1.1 1 .8 1.4.8.2 4.4-5.6 3.1-8.2 2.6-2.3 0-4.4 1.8-3.9 4.3.3 1.3 1.8 2.1 3 1.6 1.1-.4 2.6-.3 3.8-.1.8.1 1.8-.8 2.2 0 .2.5 0 1.5-.3 2-.5.5-1.1.3-1.7.5.5-.3 1-1.3.1-1.3-1.1.8-1.9 1.6-3.3 1.3.2-.1.5-.4.4-.7 0-.9-.9.1-1.1.2-.6.4-1.3.5-2.1.4-.7-.1-1-.5-1.6-.8-.1 2 2.2 2.2 3.7 1.7.2 0 .5.3.7.3.6.2 1.2.1 1.8 0 .5-.2.5-.3 1.1-.2.5.1 1.2.2 1.6 0-.1 1.7 1.9 2.4 2.6 3.7.4.7.4 1.7.3 2.5 0 .4-.1.8-.3 1.2-.2.6-.8 1-1 1.4-.2-.4.2-.9-.1-1.3-.3.6-.7 1.2-1.3 1.6 1-2.5-1.2-4.1-1.2-6.5-1.6.2 0 3.4.1 4 .4 1.6-.2 3-1.9 3.4.1-.2.7-1.2.3-1.4-.5.8-1 1.3-2 1.5.8-1.1.6-2.3.3-3.5-.2-.8-.4-1.6-.2-2.4.1-.7.6-.7.8-1.2-.7-.9-1.6.7-1.7 1.2-.1.6-.1 1.2-.1 1.7 0 .7.1 1.5.1 2.2 0 .4-.1.9-.3 1.3-.2.3-.9.4-1.1.6.1-.5.3-.9.2-1.4-.4.2-.7.7-1 1-.5.4-.8.3-1.4.5 1.2-1 1-2.6.9-4-.1-.8-.1-1.6.3-2.3.3-.6.8-1.3-.3-.7-3.1 1.6.9 6.1-3.1 6.9.2-.3.3-.8.3-1.2-.3.1-.6.5-.9.7-.5.3-.8.2-1.3.2 1.4-.5 1.7-2 1.6-3.2 0-.5-.1-1.2 0-1.7 0-.3.8-1.9.8-1.9-2 0-1.9 2.5-2 3.8-.2 1.7-1 2.3-2.6 2.5.1-.2.5-.5.4-.8-.6.2-1.5.3-2.1-.1 1.7 0 1.9-2.3 1.7-3.5 0-.6.2-1.4.6-2-.1.2.8-.6.3-.2.4-.4.1-.8-.4-.6-1 .4-1.2 2.1-1.5 2.9-.2.8-.3 1.7-.9 2.2-.7.7-2 .6-2.9.2 1.7-.1 2.2-2.9 2-4.2-1 .9-.7 4-2.7 3.6-.4-.1-.6-.4-.8-.7 1.5.4 2.4-1.7 2-2.9-.2-1 .1-2.1 1.2-2.6 1.5-.7 3.6-.3 4.7-1.8.8-.9.9-2.2 1-3.5.1-2.8.1-5.6 0-8.5.9.4 1.9.1 2.8.3 1 .2 1.7 1 2.7 1.2 1.1.2 4.7-.3 3.6-2.2.9 0 2.9-.1 2.2-1.4-.5-.7-2-1.4-2.7-.6.7.4 1.4.2 1.9 1-1.3.8-2.6-.3-3.9-.2-1.2.9-2.7 1.5-4.3 1.5-.7 0-1.4-.1-2-.4-.7-.3-.8-.8-1.5-.2-.6.9-2-.1-2.8-1.2zm11.2 29.8c.5 2.2-.3 4-2.5 4.6.5-.3.6-.9.9-1.3 0 0 0-.1-.1-.1-.5.7-1.2 1.2-2.1 1.1 1.5-1 1.6-2.8 1.6-4.4 0-.8-.1-1.7.1-2.5.1-.8.2-.7.9-.5.5.1 1.1.1 1.4-.3-.4 1-.3 2.2-.2 3.4zm-3-3.6c-1.3 2.6 1 6.7-3.1 7.3.4-.3 1.1-.7 1.1-1.3-.7.8-1.4.8-2.3.9.6-.3 1.2-.4 1.4-1.2.4-1.3.1-2.6 0-4 0-.6-.1-1.3.1-1.9.1-.1.6 0 .8 0 .7-.1.8-.3 1.4 0 .2.1.4.1.6.2zm-7.3 5.4c-.4 0-.8-.2-1.1-.4 3.1.5 2.2-4.3 2-5.9.7 0 1.2-.1 1.8.3.1.1.8.2.8.3.1.4-.1 1.1-.1 1.6 0 1.2.5 2.9-.1 4-.4.8-2.1 1.1-2.9.6.4-.2.8-.5 1-.9-.5.2-.9.4-1.4.4zM40 55.6c.4-.2.6-.6.5-1-.3.1-.9.3-1.1.4.9-.5.6-1.4.4-2.2-.3-1.1-.4-2-.2-3.1.3.4.7.7 1.2.8.4.1.7-.1.7.4 0 .4 0 .8.1 1.1.1 1 .4 2.2 0 3.1-.4.7-1.6.6-1.6.5zm1.3-22.4c-1.1.2-2.4.5-2.8 1.6-.4-1.3.8-2.6 1.9-3.1.8-.4 1.7-.6 2.6-.9.4-.1 1-.2 1.2-.4-.3.7-.9.9-1.6 1.2.3.2 1.4.3 1.7-.1-.7 1.1-1.9 1.5-3 1.7-.4.1 1.1-.2 0 0zm10.6-5.6c-.1.2-.1.6.2.8-.7 0-1.5-.1-2.1-.5.6-.4 1.9-1.6 2.5-1.2-.5.2-.6.5-.6.9zm-12.6 2.1c1.1-1.7 3.3-.6 4.8-1.6-.3.8-1.3.5-1.8 1.1.6.2 1.4 0 2 0-1.4 1.4-4.5.4-5.5 2.4-.4-.7 0-1.4.5-1.9.6-1-.3.3 0 0zm-.5 5.9c.5-.9 1.4-1.5 2.4-1.7.8-.1 2.1-.1 2.8-.6-.3.8-1.4.8-1.8 1.5.4.1 1.7.2 2.1-.1-.6 1.4-2 1.6-3.3 1.8-.6.1-1.3.3-1.8.7-.2.2-.6.7-.9.7-.1-.6 0-1.7.5-2.3zm-.4 4c.9-2.6 3.8-1.9 5.6-3.3-.1 1.2-1.4 1.1-2.1 1.8.4.2 1.4.3 1.8 0 .1 2.4-4.5 1.6-5.5 3 0-.5 0-1.1.2-1.5zM24.2 27.5c-1-.6-1.8-1.7-2.7-2.4.6-.5 1.2-1.6 1.8-.9.8 1 1.5 1.9 2.4 2.9 3.4-3.7 7.1-7 10.6-10.5l5.1-4.8c.9-.8 1.9-1.7 2.8-2.4.8-.7 2.1-2.4 3.1-2.7-3.5 4.4-7.6 8.6-11.4 12.8-1.8 2-3.6 3.9-5.5 5.9-.5.5-1.5 2.2-2.1 2.2-.2 0-1.2 1.3-1.1 1.3.5.5 1 1 1.6 1.4.4.4.9 1.1 1.4 1.2-.3.2-1 .7-1.1 1.1-.8-2.2-2.8-4.1-4.9-5.1zm-2 6.3c-.3.4-.7.7-1 1.1-.1-.4 0-1.4-.3-1.7.4.2.8.5 1.3.6zm-2 .2c.1.3.2.7.1 1-.3 0-.6-.2-1-.3.4-.1.7-.4.9-.7.1.2-.1.2 0 0zm1.4-5.7c.4-1.3 1.6.7 1.4 1.5-.3 1.4-1.7-.6-1.4-1.5.1-.3-.2.6 0 0zm.3 3.5c.2.3.3.8.3 1.2-.4-.1-.9-.2-1.2-.5.5-.1.8-.3.9-.7.2.4-.1.5 0 0zm1.2 1.3c-.1-.3-.1-.7-.1-1 .3.1.6.2.8.3.2.1.3-1.5.4-1.6v1.1c.1.6-.6.8-1.1 1.2 0-.3.4-.3 0 0zm.5-1.6c-.4-.1-.7-.3-1-.4.1 0 .8-.4.8-.6.1.3.2.6.2 1-.3-.1 0-.2 0 0zm.9-1.6c0-.4-.1-.8-.3-1.1.4.1.7.3 1.1.4-.3 0-.7.3-.8.7 0-.4.1-.4 0 0zm-4.2-.2c1 0 1.7 1.8.5 2.2-1 .4-2-1.9-.5-2.2.5 0-.5.1 0 0zm-2 3.6c-.4-1 .3-1.9 1.1-.8 1 1.2-.5 2-1.1.8zm1.2 3.2c-.3-.2-1.3-1-.5-1.2.2-.1.9.3 1 .4.3 0-.3.6-.5.8zm-.3 20.3c-3.1 0-3.8 2.8-3.7 5.3.1 1.5.1 3-.6 4.3-.3.5-.7 1-1.2 1.4-.4.3-1.8.3-1.9.6.7-1 2.6-2 1.7-3.5-.3 1.1-1.3 1.8-2.1 2.5-.1-1.4 3.3-4.5 1.4-5.7-.2.5-.3 1.1-.5 1.6-.2.6-.9 1-1.1 1.5-.3-1.1-.1-2.6.2-3.7.4-1.4 1.6-2 2.7-2.7 1.4-.8 2.7-2.2 4.2-2.8 1-.3 2.3 0 3.2.4-.2.4-.5.8-.6 1.2-.6-.2-1.1-.4-1.7-.4zm9.7 39.7c.1-.1.4-.6.3-.8.7.4.5 1 .9 1.5-.4-.2-.8-.5-1.2-.7.2-.3.5.2 0 0zm7.3 0c-.8-.6-.8-.2-.9-1.2 1 .1 1.1.9 1.4 1.7-.1-.2-.3-.3-.5-.5zm2.3-1.9c.2-.2.3-.4.4-.7.5.1.8.5.8 1l-1.2-.3zm1.5-3.1c-.4-.4-1.3.2-1.6-.3-.2-.3.1-.5.4-.5.5.1.9.5 1.2.8-.1-.1-.4-.5 0 0zm4.9-12.8c0-.1 0-.1 0 0zM64.7 98c0-.4-.4-.8-.7-.9.2-.2.4-.3.7-.5.2.4.1 1 0 1.4-.1-.3.1-.4 0 0zm5.9-3c-.4-.2-.8-.4-.4-.8.4.1.7.5.7 1-.1-.1-.2-.2-.3-.2-.2-.1.1 0 0 0zm1-2.7c-.5-.1-1.2-.2-1.7 0 .3-.3.4-.6.2-1 .6.1 1.4.3 1.5 1-.2-.1-.1-.8 0 0zM68 88.5c.3 0 .7.1.8.4-.5.1-1.2.2-1.5.5-.1-.7-.3-.9.7-.9zM49.9 69.2c6.5 0 15.6.3 17.1 8.3-.9-.7-1.7-1.5-2.6-2.1-.1.9.9 2.4 1.2 3.3.3 1.2.1 2.5-.9 3.5 0-1.3-.5-2.8-1.8-3.4.4 1.7.8 3.7-.8 4.8-1 .7-2.7 1.2-3.5 2.2-.4.6-.6 1.3-.8 1.9-.3 2.2.1 4.7 2.8 4.4 1.2-.1 1.5-.7 2.2-1.4.5-.5 1.1-.9 1.8-1.2.5-.2 1.2-.1 1.7-.3.3 1.3-2.3 1.6-2.2 2.8 1.7 1.1 3.4-1.2 5.2-.2-1.1 1.7-3.4 1-4.9 1.9.5.5 1.3.7 2.1.6l1.8-.3c.7-.1.6.3 1.1.5-.7 0-1.2.4-1.8.7-.7.4-1.1.2-1.8 0-1.5-.5-3.4-1.2-4.7 0 .8 1 2.8-.2 3.1 1.4-1.2-.4-3.1-.5-4.4-.4-1.3.1-3 .2-4.1-.8-.6-.6-.2-3.1-.1-3.9-1.2-.1-1.5 2.4-2.6 2.8-.1-1.3-.3-2.3.7-3.3.2-.2 1.4-1.2 1-1.5-.5 0-.9.4-1.4.6-.3.1-.7.1-1 .2.1-.5.1-1 .4-1.4.3-.5.7-.5 1.1-.9.8-.5 1.5-1.1 1.7-2.1-.5-.7-2.5.9-2.8 1.1-.2-1.8 1.3-2.1 2.5-2.8 1.2-.8 1.2-2.5.8-3.8-1-3-4.5-4.4-7.4-4.8-.9-.1-2.9.1-3.4-.6-.4-.6-.8-1.2-1.2-1.7-.1-.2-.7-.8-.7-1 .5-.6 1.1-1.2 1.7-1.8 1.4-1.4 2.9-1.3 4.9-1.3zm-3.5-1.6c1-.4 1.8-.9 2.8-1.1-1.6 1.2-3.5 1.9-5 3.4.7-.8 1.4-1.6 2.2-2.3zm2.6-3.3c-2.4 1.8-4.8 3.6-6.3 6.2-.3-.4-.1-2.6-.6-2.2-1 .8-1 2.5-.5 3.5.5 1.2 1.5 2.1 2.3 3.1 1 1.2 1.3 2.2 1.2 3.6-.5-.8-1.8-1.9-2.8-1.5 1 1.5 2.6 2.4 1.8 4.5-.3-.8-.8-1.6-1.6-2-.2-.1-.9-.5-1.1-.2-.1.2.5.8.6 1.1 1.1 2-.4 3.7-2.4 4.2.5-.9 1.2-3-.4-3.4.6 3.5-3.1 3.9-5.6 3.9-1.2 0-2.5 0-3.7.4-1.5.5-1.6 2.5-1.6 3.8 0 .9-.1 1.7.8 2.3 1.1.7 2.1.6 3.3.2.8-.3 1.3-1 1.9-1.3 1.1-.8 2.3-.1 3.3.6-.7.2-1 .8-1.8.8-.9 0-1.8.1-2.6.5.3 1.3 2.9.3 3.8.6.4.1 1.3.8.8 1.2-.6.5-1.4.3-2.1.1-1-.2-2.9-1.1-3.3.3.9-.3 2.1.2 2.3 1.1-.8-.2-1.6 0-2.4 0-.8 0-1.4-.4-2.1-.8-.7-.4-1.7-.1-2.5-.3-.3.5 1.1.9.8 1.4-1.4-.2-3.5-.8-4-2.3-.5-1.4.5-3-.1-4.4-.8.7-1.5 1.4-2.2 2.1-.6-1.8 2.9-3.1 1.8-4.6-.3.3-.5.7-.7 1-.2.3-.4.5-.7.7-.1.1-.7.1-.8.2 0-.8.2-1.6 1-2 .6-.3 1.9-1 1.2-1.9-.6.3-1.1.7-1.7.8-.2-3.3 4.4-2.6 6.3-4 1.5-1.1 1.7-2.7 1.3-4.3-.3-1.4-.4-2.5-1.9-2-1.7.5-3.7 1.3-5.5.6-1.4-.5-2.5-1.8-3.3-3-1.7-3-1.1-6.7 0-9.8 1.5-4.2 8.3-12.8 2.6-16.4-2.7-1.7-5.6-.5-5.8 2.6-.2 1.5 0 2.7-.7 3.7-.8 1.3-2.6.9-3.3 2.4-.7-1.4 1-2.4 1.8-3.2.7-.8.6-1.6.4-2.7-.5.3-.9 1.4-1.3 2-.4.4-.9.5-1.2 1.1-.7-1.6.4-2 1.2-3.1.4-.4 1.6-1.9.5-2.3-.3.8-1 1.9-1.8 2.2-.6-4.8 7.5-5.5 10.5-3.9 5.2 2.7 2.3 9 .6 12.9-.9 1.8-2 3.6-2.6 5.6-.3 1.1-.7 2.2-.6 3.5 0 .8.1 1.5.6.4.9-1.8 2.7-3.2 3.4-5.3.3-.9.4-1.8.2-2.8-.3-1.2-.1-1.2.3-2.3 2.1 1.7 1.1 5 0 7-1 1.8-2.6 3.4-2.9 5.5-.4 2.7 1.4 4.8 4.2 4.6.9-.1 2.9-.6 3-1.6.2-1.4.8-2.8 1.5-4 2.2-3.7 6.7-6.5 7.6-10.9.6-3-2.1-5.1-3.6-7.2-.7-1-.8-1.5-.9-2.7 0-.4-.4-1-.7-.3-.2.5-.2 1.2-.2 1.7-1.4-.8-1.5-2.6-1.4-3.9.2-3-1.5 1.6-1.1 1.6-.9 0-1.1-3.2-1.2-3.7 0-.4-.2-2.2-.7-.9 0 0-.2 1.4-.3 1.4-.8 0-1.4-3.9-1.9-4.5-.4-.5-1.1-.6-1.8-.9-1-.5-1.7-1.3-2.5-1.9.5-.5 2.8-3.5 3.4-3.2.5.5.4 2.3 1.9 1.7.5-.4-1.3-2.9-1.4-3.6-.1-1.2.5-2.3 1.6-1.1.8 1 1.5 2.2 2 3.5.5 1.3.8 3.1 1.6 4.1 1 1.2 2 2.3 3.2 3.4l3.3 3c.3.3 1.3 1.3.1 1.3-.5 0-.5-.7-.9-.8-.3.8-.3 1.7 0 2.6.2.5.5 1 .9 1.3.3.2 1.7 1.1 2 .6-.2.6-.2 1.4-.2 2 .1.6 1.1 3.5-.5 2.2-.4.7.1 1.4.6 1.9.6.6.9.9 1.4 1.6.4.7 1.2 1.2 2 1.4.6.2 1.3 0 1.8.4.7.6 1.7.8 2.6.8.6 0 .6-.1 1 .3s1 .6 1.5.7c1.4.3 3.2.2 4.6-.2-1.4 1.2-3 2.4-4.6 3.6zm-26.3-2.7c-.4.8-.7 1.8-1.2 2.6-.3.6-1 1.1-1.2 1.8.5-2.1 1.6-3.9 2.4-5.9.1.5.1 1 0 1.5zm31-1.6c-.1.1-.3.1-.4.2.6-.6 1.2-1.6 1-2.5-.6 1.2-1.4 2.4-3 2.4 3-1.8 1.7-5.3 1.5-8.2.9.1 2 .3 2.8-.2-.7 2.3 1.4 7.7-1.9 8.3zm6.2-3.8c-.4.1-.8 0-1.1.1.2.4.7.5 1.1.4-2.5 2.1-4.1-1.7-3.5-3.7.1-.4.3-1.1.6-1.4.5-.5 2-.9 2.8-1.1 0 1.3-1.2 2-1.3 3.3-.1 1.4 1.2 2.1 2.4 1.3-.2.5-.5.9-1 1.1-.1 0 .3-.1 0 0zm.8-2.1c-.8.5-2 .8-1.3-.7.4-.9 1.3-1.7 1.1-2.7.2.5.4 1.1.6 1.6.1.3.3.6.4 1 .2.4-.5.5-.8.8zm23.7-1.4c-1.8 4.4-5 7.9-8.4 11.1-.8.7-1.6 1.3-2.5 2-.7-.6-1.3-1.1-1.9-1.6-1.9-1.6-3.5-3.3-5.1-5.2-2.6-3.1-4.8-6.8-5.2-10.9-.1-1.5.1-3.2.8-4.5 1.1-1.9 3.4-3 5.4-2 .3.4 0 .9-.4 1.1-.8.4-.7-.7-1.1-.7-.8.8.9 2.4 1.5 2.7.8.3 1.7 0 2.3-.4.9.3 1.8.6 2.7.8-.1-1.6-.3-3.3.8-4.6 1 .8.2 3.4.1 4.5.8-.4 1.4-1.2 2.3-1.3-.3.6-.9 1-.9 1.8.5.1 1.2-.1 1.7-.3 0 1.1 3.3.1 3.8-.1 1.1-.4 3.1-1.4 2-2.8-.6.2-.2.9-1.1.9-.6-.1-1.1-.4-.9-1 .3-.9 2-.7 2.6-.4 1.9.7 2.6 3.2 2.7 4.9.1 2-.4 4.1-1.2 6-.4.9.2-.4 0 0z"/><path d="M77.7 54.4c-.4 0-1 .2-1.1.7-.1.5-.5.4-.7.8-.2.5.3.8.3 1.1.1.3-.7.8-.9.8-.3 0-1.2-.6-1-.9.1-.2.8-.1 1.1-.5.2-.3.6-1 .2-1.3-.3-.1-.5-.1-.7-.1-.6 0-.3 0-.7-.4-.6-.8-1.9-.7-2 .5-1.5-.4-1.4 1.6-.4 1.7 1.5.3-.3 1.2-.6.9-.2-.2-.6-.4-.6-.7.3-.4.5-1 .1-1.3-.5-.4-.3-.3-.6-.7-.2-.2-1-.7-1.3-.4-.3.4.4 2.9.5 3.5.1.8 0 2 .9 2h6.6c.6 0 .6-2 .6-2.5.2-.6.9-3.2.3-3.2zm-.6 2.6l-.3 1.8c-.1.7 0 .7-.7.7h-5.7c-.5 0-.4-.9-.5-1.3-.2-1.1-.4-2.1-.6-3.2.3.1.4.2.4.5 0 .4.3.3.6.5.4.2-.5 1-.2 1.4.6.6 1.4 1.3 2.2.6.2-.2.8-.8.8-1.1.2-.7-1.1-.6-1.4-1.1-.3-.5.4-.3.6-.2 1 .4.4-.3.4-.5.1-.3.5-.8.8-.5.6.5.1.4.1.8 0 .7 1 0 1.3.1.3.1-.5.8-.7.8-.5 0-.7.3-.6.8 0 .3.5.8.8 1 .8.7 1.6.1 2.2-.6.3-.4-.6-1.1-.1-1.4.3-.2.6-.1.6-.5 0-.3.1-.4.4-.5-.2.5-.2 1.4-.4 1.9zm-5.2-4.6c.3-1.3.5-2.5.6-3.8.1-.7.7-2.1-.5-1.6-.5.2-.5.5-.7.9-.2.4-.8.2-.7.9.1.8.5.8-.3 1.4-.4.2-1.5-.4-1.3-.8.1-.2.7 0 .9-.2.2-.2.8-1.1.5-1.4-.3-.6-.9 0-1.2-.5-.2-.4-.6-.9-1.1-.9-.4 0-.6.3-.8.6-.1.2-.2.3-.2.5-.3-.1-.7-.1-1 .1-.4.3-.1.9.1 1.2.3.4 1 .3 1.1.5.3.6-2.4 1.5-1.7-.3.2-.6-.1-.6-.3-1-.4-.2-.2-.6-.6-.8-1.3-.9-1 .4-.9 1.2.2 1.2.3 2.5.6 3.7.2.7.4.5 1.1.5h2.7c1.2-.2 2.7 0 3.7-.2zm-6.9-.5c-.3-1.4-.3-3.1-.8-4.4.6.1.2.8.7.9.6.1.3.5.1.9-.2.5.3.9.7 1.2.8.6 3-.6 2.3-1.5-.1-.2-1.8-.4-1.4-1 .1-.4 1.1.3 1.3.1.4-.2-.5-1.1.5-1.2.3 0 .5.3.6.5.1.2-.2.1-.2.3 0 .7 1.1-.1 1.4.2-.3.9-1 .3-1.5.9-.7 1 1.4 2.1 2.3 1.5.2-.2.7-.5.7-.9 0-.3-.6-.9-.2-1.1.4-.2.3-.2.6-.4.2-.2-.1-.4.4-.6 0 .4-.6 4.4-.8 4.4-2.4.2-4.6.2-6.7.2zm18-5.1c-.5 0-1.1.3-1.2.8-.1.4-.6.3-.7.7-.2.8.7 1-.1 1.5-.4.3-1.8 0-1.5-.7.1-.2.7 0 .9-.2.2-.2.8-1.1.5-1.4-.3-.6-.9 0-1.2-.5-.2-.4-.6-.9-1.1-.9-.4 0-.6.3-.8.6-.1.2-.2.3-.2.5-.3-.1-.7-.1-1 .1-.4.3-.1.9.1 1.2.3.4 1 .3 1.1.5.3.6-1.1 1-1.5.7-.8-.6.4-1.1-.3-1.8-.3-.3-.5-.1-.6-.6-.1-.4-1.5-1-1.4-.4.2 1.3.4 2.6.7 3.9.2 1.3 0 1.4 1.2 1.4H82c.7 0 .7-2.3.8-2.9.2-.2.7-2.5.2-2.5zm-7.5 5.1c-.3-1.4-.3-3.1-.8-4.4.5.1.2.4.4.5 0 .4.7.2.7.6 0 .4-.6.8-.3 1.2.9 1.1 2 1.2 2.8-.1.6-1-.9-.9-1.3-1.7.1-.4.8 0 1.1 0 .6 0-.3-1.2.6-1.2.4 0 .7.5.4.7-.6.5 1.4.4 1.4.4-.3.9-1 .3-1.5.9-.7 1 1.4 2.1 2.3 1.5.2-.2.7-.5.7-.9 0-.3-.6-.9-.2-1.1.4-.2.3-.2.6-.4.2-.2-.1-.4.4-.6 0 .4-.6 4.4-.8 4.4-2.3.2-4.4.2-6.5.2z"/></g><path d="M138.1 172.696c-9.9 0-17.2-5.6-17.2-16 .1-11.4 8.7-16.4 19-16.4 2.7 0 5 .3 7.6 1.1l-.7 7.1h-1.6c-.8-4-2.7-5.3-6.9-5.3-7.4-.1-11.2 5.8-11.2 12.8 0 8.2 4 13.7 12.6 13.7 1.2 0 2.5-.2 3.7-.4v-11.1h5.6c-.2 1.5-.3 3.1-.3 4.6 0 2.6.1 5.4.3 8-3.6 1.3-7.2 1.9-10.9 1.9zm33.7-12.1c0 3.9-1.2 9.4-6.1 9.4-4.9 0-6.2-5.7-6.2-9.6 0-3.9 1.2-9.4 6.1-9.4 4.9 0 6.2 5.7 6.2 9.6zm1.1-19.6c0-1.6-.8-2.9-2.6-2.9s-2.6 1.3-2.6 3c0 1.6.7 3 2.5 3 1.9 0 2.7-1.3 2.7-3.1zm-8.7 0c0-1.6-.8-2.9-2.6-2.9s-2.6 1.3-2.6 3c0 1.6.8 3 2.5 3 1.9 0 2.7-1.3 2.7-3.1zm13.1 18.9c0-6.8-4.2-11.6-11.1-11.6-7.6 0-12.1 5.4-12.1 12.7 0 6.7 4.2 11.6 11.1 11.6 7.5 0 12.1-5.4 12.1-12.7zm17.5 11.5c-1.2.7-3.9 1.2-5.3 1.2-4.3 0-6.4-2.5-6.4-6.7 0-4.6.2-9.2.3-13.8l-4.3-.7v-1.4l4.3-.9v-6.2l5-.9-.1 7.1h6.2v2.9h-6.2c0 4-.1 8-.1 12 0 2.9.5 5.8 3.9 5.8.7 0 2.2-.3 2.8-.5 0 .8 0 1.2-.1 2.1zm18.5-14.3l-10.1.3c.3-3.2 1.5-6.5 5.3-6.5 3.6.1 4.8 3.1 4.8 6.2zm5.4.5c0-6.2-3.3-9.2-9.9-9.2-7.2 0-11.2 5.3-11.2 12 0 7.4 4.5 12.1 12.1 12.1 2.7 0 5.7-.5 8.1-2l.4-2.9c-2 1.1-4.7 1.8-7 1.8-6.2 0-8.2-4.3-8.2-9.7l15.5.2c.1-.7.2-1.5.2-2.3zm21.9 3.1c0 3.9-1.4 9.4-6.2 9.4-4.6 0-4.2-4.8-4.2-8 0-3.3-.1-7.6 0-7.9 1.1-1 3.1-1.8 4.7-1.8 4.6-.1 5.7 4.5 5.7 8.3zm5.5-1.4c0-5.9-2.8-11-9.3-11-3.1 0-4.8 1.1-6.7 3.6l.1-14.5c-.6 0-1.2-.1-1.8-.1-2.3 0-4.7.2-6.9.7v1.5c2.5.1 3.4.5 3.8 3 .4 2.6.3 5.8.3 8 0 6.7-.3 13.5-.5 20.2 1.5.9 4.1 1.9 8.5 1.9 7.8 0 12.5-5.6 12.5-13.3zm21.2 1.3c0 3.9-1.2 9.4-6.1 9.4-4.9 0-6.2-5.7-6.2-9.6 0-3.9 1.2-9.4 6.1-9.4 4.9 0 6.2 5.7 6.2 9.6zm5.6-.7c0-6.7-4.3-11.5-11.2-11.5-7.6 0-12.2 5.4-12.2 12.7 0 6.7 4.3 11.6 11.2 11.6 7.5-.1 12.2-5.5 12.2-12.8zm19.6-5.4h-1.3c-.6-1.3-1.3-1.8-2.7-1.8-1.9 0-3.2 1.3-4.2 2.7v16.8h-5.5c.4-5 .6-10.1.6-15.1 0-3.3.4-6-3.8-6.2v-1.4c2.3-.7 5-.8 7.3-.8h1.2l.1 4c1.3-3.1 4-4.3 7.2-4.3.5 0 1 0 1.5.2zm16.2 1.9c0 2.4-1.1 5.2-3.9 5.2-3 0-4-3.7-4-6.2 0-2.4 1.1-5.4 3.9-5.4 3 .1 4 4.1 4 6.4zm8.2 18.6c0-2.3-.9-4.1-2.4-5.1-3.9-2.8-13.1.2-13.1-3.7 0-1 .4-1.9 1.1-2.5 5.5.7 11.5-1.7 11.5-8.1 0-1.1-.2-2.1-.6-3.1h3v-3H311c-1.9-1.3-3.7-1.7-5.9-1.7-5.2 0-9.6 2.7-9.6 8.3 0 3.6 1.7 5.9 5.1 7-1.6 1.2-2.2 2.7-2.2 4.3 0 1.6.6 3.1 2.1 3.8-3.1.4-5.7 1.5-5.7 5 0 5.5 6.5 6.9 10.8 6.9 5.2 0 11.3-1.9 11.3-8.1zm-5.2 1.1c0 3.3-3 4.6-5.9 4.6-2.7 0-5.6-1.3-5.6-4.4 0-3.3 2.9-4 5.7-4 2.5.2 5.8.5 5.8 3.8zm14.3-3.5c-2.6 0-4.9-.4-7.3-1.7l.6-4.6c1.8 1.9 4 3.6 6.8 3.6 2 0 3.9-1.1 3.9-3.3 0-2.6-2.2-3.5-4.7-4.4-3-1.1-6.5-2.3-6.5-6.8 0-5.5 4.9-7.2 9.5-7.2 2.1 0 4.2.3 6.2 1.2l-.6 5.5h-1.6c-.4-2.4-1.6-4-4.3-4-1.9 0-3.8 1.2-3.8 3.3 0 2.5 2.3 3.3 4.9 4.2 3.1 1 6.5 2.2 6.5 6.8.1 5.5-4.8 7.4-9.6 7.4zm-195.8 46.5c-3.2 0-6.3-.6-9-2.4l1-5c2.2 2.9 4.4 4.5 8.1 4.5 3.2 0 5.6-1.8 5.6-5.1 0-4-3.3-5-6.7-6.2-3.8-1.3-7.8-2.7-7.8-8.6 0-6.6 6-9.5 11.8-9.5 2.4 0 5.1.1 7.1 1.4l-.7 6.6h-1.5c-.1-.4-.1-.7-.2-1-.6-2.7-1.9-4.1-5.1-4.1-3 0-5.5 1.7-5.5 4.9 0 4.1 3.6 4.8 7.2 6.1 3.6 1.2 7.3 2.9 7.3 8.8-.2 6.7-5.6 9.6-11.6 9.6zm28.7-1.3c-1.2.7-3.9 1.2-5.3 1.2-4.3 0-6.4-2.5-6.4-6.7 0-4.6.2-9.2.3-13.8l-4.3-.7v-1.4l4.3-.9v-6.2l5-.9-.1 7.1h6.2v2.9h-6.2c0 4-.1 8-.1 12 0 2.9.5 5.8 3.9 5.8.7 0 2.2-.3 2.8-.5 0 .9 0 1.3-.1 2.1zm16.1-8.7c0 3.4-.3 6.8-4.5 6.8-2.2 0-3.6-1.5-3.6-3.8 0-1.9 1-2.6 2.5-3.3 1.7-.9 3.7-1.4 5.7-1.6v1.9zm8.6 9.5v-1.6c-3.9-.1-3.7-2.9-3.7-6.1 0-2.4.2-4.7.2-7.1 0-6.3-2.2-9-8.7-9-3.1 0-6.1.6-8.5 2.8l.7 3.7h1.6c.8-2.3 2.7-3.4 5.1-3.4 4.5 0 4.7 3.1 4.6 7 0 0-7.1.9-10.1 2.3-2.2 1-3.4 2.8-3.4 5.4 0 4.3 3.3 6.5 7.3 6.5 3 0 5.2-1 6.8-3.5l.1 3zm18.3-14.4v9.5c-1.1 1.5-2.9 2.1-4.8 2.1-4.4 0-6-4.8-6-8.5 0-4.1 1.5-9.8 6.5-9.8 4.4 0 4.3 3.3 4.3 6.7zm8.7 14.5v-1.5c-.9-.1-1.9-.4-2.6-.9-1.1-.8-1.2-2.3-1.2-3.8-.3-9.1 0-19.6.1-28.6-1.9-.2-6.1.1-8.9.8v1.4c4.1.2 4 2.6 4 5.7v4c-1.4-.6-2.9-.7-4.3-.7-7.4 0-12.1 5-12.1 12.6 0 6.2 3.5 11.5 10.1 11.5 2.6 0 5.1-.9 6.8-2.9 0 0 .1.9.1 2.5h8z"/></g></svg>