<svg enable-background="new 0 0 232 178" height="178" viewBox="0 0 232 178" width="232" xmlns="http://www.w3.org/2000/svg"><g fill="#f2e610"><path d="m101.2 127.2v12.7 12.6 12.7 12.6h12.7v-12.6h12.7v-12.7h-12.7v-12.6-12.7z"/><path d="m139.2 127.2v12.7h-12.6v12.6h12.6v12.7 12.6h12.7v-12.6-12.7-12.6-12.7z"/><path d="m126.6 51.3h12.6v-12.7h-12.6z"/><path d="m113.9 13.3v-12.7h-12.7v12.7 12.7h12.7z"/><path d="m151.9 26v-12.7-12.7h-12.7v12.7 12.7 12.6h12.7z"/><path d="m113.9 38.6h12.7v-12.6h-12.7z"/><path d="m75.9 51.3h12.7v-12.7-12.6h-12.7v12.6z"/><path d="m63.3 26h12.6v-12.7h-12.6z"/><path d="m75.9 13.3h12.7v-12.7h-12.7z"/><path d="m75.9 165.2h-.1-12.5v12.6h12.5.1 12.5v-12.6z"/><path d="m63.3 127.2h-12.7v12.7 12.6 12.7h12.7v-12.7-12.6h12.6 12.7v-12.7h-12.7z"/><path d="m63.3 101.9h-.1v-12.7-12.6h12.7v-12.7h-12.7-12.7v12.7 12.6h-12.5v12.7h12.5.1v12.6h12.7 12.6 12.7v-12.6h-12.7z"/><path d="m25.3 127.2h-12.6-12.7v12.7 12.6 12.7h12.7v12.6h12.6 12.7v-12.6h-12.7v-12.7h-12.6v-12.6h12.6 12.7v-12.7z"/><path d="m139.2 63.9h-12.6-12.7-12.7v12.7h12.7v12.6 12.7 12.6h12.7v-12.6-12.7-12.6h12.6 12.7v-12.7z"/><path d="m38 .6h-12.7-12.6-12.7v12.7 12.7 12.6 12.7h12.7 12.6v-12.7h-12.6v-12.6-12.7h12.6 12.7 12.6v-12.7z"/><path d="m12.7 76.6v12.6 12.7 12.6h12.6v-12.6-12.7-12.6-12.7h-12.6z"/><g transform="translate(164.53125 .234844)"><path d="m4.7 13.1c-.5 0-1-.1-1.4-.2s-.8-.3-1.1-.6-.6-.6-.9-.9c-.3-.4-.5-.8-.7-1.2l1.2-.6c.1.3.3.6.5.9s.4.5.6.7.5.4.8.5.6.2 1 .2.7 0 1-.1.5-.2.7-.4.4-.4.5-.6.2-.5.2-.8c0-.4-.1-.7-.2-1-.2-.4-.4-.6-.6-.8s-.5-.4-.8-.6-.6-.3-1-.5c-.2-.1-.5-.2-.8-.4-.3-.1-.5-.2-.8-.4-.2-.2-.5-.3-.7-.5s-.4-.4-.5-.7c-.2-.2-.3-.5-.4-.8s-.2-.6-.2-1c0-.5.1-.9.3-1.3s.4-.7.7-1 .7-.5 1.1-.6c.4-.2.8-.2 1.3-.2s.9.1 1.3.2.7.3 1.1.6c.3.2.6.5.8.8s.4.7.6 1l-1.3.6c-.1-.3-.2-.5-.4-.8-.1-.2-.3-.4-.5-.6s-.4-.3-.7-.4-.5-.2-.9-.2c-.3 0-.6 0-.8.1s-.4.3-.6.4c-.2.2-.3.4-.4.6s-.2.5-.2.7c0 .4.1.7.2.9.1.3.3.5.6.7.2.2.5.4.8.6s.6.3.9.5c.3.1.5.3.8.4s.5.3.8.4c.3.2.5.3.7.5s.4.4.6.7c.2.2.3.5.4.8s.1.6.1 1c0 .5-.1.9-.3 1.3s-.4.8-.7 1c-.3.3-.7.5-1.2.7-.4.3-.9.4-1.5.4"/><path d="m11 .4h1.4l1.4 6.4c.1.3.1.7.2.9 0 .3 0 .6.1.9s.1.6.2.9.1.6.2 1c.1-.4.1-.7.2-1s.1-.6.2-.9c0-.3.1-.6.1-.8.1-.3.1-.6.2-.9l1.3-6.4h1.3l1.3 6.5c.1.3.1.6.2.9s.1.6.2.8c.1.3.1.6.2.9s.1.6.2.9c.1-.3.1-.6.2-.9-.1-.3 0-.6 0-.8.1-.3.1-.6.2-.9s.1-.6.2-.9l1.4-6.6h1.3l-2.8 12.5h-1.2l-2-10.1-2.2 10.1h-1.2z"/><path d="m26.6.4h6.4v1.3h-5v4h3.6v1.2h-3.6v4.7h5.3v1.3h-6.7z"/><path d="m39.8 11.6c.6 0 1.2-.1 1.6-.3.5-.2.9-.5 1.2-.9s.5-.9.7-1.5.2-1.4.2-2.3-.1-1.6-.2-2.2c-.2-.6-.4-1.1-.7-1.5s-.7-.7-1.2-.9-1-.3-1.6-.3h-1.5v9.9zm-2.9-11.2h2.7c.9 0 1.6.1 2.3.4.7.2 1.2.6 1.7 1.1.4.5.8 1.2 1 1.9.2.8.3 1.7.3 2.8s-.1 2-.4 2.8c-.2.8-.6 1.4-1 1.9-.5.5-1 .9-1.7 1.1s-1.4.4-2.3.4h-2.7v-12.4z"/><path d="m48.7.4h6.3v1.3h-4.9v4h3.6v1.2h-3.6v4.7h5.2v1.3h-6.6z"/><path d="m.3.4h1.6l3.9 7.6c.1.3.2.5.3.6l.3.6c.1.2.2.3.3.5l.3.6v-9.9h1.3v12.5h-1.3l-4.2-8.1c-.2-.2-.3-.4-.3-.6-.1-.1-.2-.3-.3-.5s-.2-.4-.3-.6-.2-.4-.3-.6v10.4h-1.3z" transform="translate(58.65625)"/></g></g></svg>