<svg height="318" viewBox="0 0 478.03 318" width="478.03" xmlns="http://www.w3.org/2000/svg"><g transform="translate(2.059999 88.748082)"><path d="m1.44 9h211.62v131h-211.62z" fill="#164194" stroke="#fff" stroke-miterlimit="10"/><path d="m108.05 23.71 1.79-5.58 1.79 5.58 5.85-.02-4.75 3.42 1.83 5.56-4.72-3.46-4.73 3.46 1.84-5.56-4.76-3.42z" fill="#ffed00"/><path d="m108.05 120.23 1.79-5.58 1.79 5.58 5.85-.03-4.75 3.43 1.83 5.56-4.72-3.47-4.73 3.47 1.84-5.56-4.76-3.43z" fill="#ffed00"/><path d="m84.05 30.13 1.78-5.58 1.79 5.58 5.86-.02-4.76 3.42 1.84 5.56-4.73-3.46-4.72 3.46 1.83-5.56-4.75-3.42z" fill="#ffed00"/><path d="m66.37 47.84 1.79-5.58 1.78 5.58 5.86-.03-4.75 3.43 1.83 5.56-4.72-3.46-4.73 3.46 1.84-5.56-4.76-3.43z" fill="#ffed00"/><path d="m59.85 71.91 1.79-5.58 1.79 5.58 5.86-.03-4.76 3.43 1.84 5.56-4.73-3.46-4.72 3.46 1.83-5.56-4.75-3.43z" fill="#ffed00"/><path d="m66.31 95.99 1.78-5.58 1.79 5.58 5.86-.03-4.76 3.43 1.84 5.56-4.73-3.47-4.72 3.47 1.83-5.56-4.75-3.43z" fill="#ffed00"/><path d="m84.05 113.69 1.78-5.58 1.79 5.58 5.86-.02-4.76 3.42 1.84 5.56-4.73-3.46-4.72 3.46 1.83-5.56-4.75-3.42z" fill="#ffed00"/><path d="m135.65 30.13-1.78-5.58-1.79 5.58-5.86-.02 4.76 3.42-1.84 5.56 4.73-3.46 4.72 3.46-1.83-5.56 4.75-3.42z" fill="#ffed00"/><path d="m153.33 47.84-1.79-5.58-1.79 5.58-5.85-.03 4.75 3.43-1.83 5.56 4.72-3.46 4.73 3.46-1.84-5.56 4.76-3.43z" fill="#ffed00"/><path d="m159.84 71.91-1.78-5.58-1.79 5.58-5.86-.03 4.76 3.43-1.84 5.56 4.73-3.46 4.72 3.46-1.83-5.56 4.75-3.43z" fill="#ffed00"/><path d="m153.39 95.99-1.78-5.58-1.79 5.58-5.86-.03 4.76 3.43-1.84 5.56 4.73-3.47 4.72 3.47-1.83-5.56 4.75-3.43z" fill="#ffed00"/><path d="m135.65 113.69-1.78-5.58-1.79 5.58-5.86-.02 4.76 3.42-1.84 5.56 4.73-3.46 4.72 3.46-1.83-5.56 4.75-3.42z" fill="#ffed00"/><g fill="#484848"><path d="m248.42 18.73-3.79 3.94v10.48h-4.09v-31h4.09v15.33l13.77-15.33h4.94l-12.2 13.69 13.16 17.31h-4.9z"/><path d="m264.78 21.42a13.69 13.69 0 0 1 1.33-6.09 9.86 9.86 0 0 1 3.71-4.17 10.08 10.08 0 0 1 5.42-1.47 9.72 9.72 0 0 1 7.61 3.25 12.58 12.58 0 0 1 2.9 8.67v.28a13.69 13.69 0 0 1 -1.29 6 9.74 9.74 0 0 1 -3.68 4.16 10.14 10.14 0 0 1 -5.5 1.49 9.7 9.7 0 0 1 -7.59-3.25 12.49 12.49 0 0 1 -2.91-8.63zm4 .47a9.83 9.83 0 0 0 1.74 6.11 6 6 0 0 0 9.53 0 10.85 10.85 0 0 0 1.76-6.59 9.8 9.8 0 0 0 -1.8-6.14 6 6 0 0 0 -9.48 0 10.72 10.72 0 0 0 -1.79 6.62z"/><path d="m293.94 10.11.13 2.9a8.35 8.35 0 0 1 6.93-3.32q7.31 0 7.37 8.24v15.22h-3.94v-15.25a5.26 5.26 0 0 0 -1.14-3.68 4.57 4.57 0 0 0 -3.52-1.22 5.66 5.66 0 0 0 -3.36 1 7 7 0 0 0 -2.26 2.68v16.47h-3.94v-23z"/><path d="m315.26 33.15v-20h-3.64v-3.04h3.64v-2.36a7.85 7.85 0 0 1 2-5.73 7.48 7.48 0 0 1 5.6-2 10.46 10.46 0 0 1 2.71.36l-.22 3.17a11.88 11.88 0 0 0 -2.13-.19 3.85 3.85 0 0 0 -2.95 1.12 4.54 4.54 0 0 0 -1.05 3.22v2.43h4.92v3.05h-4.94v20z"/><path d="m336.72 33.57a10.07 10.07 0 0 1 -7.62-3.07 11.42 11.42 0 0 1 -2.94-8.23v-.73a13.89 13.89 0 0 1 1.31-6.12 10.24 10.24 0 0 1 3.66-4.21 9.17 9.17 0 0 1 5.1-1.52 8.61 8.61 0 0 1 7 3q2.49 3 2.49 8.47v1.64h-15.62a8.2 8.2 0 0 0 2 5.5 6.26 6.26 0 0 0 4.84 2.1 7 7 0 0 0 3.54-.85 8.88 8.88 0 0 0 2.52-2.3l2.41 1.87a9.67 9.67 0 0 1 -8.69 4.45zm-.49-20.65a5.24 5.24 0 0 0 -4 1.74 8.44 8.44 0 0 0 -2 4.86h11.54v-.3a7.57 7.57 0 0 0 -1.62-4.65 5 5 0 0 0 -3.92-1.65z"/><path d="m361.18 13.65a11.63 11.63 0 0 0 -1.93-.15 5.18 5.18 0 0 0 -5.25 3.3v16.35h-3.94v-23h3.83l.06 2.66a6.16 6.16 0 0 1 5.5-3.08 4.14 4.14 0 0 1 1.74.29z"/><path d="m373.59 33.57a10.07 10.07 0 0 1 -7.59-3.07 11.42 11.42 0 0 1 -3-8.23v-.73a13.89 13.89 0 0 1 1.31-6.12 10.17 10.17 0 0 1 3.69-4.21 9.17 9.17 0 0 1 5.1-1.52 8.61 8.61 0 0 1 7 3q2.49 3 2.49 8.47v1.64h-15.59a8.15 8.15 0 0 0 2 5.5 6.24 6.24 0 0 0 4.84 2.1 7 7 0 0 0 3.54-.85 8.88 8.88 0 0 0 2.53-2.26l2.4 1.87a9.66 9.66 0 0 1 -8.72 4.41zm-.49-20.65a5.23 5.23 0 0 0 -4 1.74 8.37 8.37 0 0 0 -2 4.86h11.53v-.3a7.51 7.51 0 0 0 -1.63-4.65 5 5 0 0 0 -3.9-1.65z"/><path d="m390.64 10.11.13 2.9a8.38 8.38 0 0 1 6.9-3.32q7.29 0 7.36 8.24v15.22h-3.94v-15.25a5.31 5.31 0 0 0 -1.09-3.68 4.61 4.61 0 0 0 -3.53-1.22 5.71 5.71 0 0 0 -3.36 1 7 7 0 0 0 -2.26 2.68v16.47h-3.93v-23z"/><path d="m423.63 27a2.9 2.9 0 0 0 -1.2-2.48 11.45 11.45 0 0 0 -4.19-1.52 19.73 19.73 0 0 1 -4.75-1.54 6.66 6.66 0 0 1 -2.6-2.13 5.08 5.08 0 0 1 -.84-2.93 6 6 0 0 1 2.4-4.79 9.3 9.3 0 0 1 6.12-2 9.59 9.59 0 0 1 6.35 2 6.41 6.41 0 0 1 2.44 5.17h-4a3.57 3.57 0 0 0 -1.36-2.69 5.16 5.16 0 0 0 -3.46-1.17 5.36 5.36 0 0 0 -3.37.94 3 3 0 0 0 -1.17 2.45 2.39 2.39 0 0 0 1.13 2.15 13.94 13.94 0 0 0 4.08 1.38 21.51 21.51 0 0 1 4.79 1.58 7 7 0 0 1 2.71 2.2 5.42 5.42 0 0 1 .88 3.14 5.88 5.88 0 0 1 -2.47 4.95 10.34 10.34 0 0 1 -6.4 1.86 11.49 11.49 0 0 1 -4.9-1 7.92 7.92 0 0 1 -3.33-2.73 6.62 6.62 0 0 1 -1.21-3.8h3.94a4.08 4.08 0 0 0 1.59 3.14 6.17 6.17 0 0 0 3.91 1.16 6.27 6.27 0 0 0 3.58-.91 2.78 2.78 0 0 0 1.33-2.43z"/><path d="m441.53 33.57a10.07 10.07 0 0 1 -7.62-3.07 11.42 11.42 0 0 1 -2.91-8.23v-.73a13.89 13.89 0 0 1 1.31-6.12 10.17 10.17 0 0 1 3.66-4.21 9.17 9.17 0 0 1 5.03-1.52 8.61 8.61 0 0 1 7 3q2.49 3 2.49 8.47v1.64h-15.6a8.2 8.2 0 0 0 2 5.5 6.24 6.24 0 0 0 4.84 2.1 7 7 0 0 0 3.54-.85 8.88 8.88 0 0 0 2.53-2.26l2.41 1.87a9.67 9.67 0 0 1 -8.68 4.41zm-.53-20.65a5.24 5.24 0 0 0 -4 1.74 8.37 8.37 0 0 0 -2 4.86h11.54v-.3a7.57 7.57 0 0 0 -1.54-4.65 5 5 0 0 0 -4-1.65z"/><path d="m458.58 10.11.13 2.9a8.38 8.38 0 0 1 6.9-3.32q7.29 0 7.36 8.24v15.22h-3.97v-15.25a5.31 5.31 0 0 0 -1.13-3.68 4.6 4.6 0 0 0 -3.45-1.22 5.72 5.72 0 0 0 -3.37 1 7 7 0 0 0 -2.26 2.68v16.47h-3.93v-23z"/><path d="m238.88 74.42a13.69 13.69 0 0 1 1.33-6.09 9.86 9.86 0 0 1 3.71-4.17 10 10 0 0 1 5.41-1.47 9.73 9.73 0 0 1 7.67 3.25 12.58 12.58 0 0 1 2.9 8.67v.28a13.69 13.69 0 0 1 -1.29 6 9.74 9.74 0 0 1 -3.68 4.16 10.14 10.14 0 0 1 -5.5 1.49 9.68 9.68 0 0 1 -7.59-3.25 12.49 12.49 0 0 1 -2.91-8.63zm4 .47a9.83 9.83 0 0 0 1.74 6.11 6 6 0 0 0 9.53 0 10.85 10.85 0 0 0 1.76-6.59 9.8 9.8 0 0 0 -1.8-6.14 6 6 0 0 0 -9.48 0 10.72 10.72 0 0 0 -1.79 6.62z"/><path d="m268 63.11.1 2.56a8.51 8.51 0 0 1 6.84-3q4.83 0 6.58 3.7a8.6 8.6 0 0 1 3-2.68 8.83 8.83 0 0 1 4.35-1q7.58 0 7.71 8v15.46h-3.94v-15.15a5.32 5.32 0 0 0 -1.13-3.7 5 5 0 0 0 -3.76-1.3 5.11 5.11 0 0 0 -5.32 4.83v15.32h-4v-15.1q0-5-4.92-5a5.27 5.27 0 0 0 -5.3 3.3v16.8h-3.94v-23z"/><path d="m331.78 72.67h-12.27v8.33h14.4v5.13h-20.78v-31h20.73v5.17h-14.35v7.39h12.27z"/><path d="m350.73 83.81a7.73 7.73 0 0 1 -6.3 2.76 7.27 7.27 0 0 1 -5.65-2.13q-1.95-2.11-2-6.23v-15.1h6.15v14.89q0 3.6 3.28 3.6 3.28 0 4.3-2.17v-16.32h6.17v23h-5.78z"/><path d="m374.05 68.88a17.44 17.44 0 0 0 -2.22-.17c-2.32 0-3.85.79-4.57 2.36v15.08h-6.16v-23h5.82l.17 2.75a5.68 5.68 0 0 1 5.13-3.17 6.53 6.53 0 0 1 1.91.27z"/><path d="m375.69 74.42a13.65 13.65 0 0 1 1.31-6.11 9.62 9.62 0 0 1 3.8-4.15 11.07 11.07 0 0 1 5.76-1.47 10.48 10.48 0 0 1 7.61 2.85 11.43 11.43 0 0 1 3.29 7.75v1.57a12 12 0 0 1 -3 8.51 11.48 11.48 0 0 1 -15.89 0c-2-2.13-3-5-3-8.69zm6.15.43a8.66 8.66 0 0 0 1.24 5 4.44 4.44 0 0 0 7 0q1.26-1.73 1.26-5.49a8.5 8.5 0 0 0 -1.26-5 4.07 4.07 0 0 0 -3.53-1.77 4 4 0 0 0 -3.49 1.76 9.57 9.57 0 0 0 -1.22 5.5z"/><path d="m421.73 74.84a13.84 13.84 0 0 1 -2.42 8.53 7.75 7.75 0 0 1 -6.52 3.2 7.18 7.18 0 0 1 -5.64-2.42v10.85h-6.15v-31.89h5.71l.21 2.26a7.23 7.23 0 0 1 5.84-2.68 7.82 7.82 0 0 1 6.62 3.15q2.36 3.15 2.36 8.68zm-6.15-.47a9.09 9.09 0 0 0 -1.14-5 3.71 3.71 0 0 0 -3.31-1.75 4 4 0 0 0 -4 2.22v9.46a4.09 4.09 0 0 0 4 2.28q4.45.03 4.45-7.21z"/><path d="m438.45 86.15a7 7 0 0 1 -.62-2.07 7.43 7.43 0 0 1 -5.83 2.49 8.18 8.18 0 0 1 -5.61-2 6.29 6.29 0 0 1 -2.22-4.93 6.52 6.52 0 0 1 2.71-5.63q2.72-2 7.85-2h2.83v-1.26a3.78 3.78 0 0 0 -.82-2.55 3.23 3.23 0 0 0 -2.59-1 3.62 3.62 0 0 0 -2.43.75 2.52 2.52 0 0 0 -.89 2h-6.13a6.18 6.18 0 0 1 1.23-3.7 8.14 8.14 0 0 1 3.49-2.67 12.7 12.7 0 0 1 5.07-1 10 10 0 0 1 6.76 2.14 7.46 7.46 0 0 1 2.5 6v10a11.07 11.07 0 0 0 .92 5v.36zm-5.09-4.28a5.27 5.27 0 0 0 2.52-.61 4 4 0 0 0 1.7-1.63v-4h-2.3q-4.62 0-4.92 3.2v.36a2.45 2.45 0 0 0 .81 1.89 3.13 3.13 0 0 0 2.19.79z"/><path d="m460.44 79.78a2 2 0 0 0 -1.12-1.78 12.72 12.72 0 0 0 -3.58-1.16q-8.22-1.73-8.22-7a6.35 6.35 0 0 1 2.54-5.12 10.26 10.26 0 0 1 6.65-2 11.08 11.08 0 0 1 7 2.06 6.53 6.53 0 0 1 2.63 5.37h-6.15a3 3 0 0 0 -.86-2.19 3.6 3.6 0 0 0 -2.66-.86 3.71 3.71 0 0 0 -2.4.7 2.22 2.22 0 0 0 -.85 1.79 1.9 1.9 0 0 0 1 1.65 10.11 10.11 0 0 0 3.27 1.09 26.65 26.65 0 0 1 3.88 1q4.88 1.78 4.87 6.2a6 6 0 0 1 -2.7 5.09 11.65 11.65 0 0 1 -7 1.95 12.21 12.21 0 0 1 -5.15-1 8.66 8.66 0 0 1 -3.52-2.83 6.61 6.61 0 0 1 -1.28-3.89h5.84a3.21 3.21 0 0 0 1.21 2.52 4.82 4.82 0 0 0 3 .87 4.42 4.42 0 0 0 2.67-.67 2.08 2.08 0 0 0 .93-1.79z"/><path d="m241 139.15v-18.52h-3.43v-4.52h3.43v-2a8 8 0 0 1 2.22-6 8.62 8.62 0 0 1 6.23-2.14 14.55 14.55 0 0 1 3.13.42l-.06 4.73a7.78 7.78 0 0 0 -1.88-.19q-3.47 0-3.47 3.29v1.86h4.58v4.52h-4.58v18.52z"/><path d="m267.3 121.88a17.44 17.44 0 0 0 -2.22-.17q-3.49 0-4.57 2.36v15.08h-6.16v-23h5.82l.16 2.75a5.7 5.7 0 0 1 5.14-3.17 6.53 6.53 0 0 1 1.91.27z"/><path d="m283.36 139.15a6.75 6.75 0 0 1 -.62-2.07 7.45 7.45 0 0 1 -5.81 2.49 8.15 8.15 0 0 1 -5.61-2 6.27 6.27 0 0 1 -2.23-4.93 6.52 6.52 0 0 1 2.72-5.63q2.71-2 7.84-2h2.83v-1.33a3.78 3.78 0 0 0 -.82-2.55 3.21 3.21 0 0 0 -2.58-1 3.65 3.65 0 0 0 -2.44.75 2.52 2.52 0 0 0 -.88 2h-6.16a6.13 6.13 0 0 1 1.24-3.7 8.08 8.08 0 0 1 3.49-2.67 12.63 12.63 0 0 1 5.07-1 10.06 10.06 0 0 1 6.76 2.14 7.49 7.49 0 0 1 2.5 6v10a11.09 11.09 0 0 0 .91 5v.36zm-5.09-4.28a5.23 5.23 0 0 0 2.51-.61 4 4 0 0 0 1.7-1.63v-4h-2.3q-4.62 0-4.91 3.2v.36a2.44 2.44 0 0 0 .8 1.89 3.14 3.14 0 0 0 2.2.79z"/><path d="m298.83 116.11.19 2.58a8.09 8.09 0 0 1 6.62-3q4.44 0 6.11 3.51a7.91 7.91 0 0 1 6.92-3.51c2.5 0 4.35.72 5.58 2.18s1.83 3.64 1.83 6.57v14.71h-6.18v-14.73a4.44 4.44 0 0 0 -.76-2.87 3.44 3.44 0 0 0 -2.71-.9 3.84 3.84 0 0 0 -3.83 2.64v15.86h-6.15v-14.7a4.35 4.35 0 0 0 -.79-2.91 3.44 3.44 0 0 0 -2.68-.89 4 4 0 0 0 -3.79 2.17v16.33h-6.15v-23z"/><path d="m337.76 110.45v5.66h3.94v4.52h-3.94v11.49a2.73 2.73 0 0 0 .49 1.83 2.47 2.47 0 0 0 1.88.56 9.61 9.61 0 0 0 1.8-.15v4.64a12.55 12.55 0 0 1 -3.72.55q-6.48 0-6.6-6.53v-12.39h-3.36v-4.52h3.36v-5.66z"/><path d="m344.51 110.15a3 3 0 0 1 .93-2.28 4 4 0 0 1 5 0 3.27 3.27 0 0 1 0 4.58 4 4 0 0 1 -5 0 3 3 0 0 1 -.93-2.3zm6.54 29h-6.17v-23h6.17z"/><path d="m354.65 127.46c0-3.59.8-6.45 2.42-8.58a7.83 7.83 0 0 1 6.61-3.19 7 7 0 0 1 5.55 2.51v-11.75h6.18v32.7h-5.56l-.3-2.45a7.22 7.22 0 0 1 -5.92 2.87 7.82 7.82 0 0 1 -6.52-3.2q-2.46-3.21-2.46-8.91zm6.15.44a9.16 9.16 0 0 0 1.13 5 3.65 3.65 0 0 0 3.28 1.73 4.11 4.11 0 0 0 4-2.41v-9.14a4 4 0 0 0 -4-2.41c-2.93-.02-4.41 2.39-4.41 7.23z"/></g></g></svg>