<svg height="170" viewBox="0 0 288.15 192.1" width="255" xmlns="http://www.w3.org/2000/svg"><g transform="translate(-24.93 -23.125)"><path d="m182.22 95.15h.42c.27 0 .46 0 .46-.32s-.27-.29-.48-.29h-.4zm-.47-1h.89c.59 0 .93.19.93.7a.6.6 0 0 1 -.62.63l.63 1h-.49l-.58-1h-.29v1h-.47v-2.31zm.84 2.84a1.66 1.66 0 0 0 0-3.31 1.66 1.66 0 0 0 0 3.31zm0-3.76a2.11 2.11 0 1 1 -2.16 2.1 2.09 2.09 0 0 1 2.16-2.1zm-39.83 0-9.69 9.7v-6.46l-3.24-3.23h-12.92l-3.24 3.23v6.47l-6.46 6.46-6.45-6.46v-6.47l-3.24-3.23h-12.92l-3.23 3.23-3.23-3.23h-12.93l-3.21 3.23v12.93l-16.17-16.16h-12.92l-3.23 3.23v45.24l3.23 3.22h12.92l3.23-3.22v-12.93l16.15 16.15h12.93l3.23-3.22v-25.85l16.15 16.14v9.7l3.24 3.22h12.91l3.24-3.22v-9.7l16.16-16.15v19.39l9.69 9.69h32.3l9.69-9.69v-9.69l-3.22-3.23h-16.16v3.23h-12.92v-12.92h12.92v3.19h16.16l3.22-3.19v-9.69l-9.69-9.7z" fill="#0a5796"/><path d="m206.42 98a2.36 2.36 0 0 0 -2.63-2c-2.2 0-3 1.94-3 3.88s.84 3.87 3 3.87a2.42 2.42 0 0 0 2.63-2.41h3.4c-.18 3.37-2.65 5.34-6 5.34-4 0-6.51-3-6.51-6.8s2.6-6.88 6.55-6.88c2.82 0 5.87 1.79 6 4.94z"/><path d="m214.38 95.67h-3.11v-2.38h3.11zm-3.11 1.19h3.11v9.5h-3.11z"/><path d="m221.85 106.36h-3.58l-3.17-9.5h3.24l1.74 6.28 1.76-6.28h3.16z"/><path d="m228.87 95.67h-3.11v-2.38h3.11zm-3.11 1.19h3.11v9.5h-3.11z"/><path d="m236.82 100.34a1.46 1.46 0 0 0 -1.52-1.34c-1.74 0-2 1.48-2 2.79s.53 2.49 1.85 2.49a1.66 1.66 0 0 0 1.77-1.63h3a4.45 4.45 0 0 1 -4.78 4 4.73 4.73 0 0 1 -5-4.87c0-3 1.92-5.17 5-5.17 2.36 0 4.47 1.24 4.69 3.75z"/><path d="m197.75 112.63h10.41v2.73h-7v2.29h6.41v2.63h-6.41v2.49h7.19v2.93h-10.6z"/><path d="m209.89 116.2h3v1.3a3.59 3.59 0 0 1 3-1.57c3.16 0 3.42 2.3 3.42 3.68v6.09h-3.11v-4.59c0-1.3.14-2.62-1.56-2.62-1.17 0-1.68 1-1.68 2v5.21h-3.11z"/><path d="m230.28 124.54c0 1.56-.29 4.49-4.73 4.49-2.22 0-4.3-.5-4.67-3h3.12a1 1 0 0 0 .53.82 2.44 2.44 0 0 0 1.14.21c1.48 0 1.62-1.05 1.62-2.22v-.9a3 3 0 0 1 -2.53 1.4c-2.87 0-4.17-2-4.17-4.72s1.48-4.65 4.17-4.65a2.75 2.75 0 0 1 2.55 1.46v-1.23h3zm-4.81-6.23c-1.37 0-1.81 1.2-1.81 2.38s.51 2.23 1.79 2.23 1.89-1 1.89-2.22-.48-2.39-1.87-2.39z"/><path d="m231.88 119.13a2.91 2.91 0 0 1 1.48-2.54 6.22 6.22 0 0 1 3-.66c2.25 0 4.43.49 4.43 3.18v4.15a5.63 5.63 0 0 0 .36 2.44h-3.15a3.88 3.88 0 0 1 -.18-.9 4.28 4.28 0 0 1 -3.09 1.2c-1.81 0-3.24-.91-3.24-2.87 0-3.09 3.37-2.85 5.53-3.29.53-.11.82-.3.82-.88s-.86-1-1.5-1a1.38 1.38 0 0 0 -1.55 1.19zm4 4.92c1.48 0 2-.84 1.91-2.8a8.39 8.39 0 0 1 -1.93.51c-.69.17-1.28.46-1.28 1.21s.63 1.08 1.32 1.08z"/><path d="m251.69 124.54c0 1.56-.29 4.49-4.74 4.49-2.21 0-4.3-.5-4.66-3h3.11a1 1 0 0 0 .53.82 2.4 2.4 0 0 0 1.13.21c1.48 0 1.63-1.05 1.63-2.22v-.9a3 3 0 0 1 -2.52 1.4c-2.87 0-4.17-2-4.17-4.72s1.48-4.65 4.17-4.65a2.74 2.74 0 0 1 2.54 1.46v-1.23h3zm-4.81-6.23c-1.37 0-1.81 1.2-1.81 2.38s.51 2.23 1.79 2.23 1.88-1 1.88-2.22-.47-2.39-1.86-2.39z"/><path d="m256 121.71a2 2 0 0 0 2.13 2.16 1.85 1.85 0 0 0 1.77-1h2.91c-.57 2.19-2.6 3.14-4.72 3.14-3.09 0-5.2-1.86-5.2-5a5 5 0 0 1 5.13-5c3.4 0 5.1 2.56 5 5.78zm3.86-1.71a1.92 1.92 0 0 0 -1.86-2 2.06 2.06 0 0 0 -2 2z"/><path d="m264.17 116.2h3v1.3a3.18 3.18 0 0 1 2.83-1.57 2.74 2.74 0 0 1 2.76 1.53 3.5 3.5 0 0 1 3-1.53c3 0 3.35 2.28 3.35 4.1v5.67h-3.12v-5.58c0-1-.49-1.63-1.29-1.63-1.34 0-1.47 1-1.47 2.56v4.65h-3.23v-5.4c0-1.12-.33-1.81-1.17-1.81-1.11 0-1.59.64-1.59 2.58v4.63h-3.11z"/><path d="m283.38 121.71a2 2 0 0 0 2.12 2.16 1.88 1.88 0 0 0 1.78-1h2.9c-.56 2.13-2.59 3.13-4.72 3.13-3.09 0-5.19-1.86-5.19-5a5 5 0 0 1 5.12-5c3.4 0 5.1 2.56 5 5.78zm3.86-1.71a1.93 1.93 0 0 0 -1.85-2 2 2 0 0 0 -2 1.94z"/><path d="m291.54 116.2h3v1.3a3.58 3.58 0 0 1 3-1.57c3.16 0 3.42 2.3 3.42 3.68v6.09h-3.11v-4.59c0-1.3.15-2.62-1.55-2.62-1.18 0-1.69 1-1.69 2v5.21h-3.11z"/><path d="m308.33 118.21h-1.92v4.32c0 .75.43.92 1.11.92h.81v2.25c-.57 0-1.14.09-1.71.09-2.65 0-3.32-.77-3.32-3.35v-4.23h-1.58v-2h1.58v-2.88h3.11v2.87h1.92z"/><path d="m206.42 136.64a2.36 2.36 0 0 0 -2.63-2c-2.2 0-3 1.94-3 3.88s.84 3.88 3 3.88a2.43 2.43 0 0 0 2.63-2.4h3.4c-.18 3.37-2.65 5.34-6 5.34-4 0-6.51-3-6.51-6.8s2.56-6.81 6.51-6.81c2.82 0 5.87 1.79 6 4.94z"/><path d="m215.66 135.27a5 5 0 1 1 -5 5 4.87 4.87 0 0 1 5-5zm0 7.66c1.45 0 1.9-1.42 1.9-2.63s-.45-2.65-1.9-2.65-1.88 1.44-1.88 2.65.44 2.63 1.88 2.63z"/><path d="m221.93 135.54h3v1.3a3.16 3.16 0 0 1 2.72-1.57 2.75 2.75 0 0 1 2.77 1.54 3.47 3.47 0 0 1 3-1.54c3 0 3.35 2.29 3.35 4.1v5.63h-3.11v-5.54c0-1-.49-1.63-1.3-1.63-1.34 0-1.46 1-1.46 2.56v4.61h-3.11v-5.4c0-1.12-.33-1.81-1.17-1.81-1.12 0-1.6.64-1.6 2.58v4.63h-3.11z"/><path d="m238.54 135.54h3v1.3a3.17 3.17 0 0 1 2.73-1.57 2.73 2.73 0 0 1 2.76 1.54 3.47 3.47 0 0 1 3-1.54c3 0 3.35 2.29 3.35 4.1v5.63h-3.11v-5.54c0-1-.49-1.63-1.3-1.63-1.33 0-1.46 1-1.46 2.56v4.61h-3.11v-5.4c0-1.12-.33-1.81-1.17-1.81-1.12 0-1.6.64-1.6 2.58v4.63h-3.11z"/><path d="m258.32 134.35h-3.11v-2.35h3.11zm-3.11 1.19h3.11v9.46h-3.11z"/><path d="m262.58 141.91a1.27 1.27 0 0 0 .51 1.06 1.93 1.93 0 0 0 1.15.33c.61 0 1.46-.26 1.46-1s-1-.87-1.51-1c-2-.5-4.41-.55-4.41-3.11 0-2.29 2.47-2.91 4.33-2.91 2.09 0 4.27.6 4.38 3.07h-2.88a.88.88 0 0 0 -.4-.82 1.8 1.8 0 0 0 -1-.24c-.51 0-1.33.06-1.33.71 0 .9 2.08 1.07 3.51 1.38a2.69 2.69 0 0 1 2.42 2.56c0 2.54-2.42 3.38-4.56 3.38s-4.56-.75-4.65-3.4z"/><path d="m272.48 141.91a1.27 1.27 0 0 0 .52 1.09 2 2 0 0 0 1.16.33c.6 0 1.46-.26 1.46-1s-1-.87-1.52-1c-1.95-.5-4.41-.55-4.41-3.11 0-2.29 2.47-2.91 4.34-2.91 2.09 0 4.26.6 4.37 3.07h-2.87a.9.9 0 0 0 -.4-.82 1.82 1.82 0 0 0 -1-.24c-.51 0-1.34.06-1.34.71 0 .9 2.09 1.07 3.52 1.38a2.68 2.68 0 0 1 2.41 2.56c0 2.54-2.41 3.38-4.55 3.38s-4.56-.75-4.65-3.4z"/><path d="m283.13 134.35h-3.13v-2.35h3.11zm-3.13 1.19h3.11v9.46h-3.11z"/><path d="m289.44 135.27a5 5 0 1 1 -5 5 4.87 4.87 0 0 1 5-5zm0 7.66c1.44 0 1.9-1.42 1.9-2.63s-.46-2.65-1.9-2.65-1.89 1.44-1.89 2.65.45 2.63 1.89 2.63z"/><path d="m295.71 135.54h3v1.3a3.59 3.59 0 0 1 3-1.57c3.17 0 3.43 2.3 3.43 3.68v6.05h-3.11v-4.55c0-1.3.14-2.62-1.56-2.62-1.17 0-1.68 1-1.68 2v5.17h-3.11z"/></g></svg>