<svg xmlns="http://www.w3.org/2000/svg" id="Layer_1" viewBox="0 0 1045.5 697" width="255" height="170"><style id="style2">.st9{fill:#043054}</style><path id="path842" d="M130.646 404.034c-63.1.3-113.2-52.2-111.9-114.1 1.3-60.8 52-110.4 114.2-109.5 60 .9 109.4 51 109.3 112.7 0 61.2-50.1 110.9-111.6 110.9zm-43.7-144.4v45.5c0 4.6-1 9.1-6.2 10.2-9.3 2-16 0-15.9-11.4.1-13 0-26 0-39v-5.2h-21.2c0 17.5-.3 34.6.1 51.7.2 9.9 5.9 16.3 15.3 19.4 11.5 3.7 22.9 3.6 34.4-.2 7.9-2.7 13.8-8 14.2-16.4.7-18.1.2-36.2.2-54.5-6.4-.1-13.3-.1-20.9-.1zm135.4 17.8c-.8-1.6-1.2-2.8-1.9-4-11.6-19.5-43.9-20.8-58.1-2.4-9.4 12.3-10.3 33.1-1.9 46.8 7.4 12.2 22.5 17.9 39.1 14.6 10.7-2.2 18.6-8.2 23.2-18.7-6.6-2.3-12.8-4.6-18.9-6.7-5.5 8-9.9 10.3-16.7 8.3-7.2-2.1-9.5-8.2-9.8-14.7-.3-5.5.2-11.4 1.7-16.7 2.1-7.2 9.1-10.7 15.9-7.9 3.9 1.7 6.7 5.8 10.7 9.4 4.6-2.2 10.5-5 16.7-8zm-78.8 54.4v-72.2h-20.8v72.2h20.8z" class="st9" fill="#043054"/><path d="M175.975 46.707c-3.226.162-6.39 1.741-7.963 4.668-1.61 2.976-1.683 6.145-.756 9.34.975 3.366 3.267 5.513 6.73 6.123a15.28 15.28 0 0 0 4.83.023c2.952-.463 5.074-2.194 6.342-5.072-1.805-.634-3.512-1.27-5.244-1.879-.195.317-.34.61-.512.88-1.414 2.17-4.684 2.144-5.855-.173-1.293-2.536-1.292-5.219.123-7.707 1.22-2.146 4.415-2.048 5.684.074.243.415.413.854.681 1.391l5.049-2.416c-.268-.512-.487-1-.78-1.414-1.816-2.744-5.104-4-8.33-3.838zm-87.426.05c-3.495.17-6.337 1.651-8.002 5.13-1.561 3.292-1.462 6.73-.145 10.072 1.171 3 3.44 4.708 6.707 5.074 2.122.244 4.073-.22 5.975-1.416.073.415.123.733.172 1.026h4.902V55.35h-9.342v4.488h4.073c-.122 1.56-.902 2.439-2.268 2.756-1.951.439-3.683-.123-4.44-1.684-1.243-2.585-1.316-5.292.05-7.853 1.268-2.415 4.757-2.34 6.123.025.219.39.365.78.609 1.268 1.61-.805 3.17-1.562 4.853-2.391-1.61-3.39-4.22-5.025-7.732-5.195a15.277 15.277 0 0 0-1.535-.006zm99.267.325v4.121h5.463v-4.121h-5.463zm22.489 0c0 1.195-.026 2.39.023 3.61.025.195.367.56.586.56 1.463.049 2.927.049 4.39 0 .22-.024.61-.415.633-.635.05-1.146.026-2.315.026-3.535h-5.658zm-54.928.365c-1.976.317-3.757.586-5.635.88v4.657c-.878.025-1.681.073-2.535.121 0 1.244-.001 2.391-.025 3.635.878.049 1.682.098 2.56.147v1.56c0 1.78-.024 3.585.049 5.365.049 1.318.562 2.415 1.928 2.805 2.195.634 4.414.39 6.658.244v-3.707c-.317-.024-.61-.049-.879-.049-1.707-.048-2.097-.413-2.121-2.072-.024-1.049.025-2.123-.023-3.172-.025-.78.243-1.12 1.048-1.072.634.049 1.269 0 1.903 0v-3.756c-.586 0-1.075-.049-1.563 0-1.049.122-1.462-.244-1.388-1.342.097-1.365.023-2.732.023-4.244zm48.781.024c-1.975.317-3.732.586-5.586.879v4.634c-.927.05-1.708.073-2.586.121v3.635c.878.025 1.658.073 2.61.121 0 .513 0 .953.049 1.416 0 1.756-.025 3.486 0 5.243.024 1.219.294 2.44 1.562 2.927 2.293.903 4.658.61 6.975.365v-3.681h-.952c-1.585-.049-1.925-.343-2.023-1.928-.073-1.17-.098-2.366 0-3.537.024-.293.487-.732.828-.805.659-.146 1.343-.048 2.074-.048v-3.756c-.536 0-.977-.074-1.416 0-1.244.195-1.658-.294-1.56-1.537.097-1.318.025-2.635.025-4.05zm39.156 5.101c-1.373.032-2.763.344-4.181.948-1.61.682-2.464 2.025-2.39 3.878.048 1.805 1.073 2.903 2.634 3.44 1.366.463 2.828.658 4.219 1.072.658.195 1.757-.096 1.732.977 0 .22-1.414.683-2.072.537-1.512-.342-2.928-1-4.563-1.586-.756.707-1.731 1.586-2.707 2.488 2.878 2.878 9.074 3.683 12.391 1.707 1.854-1.097 2.22-2.78 2-4.707-.17-1.56-1.341-2.22-2.658-2.683-.488-.171-1-.293-1.512-.414-1.146-.244-2.293-.466-3.44-.758-.268-.098-.488-.438-.732-.682.268-.195.512-.488.805-.586.293-.122.658-.096.951-.023 1.22.341 2.439.755 3.805 1.17.683-.756 1.512-1.634 2.488-2.659-2.24-1.448-4.481-2.172-6.77-2.119zm-121.693.033c-.437-.012-.893.001-1.365.038-3.732.292-6.342 2.683-6.635 6.097-.366 4.269 1.536 7.171 5.317 8.098 2.146.512 4.27.366 6.318-.463 1.317-.537 2.487-1.319 3.267-2.66-1.56-.805-3.023-1.536-4.462-2.268-1.879 1.805-3.951 1.66-4.61-.414.561 0 1.023 0 1.438.024 2.22 0 4.464-.024 6.683.025.756 0 1.195-.196 1.05-1.025-.22-1.22-.293-2.512-.757-3.659-1.003-2.432-3.182-3.708-6.244-3.793zm16.348.004c-1.592.052-3.165.473-4.69 1.327-1.341.756-1.95 2.048-1.804 3.707h4.732c.17-1.22.95-1.683 2.121-1.414.44.097.805.608 1.195.925-.365.293-.657.732-1.072.854-1.683.463-3.439.659-5.049 1.244-1.902.683-2.635 2.268-2.367 4.316.22 1.756 1.488 3.05 3.342 3.391 1.878.341 3.708.195 5.293-.951 1.341 1.097 3.609 1.39 5.926.732-.05-.853.244-2.05-.22-2.537-.658-.683-.56-1.292-.585-1.974-.073-2.025-.072-4.05-.17-6.075-.073-1.22-.731-2.219-1.853-2.658-1.598-.622-3.208-.938-4.8-.887zm88.664.032c-.324-.002-.646.007-.963.025-3.195.17-5.61 2.073-6.342 4.805-.902 3.268.171 6.659 2.586 8.293 2.976 2.024 8.073 1.756 10.854-.61.439-.39.805-.854 1.293-1.39a374.913 374.913 0 0 1-4.538-2.293c-1.878 1.78-3.903 1.635-4.683-.438h9.097c.732-3.61-1.194-7.147-4.414-8.025-.932-.256-1.92-.362-2.89-.367zm-115.684.037c-1.417.048-2.575.638-3.62 1.77-.074-.562-.099-.928-.147-1.294h-5.56v13.512h5.657c0-1.683.025-3.22 0-4.756-.073-3.024.733-4.682 4.123-4.267.025 0 .073-.025.17-.098V52.69a5.926 5.926 0 0 0-.623-.013zm99.428.427v13.561h5.512v-13.56h-5.512zm-22.537.026v13.56h5.416v-13.56h-5.416zm39.103 2.914c.818.054 1.295.67 1.508 1.865h-3.586c.025-1.195.683-1.731 1.707-1.853.131-.016.255-.02.371-.012zm-105.437.008c.822.065 1.31.662 1.48 1.857h-3.44c0-1.146.538-1.756 1.587-1.853.13-.013.255-.014.373-.004zm17.75 4.834c.39 2.024-.294 3.146-1.71 2.902-.463-.097-1.096-.56-1.169-.951-.073-.366.366-1.026.756-1.27.585-.365 1.342-.437 2.123-.681zM81.596 76.13v19.56h5.781v-19.56h-5.781zm57.172 0v4.098h5.488V76.13h-5.488zm-6.366.293c-1.95.317-3.708.584-5.586.877v4.635c-.707 0-1.317-.075-1.902.023-.268.024-.66.366-.684.586-.073 1.049-.023 2.097-.023 3.17.976.073 1.755.123 2.633.172 0 2.268-.025 4.414 0 6.56.024 2 .781 3.05 2.683 3.293 1.683.22 3.39.171 5.098.147.293 0 .806-.366.83-.61.098-1.024.047-2.074.047-3.172h-.902c-1.732-.048-2.097-.389-2.121-2.072v-1.83c0-2.317 0-2.316 2.244-2.414.195 0 .389-.049.78-.098 0-.78 0-1.44-.024-2.171 0-1.61 0-1.61-1.56-1.61h-1.513v-5.486zm22.805.047c-1.951.292-3.733.586-5.66.879v4.537c-.903.048-1.657.072-2.438.12v3.733c.805.049 1.536.098 2.463.147 0 .585-.025 1.072.024 1.56.048 1.903.073 3.805.146 5.707.049 1.098.562 1.976 1.635 2.342 2.244.78 4.512.512 6.805.317v-3.659c-.61-.024-1.196.074-1.635-.12-.464-.22-1.146-.71-1.17-1.124-.122-1.634-.049-3.292-.049-5.023 1-.05 1.928-.075 2.83-.123V81.91h-2.951v-5.44zm31.365 0c-1.951.317-3.708.586-5.586.879v4.609c-.707 0-1.267-.049-1.828 0-.268.024-.756.22-.756.367-.048 1.122-.025 2.268-.025 3.414 1.024.049 1.78.073 2.61.121 0 2.244-.05 4.368 0 6.465.024 1.415.342 2.731 1.878 3.219 2.22.707 4.462.464 6.73.244v-3.658c-.316 0-.535-.026-.779-.026-1.853-.024-2.22-.366-2.244-2.195 0-1.049.025-2.121 0-3.17-.024-.658.243-.952.926-.927.683.024 1.343 0 2.123 0 0-1.025-.05-1.828.024-2.633.097-.927-.194-1.366-1.194-1.244-.56.073-1.123.023-1.879.023v-5.488zm-70.642 5.127c-1.274-.03-2.569.17-3.895.582-2.122.658-3.267 2.22-3.219 4.097.05 1.78 1.123 3.121 3.245 3.78 1.317.39 2.706.562 4.023.927.512.171.975.586 1.463.903-.561.22-1.122.462-1.707.633-.17.048-.389 0-.584-.073-1.415-.512-2.83-1.024-4.416-1.61-.756.684-1.707 1.561-2.756 2.513.439.39.733.731 1.123.95 3.366 2.05 6.926 2.392 10.61 1.075 2.024-.707 2.95-2.366 2.828-4.488-.098-1.634-1.072-2.732-3.194-3.342-1.414-.415-2.855-.61-4.27-1-.39-.122-.681-.536-1.023-.805.39-.22.854-.659 1.196-.586 1.17.244 2.316.659 3.462 1 .293.073.78.27.926.123.805-.78 1.538-1.61 2.416-2.562-2.042-1.387-4.106-2.069-6.228-2.117zm83.646.013c-.294.002-.59.013-.883.032-3.61.243-6.219 2.707-6.511 5.95-.39 4.391 1.463 7.317 5.293 8.22 2.048.487 4.122.39 6.097-.366 1.415-.536 2.66-1.318 3.489-2.732-1.561-.78-3-1.513-4.44-2.244-1.902 1.78-4 1.659-4.635-.414.561 0 1 0 1.44-.05 2.292 0 4.562.026 6.83-.023.317 0 .853-.34.902-.609.61-3.244-1.731-6.806-4.951-7.514a12.284 12.284 0 0 0-2.63-.25zm-98.65.026c-1.422-.062-2.762.377-4.06 1.42-.074-.415-.147-.732-.196-1.05h-5.414v13.659h5.512c0-2.22-.025-4.365 0-6.512 0-.56-.001-1.122.12-1.683.171-.805.684-1.291 1.538-1.291.902.024 1.366.56 1.39 1.388.074 1.952.097 3.905.121 5.856v2.267h5.391c0-3.585.098-7.122-.049-10.634-.073-1.683-1.22-2.781-2.902-3.196a6.984 6.984 0 0 0-1.451-.224zm71.658.316c-.841 0-1.694.006-2.572.006v7.83c-.025 1-.44 1.78-1.537 1.828-1.171.049-1.463-.805-1.463-1.805-.025-2.292-.073-4.56-.05-6.828 0-.707-.17-1.05-.95-1.025-1.293.049-2.61-.024-3.903.049-.292.024-.804.463-.804.707 0 3.293-.002 6.585.193 9.853.122 1.952 1.563 3.172 3.514 3.489 1.78.268 3.364-.097 4.73-1.121.317.317.586.78.88.804 1.658.073 3.316.024 5.097.024 0-4.488-.001-8.879-.026-13.244 0-.196-.39-.536-.609-.536a84.91 84.91 0 0 0-2.5-.03zm-33.768.08v13.682h5.414V82.033h-5.414zm60.952 3.049c1.048-.024 1.73.56 1.779 1.805h-3.584c.049-1.269.78-1.805 1.805-1.805z" transform="scale(4.1)" id="path844" fill="#be002f" stroke-width="0.24390244"/><path id="path878" d="M53.846 456.734h13c0 12.3.4 24.5-.3 36.7-.2 2.9-3.6 6.6-6.5 8-4 2-8.9 2.9-13.4 3-15.2.3-20.8-5.5-20.8-20.7 0-8.5 0-17 .1-25.5 0-.3.1-.6.3-1.3h13.6v28.4c0 3.3.6 6.3 4.3 7.6 5.2 1.9 9.6-1.1 9.8-7 .2-7.8.1-15.6.1-23.5-.2-1.6-.2-3.4-.2-5.7z" class="st9" fill="#043054"/><path id="path884" d="M946.846 504.334c3.6 0 6.9-.1 10.2 0 .9 0 1.8.4 2.7.7 2.1.7 4.6 2.3 6.3 1.8 1.3-.4 1.6-3.7 2.6-6.4-9.8 3.6-15.8 2.4-19.8-3.3-4.2-6.1-4.2-17.3.9-22.4 2.6-2.6 7.2-5.3 10.3-4.6 6.9 1.5 13.7-.2 21.2.9v7.2c-.1 8.8.1 17.6-.3 26.4-.3 6.7-3.4 10.3-9.9 11.1-5.2.7-10.6.6-15.8-.2-5.5-.9-7.9-4.5-8.4-11.2zm13.7-17.9c-.4.3-.7.6-1.1.8 1.6 2.1 3.1 5.9 4.7 5.9 3.8 0 3.7-3.8 3.8-6.8 0-1.1.2-2.5-.4-3.4-.9-1.3-2.3-2.3-3.6-3.4-1 1.1-2.3 2.1-3 3.4-.5 1.1-.3 2.4-.4 3.5z" class="st9" fill="#043054"/><path id="path888" d="M806.946 468.234c-3.7 1.8-7.3 3.6-11.3 5.6-.7-1.2-1-2.5-1.8-3-2.4-1.5-5-3.8-7.4-3.7-2.2 0-5.3 2.3-6.5 4.4-2.9 5.4-2.8 11.3-.3 16.9 3.1 7 10.3 6.7 15.8-.6 1.9.7 4 1.3 6 2 1.9.7 3.7 1.4 5.5 2.1-2.3 8.5-11.7 13.7-22.4 12.6-12.4-1.2-20-9.7-20.6-22.9-.6-13.5 6.2-23 18.3-25.4 11-2.4 21.1 2.5 24.7 12z" class="st9" fill="#043054"/><path id="path890" d="M831.846 503.334v-17.1c0-2.7.2-5.8-3.7-5.7-3.7.1-3.8 3.1-3.9 5.9-.1 5.5 0 11 0 16.8h-13v-46.3h12.9v15.7c2.1-.9 3.4-1.6 4.8-2.1 9.1-3.2 15.8 1.1 16.2 10.7.3 6.7.1 13.3.1 20 0 .6-.2 1.2-.4 2.1h-13z" class="st9" fill="#043054"/><path id="path892" d="M318.846 470.834h13.7c1.5 6.5 3 13 4.8 20.7 1.7-7.7 3.1-14.2 4.6-20.7h14c-4.8 13.8-9.3 27.3-14.2 40.6-.7 1.8-3.2 3.3-5.2 4.1-2.1.9-4.6.9-6.9 1-8.9.3-9.6-.7-7.9-9.8.6-.1 1.3-.2 1.9-.3 5.5-.6 6.2-1.5 4.6-6.6-2.5-7.9-5.1-15.8-7.7-23.7-.6-1.7-1.1-3.4-1.7-5.3z" class="st9" fill="#043054"/><path id="path894" d="M387.646 504.634c-11.5-.1-18.7-6.9-18.5-17.6.2-10.7 7.5-17.4 19-17.3 11.3.1 18.7 7.1 18.6 17.7-.2 10.6-7.5 17.2-19.1 17.2zm4.3-17.7c-.1-.8.3-2.2-.3-3.1-1-1.6-2.6-2.9-3.9-4.4-1.3 1.5-3 2.8-3.7 4.6-.6 1.8-.7 4.1 0 5.9.7 1.9 2.5 3.3 3.9 4.9 1.3-1.7 2.7-3.3 3.8-5.1.4-.6.1-1.6.2-2.8z" class="st9" fill="#043054"/><path id="path896" d="M1004.046 469.634c11.3.1 18.7 7.2 18.5 17.8-.1 10.7-7.4 17.3-19 17.2-11.5-.1-18.7-7-18.5-17.6.3-10.8 7.6-17.5 19-17.4zm-4.3 16.6c.1 1.9-.1 3.4.4 4.5.9 1.5 2.4 2.7 3.6 4.1 1.3-1.3 3.4-2.4 3.6-3.9.5-2.8.2-5.9-.4-8.8-.2-1-2-2.4-3.1-2.4s-2.6 1.2-3.2 2.3c-.7 1.3-.7 3.1-.9 4.2z" class="st9" fill="#043054"/><path id="path898" d="M591.046 469.634c11.3.1 18.7 7.1 18.6 17.7-.1 10.7-7.4 17.3-19 17.2-11.6-.1-18.8-6.9-18.6-17.6.2-10.6 7.6-17.3 19-17.3zm3.9 17.5c-.5-3.1.4-7.7-4.4-7.5-4.2.2-3.8 4.4-3.7 7.5 0 3.1-.4 7.3 3.7 7.5 4.9.2 3.9-4.4 4.4-7.5z" class="st9" fill="#043054"/><path id="path900" d="M74.146 503.234v-33.3c4.6.8 8.9 1.6 13.1 2.3.8.1 1.8-.3 2.6-.7 10.6-4.9 18-.6 18.4 10.9.2 6.8 0 13.6 0 20.8h-13.3v-16.6c0-2.7.2-5.9-3.6-5.9-3.7-.1-3.9 3-4 5.7-.1 5.5 0 11 0 16.8h-13.2z" class="st9" fill="#043054"/><path id="path902" d="M533.246 469.734c4.8 1 9.1 2 13.4 2.7.8.1 1.8-.7 2.6-1.2 9.8-4.6 17.5-.1 17.9 10.7.3 7 0 14 0 21.3h-13.3v-16.7c0-2.7.2-5.8-3.6-5.9-3.7 0-3.9 3.1-4 5.8-.1 5.5 0 11 0 16.8h-13v-33.5z" class="st9" fill="#043054"/><path id="path904" d="M203.846 489.734h-21.5c1.8 5.5 5.1 5.9 11.3 1.4 2.9 1.5 5.8 3.1 8.7 4.7.4.2.7.7 1.2 1.3-6 6.9-13.6 8.5-22.1 6.8-7.3-1.4-11.7-5.9-13-13.3-1.2-7.1.1-13.5 6.3-17.7 6.7-4.5 14.2-4.8 21.3-1 6.8 3.7 8.2 10.1 7.8 17.8zm-13.8-7.2c.4-.4.8-.7 1.3-1.1-1.5-1.2-3.1-3.4-4.6-3.3-1.8 0-3.5 2-5.2 3.1.3.4.5.8.8 1.3h7.7z" class="st9" fill="#043054"/><path id="path906" d="M908.246 482.234c1.2-3.1 1.5-5.3 2.7-7 4.3-6.5 21.8-7.8 26.9-2 1.4 1.6 2 4.1 2.3 6.4.9 6.6 1.4 13.3 2.1 20 .3 3.2-.5 5.3-4.3 4.8-2.6-.3-5.2-.8-7.8-1.1-1.3-.1-2.5-.2-3.8-.1-3.4.3-6.9 1.2-10.3.9-4.8-.5-7.7-3.7-8.1-8.7-.4-4.9 1.6-8.6 6.2-10.3 3.2-1.2 6.8-1.6 10.1-2.5 1.3-.4 2.4-1.3 3.5-2.1.1-.1-.5-1.9-1-1.9-1.5-.2-4.1-.7-4.6.1-3.4 5.4-8.6 1.6-13.9 3.5zm19.1 5.8c-2.9 2.6-4.9 4.5-6.9 6.4 1.3.8 2.6 2.4 3.8 2.2 4.2-.5 3.8-3.7 3.1-8.6z" class="st9" fill="#043054"/><path id="path908" d="M683.246 480.634c1.6-2.6 2.6-5.7 4.8-7.6 4.9-4.3 18.1-5 23.2-1 2 1.6 3.4 4.8 3.8 7.5.6 4.1.2 8.3.2 12.5 0 1.2.1 2.3.2 3.5.3 2.7.6 5.5.9 8.2-3.3 0-6.7.7-9.7-.2-2.5-.8-4.3-.3-6.7-.1-4.3.4-9.2.6-12.9-1.3-6.4-3.2-5.4-13.6 1.3-16.7 3.4-1.6 7.4-1.9 11-3 1.3-.4 2.4-1.3 3.5-2.1.1-.1-.6-1.8-1-1.9-1.5-.2-4.1-.6-4.6.1-3.6 5.4-8.7 1.9-12.9 3.1-.4-.3-.7-.6-1.1-1zm20.5 10.3c-.8-.7-1.5-1.4-2.3-2.1-2 1.8-4.1 3.5-6.1 5.3 1.4.9 3.6 2.7 4 2.4 1.7-1.5 3-3.6 4.4-5.6z" class="st9" fill="#043054"/><path id="path910" d="M267.146 475.134c-1.9 2-3.7 4.1-5.6 6.1-4.2-1.6-8-4.8-13.8-1.5 2.2.9 3.6 1.7 4.9 2 2.9.8 5.8 1.4 8.7 2.2 4.1 1.2 7.2 3.7 7.3 8.4.2 4.8-2 8.2-6.4 10.3-8 3.7-20.3 1.8-27.5-4.7 2.3-2.1 4.5-4.2 6.7-6.2 8.9 4.9 10.8 5.3 16.3 2.4-2.6-1-4.4-1.7-6.2-2.3-3.2-.9-6.9-1-9.4-2.8-2.5-1.8-4.6-5.1-5.4-8.1-1-3.9 1.5-6.9 5-8.9 7.1-4.2 18.7-2.9 25.4 3.1z" class="st9" fill="#043054"/><path id="path912" d="M659.246 480.434c-5.1-1-9.1-1.8-13-2.6-.2.7-.4 1.5-.6 2.2 1.3.6 2.7 1.3 4 1.7 2.9.8 5.8 1.4 8.7 2.2 4.1 1.2 7.2 3.7 7.3 8.4.2 4.8-2 8.2-6.4 10.3-8 3.7-20.3 1.8-27.5-4.7 2.3-2.1 4.5-4.2 6.7-6.2 8.9 4.9 10.8 5.3 16.3 2.4-2.6-1-4.4-1.7-6.2-2.3-3.2-.9-6.9-1-9.4-2.8-2.5-1.8-4.6-5.1-5.4-8.1-1-3.9 1.5-6.9 5-8.9 7.2-4.2 18.8-2.9 25.5 3.1-1.9 2-3.8 4.1-5 5.3z" class="st9" fill="#043054"/><path id="path914" d="M433.746 470.934v8.6c-2.1.2-4 .4-6.4.6v23.2h-13.3v-22.9c-1.8-.4-3.2-.6-4.9-1v-8.5c1.4-.1 2.9-.3 4.4-.4.1-.9.2-1.5.3-2.1.4-10.2 7.8-15.5 17.7-12.2 1.1.4 2 2.2 2.3 3.5.4 1.7.1 3.6.1 5.7-3.1.5-7.1-.1-6.5 5.1 2 0 4 .2 6.3.4z" class="st9" fill="#043054"/><path id="path916" d="M903.646 481.734c-3.9.7-7.8 1.5-10 1.9-3.1-2-5-3.1-6.9-4.3-1 2.1-2.3 4.2-2.8 6.4-.4 1.7-.1 3.7.3 5.4 1 4 3.4 4.5 6.4 1.7.9-.8 2.4-1.5 3.6-1.4 3.1.3 6.2 1 9.2 1.6-1.5 7.8-8.5 12.1-17.9 11.3-9.9-.8-15.6-6.7-15.9-16.4-.3-10 5-16.7 14.7-18.2 9.5-1.3 16.9 3 19.3 12z" class="st9" fill="#043054"/><path id="path918" d="M296.846 480.034c-2.3-.2-3.9-.3-5.8-.5v-8.6c1.8-.2 3.5-.3 5.7-.6v-10.6c4.4-.7 8.5-1.4 13.2-2.2v12.7c2.5.2 4.4.4 6.8.7v8.5c-1.7.2-3.6.4-5.5.7-3.3 9.3-1.3 14.7 5.8 15.8 1.6 8.2 1 8.8-7.2 8.7-1.7 0-3.3-.1-5-.3-5.8-.8-7.8-3-8-8.8-.1-2.5 0-5 0-7.5v-8z" class="st9" fill="#043054"/><path id="path920" d="M746.346 496.234c.8 8.3.7 8.5-7.5 8.3-2 0-4-.2-5.9-.5-4.7-.6-7-3.5-7-8.1v-15.7c-2-.3-3.7-.5-5.8-.8v-8.5c1.7-.2 3.5-.4 5.7-.6v-10.6c4.4-.7 8.5-1.4 13.2-2.2v12.7c2.5.2 4.4.4 6.8.7v8.5c-1.8.2-3.9.5-6.5.8 0 3.9-.7 7.9.3 11.4.6 2.1 3.7 3.5 5.6 5.3.3-.3.7-.5 1.1-.7z" class="st9" fill="#043054"/><path id="path922" d="M131.246 470.834h13.3c1.5 5.8 3 11.7 4.8 18.7 1.7-6.9 3.2-12.7 4.7-18.7h13.7c-3.7 11-7.2 21.8-10.7 32.3-.5.2-.7.2-.9.2-14.3 1-14.3 1-18.7-12.4-2.1-6.3-4.1-12.6-6.2-18.9-.1-.3 0-.6 0-1.2z" class="st9" fill="#043054"/><path id="path924" d="M452.246 456.734h13.2v46.5h-13.2v-46.5z" class="st9" fill="#043054"/><path id="path926" d="M493.746 503.134v-46.3h12.8v46.3h-12.8z" class="st9" fill="#043054"/><path id="path928" d="M486.446 503.434h-12.6v-46.5h12.6v46.5z" class="st9" fill="#043054"/><path id="path930" d="M222.246 503.334h-13.1v-31.9c6.5-1.8 11.8-1.1 13.1 1.6 3.1-1.3 6.2-2.6 10-4.2v12.2c-9.3 1.8-10 2.7-10 12.3v10z" class="st9" fill="#043054"/><path id="path934" d="M864.846 503.434h-12.6v-32.4h12.6v32.4z" class="st9" fill="#043054"/><path id="path936" d="M626.846 503.434h-12.6v-32.5h12.6v32.5z" class="st9" fill="#043054"/><path id="path938" d="M513.246 470.834h12.6v32.5h-12.6v-32.5z" class="st9" fill="#043054"/><path id="path940" d="M285.946 470.934v32.4h-12.8v-32.4h12.8z" class="st9" fill="#043054"/><path id="path942" d="M114.246 470.834h12.7v32.5h-12.7v-32.5z" class="st9" fill="#043054"/><path id="path948" d="M113.946 466.234v-9.2h12.9v9.2h-12.9z" class="st9" fill="#043054"/><path id="path950" d="M285.946 457.034v9.3h-12.8v-9.3h12.8z" class="st9" fill="#043054"/><path id="path952" d="M526.046 456.934v9.3h-12.7v-9.3h12.7z" class="st9" fill="#043054"/><path id="path954" d="M613.946 466.234v-9.2h12.9v9.2h-12.9z" class="st9" fill="#043054"/><path id="path956" d="M864.946 457.034v9.2h-12.8v-9.2h12.8z" class="st9" fill="#043054"/></svg>